<svg xmlns="http://www.w3.org/2000/svg"><defs><font id="SourceSansPro-Bold" horiz-adv-x="0"><font-face font-family="Source Sans Pro" font-weight="700" panose-1="2 11 7 3 3 4 3 2 2 4" ascent="750" descent="-250" x-height="496" cap-height="652" bbox="-457 -315 2157 1009" underline-thickness="50" underline-position="-100" unicode-range="U+0020-1F16B"/><glyph glyph-name="f_f" unicode="ff" horiz-adv-x="657" d="M406 0v381H237V0H90v381H24v109l66 5v23q0 38 10.5 72t33 59 58 39.5T278 703q32 0 59-5.5t44-12.5l-27-109q-12 5-25 8t-33 3q-26 0-42.5-16.5T237 519v-23h169v26q0 39 9.5 74t31.5 61 57 41 85 15q31 0 56.5-6t42.5-12l-27-108q-28 10-51 10-27 0-42-16.5T553 526v-30h89V381h-89V0H406z"/><glyph glyph-name="f_t" unicode="ft" horiz-adv-x="688" d="M90 0v381H24v109l66 5v27q0 39 9.5 74t31.5 61 57 41 85 15q31 0 56.5-6t42.5-12l-27-108q-28 10-51 10-27 0-42-16.5T237 526v-30h161l17 132h122V496h119V381H537V182q0-42 17.5-60.5T601 103q12 0 24.5 3t22.5 7L671 6q-20-6-47-12t-63-6q-46 0-78.5 14t-53 39-30 60.5T390 180v201H237V0H90z"/><glyph glyph-name="f_f_t" unicode="fft" horiz-adv-x="1004" d="M90 0v381H24v109l66 5v23q0 38 10.5 72t33 59 58 39.5T278 703q32 0 59-5.5t44-12.5l-27-109q-12 5-25 8t-33 3q-26 0-42.5-16.5T237 519v-23h169v26q0 39 9.5 74t31.5 61 57 41 85 15q31 0 56.5-6t42.5-12l-27-108q-28 10-51 10-27 0-42-16.5T553 526v-30h161l17 132h122V496h119V381H853V182q0-42 17.5-60.5T917 103q12 0 24.5 3t22.5 7L987 6q-20-6-47-12t-63-6q-46 0-78.5 14t-53 39-30 60.5T706 180v201H553V0H406v381H237V0H90z"/><glyph glyph-name=".notdef" horiz-adv-x="690" d="M80 0v660h530V0H80zm183 91h164l-39 77-41 98h-4l-41-98zm80 323h4l42 95 32 59H269l31-59zM178 155l95 185-95 186V155zm333 0v371l-94-186z"/><glyph glyph-name="space" horiz-adv-x="200"/><glyph glyph-name="A" unicode="A" horiz-adv-x="573" d="M230 330l-16-60h139l-15 60q-14 49-27 104t-26 106h-4q-12-52-24.5-106.5T230 330zM-6 0l204 652h177L579 0H423l-40 155H184L144 0H-6z"/><glyph glyph-name="B" unicode="B" horiz-adv-x="605" d="M77 0v652h223q51 0 94.5-7.5t76-26.5 51-50 18.5-78q0-22-6-44t-17-41-26.5-34-35.5-22v-4q25-6 46-18.5t37-31.5 25-44.5 9-58.5q0-50-19.5-86t-54-59.5-80.5-35T319 0H77zm147 391h69q54 0 78.5 21t24.5 56q0 38-25 54t-77 16h-70V391zm0-277h83q121 0 121 88 0 43-30 61.5T307 282h-83V114z"/><glyph glyph-name="C" unicode="C" horiz-adv-x="582" d="M349-12q-62 0-117 21.5T135.5 73 70 177.5 46 322q0 81 25 144.5T138 574t98 67 118 23q63 0 113-25.5t83-59.5l-78-94q-25 23-52.5 37.5T357 537q-33 0-62.5-14.5t-51-41.5-34-66-12.5-88q0-101 43-156.5T355 115q40 0 71.5 17.5T482 176l78-92q-82-96-211-96z"/><glyph glyph-name="D" unicode="D" horiz-adv-x="635" d="M77 0v652h184q75 0 135-19t103-58.5T565 474t23-145-23-146-65-102.5T399.5 20 269 0H77zm147 119h28q42 0 76 11t58 35.5 37.5 64.5 13.5 99q0 58-13.5 97.5t-37.5 63-58 33.5-76 10h-28V119z"/><glyph glyph-name="E" unicode="E" horiz-adv-x="548" d="M77 0v652h408V528H224V397h222V274H224V124h271V0H77z"/><glyph glyph-name="F" unicode="F" horiz-adv-x="524" d="M77 0v652h411V528H224V377h226V253H224V0H77z"/><glyph glyph-name="G" unicode="G" horiz-adv-x="638" d="M365-12q-67 0-125.5 21.5T138 73 70.5 177.5 46 322q0 81 25 144.5T139.5 574 241 641t123 23q71 0 122-26t83-59l-77-94q-25 22-53 37t-70 15q-38 0-69.5-14.5T245 481t-35.5-66-12.5-88q0-101 45.5-156.5T380 115q20 0 39 5t31 15v112H342v120h238V67q-34-33-90-56T365-12z"/><glyph glyph-name="H" unicode="H" horiz-adv-x="674" d="M77 0v652h147V401h225v251h148V0H449v272H224V0H77z"/><glyph glyph-name="I" unicode="I" horiz-adv-x="301" d="M77 0v652h147V0H77z"/><glyph glyph-name="J" unicode="J" horiz-adv-x="509" d="M226-12q-75 0-125.5 29T16 106l100 74q18-33 42-49t49-16q40 0 60.5 24.5T288 229v423h147V217q0-47-12.5-89t-38-73-65-49T226-12z"/><glyph glyph-name="K" unicode="K" horiz-adv-x="614" d="M77 0v652h147V385h4l194 267h162L387 392 620 0H459L300 275l-76-100V0H77z"/><glyph glyph-name="L" unicode="L" horiz-adv-x="518" d="M77 0v652h147V124h258V0H77z"/><glyph glyph-name="M" unicode="M" horiz-adv-x="762" d="M77 0v652h161l105-290q10-29 19-59.5t19-60.5h4q10 30 18.5 60.5T422 362l103 290h160V0H551v239q0 24 2 53t5 58.5 6 58 6 52.5h-4l-53-155-93-249h-81l-93 249-52 155h-4q3-24 6-52.5t6-58 5-58.5 2-53V0H77z"/><glyph glyph-name="N" unicode="N" horiz-adv-x="665" d="M77 0v652h151l170-324 64-144h4q-5 52-11.5 116T448 422v230h140V0H437L267 325l-64 142h-4q5-54 11.5-116t6.5-120V0H77z"/><glyph glyph-name="O" unicode="O" horiz-adv-x="684" d="M342-12q-66 0-120.5 23.5T128 79 67.5 186 46 329t21.5 142.5 60.5 105 93.5 65T342 664t120.5-22.5T556 576t60.5-105.5T638 329q0-80-21.5-143T556 79t-93.5-67.5T342-12zm0 127q67 0 106 57.5T487 329q0 98-39 153t-106 55-106-55-39-153q0-99 39-156.5T342 115z"/><glyph glyph-name="P" unicode="P" horiz-adv-x="596" d="M77 0v652h224q54 0 101-10.5t82-35 55.5-65T560 442q0-57-20.5-99T484 274t-81-40-98-13h-81V0H77zm147 338h72q120 0 120 104 0 51-32 72t-92 21h-68V338z"/><glyph glyph-name="Q" unicode="Q" horiz-adv-x="684" d="M342 108q67 0 106 58t39 163q0 98-39 153t-106 55-106-55-39-153q0-105 39-163t106-58zm215-290q-52 0-96 13.5t-79.5 37-62.5 56T275-5q-52 11-94.5 38.5T108 104t-46 99.5T46 329q0 80 21.5 142.5t60.5 105 93.5 65T342 664t120.5-22.5T556 576t60.5-105.5T638 329q0-132-56-217T431 0q23-35 62-49.5T574-64q21 0 39.5 3t32.5 8l26-107q-18-9-47.5-15.5T557-182z"/><glyph glyph-name="R" unicode="R" horiz-adv-x="613" d="M77 0v652h235q52 0 97.5-10t79.5-33.5 54-62.5 20-97q0-72-31.5-118.5T447 261L595 0H430L305 235h-81V0H77zm147 352h76q58 0 88.5 24.5T419 449t-30.5 67-88.5 19h-76V352z"/><glyph glyph-name="S" unicode="S" horiz-adv-x="556" d="M276-12q-64 0-127.5 23.5T35 82l84 101q35-30 77.5-49t83.5-19q46 0 68.5 17t22.5 46q0 15-6.5 26t-19 19.5-30 16L277 256l-85 36q-25 10-48.5 26t-42 37.5-29.5 50T61 470q0 40 17 75.5t48 62 73.5 41.5 93.5 15q57 0 112.5-22t97.5-64l-75-93q-32 25-64 38.5T293 537q-38 0-60.5-15.5T210 478q0-15 7.5-25.5t21-19 31.5-16 39-16.5l84-34q60-24 94.5-66T522 190q0-41-16.5-77.5t-48-64-77.5-44T276-12z"/><glyph glyph-name="T" unicode="T" horiz-adv-x="556" d="M204 0v528H25v124h506V528H352V0H204z"/><glyph glyph-name="U" unicode="U" horiz-adv-x="665" d="M334-12q-127 0-194 75T73 302v350h148V287q0-96 29-134t84-38 85 38 30 134v365h142V302q0-164-65.5-239T334-12z"/><glyph glyph-name="V" unicode="V" horiz-adv-x="556" d="M190 0L-7 652h156l78-304q15-54 26.5-104.5T280 139h4q14 54 26 104.5T336 348l77 304h150L367 0H190z"/><glyph glyph-name="W" unicode="W" horiz-adv-x="813" d="M135 0L14 652h151l45-305q6-51 13-102.5T236 141h4q10 52 19.5 103.5T279 347l70 305h125l70-305q10-50 19.5-101.5T583 141h4q7 53 13.5 104T614 347l45 305h141L684 0H499l-64 296q-8 38-14.5 76.5T409 447h-4q-6-36-12.5-74.5T378 296L317 0H135z"/><glyph glyph-name="X" unicode="X" horiz-adv-x="567" d="M11 0l181 335L22 652h164l57-123q11-23 22-48.5t25-56.5h4q11 31 21.5 56.5T336 529l52 123h157L376 328 556 0H392l-65 133q-12 26-23.5 51.5T278 240h-4q-11-30-22-55.5T230 133L169 0H11z"/><glyph glyph-name="Y" unicode="Y" horiz-adv-x="525" d="M189 0v232L-8 652h158l58-150q14-37 26.5-71.5T261 358h4q14 38 27.5 72.5T320 502l59 150h154L336 232V0H189z"/><glyph glyph-name="Z" unicode="Z" horiz-adv-x="541" d="M36 0v89l288 439H63v124h442v-89L217 124h291V0H36z"/><glyph glyph-name="a" unicode="a" horiz-adv-x="527" d="M190-12q-34 0-61.5 11.5T82 31.5 52.5 79 42 138q0 78 66 122t213 59q-2 33-19.5 52.5T243 391q-32 0-63.5-12T112 346l-53 97q48 29 100.5 47T271 508q96 0 146.5-54.5T468 284V0H348l-10 51h-4q-32-28-67-45.5T190-12zm50 114q25 0 43 11t38 31v87q-78-11-108-32t-30-50q0-24 15.5-35.5T240 102z"/><glyph glyph-name="b" unicode="b" horiz-adv-x="573" d="M325-12q-33 0-66.5 16.5T196 53h-4L180 0H65v701h147V529l-4-76q29 26 62.5 40.5T339 508q45 0 81-18t61.5-50.5 39-79T534 257q0-64-17.5-114t-47-84.5-67-52.5T325-12zm-34 120q38 0 65 34.5T383 254q0 134-86 134-44 0-85-45V140q20-18 40-25t39-7z"/><glyph glyph-name="c" unicode="c" horiz-adv-x="467" d="M281-12q-52 0-96.5 17.5T107 56t-52 81.5T36 248t21 110.5 56.5 81.5 82.5 50.5 98 17.5q46 0 81.5-15t63.5-38l-69-95q-35 29-67 29-54 0-85-38t-31-103 31.5-103 79.5-38q24 0 46.5 10.5T387 143l58-96q-37-32-80-45.5T281-12z"/><glyph glyph-name="d" unicode="d" horiz-adv-x="573" d="M242-12q-46 0-83.5 18t-64 51.5-41 81.5T39 248t17.5 109 46 81.5 66 51.5 76.5 18q42 0 69-14t53-38l-6 76v169h147V0H388l-10 49h-4q-26-26-61-43.5T242-12zm38 120q24 0 43.5 10t37.5 35v203q-20 18-41 25t-41 7q-35 0-62-33.5T190 250q0-74 23.5-108t66.5-34z"/><glyph glyph-name="e" unicode="e" horiz-adv-x="518" d="M287-12q-53 0-99 17.5t-80 51T55 138 36 248q0 60 20 108.5t52.5 82T183 490t87 18q53 0 92.5-18t66-50 39.5-75.5 13-94.5q0-20-2-38t-4-27H178q10-54 44.5-79.5T307 100q53 0 107 33l49-89q-38-26-84.5-41T287-12zM177 302h179q0 42-19 68t-64 26q-35 0-61.5-23T177 302z"/><glyph glyph-name="f" unicode="f" horiz-adv-x="341" d="M90 0v381H24v109l66 5v27q0 39 9.5 74t31.5 61 57 41 85 15q31 0 56.5-6t42.5-12l-27-108q-28 10-51 10-27 0-42-16.5T237 526v-30h89V381h-89V0H90z"/><glyph glyph-name="g" unicode="g" horiz-adv-x="534" d="M242-211q-44 0-81.5 7.5t-66 22.5T50-142 34-85q0 60 71 100v4Q85 32 72 52t-13 51q0 27 16 51.5t40 41.5v4q-26 18-46.5 51.5T48 329q0 45 17 78.5t45.5 56T176 497t77 11q44 0 77-12h181V389h-79q7-11 11.5-28t4.5-37q0-43-15-74.5t-41.5-52-62-30.5-76.5-10q-29 0-60 10-10-8-14-16t-4-21q0-19 16.5-28t58.5-9h80q92 0 140.5-29.5T519-33q0-39-19.5-71.5t-55.5-56-87-37T242-211zm11 457q29 0 48.5 20.5T321 329q0 39-19.5 59.5T253 409t-48.5-20-19.5-60q0-42 19.5-62.5T253 246zm12-365q50 0 82 17.5T379-58q0 23-19.5 31T303-19h-51q-26 0-42 1.5T182-13q-27-24-27-49 0-28 30-42.5t80-14.5z"/><glyph glyph-name="h" unicode="h" horiz-adv-x="571" d="M65 0v701h147V529l-7-89q28 25 65 46.5t88 21.5q81 0 117.5-53T512 308V0H365v289q0 54-14.5 74T304 383q-28 0-48-12.5T212 335V0H65z"/><glyph glyph-name="i" unicode="i" horiz-adv-x="276" d="M65 0v496h147V0H65zm73 569q-37 0-61 21.5T53 646t24 55 61 21q38 0 61.5-21t23.5-55-23.5-55.5T138 569z"/><glyph glyph-name="j" unicode="j" horiz-adv-x="278" d="M36-196q-31 0-51.5 4T-51-182l26 108q10-3 19-5t20-2q29 0 40.5 19T66-1v497h147V3q0-41-8.5-77t-29-63-54.5-43-85-16zm104 765q-37 0-61 21.5T55 646t24 55 61 21 61-21 24-55-24-55.5-61-21.5z"/><glyph glyph-name="k" unicode="k" horiz-adv-x="548" d="M65 0v701h143V299h4l157 197h160L355 292 542 0H383L271 193l-63-71V0H65z"/><glyph glyph-name="l" unicode="l" horiz-adv-x="286" d="M200-12q-38 0-64 12T94.5 33.5 72 85.5 65 154v547h147V148q0-23 8.5-32t17.5-9h8.5l9.5 2L274 0q-12-5-30.5-8.5T200-12z"/><glyph glyph-name="m" unicode="m" horiz-adv-x="857" d="M65 0v496h120l10-64h4q31 31 66 53.5t84 22.5q53 0 85.5-21.5T486 425q33 34 69.5 58.5T642 508q80 0 117.5-53.5T797 308V0H650v289q0 54-14.5 74T589 383q-37 0-85-48V0H357v289q0 54-14.5 74T296 383q-38 0-84-48V0H65z"/><glyph glyph-name="n" unicode="n" horiz-adv-x="572" d="M65 0v496h120l10-63h4q32 30 70 52.5t89 22.5q81 0 117.5-53T512 308V0H365v289q0 54-14.5 74T304 383q-28 0-48-12.5T212 335V0H65z"/><glyph glyph-name="o" unicode="o" horiz-adv-x="555" d="M278-12q-47 0-91 17.5T109.5 56 56 137.5 36 248t20 110.5 53.5 81.5 77.5 50.5 91 17.5 90.5-17.5 77-50.5 53.5-81.5T519 248t-20-110.5T445.5 56t-77-50.5T278-12zm0 119q45 0 68 38t23 103-23 103-68 38q-46 0-68.5-38T187 248t22.5-103 68.5-38z"/><glyph glyph-name="p" unicode="p" horiz-adv-x="573" d="M65-184v680h120l10-49h4q29 26 65.5 43.5T340 508q45 0 81-18t61-51 38.5-79.5T534 256q0-64-17.5-113.5t-47-84-67-52.5T325-12q-32 0-62 13.5T207 40l5-79v-145H65zm226 292q38 0 65 34.5T383 254q0 134-86 134-43 0-85-45V140q20-18 40-25t39-7z"/><glyph glyph-name="q" unicode="q" horiz-adv-x="573" d="M361-184v151l6 76q-25-24-58-39.5T242-12q-46 0-83.5 18t-64 51.5-41 81.5T39 248t17.5 109 46 81.5 66 51.5 76.5 18q41 0 72-14.5t60-46.5h4l12 49h115v-680H361zm-81 292q24 0 43.5 10t37.5 35v203q-20 18-41 25t-41 7q-35 0-62-33.5T190 250q0-74 23.5-108t66.5-34z"/><glyph glyph-name="r" unicode="r" horiz-adv-x="398" d="M65 0v496h120l10-87h4q27 51 65 75t76 24q21 0 34.5-2.5T399 498l-24-127q-14 4-26 6t-28 2q-28 0-58.5-20T212 288V0H65z"/><glyph glyph-name="s" unicode="s" horiz-adv-x="443" d="M211-12q-49 0-100.5 19T21 57l66 92q34-26 65-39t63-13q33 0 48 11t15 31q0 12-8.5 21.5t-23 17.5-32.5 14.5-37 14.5q-23 9-46 21t-42 29.5-31 41T46 353q0 34 13.5 63T98 465t60 31.5 78 11.5q57 0 100-19.5t75-43.5l-66-88q-27 20-53 31t-52 11q-56 0-56-39 0-12 8-20.5t21.5-15.5 31-13.5T281 297q24-9 47.5-20.5t43-28.5 31.5-41.5 12-58.5-13-63-39-50.5-64-34T211-12z"/><glyph glyph-name="t" unicode="t" horiz-adv-x="383" d="M256-12q-46 0-78.5 14t-53 39-30 60.5T85 180v201H17v109l76 6 17 132h122V496h119V381H232V182q0-42 17.5-60.5T296 103q12 0 24.5 3t22.5 7L366 6q-20-6-47-12t-63-6z"/><glyph glyph-name="u" unicode="u" horiz-adv-x="568" d="M214-12q-81 0-117.5 53T60 188v308h147V207q0-54 15-74t47-20q28 0 47 13t41 42v328h147V0H384l-11 69h-3q-32-38-68.5-59.5T214-12z"/><glyph glyph-name="v" unicode="v" horiz-adv-x="523" d="M179 0L12 496h148l64-234q10-37 19.5-75.5T263 109h4q9 39 18.5 77.5T305 262l65 234h141L349 0H179z"/><glyph glyph-name="w" unicode="w" horiz-adv-x="776" d="M148 0L24 496h146l48-230q6-37 11-73t11-74h4q7 38 13.5 75t15.5 72l55 230h127l56-230q9-37 16-73t15-74h4q7 38 11.5 74t11.5 73l47 230h136L633 0H461l-45 198q-8 35-14 70t-13 75h-4q-7-40-12.5-75T360 198L316 0H148z"/><glyph glyph-name="x" unicode="x" horiz-adv-x="514" d="M14 0l152 258L23 496h158l44-80q10-21 20.5-42.5T267 331h4q8 21 17 42.5t17 42.5l34 80h152L347 241 500 0H342l-48 82q-12 21-23.5 43T247 168h-4q-9-21-19-42.5T205 82L166 0H14z"/><glyph glyph-name="y" unicode="y" horiz-adv-x="521" d="M120-194q-23 0-39 2.5T50-184L76-72q7-2 16-4t17-2q37 0 57 18t30 47l7 26L12 496h148l71-213q11-34 20-69t19-72h4q8 35 16.5 70.5T308 283l60 213h141L337-5q-18-47-37.5-82.5t-45-59-58-35.5-76.5-12z"/><glyph glyph-name="z" unicode="z" horiz-adv-x="460" d="M38 0v79l208 302H61v115h368v-78L221 115h215V0H38z"/><glyph glyph-name="Agrave" unicode="À" horiz-adv-x="573" d="M230 330l-16-60h139l-15 60q-14 49-27 104t-26 106h-4q-12-52-24.5-106.5T230 330zM-6 0l204 652h177L579 0H423l-40 155H184L144 0H-6zm299 680L110 799l78 95 171-140z"/><glyph glyph-name="Aacute" unicode="Á" horiz-adv-x="573" d="M230 330l-16-60h139l-15 60q-14 49-27 104t-26 106h-4q-12-52-24.5-106.5T230 330zM-6 0l204 652h177L579 0H423l-40 155H184L144 0H-6zm279 680l-66 74 171 140 78-95z"/><glyph glyph-name="Acircumflex" unicode="Â" horiz-adv-x="573" d="M230 330l-16-60h139l-15 60q-14 49-27 104t-26 106h-4q-12-52-24.5-106.5T230 330zM-6 0l204 652h177L579 0H423l-40 155H184L144 0H-6zm119 724l90 111h160l90-111-64-39-104 84h-4l-104-84z"/><glyph glyph-name="Atilde" unicode="Ã" horiz-adv-x="573" d="M230 330l-16-60h139l-15 60q-14 49-27 104t-26 106h-4q-12-52-24.5-106.5T230 330zM-6 0l204 652h177L579 0H423l-40 155H184L144 0H-6zm360 692q-27 0-47 9t-36 20-29 20-25 9q-14 0-24-11t-13-38l-95 7q4 76 39 110t88 34q27 0 47-9t36-20 29-20 25-9q14 0 24 11t13 38l95-7q-4-75-39-109.5T354 692z"/><glyph glyph-name="Adieresis" unicode="Ä" horiz-adv-x="573" d="M230 330l-16-60h139l-15 60q-14 49-27 104t-26 106h-4q-12-52-24.5-106.5T230 330zM-6 0l204 652h177L579 0H423l-40 155H184L144 0H-6zm178 700q-31 0-50.5 20T102 770t19.5 50 50.5 20 50.5-20 19.5-50-19.5-50-50.5-20zm222 0q-31 0-50.5 20T324 770t19.5 50 50.5 20 50.5-20 19.5-50-19.5-50-50.5-20z"/><glyph glyph-name="Amacron" unicode="Ā" horiz-adv-x="573" d="M230 330l-16-60h139l-15 60q-14 49-27 104t-26 106h-4q-12-52-24.5-106.5T230 330zM-6 0l204 652h177L579 0H423l-40 155H184L144 0H-6zm138 721v94h302v-94H132z"/><glyph glyph-name="Abreve" unicode="Ă" horiz-adv-x="573" d="M230 330l-16-60h139l-15 60q-14 49-27 104t-26 106h-4q-12-52-24.5-106.5T230 330zM-6 0l204 652h177L579 0H423l-40 155H184L144 0H-6zm289 697q-75 0-115.5 35T120 834l80 14q7-31 28-48.5t55-17.5 55 17.5 28 48.5l80-14q-7-67-47.5-102T283 697z"/><glyph glyph-name="Aring" unicode="Å" horiz-adv-x="573" d="M230 330l-16-60h139l-15 60q-14 49-27 104t-26 106h-4q-12-52-24.5-106.5T230 330zM-6 0l204 652h177L579 0H423l-40 155H184L144 0H-6zm289 697q-51 0-82.5 27T169 796t31.5 71.5T283 894t82.5-26.5T397 796t-31.5-72-82.5-27zm0 55q17 0 29.5 12t12.5 32-12.5 31.5T283 839t-29.5-11.5T241 796t12.5-32 29.5-12z"/><glyph glyph-name="uni01CD" unicode="Ǎ" horiz-adv-x="573" d="M230 330l-16-60h139l-15 60q-14 49-27 104t-26 106h-4q-12-52-24.5-106.5T230 330zM-6 0l204 652h177L579 0H423l-40 155H184L144 0H-6zm209 702l-90 110 64 40 104-84h4l104 84 64-40-90-110H203z"/><glyph glyph-name="uni1EA0" unicode="Ạ" horiz-adv-x="573" d="M230 330l-16-60h139l-15 60q-14 49-27 104t-26 106h-4q-12-52-24.5-106.5T230 330zM-6 0l204 652h177L579 0H423l-40 155H184L144 0H-6zm289-225q-36 0-58.5 21.5T202-148t22.5 55.5T283-71t58.5-21.5T364-148t-22.5-55.5T283-225z"/><glyph glyph-name="uni1EA2" unicode="Ả" horiz-adv-x="573" d="M230 330l-16-60h139l-15 60q-14 49-27 104t-26 106h-4q-12-52-24.5-106.5T230 330zM-6 0l204 652h177L579 0H423l-40 155H184L144 0H-6zm246 691l-12 58q19 4 32 10t13 20-18 22.5-62 11.5l17 73q93-2 131-26.5t38-64.5q0-26-11-44.5t-30-31-44.5-19.5-53.5-9z"/><glyph glyph-name="uni1EA4" unicode="Ấ" horiz-adv-x="573" d="M230 330l-16-60h139l-15 60q-14 49-27 104t-26 106h-4q-12-52-24.5-106.5T230 330zM-6 0l204 652h177L579 0H423l-40 155H184L144 0H-6zm195 685l-59 39 90 100h126l90-100-59-39-92 72h-4zm246 74l-44 50 100 86 49-60z"/><glyph glyph-name="uni1EA6" unicode="Ầ" horiz-adv-x="573" d="M230 330l-16-60h139l-15 60q-14 49-27 104t-26 106h-4q-12-52-24.5-106.5T230 330zM-6 0l204 652h177L579 0H423l-40 155H184L144 0H-6zm195 685l-59 39 90 100h126l90-100-59-39-92 72h-4zm-14 123l-44-49-101 77 48 59z"/><glyph glyph-name="uni1EA8" unicode="Ẩ" horiz-adv-x="573" d="M230 330l-16-60h139l-15 60q-14 49-27 104t-26 106h-4q-12-52-24.5-106.5T230 330zM-6 0l204 652h177L579 0H423l-40 155H184L144 0H-6zm195 685l-59 39 90 100h126l90-100-59-39-92 72h-4zm231 65l-11 47q14 3 23 8.5t9 18.5q0 14-13.5 22T376 857l13 60q82-2 114.5-24.5T536 837q0-44-33.5-63.5T420 750z"/><glyph glyph-name="uni1EAA" unicode="Ẫ" horiz-adv-x="573" d="M230 330l-16-60h139l-15 60q-14 49-27 104t-26 106h-4q-12-52-24.5-106.5T230 330zM-6 0l204 652h177L579 0H423l-40 155H184L144 0H-6zm195 685l-59 39 90 92h126l90-92-59-39-92 63h-4zm-59 167q3 57 27 84t66 27q21 0 37-7t29-15 23.5-15 21.5-7q26 0 32 39l70-9q-3-57-27-84t-66-27q-21 0-37 7t-29 15-24 15-21 7q-26 0-32-38z"/><glyph glyph-name="uni1EAC" unicode="Ậ" horiz-adv-x="573" d="M230 330l-16-60h139l-15 60q-14 49-27 104t-26 106h-4q-12-52-24.5-106.5T230 330zM-6 0l204 652h177L579 0H423l-40 155H184L144 0H-6zm119 724l90 111h160l90-111-64-39-104 84h-4l-104-84zm170-949q-36 0-58.5 21.5T202-148t22.5 55.5T283-71t58.5-21.5T364-148t-22.5-55.5T283-225z"/><glyph glyph-name="uni1EAE" unicode="Ắ" horiz-adv-x="573" d="M230 330l-16-60h139l-15 60q-14 49-27 104t-26 106h-4q-12-52-24.5-106.5T230 330zM-6 0l204 652h177L579 0H423l-40 155H184L144 0H-6zm234 852l95 137 92-57-115-127zm55-155q-75 0-115.5 35T120 834l72 14q8-35 31-54.5t60-19.5 60 19.5 31 54.5l72-14q-7-67-47.5-102T283 697z"/><glyph glyph-name="uni1EB0" unicode="Ằ" horiz-adv-x="573" d="M230 330l-16-60h139l-15 60q-14 49-27 104t-26 106h-4q-12-52-24.5-106.5T230 330zM-6 0l204 652h177L579 0H423l-40 155H184L144 0H-6zm344 852l-72-47-115 127 92 57zm-55-155q-75 0-115.5 35T120 834l72 14q8-35 31-54.5t60-19.5 60 19.5 31 54.5l72-14q-7-67-47.5-102T283 697z"/><glyph glyph-name="uni1EB2" unicode="Ẳ" horiz-adv-x="573" d="M230 330l-16-60h139l-15 60q-14 49-27 104t-26 106h-4q-12-52-24.5-106.5T230 330zM-6 0l204 652h177L579 0H423l-40 155H184L144 0H-6zm257 806l-12 47q14 3 23.5 8.5T272 880q0 14-14 22t-52 11l14 61q82-3 114-25.5t32-55.5q0-22-9-37.5t-24.5-26-36.5-16-45-7.5zm32-109q-75 0-115.5 35T120 834l72 14q8-35 31-54.5t60-19.5 60 19.5 31 54.5l72-14q-7-67-47.5-102T283 697z"/><glyph glyph-name="uni1EB4" unicode="Ẵ" horiz-adv-x="573" d="M230 330l-16-60h139l-15 60q-14 49-27 104t-26 106h-4q-12-52-24.5-106.5T230 330zM-6 0l204 652h177L579 0H423l-40 155H184L144 0H-6zm289 702q-75 0-113 30.5T126 814l71 12q6-22 25-37.5t61-15.5 61 15.5 25 37.5l71-12q-6-51-44-81.5T283 702zM130 860q3 57 27 84t66 27q21 0 37-7t29-15 23.5-15 21.5-7q26 0 32 39l70-9q-3-57-27-83.5T343 847q-21 0-37 7t-29 15-24 15-21 7q-26 0-32-39z"/><glyph glyph-name="uni1EB6" unicode="Ặ" horiz-adv-x="573" d="M230 330l-16-60h139l-15 60q-14 49-27 104t-26 106h-4q-12-52-24.5-106.5T230 330zM-6 0l204 652h177L579 0H423l-40 155H184L144 0H-6zm289 697q-75 0-115.5 35T120 834l80 14q7-31 28-48.5t55-17.5 55 17.5 28 48.5l80-14q-7-67-47.5-102T283 697zm0-922q-36 0-58.5 21.5T202-148t22.5 55.5T283-71t58.5-21.5T364-148t-22.5-55.5T283-225z"/><glyph glyph-name="Aogonek" unicode="Ą" horiz-adv-x="573" d="M496-223q-48 0-81 24.5T382-129q0 23 8 43.5t20 37 26.5 29T463 0h-40l-40 155H184L144 0H-6l204 652h177L579 0q-21-2-37.5-10.5t-28-21.5-18-28-6.5-30q0-19 11.5-28.5T528-128q11 0 21 4.5t18 9.5l34-74q-20-15-49.5-25T496-223zM230 330l-16-60h139l-15 60q-14 49-27 104t-26 106h-4q-12-52-24.5-106.5T230 330z"/><glyph glyph-name="AE" unicode="Æ" horiz-adv-x="845" d="M303 356l-42-93h125v278h-4q-20-48-39.5-95T303 356zM-14 0l310 652h487V528H533V397h211V274H533V124h260V0H386v149H209L141 0H-14z"/><glyph glyph-name="uni01FC" unicode="Ǽ" horiz-adv-x="845" d="M303 356l-42-93h125v278h-4q-20-48-39.5-95T303 356zM-14 0l310 652h487V528H533V397h211V274H533V124h260V0H386v149H209L141 0H-14zm540 698l-66 74 171 140 78-95z"/><glyph glyph-name="uni01E2" unicode="Ǣ" horiz-adv-x="845" d="M303 356l-42-93h125v278h-4q-20-48-39.5-95T303 356zM-14 0l310 652h487V528H533V397h211V274H533V124h260V0H386v149H209L141 0H-14zm399 739v94h302v-94H385z"/><glyph glyph-name="uni0243" unicode="Ƀ" horiz-adv-x="628" d="M100 0v175H26v65l74 6v406h224q51 0 94.5-8t76-26.5 51-48.5 18.5-74q0-41-26-78t-84-51v-4q70-14 106-53.5T596 200q0-52-19.5-89.5t-54-62-81-36.5T342 0H100zm148 397h69q54 0 80 21.5t26 59.5q0 36-27 52t-78 16h-70V397zm0-292h82q60 0 92.5 27t32.5 79-32 75.5-93 23.5h-82v-64h126v-71H248v-70z"/><glyph glyph-name="uni1E06" unicode="Ḇ" horiz-adv-x="605" d="M77 0v652h223q51 0 94.5-7.5t76-26.5 51-50 18.5-78q0-22-6-44t-17-41-26.5-34-35.5-22v-4q25-6 46-18.5t37-31.5 25-44.5 9-58.5q0-50-19.5-86t-54-59.5-80.5-35T319 0H77zm147 391h69q54 0 78.5 21t24.5 56q0 38-25 54t-77 16h-70V391zm0-277h83q121 0 121 88 0 43-30 61.5T307 282h-83V114zm-58-301v93h296v-93H166z"/><glyph glyph-name="Ccedilla" unicode="Ç" horiz-adv-x="582" d="M349-12q-62 0-117 21.5T135.5 73 70 177.5 46 322q0 81 25 144.5T138 574t98 67 118 23q63 0 113-25.5t83-59.5l-78-94q-25 23-52.5 37.5T357 537q-33 0-62.5-14.5t-51-41.5-34-66-12.5-88q0-101 43-156.5T355 115q40 0 71.5 17.5T482 176l78-92q-82-96-211-96zM248-239l-11 59q59 3 81 13t22 31q0 15-15.5 25.5T263-94l48 98h86l-28-65q38-9 57-26t19-49q0-51-51.5-75.5T248-239z"/><glyph glyph-name="Cacute" unicode="Ć" horiz-adv-x="582" d="M349-12q-62 0-117 21.5T135.5 73 70 177.5 46 322q0 81 25 144.5T138 574t98 67 118 23q63 0 113-25.5t83-59.5l-78-94q-25 23-52.5 37.5T357 537q-33 0-62.5-14.5t-51-41.5-34-66-12.5-88q0-101 43-156.5T355 115q40 0 71.5 17.5T482 176l78-92q-82-96-211-96zm-16 692l-66 74 171 140 78-95z"/><glyph glyph-name="Ccircumflex" unicode="Ĉ" horiz-adv-x="582" d="M349-12q-62 0-117 21.5T135.5 73 70 177.5 46 322q0 81 25 144.5T138 574t98 67 118 23q63 0 113-25.5t83-59.5l-78-94q-25 23-52.5 37.5T357 537q-33 0-62.5-14.5t-51-41.5-34-66-12.5-88q0-101 43-156.5T355 115q40 0 71.5 17.5T482 176l78-92q-82-96-211-96zM173 724l90 111h160l90-111-64-39-104 84h-4l-104-84z"/><glyph glyph-name="Ccaron" unicode="Č" horiz-adv-x="582" d="M349-12q-62 0-117 21.5T135.5 73 70 177.5 46 322q0 81 25 144.5T138 574t98 67 118 23q63 0 113-25.5t83-59.5l-78-94q-25 23-52.5 37.5T357 537q-33 0-62.5-14.5t-51-41.5-34-66-12.5-88q0-101 43-156.5T355 115q40 0 71.5 17.5T482 176l78-92q-82-96-211-96zm-86 714l-90 110 64 40 104-84h4l104 84 64-40-90-110H263z"/><glyph glyph-name="Cdotaccent" unicode="Ċ" horiz-adv-x="582" d="M349-12q-62 0-117 21.5T135.5 73 70 177.5 46 322q0 81 25 144.5T138 574t98 67 118 23q63 0 113-25.5t83-59.5l-78-94q-25 23-52.5 37.5T357 537q-33 0-62.5-14.5t-51-41.5-34-66-12.5-88q0-101 43-156.5T355 115q40 0 71.5 17.5T482 176l78-92q-82-96-211-96zm-6 713q-37 0-61 21.5T258 778t24 55.5 61 21.5 61-21.5 24-55.5-24-55.5-61-21.5z"/><glyph glyph-name="Dcaron" unicode="Ď" horiz-adv-x="635" d="M77 0v652h184q75 0 135-19t103-58.5T565 474t23-145-23-146-65-102.5T399.5 20 269 0H77zm147 119h28q42 0 76 11t58 35.5 37.5 64.5 13.5 99q0 58-13.5 97.5t-37.5 63-58 33.5-76 10h-28V119zm14 583l-90 110 64 40 104-84h4l104 84 64-40-90-110H238z"/><glyph glyph-name="uni1E0C" unicode="Ḍ" horiz-adv-x="635" d="M77 0v652h184q75 0 135-19t103-58.5T565 474t23-145-23-146-65-102.5T399.5 20 269 0H77zm147 119h28q42 0 76 11t58 35.5 37.5 64.5 13.5 99q0 58-13.5 97.5t-37.5 63-58 33.5-76 10h-28V119zm89-344q-36 0-58.5 21.5T232-148t22.5 55.5T313-71t58.5-21.5T394-148t-22.5-55.5T313-225z"/><glyph glyph-name="uni1E0E" unicode="Ḏ" horiz-adv-x="635" d="M77 0v652h184q75 0 135-19t103-58.5T565 474t23-145-23-146-65-102.5T399.5 20 269 0H77zm147 119h28q42 0 76 11t58 35.5 37.5 64.5 13.5 99q0 58-13.5 97.5t-37.5 63-58 33.5-76 10h-28V119zm-59-306v93h296v-93H165z"/><glyph glyph-name="Dcroat" unicode="Đ" horiz-adv-x="660" d="M26 301v66l76 5v280h184q75 0 135-19t103-58.5T590 474t23-145-23-146-65-102.5T424.5 20 294 0H102v301H26zm223-182h28q42 0 76 11t58 35.5 37.5 64.5 13.5 99q0 58-13.5 97.5t-37.5 63-58 33.5-76 10h-28V372h125v-71H249V119z"/><glyph glyph-name="Egrave" unicode="È" horiz-adv-x="548" d="M77 0v652h408V528H224V397h222V274H224V124h271V0H77zm221 680L115 799l78 95 171-140z"/><glyph glyph-name="Eacute" unicode="É" horiz-adv-x="548" d="M77 0v652h408V528H224V397h222V274H224V124h271V0H77zm201 680l-66 74 171 140 78-95z"/><glyph glyph-name="Ecircumflex" unicode="Ê" horiz-adv-x="548" d="M77 0v652h408V528H224V397h222V274H224V124h271V0H77zm41 724l90 111h160l90-111-64-39-104 84h-4l-104-84z"/><glyph glyph-name="Ecaron" unicode="Ě" horiz-adv-x="548" d="M77 0v652h408V528H224V397h222V274H224V124h271V0H77zm131 702l-90 110 64 40 104-84h4l104 84 64-40-90-110H208z"/><glyph glyph-name="Edieresis" unicode="Ë" horiz-adv-x="548" d="M77 0v652h408V528H224V397h222V274H224V124h271V0H77zm100 700q-31 0-50.5 20T107 770t19.5 50 50.5 20 50.5-20 19.5-50-19.5-50-50.5-20zm222 0q-31 0-50.5 20T329 770t19.5 50 50.5 20 50.5-20 19.5-50-19.5-50-50.5-20z"/><glyph glyph-name="Emacron" unicode="Ē" horiz-adv-x="548" d="M77 0v652h408V528H224V397h222V274H224V124h271V0H77zm60 721v94h302v-94H137z"/><glyph glyph-name="Ebreve" unicode="Ĕ" horiz-adv-x="548" d="M77 0v652h408V528H224V397h222V274H224V124h271V0H77zm211 697q-75 0-115.5 35T125 834l80 14q7-31 28-48.5t55-17.5 55 17.5 28 48.5l80-14q-7-67-47.5-102T288 697z"/><glyph glyph-name="Edotaccent" unicode="Ė" horiz-adv-x="548" d="M77 0v652h408V528H224V397h222V274H224V124h271V0H77zm211 701q-37 0-61 21.5T203 778t24 55.5 61 21.5 61-21.5 24-55.5-24-55.5-61-21.5z"/><glyph glyph-name="uni1EB8" unicode="Ẹ" horiz-adv-x="548" d="M77 0v652h408V528H224V397h222V274H224V124h271V0H77zm218-225q-36 0-58.5 21.5T214-148t22.5 55.5T295-71t58.5-21.5T376-148t-22.5-55.5T295-225z"/><glyph glyph-name="uni1EBA" unicode="Ẻ" horiz-adv-x="548" d="M77 0v652h408V528H224V397h222V274H224V124h271V0H77zm168 691l-12 58q19 4 32 10t13 20-18 22.5-62 11.5l17 73q93-2 131-26.5t38-64.5q0-26-11-44.5t-30-31-44.5-19.5-53.5-9z"/><glyph glyph-name="uni1EBC" unicode="Ẽ" horiz-adv-x="548" d="M77 0v652h408V528H224V397h222V274H224V124h271V0H77zm282 692q-27 0-47 9t-36 20-29 20-25 9q-14 0-24-11t-13-38l-95 7q4 76 39 110t88 34q27 0 47-9t36-20 29-20 25-9q14 0 24 11t13 38l95-7q-4-75-39-109.5T359 692z"/><glyph glyph-name="uni1EBE" unicode="Ế" horiz-adv-x="548" d="M77 0v652h408V528H224V397h222V274H224V124h271V0H77zm117 685l-59 39 90 100h126l90-100-59-39-92 72h-4zm246 74l-44 50 100 86 49-60z"/><glyph glyph-name="uni1EC0" unicode="Ề" horiz-adv-x="548" d="M77 0v652h408V528H224V397h222V274H224V124h271V0H77zm117 685l-59 39 90 100h126l90-100-59-39-92 72h-4zm-14 123l-44-49-101 77 48 59z"/><glyph glyph-name="uni1EC2" unicode="Ể" horiz-adv-x="548" d="M77 0v652h408V528H224V397h222V274H224V124h271V0H77zm117 685l-59 39 90 100h126l90-100-59-39-92 72h-4zm231 65l-11 47q14 3 23 8.5t9 18.5q0 14-13.5 22T381 857l13 60q82-2 114.5-24.5T541 837q0-44-33.5-63.5T425 750z"/><glyph glyph-name="uni1EC4" unicode="Ễ" horiz-adv-x="548" d="M77 0v652h408V528H224V397h222V274H224V124h271V0H77zm117 685l-59 39 90 92h126l90-92-59-39-92 63h-4zm-59 167q3 57 27 84t66 27q21 0 37-7t29-15 23.5-15 21.5-7q26 0 32 39l70-9q-3-57-27-84t-66-27q-21 0-37 7t-29 15-24 15-21 7q-26 0-32-38z"/><glyph glyph-name="uni1EC6" unicode="Ệ" horiz-adv-x="548" d="M77 0v652h408V528H224V397h222V274H224V124h271V0H77zm41 724l90 111h160l90-111-64-39-104 84h-4l-104-84zm177-949q-36 0-58.5 21.5T214-148t22.5 55.5T295-71t58.5-21.5T376-148t-22.5-55.5T295-225z"/><glyph glyph-name="Eogonek" unicode="Ę" horiz-adv-x="548" d="M411-223q-48 0-81.5 24.5T296-129q0 23 7.5 43t19 36.5 25.5 29T375 0H77v652h408V528H224V397h222V274H224V124h271V0h-5q-17-1-32.5-9T430-29.5 411-58t-7-32q0-20 13-29t29-9q10 0 19 4.5t17 9.5l34-74q-20-15-49.5-25T411-223z"/><glyph glyph-name="uni1E16" unicode="Ḗ" horiz-adv-x="548" d="M77 0v652h408V528H224V397h222V274H224V124h271V0H77zm180 834l-49 66 155 107 60-81zM137 721v94h302v-94H137z"/><glyph glyph-name="uni01F4" unicode="Ǵ" horiz-adv-x="638" d="M365-12q-67 0-125.5 21.5T138 73 70.5 177.5 46 322q0 81 25 144.5T139.5 574 241 641t123 23q71 0 122-26t83-59l-77-94q-25 22-53 37t-70 15q-38 0-69.5-14.5T245 481t-35.5-66-12.5-88q0-101 45.5-156.5T380 115q20 0 39 5t31 15v112H342v120h238V67q-34-33-90-56T365-12zm-8 692l-66 74 171 140 78-95z"/><glyph glyph-name="Gcircumflex" unicode="Ĝ" horiz-adv-x="638" d="M365-12q-67 0-125.5 21.5T138 73 70.5 177.5 46 322q0 81 25 144.5T139.5 574 241 641t123 23q71 0 122-26t83-59l-77-94q-25 22-53 37t-70 15q-38 0-69.5-14.5T245 481t-35.5-66-12.5-88q0-101 45.5-156.5T380 115q20 0 39 5t31 15v112H342v120h238V67q-34-33-90-56T365-12zM197 724l90 111h160l90-111-64-39-104 84h-4l-104-84z"/><glyph glyph-name="Gbreve" unicode="Ğ" horiz-adv-x="638" d="M365-12q-67 0-125.5 21.5T138 73 70.5 177.5 46 322q0 81 25 144.5T139.5 574 241 641t123 23q71 0 122-26t83-59l-77-94q-25 22-53 37t-70 15q-38 0-69.5-14.5T245 481t-35.5-66-12.5-88q0-101 45.5-156.5T380 115q20 0 39 5t31 15v112H342v120h238V67q-34-33-90-56T365-12zm2 709q-75 0-115.5 35T204 834l80 14q7-31 28-48.5t55-17.5 55 17.5 28 48.5l80-14q-7-67-47.5-102T367 697z"/><glyph glyph-name="Gdotaccent" unicode="Ġ" horiz-adv-x="638" d="M365-12q-67 0-125.5 21.5T138 73 70.5 177.5 46 322q0 81 25 144.5T139.5 574 241 641t123 23q71 0 122-26t83-59l-77-94q-25 22-53 37t-70 15q-38 0-69.5-14.5T245 481t-35.5-66-12.5-88q0-101 45.5-156.5T380 115q20 0 39 5t31 15v112H342v120h238V67q-34-33-90-56T365-12zm2 713q-37 0-61 21.5T282 778t24 55.5 61 21.5 61-21.5 24-55.5-24-55.5-61-21.5z"/><glyph glyph-name="uni0122" unicode="Ģ" horiz-adv-x="638" d="M365-12q-67 0-125.5 21.5T138 73 70.5 177.5 46 322q0 81 25 144.5T139.5 574 241 641t123 23q71 0 122-26t83-59l-77-94q-25 22-53 37t-70 15q-38 0-69.5-14.5T245 481t-35.5-66-12.5-88q0-101 45.5-156.5T380 115q20 0 39 5t31 15v112H342v120h238V67q-34-33-90-56T365-12zM261-239l-11 59q59 3 81 12.5t22 26.5q0 14-15 23t-49 12l28 54q80-7 110.5-27t30.5-57q0-51-51.5-75.5T261-239z"/><glyph glyph-name="Gcaron" unicode="Ǧ" horiz-adv-x="638" d="M365-12q-67 0-125.5 21.5T138 73 70.5 177.5 46 322q0 81 25 144.5T139.5 574 241 641t123 23q71 0 122-26t83-59l-77-94q-25 22-53 37t-70 15q-38 0-69.5-14.5T245 481t-35.5-66-12.5-88q0-101 45.5-156.5T380 115q20 0 39 5t31 15v112H342v120h238V67q-34-33-90-56T365-12zm-78 714l-90 110 64 40 104-84h4l104 84 64-40-90-110H287z"/><glyph glyph-name="uni1E20" unicode="Ḡ" horiz-adv-x="638" d="M365-12q-67 0-125.5 21.5T138 73 70.5 177.5 46 322q0 81 25 144.5T139.5 574 241 641t123 23q71 0 122-26t83-59l-77-94q-25 22-53 37t-70 15q-38 0-69.5-14.5T245 481t-35.5-66-12.5-88q0-101 45.5-156.5T380 115q20 0 39 5t31 15v112H342v120h238V67q-34-33-90-56T365-12zM216 721v94h302v-94H216z"/><glyph glyph-name="uni00470303" horiz-adv-x="638" d="M365-12q-67 0-125.5 21.5T138 73 70.5 177.5 46 322q0 81 25 144.5T139.5 574 241 641t123 23q71 0 122-26t83-59l-77-94q-25 22-53 37t-70 15q-38 0-69.5-14.5T245 481t-35.5-66-12.5-88q0-101 45.5-156.5T380 115q20 0 39 5t31 15v112H342v120h238V67q-34-33-90-56T365-12zm73 704q-27 0-47 9t-36 20-29 20-25 9q-14 0-24-11t-13-38l-95 7q4 76 39 110t88 34q27 0 47-9t36-20 29-20 25-9q14 0 24 11t13 38l95-7q-4-75-39-109.5T438 692z"/><glyph glyph-name="uni0193" unicode="Ɠ" horiz-adv-x="638" d="M365-12q-67 0-125.5 21.5T138 73 70.5 177.5 46 322q0 81 25 144.5T139.5 574 241 641t123 23q14 0 27-1t25-3q0 5-.5 8.5t-.5 8.5q0 29 9.5 54.5t28 45T498 807t61 11q31 0 50.5-4t34.5-9l-26-109q-8 3-14 5t-14 2q-23 0-37-12.5T539 655q0-20 9-34.5t21-29.5l-77-95q-25 17-53 29t-70 12q-38 0-69.5-14.5T245 481t-35.5-66-12.5-88q0-101 45.5-156.5T380 115q20 0 39 5t31 15v112H342v120h238V67q-34-33-90-56T365-12z"/><glyph glyph-name="Hcircumflex" unicode="Ĥ" horiz-adv-x="674" d="M77 0v652h147V401h225v251h148V0H449v272H224V0H77zm89 724l90 111h160l90-111-64-39-104 84h-4l-104-84z"/><glyph glyph-name="uni1E24" unicode="Ḥ" horiz-adv-x="674" d="M77 0v652h147V401h225v251h148V0H449v272H224V0H77zm259-225q-36 0-58.5 21.5T255-148t22.5 55.5T336-71t58.5-21.5T417-148t-22.5-55.5T336-225z"/><glyph glyph-name="uni1E2A" unicode="Ḫ" horiz-adv-x="674" d="M77 0v652h147V401h225v251h148V0H449v272H224V0H77zm259-232q-43 0-74 12t-52 33.5-31.5 50T167-75l84 14q5-32 25-55.5t60-23.5 60 23.5T421-61l84-14q-1-33-11.5-61.5t-31-50-52-33.5-74.5-12z"/><glyph glyph-name="Hbar" unicode="Ħ" horiz-adv-x="712" d="M25 486v65l72 6v95h147v-95h225v95h148v-95h70v-71h-70V0H469v272H244V0H97v486H25zm219-85h225v85H244v-85z"/><glyph glyph-name="Igrave" unicode="Ì" horiz-adv-x="301" d="M77 0v652h147V0H77zm83 680L-23 799l78 95 171-140z"/><glyph glyph-name="Iacute" unicode="Í" horiz-adv-x="301" d="M77 0v652h147V0H77zm63 680l-66 74 171 140 78-95z"/><glyph glyph-name="Icircumflex" unicode="Î" horiz-adv-x="301" d="M77 0v652h147V0H77zm-97 724l90 111h160l90-111-64-39-104 84h-4L44 685z"/><glyph glyph-name="Itilde" unicode="Ĩ" horiz-adv-x="301" d="M77 0v652h147V0H77zm144 692q-27 0-47 9t-36 20-29 20-25 9q-14 0-24-11t-13-38l-95 7q4 76 39 110t88 34q27 0 47-9t36-20 29-20 25-9q14 0 24 11t13 38l95-7q-4-75-39-109.5T221 692z"/><glyph glyph-name="Idieresis" unicode="Ï" horiz-adv-x="301" d="M77 0v652h147V0H77zM39 700q-31 0-50.5 20T-31 770t19.5 50T39 840t50.5-20 19.5-50-19.5-50T39 700zm222 0q-31 0-50.5 20T191 770t19.5 50 50.5 20 50.5-20 19.5-50-19.5-50-50.5-20z"/><glyph glyph-name="Imacron" unicode="Ī" horiz-adv-x="301" d="M77 0v652h147V0H77zM-1 721v94h302v-94H-1z"/><glyph glyph-name="Idotaccent" unicode="İ" horiz-adv-x="301" d="M77 0v652h147V0H77zm73 701q-37 0-61 21.5T65 778t24 55.5 61 21.5 61-21.5 24-55.5-24-55.5-61-21.5z"/><glyph glyph-name="uni01CF" unicode="Ǐ" horiz-adv-x="301" d="M77 0v652h147V0H77zm-7 702l-90 110 64 40 104-84h4l104 84 64-40-90-110H70z"/><glyph glyph-name="uni1EC8" unicode="Ỉ" horiz-adv-x="301" d="M77 0v652h147V0H77zm30 691l-12 58q19 4 32 10t13 20-18 22.5T60 813l17 73q93-2 131-26.5t38-64.5q0-26-11-44.5t-30-31-44.5-19.5-53.5-9z"/><glyph glyph-name="uni1ECA" unicode="Ị" horiz-adv-x="301" d="M77 0v652h147V0H77zm73-225q-36 0-58.5 21.5T69-148t22.5 55.5T150-71t58.5-21.5T231-148t-22.5-55.5T150-225z"/><glyph glyph-name="Iogonek" unicode="Į" horiz-adv-x="301" d="M157-223q-48 0-81.5 24.5T42-129q0 24 7.5 44T68-48.5 92-20t24 20H77v652h147V0q-40-17-57-40.5T150-90q0-20 13-29t28-9q11 0 20.5 4.5T228-114l33-74q-19-15-48.5-25T157-223z"/><glyph glyph-name="uni012C" unicode="Ĭ" horiz-adv-x="301" d="M77 0v652h147V0H77zm73 697q-75 0-115.5 35T-13 834l80 14q7-31 28-48.5t55-17.5 55 17.5 28 48.5l80-14q-7-67-47.5-102T150 697z"/><glyph glyph-name="Jcircumflex" unicode="Ĵ" horiz-adv-x="509" d="M226-12q-75 0-125.5 29T16 106l100 74q18-33 42-49t49-16q40 0 60.5 24.5T288 229v423h147V217q0-47-12.5-89t-38-73-65-49T226-12zm-37 736l90 111h160l90-111-64-39-104 84h-4l-104-84z"/><glyph glyph-name="uni0136" unicode="Ķ" horiz-adv-x="614" d="M77 0v652h147V385h4l194 267h162L387 392 620 0H459L300 275l-76-100V0H77zm153-239l-11 59q59 3 81 12.5t22 26.5q0 14-15 23t-49 12l28 54q80-7 110.5-27t30.5-57q0-51-51.5-75.5T230-239z"/><glyph glyph-name="uni1E32" unicode="Ḳ" horiz-adv-x="614" d="M77 0v652h147V385h4l194 267h162L387 392 620 0H459L300 275l-76-100V0H77zm255-225q-36 0-58.5 21.5T251-148t22.5 55.5T332-71t58.5-21.5T413-148t-22.5-55.5T332-225z"/><glyph glyph-name="uni1E34" unicode="Ḵ" horiz-adv-x="614" d="M77 0v652h147V385h4l194 267h162L387 392 620 0H459L300 275l-76-100V0H77zm106-187v93h296v-93H183z"/><glyph glyph-name="Lacute" unicode="Ĺ" horiz-adv-x="518" d="M77 0v652h147V124h258V0H77zm67 680l-66 74 171 140 78-95z"/><glyph glyph-name="Lcaron" unicode="Ľ" horiz-adv-x="518" d="M77 0v652h147V124h258V0H77zm276 511l-6 222h95l-2-69-24-153h-63z"/><glyph glyph-name="uni013B" unicode="Ļ" horiz-adv-x="518" d="M77 0v652h147V124h258V0H77zm111-239l-11 59q59 3 81 12.5t22 26.5q0 14-15 23t-49 12l28 54q80-7 110.5-27t30.5-57q0-51-51.5-75.5T188-239z"/><glyph glyph-name="Ldot" unicode="Ŀ" horiz-adv-x="518" d="M77 0v652h147V124h258V0H77zm333 236q-38 0-63.5 26.5T321 328q0 40 25.5 66.5T410 421t63.5-26.5T499 328q0-39-25.5-65.5T410 236z"/><glyph glyph-name="uni1E36" unicode="Ḷ" horiz-adv-x="518" d="M77 0v652h147V124h258V0H77zm213-225q-36 0-58.5 21.5T209-148t22.5 55.5T290-71t58.5-21.5T371-148t-22.5-55.5T290-225z"/><glyph glyph-name="uni1E38" unicode="Ḹ" horiz-adv-x="518" d="M77 0v652h147V124h258V0H77zM3 721v94h302v-94H3zm287-946q-36 0-58.5 21.5T209-148t22.5 55.5T290-71t58.5-21.5T371-148t-22.5-55.5T290-225z"/><glyph glyph-name="uni1E3A" unicode="Ḻ" horiz-adv-x="518" d="M77 0v652h147V124h258V0H77zm65-187v93h296v-93H142z"/><glyph glyph-name="Lslash" unicode="Ł" horiz-adv-x="524" d="M27 176l-50 88 107 60v328h147V392l158 87 50-88-208-113V124h258V0H84v210z"/><glyph glyph-name="uni1E3E" unicode="Ḿ" horiz-adv-x="762" d="M77 0v652h161l105-290q10-29 19-59.5t19-60.5h4q10 30 18.5 60.5T422 362l103 290h160V0H551v239q0 24 2 53t5 58.5 6 58 6 52.5h-4l-53-155-93-249h-81l-93 249-52 155h-4q3-24 6-52.5t6-58 5-58.5 2-53V0H77zm294 680l-66 74 171 140 78-95z"/><glyph glyph-name="uni1E40" unicode="Ṁ" horiz-adv-x="762" d="M77 0v652h161l105-290q10-29 19-59.5t19-60.5h4q10 30 18.5 60.5T422 362l103 290h160V0H551v239q0 24 2 53t5 58.5 6 58 6 52.5h-4l-53-155-93-249h-81l-93 249-52 155h-4q3-24 6-52.5t6-58 5-58.5 2-53V0H77zm304 701q-37 0-61 21.5T296 778t24 55.5 61 21.5 61-21.5 24-55.5-24-55.5-61-21.5z"/><glyph glyph-name="uni1E42" unicode="Ṃ" horiz-adv-x="762" d="M77 0v652h161l105-290q10-29 19-59.5t19-60.5h4q10 30 18.5 60.5T422 362l103 290h160V0H551v239q0 24 2 53t5 58.5 6 58 6 52.5h-4l-53-155-93-249h-81l-93 249-52 155h-4q3-24 6-52.5t6-58 5-58.5 2-53V0H77zm306-225q-36 0-58.5 21.5T302-148t22.5 55.5T383-71t58.5-21.5T464-148t-22.5-55.5T383-225z"/><glyph glyph-name="Nacute" unicode="Ń" horiz-adv-x="665" d="M77 0v652h151l170-324 64-144h4q-5 52-11.5 116T448 422v230h140V0H437L267 325l-64 142h-4q5-54 11.5-116t6.5-120V0H77zm246 680l-66 74 171 140 78-95z"/><glyph glyph-name="uni01F8" unicode="Ǹ" horiz-adv-x="665" d="M77 0v652h151l170-324 64-144h4q-5 52-11.5 116T448 422v230h140V0H437L267 325l-64 142h-4q5-54 11.5-116t6.5-120V0H77zm266 680L160 799l78 95 171-140z"/><glyph glyph-name="Ncaron" unicode="Ň" horiz-adv-x="665" d="M77 0v652h151l170-324 64-144h4q-5 52-11.5 116T448 422v230h140V0H437L267 325l-64 142h-4q5-54 11.5-116t6.5-120V0H77zm176 702l-90 110 64 40 104-84h4l104 84 64-40-90-110H253z"/><glyph glyph-name="Ntilde" unicode="Ñ" horiz-adv-x="665" d="M77 0v652h151l170-324 64-144h4q-5 52-11.5 116T448 422v230h140V0H437L267 325l-64 142h-4q5-54 11.5-116t6.5-120V0H77zm327 692q-27 0-47 9t-36 20-29 20-25 9q-14 0-24-11t-13-38l-95 7q4 76 39 110t88 34q27 0 47-9t36-20 29-20 25-9q14 0 24 11t13 38l95-7q-4-75-39-109.5T404 692z"/><glyph glyph-name="uni0145" unicode="Ņ" horiz-adv-x="665" d="M77 0v652h151l170-324 64-144h4q-5 52-11.5 116T448 422v230h140V0H437L267 325l-64 142h-4q5-54 11.5-116t6.5-120V0H77zm164-239l-11 59q59 3 81 12.5t22 26.5q0 14-15 23t-49 12l28 54q80-7 110.5-27t30.5-57q0-51-51.5-75.5T241-239z"/><glyph glyph-name="uni1E44" unicode="Ṅ" horiz-adv-x="665" d="M77 0v652h151l170-324 64-144h4q-5 52-11.5 116T448 422v230h140V0H437L267 325l-64 142h-4q5-54 11.5-116t6.5-120V0H77zm256 701q-37 0-61 21.5T248 778t24 55.5 61 21.5 61-21.5 24-55.5-24-55.5-61-21.5z"/><glyph glyph-name="uni1E46" unicode="Ṇ" horiz-adv-x="665" d="M77 0v652h151l170-324 64-144h4q-5 52-11.5 116T448 422v230h140V0H437L267 325l-64 142h-4q5-54 11.5-116t6.5-120V0H77zm266-225q-36 0-58.5 21.5T262-148t22.5 55.5T343-71t58.5-21.5T424-148t-22.5-55.5T343-225z"/><glyph glyph-name="uni1E48" unicode="Ṉ" horiz-adv-x="665" d="M77 0v652h151l170-324 64-144h4q-5 52-11.5 116T448 422v230h140V0H437L267 325l-64 142h-4q5-54 11.5-116t6.5-120V0H77zm118-187v93h296v-93H195z"/><glyph glyph-name="Ograve" unicode="Ò" horiz-adv-x="684" d="M342-12q-66 0-120.5 23.5T128 79 67.5 186 46 329t21.5 142.5 60.5 105 93.5 65T342 664t120.5-22.5T556 576t60.5-105.5T638 329q0-80-21.5-143T556 79t-93.5-67.5T342-12zm0 127q67 0 106 57.5T487 329q0 98-39 153t-106 55-106-55-39-153q0-99 39-156.5T342 115zm10 565L169 799l78 95 171-140z"/><glyph glyph-name="Oacute" unicode="Ó" horiz-adv-x="684" d="M342-12q-66 0-120.5 23.5T128 79 67.5 186 46 329t21.5 142.5 60.5 105 93.5 65T342 664t120.5-22.5T556 576t60.5-105.5T638 329q0-80-21.5-143T556 79t-93.5-67.5T342-12zm0 127q67 0 106 57.5T487 329q0 98-39 153t-106 55-106-55-39-153q0-99 39-156.5T342 115zm-10 565l-66 74 171 140 78-95z"/><glyph glyph-name="Ocircumflex" unicode="Ô" horiz-adv-x="684" d="M342-12q-66 0-120.5 23.5T128 79 67.5 186 46 329t21.5 142.5 60.5 105 93.5 65T342 664t120.5-22.5T556 576t60.5-105.5T638 329q0-80-21.5-143T556 79t-93.5-67.5T342-12zm0 127q67 0 106 57.5T487 329q0 98-39 153t-106 55-106-55-39-153q0-99 39-156.5T342 115zM172 724l90 111h160l90-111-64-39-104 84h-4l-104-84z"/><glyph glyph-name="Otilde" unicode="Õ" horiz-adv-x="684" d="M342-12q-66 0-120.5 23.5T128 79 67.5 186 46 329t21.5 142.5 60.5 105 93.5 65T342 664t120.5-22.5T556 576t60.5-105.5T638 329q0-80-21.5-143T556 79t-93.5-67.5T342-12zm0 127q67 0 106 57.5T487 329q0 98-39 153t-106 55-106-55-39-153q0-99 39-156.5T342 115zm71 577q-27 0-47 9t-36 20-29 20-25 9q-14 0-24-11t-13-38l-95 7q4 76 39 110t88 34q27 0 47-9t36-20 29-20 25-9q14 0 24 11t13 38l95-7q-4-75-39-109.5T413 692z"/><glyph glyph-name="Odieresis" unicode="Ö" horiz-adv-x="684" d="M342-12q-66 0-120.5 23.5T128 79 67.5 186 46 329t21.5 142.5 60.5 105 93.5 65T342 664t120.5-22.5T556 576t60.5-105.5T638 329q0-80-21.5-143T556 79t-93.5-67.5T342-12zm0 127q67 0 106 57.5T487 329q0 98-39 153t-106 55-106-55-39-153q0-99 39-156.5T342 115zM231 700q-31 0-50.5 20T161 770t19.5 50 50.5 20 50.5-20 19.5-50-19.5-50-50.5-20zm222 0q-31 0-50.5 20T383 770t19.5 50 50.5 20 50.5-20 19.5-50-19.5-50-50.5-20z"/><glyph glyph-name="Omacron" unicode="Ō" horiz-adv-x="684" d="M342-12q-66 0-120.5 23.5T128 79 67.5 186 46 329t21.5 142.5 60.5 105 93.5 65T342 664t120.5-22.5T556 576t60.5-105.5T638 329q0-80-21.5-143T556 79t-93.5-67.5T342-12zm0 127q67 0 106 57.5T487 329q0 98-39 153t-106 55-106-55-39-153q0-99 39-156.5T342 115zM191 721v94h302v-94H191z"/><glyph glyph-name="Ohungarumlaut" unicode="Ő" horiz-adv-x="684" d="M342-12q-66 0-120.5 23.5T128 79 67.5 186 46 329t21.5 142.5 60.5 105 93.5 65T342 664t120.5-22.5T556 576t60.5-105.5T638 329q0-80-21.5-143T556 79t-93.5-67.5T342-12zm0 127q67 0 106 57.5T487 329q0 98-39 153t-106 55-106-55-39-153q0-99 39-156.5T342 115zM207 728l101 161 93-52-122-143zm187 0l101 161 94-52-122-143z"/><glyph glyph-name="uni01D1" unicode="Ǒ" horiz-adv-x="684" d="M342-12q-66 0-120.5 23.5T128 79 67.5 186 46 329t21.5 142.5 60.5 105 93.5 65T342 664t120.5-22.5T556 576t60.5-105.5T638 329q0-80-21.5-143T556 79t-93.5-67.5T342-12zm0 127q67 0 106 57.5T487 329q0 98-39 153t-106 55-106-55-39-153q0-99 39-156.5T342 115zm-80 587l-90 110 64 40 104-84h4l104 84 64-40-90-110H262z"/><glyph glyph-name="uni1ECC" unicode="Ọ" horiz-adv-x="684" d="M342-12q-66 0-120.5 23.5T128 79 67.5 186 46 329t21.5 142.5 60.5 105 93.5 65T342 664t120.5-22.5T556 576t60.5-105.5T638 329q0-80-21.5-143T556 79t-93.5-67.5T342-12zm0 127q67 0 106 57.5T487 329q0 98-39 153t-106 55-106-55-39-153q0-99 39-156.5T342 115zm0-340q-36 0-58.5 21.5T261-148t22.5 55.5T342-71t58.5-21.5T423-148t-22.5-55.5T342-225z"/><glyph glyph-name="uni1ECE" unicode="Ỏ" horiz-adv-x="684" d="M342-12q-66 0-120.5 23.5T128 79 67.5 186 46 329t21.5 142.5 60.5 105 93.5 65T342 664t120.5-22.5T556 576t60.5-105.5T638 329q0-80-21.5-143T556 79t-93.5-67.5T342-12zm0 127q67 0 106 57.5T487 329q0 98-39 153t-106 55-106-55-39-153q0-99 39-156.5T342 115zm-43 576l-12 58q19 4 32 10t13 20-18 22.5-62 11.5l17 73q93-2 131-26.5t38-64.5q0-26-11-44.5t-30-31-44.5-19.5-53.5-9z"/><glyph glyph-name="uni1ED0" unicode="Ố" horiz-adv-x="684" d="M342-12q-66 0-120.5 23.5T128 79 67.5 186 46 329t21.5 142.5 60.5 105 93.5 65T342 664t120.5-22.5T556 576t60.5-105.5T638 329q0-80-21.5-143T556 79t-93.5-67.5T342-12zm0 127q67 0 106 57.5T487 329q0 98-39 153t-106 55-106-55-39-153q0-99 39-156.5T342 115zm-94 570l-59 39 90 100h126l90-100-59-39-92 72h-4zm246 74l-44 50 100 86 49-60z"/><glyph glyph-name="uni1ED2" unicode="Ồ" horiz-adv-x="684" d="M342-12q-66 0-120.5 23.5T128 79 67.5 186 46 329t21.5 142.5 60.5 105 93.5 65T342 664t120.5-22.5T556 576t60.5-105.5T638 329q0-80-21.5-143T556 79t-93.5-67.5T342-12zm0 127q67 0 106 57.5T487 329q0 98-39 153t-106 55-106-55-39-153q0-99 39-156.5T342 115zm-94 570l-59 39 90 100h126l90-100-59-39-92 72h-4zm-14 123l-44-49-101 77 48 59z"/><glyph glyph-name="uni1ED4" unicode="Ổ" horiz-adv-x="684" d="M342-12q-66 0-120.5 23.5T128 79 67.5 186 46 329t21.5 142.5 60.5 105 93.5 65T342 664t120.5-22.5T556 576t60.5-105.5T638 329q0-80-21.5-143T556 79t-93.5-67.5T342-12zm0 127q67 0 106 57.5T487 329q0 98-39 153t-106 55-106-55-39-153q0-99 39-156.5T342 115zm-94 570l-59 39 90 100h126l90-100-59-39-92 72h-4zm231 65l-11 47q14 3 23 8.5t9 18.5q0 14-13.5 22T435 857l13 60q82-2 114.5-24.5T595 837q0-44-33.5-63.5T479 750z"/><glyph glyph-name="uni1ED6" unicode="Ỗ" horiz-adv-x="684" d="M342-12q-66 0-120.5 23.5T128 79 67.5 186 46 329t21.5 142.5 60.5 105 93.5 65T342 664t120.5-22.5T556 576t60.5-105.5T638 329q0-80-21.5-143T556 79t-93.5-67.5T342-12zm0 127q67 0 106 57.5T487 329q0 98-39 153t-106 55-106-55-39-153q0-99 39-156.5T342 115zm-94 570l-59 39 90 92h126l90-92-59-39-92 63h-4zm-59 167q3 57 27 84t66 27q21 0 37-7t29-15 23.5-15 21.5-7q26 0 32 39l70-9q-3-57-27-84t-66-27q-21 0-37 7t-29 15-24 15-21 7q-26 0-32-38z"/><glyph glyph-name="uni1ED8" unicode="Ộ" horiz-adv-x="684" d="M342-12q-66 0-120.5 23.5T128 79 67.5 186 46 329t21.5 142.5 60.5 105 93.5 65T342 664t120.5-22.5T556 576t60.5-105.5T638 329q0-80-21.5-143T556 79t-93.5-67.5T342-12zm0 127q67 0 106 57.5T487 329q0 98-39 153t-106 55-106-55-39-153q0-99 39-156.5T342 115zM172 724l90 111h160l90-111-64-39-104 84h-4l-104-84zm170-949q-36 0-58.5 21.5T261-148t22.5 55.5T342-71t58.5-21.5T423-148t-22.5-55.5T342-225z"/><glyph glyph-name="uni014E" unicode="Ŏ" horiz-adv-x="684" d="M342-12q-66 0-120.5 23.5T128 79 67.5 186 46 329t21.5 142.5 60.5 105 93.5 65T342 664t120.5-22.5T556 576t60.5-105.5T638 329q0-80-21.5-143T556 79t-93.5-67.5T342-12zm0 127q67 0 106 57.5T487 329q0 98-39 153t-106 55-106-55-39-153q0-99 39-156.5T342 115zm0 582q-75 0-115.5 35T179 834l80 14q7-31 28-48.5t55-17.5 55 17.5 28 48.5l80-14q-7-67-47.5-102T342 697z"/><glyph glyph-name="uni1E52" unicode="Ṓ" horiz-adv-x="684" d="M342-12q-66 0-120.5 23.5T128 79 67.5 186 46 329t21.5 142.5 60.5 105 93.5 65T342 664t120.5-22.5T556 576t60.5-105.5T638 329q0-80-21.5-143T556 79t-93.5-67.5T342-12zm0 127q67 0 106 57.5T487 329q0 98-39 153t-106 55-106-55-39-153q0-99 39-156.5T342 115zm-31 719l-49 66 155 107 60-81zM191 721v94h302v-94H191z"/><glyph glyph-name="Oslash" unicode="Ø" horiz-adv-x="684" d="M343-12q-94 0-165 48l-62-77-76 58 69 86q-29 43-45.5 100T47 329q0 80 21.5 142.5t60.5 105 93.5 65T343 664q102 0 175-53l66 82 76-59-76-94q26-41 40.5-93.5T639 329q0-80-21.5-143T557 79t-93.5-67.5T343-12zM198 329q0-28 3.5-53t9.5-46l220 273q-36 34-88 34-67 0-106-55t-39-153zm145-214q67 0 106 57.5T488 329q0 45-9 81L264 143q34-28 79-28z"/><glyph glyph-name="OE" unicode="Œ" horiz-adv-x="871" d="M373 0q-70 0-129.5 20T140 80.5 71 183 46 329t25 145 69.5 100.5 106 58.5T381 652h427V528H561V397h208V274H561V124h257V0H373zm17 119h23v414h-23q-43 0-78.5-10t-61-33.5T211 427t-14-98 14-99.5 39.5-65 61-35T390 119z"/><glyph glyph-name="Ohorn" unicode="Ơ" horiz-adv-x="684" d="M343-12q-66 0-120.5 23.5T129 79 68.5 186 47 329t21.5 142.5 60.5 105 93.5 65T343 664q77 0 139-31 29 8 44.5 24t15.5 48q0 20-5 37t-11 28l109 44q12-17 21-42.5t9-55.5q0-54-29-85.5T550 584q42-44 65.5-107.5T639 329q0-80-21.5-143T557 79t-93.5-67.5T343-12zm0 127q67 0 106 57.5T488 329q0 98-39 153t-106 55-106-55-39-153q0-99 39-156.5T343 115z"/><glyph glyph-name="uni1EDA" unicode="Ớ" horiz-adv-x="684" d="M343-12q-66 0-120.5 23.5T129 79 68.5 186 47 329t21.5 142.5 60.5 105 93.5 65T343 664q77 0 139-31 29 8 44.5 24t15.5 48q0 20-5 37t-11 28l109 44q12-17 21-42.5t9-55.5q0-54-29-85.5T550 584q42-44 65.5-107.5T639 329q0-80-21.5-143T557 79t-93.5-67.5T343-12zm0 127q67 0 106 57.5T488 329q0 98-39 153t-106 55-106-55-39-153q0-99 39-156.5T343 115zm-11 565l-66 74 171 140 78-95z"/><glyph glyph-name="uni1EDC" unicode="Ờ" horiz-adv-x="684" d="M343-12q-66 0-120.5 23.5T129 79 68.5 186 47 329t21.5 142.5 60.5 105 93.5 65T343 664q77 0 139-31 29 8 44.5 24t15.5 48q0 20-5 37t-11 28l109 44q12-17 21-42.5t9-55.5q0-54-29-85.5T550 584q42-44 65.5-107.5T639 329q0-80-21.5-143T557 79t-93.5-67.5T343-12zm0 127q67 0 106 57.5T488 329q0 98-39 153t-106 55-106-55-39-153q0-99 39-156.5T343 115zm9 565L169 799l78 95 171-140z"/><glyph glyph-name="uni1EDE" unicode="Ở" horiz-adv-x="684" d="M343-12q-66 0-120.5 23.5T129 79 68.5 186 47 329t21.5 142.5 60.5 105 93.5 65T343 664q77 0 139-31 29 8 44.5 24t15.5 48q0 20-5 37t-11 28l109 44q12-17 21-42.5t9-55.5q0-54-29-85.5T550 584q42-44 65.5-107.5T639 329q0-80-21.5-143T557 79t-93.5-67.5T343-12zm0 127q67 0 106 57.5T488 329q0 98-39 153t-106 55-106-55-39-153q0-99 39-156.5T343 115zm-44 576l-12 58q19 4 32 10t13 20-18 22.5-62 11.5l17 73q93-2 131-26.5t38-64.5q0-26-11-44.5t-30-31-44.5-19.5-53.5-9z"/><glyph glyph-name="uni1EE0" unicode="Ỡ" horiz-adv-x="684" d="M343-12q-66 0-120.5 23.5T129 79 68.5 186 47 329t21.5 142.5 60.5 105 93.5 65T343 664q77 0 139-31 29 8 44.5 24t15.5 48q0 20-5 37t-11 28l109 44q12-17 21-42.5t9-55.5q0-54-29-85.5T550 584q42-44 65.5-107.5T639 329q0-80-21.5-143T557 79t-93.5-67.5T343-12zm0 127q67 0 106 57.5T488 329q0 98-39 153t-106 55-106-55-39-153q0-99 39-156.5T343 115zm54 577q-27 0-47 9t-36 20-29 20-25 9q-14 0-24-11t-13-38l-95 7q4 76 39 110t88 34q27 0 47-9t36-20 29-20 25-9q14 0 24 11t13 38l95-7q-4-75-39-109.5T397 692z"/><glyph glyph-name="uni1EE2" unicode="Ợ" horiz-adv-x="684" d="M343-12q-66 0-120.5 23.5T129 79 68.5 186 47 329t21.5 142.5 60.5 105 93.5 65T343 664q77 0 139-31 29 8 44.5 24t15.5 48q0 20-5 37t-11 28l109 44q12-17 21-42.5t9-55.5q0-54-29-85.5T550 584q42-44 65.5-107.5T639 329q0-80-21.5-143T557 79t-93.5-67.5T343-12zm0 127q67 0 106 57.5T488 329q0 98-39 153t-106 55-106-55-39-153q0-99 39-156.5T343 115zm-1-340q-36 0-58.5 21.5T261-148t22.5 55.5T342-71t58.5-21.5T423-148t-22.5-55.5T342-225z"/><glyph glyph-name="uni01EA" unicode="Ǫ" horiz-adv-x="684" d="M368-223q-48 0-81.5 24.5T253-129q0 39 20 69t43 50q-62 4-112 29.5t-85 69T65 193 46 329q0 80 21.5 142.5t60.5 105 93.5 65T342 664t120.5-22.5T556 576t60.5-105.5T638 329q0-69-14-121.5T583 115t-65.5-69T431-5q-38-17-54.5-40.5T360-90q0-20 13-29t29-9q11 0 19.5 4.5T438-114l34-74q-20-15-49-25t-55-10zm-26 338q67 0 106 57.5T487 329q0 98-39 153t-106 55-106-55-39-153q0-99 39-156.5T342 115z"/><glyph glyph-name="Racute" unicode="Ŕ" horiz-adv-x="613" d="M77 0v652h235q52 0 97.5-10t79.5-33.5 54-62.5 20-97q0-72-31.5-118.5T447 261L595 0H430L305 235h-81V0H77zm147 352h76q58 0 88.5 24.5T419 449t-30.5 67-88.5 19h-76V352zm74 328l-66 74 171 140 78-95z"/><glyph glyph-name="Rcaron" unicode="Ř" horiz-adv-x="613" d="M77 0v652h235q52 0 97.5-10t79.5-33.5 54-62.5 20-97q0-72-31.5-118.5T447 261L595 0H430L305 235h-81V0H77zm147 352h76q58 0 88.5 24.5T419 449t-30.5 67-88.5 19h-76V352zm4 350l-90 110 64 40 104-84h4l104 84 64-40-90-110H228z"/><glyph glyph-name="uni1E58" unicode="Ṙ" horiz-adv-x="613" d="M77 0v652h235q52 0 97.5-10t79.5-33.5 54-62.5 20-97q0-72-31.5-118.5T447 261L595 0H430L305 235h-81V0H77zm147 352h76q58 0 88.5 24.5T419 449t-30.5 67-88.5 19h-76V352zm84 349q-37 0-61 21.5T223 778t24 55.5 61 21.5 61-21.5 24-55.5-24-55.5-61-21.5z"/><glyph glyph-name="uni0156" unicode="Ŗ" horiz-adv-x="613" d="M77 0v652h235q52 0 97.5-10t79.5-33.5 54-62.5 20-97q0-72-31.5-118.5T447 261L595 0H430L305 235h-81V0H77zm147 352h76q58 0 88.5 24.5T419 449t-30.5 67-88.5 19h-76V352zm-1-591l-11 59q59 3 81 12.5t22 26.5q0 14-15 23t-49 12l28 54q80-7 110.5-27t30.5-57q0-51-51.5-75.5T223-239z"/><glyph glyph-name="uni1E5A" unicode="Ṛ" horiz-adv-x="613" d="M77 0v652h235q52 0 97.5-10t79.5-33.5 54-62.5 20-97q0-72-31.5-118.5T447 261L595 0H430L305 235h-81V0H77zm147 352h76q58 0 88.5 24.5T419 449t-30.5 67-88.5 19h-76V352zm101-577q-36 0-58.5 21.5T244-148t22.5 55.5T325-71t58.5-21.5T406-148t-22.5-55.5T325-225z"/><glyph glyph-name="uni1E5C" unicode="Ṝ" horiz-adv-x="613" d="M77 0v652h235q52 0 97.5-10t79.5-33.5 54-62.5 20-97q0-72-31.5-118.5T447 261L595 0H430L305 235h-81V0H77zm147 352h76q58 0 88.5 24.5T419 449t-30.5 67-88.5 19h-76V352zm-67 369v94h302v-94H157zm168-946q-36 0-58.5 21.5T244-148t22.5 55.5T325-71t58.5-21.5T406-148t-22.5-55.5T325-225z"/><glyph glyph-name="uni1E5E" unicode="Ṟ" horiz-adv-x="613" d="M77 0v652h235q52 0 97.5-10t79.5-33.5 54-62.5 20-97q0-72-31.5-118.5T447 261L595 0H430L305 235h-81V0H77zm147 352h76q58 0 88.5 24.5T419 449t-30.5 67-88.5 19h-76V352zm-47-539v93h296v-93H177z"/><glyph glyph-name="Sacute" unicode="Ś" horiz-adv-x="556" d="M276-12q-64 0-127.5 23.5T35 82l84 101q35-30 77.5-49t83.5-19q46 0 68.5 17t22.5 46q0 15-6.5 26t-19 19.5-30 16L277 256l-85 36q-25 10-48.5 26t-42 37.5-29.5 50T61 470q0 40 17 75.5t48 62 73.5 41.5 93.5 15q57 0 112.5-22t97.5-64l-75-93q-32 25-64 38.5T293 537q-38 0-60.5-15.5T210 478q0-15 7.5-25.5t21-19 31.5-16 39-16.5l84-34q60-24 94.5-66T522 190q0-41-16.5-77.5t-48-64-77.5-44T276-12zm5 692l-66 74 171 140 78-95z"/><glyph glyph-name="Scircumflex" unicode="Ŝ" horiz-adv-x="556" d="M276-12q-64 0-127.5 23.5T35 82l84 101q35-30 77.5-49t83.5-19q46 0 68.5 17t22.5 46q0 15-6.5 26t-19 19.5-30 16L277 256l-85 36q-25 10-48.5 26t-42 37.5-29.5 50T61 470q0 40 17 75.5t48 62 73.5 41.5 93.5 15q57 0 112.5-22t97.5-64l-75-93q-32 25-64 38.5T293 537q-38 0-60.5-15.5T210 478q0-15 7.5-25.5t21-19 31.5-16 39-16.5l84-34q60-24 94.5-66T522 190q0-41-16.5-77.5t-48-64-77.5-44T276-12zM121 724l90 111h160l90-111-64-39-104 84h-4l-104-84z"/><glyph glyph-name="Scaron" unicode="Š" horiz-adv-x="556" d="M276-12q-64 0-127.5 23.5T35 82l84 101q35-30 77.5-49t83.5-19q46 0 68.5 17t22.5 46q0 15-6.5 26t-19 19.5-30 16L277 256l-85 36q-25 10-48.5 26t-42 37.5-29.5 50T61 470q0 40 17 75.5t48 62 73.5 41.5 93.5 15q57 0 112.5-22t97.5-64l-75-93q-32 25-64 38.5T293 537q-38 0-60.5-15.5T210 478q0-15 7.5-25.5t21-19 31.5-16 39-16.5l84-34q60-24 94.5-66T522 190q0-41-16.5-77.5t-48-64-77.5-44T276-12zm-65 714l-90 110 64 40 104-84h4l104 84 64-40-90-110H211z"/><glyph glyph-name="uni015E" unicode="Ş" horiz-adv-x="556" d="M276-12q-64 0-127.5 23.5T35 82l84 101q35-30 77.5-49t83.5-19q46 0 68.5 17t22.5 46q0 15-6.5 26t-19 19.5-30 16L277 256l-85 36q-25 10-48.5 26t-42 37.5-29.5 50T61 470q0 40 17 75.5t48 62 73.5 41.5 93.5 15q57 0 112.5-22t97.5-64l-75-93q-32 25-64 38.5T293 537q-38 0-60.5-15.5T210 478q0-15 7.5-25.5t21-19 31.5-16 39-16.5l84-34q60-24 94.5-66T522 190q0-41-16.5-77.5t-48-64-77.5-44T276-12zm-98-227l-11 59q59 3 81 13t22 31q0 15-15.5 25.5T193-94l48 98h86l-28-65q38-9 57-26t19-49q0-51-51.5-75.5T178-239z"/><glyph glyph-name="uni0218" unicode="Ș" horiz-adv-x="556" d="M276-12q-64 0-127.5 23.5T35 82l84 101q35-30 77.5-49t83.5-19q46 0 68.5 17t22.5 46q0 15-6.5 26t-19 19.5-30 16L277 256l-85 36q-25 10-48.5 26t-42 37.5-29.5 50T61 470q0 40 17 75.5t48 62 73.5 41.5 93.5 15q57 0 112.5-22t97.5-64l-75-93q-32 25-64 38.5T293 537q-38 0-60.5-15.5T210 478q0-15 7.5-25.5t21-19 31.5-16 39-16.5l84-34q60-24 94.5-66T522 190q0-41-16.5-77.5t-48-64-77.5-44T276-12zm-98-227l-11 59q59 3 81 12.5t22 26.5q0 14-15 23t-49 12l28 54q80-7 110.5-27t30.5-57q0-51-51.5-75.5T178-239z"/><glyph glyph-name="uni1E60" unicode="Ṡ" horiz-adv-x="556" d="M276-12q-64 0-127.5 23.5T35 82l84 101q35-30 77.5-49t83.5-19q46 0 68.5 17t22.5 46q0 15-6.5 26t-19 19.5-30 16L277 256l-85 36q-25 10-48.5 26t-42 37.5-29.5 50T61 470q0 40 17 75.5t48 62 73.5 41.5 93.5 15q57 0 112.5-22t97.5-64l-75-93q-32 25-64 38.5T293 537q-38 0-60.5-15.5T210 478q0-15 7.5-25.5t21-19 31.5-16 39-16.5l84-34q60-24 94.5-66T522 190q0-41-16.5-77.5t-48-64-77.5-44T276-12zm15 713q-37 0-61 21.5T206 778t24 55.5 61 21.5 61-21.5 24-55.5-24-55.5-61-21.5z"/><glyph glyph-name="uni1E62" unicode="Ṣ" horiz-adv-x="556" d="M276-12q-64 0-127.5 23.5T35 82l84 101q35-30 77.5-49t83.5-19q46 0 68.5 17t22.5 46q0 15-6.5 26t-19 19.5-30 16L277 256l-85 36q-25 10-48.5 26t-42 37.5-29.5 50T61 470q0 40 17 75.5t48 62 73.5 41.5 93.5 15q57 0 112.5-22t97.5-64l-75-93q-32 25-64 38.5T293 537q-38 0-60.5-15.5T210 478q0-15 7.5-25.5t21-19 31.5-16 39-16.5l84-34q60-24 94.5-66T522 190q0-41-16.5-77.5t-48-64-77.5-44T276-12zm4-213q-36 0-58.5 21.5T199-148t22.5 55.5T280-71t58.5-21.5T361-148t-22.5-55.5T280-225z"/><glyph glyph-name="uni1E9E" unicode="ẞ" horiz-adv-x="705" d="M463-12q-65 0-111.5 22T277 60l77 90q24-24 46.5-33.5T445 107q32 0 51 20t19 52q0 30-34 55.5T364 275l-10 86 109 125q-13 23-39 41t-67 18q-129 0-129-156V0H80v409q0 55 16.5 101.5t51 80.5 87.5 53.5T361 664q98 0 161.5-50.5T609 481L501 359q37-12 67-28t52-37.5 34-50 12-65.5q0-40-13.5-75t-39-60.5-63.5-40T463-12z"/><glyph glyph-name="Tcaron" unicode="Ť" horiz-adv-x="556" d="M204 0v528H25v124h506V528H352V0H204zm-6 702l-90 110 64 40 104-84h4l104 84 64-40-90-110H198z"/><glyph glyph-name="uni0162" unicode="Ţ" horiz-adv-x="556" d="M204 0v528H25v124h506V528H352V0H204zm-26-239l-11 59q59 3 81 13t22 31q0 15-15.5 25.5T193-94l48 98h86l-28-65q38-9 57-26t19-49q0-51-51.5-75.5T178-239z"/><glyph glyph-name="uni021A" unicode="Ț" horiz-adv-x="556" d="M204 0v528H25v124h506V528H352V0H204zm-28-239l-11 59q59 3 81 12.5t22 26.5q0 14-15 23t-49 12l28 54q80-7 110.5-27t30.5-57q0-51-51.5-75.5T176-239z"/><glyph glyph-name="uni1E6C" unicode="Ṭ" horiz-adv-x="556" d="M204 0v528H25v124h506V528H352V0H204zm74-225q-36 0-58.5 21.5T197-148t22.5 55.5T278-71t58.5-21.5T359-148t-22.5-55.5T278-225z"/><glyph glyph-name="uni1E6E" unicode="Ṯ" horiz-adv-x="556" d="M204 0v528H25v124h506V528H352V0H204zm-74-187v93h296v-93H130z"/><glyph glyph-name="uni0166" unicode="Ŧ" horiz-adv-x="556" d="M204 0v285H86v65l94 6h24v172H25v124h506V528H352V356h118v-71H352V0H204z"/><glyph glyph-name="Ugrave" unicode="Ù" horiz-adv-x="665" d="M334-12q-127 0-194 75T73 302v350h148V287q0-96 29-134t84-38 85 38 30 134v365h142V302q0-164-65.5-239T334-12zm8 692L159 799l78 95 171-140z"/><glyph glyph-name="Uacute" unicode="Ú" horiz-adv-x="665" d="M334-12q-127 0-194 75T73 302v350h148V287q0-96 29-134t84-38 85 38 30 134v365h142V302q0-164-65.5-239T334-12zm-12 692l-66 74 171 140 78-95z"/><glyph glyph-name="Ucircumflex" unicode="Û" horiz-adv-x="665" d="M334-12q-127 0-194 75T73 302v350h148V287q0-96 29-134t84-38 85 38 30 134v365h142V302q0-164-65.5-239T334-12zM162 724l90 111h160l90-111-64-39-104 84h-4l-104-84z"/><glyph glyph-name="Utilde" unicode="Ũ" horiz-adv-x="665" d="M334-12q-127 0-194 75T73 302v350h148V287q0-96 29-134t84-38 85 38 30 134v365h142V302q0-164-65.5-239T334-12zm69 704q-27 0-47 9t-36 20-29 20-25 9q-14 0-24-11t-13-38l-95 7q4 76 39 110t88 34q27 0 47-9t36-20 29-20 25-9q14 0 24 11t13 38l95-7q-4-75-39-109.5T403 692z"/><glyph glyph-name="Udieresis" unicode="Ü" horiz-adv-x="665" d="M334-12q-127 0-194 75T73 302v350h148V287q0-96 29-134t84-38 85 38 30 134v365h142V302q0-164-65.5-239T334-12zM221 700q-31 0-50.5 20T151 770t19.5 50 50.5 20 50.5-20 19.5-50-19.5-50-50.5-20zm222 0q-31 0-50.5 20T373 770t19.5 50 50.5 20 50.5-20 19.5-50-19.5-50-50.5-20z"/><glyph glyph-name="Umacron" unicode="Ū" horiz-adv-x="665" d="M334-12q-127 0-194 75T73 302v350h148V287q0-96 29-134t84-38 85 38 30 134v365h142V302q0-164-65.5-239T334-12zM181 721v94h302v-94H181z"/><glyph glyph-name="Ubreve" unicode="Ŭ" horiz-adv-x="665" d="M334-12q-127 0-194 75T73 302v350h148V287q0-96 29-134t84-38 85 38 30 134v365h142V302q0-164-65.5-239T334-12zm-2 709q-75 0-115.5 35T169 834l80 14q7-31 28-48.5t55-17.5 55 17.5 28 48.5l80-14q-7-67-47.5-102T332 697z"/><glyph glyph-name="Uring" unicode="Ů" horiz-adv-x="665" d="M334-12q-127 0-194 75T73 302v350h148V287q0-96 29-134t84-38 85 38 30 134v365h142V302q0-164-65.5-239T334-12zm-2 709q-51 0-82.5 27T218 796t31.5 71.5T332 894t82.5-26.5T446 796t-31.5-72-82.5-27zm0 55q17 0 29.5 12t12.5 32-12.5 31.5T332 839t-29.5-11.5T290 796t12.5-32 29.5-12z"/><glyph glyph-name="Uhungarumlaut" unicode="Ű" horiz-adv-x="665" d="M334-12q-127 0-194 75T73 302v350h148V287q0-96 29-134t84-38 85 38 30 134v365h142V302q0-164-65.5-239T334-12zM197 728l101 161 93-52-122-143zm187 0l101 161 94-52-122-143z"/><glyph glyph-name="uni01D3" unicode="Ǔ" horiz-adv-x="665" d="M334-12q-127 0-194 75T73 302v350h148V287q0-96 29-134t84-38 85 38 30 134v365h142V302q0-164-65.5-239T334-12zm-82 714l-90 110 64 40 104-84h4l104 84 64-40-90-110H252z"/><glyph glyph-name="uni01D5" unicode="Ǖ" horiz-adv-x="665" d="M334-12q-127 0-194 75T73 302v350h148V287q0-96 29-134t84-38 85 38 30 134v365h142V302q0-164-65.5-239T334-12zM221 700q-27 0-44 18t-17 44 17 43.5 44 17.5 44.5-17.5T283 762t-17.5-44-44.5-18zm-40 172v69h302v-69H181zm262-172q-27 0-44.5 18T381 762t17.5 43.5T443 823t44-17.5 17-43.5-17-44-44-18z"/><glyph glyph-name="uni01D7" unicode="Ǘ" horiz-adv-x="665" d="M334-12q-127 0-194 75T73 302v350h148V287q0-96 29-134t84-38 85 38 30 134v365h142V302q0-164-65.5-239T334-12zM221 700q-27 0-44 18t-17 44 17 43.5 44 17.5 44.5-17.5T283 762t-17.5-44-44.5-18zm56 164l95 145 92-57-124-127zm166-164q-27 0-44.5 18T381 762t17.5 43.5T443 823t44-17.5 17-43.5-17-44-44-18z"/><glyph glyph-name="uni01D9" unicode="Ǚ" horiz-adv-x="665" d="M334-12q-127 0-194 75T73 302v350h148V287q0-96 29-134t84-38 85 38 30 134v365h142V302q0-164-65.5-239T334-12zm-65 866l-92 102 59 39 94-73h4l94 73 59-39-92-102H269zm-48-154q-27 0-44 18t-17 44 17 43.5 44 17.5 44.5-17.5T283 762t-17.5-44-44.5-18zm222 0q-27 0-44.5 18T381 762t17.5 43.5T443 823t44-17.5 17-43.5-17-44-44-18z"/><glyph glyph-name="uni01DB" unicode="Ǜ" horiz-adv-x="665" d="M334-12q-127 0-194 75T73 302v350h148V287q0-96 29-134t84-38 85 38 30 134v365h142V302q0-164-65.5-239T334-12zm53 876l-63-39-124 127 92 57zM221 700q-27 0-44 18t-17 44 17 43.5 44 17.5 44.5-17.5T283 762t-17.5-44-44.5-18zm222 0q-27 0-44.5 18T381 762t17.5 43.5T443 823t44-17.5 17-43.5-17-44-44-18z"/><glyph glyph-name="uni1EE4" unicode="Ụ" horiz-adv-x="665" d="M334-12q-127 0-194 75T73 302v350h148V287q0-96 29-134t84-38 85 38 30 134v365h142V302q0-164-65.5-239T334-12zm-2-213q-36 0-58.5 21.5T251-148t22.5 55.5T332-71t58.5-21.5T413-148t-22.5-55.5T332-225z"/><glyph glyph-name="uni1EE6" unicode="Ủ" horiz-adv-x="665" d="M334-12q-127 0-194 75T73 302v350h148V287q0-96 29-134t84-38 85 38 30 134v365h142V302q0-164-65.5-239T334-12zm-45 703l-12 58q19 4 32 10t13 20-18 22.5-62 11.5l17 73q93-2 131-26.5t38-64.5q0-26-11-44.5t-30-31-44.5-19.5-53.5-9z"/><glyph glyph-name="Uogonek" unicode="Ų" horiz-adv-x="665" d="M357-223q-48 0-81 24.5T243-129q0 23 7.5 42.5t18 34.5 21 25.5T307-10Q192-3 132.5 72.5T73 302v350h148V287q0-96 29-134t84-38 85 38 30 134v365h142V302q0-69-10-118t-31-84.5-53-60T421-5q-38-17-54.5-41T350-90t13-29 29-9q10 0 19 4.5t17 9.5l34-74q-20-15-49.5-25T357-223z"/><glyph glyph-name="Uhorn" unicode="Ư" horiz-adv-x="683" d="M334-12q-127 0-194 75T73 302v350h148V287q0-96 29-134t84-38 85 38 30 134v365h70q15 1 30 4t26.5 10.5 19 21.5 7.5 37q0 20-5 37t-11 28l109 44q11-17 20.5-42.5T725 736q0-62-35.5-94.5T591 598V302q0-164-65.5-239T334-12z"/><glyph glyph-name="uni1EE8" unicode="Ứ" horiz-adv-x="683" d="M334-12q-127 0-194 75T73 302v350h148V287q0-96 29-134t84-38 85 38 30 134v365h70q15 1 30 4t26.5 10.5 19 21.5 7.5 37q0 20-5 37t-11 28l109 44q11-17 20.5-42.5T725 736q0-62-35.5-94.5T591 598V302q0-164-65.5-239T334-12zm-12 692l-66 74 171 140 78-95z"/><glyph glyph-name="uni1EEA" unicode="Ừ" horiz-adv-x="683" d="M334-12q-127 0-194 75T73 302v350h148V287q0-96 29-134t84-38 85 38 30 134v365h70q15 1 30 4t26.5 10.5 19 21.5 7.5 37q0 20-5 37t-11 28l109 44q11-17 20.5-42.5T725 736q0-62-35.5-94.5T591 598V302q0-164-65.5-239T334-12zm8 692L159 799l78 95 171-140z"/><glyph glyph-name="uni1EEC" unicode="Ử" horiz-adv-x="683" d="M334-12q-127 0-194 75T73 302v350h148V287q0-96 29-134t84-38 85 38 30 134v365h70q15 1 30 4t26.5 10.5 19 21.5 7.5 37q0 20-5 37t-11 28l109 44q11-17 20.5-42.5T725 736q0-62-35.5-94.5T591 598V302q0-164-65.5-239T334-12zm-45 703l-12 58q19 4 32 10t13 20-18 22.5-62 11.5l17 73q93-2 131-26.5t38-64.5q0-26-11-44.5t-30-31-44.5-19.5-53.5-9z"/><glyph glyph-name="uni1EEE" unicode="Ữ" horiz-adv-x="683" d="M334-12q-127 0-194 75T73 302v350h148V287q0-96 29-134t84-38 85 38 30 134v365h70q15 1 30 4t26.5 10.5 19 21.5 7.5 37q0 20-5 37t-11 28l109 44q11-17 20.5-42.5T725 736q0-62-35.5-94.5T591 598V302q0-164-65.5-239T334-12zm69 704q-27 0-47 9t-36 20-29 20-25 9q-14 0-24-11t-13-38l-95 7q4 76 39 110t88 34q27 0 47-9t36-20 29-20 25-9q14 0 24 11t13 38l95-7q-4-75-39-109.5T403 692z"/><glyph glyph-name="uni1EF0" unicode="Ự" horiz-adv-x="683" d="M334-12q-127 0-194 75T73 302v350h148V287q0-96 29-134t84-38 85 38 30 134v365h70q15 1 30 4t26.5 10.5 19 21.5 7.5 37q0 20-5 37t-11 28l109 44q11-17 20.5-42.5T725 736q0-62-35.5-94.5T591 598V302q0-164-65.5-239T334-12zm-2-213q-36 0-58.5 21.5T251-148t22.5 55.5T332-71t58.5-21.5T413-148t-22.5-55.5T332-225z"/><glyph glyph-name="Wgrave" unicode="Ẁ" horiz-adv-x="813" d="M135 0L14 652h151l45-305q6-51 13-102.5T236 141h4q10 52 19.5 103.5T279 347l70 305h125l70-305q10-50 19.5-101.5T583 141h4q7 53 13.5 104T614 347l45 305h141L684 0H499l-64 296q-8 38-14.5 76.5T409 447h-4q-6-36-12.5-74.5T378 296L317 0H135zm281 680L233 799l78 95 171-140z"/><glyph glyph-name="Wacute" unicode="Ẃ" horiz-adv-x="813" d="M135 0L14 652h151l45-305q6-51 13-102.5T236 141h4q10 52 19.5 103.5T279 347l70 305h125l70-305q10-50 19.5-101.5T583 141h4q7 53 13.5 104T614 347l45 305h141L684 0H499l-64 296q-8 38-14.5 76.5T409 447h-4q-6-36-12.5-74.5T378 296L317 0H135zm261 680l-66 74 171 140 78-95z"/><glyph glyph-name="Wcircumflex" unicode="Ŵ" horiz-adv-x="813" d="M135 0L14 652h151l45-305q6-51 13-102.5T236 141h4q10 52 19.5 103.5T279 347l70 305h125l70-305q10-50 19.5-101.5T583 141h4q7 53 13.5 104T614 347l45 305h141L684 0H499l-64 296q-8 38-14.5 76.5T409 447h-4q-6-36-12.5-74.5T378 296L317 0H135zm101 724l90 111h160l90-111-64-39-104 84h-4l-104-84z"/><glyph glyph-name="Wdieresis" unicode="Ẅ" horiz-adv-x="813" d="M135 0L14 652h151l45-305q6-51 13-102.5T236 141h4q10 52 19.5 103.5T279 347l70 305h125l70-305q10-50 19.5-101.5T583 141h4q7 53 13.5 104T614 347l45 305h141L684 0H499l-64 296q-8 38-14.5 76.5T409 447h-4q-6-36-12.5-74.5T378 296L317 0H135zm160 700q-31 0-50.5 20T225 770t19.5 50 50.5 20 50.5-20 19.5-50-19.5-50-50.5-20zm222 0q-31 0-50.5 20T447 770t19.5 50 50.5 20 50.5-20 19.5-50-19.5-50-50.5-20z"/><glyph glyph-name="Ygrave" unicode="Ỳ" horiz-adv-x="525" d="M189 0v232L-8 652h158l58-150q14-37 26.5-71.5T261 358h4q14 38 27.5 72.5T320 502l59 150h154L336 232V0H189zm83 680L89 799l78 95 171-140z"/><glyph glyph-name="Yacute" unicode="Ý" horiz-adv-x="525" d="M189 0v232L-8 652h158l58-150q14-37 26.5-71.5T261 358h4q14 38 27.5 72.5T320 502l59 150h154L336 232V0H189zm63 680l-66 74 171 140 78-95z"/><glyph glyph-name="Ycircumflex" unicode="Ŷ" horiz-adv-x="525" d="M189 0v232L-8 652h158l58-150q14-37 26.5-71.5T261 358h4q14 38 27.5 72.5T320 502l59 150h154L336 232V0H189zM92 724l90 111h160l90-111-64-39-104 84h-4l-104-84z"/><glyph glyph-name="Ydieresis" unicode="Ÿ" horiz-adv-x="525" d="M189 0v232L-8 652h158l58-150q14-37 26.5-71.5T261 358h4q14 38 27.5 72.5T320 502l59 150h154L336 232V0H189zm-38 700q-31 0-50.5 20T81 770t19.5 50 50.5 20 50.5-20 19.5-50-19.5-50-50.5-20zm222 0q-31 0-50.5 20T303 770t19.5 50 50.5 20 50.5-20 19.5-50-19.5-50-50.5-20z"/><glyph glyph-name="uni1E8E" unicode="Ẏ" horiz-adv-x="525" d="M189 0v232L-8 652h158l58-150q14-37 26.5-71.5T261 358h4q14 38 27.5 72.5T320 502l59 150h154L336 232V0H189zm73 701q-37 0-61 21.5T177 778t24 55.5 61 21.5 61-21.5 24-55.5-24-55.5-61-21.5z"/><glyph glyph-name="uni1EF4" unicode="Ỵ" horiz-adv-x="525" d="M189 0v232L-8 652h158l58-150q14-37 26.5-71.5T261 358h4q14 38 27.5 72.5T320 502l59 150h154L336 232V0H189zm75-225q-36 0-58.5 21.5T183-148t22.5 55.5T264-71t58.5-21.5T345-148t-22.5-55.5T264-225z"/><glyph glyph-name="uni1EF6" unicode="Ỷ" horiz-adv-x="525" d="M189 0v232L-8 652h158l58-150q14-37 26.5-71.5T261 358h4q14 38 27.5 72.5T320 502l59 150h154L336 232V0H189zm30 691l-12 58q19 4 32 10t13 20-18 22.5-62 11.5l17 73q93-2 131-26.5t38-64.5q0-26-11-44.5t-30-31-44.5-19.5-53.5-9z"/><glyph glyph-name="uni1EF8" unicode="Ỹ" horiz-adv-x="525" d="M189 0v232L-8 652h158l58-150q14-37 26.5-71.5T261 358h4q14 38 27.5 72.5T320 502l59 150h154L336 232V0H189zm144 692q-27 0-47 9t-36 20-29 20-25 9q-14 0-24-11t-13-38l-95 7q4 76 39 110t88 34q27 0 47-9t36-20 29-20 25-9q14 0 24 11t13 38l95-7q-4-75-39-109.5T333 692z"/><glyph glyph-name="Zacute" unicode="Ź" horiz-adv-x="541" d="M36 0v89l288 439H63v124h442v-89L217 124h291V0H36zm236 680l-66 74 171 140 78-95z"/><glyph glyph-name="Zcaron" unicode="Ž" horiz-adv-x="541" d="M36 0v89l288 439H63v124h442v-89L217 124h291V0H36zm166 702l-90 110 64 40 104-84h4l104 84 64-40-90-110H202z"/><glyph glyph-name="Zdotaccent" unicode="Ż" horiz-adv-x="541" d="M36 0v89l288 439H63v124h442v-89L217 124h291V0H36zm246 701q-37 0-61 21.5T197 778t24 55.5 61 21.5 61-21.5 24-55.5-24-55.5-61-21.5z"/><glyph glyph-name="uni1E92" unicode="Ẓ" horiz-adv-x="541" d="M36 0v89l288 439H63v124h442v-89L217 124h291V0H36zm245-225q-36 0-58.5 21.5T200-148t22.5 55.5T281-71t58.5-21.5T362-148t-22.5-55.5T281-225z"/><glyph glyph-name="uni1E94" unicode="Ẕ" horiz-adv-x="541" d="M36 0v89l288 439H63v124h442v-89L217 124h291V0H36zm97-187v93h296v-93H133z"/><glyph glyph-name="Eth" unicode="Ð" horiz-adv-x="660" d="M26 301v66l76 5v280h184q75 0 135-19t103-58.5T590 474t23-145-23-146-65-102.5T424.5 20 294 0H102v301H26zm223-182h28q42 0 76 11t58 35.5 37.5 64.5 13.5 99q0 58-13.5 97.5t-37.5 63-58 33.5-76 10h-28V372h125v-71H249V119z"/><glyph glyph-name="Thorn" unicode="Þ" horiz-adv-x="617" d="M77 0v652h147v-99h91q53 0 99.5-10.5t81-35T550 443t20-99q0-58-20.5-99.5T494 176t-81-40-98-13h-91V0H77zm147 240h82q120 0 120 104 0 51-30.5 71.5T306 436h-82V240z"/><glyph glyph-name="uni018F" unicode="Ə" horiz-adv-x="675" d="M336-12q-66 0-118.5 21.5t-89.5 64-57 105T51 323q0 23 3 49h427q-8 88-47 129.5T323 543q-47 0-82-18.5T180 482l-67 101q38 35 94.5 58T340 664q64 0 117.5-21.5t91.5-64T608 473t21-146-21-146.5-59.5-106T456 10 336-12zm0 120q57 0 94.5 37.5T479 264H201q6-82 41.5-119t93.5-37z"/><glyph glyph-name="uni014A" unicode="Ŋ" horiz-adv-x="666" d="M412-12q-23 0-49 4.5T322 7l32 127q8-4 18-6.5t23-2.5q15 0 28.5 8.5t23.5 31 16 63 6 103.5q0 112-31 159t-86 47q-31 0-67-21t-61-61V0H77v652h142v-70q38 40 82 61t95 21q48 0 89-18t71-57.5 47-103T620 331q0-175-50.5-259T412-12z"/><glyph glyph-name="uni0132" unicode="Ĳ" horiz-adv-x="602" d="M77 0v652h147V0H77zm271-182q-31 0-51.5 4T260-168l27 109q10-3 19-5t19-2q30 0 41.5 19T378 14v638h148V18q0-41-9-77.5T487.5-123 433-166t-85-16z"/><glyph glyph-name="agrave" unicode="à" horiz-adv-x="527" d="M190-12q-34 0-61.5 11.5T82 31.5 52.5 79 42 138q0 78 66 122t213 59q-2 33-19.5 52.5T243 391q-32 0-63.5-12T112 346l-53 97q48 29 100.5 47T271 508q96 0 146.5-54.5T468 284V0H348l-10 51h-4q-32-28-67-45.5T190-12zm50 114q25 0 43 11t38 31v87q-78-11-108-32t-30-50q0-24 15.5-35.5T240 102zm25 470L84 729l99 97 154-182z"/><glyph glyph-name="aacute" unicode="á" horiz-adv-x="527" d="M190-12q-34 0-61.5 11.5T82 31.5 52.5 79 42 138q0 78 66 122t213 59q-2 33-19.5 52.5T243 391q-32 0-63.5-12T112 346l-53 97q48 29 100.5 47T271 508q96 0 146.5-54.5T468 284V0H348l-10 51h-4q-32-28-67-45.5T190-12zm50 114q25 0 43 11t38 31v87q-78-11-108-32t-30-50q0-24 15.5-35.5T240 102zm45 470l-72 72 154 182 99-97z"/><glyph glyph-name="acircumflex" unicode="â" horiz-adv-x="527" d="M190-12q-34 0-61.5 11.5T82 31.5 52.5 79 42 138q0 78 66 122t213 59q-2 33-19.5 52.5T243 391q-32 0-63.5-12T112 346l-53 97q48 29 100.5 47T271 508q96 0 146.5-54.5T468 284V0H348l-10 51h-4q-32-28-67-45.5T190-12zm50 114q25 0 43 11t38 31v87q-78-11-108-32t-30-50q0-24 15.5-35.5T240 102zM92 613l108 131h150l108-131-56-52-125 92h-4l-125-92z"/><glyph glyph-name="atilde" unicode="ã" horiz-adv-x="527" d="M190-12q-34 0-61.5 11.5T82 31.5 52.5 79 42 138q0 78 66 122t213 59q-2 33-19.5 52.5T243 391q-32 0-63.5-12T112 346l-53 97q48 29 100.5 47T271 508q96 0 146.5-54.5T468 284V0H348l-10 51h-4q-32-28-67-45.5T190-12zm50 114q25 0 43 11t38 31v87q-78-11-108-32t-30-50q0-24 15.5-35.5T240 102zm101 471q-24 0-42.5 10t-34 22-28 22-24.5 10q-15 0-23.5-13T177 582l-92 5q2 78 34 115t90 37q24 0 42.5-10t34-22 28-22 24.5-10q29 0 35 55l92-5q-2-78-34-115t-90-37z"/><glyph glyph-name="adieresis" unicode="ä" horiz-adv-x="527" d="M190-12q-34 0-61.5 11.5T82 31.5 52.5 79 42 138q0 78 66 122t213 59q-2 33-19.5 52.5T243 391q-32 0-63.5-12T112 346l-53 97q48 29 100.5 47T271 508q96 0 146.5-54.5T468 284V0H348l-10 51h-4q-32-28-67-45.5T190-12zm50 114q25 0 43 11t38 31v87q-78-11-108-32t-30-50q0-24 15.5-35.5T240 102zm-74 467q-32 0-52 20.5T94 641q0 30 20 50.5t52 20.5 51.5-20.5T237 641q0-31-19.5-51.5T166 569zm218 0q-32 0-51.5 20.5T313 641q0 30 19.5 50.5T384 712t52-20.5 20-50.5q0-31-20-51.5T384 569z"/><glyph glyph-name="amacron" unicode="ā" horiz-adv-x="527" d="M190-12q-34 0-61.5 11.5T82 31.5 52.5 79 42 138q0 78 66 122t213 59q-2 33-19.5 52.5T243 391q-32 0-63.5-12T112 346l-53 97q48 29 100.5 47T271 508q96 0 146.5-54.5T468 284V0H348l-10 51h-4q-32-28-67-45.5T190-12zm50 114q25 0 43 11t38 31v87q-78-11-108-32t-30-50q0-24 15.5-35.5T240 102zM127 592v93h296v-93H127z"/><glyph glyph-name="abreve" unicode="ă" horiz-adv-x="527" d="M190-12q-34 0-61.5 11.5T82 31.5 52.5 79 42 138q0 78 66 122t213 59q-2 33-19.5 52.5T243 391q-32 0-63.5-12T112 346l-53 97q48 29 100.5 47T271 508q96 0 146.5-54.5T468 284V0H348l-10 51h-4q-32-28-67-45.5T190-12zm50 114q25 0 43 11t38 31v87q-78-11-108-32t-30-50q0-24 15.5-35.5T240 102zm35 470q-43 0-74 12t-52 33.5-31.5 50T106 729l84 14q5-32 25-55.5t60-23.5 60 23.5 25 55.5l84-14q-1-33-11.5-61.5t-31-50-52-33.5-74.5-12z"/><glyph glyph-name="aring" unicode="å" horiz-adv-x="527" d="M190-12q-34 0-61.5 11.5T82 31.5 52.5 79 42 138q0 78 66 122t213 59q-2 33-19.5 52.5T243 391q-32 0-63.5-12T112 346l-53 97q48 29 100.5 47T271 508q96 0 146.5-54.5T468 284V0H348l-10 51h-4q-32-28-67-45.5T190-12zm50 114q25 0 43 11t38 31v87q-78-11-108-32t-30-50q0-24 15.5-35.5T240 102zm35 462q-66 0-99 30t-33 74 33 74 99 30 99-30 33-74-33-74-99-30zm0 55q18 0 30.5 13.5T318 668t-12.5 35.5T275 717t-30.5-13.5T232 668t12.5-35.5T275 619z"/><glyph glyph-name="uni01CE" unicode="ǎ" horiz-adv-x="527" d="M190-12q-34 0-61.5 11.5T82 31.5 52.5 79 42 138q0 78 66 122t213 59q-2 33-19.5 52.5T243 391q-32 0-63.5-12T112 346l-53 97q48 29 100.5 47T271 508q96 0 146.5-54.5T468 284V0H348l-10 51h-4q-32-28-67-45.5T190-12zm50 114q25 0 43 11t38 31v87q-78-11-108-32t-30-50q0-24 15.5-35.5T240 102zm-40 475L92 708l56 52 125-92h4l125 92 56-52-108-131H200z"/><glyph glyph-name="uni1EA1" unicode="ạ" horiz-adv-x="527" d="M190-12q-34 0-61.5 11.5T82 31.5 52.5 79 42 138q0 78 66 122t213 59q-2 33-19.5 52.5T243 391q-32 0-63.5-12T112 346l-53 97q48 29 100.5 47T271 508q96 0 146.5-54.5T468 284V0H348l-10 51h-4q-32-28-67-45.5T190-12zm50 114q25 0 43 11t38 31v87q-78-11-108-32t-30-50q0-24 15.5-35.5T240 102zm18-327q-36 0-58.5 21.5T177-148t22.5 55.5T258-71t58.5-21.5T339-148t-22.5-55.5T258-225z"/><glyph glyph-name="uni1EA3" unicode="ả" horiz-adv-x="527" d="M190-12q-34 0-61.5 11.5T82 31.5 52.5 79 42 138q0 78 66 122t213 59q-2 33-19.5 52.5T243 391q-32 0-63.5-12T112 346l-53 97q48 29 100.5 47T271 508q96 0 146.5-54.5T468 284V0H348l-10 51h-4q-32-28-67-45.5T190-12zm50 114q25 0 43 11t38 31v87q-78-11-108-32t-30-50q0-24 15.5-35.5T240 102zm-8 466l-12 58q19 4 32 11.5t13 23.5q0 18-18 28.5T185 703l9 90q49-1 83-10.5t55-25 30.5-37.5 9.5-48-11.5-44.5-30.5-31-44.5-19.5-53.5-9z"/><glyph glyph-name="uni1EA5" unicode="ấ" horiz-adv-x="527" d="M190-12q-34 0-61.5 11.5T82 31.5 52.5 79 42 138q0 78 66 122t213 59q-2 33-19.5 52.5T243 391q-32 0-63.5-12T112 346l-53 97q48 29 100.5 47T271 508q96 0 146.5-54.5T468 284V0H348l-10 51h-4q-32-28-67-45.5T190-12zm50 114q25 0 43 11t38 31v87q-78-11-108-32t-30-50q0-24 15.5-35.5T240 102zm-69 464l-47 52 93 92h116l93-92-47-52-102 65h-4zm224 116l79 127 78-51-101-120z"/><glyph glyph-name="uni1EA7" unicode="ầ" horiz-adv-x="527" d="M190-12q-34 0-61.5 11.5T82 31.5 52.5 79 42 138q0 78 66 122t213 59q-2 33-19.5 52.5T243 391q-32 0-63.5-12T112 346l-53 97q48 29 100.5 47T271 508q96 0 146.5-54.5T468 284V0H348l-10 51h-4q-32-28-67-45.5T190-12zm50 114q25 0 43 11t38 31v87q-78-11-108-32t-30-50q0-24 15.5-35.5T240 102zm-69 464l-47 52 93 92h116l93-92-47-52-102 65h-4zm-16 116l-56-44L-6 757l78 52z"/><glyph glyph-name="uni1EA9" unicode="ẩ" horiz-adv-x="527" d="M190-12q-34 0-61.5 11.5T82 31.5 52.5 79 42 138q0 78 66 122t213 59q-2 33-19.5 52.5T243 391q-32 0-63.5-12T112 346l-53 97q48 29 100.5 47T271 508q96 0 146.5-54.5T468 284V0H348l-10 51h-4q-32-28-67-45.5T190-12zm50 114q25 0 43 11t38 31v87q-78-11-108-32t-30-50q0-24 15.5-35.5T240 102zm-69 464l-47 52 93 92h116l93-92-47-52-102 65h-4zm242 78l-10 50q14 4 22 9.5t8 19.5-13.5 22-51.5 11l14 62q82-3 114.5-24t32.5-56q0-24-9.5-40.5t-25-27.5-36.5-17-45-9z"/><glyph glyph-name="uni1EAB" unicode="ẫ" horiz-adv-x="527" d="M190-12q-34 0-61.5 11.5T82 31.5 52.5 79 42 138q0 78 66 122t213 59q-2 33-19.5 52.5T243 391q-32 0-63.5-12T112 346l-53 97q48 29 100.5 47T271 508q96 0 146.5-54.5T468 284V0H348l-10 51h-4q-32-28-67-45.5T190-12zm50 114q25 0 43 11t38 31v87q-78-11-108-32t-30-50q0-24 15.5-35.5T240 102zm-69 464l-47 52 93 84h116l93-84-47-52-102 56h-4zm-44 161q6 57 29 84t61 27q21 0 36-6.5t27.5-14.5 23-14.5T325 796q23 0 31 38l67-7q-6-57-29-84t-61-27q-21 0-36 6.5T269.5 737t-23 14.5T225 758q-23 0-31-38z"/><glyph glyph-name="uni1EAD" unicode="ậ" horiz-adv-x="527" d="M190-12q-34 0-61.5 11.5T82 31.5 52.5 79 42 138q0 78 66 122t213 59q-2 33-19.5 52.5T243 391q-32 0-63.5-12T112 346l-53 97q48 29 100.5 47T271 508q96 0 146.5-54.5T468 284V0H348l-10 51h-4q-32-28-67-45.5T190-12zm50 114q25 0 43 11t38 31v87q-78-11-108-32t-30-50q0-24 15.5-35.5T240 102zM92 613l108 131h150l108-131-56-52-125 92h-4l-125-92zm166-838q-36 0-58.5 21.5T177-148t22.5 55.5T258-71t58.5-21.5T339-148t-22.5-55.5T258-225z"/><glyph glyph-name="uni1EAF" unicode="ắ" horiz-adv-x="527" d="M190-12q-34 0-61.5 11.5T82 31.5 52.5 79 42 138q0 78 66 122t213 59q-2 33-19.5 52.5T243 391q-32 0-63.5-12T112 346l-53 97q48 29 100.5 47T271 508q96 0 146.5-54.5T468 284V0H348l-10 51h-4q-32-28-67-45.5T190-12zm50 114q25 0 43 11t38 31v87q-78-11-108-32t-30-50q0-24 15.5-35.5T240 102zm44 597l-64 44 93 141 87-65zm-9-127q-43 0-74 12t-52 33.5-31.5 50T106 729l75 14q6-36 28-62t66-26 66 26 28 62l75-14q-1-33-11.5-61.5t-31-50-52-33.5-74.5-12z"/><glyph glyph-name="uni1EB1" unicode="ằ" horiz-adv-x="527" d="M190-12q-34 0-61.5 11.5T82 31.5 52.5 79 42 138q0 78 66 122t213 59q-2 33-19.5 52.5T243 391q-32 0-63.5-12T112 346l-53 97q48 29 100.5 47T271 508q96 0 146.5-54.5T468 284V0H348l-10 51h-4q-32-28-67-45.5T190-12zm50 114q25 0 43 11t38 31v87q-78-11-108-32t-30-50q0-24 15.5-35.5T240 102zm26 597L150 819l87 65 93-141zm9-127q-43 0-74 12t-52 33.5-31.5 50T106 729l75 14q6-36 28-62t66-26 66 26 28 62l75-14q-1-33-11.5-61.5t-31-50-52-33.5-74.5-12z"/><glyph glyph-name="uni1EB3" unicode="ẳ" horiz-adv-x="527" d="M190-12q-34 0-61.5 11.5T82 31.5 52.5 79 42 138q0 78 66 122t213 59q-2 33-19.5 52.5T243 391q-32 0-63.5-12T112 346l-53 97q48 29 100.5 47T271 508q96 0 146.5-54.5T468 284V0H348l-10 51h-4q-32-28-67-45.5T190-12zm50 114q25 0 43 11t38 31v87q-78-11-108-32t-30-50q0-24 15.5-35.5T240 102zm0 595l-9 51q14 2 23 8t9 20-14.5 22-53.5 11l14 80q83-3 116.5-29t33.5-69q0-24-9.5-41T324 722.5 286 706t-46-9zm35-125q-43 0-74 12t-52 33.5-31.5 50T106 729l75 14q6-36 28-62t66-26 66 26 28 62l75-14q-1-33-11.5-61.5t-31-50-52-33.5-74.5-12z"/><glyph glyph-name="uni1EB5" unicode="ẵ" horiz-adv-x="527" d="M190-12q-34 0-61.5 11.5T82 31.5 52.5 79 42 138q0 78 66 122t213 59q-2 33-19.5 52.5T243 391q-32 0-63.5-12T112 346l-53 97q48 29 100.5 47T271 508q96 0 146.5-54.5T468 284V0H348l-10 51h-4q-32-28-67-45.5T190-12zm50 114q25 0 43 11t38 31v87q-78-11-108-32t-30-50q0-24 15.5-35.5T240 102zm35 470q-39 0-67 9t-46.5 25-28.5 36-12 43l72 12q5-20 23.5-36t58.5-16 58.5 16 23.5 36l72-12q-2-23-12-43t-28.5-36-46.5-25-67-9zM119 725q6 58 31 85t67 27q21 0 36-6.5t27.5-14.5 23-14.5T325 795q22 0 31 37l75-7q-6-57-31-84t-67-27q-21 0-36 6.5T269.5 735t-23 14.5T225 756q-23 0-31-38z"/><glyph glyph-name="uni1EB7" unicode="ặ" horiz-adv-x="527" d="M190-12q-34 0-61.5 11.5T82 31.5 52.5 79 42 138q0 78 66 122t213 59q-2 33-19.5 52.5T243 391q-32 0-63.5-12T112 346l-53 97q48 29 100.5 47T271 508q96 0 146.5-54.5T468 284V0H348l-10 51h-4q-32-28-67-45.5T190-12zm50 114q25 0 43 11t38 31v87q-78-11-108-32t-30-50q0-24 15.5-35.5T240 102zm35 470q-43 0-74 12t-52 33.5-31.5 50T106 729l84 14q5-32 25-55.5t60-23.5 60 23.5 25 55.5l84-14q-1-33-11.5-61.5t-31-50-52-33.5-74.5-12zm-17-797q-36 0-58.5 21.5T177-148t22.5 55.5T258-71t58.5-21.5T339-148t-22.5-55.5T258-225z"/><glyph glyph-name="aogonek" unicode="ą" horiz-adv-x="527" d="M387-210q-44 0-75 23t-31 68q0 22 7.5 40.5t18 33.5T329-19t21 17l-12 53h-4q-32-28-67-45.5T190-12q-34 0-61.5 11.5T82 31.5 52.5 79 42 137q0 79 66 123t213 59q-2 33-19.5 52.5T243 391q-32 0-63.5-12T112 346l-53 97q48 29 100.5 47T271 508q96 0 146.5-54.5T468 284V0q-48-14-67.5-38T381-85q0-20 12.5-29t28.5-9q10 0 19.5 3.5T458-111l31-66q-20-15-49-24t-53-9zM240 102q25 0 43 11t38 31v87q-78-11-108-32t-30-50q0-24 15.5-35.5T240 102z"/><glyph glyph-name="ae" unicode="æ" horiz-adv-x="786" d="M194-12q-34 0-61 11.5t-46 32T57.5 79 47 137q0 79 65 123.5T323 320q-2 32-18.5 51.5T246 391q-30 0-62-12t-68-33l-52 97q48 29 98.5 47T267 508q46 0 81-20t57-55q32 36 67 55.5t80 19.5q49 0 86-18.5t61.5-51 37-76.5 12.5-95q0-20-2-36.5t-4-25.5H457q8-52 41-77t78-25q28 0 53 10t52 26l50-95q-38-26-84.5-41T556-12q-56 0-97.5 21T385 65q-53-42-97-59.5T194-12zm50 114q26 0 49.5 11t43.5 31q-11 31-14 66l-1 21q-73-11-104-32t-31-50q0-24 15.5-35.5T244 102zm213 193h167q0 45-18 73t-59 28q-35 0-59.5-24.5T457 295z"/><glyph glyph-name="uni01FD" unicode="ǽ" horiz-adv-x="786" d="M194-12q-34 0-61 11.5t-46 32T57.5 79 47 137q0 79 65 123.5T323 320q-2 32-18.5 51.5T246 391q-30 0-62-12t-68-33l-52 97q48 29 98.5 47T267 508q46 0 81-20t57-55q32 36 67 55.5t80 19.5q49 0 86-18.5t61.5-51 37-76.5 12.5-95q0-20-2-36.5t-4-25.5H457q8-52 41-77t78-25q28 0 53 10t52 26l50-95q-38-26-84.5-41T556-12q-56 0-97.5 21T385 65q-53-42-97-59.5T194-12zm50 114q26 0 49.5 11t43.5 31q-11 31-14 66l-1 21q-73-11-104-32t-31-50q0-24 15.5-35.5T244 102zm213 193h167q0 45-18 73t-59 28q-35 0-59.5-24.5T457 295zm-36 277l-72 72 154 182 99-97z"/><glyph glyph-name="uni01E3" unicode="ǣ" horiz-adv-x="786" d="M194-12q-34 0-61 11.5t-46 32T57.5 79 47 137q0 79 65 123.5T323 320q-2 32-18.5 51.5T246 391q-30 0-62-12t-68-33l-52 97q48 29 98.5 47T267 508q46 0 81-20t57-55q32 36 67 55.5t80 19.5q49 0 86-18.5t61.5-51 37-76.5 12.5-95q0-20-2-36.5t-4-25.5H457q8-52 41-77t78-25q28 0 53 10t52 26l50-95q-38-26-84.5-41T556-12q-56 0-97.5 21T385 65q-53-42-97-59.5T194-12zm50 114q26 0 49.5 11t43.5 31q-11 31-14 66l-1 21q-73-11-104-32t-31-50q0-24 15.5-35.5T244 102zm213 193h167q0 45-18 73t-59 28q-35 0-59.5-24.5T457 295zM263 592v93h296v-93H263z"/><glyph glyph-name="uni0180" unicode="ƀ" horiz-adv-x="571" d="M325-12q-33 0-66.5 16.5T196 53h-4L180 0H65v556H-3v65l68 5v75h147v-74h169v-71H212v-75l-4-76q29 25 62.5 40t68.5 15q45 0 81-16.5t61.5-46.5 39-71.5T534 234q0-57-17.5-103t-47-77.5-67-48.5T325-12zm-34 120q38 0 65 31t27 93q0 51-20.5 79T297 339q-23 0-43.5-10.5T212 295V140q20-18 40-25t39-7z"/><glyph glyph-name="uni1E07" unicode="ḇ" horiz-adv-x="573" d="M325-12q-33 0-66.5 16.5T196 53h-4L180 0H65v701h147V529l-4-76q29 26 62.5 40.5T339 508q45 0 81-18t61.5-50.5 39-79T534 257q0-64-17.5-114t-47-84.5-67-52.5T325-12zm-34 120q38 0 65 34.5T383 254q0 134-86 134-44 0-85-45V140q20-18 40-25t39-7zM145-187v93h296v-93H145z"/><glyph glyph-name="ccedilla" unicode="ç" horiz-adv-x="467" d="M281-12q-52 0-96.5 17.5T107 56t-52 81.5T36 248t21 110.5 56.5 81.5 82.5 50.5 98 17.5q46 0 81.5-15t63.5-38l-69-95q-35 29-67 29-54 0-85-38t-31-103 31.5-103 79.5-38q24 0 46.5 10.5T387 143l58-96q-37-32-80-45.5T281-12zM180-239l-11 59q59 3 81 13t22 31q0 15-15.5 25.5T195-94l48 98h86l-28-65q38-9 57-26t19-49q0-51-51.5-75.5T180-239z"/><glyph glyph-name="cacute" unicode="ć" horiz-adv-x="467" d="M281-12q-52 0-96.5 17.5T107 56t-52 81.5T36 248t21 110.5 56.5 81.5 82.5 50.5 98 17.5q46 0 81.5-15t63.5-38l-69-95q-35 29-67 29-54 0-85-38t-31-103 31.5-103 79.5-38q24 0 46.5 10.5T387 143l58-96q-37-32-80-45.5T281-12zm19 584l-72 72 154 182 99-97z"/><glyph glyph-name="ccircumflex" unicode="ĉ" horiz-adv-x="467" d="M281-12q-52 0-96.5 17.5T107 56t-52 81.5T36 248t21 110.5 56.5 81.5 82.5 50.5 98 17.5q46 0 81.5-15t63.5-38l-69-95q-35 29-67 29-54 0-85-38t-31-103 31.5-103 79.5-38q24 0 46.5 10.5T387 143l58-96q-37-32-80-45.5T281-12zM107 613l108 131h150l108-131-56-52-125 92h-4l-125-92z"/><glyph glyph-name="ccaron" unicode="č" horiz-adv-x="467" d="M281-12q-52 0-96.5 17.5T107 56t-52 81.5T36 248t21 110.5 56.5 81.5 82.5 50.5 98 17.5q46 0 81.5-15t63.5-38l-69-95q-35 29-67 29-54 0-85-38t-31-103 31.5-103 79.5-38q24 0 46.5 10.5T387 143l58-96q-37-32-80-45.5T281-12zm-66 589L107 708l56 52 125-92h4l125 92 56-52-108-131H215z"/><glyph glyph-name="cdotaccent" unicode="ċ" horiz-adv-x="467" d="M281-12q-52 0-96.5 17.5T107 56t-52 81.5T36 248t21 110.5 56.5 81.5 82.5 50.5 98 17.5q46 0 81.5-15t63.5-38l-69-95q-35 29-67 29-54 0-85-38t-31-103 31.5-103 79.5-38q24 0 46.5 10.5T387 143l58-96q-37-32-80-45.5T281-12zm9 581q-36 0-58.5 21.5T209 646t22.5 55.5T290 723t58.5-21.5T371 646t-22.5-55.5T290 569z"/><glyph glyph-name="dcaron" unicode="ď" horiz-adv-x="614" d="M242-12q-46 0-83.5 18t-64 51.5-41 81.5T39 248t17.5 109 46 81.5 66 51.5 76.5 18q42 0 69-14t53-38l-6 76v169h147V0H388l-10 49h-4q-26-26-61-43.5T242-12zm38 120q24 0 43.5 10t37.5 35v203q-20 18-41 25t-41 7q-35 0-62-33.5T190 250q0-74 23.5-108t66.5-34zm272 440l-6 222h95l-2-69-24-153h-63z"/><glyph glyph-name="uni1E0D" unicode="ḍ" horiz-adv-x="573" d="M242-12q-46 0-83.5 18t-64 51.5-41 81.5T39 248t17.5 109 46 81.5 66 51.5 76.5 18q42 0 69-14t53-38l-6 76v169h147V0H388l-10 49h-4q-26-26-61-43.5T242-12zm38 120q24 0 43.5 10t37.5 35v203q-20 18-41 25t-41 7q-35 0-62-33.5T190 250q0-74 23.5-108t66.5-34zm32-333q-36 0-58.5 21.5T231-148t22.5 55.5T312-71t58.5-21.5T393-148t-22.5-55.5T312-225z"/><glyph glyph-name="uni1E0F" unicode="ḏ" horiz-adv-x="573" d="M242-12q-46 0-83.5 18t-64 51.5-41 81.5T39 248t17.5 109 46 81.5 66 51.5 76.5 18q42 0 69-14t53-38l-6 76v169h147V0H388l-10 49h-4q-26-26-61-43.5T242-12zm38 120q24 0 43.5 10t37.5 35v203q-20 18-41 25t-41 7q-35 0-62-33.5T190 250q0-74 23.5-108t66.5-34zM163-187v93h296v-93H163z"/><glyph glyph-name="dcroat" unicode="đ" horiz-adv-x="573" d="M242-12q-46 0-83.5 17t-64 48-41 74.5T39 225q0 53 17.5 96.5t46 74 66 47.5 76.5 17q42 0 69-14.5t53-37.5l-6 75v73H212v71h149v74h147v-74h68v-65l-68-5V0H385l-9 44h-4q-26-25-59-40.5T242-12zm38 120q24 0 43.5 10t37.5 35v155q-20 17-41 24t-41 7q-35 0-62-28.5T190 227q0-59 23.5-89t66.5-30z"/><glyph glyph-name="egrave" unicode="è" horiz-adv-x="518" d="M287-12q-53 0-99 17.5t-80 51T55 138 36 248q0 60 20 108.5t52.5 82T183 490t87 18q53 0 92.5-18t66-50 39.5-75.5 13-94.5q0-20-2-38t-4-27H178q10-54 44.5-79.5T307 100q53 0 107 33l49-89q-38-26-84.5-41T287-12zM177 302h179q0 42-19 68t-64 26q-35 0-61.5-23T177 302zm83 270L79 729l99 97 154-182z"/><glyph glyph-name="eacute" unicode="é" horiz-adv-x="518" d="M287-12q-53 0-99 17.5t-80 51T55 138 36 248q0 60 20 108.5t52.5 82T183 490t87 18q53 0 92.5-18t66-50 39.5-75.5 13-94.5q0-20-2-38t-4-27H178q10-54 44.5-79.5T307 100q53 0 107 33l49-89q-38-26-84.5-41T287-12zM177 302h179q0 42-19 68t-64 26q-35 0-61.5-23T177 302zm103 270l-72 72 154 182 99-97z"/><glyph glyph-name="ecircumflex" unicode="ê" horiz-adv-x="518" d="M287-12q-53 0-99 17.5t-80 51T55 138 36 248q0 60 20 108.5t52.5 82T183 490t87 18q53 0 92.5-18t66-50 39.5-75.5 13-94.5q0-20-2-38t-4-27H178q10-54 44.5-79.5T307 100q53 0 107 33l49-89q-38-26-84.5-41T287-12zM177 302h179q0 42-19 68t-64 26q-35 0-61.5-23T177 302zM87 613l108 131h150l108-131-56-52-125 92h-4l-125-92z"/><glyph glyph-name="ecaron" unicode="ě" horiz-adv-x="518" d="M287-12q-53 0-99 17.5t-80 51T55 138 36 248q0 60 20 108.5t52.5 82T183 490t87 18q53 0 92.5-18t66-50 39.5-75.5 13-94.5q0-20-2-38t-4-27H178q10-54 44.5-79.5T307 100q53 0 107 33l49-89q-38-26-84.5-41T287-12zM177 302h179q0 42-19 68t-64 26q-35 0-61.5-23T177 302zm18 275L87 708l56 52 125-92h4l125 92 56-52-108-131H195z"/><glyph glyph-name="edieresis" unicode="ë" horiz-adv-x="518" d="M287-12q-53 0-99 17.5t-80 51T55 138 36 248q0 60 20 108.5t52.5 82T183 490t87 18q53 0 92.5-18t66-50 39.5-75.5 13-94.5q0-20-2-38t-4-27H178q10-54 44.5-79.5T307 100q53 0 107 33l49-89q-38-26-84.5-41T287-12zM177 302h179q0 42-19 68t-64 26q-35 0-61.5-23T177 302zm-16 267q-32 0-52 20.5T89 641q0 30 20 50.5t52 20.5 51.5-20.5T232 641q0-31-19.5-51.5T161 569zm218 0q-32 0-51.5 20.5T308 641q0 30 19.5 50.5T379 712t52-20.5 20-50.5q0-31-20-51.5T379 569z"/><glyph glyph-name="emacron" unicode="ē" horiz-adv-x="518" d="M287-12q-53 0-99 17.5t-80 51T55 138 36 248q0 60 20 108.5t52.5 82T183 490t87 18q53 0 92.5-18t66-50 39.5-75.5 13-94.5q0-20-2-38t-4-27H178q10-54 44.5-79.5T307 100q53 0 107 33l49-89q-38-26-84.5-41T287-12zM177 302h179q0 42-19 68t-64 26q-35 0-61.5-23T177 302zm-55 290v93h296v-93H122z"/><glyph glyph-name="ebreve" unicode="ĕ" horiz-adv-x="518" d="M287-12q-53 0-99 17.5t-80 51T55 138 36 248q0 60 20 108.5t52.5 82T183 490t87 18q53 0 92.5-18t66-50 39.5-75.5 13-94.5q0-20-2-38t-4-27H178q10-54 44.5-79.5T307 100q53 0 107 33l49-89q-38-26-84.5-41T287-12zM177 302h179q0 42-19 68t-64 26q-35 0-61.5-23T177 302zm93 270q-43 0-74 12t-52 33.5-31.5 50T101 729l84 14q5-32 25-55.5t60-23.5 60 23.5 25 55.5l84-14q-1-33-11.5-61.5t-31-50-52-33.5-74.5-12z"/><glyph glyph-name="edotaccent" unicode="ė" horiz-adv-x="518" d="M287-12q-53 0-99 17.5t-80 51T55 138 36 248q0 60 20 108.5t52.5 82T183 490t87 18q53 0 92.5-18t66-50 39.5-75.5 13-94.5q0-20-2-38t-4-27H178q10-54 44.5-79.5T307 100q53 0 107 33l49-89q-38-26-84.5-41T287-12zM177 302h179q0 42-19 68t-64 26q-35 0-61.5-23T177 302zm93 267q-36 0-58.5 21.5T189 646t22.5 55.5T270 723t58.5-21.5T351 646t-22.5-55.5T270 569z"/><glyph glyph-name="uni1EB9" unicode="ẹ" horiz-adv-x="518" d="M287-12q-53 0-99 17.5t-80 51T55 138 36 248q0 60 20 108.5t52.5 82T183 490t87 18q53 0 92.5-18t66-50 39.5-75.5 13-94.5q0-20-2-38t-4-27H178q10-54 44.5-79.5T307 100q53 0 107 33l49-89q-38-26-84.5-41T287-12zM177 302h179q0 42-19 68t-64 26q-35 0-61.5-23T177 302zm93-527q-36 0-58.5 21.5T189-148t22.5 55.5T270-71t58.5-21.5T351-148t-22.5-55.5T270-225z"/><glyph glyph-name="uni1EBB" unicode="ẻ" horiz-adv-x="518" d="M287-12q-53 0-99 17.5t-80 51T55 138 36 248q0 60 20 108.5t52.5 82T183 490t87 18q53 0 92.5-18t66-50 39.5-75.5 13-94.5q0-20-2-38t-4-27H178q10-54 44.5-79.5T307 100q53 0 107 33l49-89q-38-26-84.5-41T287-12zM177 302h179q0 42-19 68t-64 26q-35 0-61.5-23T177 302zm50 266l-12 58q19 4 32 11.5t13 23.5q0 18-18 28.5T180 703l9 90q49-1 83-10.5t55-25 30.5-37.5 9.5-48-11.5-44.5-30.5-31-44.5-19.5-53.5-9z"/><glyph glyph-name="uni1EBD" unicode="ẽ" horiz-adv-x="518" d="M287-12q-53 0-99 17.5t-80 51T55 138 36 248q0 60 20 108.5t52.5 82T183 490t87 18q53 0 92.5-18t66-50 39.5-75.5 13-94.5q0-20-2-38t-4-27H178q10-54 44.5-79.5T307 100q53 0 107 33l49-89q-38-26-84.5-41T287-12zM177 302h179q0 42-19 68t-64 26q-35 0-61.5-23T177 302zm159 271q-24 0-42.5 10t-34 22-28 22-24.5 10q-15 0-23.5-13T172 582l-92 5q2 78 34 115t90 37q24 0 42.5-10t34-22 28-22 24.5-10q29 0 35 55l92-5q-2-78-34-115t-90-37z"/><glyph glyph-name="uni1EBF" unicode="ế" horiz-adv-x="518" d="M287-12q-53 0-99 17.5t-80 51T55 138 36 248q0 60 20 108.5t52.5 82T183 490t87 18q53 0 92.5-18t66-50 39.5-75.5 13-94.5q0-20-2-38t-4-27H178q10-54 44.5-79.5T307 100q53 0 107 33l49-89q-38-26-84.5-41T287-12zM177 302h179q0 42-19 68t-64 26q-35 0-61.5-23T177 302zm-11 264l-47 52 93 92h116l93-92-47-52-102 65h-4zm224 116l79 127 78-51-101-120z"/><glyph glyph-name="uni1EC1" unicode="ề" horiz-adv-x="518" d="M287-12q-53 0-99 17.5t-80 51T55 138 36 248q0 60 20 108.5t52.5 82T183 490t87 18q53 0 92.5-18t66-50 39.5-75.5 13-94.5q0-20-2-38t-4-27H178q10-54 44.5-79.5T307 100q53 0 107 33l49-89q-38-26-84.5-41T287-12zM177 302h179q0 42-19 68t-64 26q-35 0-61.5-23T177 302zm-11 264l-47 52 93 92h116l93-92-47-52-102 65h-4zm-16 116l-56-44-105 119 78 52z"/><glyph glyph-name="uni1EC3" unicode="ể" horiz-adv-x="518" d="M287-12q-53 0-99 17.5t-80 51T55 138 36 248q0 60 20 108.5t52.5 82T183 490t87 18q53 0 92.5-18t66-50 39.5-75.5 13-94.5q0-20-2-38t-4-27H178q10-54 44.5-79.5T307 100q53 0 107 33l49-89q-38-26-84.5-41T287-12zM177 302h179q0 42-19 68t-64 26q-35 0-61.5-23T177 302zm-11 264l-47 52 93 92h116l93-92-47-52-102 65h-4zm242 78l-10 50q14 4 22 9.5t8 19.5-13.5 22-51.5 11l14 62q82-3 114.5-24t32.5-56q0-24-9.5-40.5t-25-27.5-36.5-17-45-9z"/><glyph glyph-name="uni1EC5" unicode="ễ" horiz-adv-x="518" d="M287-12q-53 0-99 17.5t-80 51T55 138 36 248q0 60 20 108.5t52.5 82T183 490t87 18q53 0 92.5-18t66-50 39.5-75.5 13-94.5q0-20-2-38t-4-27H178q10-54 44.5-79.5T307 100q53 0 107 33l49-89q-38-26-84.5-41T287-12zM177 302h179q0 42-19 68t-64 26q-35 0-61.5-23T177 302zm-11 264l-47 52 93 84h116l93-84-47-52-102 56h-4zm-44 161q6 57 29 84t61 27q21 0 36-6.5t27.5-14.5 23-14.5T320 796q23 0 31 38l67-7q-6-57-29-84t-61-27q-21 0-36 6.5T264.5 737t-23 14.5T220 758q-23 0-31-38z"/><glyph glyph-name="uni1EC7" unicode="ệ" horiz-adv-x="518" d="M287-12q-53 0-99 17.5t-80 51T55 138 36 248q0 60 20 108.5t52.5 82T183 490t87 18q53 0 92.5-18t66-50 39.5-75.5 13-94.5q0-20-2-38t-4-27H178q10-54 44.5-79.5T307 100q53 0 107 33l49-89q-38-26-84.5-41T287-12zM177 302h179q0 42-19 68t-64 26q-35 0-61.5-23T177 302zM87 613l108 131h150l108-131-56-52-125 92h-4l-125-92zm182-838q-36 0-58.5 21.5T188-148t22.5 55.5T269-71t58.5-21.5T350-148t-22.5-55.5T269-225z"/><glyph glyph-name="eogonek" unicode="ę" horiz-adv-x="518" d="M362-210q-45 0-74.5 23T258-119q0 37 18.5 65T314-9q-9-2-15.5-2.5T287-12q-53 0-99 17.5t-80 51T55 138 36 248q0 60 20 108.5t52.5 82T183 490t87 18q53 0 92.5-18t66-50 39.5-75.5 13-94.5q0-20-2-38t-4-27H178q10-54 44.5-79.5T307 100q53 0 107 33l49-89q-33-23-54-40.5T376-29t-16.5-28-4.5-28q0-20 12.5-29t30.5-9q10 0 18.5 3.5T433-111l30-66q-19-15-48-24t-53-9zM177 302h179q0 42-19 68t-64 26q-35 0-61.5-23T177 302z"/><glyph glyph-name="uni1E17" unicode="ḗ" horiz-adv-x="518" d="M287-12q-53 0-99 17.5t-80 51T55 138 36 248q0 60 20 108.5t52.5 82T183 490t87 18q53 0 92.5-18t66-50 39.5-75.5 13-94.5q0-20-2-38t-4-27H178q10-54 44.5-79.5T307 100q53 0 107 33l49-89q-38-26-84.5-41T287-12zM177 302h179q0 42-19 68t-64 26q-35 0-61.5-23T177 302zm65 411l-49 60 144 105 60-74zM122 592v93h296v-93H122z"/><glyph glyph-name="uni01F5" unicode="ǵ" horiz-adv-x="534" d="M242-211q-44 0-81.5 7.5t-66 22.5T50-142 34-85q0 60 71 100v4Q85 32 72 52t-13 51q0 27 16 51.5t40 41.5v4q-26 18-46.5 51.5T48 329q0 45 17 78.5t45.5 56T176 497t77 11q44 0 77-12h181V389h-79q7-11 11.5-28t4.5-37q0-43-15-74.5t-41.5-52-62-30.5-76.5-10q-29 0-60 10-10-8-14-16t-4-21q0-19 16.5-28t58.5-9h80q92 0 140.5-29.5T519-33q0-39-19.5-71.5t-55.5-56-87-37T242-211zm11 457q29 0 48.5 20.5T321 329q0 39-19.5 59.5T253 409t-48.5-20-19.5-60q0-42 19.5-62.5T253 246zm12-365q50 0 82 17.5T379-58q0 23-19.5 31T303-19h-51q-26 0-42 1.5T182-13q-27-24-27-49 0-28 30-42.5t80-14.5zm24 691l-72 72 154 182 99-97z"/><glyph glyph-name="gcircumflex" unicode="ĝ" horiz-adv-x="534" d="M242-211q-44 0-81.5 7.5t-66 22.5T50-142 34-85q0 60 71 100v4Q85 32 72 52t-13 51q0 27 16 51.5t40 41.5v4q-26 18-46.5 51.5T48 329q0 45 17 78.5t45.5 56T176 497t77 11q44 0 77-12h181V389h-79q7-11 11.5-28t4.5-37q0-43-15-74.5t-41.5-52-62-30.5-76.5-10q-29 0-60 10-10-8-14-16t-4-21q0-19 16.5-28t58.5-9h80q92 0 140.5-29.5T519-33q0-39-19.5-71.5t-55.5-56-87-37T242-211zm11 457q29 0 48.5 20.5T321 329q0 39-19.5 59.5T253 409t-48.5-20-19.5-60q0-42 19.5-62.5T253 246zm12-365q50 0 82 17.5T379-58q0 23-19.5 31T303-19h-51q-26 0-42 1.5T182-13q-27-24-27-49 0-28 30-42.5t80-14.5zM96 613l108 131h150l108-131-56-52-125 92h-4l-125-92z"/><glyph glyph-name="gbreve" unicode="ğ" horiz-adv-x="534" d="M242-211q-44 0-81.5 7.5t-66 22.5T50-142 34-85q0 60 71 100v4Q85 32 72 52t-13 51q0 27 16 51.5t40 41.5v4q-26 18-46.5 51.5T48 329q0 45 17 78.5t45.5 56T176 497t77 11q44 0 77-12h181V389h-79q7-11 11.5-28t4.5-37q0-43-15-74.5t-41.5-52-62-30.5-76.5-10q-29 0-60 10-10-8-14-16t-4-21q0-19 16.5-28t58.5-9h80q92 0 140.5-29.5T519-33q0-39-19.5-71.5t-55.5-56-87-37T242-211zm11 457q29 0 48.5 20.5T321 329q0 39-19.5 59.5T253 409t-48.5-20-19.5-60q0-42 19.5-62.5T253 246zm12-365q50 0 82 17.5T379-58q0 23-19.5 31T303-19h-51q-26 0-42 1.5T182-13q-27-24-27-49 0-28 30-42.5t80-14.5zm14 691q-43 0-74 12t-52 33.5-31.5 50T110 729l84 14q5-32 25-55.5t60-23.5 60 23.5 25 55.5l84-14q-1-33-11.5-61.5t-31-50-52-33.5-74.5-12z"/><glyph glyph-name="gdotaccent" unicode="ġ" horiz-adv-x="534" d="M242-211q-44 0-81.5 7.5t-66 22.5T50-142 34-85q0 60 71 100v4Q85 32 72 52t-13 51q0 27 16 51.5t40 41.5v4q-26 18-46.5 51.5T48 329q0 45 17 78.5t45.5 56T176 497t77 11q44 0 77-12h181V389h-79q7-11 11.5-28t4.5-37q0-43-15-74.5t-41.5-52-62-30.5-76.5-10q-29 0-60 10-10-8-14-16t-4-21q0-19 16.5-28t58.5-9h80q92 0 140.5-29.5T519-33q0-39-19.5-71.5t-55.5-56-87-37T242-211zm11 457q29 0 48.5 20.5T321 329q0 39-19.5 59.5T253 409t-48.5-20-19.5-60q0-42 19.5-62.5T253 246zm12-365q50 0 82 17.5T379-58q0 23-19.5 31T303-19h-51q-26 0-42 1.5T182-13q-27-24-27-49 0-28 30-42.5t80-14.5zm14 688q-36 0-58.5 21.5T198 646t22.5 55.5T279 723t58.5-21.5T360 646t-22.5-55.5T279 569z"/><glyph glyph-name="uni0123" unicode="ģ" horiz-adv-x="534" d="M242-211q-44 0-81.5 7.5t-66 22.5T50-142 34-85q0 60 71 100v4Q85 32 72 52t-13 51q0 27 16 51.5t40 41.5v4q-26 18-46.5 51.5T48 329q0 45 17 78.5t45.5 56T176 497t77 11q44 0 77-12h181V389h-79q7-11 11.5-28t4.5-37q0-43-15-74.5t-41.5-52-62-30.5-76.5-10q-29 0-60 10-10-8-14-16t-4-21q0-19 16.5-28t58.5-9h80q92 0 140.5-29.5T519-33q0-39-19.5-71.5t-55.5-56-87-37T242-211zm11 457q29 0 48.5 20.5T321 329q0 39-19.5 59.5T253 409t-48.5-20-19.5-60q0-42 19.5-62.5T253 246zm12-365q50 0 82 17.5T379-58q0 23-19.5 31T303-19h-51q-26 0-42 1.5T182-13q-27-24-27-49 0-28 30-42.5t80-14.5zm60 687q-80 7-110.5 27T184 652q0 51 51.5 75.5T381 755l11-59q-59-3-81-12t-22-27q0-14 15-23t49-12z"/><glyph glyph-name="gcaron" unicode="ǧ" horiz-adv-x="534" d="M242-211q-44 0-81.5 7.5t-66 22.5T50-142 34-85q0 60 71 100v4Q85 32 72 52t-13 51q0 27 16 51.5t40 41.5v4q-26 18-46.5 51.5T48 329q0 45 17 78.5t45.5 56T176 497t77 11q44 0 77-12h181V389h-79q7-11 11.5-28t4.5-37q0-43-15-74.5t-41.5-52-62-30.5-76.5-10q-29 0-60 10-10-8-14-16t-4-21q0-19 16.5-28t58.5-9h80q92 0 140.5-29.5T519-33q0-39-19.5-71.5t-55.5-56-87-37T242-211zm11 457q29 0 48.5 20.5T321 329q0 39-19.5 59.5T253 409t-48.5-20-19.5-60q0-42 19.5-62.5T253 246zm12-365q50 0 82 17.5T379-58q0 23-19.5 31T303-19h-51q-26 0-42 1.5T182-13q-27-24-27-49 0-28 30-42.5t80-14.5zm-61 696L96 708l56 52 125-92h4l125 92 56-52-108-131H204z"/><glyph glyph-name="uni1E21" unicode="ḡ" horiz-adv-x="534" d="M242-211q-44 0-81.5 7.5t-66 22.5T50-142 34-85q0 60 71 100v4Q85 32 72 52t-13 51q0 27 16 51.5t40 41.5v4q-26 18-46.5 51.5T48 329q0 45 17 78.5t45.5 56T176 497t77 11q44 0 77-12h181V389h-79q7-11 11.5-28t4.5-37q0-43-15-74.5t-41.5-52-62-30.5-76.5-10q-29 0-60 10-10-8-14-16t-4-21q0-19 16.5-28t58.5-9h80q92 0 140.5-29.5T519-33q0-39-19.5-71.5t-55.5-56-87-37T242-211zm11 457q29 0 48.5 20.5T321 329q0 39-19.5 59.5T253 409t-48.5-20-19.5-60q0-42 19.5-62.5T253 246zm12-365q50 0 82 17.5T379-58q0 23-19.5 31T303-19h-51q-26 0-42 1.5T182-13q-27-24-27-49 0-28 30-42.5t80-14.5zM131 592v93h296v-93H131z"/><glyph glyph-name="uni00670303" horiz-adv-x="534" d="M242-211q-44 0-81.5 7.5t-66 22.5T50-142 34-85q0 60 71 100v4Q85 32 72 52t-13 51q0 27 16 51.5t40 41.5v4q-26 18-46.5 51.5T48 329q0 45 17 78.5t45.5 56T176 497t77 11q44 0 77-12h181V389h-79q7-11 11.5-28t4.5-37q0-43-15-74.5t-41.5-52-62-30.5-76.5-10q-29 0-60 10-10-8-14-16t-4-21q0-19 16.5-28t58.5-9h80q92 0 140.5-29.5T519-33q0-39-19.5-71.5t-55.5-56-87-37T242-211zm11 457q29 0 48.5 20.5T321 329q0 39-19.5 59.5T253 409t-48.5-20-19.5-60q0-42 19.5-62.5T253 246zm12-365q50 0 82 17.5T379-58q0 23-19.5 31T303-19h-51q-26 0-42 1.5T182-13q-27-24-27-49 0-28 30-42.5t80-14.5zm80 692q-24 0-42.5 10t-34 22-28 22-24.5 10q-15 0-23.5-13T181 582l-92 5q2 78 34 115t90 37q24 0 42.5-10t34-22 28-22 24.5-10q29 0 35 55l92-5q-2-78-34-115t-90-37z"/><glyph glyph-name="hcircumflex" unicode="ĥ" horiz-adv-x="571" d="M65 0v701h147V529l-7-89q28 25 65 46.5t88 21.5q81 0 117.5-53T512 308V0H365v289q0 54-14.5 74T304 383q-28 0-48-12.5T212 335V0H65zm-99 772l90 111h160l90-111-64-39-104 84h-4L30 733z"/><glyph glyph-name="uni1E25" unicode="ḥ" horiz-adv-x="571" d="M65 0v701h147V529l-7-89q28 25 65 46.5t88 21.5q81 0 117.5-53T512 308V0H365v289q0 54-14.5 74T304 383q-28 0-48-12.5T212 335V0H65zm227-225q-36 0-58.5 21.5T211-148t22.5 55.5T292-71t58.5-21.5T373-148t-22.5-55.5T292-225z"/><glyph glyph-name="uni1E96" unicode="ẖ" horiz-adv-x="571" d="M65 0v701h147V529l-7-89q28 25 65 46.5t88 21.5q81 0 117.5-53T512 308V0H365v289q0 54-14.5 74T304 383q-28 0-48-12.5T212 335V0H65zm79-187v93h296v-93H144z"/><glyph glyph-name="uni1E2B" unicode="ḫ" horiz-adv-x="571" d="M65 0v701h147V529l-7-89q28 25 65 46.5t88 21.5q81 0 117.5-53T512 308V0H365v289q0 54-14.5 74T304 383q-28 0-48-12.5T212 335V0H65zm227-232q-43 0-74 12t-52 33.5-31.5 50T123-75l84 14q5-32 25-55.5t60-23.5 60 23.5T377-61l84-14q-1-33-11.5-61.5t-31-50-52-33.5-74.5-12z"/><glyph glyph-name="hbar" unicode="ħ" horiz-adv-x="571" d="M65 0v556H-3v65l68 5v75h147v-74h169v-71H212v-75l-7-90q14 13 30 25t35 22 41 16 47 6q81 0 117.5-53T512 260V0H365v241q0 54-14.5 73.5T304 334q-28 0-48-12.5T212 286V0H65z"/><glyph glyph-name="igrave" unicode="ì" horiz-adv-x="276" d="M65 0v496h147V0H65zm63 572L-53 729l99 97 154-182z"/><glyph glyph-name="iacute" unicode="í" horiz-adv-x="276" d="M65 0v496h147V0H65zm83 572l-72 72 154 182 99-97z"/><glyph glyph-name="icircumflex" unicode="î" horiz-adv-x="276" d="M65 0v496h147V0H65zM-45 613L63 744h150l108-131-56-52-125 92h-4L11 561z"/><glyph glyph-name="itilde" unicode="ĩ" horiz-adv-x="276" d="M65 0v496h147V0H65zm139 573q-24 0-42.5 10t-34 22-28 22T75 637q-15 0-23.5-13T40 582l-92 5q2 78 34 115t90 37q24 0 42.5-10t34-22 28-22 24.5-10q29 0 35 55l92-5q-2-78-34-115t-90-37z"/><glyph glyph-name="idieresis" unicode="ï" horiz-adv-x="276" d="M65 0v496h147V0H65zM29 569q-32 0-52 20.5T-43 641q0 30 20 50.5T29 712t51.5-20.5T100 641q0-31-19.5-51.5T29 569zm218 0q-32 0-51.5 20.5T176 641q0 30 19.5 50.5T247 712t52-20.5 20-50.5q0-31-20-51.5T247 569z"/><glyph glyph-name="imacron" unicode="ī" horiz-adv-x="276" d="M65 0v496h147V0H65zm-75 592v93h296v-93H-10z"/><glyph glyph-name="uni01D0" unicode="ǐ" horiz-adv-x="276" d="M65 0v496h147V0H65zm-2 577L-45 708l56 52 125-92h4l125 92 56-52-108-131H63z"/><glyph glyph-name="uni1EC9" unicode="ỉ" horiz-adv-x="276" d="M65 0v496h147V0H65zm30 568l-12 58q19 4 32 11.5t13 23.5q0 18-18 28.5T48 703l9 90q49-1 83-10.5t55-25 30.5-37.5 9.5-48-11.5-44.5-30.5-31-44.5-19.5-53.5-9z"/><glyph glyph-name="uni1ECB" unicode="ị" horiz-adv-x="276" d="M65 0v496h147V0H65zm73 569q-37 0-61 21.5T53 646t24 55 61 21q38 0 61.5-21t23.5-55-23.5-55.5T138 569zm0-794q-36 0-58.5 21.5T57-148t22.5 55.5T138-71t58.5-21.5T219-148t-22.5-55.5T138-225z"/><glyph glyph-name="iogonek" unicode="į" horiz-adv-x="276" d="M147-210q-45 0-75.5 23T41-119q0 22 6.5 40.5T64-45t21.5 26T106 0H65v496h147V0q-40-15-56-38.5T140-85q0-20 13-29t30-9q9 0 17.5 3.5T218-111l30-66q-19-15-48.5-24t-52.5-9zm-9 779q-37 0-61 21.5T53 646t24 55 61 21 61-21 24-55-24-55.5-61-21.5z"/><glyph glyph-name="iogonek.d" horiz-adv-x="276" d="M147-210q-45 0-75.5 23T41-119q0 22 6.5 40.5T64-45t21.5 26T106 0H65v496h147V0q-40-15-56-38.5T140-85q0-20 13-29t30-9q9 0 17.5 3.5T218-111l30-66q-19-15-48.5-24t-52.5-9z"/><glyph glyph-name="uni012D" unicode="ĭ" horiz-adv-x="276" d="M65 0v496h147V0H65zm73 572q-43 0-74 12t-52 33.5-31.5 50T-31 729l84 14q5-32 25-55.5t60-23.5 60 23.5 25 55.5l84-14q-1-33-11.5-61.5t-31-50-52-33.5-74.5-12z"/><glyph glyph-name="dotlessi" unicode="ı" horiz-adv-x="276" d="M65 0v496h147V0H65z"/><glyph glyph-name="jcircumflex" unicode="ĵ" horiz-adv-x="278" d="M36-196q-31 0-51.5 4T-51-182l26 108q10-3 19-5t20-2q29 0 40.5 19T66-1v497h147V3q0-41-8.5-77t-29-63-54.5-43-85-16zm-79 809L65 744h150l108-131-56-52-125 92h-4L13 561z"/><glyph glyph-name="uni0137" unicode="ķ" horiz-adv-x="548" d="M65 0v701h143V299h4l157 197h160L355 292 542 0H383L271 193l-63-71V0H65zm128-239l-11 59q59 3 81 12.5t22 26.5q0 14-15 23t-49 12l28 54q80-7 110.5-27t30.5-57q0-51-51.5-75.5T193-239z"/><glyph glyph-name="uni1E33" unicode="ḳ" horiz-adv-x="548" d="M65 0v701h143V299h4l157 197h160L355 292 542 0H383L271 193l-63-71V0H65zm230-225q-36 0-58.5 21.5T214-148t22.5 55.5T295-71t58.5-21.5T376-148t-22.5-55.5T295-225z"/><glyph glyph-name="uni1E35" unicode="ḵ" horiz-adv-x="548" d="M65 0v701h143V299h4l157 197h160L355 292 542 0H383L271 193l-63-71V0H65zm82-187v93h296v-93H147z"/><glyph glyph-name="kgreenlandic" unicode="ĸ" horiz-adv-x="548" d="M65 0v496h147V296h3l154 200h160L359 292 542 0H383L271 189l-59-72V0H65z"/><glyph glyph-name="lacute" unicode="ĺ" horiz-adv-x="286" d="M200-12q-38 0-64 12T94.5 33.5 72 85.5 65 154v547h147V148q0-23 8.5-32t17.5-9h8.5l9.5 2L274 0q-12-5-30.5-8.5T200-12zm-69 747l-66 74 171 140 78-95z"/><glyph glyph-name="lcaron" unicode="ľ" horiz-adv-x="319" d="M200-12q-38 0-64 12T94.5 33.5 72 85.5 65 154v547h147V148q0-23 8.5-32t17.5-9h8.5l9.5 2L274 0q-12-5-30.5-8.5T200-12zm55 560l-6 222h95l-2-69-24-153h-63z"/><glyph glyph-name="ldot" unicode="ŀ" horiz-adv-x="453" d="M200-12q-38 0-64 12T94.5 33.5 72 85.5 65 154v547h147V148q0-23 8.5-32t17.5-9h8.5l9.5 2L274 0q-12-5-30.5-8.5T200-12zm164 248q-38 0-63.5 26.5T275 328q0 40 25.5 66.5T364 421t63.5-26.5T453 328q0-39-25.5-65.5T364 236z"/><glyph glyph-name="uni013C" unicode="ļ" horiz-adv-x="286" d="M200-12q-38 0-64 12T94.5 33.5 72 85.5 65 154v547h147V148q0-23 8.5-32t17.5-9h8.5l9.5 2L274 0q-12-5-30.5-8.5T200-12zM85-239l-11 59q59 3 81 12.5t22 26.5q0 14-15 23t-49 12l28 54q80-7 110.5-27t30.5-57q0-51-51.5-75.5T85-239z"/><glyph glyph-name="uni1E37" unicode="ḷ" horiz-adv-x="286" d="M200-12q-38 0-64 12T94.5 33.5 72 85.5 65 154v547h147V148q0-23 8.5-32t17.5-9h8.5l9.5 2L274 0q-12-5-30.5-8.5T200-12zm-13-213q-36 0-58.5 21.5T106-148t22.5 55.5T187-71t58.5-21.5T268-148t-22.5-55.5T187-225z"/><glyph glyph-name="uni1E39" unicode="ḹ" horiz-adv-x="286" d="M200-12q-38 0-64 12T94.5 33.5 72 85.5 65 154v547h147V148q0-23 8.5-32t17.5-9h8.5l9.5 2L274 0q-12-5-30.5-8.5T200-12zM-11 804v93h296v-93H-11zM187-225q-36 0-58.5 21.5T106-148t22.5 55.5T187-71t58.5-21.5T268-148t-22.5-55.5T187-225z"/><glyph glyph-name="uni1E3B" unicode="ḻ" horiz-adv-x="286" d="M200-12q-38 0-64 12T94.5 33.5 72 85.5 65 154v547h147V148q0-23 8.5-32t17.5-9h8.5l9.5 2L274 0q-12-5-30.5-8.5T200-12zM39-187v93h296v-93H39z"/><glyph glyph-name="lslash" unicode="ł" horiz-adv-x="303" d="M210-12q-38 0-64 12t-41.5 33.5-22.5 52-7 68.5v122l-45-26-51 91 96 54v306h147V467l48 27 50-91-98-55V148q0-23 8.5-32t17.5-9h8.5l9.5 2L284 0q-12-5-30.5-8.5T210-12z"/><glyph glyph-name="uni1E3F" unicode="ḿ" horiz-adv-x="857" d="M65 0v496h120l10-64h4q31 31 66 53.5t84 22.5q53 0 85.5-21.5T486 425q33 34 69.5 58.5T642 508q80 0 117.5-53.5T797 308V0H650v289q0 54-14.5 74T589 383q-37 0-85-48V0H357v289q0 54-14.5 74T296 383q-38 0-84-48V0H65zm383 572l-72 72 154 182 99-97z"/><glyph glyph-name="uni1E41" unicode="ṁ" horiz-adv-x="857" d="M65 0v496h120l10-64h4q31 31 66 53.5t84 22.5q53 0 85.5-21.5T486 425q33 34 69.5 58.5T642 508q80 0 117.5-53.5T797 308V0H650v289q0 54-14.5 74T589 383q-37 0-85-48V0H357v289q0 54-14.5 74T296 383q-38 0-84-48V0H65zm373 569q-36 0-58.5 21.5T357 646t22.5 55.5T438 723t58.5-21.5T519 646t-22.5-55.5T438 569z"/><glyph glyph-name="uni1E43" unicode="ṃ" horiz-adv-x="857" d="M65 0v496h120l10-64h4q31 31 66 53.5t84 22.5q53 0 85.5-21.5T486 425q33 34 69.5 58.5T642 508q80 0 117.5-53.5T797 308V0H650v289q0 54-14.5 74T589 383q-37 0-85-48V0H357v289q0 54-14.5 74T296 383q-38 0-84-48V0H65zm374-225q-36 0-58.5 21.5T358-148t22.5 55.5T439-71t58.5-21.5T520-148t-22.5-55.5T439-225z"/><glyph glyph-name="nacute" unicode="ń" horiz-adv-x="572" d="M65 0v496h120l10-63h4q32 30 70 52.5t89 22.5q81 0 117.5-53T512 308V0H365v289q0 54-14.5 74T304 383q-28 0-48-12.5T212 335V0H65zm253 572l-72 72 154 182 99-97z"/><glyph glyph-name="uni01F9" unicode="ǹ" horiz-adv-x="572" d="M65 0v496h120l10-63h4q32 30 70 52.5t89 22.5q81 0 117.5-53T512 308V0H365v289q0 54-14.5 74T304 383q-28 0-48-12.5T212 335V0H65zm233 572L117 729l99 97 154-182z"/><glyph glyph-name="ncaron" unicode="ň" horiz-adv-x="572" d="M65 0v496h120l10-63h4q32 30 70 52.5t89 22.5q81 0 117.5-53T512 308V0H365v289q0 54-14.5 74T304 383q-28 0-48-12.5T212 335V0H65zm168 577L125 708l56 52 125-92h4l125 92 56-52-108-131H233z"/><glyph glyph-name="ntilde" unicode="ñ" horiz-adv-x="572" d="M65 0v496h120l10-63h4q32 30 70 52.5t89 22.5q81 0 117.5-53T512 308V0H365v289q0 54-14.5 74T304 383q-28 0-48-12.5T212 335V0H65zm309 573q-24 0-42.5 10t-34 22-28 22-24.5 10q-15 0-23.5-13T210 582l-92 5q2 78 34 115t90 37q24 0 42.5-10t34-22 28-22 24.5-10q29 0 35 55l92-5q-2-78-34-115t-90-37z"/><glyph glyph-name="uni0146" unicode="ņ" horiz-adv-x="572" d="M65 0v496h120l10-63h4q32 30 70 52.5t89 22.5q81 0 117.5-53T512 308V0H365v289q0 54-14.5 74T304 383q-28 0-48-12.5T212 335V0H65zm124-239l-11 59q59 3 81 12.5t22 26.5q0 14-15 23t-49 12l28 54q80-7 110.5-27t30.5-57q0-51-51.5-75.5T189-239z"/><glyph glyph-name="uni1E45" unicode="ṅ" horiz-adv-x="572" d="M65 0v496h120l10-63h4q32 30 70 52.5t89 22.5q81 0 117.5-53T512 308V0H365v289q0 54-14.5 74T304 383q-28 0-48-12.5T212 335V0H65zm243 569q-36 0-58.5 21.5T227 646t22.5 55.5T308 723t58.5-21.5T389 646t-22.5-55.5T308 569z"/><glyph glyph-name="uni1E47" unicode="ṇ" horiz-adv-x="572" d="M65 0v496h120l10-63h4q32 30 70 52.5t89 22.5q81 0 117.5-53T512 308V0H365v289q0 54-14.5 74T304 383q-28 0-48-12.5T212 335V0H65zm226-225q-36 0-58.5 21.5T210-148t22.5 55.5T291-71t58.5-21.5T372-148t-22.5-55.5T291-225z"/><glyph glyph-name="uni1E49" unicode="ṉ" horiz-adv-x="572" d="M65 0v496h120l10-63h4q32 30 70 52.5t89 22.5q81 0 117.5-53T512 308V0H365v289q0 54-14.5 74T304 383q-28 0-48-12.5T212 335V0H65zm78-187v93h296v-93H143z"/><glyph glyph-name="napostrophe" unicode="ŉ" horiz-adv-x="852" d="M343 0v496h120l10-63h4q32 30 70 52.5t89 22.5q81 0 117.5-53T790 308V0H643v289q0 54-14.5 74T582 383q-28 0-48-12.5T490 335V0H343zM103 352l-32 64q45 23 67.5 52.5T161 543q-3-1-9-1-32 0-54.5 19.5T75 615q0 38 21.5 60t55.5 22q46 0 70-34t24-97q0-71-35.5-125T103 352z"/><glyph glyph-name="ograve" unicode="ò" horiz-adv-x="555" d="M278-12q-47 0-91 17.5T109.5 56 56 137.5 36 248t20 110.5 53.5 81.5 77.5 50.5 91 17.5 90.5-17.5 77-50.5 53.5-81.5T519 248t-20-110.5T445.5 56t-77-50.5T278-12zm0 119q45 0 68 38t23 103-23 103-68 38q-46 0-68.5-38T187 248t22.5-103 68.5-38zm-11 465L86 729l99 97 154-182z"/><glyph glyph-name="oacute" unicode="ó" horiz-adv-x="555" d="M278-12q-47 0-91 17.5T109.5 56 56 137.5 36 248t20 110.5 53.5 81.5 77.5 50.5 91 17.5 90.5-17.5 77-50.5 53.5-81.5T519 248t-20-110.5T445.5 56t-77-50.5T278-12zm0 119q45 0 68 38t23 103-23 103-68 38q-46 0-68.5-38T187 248t22.5-103 68.5-38zm9 465l-72 72 154 182 99-97z"/><glyph glyph-name="ocircumflex" unicode="ô" horiz-adv-x="555" d="M278-12q-47 0-91 17.5T109.5 56 56 137.5 36 248t20 110.5 53.5 81.5 77.5 50.5 91 17.5 90.5-17.5 77-50.5 53.5-81.5T519 248t-20-110.5T445.5 56t-77-50.5T278-12zm0 119q45 0 68 38t23 103-23 103-68 38q-46 0-68.5-38T187 248t22.5-103 68.5-38zM94 613l108 131h150l108-131-56-52-125 92h-4l-125-92z"/><glyph glyph-name="otilde" unicode="õ" horiz-adv-x="555" d="M278-12q-47 0-91 17.5T109.5 56 56 137.5 36 248t20 110.5 53.5 81.5 77.5 50.5 91 17.5 90.5-17.5 77-50.5 53.5-81.5T519 248t-20-110.5T445.5 56t-77-50.5T278-12zm0 119q45 0 68 38t23 103-23 103-68 38q-46 0-68.5-38T187 248t22.5-103 68.5-38zm65 466q-24 0-42.5 10t-34 22-28 22-24.5 10q-15 0-23.5-13T179 582l-92 5q2 78 34 115t90 37q24 0 42.5-10t34-22 28-22 24.5-10q29 0 35 55l92-5q-2-78-34-115t-90-37z"/><glyph glyph-name="odieresis" unicode="ö" horiz-adv-x="555" d="M278-12q-47 0-91 17.5T109.5 56 56 137.5 36 248t20 110.5 53.5 81.5 77.5 50.5 91 17.5 90.5-17.5 77-50.5 53.5-81.5T519 248t-20-110.5T445.5 56t-77-50.5T278-12zm0 119q45 0 68 38t23 103-23 103-68 38q-46 0-68.5-38T187 248t22.5-103 68.5-38zM168 569q-32 0-52 20.5T96 641q0 30 20 50.5t52 20.5 51.5-20.5T239 641q0-31-19.5-51.5T168 569zm218 0q-32 0-51.5 20.5T315 641q0 30 19.5 50.5T386 712t52-20.5 20-50.5q0-31-20-51.5T386 569z"/><glyph glyph-name="omacron" unicode="ō" horiz-adv-x="555" d="M278-12q-47 0-91 17.5T109.5 56 56 137.5 36 248t20 110.5 53.5 81.5 77.5 50.5 91 17.5 90.5-17.5 77-50.5 53.5-81.5T519 248t-20-110.5T445.5 56t-77-50.5T278-12zm0 119q45 0 68 38t23 103-23 103-68 38q-46 0-68.5-38T187 248t22.5-103 68.5-38zM129 592v93h296v-93H129z"/><glyph glyph-name="ohungarumlaut" unicode="ő" horiz-adv-x="555" d="M278-12q-47 0-91 17.5T109.5 56 56 137.5 36 248t20 110.5 53.5 81.5 77.5 50.5 91 17.5 90.5-17.5 77-50.5 53.5-81.5T519 248t-20-110.5T445.5 56t-77-50.5T278-12zm0 119q45 0 68 38t23 103-23 103-68 38q-46 0-68.5-38T187 248t22.5-103 68.5-38zm-53 458l-77 35 87 181 99-44zm179 0l-77 35 87 181 99-44z"/><glyph glyph-name="uni01D2" unicode="ǒ" horiz-adv-x="555" d="M278-12q-47 0-91 17.5T109.5 56 56 137.5 36 248t20 110.5 53.5 81.5 77.5 50.5 91 17.5 90.5-17.5 77-50.5 53.5-81.5T519 248t-20-110.5T445.5 56t-77-50.5T278-12zm0 119q45 0 68 38t23 103-23 103-68 38q-46 0-68.5-38T187 248t22.5-103 68.5-38zm-76 470L94 708l56 52 125-92h4l125 92 56-52-108-131H202z"/><glyph glyph-name="uni1ECD" unicode="ọ" horiz-adv-x="555" d="M278-12q-47 0-91 17.5T109.5 56 56 137.5 36 248t20 110.5 53.5 81.5 77.5 50.5 91 17.5 90.5-17.5 77-50.5 53.5-81.5T519 248t-20-110.5T445.5 56t-77-50.5T278-12zm0 119q45 0 68 38t23 103-23 103-68 38q-46 0-68.5-38T187 248t22.5-103 68.5-38zm-1-332q-36 0-58.5 21.5T196-148t22.5 55.5T277-71t58.5-21.5T358-148t-22.5-55.5T277-225z"/><glyph glyph-name="uni1ECF" unicode="ỏ" horiz-adv-x="555" d="M278-12q-47 0-91 17.5T109.5 56 56 137.5 36 248t20 110.5 53.5 81.5 77.5 50.5 91 17.5 90.5-17.5 77-50.5 53.5-81.5T519 248t-20-110.5T445.5 56t-77-50.5T278-12zm0 119q45 0 68 38t23 103-23 103-68 38q-46 0-68.5-38T187 248t22.5-103 68.5-38zm-44 461l-12 58q19 4 32 11.5t13 23.5q0 18-18 28.5T187 703l9 90q49-1 83-10.5t55-25 30.5-37.5 9.5-48-11.5-44.5-30.5-31-44.5-19.5-53.5-9z"/><glyph glyph-name="uni1ED1" unicode="ố" horiz-adv-x="555" d="M278-12q-47 0-91 17.5T109.5 56 56 137.5 36 248t20 110.5 53.5 81.5 77.5 50.5 91 17.5 90.5-17.5 77-50.5 53.5-81.5T519 248t-20-110.5T445.5 56t-77-50.5T278-12zm0 119q45 0 68 38t23 103-23 103-68 38q-46 0-68.5-38T187 248t22.5-103 68.5-38zM173 566l-47 52 93 92h116l93-92-47-52-102 65h-4zm224 116l79 127 78-51-101-120z"/><glyph glyph-name="uni1ED3" unicode="ồ" horiz-adv-x="555" d="M278-12q-47 0-91 17.5T109.5 56 56 137.5 36 248t20 110.5 53.5 81.5 77.5 50.5 91 17.5 90.5-17.5 77-50.5 53.5-81.5T519 248t-20-110.5T445.5 56t-77-50.5T278-12zm0 119q45 0 68 38t23 103-23 103-68 38q-46 0-68.5-38T187 248t22.5-103 68.5-38zM173 566l-47 52 93 92h116l93-92-47-52-102 65h-4zm-16 116l-56-44L-4 757l78 52z"/><glyph glyph-name="uni1ED5" unicode="ổ" horiz-adv-x="555" d="M278-12q-47 0-91 17.5T109.5 56 56 137.5 36 248t20 110.5 53.5 81.5 77.5 50.5 91 17.5 90.5-17.5 77-50.5 53.5-81.5T519 248t-20-110.5T445.5 56t-77-50.5T278-12zm0 119q45 0 68 38t23 103-23 103-68 38q-46 0-68.5-38T187 248t22.5-103 68.5-38zM173 566l-47 52 93 92h116l93-92-47-52-102 65h-4zm242 78l-10 50q14 4 22 9.5t8 19.5-13.5 22-51.5 11l14 62q82-3 114.5-24t32.5-56q0-24-9.5-40.5t-25-27.5-36.5-17-45-9z"/><glyph glyph-name="uni1ED7" unicode="ỗ" horiz-adv-x="555" d="M278-12q-47 0-91 17.5T109.5 56 56 137.5 36 248t20 110.5 53.5 81.5 77.5 50.5 91 17.5 90.5-17.5 77-50.5 53.5-81.5T519 248t-20-110.5T445.5 56t-77-50.5T278-12zm0 119q45 0 68 38t23 103-23 103-68 38q-46 0-68.5-38T187 248t22.5-103 68.5-38zM173 566l-47 52 93 84h116l93-84-47-52-102 56h-4zm-44 161q6 57 29 84t61 27q21 0 36-6.5t27.5-14.5 23-14.5T327 796q23 0 31 38l67-7q-6-57-29-84t-61-27q-21 0-36 6.5T271.5 737t-23 14.5T227 758q-23 0-31-38z"/><glyph glyph-name="uni1ED9" unicode="ộ" horiz-adv-x="555" d="M278-12q-47 0-91 17.5T109.5 56 56 137.5 36 248t20 110.5 53.5 81.5 77.5 50.5 91 17.5 90.5-17.5 77-50.5 53.5-81.5T519 248t-20-110.5T445.5 56t-77-50.5T278-12zm0 119q45 0 68 38t23 103-23 103-68 38q-46 0-68.5-38T187 248t22.5-103 68.5-38zM94 613l108 131h150l108-131-56-52-125 92h-4l-125-92zm183-838q-36 0-58.5 21.5T196-148t22.5 55.5T277-71t58.5-21.5T358-148t-22.5-55.5T277-225z"/><glyph glyph-name="uni014F" unicode="ŏ" horiz-adv-x="555" d="M278-12q-47 0-91 17.5T109.5 56 56 137.5 36 248t20 110.5 53.5 81.5 77.5 50.5 91 17.5 90.5-17.5 77-50.5 53.5-81.5T519 248t-20-110.5T445.5 56t-77-50.5T278-12zm0 119q45 0 68 38t23 103-23 103-68 38q-46 0-68.5-38T187 248t22.5-103 68.5-38zm-1 465q-43 0-74 12t-52 33.5-31.5 50T108 729l84 14q5-32 25-55.5t60-23.5 60 23.5 25 55.5l84-14q-1-33-11.5-61.5t-31-50-52-33.5-74.5-12z"/><glyph glyph-name="uni1E53" unicode="ṓ" horiz-adv-x="555" d="M278-12q-47 0-91 17.5T109.5 56 56 137.5 36 248t20 110.5 53.5 81.5 77.5 50.5 91 17.5 90.5-17.5 77-50.5 53.5-81.5T519 248t-20-110.5T445.5 56t-77-50.5T278-12zm0 119q45 0 68 38t23 103-23 103-68 38q-46 0-68.5-38T187 248t22.5-103 68.5-38zm-29 606l-49 60 144 105 60-74zM129 592v93h296v-93H129z"/><glyph glyph-name="oslash" unicode="ø" horiz-adv-x="555" d="M278-12q-74 0-134 40l-43-53-55 42 47 58q-26 32-41.5 75.5T36 248q0 62 20 110.5t53.5 81.5 77.5 50.5 91 17.5q35 0 69-10t63-29l44 54 55-43-47-58q26-33 41.5-76.5T519 248q0-62-20-110.5T445.5 56t-77-50.5T278-12zM178 256q0-40 7-67l149 186q-22 19-56 19-46 0-73-37.5T178 256zm100-154q45 0 72 37.5T377 240q0 41-7 68L220 122q23-20 58-20z"/><glyph glyph-name="oe" unicode="œ" horiz-adv-x="822" d="M267-12q-48 0-90 17.5T103.5 56 54 137.5 36 248t19 110.5 51 81.5 74.5 50.5T270 508q53 0 92.5-23t68.5-64q30 42 71 64.5t86 22.5q49 0 86-18.5t62-51 37.5-76.5 12.5-95q0-20-2-36.5t-4-25.5H493q8-52 41-77t78-25q28 0 53 10t52 26l51-95q-38-26-85-41t-91-15q-45 0-87 22.5T432 75q-31-43-70.5-65T267-12zm3 119q41 0 64 38t23 103-23 103-64 38-63-38-22-103 22-103 63-38zm223 188h167q0 45-18 73t-59 28q-35 0-59.5-24.5T493 295z"/><glyph glyph-name="ohorn" unicode="ơ" horiz-adv-x="555" d="M278-12q-47 0-91 17.5T109.5 56 56 137.5 36 248t20 110.5 53.5 81.5 77.5 50.5 91 17.5q50 0 96-20 30 8 49 28t19 62q0 17-4.5 31.5T426 635l109 47q11-15 20.5-40.5T565 588q0-30-9.5-54t-26-42.5-38-31.5-46.5-20q34-34 54-82t20-110-20-110.5T445.5 56t-77-50.5T278-12zm0 119q45 0 68 38t23 103-23 103-68 38q-46 0-68.5-38T187 248t22.5-103 68.5-38z"/><glyph glyph-name="uni1EDB" unicode="ớ" horiz-adv-x="555" d="M278-12q-47 0-91 17.5T109.5 56 56 137.5 36 248t20 110.5 53.5 81.5 77.5 50.5 91 17.5q50 0 96-20 30 8 49 28t19 62q0 17-4.5 31.5T426 635l109 47q11-15 20.5-40.5T565 588q0-30-9.5-54t-26-42.5-38-31.5-46.5-20q34-34 54-82t20-110-20-110.5T445.5 56t-77-50.5T278-12zm0 119q45 0 68 38t23 103-23 103-68 38q-46 0-68.5-38T187 248t22.5-103 68.5-38zm9 465l-72 72 154 182 99-97z"/><glyph glyph-name="uni1EDD" unicode="ờ" horiz-adv-x="555" d="M278-12q-47 0-91 17.5T109.5 56 56 137.5 36 248t20 110.5 53.5 81.5 77.5 50.5 91 17.5q50 0 96-20 30 8 49 28t19 62q0 17-4.5 31.5T426 635l109 47q11-15 20.5-40.5T565 588q0-30-9.5-54t-26-42.5-38-31.5-46.5-20q34-34 54-82t20-110-20-110.5T445.5 56t-77-50.5T278-12zm0 119q45 0 68 38t23 103-23 103-68 38q-46 0-68.5-38T187 248t22.5-103 68.5-38zm-11 465L86 729l99 97 154-182z"/><glyph glyph-name="uni1EDF" unicode="ở" horiz-adv-x="555" d="M278-12q-47 0-91 17.5T109.5 56 56 137.5 36 248t20 110.5 53.5 81.5 77.5 50.5 91 17.5q50 0 96-20 30 8 49 28t19 62q0 17-4.5 31.5T426 635l109 47q11-15 20.5-40.5T565 588q0-30-9.5-54t-26-42.5-38-31.5-46.5-20q34-34 54-82t20-110-20-110.5T445.5 56t-77-50.5T278-12zm0 119q45 0 68 38t23 103-23 103-68 38q-46 0-68.5-38T187 248t22.5-103 68.5-38zm-44 461l-12 58q19 4 32 11.5t13 23.5q0 18-18 28.5T187 703l9 90q49-1 83-10.5t55-25 30.5-37.5 9.5-48-11.5-44.5-30.5-31-44.5-19.5-53.5-9z"/><glyph glyph-name="uni1EE1" unicode="ỡ" horiz-adv-x="555" d="M278-12q-47 0-91 17.5T109.5 56 56 137.5 36 248t20 110.5 53.5 81.5 77.5 50.5 91 17.5q50 0 96-20 30 8 49 28t19 62q0 17-4.5 31.5T426 635l109 47q11-15 20.5-40.5T565 588q0-30-9.5-54t-26-42.5-38-31.5-46.5-20q34-34 54-82t20-110-20-110.5T445.5 56t-77-50.5T278-12zm0 119q45 0 68 38t23 103-23 103-68 38q-46 0-68.5-38T187 248t22.5-103 68.5-38zm32 466q-24 0-42.5 10t-34 22-28 22-24.5 10q-15 0-23.5-13T146 582l-92 5q2 78 34 115t90 37q24 0 42.5-10t34-22 28-22 24.5-10q29 0 35 55l92-5q-2-78-34-115t-90-37z"/><glyph glyph-name="uni1EE3" unicode="ợ" horiz-adv-x="555" d="M278-12q-47 0-91 17.5T109.5 56 56 137.5 36 248t20 110.5 53.5 81.5 77.5 50.5 91 17.5q50 0 96-20 30 8 49 28t19 62q0 17-4.5 31.5T426 635l109 47q11-15 20.5-40.5T565 588q0-30-9.5-54t-26-42.5-38-31.5-46.5-20q34-34 54-82t20-110-20-110.5T445.5 56t-77-50.5T278-12zm0 119q45 0 68 38t23 103-23 103-68 38q-46 0-68.5-38T187 248t22.5-103 68.5-38zm-1-332q-36 0-58.5 21.5T196-148t22.5 55.5T277-71t58.5-21.5T358-148t-22.5-55.5T277-225z"/><glyph glyph-name="uni01EB" unicode="ǫ" horiz-adv-x="555" d="M297-210q-45 0-75.5 23T191-119q0 19 5.5 35.5T210-53t17.5 24.5T246-10q-42 5-80.5 25t-67 53T53 146 36 248q0 62 20 110.5t53.5 81.5 77.5 50.5 91 17.5 90.5-17.5 77-50.5 53.5-81.5T519 248q0-50-11.5-88t-33-68T423 39.5 357 0q-37-17-52-40t-15-45q0-20 13-29t29-9q10 0 19 3.5t17 8.5l30-66q-19-15-48-24t-53-9zm-19 317q45 0 68 38t23 103-23 103-68 38q-46 0-68.5-38T187 248t22.5-103 68.5-38z"/><glyph glyph-name="racute" unicode="ŕ" horiz-adv-x="398" d="M65 0v496h120l10-87h4q27 51 65 75t76 24q21 0 34.5-2.5T399 498l-24-127q-14 4-26 6t-28 2q-28 0-58.5-20T212 288V0H65zm192 572l-72 72 154 182 99-97z"/><glyph glyph-name="uni0157" unicode="ŗ" horiz-adv-x="398" d="M65 0v496h120l10-87h4q27 51 65 75t76 24q21 0 34.5-2.5T399 498l-24-127q-14 4-26 6t-28 2q-28 0-58.5-20T212 288V0H65zM36-239l-11 59q59 3 81 12.5t22 26.5q0 14-15 23t-49 12l28 54q80-7 110.5-27t30.5-57q0-51-51.5-75.5T36-239z"/><glyph glyph-name="rcaron" unicode="ř" horiz-adv-x="398" d="M65 0v496h120l10-87h4q27 51 65 75t76 24q21 0 34.5-2.5T399 498l-24-127q-14 4-26 6t-28 2q-28 0-58.5-20T212 288V0H65zm107 577L64 708l56 52 125-92h4l125 92 56-52-108-131H172z"/><glyph glyph-name="uni1E59" unicode="ṙ" horiz-adv-x="398" d="M65 0v496h120l10-87h4q27 51 65 75t76 24q21 0 34.5-2.5T399 498l-24-127q-14 4-26 6t-28 2q-28 0-58.5-20T212 288V0H65zm181 569q-36 0-58.5 21.5T165 646t22.5 55.5T246 723t58.5-21.5T327 646t-22.5-55.5T246 569z"/><glyph glyph-name="uni1E5B" unicode="ṛ" horiz-adv-x="398" d="M65 0v496h120l10-87h4q27 51 65 75t76 24q21 0 34.5-2.5T399 498l-24-127q-14 4-26 6t-28 2q-28 0-58.5-20T212 288V0H65zm73-225q-36 0-58.5 21.5T57-148t22.5 55.5T138-71t58.5-21.5T219-148t-22.5-55.5T138-225z"/><glyph glyph-name="uni1E5D" unicode="ṝ" horiz-adv-x="398" d="M65 0v496h120l10-87h4q27 51 65 75t76 24q21 0 34.5-2.5T399 498l-24-127q-14 4-26 6t-28 2q-28 0-58.5-20T212 288V0H65zm34 592v93h296v-93H99zm39-817q-36 0-58.5 21.5T57-148t22.5 55.5T138-71t58.5-21.5T219-148t-22.5-55.5T138-225z"/><glyph glyph-name="uni1E5F" unicode="ṟ" horiz-adv-x="398" d="M65 0v496h120l10-87h4q27 51 65 75t76 24q21 0 34.5-2.5T399 498l-24-127q-14 4-26 6t-28 2q-28 0-58.5-20T212 288V0H65zm-75-187v93h296v-93H-10z"/><glyph glyph-name="sacute" unicode="ś" horiz-adv-x="443" d="M211-12q-49 0-100.5 19T21 57l66 92q34-26 65-39t63-13q33 0 48 11t15 31q0 12-8.5 21.5t-23 17.5-32.5 14.5-37 14.5q-23 9-46 21t-42 29.5-31 41T46 353q0 34 13.5 63T98 465t60 31.5 78 11.5q57 0 100-19.5t75-43.5l-66-88q-27 20-53 31t-52 11q-56 0-56-39 0-12 8-20.5t21.5-15.5 31-13.5T281 297q24-9 47.5-20.5t43-28.5 31.5-41.5 12-58.5-13-63-39-50.5-64-34T211-12zm34 584l-72 72 154 182 99-97z"/><glyph glyph-name="scircumflex" unicode="ŝ" horiz-adv-x="443" d="M211-12q-49 0-100.5 19T21 57l66 92q34-26 65-39t63-13q33 0 48 11t15 31q0 12-8.5 21.5t-23 17.5-32.5 14.5-37 14.5q-23 9-46 21t-42 29.5-31 41T46 353q0 34 13.5 63T98 465t60 31.5 78 11.5q57 0 100-19.5t75-43.5l-66-88q-27 20-53 31t-52 11q-56 0-56-39 0-12 8-20.5t21.5-15.5 31-13.5T281 297q24-9 47.5-20.5t43-28.5 31.5-41.5 12-58.5-13-63-39-50.5-64-34T211-12zM52 613l108 131h150l108-131-56-52-125 92h-4l-125-92z"/><glyph glyph-name="scaron" unicode="š" horiz-adv-x="443" d="M211-12q-49 0-100.5 19T21 57l66 92q34-26 65-39t63-13q33 0 48 11t15 31q0 12-8.5 21.5t-23 17.5-32.5 14.5-37 14.5q-23 9-46 21t-42 29.5-31 41T46 353q0 34 13.5 63T98 465t60 31.5 78 11.5q57 0 100-19.5t75-43.5l-66-88q-27 20-53 31t-52 11q-56 0-56-39 0-12 8-20.5t21.5-15.5 31-13.5T281 297q24-9 47.5-20.5t43-28.5 31.5-41.5 12-58.5-13-63-39-50.5-64-34T211-12zm-51 589L52 708l56 52 125-92h4l125 92 56-52-108-131H160z"/><glyph glyph-name="uni015F" unicode="ş" horiz-adv-x="443" d="M211-12q-49 0-100.5 19T21 57l66 92q34-26 65-39t63-13q33 0 48 11t15 31q0 12-8.5 21.5t-23 17.5-32.5 14.5-37 14.5q-23 9-46 21t-42 29.5-31 41T46 353q0 34 13.5 63T98 465t60 31.5 78 11.5q57 0 100-19.5t75-43.5l-66-88q-27 20-53 31t-52 11q-56 0-56-39 0-12 8-20.5t21.5-15.5 31-13.5T281 297q24-9 47.5-20.5t43-28.5 31.5-41.5 12-58.5-13-63-39-50.5-64-34T211-12zm-77-227l-11 59q59 3 81 13t22 31q0 15-15.5 25.5T149-94l48 98h86l-28-65q38-9 57-26t19-49q0-51-51.5-75.5T134-239z"/><glyph glyph-name="uni0219" unicode="ș" horiz-adv-x="443" d="M211-12q-49 0-100.5 19T21 57l66 92q34-26 65-39t63-13q33 0 48 11t15 31q0 12-8.5 21.5t-23 17.5-32.5 14.5-37 14.5q-23 9-46 21t-42 29.5-31 41T46 353q0 34 13.5 63T98 465t60 31.5 78 11.5q57 0 100-19.5t75-43.5l-66-88q-27 20-53 31t-52 11q-56 0-56-39 0-12 8-20.5t21.5-15.5 31-13.5T281 297q24-9 47.5-20.5t43-28.5 31.5-41.5 12-58.5-13-63-39-50.5-64-34T211-12zm-81-227l-11 59q59 3 81 12.5t22 26.5q0 14-15 23t-49 12l28 54q80-7 110.5-27t30.5-57q0-51-51.5-75.5T130-239z"/><glyph glyph-name="uni1E61" unicode="ṡ" horiz-adv-x="443" d="M211-12q-49 0-100.5 19T21 57l66 92q34-26 65-39t63-13q33 0 48 11t15 31q0 12-8.5 21.5t-23 17.5-32.5 14.5-37 14.5q-23 9-46 21t-42 29.5-31 41T46 353q0 34 13.5 63T98 465t60 31.5 78 11.5q57 0 100-19.5t75-43.5l-66-88q-27 20-53 31t-52 11q-56 0-56-39 0-12 8-20.5t21.5-15.5 31-13.5T281 297q24-9 47.5-20.5t43-28.5 31.5-41.5 12-58.5-13-63-39-50.5-64-34T211-12zm24 581q-36 0-58.5 21.5T154 646t22.5 55.5T235 723t58.5-21.5T316 646t-22.5-55.5T235 569z"/><glyph glyph-name="uni1E63" unicode="ṣ" horiz-adv-x="443" d="M211-12q-49 0-100.5 19T21 57l66 92q34-26 65-39t63-13q33 0 48 11t15 31q0 12-8.5 21.5t-23 17.5-32.5 14.5-37 14.5q-23 9-46 21t-42 29.5-31 41T46 353q0 34 13.5 63T98 465t60 31.5 78 11.5q57 0 100-19.5t75-43.5l-66-88q-27 20-53 31t-52 11q-56 0-56-39 0-12 8-20.5t21.5-15.5 31-13.5T281 297q24-9 47.5-20.5t43-28.5 31.5-41.5 12-58.5-13-63-39-50.5-64-34T211-12zm21-213q-36 0-58.5 21.5T151-148t22.5 55.5T232-71t58.5-21.5T313-148t-22.5-55.5T232-225z"/><glyph glyph-name="germandbls" unicode="ß" horiz-adv-x="632" d="M421-12q-45 0-80 12t-71 33l51 100q49-36 95-36 26 0 40.5 13.5T471 145q0 19-13 32.5t-32.5 25-42.5 24-42.5 29-32.5 39-13 55.5q0 29 11 50t24.5 40 24.5 39.5 11 47.5q0 29-16.5 48.5T302 595q-46 0-69-33.5T210 470V0H65v487q0 48 14.5 89t43.5 71 74 47 105 17q51 0 89.5-14t64-37.5T494 606t13-62q0-36-12-60.5t-27-44-27-36-12-35.5q0-17 13-28.5t32.5-22.5 42.5-24 42.5-31.5 32.5-45 13-64.5q0-34-11.5-64t-35-52-58-35T421-12z"/><glyph glyph-name="tcaron" unicode="ť" horiz-adv-x="383" d="M256-12q-46 0-78.5 14t-53 39-30 60.5T85 180v201H17v109l76 6 17 132h122V496h119V381H232V182q0-42 17.5-60.5T296 103q12 0 24.5 3t22.5 7L366 6q-20-6-47-12t-63-6zm24 560l-6 222h95l-2-69-24-153h-63z"/><glyph glyph-name="uni0163" unicode="ţ" horiz-adv-x="383" d="M256-12q-46 0-78.5 14t-53 39-30 60.5T85 180v201H17v109l76 6 17 132h122V496h119V381H232V182q0-42 17.5-60.5T296 103q12 0 24.5 3t22.5 7L366 6q-20-6-47-12t-63-6zM138-239l-11 59q59 3 81 13t22 31q0 15-15.5 25.5T153-94l48 98h86l-28-65q38-9 57-26t19-49q0-51-51.5-75.5T138-239z"/><glyph glyph-name="uni021B" unicode="ț" horiz-adv-x="383" d="M256-12q-46 0-78.5 14t-53 39-30 60.5T85 180v201H17v109l76 6 17 132h122V496h119V381H232V182q0-42 17.5-60.5T296 103q12 0 24.5 3t22.5 7L366 6q-20-6-47-12t-63-6zM133-239l-11 59q59 3 81 12.5t22 26.5q0 14-15 23t-49 12l28 54q80-7 110.5-27t30.5-57q0-51-51.5-75.5T133-239z"/><glyph glyph-name="uni1E6D" unicode="ṭ" horiz-adv-x="383" d="M256-12q-46 0-78.5 14t-53 39-30 60.5T85 180v201H17v109l76 6 17 132h122V496h119V381H232V182q0-42 17.5-60.5T296 103q12 0 24.5 3t22.5 7L366 6q-20-6-47-12t-63-6zm-21-213q-36 0-58.5 21.5T154-148t22.5 55.5T235-71t58.5-21.5T316-148t-22.5-55.5T235-225z"/><glyph glyph-name="uni1E6F" unicode="ṯ" horiz-adv-x="383" d="M256-12q-46 0-78.5 14t-53 39-30 60.5T85 180v201H17v109l76 6 17 132h122V496h119V381H232V182q0-42 17.5-60.5T296 103q12 0 24.5 3t22.5 7L366 6q-20-6-47-12t-63-6zM87-187v93h296v-93H87z"/><glyph glyph-name="uni1E97" unicode="ẗ" horiz-adv-x="383" d="M256-12q-46 0-78.5 14t-53 39-30 60.5T85 180v201H17v109l76 6 17 132h122V496h119V381H232V182q0-42 17.5-60.5T296 103q12 0 24.5 3t22.5 7L366 6q-20-6-47-12t-63-6zM58 709q-32 0-52 20.5T-14 781q0 30 20 50.5T58 852t51.5-20.5T129 781q0-31-19.5-51.5T58 709zm218 0q-32 0-51.5 20.5T205 781q0 30 19.5 50.5T276 852t52-20.5 20-50.5q0-31-20-51.5T276 709z"/><glyph glyph-name="uni0167" unicode="ŧ" horiz-adv-x="383" d="M17 223v65l68 5v88H17v109l76 6 17 132h122V496h119V381H232v-87h119v-71H232v-41q0-42 17.5-60.5T296 103q12 0 24.5 3t22.5 7L366 6q-20-6-47-12t-63-6q-46 0-78.5 14t-53 39-30 60.5T85 180v43H17z"/><glyph glyph-name="ugrave" unicode="ù" horiz-adv-x="568" d="M214-12q-81 0-117.5 53T60 188v308h147V207q0-54 15-74t47-20q28 0 47 13t41 42v328h147V0H384l-11 69h-3q-32-38-68.5-59.5T214-12zm61 584L94 729l99 97 154-182z"/><glyph glyph-name="uacute" unicode="ú" horiz-adv-x="568" d="M214-12q-81 0-117.5 53T60 188v308h147V207q0-54 15-74t47-20q28 0 47 13t41 42v328h147V0H384l-11 69h-3q-32-38-68.5-59.5T214-12zm81 584l-72 72 154 182 99-97z"/><glyph glyph-name="ucircumflex" unicode="û" horiz-adv-x="568" d="M214-12q-81 0-117.5 53T60 188v308h147V207q0-54 15-74t47-20q28 0 47 13t41 42v328h147V0H384l-11 69h-3q-32-38-68.5-59.5T214-12zM102 613l108 131h150l108-131-56-52-125 92h-4l-125-92z"/><glyph glyph-name="utilde" unicode="ũ" horiz-adv-x="568" d="M214-12q-81 0-117.5 53T60 188v308h147V207q0-54 15-74t47-20q28 0 47 13t41 42v328h147V0H384l-11 69h-3q-32-38-68.5-59.5T214-12zm137 585q-24 0-42.5 10t-34 22-28 22-24.5 10q-15 0-23.5-13T187 582l-92 5q2 78 34 115t90 37q24 0 42.5-10t34-22 28-22 24.5-10q29 0 35 55l92-5q-2-78-34-115t-90-37z"/><glyph glyph-name="udieresis" unicode="ü" horiz-adv-x="568" d="M214-12q-81 0-117.5 53T60 188v308h147V207q0-54 15-74t47-20q28 0 47 13t41 42v328h147V0H384l-11 69h-3q-32-38-68.5-59.5T214-12zm-38 581q-32 0-52 20.5T104 641q0 30 20 50.5t52 20.5 51.5-20.5T247 641q0-31-19.5-51.5T176 569zm218 0q-32 0-51.5 20.5T323 641q0 30 19.5 50.5T394 712t52-20.5 20-50.5q0-31-20-51.5T394 569z"/><glyph glyph-name="umacron" unicode="ū" horiz-adv-x="568" d="M214-12q-81 0-117.5 53T60 188v308h147V207q0-54 15-74t47-20q28 0 47 13t41 42v328h147V0H384l-11 69h-3q-32-38-68.5-59.5T214-12zm-78 604v93h296v-93H136z"/><glyph glyph-name="ubreve" unicode="ŭ" horiz-adv-x="568" d="M214-12q-81 0-117.5 53T60 188v308h147V207q0-54 15-74t47-20q28 0 47 13t41 42v328h147V0H384l-11 69h-3q-32-38-68.5-59.5T214-12zm71 584q-43 0-74 12t-52 33.5-31.5 50T116 729l84 14q5-32 25-55.5t60-23.5 60 23.5 25 55.5l84-14q-1-33-11.5-61.5t-31-50-52-33.5-74.5-12z"/><glyph glyph-name="uring" unicode="ů" horiz-adv-x="568" d="M214-12q-81 0-117.5 53T60 188v308h147V207q0-54 15-74t47-20q28 0 47 13t41 42v328h147V0H384l-11 69h-3q-32-38-68.5-59.5T214-12zm71 576q-66 0-99 30t-33 74 33 74 99 30 99-30 33-74-33-74-99-30zm0 55q18 0 30.5 13.5T328 668t-12.5 35.5T285 717t-30.5-13.5T242 668t12.5-35.5T285 619z"/><glyph glyph-name="uhungarumlaut" unicode="ű" horiz-adv-x="568" d="M214-12q-81 0-117.5 53T60 188v308h147V207q0-54 15-74t47-20q28 0 47 13t41 42v328h147V0H384l-11 69h-3q-32-38-68.5-59.5T214-12zm19 577l-77 35 87 181 99-44zm179 0l-77 35 87 181 99-44z"/><glyph glyph-name="uni01D4" unicode="ǔ" horiz-adv-x="568" d="M214-12q-81 0-117.5 53T60 188v308h147V207q0-54 15-74t47-20q28 0 47 13t41 42v328h147V0H384l-11 69h-3q-32-38-68.5-59.5T214-12zm-4 589L102 708l56 52 125-92h4l125 92 56-52-108-131H210z"/><glyph glyph-name="uni01D6" unicode="ǖ" horiz-adv-x="568" d="M214-12q-81 0-117.5 53T60 188v308h147V207q0-54 15-74t47-20q28 0 47 13t41 42v328h147V0H384l-11 69h-3q-32-38-68.5-59.5T214-12zm-38 583q-27 0-44.5 17.5T114 632t17.5 44 44.5 18 44.5-18 17.5-44-17.5-43.5T176 571zm-39 185v69h296v-69H137zm257-185q-27 0-44.5 17.5T332 632t17.5 44 44.5 18 44.5-18 17.5-44-17.5-43.5T394 571z"/><glyph glyph-name="uni01D8" unicode="ǘ" horiz-adv-x="568" d="M214-12q-81 0-117.5 53T60 188v308h147V207q0-54 15-74t47-20q28 0 47 13t41 42v328h147V0H384l-11 69h-3q-32-38-68.5-59.5T214-12zm78 725l-56 36 78 133 78-52zM176 571q-27 0-44.5 17.5T114 632t17.5 44 44.5 18 44.5-18 17.5-44-17.5-43.5T176 571zm218 0q-27 0-44.5 17.5T332 632t17.5 44 44.5 18 44.5-18 17.5-44-17.5-43.5T394 571z"/><glyph glyph-name="uni01DA" unicode="ǚ" horiz-adv-x="568" d="M214-12q-81 0-117.5 53T60 188v308h147V207q0-54 15-74t47-20q28 0 47 13t41 42v328h147V0H384l-11 69h-3q-32-38-68.5-59.5T214-12zm-31 885l100-65h4l100 65 48-44-92-92H227l-92 92zm-7-302q-27 0-44.5 17.5T114 632t17.5 44 44.5 18 44.5-18 17.5-44-17.5-43.5T176 571zm218 0q-27 0-44.5 17.5T332 632t17.5 44 44.5 18 44.5-18 17.5-44-17.5-43.5T394 571z"/><glyph glyph-name="uni01DC" unicode="ǜ" horiz-adv-x="568" d="M214-12q-81 0-117.5 53T60 188v308h147V207q0-54 15-74t47-20q28 0 47 13t41 42v328h147V0H384l-11 69h-3q-32-38-68.5-59.5T214-12zm64 725L178 830l78 52 78-133zM176 571q-27 0-44.5 17.5T114 632t17.5 44 44.5 18 44.5-18 17.5-44-17.5-43.5T176 571zm218 0q-27 0-44.5 17.5T332 632t17.5 44 44.5 18 44.5-18 17.5-44-17.5-43.5T394 571z"/><glyph glyph-name="uni1EE5" unicode="ụ" horiz-adv-x="568" d="M214-12q-81 0-117.5 53T60 188v308h147V207q0-54 15-74t47-20q28 0 47 13t41 42v328h147V0H384l-11 69h-3q-32-38-68.5-59.5T214-12zm89-213q-36 0-58.5 21.5T222-148t22.5 55.5T303-71t58.5-21.5T384-148t-22.5-55.5T303-225z"/><glyph glyph-name="uni1EE7" unicode="ủ" horiz-adv-x="568" d="M214-12q-81 0-117.5 53T60 188v308h147V207q0-54 15-74t47-20q28 0 47 13t41 42v328h147V0H384l-11 69h-3q-32-38-68.5-59.5T214-12zm28 580l-12 58q19 4 32 11.5t13 23.5q0 18-18 28.5T195 703l9 90q49-1 83-10.5t55-25 30.5-37.5 9.5-48-11.5-44.5-30.5-31-44.5-19.5-53.5-9z"/><glyph glyph-name="uogonek" unicode="ų" horiz-adv-x="568" d="M423-210q-45 0-75.5 23T317-119q0 22 7 40.5T341.5-45 364-19.5 386-2l-13 71h-3q-32-38-68.5-59.5T214-12q-81 0-117.5 53T60 188v308h147V207q0-54 15-74t47-20q28 0 47 13t41 42v328h147V0q-50-15-69-38.5T416-85q0-20 13-29t29-9q10 0 19.5 3.5T494-111l30-66q-19-15-48.5-24t-52.5-9z"/><glyph glyph-name="uhorn" unicode="ư" horiz-adv-x="568" d="M214-12q-81 0-117.5 53T60 188v308h147V207q0-54 15-74t47-20q28 0 47 13t41 42v328h46q14 1 28.5 4.5t26 13.5 19 27.5T484 588q0 17-5 31.5T469 645l108 47q12-15 21-40.5t9-53.5q0-61-30.5-97T504 451V0H384l-11 69h-3q-32-38-68.5-59.5T214-12z"/><glyph glyph-name="uni1EE9" unicode="ứ" horiz-adv-x="568" d="M214-12q-81 0-117.5 53T60 188v308h147V207q0-54 15-74t47-20q28 0 47 13t41 42v328h46q14 1 28.5 4.5t26 13.5 19 27.5T484 588q0 17-5 31.5T469 645l108 47q12-15 21-40.5t9-53.5q0-61-30.5-97T504 451V0H384l-11 69h-3q-32-38-68.5-59.5T214-12zm70 584l-72 72 154 182 99-97z"/><glyph glyph-name="uni1EEB" unicode="ừ" horiz-adv-x="568" d="M214-12q-81 0-117.5 53T60 188v308h147V207q0-54 15-74t47-20q28 0 47 13t41 42v328h46q14 1 28.5 4.5t26 13.5 19 27.5T484 588q0 17-5 31.5T469 645l108 47q12-15 21-40.5t9-53.5q0-61-30.5-97T504 451V0H384l-11 69h-3q-32-38-68.5-59.5T214-12zm50 584L83 729l99 97 154-182z"/><glyph glyph-name="uni1EED" unicode="ử" horiz-adv-x="568" d="M214-12q-81 0-117.5 53T60 188v308h147V207q0-54 15-74t47-20q28 0 47 13t41 42v328h46q14 1 28.5 4.5t26 13.5 19 27.5T484 588q0 17-5 31.5T469 645l108 47q12-15 21-40.5t9-53.5q0-61-30.5-97T504 451V0H384l-11 69h-3q-32-38-68.5-59.5T214-12zm17 580l-12 58q19 4 32 11.5t13 23.5q0 18-18 28.5T184 703l9 90q49-1 83-10.5t55-25 30.5-37.5 9.5-48-11.5-44.5-30.5-31-44.5-19.5-53.5-9z"/><glyph glyph-name="uni1EEF" unicode="ữ" horiz-adv-x="568" d="M214-12q-81 0-117.5 53T60 188v308h147V207q0-54 15-74t47-20q28 0 47 13t41 42v328h46q14 1 28.5 4.5t26 13.5 19 27.5T484 588q0 17-5 31.5T469 645l108 47q12-15 21-40.5t9-53.5q0-61-30.5-97T504 451V0H384l-11 69h-3q-32-38-68.5-59.5T214-12zm126 585q-24 0-42.5 10t-34 22-28 22-24.5 10q-15 0-23.5-13T176 582l-92 5q2 78 34 115t90 37q24 0 42.5-10t34-22 28-22 24.5-10q29 0 35 55l92-5q-2-78-34-115t-90-37z"/><glyph glyph-name="uni1EF1" unicode="ự" horiz-adv-x="568" d="M214-12q-81 0-117.5 53T60 188v308h147V207q0-54 15-74t47-20q28 0 47 13t41 42v328h46q14 1 28.5 4.5t26 13.5 19 27.5T484 588q0 17-5 31.5T469 645l108 47q12-15 21-40.5t9-53.5q0-61-30.5-97T504 451V0H384l-11 69h-3q-32-38-68.5-59.5T214-12zm78-213q-36 0-58.5 21.5T211-148t22.5 55.5T292-71t58.5-21.5T373-148t-22.5-55.5T292-225z"/><glyph glyph-name="wgrave" unicode="ẁ" horiz-adv-x="776" d="M148 0L24 496h146l48-230q6-37 11-73t11-74h4q7 38 13.5 75t15.5 72l55 230h127l56-230q9-37 16-73t15-74h4q7 38 11.5 74t11.5 73l47 230h136L633 0H461l-45 198q-8 35-14 70t-13 75h-4q-7-40-12.5-75T360 198L316 0H148zm231 572L198 729l99 97 154-182z"/><glyph glyph-name="wacute" unicode="ẃ" horiz-adv-x="776" d="M148 0L24 496h146l48-230q6-37 11-73t11-74h4q7 38 13.5 75t15.5 72l55 230h127l56-230q9-37 16-73t15-74h4q7 38 11.5 74t11.5 73l47 230h136L633 0H461l-45 198q-8 35-14 70t-13 75h-4q-7-40-12.5-75T360 198L316 0H148zm251 572l-72 72 154 182 99-97z"/><glyph glyph-name="wcircumflex" unicode="ŵ" horiz-adv-x="776" d="M148 0L24 496h146l48-230q6-37 11-73t11-74h4q7 38 13.5 75t15.5 72l55 230h127l56-230q9-37 16-73t15-74h4q7 38 11.5 74t11.5 73l47 230h136L633 0H461l-45 198q-8 35-14 70t-13 75h-4q-7-40-12.5-75T360 198L316 0H148zm58 613l108 131h150l108-131-56-52-125 92h-4l-125-92z"/><glyph glyph-name="wdieresis" unicode="ẅ" horiz-adv-x="776" d="M148 0L24 496h146l48-230q6-37 11-73t11-74h4q7 38 13.5 75t15.5 72l55 230h127l56-230q9-37 16-73t15-74h4q7 38 11.5 74t11.5 73l47 230h136L633 0H461l-45 198q-8 35-14 70t-13 75h-4q-7-40-12.5-75T360 198L316 0H148zm132 569q-32 0-52 20.5T208 641q0 30 20 50.5t52 20.5 51.5-20.5T351 641q0-31-19.5-51.5T280 569zm218 0q-32 0-51.5 20.5T427 641q0 30 19.5 50.5T498 712t52-20.5 20-50.5q0-31-20-51.5T498 569z"/><glyph glyph-name="ygrave" unicode="ỳ" horiz-adv-x="521" d="M120-194q-23 0-39 2.5T50-184L76-72q7-2 16-4t17-2q37 0 57 18t30 47l7 26L12 496h148l71-213q11-34 20-69t19-72h4q8 35 16.5 70.5T308 283l60 213h141L337-5q-18-47-37.5-82.5t-45-59-58-35.5-76.5-12zm136 766L75 729l99 97 154-182z"/><glyph glyph-name="yacute" unicode="ý" horiz-adv-x="521" d="M120-194q-23 0-39 2.5T50-184L76-72q7-2 16-4t17-2q37 0 57 18t30 47l7 26L12 496h148l71-213q11-34 20-69t19-72h4q8 35 16.5 70.5T308 283l60 213h141L337-5q-18-47-37.5-82.5t-45-59-58-35.5-76.5-12zm156 766l-72 72 154 182 99-97z"/><glyph glyph-name="ycircumflex" unicode="ŷ" horiz-adv-x="521" d="M120-194q-23 0-39 2.5T50-184L76-72q7-2 16-4t17-2q37 0 57 18t30 47l7 26L12 496h148l71-213q11-34 20-69t19-72h4q8 35 16.5 70.5T308 283l60 213h141L337-5q-18-47-37.5-82.5t-45-59-58-35.5-76.5-12zM83 613l108 131h150l108-131-56-52-125 92h-4l-125-92z"/><glyph glyph-name="ydieresis" unicode="ÿ" horiz-adv-x="521" d="M120-194q-23 0-39 2.5T50-184L76-72q7-2 16-4t17-2q37 0 57 18t30 47l7 26L12 496h148l71-213q11-34 20-69t19-72h4q8 35 16.5 70.5T308 283l60 213h141L337-5q-18-47-37.5-82.5t-45-59-58-35.5-76.5-12zm37 763q-32 0-52 20.5T85 641q0 30 20 50.5t52 20.5 51.5-20.5T228 641q0-31-19.5-51.5T157 569zm218 0q-32 0-51.5 20.5T304 641q0 30 19.5 50.5T375 712t52-20.5 20-50.5q0-31-20-51.5T375 569z"/><glyph glyph-name="uni1E8F" unicode="ẏ" horiz-adv-x="521" d="M120-194q-23 0-39 2.5T50-184L76-72q7-2 16-4t17-2q37 0 57 18t30 47l7 26L12 496h148l71-213q11-34 20-69t19-72h4q8 35 16.5 70.5T308 283l60 213h141L337-5q-18-47-37.5-82.5t-45-59-58-35.5-76.5-12zm146 763q-36 0-58.5 21.5T185 646t22.5 55.5T266 723t58.5-21.5T347 646t-22.5-55.5T266 569z"/><glyph glyph-name="uni1EF5" unicode="ỵ" horiz-adv-x="521" d="M120-194q-23 0-39 2.5T50-184L76-72q7-2 16-4t17-2q37 0 57 18t30 47l7 26L12 496h148l71-213q11-34 20-69t19-72h4q8 35 16.5 70.5T308 283l60 213h141L337-5q-18-47-37.5-82.5t-45-59-58-35.5-76.5-12zm326-23q-36 0-58.5 21.5T365-140t22.5 55.5T446-63t58.5-21.5T527-140t-22.5-55.5T446-217z"/><glyph glyph-name="uni1EF7" unicode="ỷ" horiz-adv-x="521" d="M120-194q-23 0-39 2.5T50-184L76-72q7-2 16-4t17-2q37 0 57 18t30 47l7 26L12 496h148l71-213q11-34 20-69t19-72h4q8 35 16.5 70.5T308 283l60 213h141L337-5q-18-47-37.5-82.5t-45-59-58-35.5-76.5-12zm103 762l-12 58q19 4 32 11.5t13 23.5q0 18-18 28.5T176 703l9 90q49-1 83-10.5t55-25 30.5-37.5 9.5-48-11.5-44.5-30.5-31-44.5-19.5-53.5-9z"/><glyph glyph-name="uni1EF9" unicode="ỹ" horiz-adv-x="521" d="M120-194q-23 0-39 2.5T50-184L76-72q7-2 16-4t17-2q37 0 57 18t30 47l7 26L12 496h148l71-213q11-34 20-69t19-72h4q8 35 16.5 70.5T308 283l60 213h141L337-5q-18-47-37.5-82.5t-45-59-58-35.5-76.5-12zm212 767q-24 0-42.5 10t-34 22-28 22-24.5 10q-15 0-23.5-13T168 582l-92 5q2 78 34 115t90 37q24 0 42.5-10t34-22 28-22 24.5-10q29 0 35 55l92-5q-2-78-34-115t-90-37z"/><glyph glyph-name="zacute" unicode="ź" horiz-adv-x="460" d="M38 0v79l208 302H61v115h368v-78L221 115h215V0H38zm217 572l-72 72 154 182 99-97z"/><glyph glyph-name="zcaron" unicode="ž" horiz-adv-x="460" d="M38 0v79l208 302H61v115h368v-78L221 115h215V0H38zm132 577L62 708l56 52 125-92h4l125 92 56-52-108-131H170z"/><glyph glyph-name="zdotaccent" unicode="ż" horiz-adv-x="460" d="M38 0v79l208 302H61v115h368v-78L221 115h215V0H38zm207 569q-36 0-58.5 21.5T164 646t22.5 55.5T245 723t58.5-21.5T326 646t-22.5-55.5T245 569z"/><glyph glyph-name="uni1E93" unicode="ẓ" horiz-adv-x="460" d="M38 0v79l208 302H61v115h368v-78L221 115h215V0H38zm207-225q-36 0-58.5 21.5T164-148t22.5 55.5T245-71t58.5-21.5T326-148t-22.5-55.5T245-225z"/><glyph glyph-name="uni1E95" unicode="ẕ" horiz-adv-x="460" d="M38 0v79l208 302H61v115h368v-78L221 115h215V0H38zm59-187v93h296v-93H97z"/><glyph glyph-name="eth" unicode="ð" horiz-adv-x="560" d="M273-12q-47 0-88.5 17T111 53t-50.5 75.5T42 228q0 54 17 96t45.5 71 65 44.5T245 455q29 0 57-9.5t49-32.5q-26 77-85 133l-142-71-38 65 116 58q-20 14-42.5 27T112 651l64 89q35-18 70-39t68-46l143 72 38-65-120-61q59-60 97-141.5T510 266q0-60-16.5-111t-47-88T372 9t-99-21zm5 119q42 0 68.5 36.5T373 258v23l-1 22q-23 25-47 34t-50 9q-44 0-71.5-29T176 228q0-59 30.5-90t71.5-31z"/><glyph glyph-name="thorn" unicode="þ" horiz-adv-x="573" d="M65-184v885h147V529l-4-70q26 23 58 36t66 13q47 0 84.5-18t63.5-51 40-79.5T534 256q0-64-17.5-113.5t-47-84-67-52.5T325-12q-36 0-63.5 12T208 35l4-74v-145H65zm226 292q38 0 65 34.5T383 254q0 134-86 134-43 0-85-45V140q20-18 40-25t39-7z"/><glyph glyph-name="uni014B" unicode="ŋ" horiz-adv-x="572" d="M335-187q-31 0-51.5 4T247-173l27 108q19-6 38-6 30 0 41.5 19T365 9v280q0 54-14.5 74T304 383q-28 0-48-12.5T212 335V0H65v496h120l10-63h4q32 30 70 52.5t89 22.5q81 0 117.5-53T512 308V13q0-41-8.5-77.5t-29-63.5-54.5-43-85-16z"/><glyph glyph-name="uni0237" unicode="ȷ" horiz-adv-x="278" d="M36-196q-31 0-51.5 4T-51-182l26 108q10-3 19-5t20-2q29 0 40.5 19T66-1v497h147V3q0-41-8.5-77t-29-63-54.5-43-85-16z"/><glyph glyph-name="uni0133" unicode="ĳ" horiz-adv-x="554" d="M65 0v496h147V0H65zm73 569q-37 0-61 21.5T53 646t24 55 61 21q38 0 61.5-21t23.5-55-23.5-55.5T138 569zm174-765q-31 0-51.5 4T225-182l26 108q10-3 19-5t20-2q29 0 40.5 19T342-1v497h147V3q0-41-8.5-77t-29-63-54.5-43-85-16zm104 765q-37 0-61 21.5T331 646t24 55 61 21 61-21 24-55-24-55.5-61-21.5z"/><glyph glyph-name="uni0250" unicode="ɐ" horiz-adv-x="534" d="M277-12q-106 0-162.5 57.5T58 218v278h120l11-61h4q29 33 68 53t89 20q64 0 99.5-38.5T485 372q0-80-66-130.5T205 175q3-32 24.5-51t69.5-19q32 0 62 12.5t66 32.5l52-97q-45-29-96-47T277-12zm-72 277q79 11 109 33t30 51q0 23-14 34t-36 11q-25 0-46.5-13.5T205 342v-77z"/><glyph glyph-name="uni0252" unicode="ɒ" horiz-adv-x="573" d="M325-12q-32 0-65.5 14.5T196 49h-4L180 0H65v496h120l10-49h4q29 26 65.5 43.5T340 508q45 0 81-18t61-51 38.5-79.5T534 256q0-64-17.5-113.5t-47-84-67-52.5T325-12zm-34 120q38 0 65 34.5T383 254q0 134-86 134-43 0-85-45V140q20-18 40-25t39-7z"/><glyph glyph-name="uni0253" unicode="ɓ" horiz-adv-x="573" d="M325-12q-33 0-66.5 16T196 52h-4L180 0H65v500q0 43 11 81.5t35 68 63 46.5 95 17q31 0 56.5-6t42.5-12l-27-108q-12 5-25.5 7.5T290 597q-38 0-57-21.5T210 504l-2-67q29 25 62.5 40t68.5 15q45 0 81-17.5t61.5-49 39-77T534 248q0-62-17.5-110.5t-47-81.5-67-50.5T325-12zm-34 120q38 0 65 32.5T383 246q0 125-86 125-23 0-43.5-10.5T212 327V140q20-18 40-25t39-7z"/><glyph glyph-name="uni0254" unicode="ɔ" horiz-adv-x="467" d="M186-12q-41 0-84 13.5T23 47l57 96q20-15 42.5-25.5T170 107q48 0 79.5 38T281 248t-30 103-76 38q-25 0-42-6.5T98 360l-70 95q29 23 70 38t94 15q48 0 91.5-17t76.5-50 52.5-81.5T432 248q0-62-19-110.5T360.5 56 282 5.5 186-12z"/><glyph glyph-name="uni0255" unicode="ɕ" horiz-adv-x="467" d="M294 100q26 0 40.5 12t14.5 29q0 12-9 23t-29 11q-38 0-80-53 28-22 63-22zM137-73L23-23Q36 9 49.5 38T79 93q-20 31-31.5 69.5T36 248q0 62 21 110.5t56.5 81.5 82.5 50.5 98 17.5q46 0 81.5-15t63.5-38l-64-88q-35 29-72 29-57 0-91-39.5T178 248q0-18 3-33 69 57 142 57 63 0 99-35t36-96q0-32-11.5-60T413 32.5 360 0t-71-12q-66 0-120 26-9-20-16.5-41.5T137-73z"/><glyph glyph-name="uni0256" unicode="ɖ" horiz-adv-x="573" d="M528-187q-42 0-72.5 12.5t-50.5 33-29.5 48T366-36l1 79q-26-24-58-39.5T242-12q-46 0-83.5 18t-64 51.5-41 81.5T39 248t17.5 109 46 81.5 66 51.5 76.5 18q42 0 69-14t53-38l-6 76v181h147V-1q0-37 9.5-53.5T551-71q14 0 29 6l26-108q-14-6-32-10t-46-4zM280 108q24 0 43.5 10t37.5 35v203q-20 18-41 25t-41 7q-35 0-62-33.5T190 250q0-74 23.5-108t66.5-34z"/><glyph glyph-name="uni0257" unicode="ɗ" horiz-adv-x="573" d="M242-12q-46 0-83.5 18t-64 51.5-41 81.5T39 248t17.5 109 46 81.5 66 51.5 76.5 18q42 0 69-14t53-38l-1 82q0 36 9 68t29.5 55.5T458 699t80 14q24 0 40-2.5t29-7.5l-26-108q-11 3-20 3-29 0-41-17.5T508 526V0H388l-10 49h-4q-26-26-61-43.5T242-12zm38 120q24 0 43.5 10t37.5 35v203q-20 18-41 25t-41 7q-35 0-62-33.5T190 250q0-74 23.5-108t66.5-34z"/><glyph glyph-name="uni0258" unicode="ɘ" horiz-adv-x="518" d="M235-12q-45 0-93.5 15T55 44l48 89q54-33 112-33 51 0 82.5 25.5T339 205H42q-2 9-4 27t-2 38q0 51 14.5 94.5t43 75.5 70 50 94.5 18q45 0 85.5-18t71.5-51.5 49-82T482 248q0-62-18.5-110T412 56.5t-78.5-51T235-12zm-73 314h179q-6 48-29 71t-59 23q-45 0-68-26t-23-68z"/><glyph glyph-name="uni0251" unicode="ɑ" horiz-adv-x="573" d="M242-12q-46 0-83.5 18t-64 51.5-41 81.5T39 248t18 109 47.5 81.5 67 51.5 76.5 18q38 0 69-14.5t60-46.5h4l12 49h115V0H388l-10 49h-4q-26-26-61-43.5T242-12zm38 120q24 0 43.5 10t37.5 35v203q-20 18-41 25t-41 7q-35 0-62-33.5T190 250q0-74 23.5-108t66.5-34z"/><glyph glyph-name="uni0299" unicode="ʙ" horiz-adv-x="528" d="M65 0v496h211q42 0 78-6.5t63-22 42.5-40.5 15.5-62q0-32-19-61t-64-41v-4q47-11 74.5-38t27.5-78q0-38-16.5-65.5T433 33 367.5 8 288 0H65zm143 302h58q37 0 53 12.5t16 35.5-15.5 36-52.5 13h-59v-97zm0-205h71q40 0 56.5 15.5T352 153q0 22-17.5 37T278 205h-70V97z"/><glyph glyph-name="uni0259" unicode="ə" horiz-adv-x="518" d="M249-12q-53 0-93 18T89.5 56.5t-40 76.5T36 228q0 20 2 38t4 27h297q-8 53-37.5 78T225 396q-55 0-108-33l-49 95q41 27 88 38.5t94 11.5q49 0 91.5-18t73.5-51.5 49-81.5 18-109q0-60-19-108.5t-51-82T337.5 6 249-12zm-3 112q36 0 61.5 22.5T341 196H162q0-43 19.5-69.5T246 100z"/><glyph glyph-name="uni025A" unicode="ɚ" horiz-adv-x="707" d="M260-12q-57 0-98 19T94 57.5t-41 73T36 217l289 123q-14 29-39.5 42.5T224 396q-29 0-55-8.5T117 363l-49 95q42 27 88 38.5t88 11.5q72 0 123.5-31t80.5-85l93 40 70-26q1-56 12-76t34-20q12 0 22 3t18 8l30-70q-15-10-34-17.5t-42-7.5q-18 0-36 4t-34 15-29.5 29.5T530 323l-53-23q2-14 3.5-29.5T482 239q0-52-16-98t-45.5-80T350 7.5 260-12zm-5 110q40 0 65.5 35.5T346 226v17l-179-77q8-32 31.5-50T255 98z"/><glyph glyph-name="uni025B" unicode="ɛ" horiz-adv-x="462" d="M269-12q-42 0-82.5 10T115 27 65 74.5 46 141q0 51 29 79.5t75 39.5v4q-42 13-61.5 42.5T69 366q0 37 16.5 64t44.5 44 64.5 25.5T271 508q85 0 159-45l-54-95q-25 14-47.5 21t-49.5 7q-31 0-48.5-13.5T213 346q0-44 69-44h68v-97h-84q-39 0-57.5-11.5T190 156t26-41 67-15q23 0 49 7t53 24l58-93Q398 9 357-1.5T269-12z"/><glyph glyph-name="uni025C" unicode="ɜ" horiz-adv-x="476" d="M216-12q-49 0-92 10.5T33 38l58 93q27-17 53-24t49-7q42 0 67.5 15t25.5 41-18.5 37.5T210 205h-83v97h67q69 0 69 44 0 23-16.5 36.5T198 396q-27 0-50-7t-48-21l-54 95q78 45 169 45 39 0 73.5-8.5t61-25.5 42-44 15.5-64q0-30-19.5-59.5T326 264v-4q46-11 75-39.5t29-79.5q0-38-18-66.5T364 27 295.5-2 216-12z"/><glyph glyph-name="uni025E" unicode="ɞ" horiz-adv-x="566" d="M270-12q-43 0-83.5 10T115 27 65 74.5 46 141q0 51 29 79.5t75 39.5v4q-42 13-61.5 42.5T69 366q0 37 16 64t44 44 64 25.5 77 8.5q51 0 98.5-16t84-48.5 58-81.5T532 248t-20.5-114T455 52.5 371.5 4 270-12zm0 112q54 0 82.5 35T381 248t-27.5 113-79.5 35q-26 0-43.5-13.5T213 346q0-44 61-44h31v-97h-47q-35 0-51.5-11.5T190 156t22.5-41 57.5-15z"/><glyph glyph-name="uni025F" unicode="ɟ" horiz-adv-x="321" d="M56-196q-31 0-51.5 4T-31-182L-5-74q10-3 19-5t20-2q29 0 40.5 19T86-1v224H12v65l74 6v202h147V294h71v-71h-71V3q0-41-8.5-77t-29-63-54.5-43-85-16z"/><glyph glyph-name="uni0260" unicode="ɠ" horiz-adv-x="583" d="M261-194q-41 0-91.5 13.5T76-139l48 97q35-20 71-28.5t66-8.5q55 0 78 22.5T366 1l4 62q-25-23-56.5-36.5T247 13q-46 0-83.5 18t-64 50.5-41 77T44 257q0 57 18 103.5t47.5 79 67 50.5 76.5 18q38 0 64.5-14t52.5-38v34q0 30 9 59t29.5 52.5T462 639t81 14q24 0 40-2.5t29-7.5l-26-109q-8 4-20 4-29 0-41-18.5T513 466V5q0-97-65.5-148T261-194zm24 325q24 0 42.5 10.5T366 178v178q-20 18-41 25t-41 7q-37 0-64-33t-27-96q0-62 24.5-95t67.5-33z"/><glyph glyph-name="uni0261" unicode="ɡ" horiz-adv-x="583" d="M261-194q-41 0-91.5 13.5T76-139l48 97q35-20 71-28.5t66-8.5q55 0 78 22.5T366 1l4 62q-25-23-56.5-36.5T247 13q-46 0-83.5 18t-64 50.5-41 77T44 257q0 57 18 103.5t47.5 79 67 50.5 76.5 18q38 0 68.5-13.5T380 450h4l11 46h118V5q0-97-65.5-148T261-194zm24 325q24 0 42.5 10.5T366 178v178q-20 18-41 25t-41 7q-37 0-64-33t-27-96q0-62 24.5-95t67.5-33z"/><glyph glyph-name="uni0262" unicode="ɢ" horiz-adv-x="517" d="M288-12q-49 0-94.5 15.5T113 51t-56 80.5T36 246q0 63 21.5 112t57 82 81.5 50.5 95 17.5q62 0 101-17.5t71-42.5l-66-88q-23 16-42.5 26T301 396q-22 0-43-9t-37-27-26-46.5-10-67.5q0-70 31.5-108t82.5-38q31 0 51 14v85h-84v98h209V53q-31-28-80-46.5T288-12z"/><glyph glyph-name="uni0263" unicode="ɣ" horiz-adv-x="523" d="M265-211q-70 0-112 39.5T111-66q0 19 4 36t11.5 35 18 38T169 87L12 496h148l64-208q10-32 19.5-58t19.5-60h4q9 34 18.5 60t19.5 58l65 208h141L360 88q14-24 24.5-44.5t18-38.5T414-30t4-36q0-66-41.5-105.5T265-211zm0 92q15 0 24.5 11.5T299-76q0 21-8 45t-25 56h-5q-16-32-23-56.5T231-76t9-31.5 25-11.5z"/><glyph glyph-name="uni0264" unicode="ɤ" horiz-adv-x="569" d="M285-12q-91 0-144 46.5T88 170q0 44 26 90t71 88q-18 22-39 31.5t-42 9.5q-29 0-46-14L16 482q17 13 48 19.5t60 6.5q41 0 83-18.5t78-60.5q35 42 77 60.5t83 18.5q30 0 60.5-6.5T553 482l-41-107q-19 14-47 14-21 0-42-9.5T384 348q45-42 71.5-88t26.5-90q0-89-53.5-135.5T285-12zm0 119q29 0 44 18.5t15 48.5q0 26-16.5 54.5T285 282q-27-25-43.5-53.5T225 174q0-30 15.5-48.5T285 107z"/><glyph glyph-name="uni0265" unicode="ɥ" horiz-adv-x="572" d="M360-184v151l7 94q-28-30-65-51.5T214-12q-81 0-117.5 53T60 188v308h147V207q0-54 15-74t47-20q28 0 48.5 12.5T360 168v328h147v-680H360z"/><glyph glyph-name="uni0266" unicode="ɦ" horiz-adv-x="571" d="M65 0v500q0 43 11 81.5t35 68 63 46.5 95 17q31 0 56.5-6t42.5-12l-27-108q-12 5-25.5 7.5T290 597q-38 0-57-21.5T210 504l-5-81q14 13 30 25t35 22 41 16 47 6q81 0 117.5-53T512 292V0H365v273q0 54-14.5 73.5T304 366q-28 0-48-12.5T212 318V0H65z"/><glyph glyph-name="uni0267" unicode="ɧ" horiz-adv-x="571" d="M335-187q-31 0-51.5 4T247-173l27 108q19-6 38-6 30 0 41.5 19T365 9v264q0 54-14.5 73.5T304 366q-28 0-48-12.5T212 318V0H65v500q0 43 11 81.5t35 68 63 46.5 95 17q31 0 56.5-6t42.5-12l-27-108q-12 5-25.5 7.5T290 597q-38 0-57-21.5T210 504l-5-81q14 13 30 25t35 22 41 16 47 6q81 0 117.5-53T512 292V13q0-41-8.5-77.5t-29-63.5-54.5-43-85-16z"/><glyph glyph-name="uni029C" unicode="ʜ" horiz-adv-x="582" d="M67 0v496h147V317h159v179h147V0H373v189H214V0H67z"/><glyph glyph-name="uni0268" unicode="ɨ" horiz-adv-x="321" d="M12 223v65l75 6v202h147V294h70v-71h-70V0H87v223H12zm148 346q-37 0-61 21.5T75 646t24 55 61 21q38 0 61.5-21t23.5-55-23.5-55.5T160 569z"/><glyph glyph-name="uni026A" unicode="ɪ" horiz-adv-x="395" d="M52 0v115h72v266H52v115h291V381h-72V115h72V0H52z"/><glyph glyph-name="uni029D" unicode="ʝ" horiz-adv-x="360" d="M304-257q-14 34-29 63t-32 55q-24-26-59-41.5T103-196q-36 0-64.5 11.5T-10-153t-30.5 47T-51-48q0 60 39.5 96.5T100 85q22 0 49-8v419h147V12q0-8-.5-15.5T294-19q35-35 66-81.5T417-206zM99-84q22 0 33.5 14T148-32q-29 20-50 20-18 0-28.5-9.5T59-45q0-15 10-27t30-12zm123 653q-37 0-61 21.5T137 646t24 55 61 21q38 0 62-21t24-55-24-55.5-62-21.5z"/><glyph glyph-name="uni026C" unicode="ɬ" horiz-adv-x="377" d="M137 292q-77 0-112 30t-35 74q0 42 28.5 70T92 494q17 0 29.5-4t23.5-11v222h147V363h70v-71h-70V148q0-23 8.5-32t17.5-9h8.5l9.5 2L354 0q-12-5-30.5-8.5T280-12q-38 0-64 12t-41.5 33.5-22.5 52-7 68.5v138h-8zm-14 71h22v2q0 8-2 18.5t-7.5 19.5-14.5 15.5-23 6.5q-16 0-23-8t-7-21q0-14 13-23.5t42-9.5z"/><glyph glyph-name="uni026D" unicode="ɭ" horiz-adv-x="286" d="M232-187q-48 0-80 15t-51.5 41.5-27.5 61T65 4v697h147V-1q0-37 9.5-53.5T255-71q13 0 28 6l26-108q-14-6-32-10t-45-4z"/><glyph glyph-name="uni026E" unicode="ɮ" horiz-adv-x="640" d="M390-196q-71 0-121 24t-85 57l66 91q25-22 55-37.5T373-77q43 0 70.5 27.5T471 29q0 45-26 69t-70 24q-20 0-31-2.5t-28-9.5l-48 71 152 200H212V0H65v701h147V496h383v-78L446 222q41-3 73-18.5t54-40.5 33.5-58.5T618 32q0-55-18.5-97.5T550-137t-72.5-44-87.5-15z"/><glyph glyph-name="uni029F" unicode="ʟ" horiz-adv-x="432" d="M65 0v496h147V115h194V0H65z"/><glyph glyph-name="uni026F" unicode="ɯ" horiz-adv-x="857" d="M218-12q-80 0-117.5 53.5T63 188v308h147V207q0-54 15-74t47-20q37 0 84 48v335h147V207q0-54 15-74t46-20q37 0 85 48v335h147V0H676l-11 64h-3q-31-31-66.5-53.5T511-12q-53 0-85.5 21.5T374 72q-32-35-69-59.5T218-12z"/><glyph glyph-name="uni0270" unicode="ɰ" horiz-adv-x="857" d="M649-184v151l7 93q-34-35-67-53.5T511-12q-53 0-85.5 21.5T374 72q-32-35-69-59.5T218-12q-80 0-117.5 53.5T63 188v308h147V207q0-54 15-74t47-20q37 0 84 48v335h147V207q0-54 15-74t46-20q37 0 85 48v335h147v-680H649z"/><glyph glyph-name="uni0271" unicode="ɱ" horiz-adv-x="857" d="M628-187q-27 0-46 4t-33 10l26 108q15-6 31-6 26 0 35 19t9 61v280q0 54-14.5 74T589 383q-37 0-85-48V0H357v289q0 54-14.5 74T296 383q-38 0-84-48V0H65v496h120l10-64h4q31 31 66 53.5t84 22.5q53 0 85.5-21.5T486 425q33 34 69.5 58.5T642 508q80 0 117.5-53.5T797 308V13q0-41-8.5-77.5t-28-63.5-52-43-80.5-16z"/><glyph glyph-name="uni0272" unicode="ɲ" horiz-adv-x="572" d="M45-187q-28 0-46 4t-32 10L-7-65q15-6 29-6 24 0 33.5 16.5T65-1v497h120l10-63h4q32 30 70 52.5t89 22.5q81 0 117.5-53T512 308V0H365v289q0 54-14.5 74T304 383q-28 0-48-12.5T212 335V4q0-39-8-73.5t-27.5-61T125-172t-80-15z"/><glyph glyph-name="uni0273" unicode="ɳ" horiz-adv-x="572" d="M532-187q-48 0-80 15t-51.5 41.5-27.5 61T365 4v285q0 54-14.5 74T304 383q-28 0-48-12.5T212 335V0H65v496h120l10-63h4q32 30 70 52.5t89 22.5q81 0 117.5-53T512 308V-1q0-37 9.5-53.5T555-71q14 0 29 6l26-108q-14-6-32-10t-46-4z"/><glyph glyph-name="uni0274" unicode="ɴ" horiz-adv-x="561" d="M65 0v496h135l118-209q11-22 25-52t25-52h3q-4 45-8 91.5t-4 83.5v138h137V0H361L242 209q-11 22-24.5 51.5T193 313h-4q5-46 9-91.5t4-83.5V0H65z"/><glyph glyph-name="uni0275" unicode="ɵ" horiz-adv-x="555" d="M278-12q-48 0-92 16.5T109 54t-53 81.5T36 248t20 112.5 53 81.5 77 49.5 92 16.5 91.5-16.5T446 442t53-81.5T519 248t-20-112.5T446 54 369.5 4.5 278-12zm0 411q-82 0-100-97h199q-18 97-99 97zm0-301q42 0 67.5 27t33.5 80H176q8-53 34-80t68-27z"/><glyph glyph-name="uni0276" unicode="ɶ" horiz-adv-x="726" d="M291-12q-48 0-94 15.5T115 51t-57.5 81T36 247q0 65 21.5 114t57.5 81.5 82 49 94 16.5q29 0 53.5-2.5T406 496h284V389H485v-87h174v-97H485V105h215V0H406q-35-8-60.5-10T291-12zm7 116q20 0 43 6v274q-23 6-43 6-21 0-41-8t-35.5-25-25-44-9.5-66q0-41 9.5-68.5t25-44T257 111t41-7z"/><glyph glyph-name="uni0278" unicode="ɸ" horiz-adv-x="738" d="M187 248q0-69 31-106t84-40v292q-53-3-84-40t-31-106zm364 0q0 69-30.5 106T436 394V102q53 3 84 40t31 106zM302-184V-8q-52 3-100 20.5t-85 50-59 79T36 248t22 106.5 59 79 85 50T302 504v197h134V504q52-3 100-20.5t85-50 59-79T702 248t-22-106.5-59-79-85-50T436-8v-176H302z"/><glyph glyph-name="uni0279" unicode="ɹ" horiz-adv-x="398" d="M58-12q-21 0-34.5 2.5T-1-2l25 127q13-3 25-5.5t28-2.5q29 0 59.5 20.5T187 209v287h147V0H214l-11 87h-4q-27-51-65-75T58-12z"/><glyph glyph-name="uni027A" unicode="ɺ" horiz-adv-x="398" d="M58-12q-21 0-34.5 2.5T-1-2l25 127q13-3 25-5.5t28-2.5q29 0 59.5 20.5T187 209v492h147V0H214l-11 87h-4q-27-51-65-75T58-12z"/><glyph glyph-name="uni027B" unicode="ɻ" horiz-adv-x="398" d="M354-187q-43 0-72 13.5t-46.5 37-25 54T203-18V87h-4q-27-51-65-75T58-12q-21 0-34.5 2.5T-1-2l25 127q13-3 25-5.5t28-2.5q29 0 59.5 20.5T187 209v287h147V-1q0-37 9.5-53.5T376-71q14 0 29 6l26-108q-14-6-32-10t-45-4z"/><glyph glyph-name="uni027D" unicode="ɽ" horiz-adv-x="398" d="M232-187q-48 0-80 15t-51.5 41.5-27.5 61T65 4v492h120l10-87h4q27 51 65 75t76 24q21 0 34.5-2.5T399 498l-24-127q-14 4-26 6t-28 2q-28 0-58.5-20T212 288V-1q0-37 9.5-53.5T255-71q13 0 28 6l26-108q-14-6-32-10t-45-4z"/><glyph glyph-name="uni027E" unicode="ɾ" horiz-adv-x="380" d="M65 0v304q0 42 11.5 79t36.5 65 63.5 44 92.5 16q37 0 65-4t47-10l-23-123q-21 6-33.5 8t-34.5 2q-13 0-26.5-5.5t-25-18.5-19-34-7.5-51V0H65z"/><glyph glyph-name="uni0280" unicode="ʀ" horiz-adv-x="532" d="M65 0v496h204q43 0 80-8t65-27.5 44-51 16-77.5q0-51-22.5-85T394 193L517 0H354l-89 162h-53V0H65zm147 261h39q39 0 58.5 18.5T329 328q0 60-78 60h-39V261z"/><glyph glyph-name="uni0281" unicode="ʁ" horiz-adv-x="532" d="M263 0q-43 0-80.5 8.5t-65 27.5T74 86.5 58 165q0 51 22.5 85t57.5 54L15 496h163l89-161h53v161h147V0H263zm18 108h39v128h-39q-39 0-58.5-19T203 169q0-61 78-61z"/><glyph glyph-name="uni0282" unicode="ʂ" horiz-adv-x="443" d="M211-12q-30 0-61 6 4-69 54-69 11 0 19.5 2t19.5 5l26-105q-15-6-35.5-10t-52.5-4q-46 0-76.5 16t-49 43T29-64.5 21 13v39l66 92q34-25 65-36t63-11q33 0 48 11t15 31q0 12-8.5 21.5t-23 17.5-32.5 14.5-37 14.5q-23 9-46 21t-42 29.5-31 41T46 353q0 34 13.5 63T98 465t60 31.5 78 11.5q57 0 100-19.5t75-43.5l-66-88q-27 20-53 31t-52 11q-56 0-56-39 0-12 8-20.5t21.5-15.5 31-13.5T281 297q24-9 47.5-20.5t43-28.5 31.5-41.5 12-58.5-13-63-39-50.5-64-34T211-12z"/><glyph glyph-name="uni0283" unicode="ʃ" horiz-adv-x="278" d="M36-196q-31 0-51.5 4T-51-182l26 108q10-3 19-5t20-2q29 0 40.5 19T66-1v514q0 41 9 77.5t31 63.5 57.5 43 89.5 16q28 0 46-4t32-10l-26-108q-8 3-14.5 5t-14.5 2q-35 0-49-19t-14-61V3q0-41-8.5-77t-29-63-54.5-43-85-16z"/><glyph glyph-name="uni0284" unicode="ʄ" horiz-adv-x="321" d="M56-196q-31 0-51.5 4T-31-182L-5-74q10-3 19-5t20-2q29 0 40.5 19T86-1v224H12v65l74 6v219q0 41 9 77.5t31 63.5 57.5 43 89.5 16q28 0 46-4t32-10l-26-108q-8 3-14.5 5t-14.5 2q-35 0-49-19t-14-61V294h71v-71h-71V3q0-41-8.5-77t-29-63-54.5-43-85-16z"/><glyph glyph-name="uni0288" unicode="ʈ" horiz-adv-x="383" d="M256-187q-46 0-78.5 14t-53 39-30 60.5T85 5v376H17v109l76 6 17 132h122V496h119V381H232V7q0-42 17.5-60.5T296-72q12 0 24.5 3t22.5 7l23-107q-20-6-47-12t-63-6z"/><glyph glyph-name="uni0289" unicode="ʉ" horiz-adv-x="617" d="M12 268v65l75 6v157h147V339h150v157h147V339h70v-71h-70V0H411l-11 69h-3q-32-38-68.5-59.5T241-12q-81 0-117.5 53T87 188v80H12zm284-155q28 0 47 13t41 42v100H234v-61q0-54 15-74t47-20z"/><glyph glyph-name="uni028A" unicode="ʊ" horiz-adv-x="558" d="M279-12q-57 0-101.5 18.5t-75 48.5T56 123t-16 78q0 60 22 105t49 72v3H29v115h214v-95q-28-35-42-73t-14-95q0-27 5.5-50t17-40 28.5-26.5 41-9.5 41 9.5 28.5 26.5 17 40 5.5 50q0 57-14 95t-42 73v95h213V381h-81v-3q27-27 49-72t22-105q0-40-16-78t-46.5-68-75-48.5T279-12z"/><glyph glyph-name="uni028B" unicode="ʋ" horiz-adv-x="552" d="M273-12q-98 0-155.5 57.5T60 217v279h147V219q0-59 19-85.5t54-26.5q41 0 62.5 45.5T364 277q0 60-12.5 88.5T312 394q-10 0-20-3l-16 109q14 5 29.5 6.5T344 508q36 0 67.5-12t54.5-37.5 36-65 13-94.5q0-70-15.5-127T454 74t-75.5-63.5T273-12z"/><glyph glyph-name="uni028C" unicode="ʌ" horiz-adv-x="523" d="M12 0l162 496h169L511 0H363l-65 234q-9 37-19 75.5T260 387h-4q-10-39-19.5-77.5T217 234L153 0H12z"/><glyph glyph-name="uni028D" unicode="ʍ" horiz-adv-x="776" d="M24 0l119 496h172l45-198q7-35 13.5-70t13.5-75h4q6 40 11.5 75t13.5 70l43 198h169L752 0H606l-48 230q-6 37-11 73t-11 74h-4q-7-38-14-75t-16-72L448 0H321l-56 230q-9 37-16 73t-15 74h-4q-7-38-11.5-74T207 230L160 0H24z"/><glyph glyph-name="uni028E" unicode="ʎ" horiz-adv-x="521" d="M12 0l181 524q18 46 37.5 81.5t45 59.5 58 36 76.5 12q23 0 39-2.5t31-7.5l-26-112q-7 2-16 4t-17 2q-37 0-57-18t-30-47l-16-49L509 0H362l-71 213q-11 34-20.5 69T251 354h-4q-8-35-16.5-70.5T213 213L153 0H12z"/><glyph glyph-name="uni028F" unicode="ʏ" horiz-adv-x="466" d="M160 0v150L-8 496h155l43-107q10-31 20.5-58.5T232 271h4q11 32 22 59.5t22 58.5l41 107h153L307 150V0H160z"/><glyph glyph-name="uni0290" unicode="ʐ" horiz-adv-x="460" d="M446-187q-47 0-78.5 15T316-132.5 287.5-77 279-13V0H38v79l208 302H61v115h368v-78L221 115h205V-1q0-37 9.5-53.5T469-71q14 0 29 6l26-108q-14-6-32-10t-46-4z"/><glyph glyph-name="uni0291" unicode="ʑ" horiz-adv-x="503" d="M287-82l-70 15q4 17 7.5 34T233 0H38v79l208 302H61v115h358v-78L211 115q15-2 29.5-2.5T269 111q28 66 63.5 104.5T413 254q48 0 76-27.5t28-82.5q0-29-10-55.5t-31.5-46-55-31T341 0h-35q-5-18-9.5-38.5T287-82zm92 189q31 0 45.5 12.5T439 149q0 27-30 27-15 0-32-16.5T343 107h36z"/><glyph glyph-name="uni0292" unicode="ʒ" horiz-adv-x="460" d="M211-196q-71 0-121 24T5-115l66 91q25-22 55-37.5T194-77q43 0 70.5 27.5T292 29q0 45-26 69t-70 24q-20 0-31-2.5t-28-9.5l-48 71 152 200H38v115h378v-78L267 222q41-3 73-18.5t54-40.5 33.5-58.5T439 32q0-55-18.5-97.5T371-137t-72.5-44-87.5-15z"/><glyph glyph-name="uni0294" unicode="ʔ" horiz-adv-x="448" d="M129 0v317q43 27 72.5 50t48 45 26.5 43.5 8 45.5q0 45-25 69t-68 24q-38 0-69-19t-56-45l-72 93q35 38 87 64t126 26q45 0 86-13t71.5-38.5 48.5-64 18-89.5q0-41-11.5-74.5t-32-63-49-55.5-62.5-53V0H129z"/><glyph glyph-name="uni0295" unicode="ʕ" horiz-adv-x="506" d="M197 0v262q-34 27-62.5 53t-49 55.5-32 63T42 508q0 51 19 89.5t51 64 74.5 38.5 89.5 13q69 0 118.5-26t84.5-64l-73-93q-22 26-50.5 45T292 594q-48 0-75.5-24T189 501q0-24 8-45.5t26.5-43.5 48-45 72.5-50V0H197z"/><glyph glyph-name="uni02A1" unicode="ʡ" horiz-adv-x="476" d="M144 0v201H11v110l76 6h75q76 55 106.5 98.5T299 501q0 45-25 69t-67 24q-38 0-69.5-19T82 530L9 623q36 38 88 64t126 26q45 0 86-13t71.5-38.5 48.5-64 18-89.5q0-28-9-53t-25-48.5-37.5-46T330 317h130V201H291V0H144z"/><glyph glyph-name="uni02A2" unicode="ʢ" horiz-adv-x="476" d="M186 0v201H17v116h129q-48 43-82 89T30 508q0 51 19 89.5t51 64 74.5 38.5 89.5 13q69 0 118.5-26t84.5-64l-73-93q-22 26-50.5 45T280 594q-48 0-75.5-24T177 501q0-42 30.5-85.5T314 317h76l76-6V201H333V0H186z"/><glyph glyph-name="uni01C2" unicode="ǂ" horiz-adv-x="330" d="M6 330v66l76 5h38v349h96V401h106v-71H216V205h106v-71H216v-384h-96v384H6v65l76 6h38v125H6z"/><glyph glyph-name="uni0298" unicode="ʘ" horiz-adv-x="556" d="M278-12q-51 0-93.5 22.5t-72.5 68T65 192 48 352q0 91 17 159t47 113 72.5 67 93.5 22 93.5-22 72.5-67 47-113 17-159q0-92-17-160T444 78.5t-72.5-68T278-12zm0 119q18 0 35 11.5t30.5 40 22 75.5 8.5 118q0 69-8.5 115t-22 74.5T313 582t-35 12-35.5-12-31-40.5T190 467t-8-115q0-71 8-118t21.5-75.5 31-40T278 107zm0 183q-26 0-45 18.5T214 353t19 44.5 45 18.5 45-18.5 19-44.5-19-44.5-45-18.5z"/><glyph glyph-name="f_f_i" unicode="ﬃ" horiz-adv-x="933" d="M406 0v381H237V0H90v381H24v109l66 5v23q0 38 10.5 72t33 59 58 39.5T278 703q32 0 59-5.5t44-12.5l-27-109q-12 5-25 8t-33 3q-26 0-42.5-16.5T237 519v-23h169v26q0 39 9.5 74t31.5 61 57 41 85 15q31 0 56.5-6t42.5-12l-27-108q-28 10-51 10-27 0-42-16.5T553 526v-30h89V381h-89V0H406zm316 0v496h147V0H722zm73 569q-37 0-61 21.5T710 646t24 55 61 21q38 0 61.5-21t23.5-55-23.5-55.5T795 569z"/><glyph glyph-name="f_f_l" unicode="ﬄ" horiz-adv-x="943" d="M406 0v381H237V0H90v381H24v109l66 5v23q0 38 10.5 72t33 59 58 39.5T278 703q32 0 59-5.5t44-12.5l-27-109q-12 5-25 8t-33 3q-26 0-42.5-16.5T237 519v-23h169v26q0 39 9.5 74t31.5 61 57 41 85 15q31 0 56.5-6t42.5-12l-27-108q-28 10-51 10-27 0-42-16.5T553 526v-30h89V381h-89V0H406zm451-12q-38 0-64 12t-41.5 33.5-22.5 52-7 68.5v547h147V148q0-23 8.5-32t17.5-9h8.5l9.5 2L931 0q-12-5-30.5-8.5T857-12z"/><glyph glyph-name="I.a" horiz-adv-x="396" d="M52 0v124h72v404H52v124h292V528h-73V124h73V0H52z"/><glyph glyph-name="Igrave.a" horiz-adv-x="396" d="M52 0v124h72v404H52v124h292V528h-73V124h73V0H52zm156 680L25 799l78 95 171-140z"/><glyph glyph-name="Iacute.a" horiz-adv-x="396" d="M52 0v124h72v404H52v124h292V528h-73V124h73V0H52zm136 680l-66 74 171 140 78-95z"/><glyph glyph-name="Icircumflex.a" horiz-adv-x="396" d="M52 0v124h72v404H52v124h292V528h-73V124h73V0H52zM28 724l90 111h160l90-111-64-39-104 84h-4L92 685z"/><glyph glyph-name="Itilde.a" horiz-adv-x="396" d="M52 0v124h72v404H52v124h292V528h-73V124h73V0H52zm217 692q-27 0-47 9t-36 20-29 20-25 9q-14 0-24-11t-13-38l-95 7q4 76 39 110t88 34q27 0 47-9t36-20 29-20 25-9q14 0 24 11t13 38l95-7q-4-75-39-109.5T269 692z"/><glyph glyph-name="Idieresis.a" horiz-adv-x="396" d="M52 0v124h72v404H52v124h292V528h-73V124h73V0H52zm35 700q-31 0-50.5 20T17 770t19.5 50T87 840t50.5-20 19.5-50-19.5-50T87 700zm222 0q-31 0-50.5 20T239 770t19.5 50 50.5 20 50.5-20 19.5-50-19.5-50-50.5-20z"/><glyph glyph-name="Imacron.a" horiz-adv-x="396" d="M52 0v124h72v404H52v124h292V528h-73V124h73V0H52zm-5 721v94h302v-94H47z"/><glyph glyph-name="Idotaccent.a" horiz-adv-x="396" d="M52 0v124h72v404H52v124h292V528h-73V124h73V0H52zm146 701q-37 0-61 21.5T113 778t24 55.5 61 21.5 61-21.5 24-55.5-24-55.5-61-21.5z"/><glyph glyph-name="uni01CF.a" horiz-adv-x="396" d="M52 0v124h72v404H52v124h292V528h-73V124h73V0H52zm66 702L28 812l64 40 104-84h4l104 84 64-40-90-110H118z"/><glyph glyph-name="uni1EC8.a" horiz-adv-x="396" d="M52 0v124h72v404H52v124h292V528h-73V124h73V0H52zm103 691l-12 58q19 4 32 10t13 20-18 22.5-62 11.5l17 73q93-2 131-26.5t38-64.5q0-26-11-44.5t-30-31-44.5-19.5-53.5-9z"/><glyph glyph-name="uni1ECA.a" horiz-adv-x="396" d="M52 0v124h72v404H52v124h292V528h-73V124h73V0H52zm147-225q-36 0-58.5 21.5T118-148t22.5 55.5T199-71t58.5-21.5T280-148t-22.5-55.5T199-225z"/><glyph glyph-name="Iogonek.a" horiz-adv-x="396" d="M204-223q-48 0-81.5 24.5T89-129q0 23 7.5 43T115-49.5t23.5 29T161 0H52v124h72v404H52v124h292V528h-73V124h73V0h-93q-26-21-40-44t-14-46q0-20 13-29t29-9q10 0 19 4.5t17 9.5l33-74q-19-15-48.5-25T204-223z"/><glyph glyph-name="uni012C.a" horiz-adv-x="396" d="M52 0v124h72v404H52v124h292V528h-73V124h73V0H52zm146 697q-75 0-115.5 35T35 834l80 14q7-31 28-48.5t55-17.5 55 17.5 28 48.5l80-14q-7-67-47.5-102T198 697z"/><glyph glyph-name="uni014A.a" horiz-adv-x="665" d="M414-182q-31 0-51.5 4T327-168l26 109q10-3 19-5t20-2q29 0 40.5 19.5T444 0h-7L267 325l-64 142h-4q5-54 11.5-116t6.5-120V0H77v652h151l170-324 64-144h4q-5 52-11.5 116T448 422v230h140V18q0-41-9-77.5T549.5-123t-54-43-81.5-16z"/><glyph glyph-name="a.a" horiz-adv-x="573" d="M242-12q-46 0-83.5 18t-64 51.5-41 81.5T39 248t18 109 47.5 81.5 67 51.5 76.5 18q38 0 69-14.5t60-46.5h4l12 49h115V0H388l-10 49h-4q-26-26-61-43.5T242-12zm38 120q24 0 43.5 10t37.5 35v203q-20 18-41 25t-41 7q-35 0-62-33.5T190 250q0-74 23.5-108t66.5-34z"/><glyph glyph-name="agrave.a" horiz-adv-x="573" d="M242-12q-46 0-83.5 18t-64 51.5-41 81.5T39 248t18 109 47.5 81.5 67 51.5 76.5 18q38 0 69-14.5t60-46.5h4l12 49h115V0H388l-10 49h-4q-26-26-61-43.5T242-12zm38 120q24 0 43.5 10t37.5 35v203q-20 18-41 25t-41 7q-35 0-62-33.5T190 250q0-74 23.5-108t66.5-34zm9 464L108 729l99 97 154-182z"/><glyph glyph-name="aacute.a" horiz-adv-x="573" d="M242-12q-46 0-83.5 18t-64 51.5-41 81.5T39 248t18 109 47.5 81.5 67 51.5 76.5 18q38 0 69-14.5t60-46.5h4l12 49h115V0H388l-10 49h-4q-26-26-61-43.5T242-12zm38 120q24 0 43.5 10t37.5 35v203q-20 18-41 25t-41 7q-35 0-62-33.5T190 250q0-74 23.5-108t66.5-34zm29 464l-72 72 154 182 99-97z"/><glyph glyph-name="acircumflex.a" horiz-adv-x="573" d="M242-12q-46 0-83.5 18t-64 51.5-41 81.5T39 248t18 109 47.5 81.5 67 51.5 76.5 18q38 0 69-14.5t60-46.5h4l12 49h115V0H388l-10 49h-4q-26-26-61-43.5T242-12zm38 120q24 0 43.5 10t37.5 35v203q-20 18-41 25t-41 7q-35 0-62-33.5T190 250q0-74 23.5-108t66.5-34zM116 613l108 131h150l108-131-56-52-125 92h-4l-125-92z"/><glyph glyph-name="atilde.a" horiz-adv-x="573" d="M242-12q-46 0-83.5 18t-64 51.5-41 81.5T39 248t18 109 47.5 81.5 67 51.5 76.5 18q38 0 69-14.5t60-46.5h4l12 49h115V0H388l-10 49h-4q-26-26-61-43.5T242-12zm38 120q24 0 43.5 10t37.5 35v203q-20 18-41 25t-41 7q-35 0-62-33.5T190 250q0-74 23.5-108t66.5-34zm85 465q-24 0-42.5 10t-34 22-28 22-24.5 10q-15 0-23.5-13T201 582l-92 5q2 78 34 115t90 37q24 0 42.5-10t34-22 28-22 24.5-10q29 0 35 55l92-5q-2-78-34-115t-90-37z"/><glyph glyph-name="adieresis.a" horiz-adv-x="573" d="M242-12q-46 0-83.5 18t-64 51.5-41 81.5T39 248t18 109 47.5 81.5 67 51.5 76.5 18q38 0 69-14.5t60-46.5h4l12 49h115V0H388l-10 49h-4q-26-26-61-43.5T242-12zm38 120q24 0 43.5 10t37.5 35v203q-20 18-41 25t-41 7q-35 0-62-33.5T190 250q0-74 23.5-108t66.5-34zm-90 461q-32 0-52 20.5T118 641q0 30 20 50.5t52 20.5 51.5-20.5T261 641q0-31-19.5-51.5T190 569zm218 0q-32 0-51.5 20.5T337 641q0 30 19.5 50.5T408 712t52-20.5 20-50.5q0-31-20-51.5T408 569z"/><glyph glyph-name="amacron.a" horiz-adv-x="573" d="M242-12q-46 0-83.5 18t-64 51.5-41 81.5T39 248t18 109 47.5 81.5 67 51.5 76.5 18q38 0 69-14.5t60-46.5h4l12 49h115V0H388l-10 49h-4q-26-26-61-43.5T242-12zm38 120q24 0 43.5 10t37.5 35v203q-20 18-41 25t-41 7q-35 0-62-33.5T190 250q0-74 23.5-108t66.5-34zM151 592v93h296v-93H151z"/><glyph glyph-name="abreve.a" horiz-adv-x="573" d="M242-12q-46 0-83.5 18t-64 51.5-41 81.5T39 248t18 109 47.5 81.5 67 51.5 76.5 18q38 0 69-14.5t60-46.5h4l12 49h115V0H388l-10 49h-4q-26-26-61-43.5T242-12zm38 120q24 0 43.5 10t37.5 35v203q-20 18-41 25t-41 7q-35 0-62-33.5T190 250q0-74 23.5-108t66.5-34zm19 464q-43 0-74 12t-52 33.5-31.5 50T130 729l84 14q5-32 25-55.5t60-23.5 60 23.5 25 55.5l84-14q-1-33-11.5-61.5t-31-50-52-33.5-74.5-12z"/><glyph glyph-name="aring.a" horiz-adv-x="573" d="M242-12q-46 0-83.5 18t-64 51.5-41 81.5T39 248t18 109 47.5 81.5 67 51.5 76.5 18q38 0 69-14.5t60-46.5h4l12 49h115V0H388l-10 49h-4q-26-26-61-43.5T242-12zm38 120q24 0 43.5 10t37.5 35v203q-20 18-41 25t-41 7q-35 0-62-33.5T190 250q0-74 23.5-108t66.5-34zm19 456q-66 0-99 30t-33 74 33 74 99 30 99-30 33-74-33-74-99-30zm0 55q18 0 30.5 13.5T342 668t-12.5 35.5T299 717t-30.5-13.5T256 668t12.5-35.5T299 619z"/><glyph glyph-name="uni01CE.a" horiz-adv-x="573" d="M242-12q-46 0-83.5 18t-64 51.5-41 81.5T39 248t18 109 47.5 81.5 67 51.5 76.5 18q38 0 69-14.5t60-46.5h4l12 49h115V0H388l-10 49h-4q-26-26-61-43.5T242-12zm38 120q24 0 43.5 10t37.5 35v203q-20 18-41 25t-41 7q-35 0-62-33.5T190 250q0-74 23.5-108t66.5-34zm-56 469L116 708l56 52 125-92h4l125 92 56-52-108-131H224z"/><glyph glyph-name="uni1EA1.a" horiz-adv-x="573" d="M242-12q-46 0-83.5 18t-64 51.5-41 81.5T39 248t18 109 47.5 81.5 67 51.5 76.5 18q38 0 69-14.5t60-46.5h4l12 49h115V0H388l-10 49h-4q-26-26-61-43.5T242-12zm38 120q24 0 43.5 10t37.5 35v203q-20 18-41 25t-41 7q-35 0-62-33.5T190 250q0-74 23.5-108t66.5-34zm21-333q-36 0-58.5 21.5T220-148t22.5 55.5T301-71t58.5-21.5T382-148t-22.5-55.5T301-225z"/><glyph glyph-name="uni1EA3.a" horiz-adv-x="573" d="M242-12q-46 0-83.5 18t-64 51.5-41 81.5T39 248t18 109 47.5 81.5 67 51.5 76.5 18q38 0 69-14.5t60-46.5h4l12 49h115V0H388l-10 49h-4q-26-26-61-43.5T242-12zm38 120q24 0 43.5 10t37.5 35v203q-20 18-41 25t-41 7q-35 0-62-33.5T190 250q0-74 23.5-108t66.5-34zm-24 460l-12 58q19 4 32 11.5t13 23.5q0 18-18 28.5T209 703l9 90q49-1 83-10.5t55-25 30.5-37.5 9.5-48-11.5-44.5-30.5-31-44.5-19.5-53.5-9z"/><glyph glyph-name="uni1EA5.a" horiz-adv-x="573" d="M242-12q-46 0-83.5 18t-64 51.5-41 81.5T39 248t18 109 47.5 81.5 67 51.5 76.5 18q38 0 69-14.5t60-46.5h4l12 49h115V0H388l-10 49h-4q-26-26-61-43.5T242-12zm38 120q24 0 43.5 10t37.5 35v203q-20 18-41 25t-41 7q-35 0-62-33.5T190 250q0-74 23.5-108t66.5-34zm-85 458l-47 52 93 92h116l93-92-47-52-102 65h-4zm224 116l79 127 78-51-101-120z"/><glyph glyph-name="uni1EA7.a" horiz-adv-x="573" d="M242-12q-46 0-83.5 18t-64 51.5-41 81.5T39 248t18 109 47.5 81.5 67 51.5 76.5 18q38 0 69-14.5t60-46.5h4l12 49h115V0H388l-10 49h-4q-26-26-61-43.5T242-12zm38 120q24 0 43.5 10t37.5 35v203q-20 18-41 25t-41 7q-35 0-62-33.5T190 250q0-74 23.5-108t66.5-34zm-85 458l-47 52 93 92h116l93-92-47-52-102 65h-4zm-16 116l-56-44L18 757l78 52z"/><glyph glyph-name="uni1EA9.a" horiz-adv-x="573" d="M242-12q-46 0-83.5 18t-64 51.5-41 81.5T39 248t18 109 47.5 81.5 67 51.5 76.5 18q38 0 69-14.5t60-46.5h4l12 49h115V0H388l-10 49h-4q-26-26-61-43.5T242-12zm38 120q24 0 43.5 10t37.5 35v203q-20 18-41 25t-41 7q-35 0-62-33.5T190 250q0-74 23.5-108t66.5-34zm-85 458l-47 52 93 92h116l93-92-47-52-102 65h-4zm242 78l-10 50q14 4 22 9.5t8 19.5-13.5 22-51.5 11l14 62q82-3 114.5-24t32.5-56q0-24-9.5-40.5t-25-27.5-36.5-17-45-9z"/><glyph glyph-name="uni1EAB.a" horiz-adv-x="573" d="M242-12q-46 0-83.5 18t-64 51.5-41 81.5T39 248t18 109 47.5 81.5 67 51.5 76.5 18q38 0 69-14.5t60-46.5h4l12 49h115V0H388l-10 49h-4q-26-26-61-43.5T242-12zm38 120q24 0 43.5 10t37.5 35v203q-20 18-41 25t-41 7q-35 0-62-33.5T190 250q0-74 23.5-108t66.5-34zm-85 458l-47 52 93 84h116l93-84-47-52-102 56h-4zm-44 161q6 57 29 84t61 27q21 0 36-6.5t27.5-14.5 23-14.5T349 796q23 0 31 38l67-7q-6-57-29-84t-61-27q-21 0-36 6.5T293.5 737t-23 14.5T249 758q-23 0-31-38z"/><glyph glyph-name="uni1EAD.a" horiz-adv-x="573" d="M242-12q-46 0-83.5 18t-64 51.5-41 81.5T39 248t18 109 47.5 81.5 67 51.5 76.5 18q38 0 69-14.5t60-46.5h4l12 49h115V0H388l-10 49h-4q-26-26-61-43.5T242-12zm38 120q24 0 43.5 10t37.5 35v203q-20 18-41 25t-41 7q-35 0-62-33.5T190 250q0-74 23.5-108t66.5-34zM116 613l108 131h150l108-131-56-52-125 92h-4l-125-92zm185-838q-36 0-58.5 21.5T220-148t22.5 55.5T301-71t58.5-21.5T382-148t-22.5-55.5T301-225z"/><glyph glyph-name="uni1EAF.a" horiz-adv-x="573" d="M242-12q-46 0-83.5 18t-64 51.5-41 81.5T39 248t18 109 47.5 81.5 67 51.5 76.5 18q38 0 69-14.5t60-46.5h4l12 49h115V0H388l-10 49h-4q-26-26-61-43.5T242-12zm38 120q24 0 43.5 10t37.5 35v203q-20 18-41 25t-41 7q-35 0-62-33.5T190 250q0-74 23.5-108t66.5-34zm28 591l-64 44 93 141 87-65zm-9-127q-43 0-74 12t-52 33.5-31.5 50T130 729l75 14q6-36 28-62t66-26 66 26 28 62l75-14q-1-33-11.5-61.5t-31-50-52-33.5-74.5-12z"/><glyph glyph-name="uni1EB1.a" horiz-adv-x="573" d="M242-12q-46 0-83.5 18t-64 51.5-41 81.5T39 248t18 109 47.5 81.5 67 51.5 76.5 18q38 0 69-14.5t60-46.5h4l12 49h115V0H388l-10 49h-4q-26-26-61-43.5T242-12zm38 120q24 0 43.5 10t37.5 35v203q-20 18-41 25t-41 7q-35 0-62-33.5T190 250q0-74 23.5-108t66.5-34zm10 591L174 819l87 65 93-141zm9-127q-43 0-74 12t-52 33.5-31.5 50T130 729l75 14q6-36 28-62t66-26 66 26 28 62l75-14q-1-33-11.5-61.5t-31-50-52-33.5-74.5-12z"/><glyph glyph-name="uni1EB3.a" horiz-adv-x="573" d="M242-12q-46 0-83.5 18t-64 51.5-41 81.5T39 248t18 109 47.5 81.5 67 51.5 76.5 18q38 0 69-14.5t60-46.5h4l12 49h115V0H388l-10 49h-4q-26-26-61-43.5T242-12zm38 120q24 0 43.5 10t37.5 35v203q-20 18-41 25t-41 7q-35 0-62-33.5T190 250q0-74 23.5-108t66.5-34zm-16 589l-9 51q14 2 23 8t9 20-14.5 22-53.5 11l14 80q83-3 116.5-29t33.5-69q0-24-9.5-41T348 722.5 310 706t-46-9zm35-125q-43 0-74 12t-52 33.5-31.5 50T130 729l75 14q6-36 28-62t66-26 66 26 28 62l75-14q-1-33-11.5-61.5t-31-50-52-33.5-74.5-12z"/><glyph glyph-name="uni1EB5.a" horiz-adv-x="573" d="M242-12q-46 0-83.5 18t-64 51.5-41 81.5T39 248t18 109 47.5 81.5 67 51.5 76.5 18q38 0 69-14.5t60-46.5h4l12 49h115V0H388l-10 49h-4q-26-26-61-43.5T242-12zm38 120q24 0 43.5 10t37.5 35v203q-20 18-41 25t-41 7q-35 0-62-33.5T190 250q0-74 23.5-108t66.5-34zm19 464q-39 0-67 9t-46.5 25-28.5 36-12 43l72 12q5-20 23.5-36t58.5-16 58.5 16 23.5 36l72-12q-2-23-12-43t-28.5-36-46.5-25-67-9zM143 725q6 58 31 85t67 27q21 0 36-6.5t27.5-14.5 23-14.5T349 795q22 0 31 37l75-7q-6-57-31-84t-67-27q-21 0-36 6.5T293.5 735t-23 14.5T249 756q-23 0-31-38z"/><glyph glyph-name="uni1EB7.a" horiz-adv-x="573" d="M242-12q-46 0-83.5 18t-64 51.5-41 81.5T39 248t18 109 47.5 81.5 67 51.5 76.5 18q38 0 69-14.5t60-46.5h4l12 49h115V0H388l-10 49h-4q-26-26-61-43.5T242-12zm38 120q24 0 43.5 10t37.5 35v203q-20 18-41 25t-41 7q-35 0-62-33.5T190 250q0-74 23.5-108t66.5-34zm19 464q-43 0-74 12t-52 33.5-31.5 50T130 729l84 14q5-32 25-55.5t60-23.5 60 23.5 25 55.5l84-14q-1-33-11.5-61.5t-31-50-52-33.5-74.5-12zm2-797q-36 0-58.5 21.5T220-148t22.5 55.5T301-71t58.5-21.5T382-148t-22.5-55.5T301-225z"/><glyph glyph-name="aogonek.a" horiz-adv-x="573" d="M427-210q-44 0-75 23t-31 68q0 22 7 40.5T345.5-45 368-19.5 390-2l-12 51h-4q-26-26-61-43.5T242-12q-46 0-83.5 18t-64 51.5-41 81.5T39 248t18 109 47.5 81.5 67 51.5 76.5 18q38 0 69-14.5t60-46.5h4l12 49h115V0q-49-15-68-38.5T421-85q0-20 12.5-29t28.5-9q10 0 19.5 3.5T498-111l31-66q-20-15-49-24t-53-9zM280 108q24 0 43.5 10t37.5 35v203q-20 18-41 25t-41 7q-35 0-62-33.5T190 250q0-74 23.5-108t66.5-34z"/><glyph glyph-name="g.a" horiz-adv-x="583" d="M261-194q-41 0-91.5 13.5T76-139l48 97q35-20 71-28.5t66-8.5q55 0 78 22.5T366 1l4 62q-25-23-56.5-36.5T247 13q-46 0-83.5 18t-64 50.5-41 77T44 257q0 57 18 103.5t47.5 79 67 50.5 76.5 18q38 0 68.5-13.5T380 450h4l11 46h118V5q0-97-65.5-148T261-194zm24 325q24 0 42.5 10.5T366 178v178q-20 18-41 25t-41 7q-37 0-64-33t-27-96q0-62 24.5-95t67.5-33z"/><glyph glyph-name="uni01F5.a" horiz-adv-x="583" d="M261-194q-41 0-91.5 13.5T76-139l48 97q35-20 71-28.5t66-8.5q55 0 78 22.5T366 1l4 62q-25-23-56.5-36.5T247 13q-46 0-83.5 18t-64 50.5-41 77T44 257q0 57 18 103.5t47.5 79 67 50.5 76.5 18q38 0 68.5-13.5T380 450h4l11 46h118V5q0-97-65.5-148T261-194zm24 325q24 0 42.5 10.5T366 178v178q-20 18-41 25t-41 7q-37 0-64-33t-27-96q0-62 24.5-95t67.5-33zm25 441l-72 72 154 182 99-97z"/><glyph glyph-name="gcircumflex.a" horiz-adv-x="583" d="M261-194q-41 0-91.5 13.5T76-139l48 97q35-20 71-28.5t66-8.5q55 0 78 22.5T366 1l4 62q-25-23-56.5-36.5T247 13q-46 0-83.5 18t-64 50.5-41 77T44 257q0 57 18 103.5t47.5 79 67 50.5 76.5 18q38 0 68.5-13.5T380 450h4l11 46h118V5q0-97-65.5-148T261-194zm24 325q24 0 42.5 10.5T366 178v178q-20 18-41 25t-41 7q-37 0-64-33t-27-96q0-62 24.5-95t67.5-33zM117 613l108 131h150l108-131-56-52-125 92h-4l-125-92z"/><glyph glyph-name="gbreve.a" horiz-adv-x="583" d="M261-194q-41 0-91.5 13.5T76-139l48 97q35-20 71-28.5t66-8.5q55 0 78 22.5T366 1l4 62q-25-23-56.5-36.5T247 13q-46 0-83.5 18t-64 50.5-41 77T44 257q0 57 18 103.5t47.5 79 67 50.5 76.5 18q38 0 68.5-13.5T380 450h4l11 46h118V5q0-97-65.5-148T261-194zm24 325q24 0 42.5 10.5T366 178v178q-20 18-41 25t-41 7q-37 0-64-33t-27-96q0-62 24.5-95t67.5-33zm15 441q-43 0-74 12t-52 33.5-31.5 50T131 729l84 14q5-32 25-55.5t60-23.5 60 23.5 25 55.5l84-14q-1-33-11.5-61.5t-31-50-52-33.5-74.5-12z"/><glyph glyph-name="gdotaccent.a" horiz-adv-x="583" d="M261-194q-41 0-91.5 13.5T76-139l48 97q35-20 71-28.5t66-8.5q55 0 78 22.5T366 1l4 62q-25-23-56.5-36.5T247 13q-46 0-83.5 18t-64 50.5-41 77T44 257q0 57 18 103.5t47.5 79 67 50.5 76.5 18q38 0 68.5-13.5T380 450h4l11 46h118V5q0-97-65.5-148T261-194zm24 325q24 0 42.5 10.5T366 178v178q-20 18-41 25t-41 7q-37 0-64-33t-27-96q0-62 24.5-95t67.5-33zm15 438q-36 0-58.5 21.5T219 646t22.5 55.5T300 723t58.5-21.5T381 646t-22.5-55.5T300 569z"/><glyph glyph-name="uni0123.a" horiz-adv-x="583" d="M261-194q-41 0-91.5 13.5T76-139l48 97q35-20 71-28.5t66-8.5q55 0 78 22.5T366 1l4 62q-25-23-56.5-36.5T247 13q-46 0-83.5 18t-64 50.5-41 77T44 257q0 57 18 103.5t47.5 79 67 50.5 76.5 18q38 0 68.5-13.5T380 450h4l11 46h118V5q0-97-65.5-148T261-194zm24 325q24 0 42.5 10.5T366 178v178q-20 18-41 25t-41 7q-37 0-64-33t-27-96q0-62 24.5-95t67.5-33zm61 437q-80 7-110.5 27T205 652q0 51 51.5 75.5T402 755l11-59q-59-3-81-12t-22-27q0-14 15-23t49-12z"/><glyph glyph-name="gcaron.a" horiz-adv-x="583" d="M261-194q-41 0-91.5 13.5T76-139l48 97q35-20 71-28.5t66-8.5q55 0 78 22.5T366 1l4 62q-25-23-56.5-36.5T247 13q-46 0-83.5 18t-64 50.5-41 77T44 257q0 57 18 103.5t47.5 79 67 50.5 76.5 18q38 0 68.5-13.5T380 450h4l11 46h118V5q0-97-65.5-148T261-194zm24 325q24 0 42.5 10.5T366 178v178q-20 18-41 25t-41 7q-37 0-64-33t-27-96q0-62 24.5-95t67.5-33zm-60 446L117 708l56 52 125-92h4l125 92 56-52-108-131H225z"/><glyph glyph-name="uni1E21.a" horiz-adv-x="583" d="M261-194q-41 0-91.5 13.5T76-139l48 97q35-20 71-28.5t66-8.5q55 0 78 22.5T366 1l4 62q-25-23-56.5-36.5T247 13q-46 0-83.5 18t-64 50.5-41 77T44 257q0 57 18 103.5t47.5 79 67 50.5 76.5 18q38 0 68.5-13.5T380 450h4l11 46h118V5q0-97-65.5-148T261-194zm24 325q24 0 42.5 10.5T366 178v178q-20 18-41 25t-41 7q-37 0-64-33t-27-96q0-62 24.5-95t67.5-33zM152 592v93h296v-93H152z"/><glyph glyph-name="uni00670303.a" horiz-adv-x="583" d="M261-194q-41 0-91.5 13.5T76-139l48 97q35-20 71-28.5t66-8.5q55 0 78 22.5T366 1l4 62q-25-23-56.5-36.5T247 13q-46 0-83.5 18t-64 50.5-41 77T44 257q0 57 18 103.5t47.5 79 67 50.5 76.5 18q38 0 68.5-13.5T380 450h4l11 46h118V5q0-97-65.5-148T261-194zm24 325q24 0 42.5 10.5T366 178v178q-20 18-41 25t-41 7q-37 0-64-33t-27-96q0-62 24.5-95t67.5-33zm81 442q-24 0-42.5 10t-34 22-28 22-24.5 10q-15 0-23.5-13T202 582l-92 5q2 78 34 115t90 37q24 0 42.5-10t34-22 28-22 24.5-10q29 0 35 55l92-5q-2-78-34-115t-90-37z"/><glyph glyph-name="l.a" horiz-adv-x="276" d="M65 0v701h147V0H65z"/><glyph glyph-name="lacute.a" horiz-adv-x="276" d="M65 0v701h147V0H65zm66 735l-66 74 171 140 78-95z"/><glyph glyph-name="lcaron.a" horiz-adv-x="318" d="M65 0v701h147V0H65zm190 548l-6 222h95l-2-69-24-153h-63z"/><glyph glyph-name="ldot.a" horiz-adv-x="453" d="M65 0v701h147V0H65zm299 236q-38 0-63.5 26.5T275 328q0 40 25.5 66.5T364 421t63.5-26.5T453 328q0-39-25.5-65.5T364 236z"/><glyph glyph-name="uni013C.a" horiz-adv-x="276" d="M65 0v701h147V0H65zM35-239l-11 59q59 3 81 12.5t22 26.5q0 14-15 23t-49 12l28 54q80-7 110.5-27t30.5-57q0-51-51.5-75.5T35-239z"/><glyph glyph-name="uni1E37.a" horiz-adv-x="276" d="M65 0v701h147V0H65zm72-225q-36 0-58.5 21.5T56-148t22.5 55.5T137-71t58.5-21.5T218-148t-22.5-55.5T137-225z"/><glyph glyph-name="uni1E39.a" horiz-adv-x="276" d="M65 0v701h147V0H65zm-76 804v93h296v-93H-11zM137-225q-36 0-58.5 21.5T56-148t22.5 55.5T137-71t58.5-21.5T218-148t-22.5-55.5T137-225z"/><glyph glyph-name="uni1E3B.a" horiz-adv-x="276" d="M65 0v701h147V0H65zm-76-187v93h296v-93H-11z"/><glyph glyph-name="lslash.a" horiz-adv-x="299" d="M30 250l-51 91 96 54v306h147V467l48 27 50-91-98-55V0H75v276z"/><glyph glyph-name="fl.a" horiz-adv-x="635" d="M90 0v381H24v109l66 5v27q0 39 9.5 74t31.5 61 57 41 85 15q31 0 56.5-6t42.5-12l-27-108q-28 10-51 10-27 0-42-16.5T237 526v-30h89V381h-89V0H90zm334 0v701h147V0H424z"/><glyph glyph-name="Alpha" unicode="Α" horiz-adv-x="573" d="M230 330l-16-60h139l-15 60q-14 49-27 104t-26 106h-4q-12-52-24.5-106.5T230 330zM-6 0l204 652h177L579 0H423l-40 155H184L144 0H-6z"/><glyph glyph-name="Beta" unicode="Β" horiz-adv-x="605" d="M77 0v652h223q51 0 94.5-7.5t76-26.5 51-50 18.5-78q0-22-6-44t-17-41-26.5-34-35.5-22v-4q25-6 46-18.5t37-31.5 25-44.5 9-58.5q0-50-19.5-86t-54-59.5-80.5-35T319 0H77zm147 391h69q54 0 78.5 21t24.5 56q0 38-25 54t-77 16h-70V391zm0-277h83q121 0 121 88 0 43-30 61.5T307 282h-83V114z"/><glyph glyph-name="Gamma" unicode="Γ" horiz-adv-x="521" d="M77 0v652h411V528H224V0H77z"/><glyph glyph-name="uni0394" unicode="Δ" horiz-adv-x="640" d="M34 0v89l198 563h176L606 89V0H34zm158 124h252l-69 220-56 195h-4l-55-195z"/><glyph glyph-name="Epsilon" unicode="Ε" horiz-adv-x="548" d="M77 0v652h408V528H224V397h222V274H224V124h271V0H77z"/><glyph glyph-name="Zeta" unicode="Ζ" horiz-adv-x="541" d="M36 0v89l288 439H63v124h442v-89L217 124h291V0H36z"/><glyph glyph-name="Eta" unicode="Η" horiz-adv-x="674" d="M77 0v652h147V401h225v251h148V0H449v272H224V0H77z"/><glyph glyph-name="Theta" unicode="Θ" horiz-adv-x="684" d="M244 272v129h196V272H244zm98-284q-66 0-120.5 23.5T128 79 67.5 186 46 329t21.5 142.5 60.5 105 93.5 65T342 664t120.5-22.5T556 576t60.5-105.5T638 329q0-80-21.5-143T556 79t-93.5-67.5T342-12zm0 127q67 0 106 57.5T487 329q0 98-39 153t-106 55-106-55-39-153q0-99 39-156.5T342 115z"/><glyph glyph-name="Iota" unicode="Ι" horiz-adv-x="301" d="M77 0v652h147V0H77z"/><glyph glyph-name="Kappa" unicode="Κ" horiz-adv-x="614" d="M77 0v652h147V385h4l194 267h162L387 392 620 0H459L300 275l-76-100V0H77z"/><glyph glyph-name="Lambda" unicode="Λ" horiz-adv-x="556" d="M-7 0l196 652h177L563 0H407l-78 304q-15 54-26.5 104.5T277 513h-4q-15-54-27-104.5T220 304L143 0H-7z"/><glyph glyph-name="Mu" unicode="Μ" horiz-adv-x="762" d="M77 0v652h161l105-290q10-29 19-59.5t19-60.5h4q10 30 18.5 60.5T422 362l103 290h160V0H551v239q0 24 2 53t5 58.5 6 58 6 52.5h-4l-53-155-93-249h-81l-93 249-52 155h-4q3-24 6-52.5t6-58 5-58.5 2-53V0H77z"/><glyph glyph-name="Nu" unicode="Ν" horiz-adv-x="665" d="M77 0v652h151l170-324 64-144h4q-5 52-11.5 116T448 422v230h140V0H437L267 325l-64 142h-4q5-54 11.5-116t6.5-120V0H77z"/><glyph glyph-name="Xi" unicode="Ξ" horiz-adv-x="571" d="M53 0v124h466V0H53zm68 274v123h329V274H121zM63 528v124h446V528H63z"/><glyph glyph-name="Omicron" unicode="Ο" horiz-adv-x="684" d="M342-12q-66 0-120.5 23.5T128 79 67.5 186 46 329t21.5 142.5 60.5 105 93.5 65T342 664t120.5-22.5T556 576t60.5-105.5T638 329q0-80-21.5-143T556 79t-93.5-67.5T342-12zm0 127q67 0 106 57.5T487 329q0 98-39 153t-106 55-106-55-39-153q0-99 39-156.5T342 115z"/><glyph glyph-name="Pi" unicode="Π" horiz-adv-x="663" d="M77 0v652h509V0H439v528H224V0H77z"/><glyph glyph-name="Rho" unicode="Ρ" horiz-adv-x="596" d="M77 0v652h224q54 0 101-10.5t82-35 55.5-65T560 442q0-57-20.5-99T484 274t-81-40-98-13h-81V0H77zm147 338h72q120 0 120 104 0 51-32 72t-92 21h-68V338z"/><glyph glyph-name="Sigma" unicode="Σ" horiz-adv-x="549" d="M38 0v89l202 240L41 563v89h447V528H225l162-195-165-209h293V0H38z"/><glyph glyph-name="Tau" unicode="Τ" horiz-adv-x="556" d="M204 0v528H25v124h506V528H352V0H204z"/><glyph glyph-name="Upsilon" unicode="Υ" horiz-adv-x="525" d="M189 0v232L-8 652h158l58-150q14-37 26.5-71.5T261 358h4q14 38 27.5 72.5T320 502l59 150h154L336 232V0H189z"/><glyph glyph-name="Phi" unicode="Φ" horiz-adv-x="760" d="M187 329q0-63 34.5-103t93.5-49v301q-59-9-93.5-47.5T187 329zm386 0q0 63-34.5 101.5T445 478V177q59 9 93.5 49T573 329zM315-22v87q-60 5-109.5 24.5t-84.5 53T67 223 48 329t19 105 54 78.5 84.5 51.5T315 588v86h130v-86q60-5 109.5-24t84.5-51.5 54-78.5 19-105-19-106-54-80.5-84.5-53T445 65v-87H315z"/><glyph glyph-name="Chi" unicode="Χ" horiz-adv-x="567" d="M11 0l181 335L22 652h164l57-123q11-23 22-48.5t25-56.5h4q11 31 21.5 56.5T336 529l52 123h157L376 328 556 0H392l-65 133q-12 26-23.5 51.5T278 240h-4q-11-30-22-55.5T230 133L169 0H11z"/><glyph glyph-name="Psi" unicode="Ψ" horiz-adv-x="752" d="M307 0v219q-60 4-107 22t-80 51-50.5 82.5T52 491v161h144V500q0-84 28.5-120.5T307 336v316h138V336q54 7 82 43.5T555 500v152h144V491q0-67-17.5-116.5T631 292t-80-51-106-22V0H307z"/><glyph glyph-name="uni03A9" unicode="Ω" horiz-adv-x="711" d="M44 0v119h110v4q-16 16-33 40t-30.5 53.5-22 65T60 358q0 68 21 124t60 96.5 93.5 63T356 664q66 0 120.5-22.5t93.5-63 60.5-96.5T652 358q0-41-9-76.5t-22.5-65T590 163t-33-40v-4h110V0H400v106q51 48 76 104t25 133q0 42-10 78t-29 61.5-45.5 40T356 537t-61-14.5-45.5-40T221 421t-10-78q0-77 24.5-133T311 106V0H44z"/><glyph glyph-name="Alphatonos" unicode="Ά" horiz-adv-x="622" d="M279 330l-16-60h139l-15 60q-14 49-27 104t-26 106h-4q-12-52-24.5-106.5T279 330zM43 0l204 652h177L628 0H472l-40 155H233L193 0H43zM-5 457l28 213 125-18-60-212z"/><glyph glyph-name="Epsilontonos" unicode="Έ" horiz-adv-x="667" d="M196 0v652h408V528H343V397h222V274H343V124h271V0H196zM-12 457l28 213 125-18-60-212z"/><glyph glyph-name="Etatonos" unicode="Ή" horiz-adv-x="792" d="M196 0v652h147V401h225v251h148V0H568v272H343V0H196zM-12 457l28 213 125-18-60-212z"/><glyph glyph-name="Iotatonos" unicode="Ί" horiz-adv-x="420" d="M196 0v652h147V0H196zM-12 457l28 213 125-18-60-212z"/><glyph glyph-name="Iotadieresis" unicode="Ϊ" horiz-adv-x="301" d="M77 0v652h147V0H77zM39 700q-31 0-50.5 20T-31 770t19.5 50T39 840t50.5-20 19.5-50-19.5-50T39 700zm222 0q-31 0-50.5 20T191 770t19.5 50 50.5 20 50.5-20 19.5-50-19.5-50-50.5-20z"/><glyph glyph-name="Omicrontonos" unicode="Ό" horiz-adv-x="777" d="M434-12q-66 0-120.5 23.5T220 79t-60.5 107T138 329t21.5 142.5 60.5 105 93.5 65T434 664t120.5-22.5T648 576t60.5-105.5T730 329q0-80-21.5-143T648 79t-93.5-67.5T434-12zm0 127q67 0 106 57.5T579 329q0 98-39 153t-106 55-106-55-39-153q0-99 39-156.5T434 115zM-12 457l28 213 125-18-60-212z"/><glyph glyph-name="Upsilontonos" unicode="Ύ" horiz-adv-x="704" d="M368 0v232L171 652h158l58-150q14-37 26.5-71.5T440 358h4q14 38 27.5 72.5T499 502l59 150h154L515 232V0H368zM-12 457l28 213 125-18-60-212z"/><glyph glyph-name="Upsilondieresis" unicode="Ϋ" horiz-adv-x="525" d="M189 0v232L-8 652h158l58-150q14-37 26.5-71.5T261 358h4q14 38 27.5 72.5T320 502l59 150h154L336 232V0H189zm-38 700q-31 0-50.5 20T81 770t19.5 50 50.5 20 50.5-20 19.5-50-19.5-50-50.5-20zm222 0q-31 0-50.5 20T303 770t19.5 50 50.5 20 50.5-20 19.5-50-19.5-50-50.5-20z"/><glyph glyph-name="Omegatonos" unicode="Ώ" horiz-adv-x="803" d="M136 0v119h110v4q-16 16-33 40t-30.5 53.5-22 65T152 358q0 68 21 124t60 96.5 93.5 63T448 664q66 0 120.5-22.5t93.5-63 60.5-96.5T744 358q0-41-9-76.5t-22.5-65T682 163t-33-40v-4h110V0H492v106q51 48 76 104t25 133q0 42-10 78t-29 61.5-45.5 40T448 537t-61-14.5-45.5-40T313 421t-10-78q0-77 24.5-133T403 106V0H136zM-19 457L9 670l125-18-60-212z"/><glyph glyph-name="alpha" unicode="α" horiz-adv-x="595" d="M235-12q-45 0-81.5 17.5T90.5 56 50 137 36 246t18 110 48.5 82.5 70 51.5 82.5 18q42 0 77.5-22.5T392 409h4l16 87h145q-10-43-21-91.5t-20.5-95-16-88T493 152q0-25 13.5-35t34.5-10q15 0 32 6L591 5q-14-7-35.5-12T504-12q-53 0-83.5 18.5T376 70h-3q-50-82-138-82zm35 120q16 0 32 8.5t28.5 23 20.5 34 9 41.5l7 86q-31 87-89 87-17 0-33.5-8t-29-25.5-20.5-44-8-63.5q0-72 22.5-105.5T270 108z"/><glyph glyph-name="beta" unicode="β" horiz-adv-x="600" d="M64-177v643q0 52 14 97t42.5 78.5 72 52.5T296 713q41 0 80-11t69.5-33.5 49-56.5 18.5-81q0-51-21.5-87.5T429 381v-4q28-6 53-21t43.5-38 29-53 10.5-65q0-55-17.5-95t-46-66-64-38.5T366-12q-41 0-83.5 13.5T202 55q3-60 5.5-117.5T213-177H64zm259 285q40 0 69 25t29 76q0 39-23 67t-70 28q-22 0-40-6l-18 107q58 8 80 39t22 73q0 41-23 60.5T296 597q-44 0-66-38t-24-102q-2-73-3.5-144T201 169q29-38 61-49.5t61-11.5z"/><glyph glyph-name="gamma" unicode="γ" horiz-adv-x="533" d="M185-177q2 15 3.5 29t2 29 1 33.5.5 44.5q0 47-15.5 112.5t-41.5 137T74 350-1 476l150 32q16-25 34-62t35.5-81.5 33.5-95T282 166h4q74 152 84 330h146q-11-63-24.5-118T457 266.5 404 149 324 13q8-47 10.5-97.5T337-177H185z"/><glyph glyph-name="delta" unicode="δ" horiz-adv-x="548" d="M273-12q-48 0-90 15.5t-73.5 45-50 71.5T41 216q0 39 12 71t33 57.5 48.5 45T192 422q-21 15-39.5 33t-33 38.5-23 44.5-8.5 53q0 24 11 46.5t33.5 39T189 703t81 10q54 0 111-11.5T490 673l-33-109q-53 18-101 29t-86 11q-24 0-35-7.5T224 577q0-13 11.5-26.5t31-28.5 44.5-32 53-37q33-24 60-48t45.5-51 28.5-59 10-72q0-53-16-96t-46.5-74-74-48T273-12zm3 119q40 0 65 27.5t25 89.5q0 43-22 74t-55 57q-51-14-80-47t-29-90q0-54 28.5-82.5T276 107z"/><glyph glyph-name="epsilon" unicode="ε" horiz-adv-x="471" d="M268-12q-48 0-90.5 9.5t-74 28.5T54 74t-18 67q0 51 25.5 78.5T132 259v4q-38 12-56.5 42.5T57 366q0 37 17.5 64t47 44 68 25.5T270 508q45 0 89.5-13.5T441 457l-54-94q-50 33-109 33-35 0-56-13.5T201 346q0-44 70-44 16 0 34 1t35 3V201q-21 2-43 3t-42 1q-39 0-57-11.5T180 156t25.5-41 76.5-15q24 0 53.5 8t58.5 30l57-93q-48-35-91.5-46T268-12z"/><glyph glyph-name="zeta" unicode="ζ" horiz-adv-x="466" d="M389-187l-115 38q21 29 33.5 48T320-62q0 10-4.5 17.5t-15 13.5T271-19.5 224-8q-35 7-67.5 22T98 56t-41.5 68.5T41 228q0 44 17.5 91.5t49 95 75 93.5 96.5 86q-16-1-41.5-1.5t-55-1.5-58.5-2.5-52-3.5v116h368V585h-6q-49-30-93-74t-77.5-92.5-53-97T191 236q0-30 6-51.5t20-36.5 36.5-24.5T310 107q75-15 107-43.5T449-23q0-26-14-70.5T389-187z"/><glyph glyph-name="eta" unicode="η" horiz-adv-x="562" d="M353-177q2 58 4 122.5T360.5 72t2.5 118 1 99q0 54-13 74t-46 20q-26 0-47.5-18T212 311V0H65v344q0 29-2 70t-9 82h131l10-86h4q32 42 69 70t89 28q79 0 112-53.5T502 308v-485H353z"/><glyph glyph-name="theta" unicode="θ" horiz-adv-x="549" d="M275-12q-51 0-93 22.5t-71.5 68-46 113.5T48 352q0 91 16.5 159t46 113 71.5 67 93 22 92.5-22 71-67 46-113T501 352q0-92-16.5-160t-46-113.5-71-68T275-12zm0 606q-16 0-30-8t-25-29.5-18.5-59T192 401h166q-2 59-9.5 96.5t-18.5 59-25 29.5-30 8zm0-487q16 0 30 8.5t25 31 18.5 60.5 9.5 97H192q2-59 9.5-97t18.5-60.5 25-31 30-8.5z"/><glyph glyph-name="iota" unicode="ι" horiz-adv-x="301" d="M206-12q-41 0-68.5 12T94 33.5 71.5 86 65 155v341h148q-1-44-3-91.5t-3.5-94T204 222t-1-73q0-24 10.5-33t30.5-9q6 0 15 1.5t17 4.5L293 4q-16-7-35.5-11.5T206-12z"/><glyph glyph-name="kappa" unicode="κ" horiz-adv-x="546" d="M386-11q-58 73-126 209-2-3-7-8-27-29-38.5-66.5T203 29V0H65v344q0 29-2 71t-10 81h146q5-24 7-55.5t2-66.5v-93h4q28 43 58.5 81.5t65 69 73 50.5 82.5 26l12-137q-38-9-72-27.5T356 290q18-36 42-76t49.5-78T500 62.5 551 0z"/><glyph glyph-name="lambda" unicode="λ" horiz-adv-x="552" d="M172-11L13 0l213 498-3 14q-9 38-33.5 57.5T133 589q-23 0-38-4t-32-12L31 692q24 10 49.5 15.5T150 713q86 0 138-50t84-159L548 0H390l-97 334h-4z"/><glyph glyph-name="uni03BC" unicode="μ" horiz-adv-x="594" d="M65-177v673h147V207q0-53 14.5-73.5T273 113q25 0 45 14.5t40 50.5v318h148q-1-44-3-91.5t-3.5-94T497 222t-1-73q0-24 12-33t32-9q15 0 32 6L589 4q-16-7-35.5-11.5T502-12q-104 0-128 83h-4Q333-7 265-7q-18 0-34 4.5T203 16q0-28 1-52t2-46.5 2.5-45.5 4.5-49H65z"/><glyph glyph-name="nu" unicode="ν" horiz-adv-x="523" d="M182 0q-11 69-30 135t-43 126.5-52 115T-1 476l150 32q20-34 39.5-79.5t36.5-94 30-97 21-87.5h4q37 85 55 172.5T360 496h146q-11-66-26-126t-36.5-119-51-120.5T322 0H182z"/><glyph glyph-name="xi" unicode="ξ" horiz-adv-x="469" d="M392-187l-115 38q22 29 34.5 48T324-62t-20 31-76 23q-38 8-72 21.5t-59.5 36-40 55T42 184q0 32 11 61t29.5 52.5 43.5 41 53 26.5v4q-44 17-67.5 52.5T88 502q0 26 11.5 51t34.5 41q-14-1-26.5-1.5t-26-1.5-29-2.5T17 585v116h426V585H326q-41 0-66-23.5T235 497q0-17 6-33.5t17.5-29 27-20T321 407q21 0 37 1.5t36 7.5V301q-23 5-42 7t-39 2q-25 0-47-7.5t-38-21-25.5-32.5-9.5-42q0-26 7.5-42t23.5-27 40.5-18 57.5-13q40-8 65.5-18.5t40-25.5 20-36 5.5-50q0-26-14.5-70.5T392-187z"/><glyph glyph-name="omicron" unicode="ο" horiz-adv-x="553" d="M276-12q-47 0-90.5 17.5T109 56t-53 81.5T36 248t20 110.5 53 81.5 76.5 50.5T276 508q48 0 91.5-17.5T444 440t53-81.5T517 248t-20-110.5T444 56 367.5 5.5 276-12zm0 119q47 0 68.5 38T366 248t-21.5 103-68.5 38q-46 0-67.5-38T187 248t21.5-103 67.5-38z"/><glyph glyph-name="pi" unicode="π" horiz-adv-x="635" d="M522-12q-42 0-70 12t-45.5 34.5-25 53.5-7.5 70q0 11 .5 35.5T376 249t1.5 65.5.5 65.5H263q0-89-8-189.5T237-9L90 0q18 100 27 198.5t9 181.5H18v110l74 6h520V380h-93q-2-33-3.5-69.5T513 242t-1-56.5V152q0-26 11.5-35.5T557 107q7 0 16.5 1t20.5 3L611 3q-14-6-37.5-10.5T522-12z"/><glyph glyph-name="rho" unicode="ρ" horiz-adv-x="569" d="M61-177v414q0 70 18 121.5t50 84.5 75 49 94 16q109 0 170-66t61-186q0-64-17.5-113.5t-46-84T400 6t-76-18q-32 0-65 11.5T199 43q3-57 5.5-111t4.5-109H61zm228 285q37 0 63.5 34.5T379 254q0 134-86 134-42 0-68-37t-26-100V148q23-24 45.5-32t44.5-8z"/><glyph glyph-name="sigma" unicode="σ" horiz-adv-x="573" d="M271-12q-48 0-91 16.5t-75 49T54.5 133 36 242q0 64 20.5 112t54 79.5 77 47T278 496h283V375q-20 2-37.5 4t-34 3.5-33 2.5-35.5 1v-4q37-21 57-63.5t20-99.5q0-54-17-96.5T434 50 362.5 4 271-12zm2 119q40 0 62.5 33t22.5 94q0 29-5.5 55T336 334.5t-26.5 31T273 377q-40 0-63-31.5T187 242q0-65 23-100t63-35z"/><glyph glyph-name="tau" unicode="τ" horiz-adv-x="492" d="M311-12q-39 0-65.5 12t-43 34.5T179 88t-7 70v223H26v109l74 6h366V381H316q-3-65-4-124.5T311 152q0-26 10.5-35.5T349 107q14 0 26.5 1.5T405 115L424 5q-24-7-52.5-12T311-12z"/><glyph glyph-name="upsilon" unicode="υ" horiz-adv-x="532" d="M260-12q-56 0-95.5 15.5T99.5 47 62 114t-12 86q0 35 2 71.5t2 72.5q0 29-2 70t-9 82h142q5-26 7-56.5t2-65.5q0-32-3-84.5T188 187q0-40 20.5-60t51.5-20q40 0 61 35t21 111q0 48-7.5 102T309 477l142 31q17-60 27.5-122.5T489 260q0-127-58.5-199.5T260-12z"/><glyph glyph-name="phi" unicode="φ" horiz-adv-x="738" d="M187 248q0-69 31-106t84-40v292q-53-3-84-40t-31-106zm364 0q0 69-30.5 106T436 394V102q53 3 84 40t31 106zM302-177V-8q-52 3-100 20.5t-85 50-59 79T36 248t22 106.5 59 79 85 50T302 504v124h134V504q52-3 100-20.5t85-50 59-79T702 248t-22-106.5-59-79-85-50T436-8v-169H302z"/><glyph glyph-name="chi" unicode="χ" horiz-adv-x="526" d="M160-189L8-177l189 342L8 476l145 32 115-214h4l88 202h153L342 169l198-326-145-32L272 48h-4z"/><glyph glyph-name="psi" unicode="ψ" horiz-adv-x="752" d="M307-177v165q-71 1-119 22t-77.5 54.5-42.5 78T55 237v107q0 29-2 70t-9 82h142q6-26 7.5-56.5T195 374q0-15-.5-35t-.5-40.5-.5-40-.5-33.5q0-24 5.5-46t19-39 35.5-27 54-10v525h134V103q58 2 87.5 40T558 274q0 46-7 93.5T526 477l142 31q18-55 28-111.5T706 281q0-141-67-216T441-12v-165H307z"/><glyph glyph-name="omega" unicode="ω" horiz-adv-x="746" d="M234-12q-90 0-142 67.5T40 253q0 31 6 64.5t16 67 24 65 31 58.5l138-52q-37-60-56.5-115T179 224q0-53 15-85t47-32q65 0 65 93 0 17-1 31.5t-2.5 29.5-3.5 31.5-5 38.5h155q-3-22-5-38.5t-3.5-31.5-2.5-29.5-1-31.5q0-53 15-73t45-20q28 0 45 35.5T559 247q0 30-3 56t-10.5 50.5-20 50T495 459l135 49q34-54 55-114t21-138q0-129-48.5-198.5T517-12q-45 0-84 21t-59 73h-4q-20-52-55.5-73T234-12z"/><glyph glyph-name="uni03C2" unicode="ς" horiz-adv-x="446" d="M349-186l-116 38q21 29 35 50t14 41q0 24-12.5 38.5T226 7q-35 12-69 29T96 81.5t-43.5 71T36 257q0 60 20 106.5t53.5 78.5 78.5 49 95 17q46 0 83-15t64-38l-70-95q-33 29-68 29-50 0-77.5-36T187 257q0-31 6.5-52t19.5-36 31.5-25 42.5-19q35-12 58.5-24.5t38-29 21-38T411-19q0-26-15-72t-47-95z"/><glyph glyph-name="uni03D0" unicode="ϐ" horiz-adv-x="592" d="M319-12q-48 0-93.5 14T144 46.5t-58 79T64 243v223q0 52 13.5 97t41 78 69.5 51.5 99 18.5q41 0 80-10.5t69.5-32.5 49-56 18.5-81q0-51-24.5-89T402 381v-4q34-5 62.5-20.5t49-39 32-54T557 198q0-54-19-93.5T486.5 39 410.5.5 319-12zM206 457q-2-38-3-72 49 12 80.5 26t49 30 24 34.5T363 515q0 42-20 61t-49 19q-43 0-64-37t-24-101zm108-342q41 0 69.5 23.5T412 208q0 40-24 69.5T310 307q-19 0-42.5-6.5T201 280v-24q0-39 10.5-66t26.5-43.5 36-24 40-7.5z"/><glyph glyph-name="uni03D1" unicode="ϑ" horiz-adv-x="549" d="M185 513q0-22 7-43.5t25.5-37 52.5-23 88-1.5q-3 54-12 90.5t-22.5 58-31 30T255 594q-34-1-52-25t-18-56zm89-525q-54 0-91.5 13.5T121 40 86 99.5 75 175q0 35-1 60t-8 48h138q3-6 5-16t2.5-22 1-25 .5-24q0-51 17-70t49-19q18 0 32 8t24 31 16 64.5 8 108.5q-63-7-110.5-1t-82 21-57 37T74 423t-18.5 50-5.5 46q0 40 15 75.5t41.5 61.5 63 41.5T248 713q122 0 187.5-92.5T501 355q0-187-56-277T274-12z"/><glyph glyph-name="uni03D5" unicode="ϕ" horiz-adv-x="738" d="M304-177V-8q-54 2-103 20t-85.5 51.5-58 82.5T36 258q0 33 7.5 67.5t21.5 68 32.5 65T139 516l122-85q-38-47-56.5-91.5T186 244q0-61 27.5-99.5T304 101v157q0 67 14.5 114.5T358 450t59.5 44 75.5 14q97 0 153-63.5T702 264q0-63-22-112.5t-58.5-84T537 14 438-8q1-85 6-169H304zm130 456v-88.5l1-89.5q54 6 85 41t31 112q0 72-17 103t-46 31q-25 0-39.5-26T434 279z"/><glyph glyph-name="alphatonos" unicode="ά" horiz-adv-x="595" d="M235-12q-45 0-81.5 17.5T90.5 56 50 137 36 246t18 110 48.5 82.5 70 51.5 82.5 18q42 0 77.5-22.5T392 409h4l16 87h145q-10-43-21-91.5t-20.5-95-16-88T493 152q0-25 13.5-35t34.5-10q15 0 32 6L591 5q-14-7-35.5-12T504-12q-53 0-83.5 18.5T376 70h-3q-50-82-138-82zm35 120q16 0 32 8.5t28.5 23 20.5 34 9 41.5l7 86q-31 87-89 87-17 0-33.5-8t-29-25.5-20.5-44-8-63.5q0-72 22.5-105.5T270 108zm-31 465l34 220 143-24-79-214z"/><glyph glyph-name="epsilontonos" unicode="έ" horiz-adv-x="471" d="M268-12q-48 0-90.5 9.5t-74 28.5T54 74t-18 67q0 51 25.5 78.5T132 259v4q-38 12-56.5 42.5T57 366q0 37 17.5 64t47 44 68 25.5T270 508q45 0 89.5-13.5T441 457l-54-94q-50 33-109 33-35 0-56-13.5T201 346q0-44 70-44 16 0 34 1t35 3V201q-21 2-43 3t-42 1q-39 0-57-11.5T180 156t25.5-41 76.5-15q24 0 53.5 8t58.5 30l57-93q-48-35-91.5-46T268-12zm-62 585l34 220 143-24-79-214z"/><glyph glyph-name="etatonos" unicode="ή" horiz-adv-x="562" d="M353-177q2 58 4 122.5T360.5 72t2.5 118 1 99q0 54-13 74t-46 20q-26 0-47.5-18T212 311V0H65v344q0 29-2 70t-9 82h131l10-86h4q32 42 69 70t89 28q79 0 112-53.5T502 308v-485H353zM252 573l34 220 143-24-79-214z"/><glyph glyph-name="iotatonos" unicode="ί" horiz-adv-x="301" d="M206-12q-41 0-68.5 12T94 33.5 71.5 86 65 155v341h148q-1-44-3-91.5t-3.5-94T204 222t-1-73q0-24 10.5-33t30.5-9q6 0 15 1.5t17 4.5L293 4q-16-7-35.5-11.5T206-12zM84 573l34 220 143-24-79-214z"/><glyph glyph-name="iotadieresis" unicode="ϊ" horiz-adv-x="301" d="M206-12q-41 0-68.5 12T94 33.5 71.5 86 65 155v341h148q-1-44-3-91.5t-3.5-94T204 222t-1-73q0-24 10.5-33t30.5-9q6 0 15 1.5t17 4.5L293 4q-16-7-35.5-11.5T206-12zM29 569q-32 0-52 20.5T-43 641q0 30 20 50.5T29 712t51.5-20.5T100 641q0-31-19.5-51.5T29 569zm218 0q-32 0-51.5 20.5T176 641q0 30 19.5 50.5T247 712t52-20.5 20-50.5q0-31-20-51.5T247 569z"/><glyph glyph-name="omicrontonos" unicode="ό" horiz-adv-x="553" d="M276-12q-47 0-90.5 17.5T109 56t-53 81.5T36 248t20 110.5 53 81.5 76.5 50.5T276 508q48 0 91.5-17.5T444 440t53-81.5T517 248t-20-110.5T444 56 367.5 5.5 276-12zm0 119q47 0 68.5 38T366 248t-21.5 103-68.5 38q-46 0-67.5-38T187 248t21.5-103 67.5-38zm-51 466l34 220 143-24-79-214z"/><glyph glyph-name="upsilontonos" unicode="ύ" horiz-adv-x="532" d="M260-12q-56 0-95.5 15.5T99.5 47 62 114t-12 86q0 35 2 71.5t2 72.5q0 29-2 70t-9 82h142q5-26 7-56.5t2-65.5q0-32-3-84.5T188 187q0-40 20.5-60t51.5-20q40 0 61 35t21 111q0 48-7.5 102T309 477l142 31q17-60 27.5-122.5T489 260q0-127-58.5-199.5T260-12zm-51 585l34 220 143-24-79-214z"/><glyph glyph-name="upsilondieresis" unicode="ϋ" horiz-adv-x="532" d="M260-12q-56 0-95.5 15.5T99.5 47 62 114t-12 86q0 35 2 71.5t2 72.5q0 29-2 70t-9 82h142q5-26 7-56.5t2-65.5q0-32-3-84.5T188 187q0-40 20.5-60t51.5-20q40 0 61 35t21 111q0 48-7.5 102T309 477l142 31q17-60 27.5-122.5T489 260q0-127-58.5-199.5T260-12zM154 569q-32 0-52 20.5T82 641q0 30 20 50.5t52 20.5 51.5-20.5T225 641q0-31-19.5-51.5T154 569zm218 0q-32 0-51.5 20.5T301 641q0 30 19.5 50.5T372 712t52-20.5 20-50.5q0-31-20-51.5T372 569z"/><glyph glyph-name="omegatonos" unicode="ώ" horiz-adv-x="746" d="M234-12q-90 0-142 67.5T40 253q0 31 6 64.5t16 67 24 65 31 58.5l138-52q-37-60-56.5-115T179 224q0-53 15-85t47-32q65 0 65 93 0 17-1 31.5t-2.5 29.5-3.5 31.5-5 38.5h155q-3-22-5-38.5t-3.5-31.5-2.5-29.5-1-31.5q0-53 15-73t45-20q28 0 45 35.5T559 247q0 30-3 56t-10.5 50.5-20 50T495 459l135 49q34-54 55-114t21-138q0-129-48.5-198.5T517-12q-45 0-84 21t-59 73h-4q-20-52-55.5-73T234-12zm85 585l34 220 143-24-79-214z"/></font>
</defs>
</svg>
