<svg xmlns="http://www.w3.org/2000/svg"><defs><font id="SourceSansPro-Regular" horiz-adv-x="0"><font-face font-family="Source Sans Pro" font-weight="400" panose-1="2 11 5 3 3 4 3 2 2 4" ascent="750" descent="-250" x-height="486" cap-height="656" bbox="-454 -292 2159 968" underline-thickness="50" underline-position="-100" unicode-range="U+0020-1F16B"/><glyph glyph-name="f_f" unicode="ff" horiz-adv-x="577" d="M381 0v419H178V0H96v419H30v62l66 5v64q0 76 37.5 120T247 714q24 0 47.5-5t41.5-13l-17-62q-30 13-65 13-36 0-56-25.5T178 548v-62h203v77q0 75 34.5 118T523 724q23 0 43.5-4.5T604 708l-18-63q-27 12-55 12-68 0-68-94v-77h103v-67H463V0h-82z"/><glyph glyph-name="f_t" unicode="ft" horiz-adv-x="594" d="M96 0v419H30v62l66 5v77q0 75 34.5 118T238 724q23 0 43.5-4.5T319 708l-18-63q-27 12-55 12-68 0-68-94v-77h178l10 136h68V486h132v-67H434V149q0-45 17-69.5T510 55q13 0 28 4t27 9l16-62q-20-7-43.5-12.5T491-12q-39 0-65.5 12t-43 33T359 84t-7 66v269H178V0H96z"/><glyph glyph-name="f_f_t" unicode="fft" horiz-adv-x="879" d="M96 0v419H30v62l66 5v64q0 76 37.5 120T247 714q24 0 47.5-5t41.5-13l-17-62q-30 13-65 13-36 0-56-25.5T178 548v-62h203v77q0 75 34.5 118T523 724q23 0 43.5-4.5T604 708l-18-63q-27 12-55 12-68 0-68-94v-77h178l10 136h68V486h132v-67H719V149q0-45 17-69.5T795 55q13 0 28 4t27 9l16-62q-20-7-43.5-12.5T776-12q-39 0-65.5 12t-43 33T644 84t-7 66v269H463V0h-82v419H178V0H96z"/><glyph glyph-name=".notdef" horiz-adv-x="653" d="M89 0v660h476V0H89zm108 58h257l-73 132-52 103h-4l-54-103zm128 329h4l49 94 66 119H209l66-119zM154 110l127 230-127 232V110zm344 0v462L372 340z"/><glyph glyph-name="space" horiz-adv-x="200"/><glyph glyph-name="A" unicode="A" horiz-adv-x="544" d="M203 367l-31-100h197l-31 100q-18 55-34 109.5T272 588h-4q-15-57-31-111.5T203 367zM3 0l222 656h94L541 0h-89l-62 200H151L88 0H3z"/><glyph glyph-name="B" unicode="B" horiz-adv-x="588" d="M90 0v656h195q50 0 91.5-9t71-28 46-49.5T510 496q0-49-24.5-88.5T414 353v-4q60-11 97-50t37-107q0-48-18-84t-51-60-79-36T299 0H90zm83 377h97q84 0 121 29t37 79q0 57-38.5 81T274 590H173V377zm0-311h114q85 0 132 31.5t47 97.5q0 61-46 89.5T287 313H173V66z"/><glyph glyph-name="C" unicode="C" horiz-adv-x="571" d="M338-12q-62 0-114 23t-90.5 66.5-60 107T52 328q0 79 22 142t61 107 92 67.5T343 668q60 0 105.5-24.5T523 587l-45-54q-26 28-59 45t-75 17q-47 0-85-18.5t-65-53-41.5-83.5T138 330q0-62 14.5-111.5T193 134t63.5-54T341 61q48 0 84 19.5t68 54.5l46-52q-39-45-88-70T338-12z"/><glyph glyph-name="D" unicode="D" horiz-adv-x="615" d="M90 0v656h164q152 0 231-84t79-241q0-78-20-139.5t-59-104-96-65T258 0H90zm83 68h75q115 0 172.5 69T478 331t-57.5 191T248 588h-75V68z"/><glyph glyph-name="E" unicode="E" horiz-adv-x="527" d="M90 0v656h378v-70H173V380h249v-71H173V71h305V0H90z"/><glyph glyph-name="F" unicode="F" horiz-adv-x="494" d="M90 0v656h378v-70H173V364h250v-70H173V0H90z"/><glyph glyph-name="G" unicode="G" horiz-adv-x="617" d="M348-12q-65 0-119.5 23T135 77.5t-61 107T52 328q0 79 22.5 142T137 577t95.5 67.5T353 668q34 0 62.5-7t52-18.5 42-26T542 587l-46-54q-25 26-58 44t-83 18-90-18.5-68-53-43.5-83.5T138 330q0-62 14.5-111.5t42-84.5 68-54T356 61q35 0 66.5 10.5T474 100v171H335v69h215V64q-32-33-84-54.5T348-12z"/><glyph glyph-name="H" unicode="H" horiz-adv-x="652" d="M90 0v656h83V381h305v275h84V0h-84v309H173V0H90z"/><glyph glyph-name="I" unicode="I" horiz-adv-x="263" d="M90 0v656h83V0H90z"/><glyph glyph-name="J" unicode="J" horiz-adv-x="480" d="M212-12Q89-12 31 93l60 42q22-39 50-56.5T204 61q53 0 79 32.5T309 201v455h84V193q0-42-10.5-79.5t-32-65.5-56-44T212-12z"/><glyph glyph-name="K" unicode="K" horiz-adv-x="579" d="M90 0v656h83V327h3l273 329h94L338 406 575 0h-93L286 341 173 208V0H90z"/><glyph glyph-name="L" unicode="L" horiz-adv-x="486" d="M90 0v656h83V71h287V0H90z"/><glyph glyph-name="M" unicode="M" horiz-adv-x="727" d="M90 0v656h100l126-350q12-34 23.5-68.5T363 169h4q12 34 22.5 68.5T412 306l124 350h101V0h-78v361q0 44 4 97t7 97h-4l-52-149L390 66h-55L211 406l-52 149h-4q3-44 6.5-97t3.5-97V0H90z"/><glyph glyph-name="N" unicode="N" horiz-adv-x="647" d="M90 0v656h86l237-412 71-136h4q-3 50-6.5 103.5T478 317v339h79V0h-86L233 413l-71 135h-4q4-50 7.5-101.5T169 343V0H90z"/><glyph glyph-name="O" unicode="O" horiz-adv-x="664" d="M332-12q-62 0-113.5 24T130 80.5t-57.5 108T52 331t20.5 141.5 57.5 106 88.5 66.5T332 668t113.5-23.5 89-67 58-106T613 331q0-79-20.5-142.5t-58-108-89-68.5T332-12zm0 73q44 0 79.5 19t61 54.5 39.5 85T526 331q0 61-14 110t-39.5 83-61 52.5T332 595t-79.5-18.5-61-52.5-39.5-83-14-110q0-62 14-111.5t39.5-85 61-54.5T332 61z"/><glyph glyph-name="P" unicode="P" horiz-adv-x="566" d="M90 0v656h187q55 0 100.5-10t77.5-32.5 50-59.5 18-91q0-52-17.5-90T456 310t-76.5-37.5T281 260H173V0H90zm83 328h98q86 0 127.5 32.5T440 463q0 71-43.5 98.5T267 589h-94V328z"/><glyph glyph-name="Q" unicode="Q" horiz-adv-x="664" d="M332 57q44 0 79.5 19t61 55 39.5 86.5T526 331q0 61-14 110t-39.5 83-61 52.5T332 595t-79.5-18.5-61-52.5-39.5-83-14-110q0-63 14-113.5t39.5-86.5 61-55T332 57zm201-222q-45 0-83.5 11.5t-69 32.5-53 49.5T291-9q-54 7-98 34t-75.5 71T69 199.5 52 331q0 79 20.5 141.5t57.5 106 88.5 66.5T332 668t113.5-23.5 89-67 58-106T613 331q0-71-16.5-129.5t-47-102-73.5-71T381-8q23-44 65-65.5T542-95q22 0 38.5 2.5T611-86l16-64q-15-6-40-10.5t-54-4.5z"/><glyph glyph-name="R" unicode="R" horiz-adv-x="569" d="M90 0v656h205q50 0 92.5-9.5t73-31.5 47.5-57 17-86q0-77-40-123t-108-63L544 0h-94L292 277H173V0H90zm83 345h110q77 0 118 31.5t41 95.5q0 65-41 91t-118 26H173V345z"/><glyph glyph-name="S" unicode="S" horiz-adv-x="534" d="M272-12q-69 0-128 26T42 85l50 58q35-37 82.5-59.5T273 61q65 0 101 29.5t36 77.5q0 25-8.5 42.5t-23 30T344 263t-43 21l-94 41q-23 10-47 24t-43 34-31 47.5T74 494q0 37 15.5 69t43 55.5 65 36.5 82.5 13q59 0 109-22.5t85-58.5l-45-54q-30 29-66.5 45.5T280 595q-55 0-88.5-25.5T158 499q0-24 9.5-40.5t25.5-29 35-22 39-17.5l93-40q28-12 53-27.5t43-36 28.5-48T495 175q0-39-15.5-73T435 42.5t-70-40T272-12z"/><glyph glyph-name="T" unicode="T" horiz-adv-x="536" d="M226 0v586H28v70h480v-70H310V0h-84z"/><glyph glyph-name="U" unicode="U" horiz-adv-x="645" d="M323-12q-50 0-93.5 14.5t-75 48T105 138 87 271v385h83V269q0-59 12-99t32.5-64T263 71.5 323 61q33 0 61 10.5t49 34.5 33 64 12 99v387h80V271q0-79-18-133t-49.5-87.5-74.5-48T323-12z"/><glyph glyph-name="V" unicode="V" horiz-adv-x="515" d="M210 0L0 656h89l105-354q18-59 31.5-109T258 85h4q18 58 32 108t31 109l105 354h85L307 0h-97z"/><glyph glyph-name="W" unicode="W" horiz-adv-x="786" d="M162 0L23 656h86l69-357q9-54 19-106t19-106h4q11 54 23 106.5T266 299l91 357h76l91-357q12-52 24-105t24-107h4q9 54 18 106.5T613 299l69 357h80L626 0H526l-99 395q-9 38-16.5 74.5T395 544h-4q-8-38-16.5-74.5T358 395L261 0h-99z"/><glyph glyph-name="X" unicode="X" horiz-adv-x="513" d="M15 0l191 339L28 656h92l89-168q13-23 24.5-44.5T260 393h4q14 29 24.5 50.5T311 488l87 168h88L307 335 498 0h-92l-96 177q-13 24-26.5 49.5T254 282h-4q-14-30-27-55.5T198 177L103 0H15z"/><glyph glyph-name="Y" unicode="Y" horiz-adv-x="476" d="M196 0v254L-1 656h89l85-185q16-36 31-71t32-72h4q17 37 34 72t32 71l84 185h87L280 254V0h-84z"/><glyph glyph-name="Z" unicode="Z" horiz-adv-x="539" d="M45 0v50l345 536H76v70h418v-49L148 71h349V0H45z"/><glyph glyph-name="a" unicode="a" horiz-adv-x="504" d="M194-12q-61 0-101.5 36T52 126q0 80 71 122.5T350 308q0 23-4.5 45T330 392t-30.5 27.5T250 430q-42 0-79-16t-66-36l-32 57q34 22 83 42.5T264 498q89 0 129-54.5T433 298V0h-68l-7 58h-3q-35-29-75-49.5T194-12zm24 66q35 0 66 16.5t66 48.5v135q-61-8-102.5-19t-67-26-37-34.5T132 132q0-42 25-60t61-18z"/><glyph glyph-name="b" unicode="b" horiz-adv-x="553" d="M297-12q-34 0-70.5 16.5T158 50h-3l-7-50H82v712h82V518l-2-88q33 29 72 48.5t80 19.5q47 0 83-17.5t60.5-50 37-78T507 251q0-62-17-111t-46-83-67-51.5T297-12zm-14 69q30 0 55.5 13.5t44 38 29 60.5 10.5 81q0 40-7 73t-22.5 56.5-40 36.5-58.5 13q-59 0-130-66V108q32-28 63.5-39.5T283 57z"/><glyph glyph-name="c" unicode="c" horiz-adv-x="456" d="M274-12q-48 0-90 17t-72.5 49.5-48 80T46 242q0 61 19 108.5t51 80.5 74.5 50 89.5 17q48 0 82-17t60-40l-42-54q-21 19-44.5 31T283 430q-33 0-61-13.5T174 378t-31.5-59.5T131 242t11-76 30.5-58.5 47.5-38T281 56q34 0 62.5 14.5T395 105l36-55q-33-29-73-45.5T274-12z"/><glyph glyph-name="d" unicode="d" horiz-adv-x="555" d="M248-12q-92 0-146.5 66T47 242q0 59 17.5 106.5T111 429t67 51 80 18 73-15 63-41l-4 83v187h83V0h-68l-7 57h-3q-29-28-66.5-48.5T248-12zm18 69q34 0 64 16.5t60 50.5v254q-31 28-59.5 39.5T272 429q-29 0-54.5-13.5t-44.5-38-30-58.5-11-76q0-88 35-137t99-49z"/><glyph glyph-name="e" unicode="e" horiz-adv-x="496" d="M279-12q-49 0-91.5 17.5t-74 50T64 135 46 242t18.5 107.5 49 80.5 69.5 50.5 81 17.5q46 0 82.5-16t61-46 37.5-72 13-94q0-13-.5-25.5T455 223H127q5-78 48.5-123.5T289 54q35 0 64.5 10.5T410 92l29-54q-32-20-71-35t-89-15zM126 282h260q0 74-31.5 112.5T266 433q-26 0-49.5-10T174 393.5 142.5 346 126 282z"/><glyph glyph-name="f" unicode="f" horiz-adv-x="292" d="M96 0v419H30v62l66 5v77q0 75 34.5 118T238 724q23 0 43.5-4.5T319 708l-18-63q-27 12-55 12-68 0-68-94v-77h103v-67H178V0H96z"/><glyph glyph-name="g" unicode="g" horiz-adv-x="504" d="M246-224q-45 0-82 8.5T100.5-190t-41 41T45-93q0 31 19 59t52 51v4Q98 32 85.5 51.5T73 100q0 31 17 54t36 36v4q-24 20-43.5 53.5T63 325q0 40 14.5 72t39.5 54.5 58.5 34.5 70.5 12q20 0 37.5-3.5T315 486h169v-63H384q17-17 28.5-43t11.5-57q0-39-14-70.5t-38-53-56.5-33.5-69.5-12q-18 0-37 4.5T173 171q-13-11-22-24.5t-9-33.5q0-23 18-38t68-15h94q85 0 127.5-27.5T492-56q0-34-17-64.5T426-174t-77.5-36.5T246-224zm0 433q21 0 39.5 8t33 23 22.5 36.5 8 48.5q0 54-30 83.5T246 438t-73-29.5-30-83.5q0-27 8-48.5t22.5-36.5 33-23 39.5-8zm12-376q35 0 63.5 8.5t48.5 22 31 31.5 11 37q0 34-25 47T314-8h-84q-14 0-30.5 1.5T167 0q-26-19-38-40t-12-42q0-39 37.5-62T258-167z"/><glyph glyph-name="h" unicode="h" horiz-adv-x="544" d="M82 0v712h82V518l-3-100q35 33 73 56.5t89 23.5q77 0 112.5-48T471 308V0h-82v297q0 69-22 99.5T297 427q-38 0-67-19t-66-56V0H82z"/><glyph glyph-name="i" unicode="i" horiz-adv-x="246" d="M82 0v486h82V0H82zm42 586q-24 0-40.5 15T67 639q0 24 16.5 38.5T124 692t40.5-14.5T181 639q0-23-16.5-38T124 586z"/><glyph glyph-name="j" unicode="j" horiz-adv-x="247" d="M32-217q-23 0-41 4t-31 9l17 62q9-3 21-5.5t25-2.5q36 0 48 25t12 70v541h82V-55q0-74-30-118T32-217zm93 803q-24 0-40.5 15T68 639q0 24 16.5 38.5T125 692q23 0 39.5-14.5T181 639q0-23-16.5-38T125 586z"/><glyph glyph-name="k" unicode="k" horiz-adv-x="495" d="M82 0v712h81V230h3l207 256h91L301 291 486 0h-90L254 234l-91-106V0H82z"/><glyph glyph-name="l" unicode="l" horiz-adv-x="255" d="M169-12q-47 0-67 28T82 98v614h82V92q0-20 7-28t16-8h7.5l10.5 2 11-62q-8-4-19-6t-28-2z"/><glyph glyph-name="m" unicode="m" horiz-adv-x="829" d="M82 0v486h68l7-70h3q32 35 69.5 58.5T311 498q56 0 87.5-24.5T445 405q38 42 76.5 67.5T605 498q75 0 111.5-48T753 308V0h-82v297q0 69-22 99.5T581 427q-55 0-122-75V0h-82v297q0 69-22 99.5T286 427q-55 0-122-75V0H82z"/><glyph glyph-name="n" unicode="n" horiz-adv-x="547" d="M82 0v486h68l7-70h3q35 35 73.5 58.5T323 498q77 0 112.5-48T471 308V0h-82v297q0 69-22 99.5T297 427q-38 0-67-19t-66-56V0H82z"/><glyph glyph-name="o" unicode="o" horiz-adv-x="542" d="M271-12q-45 0-85.5 17T114 54.5t-49.5 80T46 242q0 61 18.5 108.5T114 431t71.5 50 85.5 17 85.5-17 71.5-50 49.5-80.5T496 242q0-60-18.5-107.5t-49.5-80T356.5 5 271-12zm0 68q31 0 57 13.5t44.5 38T401 166t10 76-10 76.5-28.5 59.5-44.5 38.5-57 13.5-57-13.5-44.5-38.5-28.5-59.5-10-76.5 10-76 28.5-58.5 44.5-38T271 56z"/><glyph glyph-name="p" unicode="p" horiz-adv-x="555" d="M82-205v691h68l7-56h3q33 28 72.5 48t82.5 20q47 0 83-17.5t60-50 36.5-78T507 250q0-62-17-110.5T444 57 377 5.5 297-12q-34 0-67.5 15T162 44l2-85v-164H82zM283 57q30 0 55.5 13.5t44 38 29 60.5 10.5 81q0 40-7 73t-22.5 56.5-40 36.5-58.5 13q-31 0-62.5-17T164 363V108q33-28 64-39.5T283 57z"/><glyph glyph-name="q" unicode="q" horiz-adv-x="555" d="M390-205v173l4 88q-29-29-66.5-48.5T248-12q-92 0-146.5 66T47 242q0 59 17.5 106.5T111 429t67 51 80 18 74-14.5 65-43.5h2l8 46h66v-691h-83zM266 57q34 0 64 16.5t60 50.5v254q-31 28-59.5 39.5T272 429q-29 0-54.5-13.5t-44.5-38-30-58.5-11-76q0-88 35-137t99-49z"/><glyph glyph-name="r" unicode="r" horiz-adv-x="347" d="M82 0v486h68l7-88h3q25 46 60.5 73t77.5 27q29 0 52-10l-16-72q-12 4-22 6t-25 2q-31 0-64.5-25T164 312V0H82z"/><glyph glyph-name="s" unicode="s" horiz-adv-x="419" d="M209-12q-52 0-99 19T28 55l41 55q32-26 65.5-42T212 52q48 0 72 22t24 54q0 19-10 33t-25.5 24.5T237 204l-40 16q-26 9-52 20.5t-46.5 28T65 307t-13 53q0 29 11.5 54.5t33 44 52.5 29 70 10.5q46 0 84.5-16t66.5-39l-39-52q-25 19-52 31t-59 12q-46 0-67.5-21T131 364q0-17 9-29.5t24-22 34.5-17T239 280q26-10 52.5-21t47.5-27.5 34.5-40.5 13.5-58q0-30-11.5-56t-34-46-56-31.5T209-12z"/><glyph glyph-name="t" unicode="t" horiz-adv-x="338" d="M235-12q-39 0-65.5 12t-43 33T103 84t-7 66v269H24v62l76 5 10 136h69V486h131v-67H179V149q0-45 16.5-69.5T254 55q13 0 28 4t27 9l16-62q-20-7-43.5-12.5T235-12z"/><glyph glyph-name="u" unicode="u" horiz-adv-x="544" d="M224-12q-78 0-113.5 48T75 178v308h83V189q0-69 21.5-99.5T249 59q38 0 67 19.5t64 62.5v345h82V0h-68l-7 76h-3q-34-40-71.5-64T224-12z"/><glyph glyph-name="v" unicode="v" horiz-adv-x="467" d="M187 0L12 486h85l92-276q11-36 22.5-72T234 67h4q11 35 22 71l22 72 92 276h81L283 0h-96z"/><glyph glyph-name="w" unicode="w" horiz-adv-x="718" d="M159 0L24 486h84l72-281q8-35 15-68t14-67h4q8 34 16 67.5t17 67.5l75 281h80l76-281q9-35 17.5-68T511 70h4q8 34 15 67t15 68l71 281h78L564 0H464l-70 261q-9 35-16.5 69T361 401h-4q-8-37-16-71.5T323 260L255 0h-96z"/><glyph glyph-name="x" unicode="x" horiz-adv-x="446" d="M14 0l159 254L26 486h89l65-107q11-20 23-40.5t25-40.5h4q11 20 22 40.5t22 40.5l59 107h86L274 245 432 0h-89l-71 113-26 44-27 43h-4q-13-21-25-42.5T166 113L100 0H14z"/><glyph glyph-name="y" unicode="y" horiz-adv-x="467" d="M90-209q-17 0-31 2.5T33-199l16 65 18-4.5 19-2.5q42 0 68.5 29.5T196-37l11 36L12 486h85l99-269q11-32 23.5-67.5T243 80h4q11 33 21 69t20 68l87 269h80L272-40q-13-36-29-67t-38-53.5-50-35.5-65-13z"/><glyph glyph-name="z" unicode="z" horiz-adv-x="425" d="M31 0v44l256 375H59v67h332v-44L135 67h264V0H31z"/><glyph glyph-name="Agrave" unicode="À" horiz-adv-x="544" d="M203 367l-31-100h197l-31 100q-18 55-34 109.5T272 588h-4q-15-57-31-111.5T203 367zM3 0l222 656h94L541 0h-89l-62 200H151L88 0H3zm285 697L136 812l47 55 142-128z"/><glyph glyph-name="Aacute" unicode="Á" horiz-adv-x="544" d="M203 367l-31-100h197l-31 100q-18 55-34 109.5T272 588h-4q-15-57-31-111.5T203 367zM3 0l222 656h94L541 0h-89l-62 200H151L88 0H3zm251 697l-37 42 142 128 47-55z"/><glyph glyph-name="Acircumflex" unicode="Â" horiz-adv-x="544" d="M203 367l-31-100h197l-31 100q-18 55-34 109.5T272 588h-4q-15-57-31-111.5T203 367zM3 0l222 656h94L541 0h-89l-62 200H151L88 0H3zm120 725l105 113h86l105-113-36-26-110 93h-4l-110-93z"/><glyph glyph-name="Atilde" unicode="Ã" horiz-adv-x="544" d="M203 367l-31-100h197l-31 100q-18 55-34 109.5T272 588h-4q-15-57-31-111.5T203 367zM3 0l222 656h94L541 0h-89l-62 200H151L88 0H3zm343 709q-28 0-48 11t-36.5 24.5-31 24.5-32.5 11q-19 0-32-17t-16-49l-56 4q3 57 30 90t72 33q28 0 48-11t36.5-24.5 31-24.5 32.5-11q40 0 48 66l56-4q-3-58-30-90.5T346 709z"/><glyph glyph-name="Adieresis" unicode="Ä" horiz-adv-x="544" d="M203 367l-31-100h197l-31 100q-18 55-34 109.5T272 588h-4q-15-57-31-111.5T203 367zM3 0l222 656h94L541 0h-89l-62 200H151L88 0H3zm165 715q-21 0-35 14t-14 35q0 22 14 35.5t35 13.5q22 0 35.5-13.5T217 764q0-21-13.5-35T168 715zm206 0q-22 0-35.5 14T325 764q0 22 13.5 35.5T374 813q21 0 35-13.5t14-35.5q0-21-14-35t-35-14z"/><glyph glyph-name="Amacron" unicode="Ā" horiz-adv-x="544" d="M203 367l-31-100h197l-31 100q-18 55-34 109.5T272 588h-4q-15-57-31-111.5T203 367zM3 0l222 656h94L541 0h-89l-62 200H151L88 0H3zm134 735v57h268v-57H137z"/><glyph glyph-name="Abreve" unicode="Ă" horiz-adv-x="544" d="M203 367l-31-100h197l-31 100q-18 55-34 109.5T272 588h-4q-15-57-31-111.5T203 367zM3 0l222 656h94L541 0h-89l-62 200H151L88 0H3zm268 705q-35 0-61 10.5t-44 28-28 41-13 49.5l50 8q6-35 29.5-59.5T271 758t66.5 24.5T367 842l50-8q-3-26-13-49.5t-28-41-44-28-61-10.5z"/><glyph glyph-name="Aring" unicode="Å" horiz-adv-x="544" d="M203 367l-31-100h197l-31 100q-18 55-34 109.5T272 588h-4q-15-57-31-111.5T203 367zM3 0l222 656h94L541 0h-89l-62 200H151L88 0H3zm268 699q-42 0-69.5 24.5T174 789q0 42 27.5 66.5T271 880t69.5-24.5T368 789q0-41-27.5-65.5T271 699zm0 36q20 0 35.5 14t15.5 40-15.5 40-35.5 14q-22 0-37-14t-15-40 15-40 37-14z"/><glyph glyph-name="uni01CD" unicode="Ǎ" horiz-adv-x="544" d="M203 367l-31-100h197l-31 100q-18 55-34 109.5T272 588h-4q-15-57-31-111.5T203 367zM3 0l222 656h94L541 0h-89l-62 200H151L88 0H3zm225 706L123 819l36 26 110-92h4l110 92 36-26-105-113h-86z"/><glyph glyph-name="uni1EA0" unicode="Ạ" horiz-adv-x="544" d="M203 367l-31-100h197l-31 100q-18 55-34 109.5T272 588h-4q-15-57-31-111.5T203 367zM3 0l222 656h94L541 0h-89l-62 200H151L88 0H3zm268-205q-23 0-38.5 15T217-151q0 23 15.5 38.5T271-97t38.5-15.5T325-151q0-24-15.5-39T271-205z"/><glyph glyph-name="uni1EA2" unicode="Ả" horiz-adv-x="544" d="M203 367l-31-100h197l-31 100q-18 55-34 109.5T272 588h-4q-15-57-31-111.5T203 367zM3 0l222 656h94L541 0h-89l-62 200H151L88 0H3zm236 698l-9 38q24 7 40 17t16 29q0 39-83 42l9 48q66-2 102-22.5t36-58.5q0-22-9-37.5t-24.5-27-35.5-18-42-10.5z"/><glyph glyph-name="uni1EA4" unicode="Ấ" horiz-adv-x="544" d="M203 367l-31-100h197l-31 100q-18 55-34 109.5T272 588h-4q-15-57-31-111.5T203 367zM3 0l222 656h94L541 0h-89l-62 200H151L88 0H3zm173 699l-34 26 93 90h72l93-90-34-26-93 69h-4zm216 64l-30 32 97 93 35-39z"/><glyph glyph-name="uni1EA6" unicode="Ầ" horiz-adv-x="544" d="M203 367l-31-100h197l-31 100q-18 55-34 109.5T272 588h-4q-15-57-31-111.5T203 367zM3 0l222 656h94L541 0h-89l-62 200H151L88 0H3zm173 699l-34 26 93 90h72l93-90-34-26-93 69h-4zm4 94l-30-30-90 88 35 37z"/><glyph glyph-name="uni1EA8" unicode="Ẩ" horiz-adv-x="544" d="M203 367l-31-100h197l-31 100q-18 55-34 109.5T272 588h-4q-15-57-31-111.5T203 367zM3 0l222 656h94L541 0h-89l-62 200H151L88 0H3zm173 699l-34 26 93 90h72l93-90-34-26-93 69h-4zm210 55l-11 35q19 5 32 12.5t13 23.5q0 20-16.5 28.5T349 864l9 42q59-2 89.5-20t30.5-53q0-38-28-55.5T386 754z"/><glyph glyph-name="uni1EAA" unicode="Ẫ" horiz-adv-x="544" d="M203 367l-31-100h197l-31 100q-18 55-34 109.5T272 588h-4q-15-57-31-111.5T203 367zM3 0l222 656h94L541 0h-89l-62 200H151L88 0H3zm173 699l-34 26 93 87h72l93-87-34-26-93 66h-4zm-50 149q2 38 20 64.5t59 26.5q24 0 41-7.5t31.5-17 27.5-17 28-7.5q18 0 26.5 12t11.5 34l45-5q-2-39-20-65.5T337 839q-24 0-41 8t-31.5 17-27.5 17-28 8q-18 0-26.5-12T171 843z"/><glyph glyph-name="uni1EAC" unicode="Ậ" horiz-adv-x="544" d="M203 367l-31-100h197l-31 100q-18 55-34 109.5T272 588h-4q-15-57-31-111.5T203 367zM3 0l222 656h94L541 0h-89l-62 200H151L88 0H3zm120 725l105 113h86l105-113-36-26-110 93h-4l-110-93zm148-930q-23 0-38.5 15T217-151q0 23 15.5 38.5T271-97t38.5-15.5T325-151q0-24-15.5-39T271-205z"/><glyph glyph-name="uni1EAE" unicode="Ắ" horiz-adv-x="544" d="M203 367l-31-100h197l-31 100q-18 55-34 109.5T272 588h-4q-15-57-31-111.5T203 367zM3 0l222 656h94L541 0h-89l-62 200H151L88 0H3zm230 832l95 116 53-36-107-109zm38-127q-35 0-61 10.5t-44 28-28 41-13 49.5l47 8q6-37 30-62.5t69-25.5 69 25.5 30 62.5l47-8q-3-26-13-49.5t-28-41-44-28-61-10.5z"/><glyph glyph-name="uni1EB0" unicode="Ằ" horiz-adv-x="544" d="M203 367l-31-100h197l-31 100q-18 55-34 109.5T272 588h-4q-15-57-31-111.5T203 367zM3 0l222 656h94L541 0h-89l-62 200H151L88 0H3zm306 832l-41-29-107 109 53 36zm-38-127q-35 0-61 10.5t-44 28-28 41-13 49.5l47 8q6-37 30-62.5t69-25.5 69 25.5 30 62.5l47-8q-3-26-13-49.5t-28-41-44-28-61-10.5z"/><glyph glyph-name="uni1EB2" unicode="Ẳ" horiz-adv-x="544" d="M203 367l-31-100h197l-31 100q-18 55-34 109.5T272 588h-4q-15-57-31-111.5T203 367zM3 0l222 656h94L541 0h-89l-62 200H151L88 0H3zm245 800l-10 35q18 5 31 12.5t13 23.5q0 20-16.5 28.5T212 910l8 42q59-2 90-20t31-53q0-19-8-32.5t-20.5-23-29.5-15-35-8.5zm23-95q-35 0-61 10.5t-44 28-28 41-13 49.5l47 8q6-37 30-62.5t69-25.5 69 25.5 30 62.5l47-8q-3-26-13-49.5t-28-41-44-28-61-10.5z"/><glyph glyph-name="uni1EB4" unicode="Ẵ" horiz-adv-x="544" d="M203 367l-31-100h197l-31 100q-18 55-34 109.5T272 588h-4q-15-57-31-111.5T203 367zM3 0l222 656h94L541 0h-89l-62 200H151L88 0H3zm268 708q-35 0-60.5 8.5t-43 23.5-27 34-12.5 40l46 8q5-27 28-48t69-21 69 21 28 48l46-8q-3-21-12.5-40t-27-34-43-23.5T271 708zM126 851q2 39 20 65.5t59 26.5q24 0 41-8t31.5-17 27.5-17 28-8q18 0 26.5 12t11.5 34l45-5q-2-38-20-64.5T337 843q-24 0-41 8t-31.5 17-27.5 17-28 8q-18 0-26.5-12T171 846z"/><glyph glyph-name="uni1EB6" unicode="Ặ" horiz-adv-x="544" d="M203 367l-31-100h197l-31 100q-18 55-34 109.5T272 588h-4q-15-57-31-111.5T203 367zM3 0l222 656h94L541 0h-89l-62 200H151L88 0H3zm268 705q-35 0-61 10.5t-44 28-28 41-13 49.5l50 8q6-35 29.5-59.5T271 758t66.5 24.5T367 842l50-8q-3-26-13-49.5t-28-41-44-28-61-10.5zm0-910q-23 0-38.5 15T217-151q0 23 15.5 38.5T271-97t38.5-15.5T325-151q0-24-15.5-39T271-205z"/><glyph glyph-name="Aogonek" unicode="Ą" horiz-adv-x="544" d="M492-212q-40 0-68 22t-28 65q0 20 7 39t18 35 24 29 26 22h-19l-62 200H151L88 0H3l222 656h94L541 0q-35-14-57.5-45T461-107q0-23 14-34.5t32-11.5q23 0 42 14l23-45q-15-11-37.5-19.5T492-212zM203 367l-31-100h197l-31 100q-18 55-34 109.5T272 588h-4q-15-57-31-111.5T203 367z"/><glyph glyph-name="AE" unicode="Æ" horiz-adv-x="822" d="M290 376l-61-118h172v332h-4q-53-107-107-214zM8 0l344 656h411v-70H485V380h232v-71H485V71h288V0H401v191H195L96 0H8z"/><glyph glyph-name="uni01FC" unicode="Ǽ" horiz-adv-x="822" d="M290 376l-61-118h172v332h-4q-53-107-107-214zM8 0l344 656h411v-70H485V380h232v-71H485V71h288V0H401v191H195L96 0H8zm539 705l-37 42 142 128 47-55z"/><glyph glyph-name="uni01E2" unicode="Ǣ" horiz-adv-x="822" d="M290 376l-61-118h172v332h-4q-53-107-107-214zM8 0l344 656h411v-70H485V380h232v-71H485V71h288V0H401v191H195L96 0H8zm422 743v57h268v-57H430z"/><glyph glyph-name="uni0243" unicode="Ƀ" horiz-adv-x="603" d="M107 0v177H30v43l77 4v432h195q50 0 91.5-9t71-28 46-49 16.5-72q0-48-28-85.5T413 360v-4q72-11 112-51t40-109q0-50-18-86.5t-51-61T417.5 12 317 0H107zm83 380h98q84 0 121.5 28.5T447 492q0 54-39.5 78T291 594H190V380zm0-317h115q85 0 132 33.5T484 200q0 65-46.5 95T305 325H190V224h152v-47H190V63z"/><glyph glyph-name="uni1E06" unicode="Ḇ" horiz-adv-x="588" d="M90 0v656h195q50 0 91.5-9t71-28 46-49.5T510 496q0-49-24.5-88.5T414 353v-4q60-11 97-50t37-107q0-48-18-84t-51-60-79-36T299 0H90zm83 377h97q84 0 121 29t37 79q0 57-38.5 81T274 590H173V377zm0-311h114q85 0 132 31.5t47 97.5q0 61-46 89.5T287 313H173V66zm-6-235v57h266v-57H167z"/><glyph glyph-name="Ccedilla" unicode="Ç" horiz-adv-x="571" d="M338-12q-62 0-114 23t-90.5 66.5-60 107T52 328q0 79 22 142t61 107 92 67.5T343 668q60 0 105.5-24.5T523 587l-45-54q-26 28-59 45t-75 17q-47 0-85-18.5t-65-53-41.5-83.5T138 330q0-62 14.5-111.5T193 134t63.5-54T341 61q48 0 84 19.5t68 54.5l46-52q-39-45-88-70T338-12zm-82-214l-8 40q63 5 86 16.5t23 33.5q0 20-17 31t-60 17l44 91h53l-29-67q35-8 54-24t19-47q0-44-42.5-65.5T256-226z"/><glyph glyph-name="Cacute" unicode="Ć" horiz-adv-x="571" d="M338-12q-62 0-114 23t-90.5 66.5-60 107T52 328q0 79 22 142t61 107 92 67.5T343 668q60 0 105.5-24.5T523 587l-45-54q-26 28-59 45t-75 17q-47 0-85-18.5t-65-53-41.5-83.5T138 330q0-62 14.5-111.5T193 134t63.5-54T341 61q48 0 84 19.5t68 54.5l46-52q-39-45-88-70T338-12zm-25 709l-37 42 142 128 47-55z"/><glyph glyph-name="Ccircumflex" unicode="Ĉ" horiz-adv-x="571" d="M338-12q-62 0-114 23t-90.5 66.5-60 107T52 328q0 79 22 142t61 107 92 67.5T343 668q60 0 105.5-24.5T523 587l-45-54q-26 28-59 45t-75 17q-47 0-85-18.5t-65-53-41.5-83.5T138 330q0-62 14.5-111.5T193 134t63.5-54T341 61q48 0 84 19.5t68 54.5l46-52q-39-45-88-70T338-12zM182 725l105 113h86l105-113-36-26-110 93h-4l-110-93z"/><glyph glyph-name="Ccaron" unicode="Č" horiz-adv-x="571" d="M338-12q-62 0-114 23t-90.5 66.5-60 107T52 328q0 79 22 142t61 107 92 67.5T343 668q60 0 105.5-24.5T523 587l-45-54q-26 28-59 45t-75 17q-47 0-85-18.5t-65-53-41.5-83.5T138 330q0-62 14.5-111.5T193 134t63.5-54T341 61q48 0 84 19.5t68 54.5l46-52q-39-45-88-70T338-12zm-51 718L182 819l36 26 110-92h4l110 92 36-26-105-113h-86z"/><glyph glyph-name="Cdotaccent" unicode="Ċ" horiz-adv-x="571" d="M338-12q-62 0-114 23t-90.5 66.5-60 107T52 328q0 79 22 142t61 107 92 67.5T343 668q60 0 105.5-24.5T523 587l-45-54q-26 28-59 45t-75 17q-47 0-85-18.5t-65-53-41.5-83.5T138 330q0-62 14.5-111.5T193 134t63.5-54T341 61q48 0 84 19.5t68 54.5l46-52q-39-45-88-70T338-12zm-8 726q-24 0-40.5 15T273 768q0 23 16.5 38t40.5 15 40.5-15 16.5-38q0-24-16.5-39T330 714z"/><glyph glyph-name="Dcaron" unicode="Ď" horiz-adv-x="615" d="M90 0v656h164q152 0 231-84t79-241q0-78-20-139.5t-59-104-96-65T258 0H90zm83 68h75q115 0 172.5 69T478 331t-57.5 191T248 588h-75V68zm91 638L159 819l36 26 110-92h4l110 92 36-26-105-113h-86z"/><glyph glyph-name="uni1E0C" unicode="Ḍ" horiz-adv-x="615" d="M90 0v656h164q152 0 231-84t79-241q0-78-20-139.5t-59-104-96-65T258 0H90zm83 68h75q115 0 172.5 69T478 331t-57.5 191T248 588h-75V68zm131-273q-23 0-38.5 15T250-151q0 23 15.5 38.5T304-97t38.5-15.5T358-151q0-24-15.5-39T304-205z"/><glyph glyph-name="uni1E0E" unicode="Ḏ" horiz-adv-x="615" d="M90 0v656h164q152 0 231-84t79-241q0-78-20-139.5t-59-104-96-65T258 0H90zm83 68h75q115 0 172.5 69T478 331t-57.5 191T248 588h-75V68zm-2-237v57h266v-57H171z"/><glyph glyph-name="Dcroat" unicode="Đ" horiz-adv-x="638" d="M33 321v43l79 4v288h164q152 0 231-84t79-241q0-78-20-139.5t-59-104-96-65T280 0H112v321H33zM195 68h75q115 0 172.5 69T500 331t-57.5 191T270 588h-75V368h149v-47H195V68z"/><glyph glyph-name="Egrave" unicode="È" horiz-adv-x="527" d="M90 0v656h378v-70H173V380h249v-71H173V71h305V0H90zm211 697L149 812l47 55 142-128z"/><glyph glyph-name="Eacute" unicode="É" horiz-adv-x="527" d="M90 0v656h378v-70H173V380h249v-71H173V71h305V0H90zm177 697l-37 42 142 128 47-55z"/><glyph glyph-name="Ecircumflex" unicode="Ê" horiz-adv-x="527" d="M90 0v656h378v-70H173V380h249v-71H173V71h305V0H90zm46 725l105 113h86l105-113-36-26-110 93h-4l-110-93z"/><glyph glyph-name="Ecaron" unicode="Ě" horiz-adv-x="527" d="M90 0v656h378v-70H173V380h249v-71H173V71h305V0H90zm151 706L136 819l36 26 110-92h4l110 92 36-26-105-113h-86z"/><glyph glyph-name="Edieresis" unicode="Ë" horiz-adv-x="527" d="M90 0v656h378v-70H173V380h249v-71H173V71h305V0H90zm91 715q-21 0-35 14t-14 35q0 22 14 35.5t35 13.5q22 0 35.5-13.5T230 764q0-21-13.5-35T181 715zm206 0q-22 0-35.5 14T338 764q0 22 13.5 35.5T387 813q21 0 35-13.5t14-35.5q0-21-14-35t-35-14z"/><glyph glyph-name="Emacron" unicode="Ē" horiz-adv-x="527" d="M90 0v656h378v-70H173V380h249v-71H173V71h305V0H90zm60 735v57h268v-57H150z"/><glyph glyph-name="Ebreve" unicode="Ĕ" horiz-adv-x="527" d="M90 0v656h378v-70H173V380h249v-71H173V71h305V0H90zm194 705q-35 0-61 10.5t-44 28-28 41-13 49.5l50 8q6-35 29.5-59.5T284 758t66.5 24.5T380 842l50-8q-3-26-13-49.5t-28-41-44-28-61-10.5z"/><glyph glyph-name="Edotaccent" unicode="Ė" horiz-adv-x="527" d="M90 0v656h378v-70H173V380h249v-71H173V71h305V0H90zm194 714q-24 0-40.5 15T227 768q0 23 16.5 38t40.5 15 40.5-15 16.5-38q0-24-16.5-39T284 714z"/><glyph glyph-name="uni1EB8" unicode="Ẹ" horiz-adv-x="527" d="M90 0v656h378v-70H173V380h249v-71H173V71h305V0H90zm205-205q-23 0-38.5 15T241-151q0 23 15.5 38.5T295-97t38.5-15.5T349-151q0-24-15.5-39T295-205z"/><glyph glyph-name="uni1EBA" unicode="Ẻ" horiz-adv-x="527" d="M90 0v656h378v-70H173V380h249v-71H173V71h305V0H90zm162 698l-9 38q24 7 40 17t16 29q0 39-83 42l9 48q66-2 102-22.5t36-58.5q0-22-9-37.5t-24.5-27-35.5-18-42-10.5z"/><glyph glyph-name="uni1EBC" unicode="Ẽ" horiz-adv-x="527" d="M90 0v656h378v-70H173V380h249v-71H173V71h305V0H90zm269 709q-28 0-48 11t-36.5 24.5-31 24.5-32.5 11q-19 0-32-17t-16-49l-56 4q3 57 30 90t72 33q28 0 48-11t36.5-24.5 31-24.5 32.5-11q40 0 48 66l56-4q-3-58-30-90.5T359 709z"/><glyph glyph-name="uni1EBE" unicode="Ế" horiz-adv-x="527" d="M90 0v656h378v-70H173V380h249v-71H173V71h305V0H90zm99 699l-34 26 93 90h72l93-90-34-26-93 69h-4zm216 64l-30 32 97 93 35-39z"/><glyph glyph-name="uni1EC0" unicode="Ề" horiz-adv-x="527" d="M90 0v656h378v-70H173V380h249v-71H173V71h305V0H90zm99 699l-34 26 93 90h72l93-90-34-26-93 69h-4zm4 94l-30-30-90 88 35 37z"/><glyph glyph-name="uni1EC2" unicode="Ể" horiz-adv-x="527" d="M90 0v656h378v-70H173V380h249v-71H173V71h305V0H90zm99 699l-34 26 93 90h72l93-90-34-26-93 69h-4zm210 55l-11 35q19 5 32 12.5t13 23.5q0 20-16.5 28.5T362 864l9 42q59-2 89.5-20t30.5-53q0-38-28-55.5T399 754z"/><glyph glyph-name="uni1EC4" unicode="Ễ" horiz-adv-x="527" d="M90 0v656h378v-70H173V380h249v-71H173V71h305V0H90zm99 699l-34 26 93 87h72l93-87-34-26-93 66h-4zm-50 149q2 38 20 64.5t59 26.5q24 0 41-7.5t31.5-17 27.5-17 28-7.5q18 0 26.5 12t11.5 34l45-5q-2-39-20-65.5T350 839q-24 0-41 8t-31.5 17-27.5 17-28 8q-18 0-26.5-12T184 843z"/><glyph glyph-name="uni1EC6" unicode="Ệ" horiz-adv-x="527" d="M90 0v656h378v-70H173V380h249v-71H173V71h305V0H90zm46 725l105 113h86l105-113-36-26-110 93h-4l-110-93zm159-930q-23 0-38.5 15T241-151q0 23 15.5 38.5T295-97t38.5-15.5T349-151q0-24-15.5-39T295-205z"/><glyph glyph-name="Eogonek" unicode="Ę" horiz-adv-x="527" d="M414-212q-40 0-68 22t-28 65q0 42 23.5 74.5T393 0H90v656h378v-70H173V380h249v-71H173V71h305V0h-3q-17-2-33.5-11.5t-29.5-24-21-33-8-38.5q0-23 15-34.5t33-11.5q21 0 40 14l23-45q-14-11-37-19.5t-43-8.5z"/><glyph glyph-name="uni1E16" unicode="Ḗ" horiz-adv-x="527" d="M90 0v656h378v-70H173V380h249v-71H173V71h305V0H90zm174 827l-31 38 121 103 39-48zm-116-92v57h268v-57H148z"/><glyph glyph-name="uni01F4" unicode="Ǵ" horiz-adv-x="617" d="M348-12q-65 0-119.5 23T135 77.5t-61 107T52 328q0 79 22.5 142T137 577t95.5 67.5T353 668q34 0 62.5-7t52-18.5 42-26T542 587l-46-54q-25 26-58 44t-83 18-90-18.5-68-53-43.5-83.5T138 330q0-62 14.5-111.5t42-84.5 68-54T356 61q35 0 66.5 10.5T474 100v171H335v69h215V64q-32-33-84-54.5T348-12zm-12 709l-37 42 142 128 47-55z"/><glyph glyph-name="Gcircumflex" unicode="Ĝ" horiz-adv-x="617" d="M348-12q-65 0-119.5 23T135 77.5t-61 107T52 328q0 79 22.5 142T137 577t95.5 67.5T353 668q34 0 62.5-7t52-18.5 42-26T542 587l-46-54q-25 26-58 44t-83 18-90-18.5-68-53-43.5-83.5T138 330q0-62 14.5-111.5t42-84.5 68-54T356 61q35 0 66.5 10.5T474 100v171H335v69h215V64q-32-33-84-54.5T348-12zM205 725l105 113h86l105-113-36-26-110 93h-4l-110-93z"/><glyph glyph-name="Gbreve" unicode="Ğ" horiz-adv-x="617" d="M348-12q-65 0-119.5 23T135 77.5t-61 107T52 328q0 79 22.5 142T137 577t95.5 67.5T353 668q34 0 62.5-7t52-18.5 42-26T542 587l-46-54q-25 26-58 44t-83 18-90-18.5-68-53-43.5-83.5T138 330q0-62 14.5-111.5t42-84.5 68-54T356 61q35 0 66.5 10.5T474 100v171H335v69h215V64q-32-33-84-54.5T348-12zm5 717q-35 0-61 10.5t-44 28-28 41-13 49.5l50 8q6-35 29.5-59.5T353 758t66.5 24.5T449 842l50-8q-3-26-13-49.5t-28-41-44-28-61-10.5z"/><glyph glyph-name="Gdotaccent" unicode="Ġ" horiz-adv-x="617" d="M348-12q-65 0-119.5 23T135 77.5t-61 107T52 328q0 79 22.5 142T137 577t95.5 67.5T353 668q34 0 62.5-7t52-18.5 42-26T542 587l-46-54q-25 26-58 44t-83 18-90-18.5-68-53-43.5-83.5T138 330q0-62 14.5-111.5t42-84.5 68-54T356 61q35 0 66.5 10.5T474 100v171H335v69h215V64q-32-33-84-54.5T348-12zm5 726q-24 0-40.5 15T296 768q0 23 16.5 38t40.5 15 40.5-15 16.5-38q0-24-16.5-39T353 714z"/><glyph glyph-name="uni0122" unicode="Ģ" horiz-adv-x="617" d="M348-12q-65 0-119.5 23T135 77.5t-61 107T52 328q0 79 22.5 142T137 577t95.5 67.5T353 668q34 0 62.5-7t52-18.5 42-26T542 587l-46-54q-25 26-58 44t-83 18-90-18.5-68-53-43.5-83.5T138 330q0-62 14.5-111.5t42-84.5 68-54T356 61q35 0 66.5 10.5T474 100v171H335v69h215V64q-32-33-84-54.5T348-12zm-87-214l-8 40q63 5 86 16.5t23 31.5-18 29.5T291-96l18 38q65-8 91-25.5t26-51.5q0-44-42.5-65.5T261-226z"/><glyph glyph-name="Gcaron" unicode="Ǧ" horiz-adv-x="617" d="M348-12q-65 0-119.5 23T135 77.5t-61 107T52 328q0 79 22.5 142T137 577t95.5 67.5T353 668q34 0 62.5-7t52-18.5 42-26T542 587l-46-54q-25 26-58 44t-83 18-90-18.5-68-53-43.5-83.5T138 330q0-62 14.5-111.5t42-84.5 68-54T356 61q35 0 66.5 10.5T474 100v171H335v69h215V64q-32-33-84-54.5T348-12zm-38 718L205 819l36 26 110-92h4l110 92 36-26-105-113h-86z"/><glyph glyph-name="uni1E20" unicode="Ḡ" horiz-adv-x="617" d="M348-12q-65 0-119.5 23T135 77.5t-61 107T52 328q0 79 22.5 142T137 577t95.5 67.5T353 668q34 0 62.5-7t52-18.5 42-26T542 587l-46-54q-25 26-58 44t-83 18-90-18.5-68-53-43.5-83.5T138 330q0-62 14.5-111.5t42-84.5 68-54T356 61q35 0 66.5 10.5T474 100v171H335v69h215V64q-32-33-84-54.5T348-12zM219 735v57h268v-57H219z"/><glyph glyph-name="uni00470303" horiz-adv-x="617" d="M348-12q-65 0-119.5 23T135 77.5t-61 107T52 328q0 79 22.5 142T137 577t95.5 67.5T353 668q34 0 62.5-7t52-18.5 42-26T542 587l-46-54q-25 26-58 44t-83 18-90-18.5-68-53-43.5-83.5T138 330q0-62 14.5-111.5t42-84.5 68-54T356 61q35 0 66.5 10.5T474 100v171H335v69h215V64q-32-33-84-54.5T348-12zm80 721q-28 0-48 11t-36.5 24.5-31 24.5-32.5 11q-19 0-32-17t-16-49l-56 4q3 57 30 90t72 33q28 0 48-11t36.5-24.5 31-24.5 32.5-11q40 0 48 66l56-4q-3-58-30-90.5T428 709z"/><glyph glyph-name="uni0193" unicode="Ɠ" horiz-adv-x="617" d="M348-12q-65 0-119.5 23T135 77.5t-61 107T52 328q0 79 22.5 142T137 577t95.5 67.5T353 668q26 0 48.5-3.5T444 655q-6 19-6 40 0 48 31 78.5t82 30.5q20 0 35-4t27-9l-16-63q-8 3-15.5 6t-18.5 3q-26 0-39.5-15.5T510 683t7.5-39.5T542 604l-46-55q-25 19-58 32.5T355 595t-90-18.5-68-53-43.5-83.5T138 330q0-62 14.5-111.5t42-84.5 68-54T356 61q35 0 66.5 10.5T474 100v171H335v69h215V64q-32-33-84-54.5T348-12z"/><glyph glyph-name="Hcircumflex" unicode="Ĥ" horiz-adv-x="652" d="M90 0v656h83V381h305v275h84V0h-84v309H173V0H90zm88 725l105 113h86l105-113-36-26-110 93h-4l-110-93z"/><glyph glyph-name="uni1E24" unicode="Ḥ" horiz-adv-x="652" d="M90 0v656h83V381h305v275h84V0h-84v309H173V0H90zm236-205q-23 0-38.5 15T272-151q0 23 15.5 38.5T326-97t38.5-15.5T380-151q0-24-15.5-39T326-205z"/><glyph glyph-name="uni1E2A" unicode="Ḫ" horiz-adv-x="652" d="M90 0v656h83V381h305v275h84V0h-84v309H173V0H90zm236-230q-40 0-69 13t-47.5 34.5-28 48.5T170-79l51 8q3-19 10.5-37.5T252-142t31.5-24 42.5-9 42.5 9 31.5 24 20.5 33.5T431-71l51-8q-2-28-11.5-55T442-182.5 394.5-217 326-230z"/><glyph glyph-name="Hbar" unicode="Ħ" horiz-adv-x="687" d="M32 492v42l78 5v117h83V539h305v117h84V539h72v-47h-72V0h-84v309H193V0h-83v492H32zm161-111h305v111H193V381z"/><glyph glyph-name="Igrave" unicode="Ì" horiz-adv-x="263" d="M90 0v656h83V0H90zm58 697L-4 812l47 55 142-128z"/><glyph glyph-name="Iacute" unicode="Í" horiz-adv-x="263" d="M90 0v656h83V0H90zm24 697l-37 42 142 128 47-55z"/><glyph glyph-name="Icircumflex" unicode="Î" horiz-adv-x="263" d="M90 0v656h83V0H90zM-17 725L88 838h86l105-113-36-26-110 93h-4L19 699z"/><glyph glyph-name="Itilde" unicode="Ĩ" horiz-adv-x="263" d="M90 0v656h83V0H90zm116 709q-28 0-48 11t-36.5 24.5-31 24.5T58 780q-19 0-32-17t-16-49l-56 4q3 57 30 90t72 33q28 0 48-11t36.5-24.5 31-24.5 32.5-11q40 0 48 66l56-4q-3-58-30-90.5T206 709z"/><glyph glyph-name="Idieresis" unicode="Ï" horiz-adv-x="263" d="M90 0v656h83V0H90zM28 715q-21 0-35 14t-14 35q0 22 14 35.5T28 813q22 0 35.5-13.5T77 764q0-21-13.5-35T28 715zm206 0q-22 0-35.5 14T185 764q0 22 13.5 35.5T234 813q21 0 35-13.5t14-35.5q0-21-14-35t-35-14z"/><glyph glyph-name="Imacron" unicode="Ī" horiz-adv-x="263" d="M90 0v656h83V0H90zM-3 735v57h268v-57H-3z"/><glyph glyph-name="Idotaccent" unicode="İ" horiz-adv-x="263" d="M90 0v656h83V0H90zm41 714q-24 0-40.5 15T74 768q0 23 16.5 38t40.5 15 40.5-15 16.5-38q0-24-16.5-39T131 714z"/><glyph glyph-name="uni01CF" unicode="Ǐ" horiz-adv-x="263" d="M90 0v656h83V0H90zm-2 706L-17 819l36 26 110-92h4l110 92 36-26-105-113H88z"/><glyph glyph-name="uni1EC8" unicode="Ỉ" horiz-adv-x="263" d="M90 0v656h83V0H90zm9 698l-9 38q24 7 40 17t16 29q0 39-83 42l9 48q66-2 102-22.5t36-58.5q0-22-9-37.5t-24.5-27-35.5-18T99 698z"/><glyph glyph-name="uni1ECA" unicode="Ị" horiz-adv-x="263" d="M90 0v656h83V0H90zm42-205q-23 0-38.5 15T78-151q0 23 15.5 38.5T132-97t38.5-15.5T186-151q0-24-15.5-39T132-205z"/><glyph glyph-name="Iogonek" unicode="Į" horiz-adv-x="263" d="M139-212q-40 0-68 22t-28 65 21.5 73T110 0H90v656h83V0q-31-24-48-50t-17-57q0-23 15-34.5t32-11.5q22 0 41 14l23-45q-15-11-37.5-19.5T139-212z"/><glyph glyph-name="uni012C" unicode="Ĭ" horiz-adv-x="263" d="M90 0v656h83V0H90zm41 705q-35 0-61 10.5t-44 28-28 41-13 49.5l50 8q6-35 29.5-59.5T131 758t66.5 24.5T227 842l50-8q-3-26-13-49.5t-28-41-44-28-61-10.5z"/><glyph glyph-name="Jcircumflex" unicode="Ĵ" horiz-adv-x="480" d="M212-12Q89-12 31 93l60 42q22-39 50-56.5T204 61q53 0 79 32.5T309 201v455h84V193q0-42-10.5-79.5t-32-65.5-56-44T212-12zm-12 737l105 113h86l105-113-36-26-110 93h-4l-110-93z"/><glyph glyph-name="uni0136" unicode="Ķ" horiz-adv-x="579" d="M90 0v656h83V327h3l273 329h94L338 406 575 0h-93L286 341 173 208V0H90zm148-226l-8 40q63 5 86 16.5t23 31.5-18 29.5T268-96l18 38q65-8 91-25.5t26-51.5q0-44-42.5-65.5T238-226z"/><glyph glyph-name="uni1E32" unicode="Ḳ" horiz-adv-x="579" d="M90 0v656h83V327h3l273 329h94L338 406 575 0h-93L286 341 173 208V0H90zm237-205q-23 0-38.5 15T273-151q0 23 15.5 38.5T327-97t38.5-15.5T381-151q0-24-15.5-39T327-205z"/><glyph glyph-name="uni1E34" unicode="Ḵ" horiz-adv-x="579" d="M90 0v656h83V327h3l273 329h94L338 406 575 0h-93L286 341 173 208V0H90zm102-169v57h266v-57H192z"/><glyph glyph-name="Lacute" unicode="Ĺ" horiz-adv-x="486" d="M90 0v656h83V71h287V0H90zm27 697l-37 42 142 128 47-55z"/><glyph glyph-name="Lcaron" unicode="Ľ" horiz-adv-x="486" d="M90 0v656h83V71h287V0H90zm244 515l-4 212h59l-1-57-14-155h-40z"/><glyph glyph-name="uni013B" unicode="Ļ" horiz-adv-x="486" d="M90 0v656h83V71h287V0H90zm111-226l-8 40q63 5 86 16.5t23 31.5-18 29.5T231-96l18 38q65-8 91-25.5t26-51.5q0-44-42.5-65.5T201-226z"/><glyph glyph-name="Ldot" unicode="Ŀ" horiz-adv-x="486" d="M90 0v656h83V71h287V0H90zm287 263q-25 0-42.5 17.5T317 325q0 29 17.5 46.5T377 389q24 0 41.5-17.5T436 325q0-27-17.5-44.5T377 263z"/><glyph glyph-name="uni1E36" unicode="Ḷ" horiz-adv-x="486" d="M90 0v656h83V71h287V0H90zm198-205q-23 0-38.5 15T234-151q0 23 15.5 38.5T288-97t38.5-15.5T342-151q0-24-15.5-39T288-205z"/><glyph glyph-name="uni1E38" unicode="Ḹ" horiz-adv-x="486" d="M90 0v656h83V71h287V0H90zM0 735v57h268v-57H0zm288-940q-23 0-38.5 15T234-151q0 23 15.5 38.5T288-97t38.5-15.5T342-151q0-24-15.5-39T288-205z"/><glyph glyph-name="uni1E3A" unicode="Ḻ" horiz-adv-x="486" d="M90 0v656h83V71h287V0H90zm65-169v57h266v-57H155z"/><glyph glyph-name="Lslash" unicode="Ł" horiz-adv-x="489" d="M24 200l-30 53 101 55v348h83V345l176 95 30-53-206-110V71h287V0H95v240z"/><glyph glyph-name="uni1E3E" unicode="Ḿ" horiz-adv-x="727" d="M90 0v656h100l126-350q12-34 23.5-68.5T363 169h4q12 34 22.5 68.5T412 306l124 350h101V0h-78v361q0 44 4 97t7 97h-4l-52-149L390 66h-55L211 406l-52 149h-4q3-44 6.5-97t3.5-97V0H90zm255 697l-37 42 142 128 47-55z"/><glyph glyph-name="uni1E40" unicode="Ṁ" horiz-adv-x="727" d="M90 0v656h100l126-350q12-34 23.5-68.5T363 169h4q12 34 22.5 68.5T412 306l124 350h101V0h-78v361q0 44 4 97t7 97h-4l-52-149L390 66h-55L211 406l-52 149h-4q3-44 6.5-97t3.5-97V0H90zm272 714q-24 0-40.5 15T305 768q0 23 16.5 38t40.5 15 40.5-15 16.5-38q0-24-16.5-39T362 714z"/><glyph glyph-name="uni1E42" unicode="Ṃ" horiz-adv-x="727" d="M90 0v656h100l126-350q12-34 23.5-68.5T363 169h4q12 34 22.5 68.5T412 306l124 350h101V0h-78v361q0 44 4 97t7 97h-4l-52-149L390 66h-55L211 406l-52 149h-4q3-44 6.5-97t3.5-97V0H90zm274-205q-23 0-38.5 15T310-151q0 23 15.5 38.5T364-97t38.5-15.5T418-151q0-24-15.5-39T364-205z"/><glyph glyph-name="Nacute" unicode="Ń" horiz-adv-x="647" d="M90 0v656h86l237-412 71-136h4q-3 50-6.5 103.5T478 317v339h79V0h-86L233 413l-71 135h-4q4-50 7.5-101.5T169 343V0H90zm220 697l-37 42 142 128 47-55z"/><glyph glyph-name="uni01F8" unicode="Ǹ" horiz-adv-x="647" d="M90 0v656h86l237-412 71-136h4q-3 50-6.5 103.5T478 317v339h79V0h-86L233 413l-71 135h-4q4-50 7.5-101.5T169 343V0H90zm254 697L192 812l47 55 142-128z"/><glyph glyph-name="Ncaron" unicode="Ň" horiz-adv-x="647" d="M90 0v656h86l237-412 71-136h4q-3 50-6.5 103.5T478 317v339h79V0h-86L233 413l-71 135h-4q4-50 7.5-101.5T169 343V0H90zm193 706L178 819l36 26 110-92h4l110 92 36-26-105-113h-86z"/><glyph glyph-name="Ntilde" unicode="Ñ" horiz-adv-x="647" d="M90 0v656h86l237-412 71-136h4q-3 50-6.5 103.5T478 317v339h79V0h-86L233 413l-71 135h-4q4-50 7.5-101.5T169 343V0H90zm311 709q-28 0-48 11t-36.5 24.5-31 24.5-32.5 11q-19 0-32-17t-16-49l-56 4q3 57 30 90t72 33q28 0 48-11t36.5-24.5 31-24.5 32.5-11q40 0 48 66l56-4q-3-58-30-90.5T401 709z"/><glyph glyph-name="uni0145" unicode="Ņ" horiz-adv-x="647" d="M90 0v656h86l237-412 71-136h4q-3 50-6.5 103.5T478 317v339h79V0h-86L233 413l-71 135h-4q4-50 7.5-101.5T169 343V0H90zm151-226l-8 40q63 5 86 16.5t23 31.5-18 29.5T271-96l18 38q65-8 91-25.5t26-51.5q0-44-42.5-65.5T241-226z"/><glyph glyph-name="uni1E44" unicode="Ṅ" horiz-adv-x="647" d="M90 0v656h86l237-412 71-136h4q-3 50-6.5 103.5T478 317v339h79V0h-86L233 413l-71 135h-4q4-50 7.5-101.5T169 343V0H90zm236 714q-24 0-40.5 15T269 768q0 23 16.5 38t40.5 15 40.5-15 16.5-38q0-24-16.5-39T326 714z"/><glyph glyph-name="uni1E46" unicode="Ṇ" horiz-adv-x="647" d="M90 0v656h86l237-412 71-136h4q-3 50-6.5 103.5T478 317v339h79V0h-86L233 413l-71 135h-4q4-50 7.5-101.5T169 343V0H90zm238-205q-23 0-38.5 15T274-151q0 23 15.5 38.5T328-97t38.5-15.5T382-151q0-24-15.5-39T328-205z"/><glyph glyph-name="uni1E48" unicode="Ṉ" horiz-adv-x="647" d="M90 0v656h86l237-412 71-136h4q-3 50-6.5 103.5T478 317v339h79V0h-86L233 413l-71 135h-4q4-50 7.5-101.5T169 343V0H90zm105-169v57h266v-57H195z"/><glyph glyph-name="Ograve" unicode="Ò" horiz-adv-x="664" d="M332-12q-62 0-113.5 24T130 80.5t-57.5 108T52 331t20.5 141.5 57.5 106 88.5 66.5T332 668t113.5-23.5 89-67 58-106T613 331q0-79-20.5-142.5t-58-108-89-68.5T332-12zm0 73q44 0 79.5 19t61 54.5 39.5 85T526 331q0 61-14 110t-39.5 83-61 52.5T332 595t-79.5-18.5-61-52.5-39.5-83-14-110q0-62 14-111.5t39.5-85 61-54.5T332 61zm17 636L197 812l47 55 142-128z"/><glyph glyph-name="Oacute" unicode="Ó" horiz-adv-x="664" d="M332-12q-62 0-113.5 24T130 80.5t-57.5 108T52 331t20.5 141.5 57.5 106 88.5 66.5T332 668t113.5-23.5 89-67 58-106T613 331q0-79-20.5-142.5t-58-108-89-68.5T332-12zm0 73q44 0 79.5 19t61 54.5 39.5 85T526 331q0 61-14 110t-39.5 83-61 52.5T332 595t-79.5-18.5-61-52.5-39.5-83-14-110q0-62 14-111.5t39.5-85 61-54.5T332 61zm-17 636l-37 42 142 128 47-55z"/><glyph glyph-name="Ocircumflex" unicode="Ô" horiz-adv-x="664" d="M332-12q-62 0-113.5 24T130 80.5t-57.5 108T52 331t20.5 141.5 57.5 106 88.5 66.5T332 668t113.5-23.5 89-67 58-106T613 331q0-79-20.5-142.5t-58-108-89-68.5T332-12zm0 73q44 0 79.5 19t61 54.5 39.5 85T526 331q0 61-14 110t-39.5 83-61 52.5T332 595t-79.5-18.5-61-52.5-39.5-83-14-110q0-62 14-111.5t39.5-85 61-54.5T332 61zM184 725l105 113h86l105-113-36-26-110 93h-4l-110-93z"/><glyph glyph-name="Otilde" unicode="Õ" horiz-adv-x="664" d="M332-12q-62 0-113.5 24T130 80.5t-57.5 108T52 331t20.5 141.5 57.5 106 88.5 66.5T332 668t113.5-23.5 89-67 58-106T613 331q0-79-20.5-142.5t-58-108-89-68.5T332-12zm0 73q44 0 79.5 19t61 54.5 39.5 85T526 331q0 61-14 110t-39.5 83-61 52.5T332 595t-79.5-18.5-61-52.5-39.5-83-14-110q0-62 14-111.5t39.5-85 61-54.5T332 61zm75 648q-28 0-48 11t-36.5 24.5-31 24.5-32.5 11q-19 0-32-17t-16-49l-56 4q3 57 30 90t72 33q28 0 48-11t36.5-24.5 31-24.5 32.5-11q40 0 48 66l56-4q-3-58-30-90.5T407 709z"/><glyph glyph-name="Odieresis" unicode="Ö" horiz-adv-x="664" d="M332-12q-62 0-113.5 24T130 80.5t-57.5 108T52 331t20.5 141.5 57.5 106 88.5 66.5T332 668t113.5-23.5 89-67 58-106T613 331q0-79-20.5-142.5t-58-108-89-68.5T332-12zm0 73q44 0 79.5 19t61 54.5 39.5 85T526 331q0 61-14 110t-39.5 83-61 52.5T332 595t-79.5-18.5-61-52.5-39.5-83-14-110q0-62 14-111.5t39.5-85 61-54.5T332 61zM229 715q-21 0-35 14t-14 35q0 22 14 35.5t35 13.5q22 0 35.5-13.5T278 764q0-21-13.5-35T229 715zm206 0q-22 0-35.5 14T386 764q0 22 13.5 35.5T435 813q21 0 35-13.5t14-35.5q0-21-14-35t-35-14z"/><glyph glyph-name="Omacron" unicode="Ō" horiz-adv-x="664" d="M332-12q-62 0-113.5 24T130 80.5t-57.5 108T52 331t20.5 141.5 57.5 106 88.5 66.5T332 668t113.5-23.5 89-67 58-106T613 331q0-79-20.5-142.5t-58-108-89-68.5T332-12zm0 73q44 0 79.5 19t61 54.5 39.5 85T526 331q0 61-14 110t-39.5 83-61 52.5T332 595t-79.5-18.5-61-52.5-39.5-83-14-110q0-62 14-111.5t39.5-85 61-54.5T332 61zM198 735v57h268v-57H198z"/><glyph glyph-name="Ohungarumlaut" unicode="Ő" horiz-adv-x="664" d="M332-12q-62 0-113.5 24T130 80.5t-57.5 108T52 331t20.5 141.5 57.5 106 88.5 66.5T332 668t113.5-23.5 89-67 58-106T613 331q0-79-20.5-142.5t-58-108-89-68.5T332-12zm0 73q44 0 79.5 19t61 54.5 39.5 85T526 331q0 61-14 110t-39.5 83-61 52.5T332 595t-79.5-18.5-61-52.5-39.5-83-14-110q0-62 14-111.5t39.5-85 61-54.5T332 61zM230 724l92 152 56-32-105-141zm160 0l92 152 56-32-105-141z"/><glyph glyph-name="uni01D1" unicode="Ǒ" horiz-adv-x="664" d="M332-12q-62 0-113.5 24T130 80.5t-57.5 108T52 331t20.5 141.5 57.5 106 88.5 66.5T332 668t113.5-23.5 89-67 58-106T613 331q0-79-20.5-142.5t-58-108-89-68.5T332-12zm0 73q44 0 79.5 19t61 54.5 39.5 85T526 331q0 61-14 110t-39.5 83-61 52.5T332 595t-79.5-18.5-61-52.5-39.5-83-14-110q0-62 14-111.5t39.5-85 61-54.5T332 61zm-43 645L184 819l36 26 110-92h4l110 92 36-26-105-113h-86z"/><glyph glyph-name="uni1ECC" unicode="Ọ" horiz-adv-x="664" d="M332-12q-62 0-113.5 24T130 80.5t-57.5 108T52 331t20.5 141.5 57.5 106 88.5 66.5T332 668t113.5-23.5 89-67 58-106T613 331q0-79-20.5-142.5t-58-108-89-68.5T332-12zm0 73q44 0 79.5 19t61 54.5 39.5 85T526 331q0 61-14 110t-39.5 83-61 52.5T332 595t-79.5-18.5-61-52.5-39.5-83-14-110q0-62 14-111.5t39.5-85 61-54.5T332 61zm0-266q-23 0-38.5 15T278-151q0 23 15.5 38.5T332-97t38.5-15.5T386-151q0-24-15.5-39T332-205z"/><glyph glyph-name="uni1ECE" unicode="Ỏ" horiz-adv-x="664" d="M332-12q-62 0-113.5 24T130 80.5t-57.5 108T52 331t20.5 141.5 57.5 106 88.5 66.5T332 668t113.5-23.5 89-67 58-106T613 331q0-79-20.5-142.5t-58-108-89-68.5T332-12zm0 73q44 0 79.5 19t61 54.5 39.5 85T526 331q0 61-14 110t-39.5 83-61 52.5T332 595t-79.5-18.5-61-52.5-39.5-83-14-110q0-62 14-111.5t39.5-85 61-54.5T332 61zm-32 637l-9 38q24 7 40 17t16 29q0 39-83 42l9 48q66-2 102-22.5t36-58.5q0-22-9-37.5t-24.5-27-35.5-18-42-10.5z"/><glyph glyph-name="uni1ED0" unicode="Ố" horiz-adv-x="664" d="M332-12q-62 0-113.5 24T130 80.5t-57.5 108T52 331t20.5 141.5 57.5 106 88.5 66.5T332 668t113.5-23.5 89-67 58-106T613 331q0-79-20.5-142.5t-58-108-89-68.5T332-12zm0 73q44 0 79.5 19t61 54.5 39.5 85T526 331q0 61-14 110t-39.5 83-61 52.5T332 595t-79.5-18.5-61-52.5-39.5-83-14-110q0-62 14-111.5t39.5-85 61-54.5T332 61zm-95 638l-34 26 93 90h72l93-90-34-26-93 69h-4zm216 64l-30 32 97 93 35-39z"/><glyph glyph-name="uni1ED2" unicode="Ồ" horiz-adv-x="664" d="M332-12q-62 0-113.5 24T130 80.5t-57.5 108T52 331t20.5 141.5 57.5 106 88.5 66.5T332 668t113.5-23.5 89-67 58-106T613 331q0-79-20.5-142.5t-58-108-89-68.5T332-12zm0 73q44 0 79.5 19t61 54.5 39.5 85T526 331q0 61-14 110t-39.5 83-61 52.5T332 595t-79.5-18.5-61-52.5-39.5-83-14-110q0-62 14-111.5t39.5-85 61-54.5T332 61zm-95 638l-34 26 93 90h72l93-90-34-26-93 69h-4zm4 94l-30-30-90 88 35 37z"/><glyph glyph-name="uni1ED4" unicode="Ổ" horiz-adv-x="664" d="M332-12q-62 0-113.5 24T130 80.5t-57.5 108T52 331t20.5 141.5 57.5 106 88.5 66.5T332 668t113.5-23.5 89-67 58-106T613 331q0-79-20.5-142.5t-58-108-89-68.5T332-12zm0 73q44 0 79.5 19t61 54.5 39.5 85T526 331q0 61-14 110t-39.5 83-61 52.5T332 595t-79.5-18.5-61-52.5-39.5-83-14-110q0-62 14-111.5t39.5-85 61-54.5T332 61zm-95 638l-34 26 93 90h72l93-90-34-26-93 69h-4zm210 55l-11 35q19 5 32 12.5t13 23.5q0 20-16.5 28.5T410 864l9 42q59-2 89.5-20t30.5-53q0-38-28-55.5T447 754z"/><glyph glyph-name="uni1ED6" unicode="Ỗ" horiz-adv-x="664" d="M332-12q-62 0-113.5 24T130 80.5t-57.5 108T52 331t20.5 141.5 57.5 106 88.5 66.5T332 668t113.5-23.5 89-67 58-106T613 331q0-79-20.5-142.5t-58-108-89-68.5T332-12zm0 73q44 0 79.5 19t61 54.5 39.5 85T526 331q0 61-14 110t-39.5 83-61 52.5T332 595t-79.5-18.5-61-52.5-39.5-83-14-110q0-62 14-111.5t39.5-85 61-54.5T332 61zm-95 638l-34 26 93 87h72l93-87-34-26-93 66h-4zm-50 149q2 38 20 64.5t59 26.5q24 0 41-7.5t31.5-17 27.5-17 28-7.5q18 0 26.5 12t11.5 34l45-5q-2-39-20-65.5T398 839q-24 0-41 8t-31.5 17-27.5 17-28 8q-18 0-26.5-12T232 843z"/><glyph glyph-name="uni1ED8" unicode="Ộ" horiz-adv-x="664" d="M332-12q-62 0-113.5 24T130 80.5t-57.5 108T52 331t20.5 141.5 57.5 106 88.5 66.5T332 668t113.5-23.5 89-67 58-106T613 331q0-79-20.5-142.5t-58-108-89-68.5T332-12zm0 73q44 0 79.5 19t61 54.5 39.5 85T526 331q0 61-14 110t-39.5 83-61 52.5T332 595t-79.5-18.5-61-52.5-39.5-83-14-110q0-62 14-111.5t39.5-85 61-54.5T332 61zM184 725l105 113h86l105-113-36-26-110 93h-4l-110-93zm148-930q-23 0-38.5 15T278-151q0 23 15.5 38.5T332-97t38.5-15.5T386-151q0-24-15.5-39T332-205z"/><glyph glyph-name="uni014E" unicode="Ŏ" horiz-adv-x="664" d="M332-12q-62 0-113.5 24T130 80.5t-57.5 108T52 331t20.5 141.5 57.5 106 88.5 66.5T332 668t113.5-23.5 89-67 58-106T613 331q0-79-20.5-142.5t-58-108-89-68.5T332-12zm0 73q44 0 79.5 19t61 54.5 39.5 85T526 331q0 61-14 110t-39.5 83-61 52.5T332 595t-79.5-18.5-61-52.5-39.5-83-14-110q0-62 14-111.5t39.5-85 61-54.5T332 61zm0 644q-35 0-61 10.5t-44 28-28 41-13 49.5l50 8q6-35 29.5-59.5T332 758t66.5 24.5T428 842l50-8q-3-26-13-49.5t-28-41-44-28-61-10.5z"/><glyph glyph-name="uni1E52" unicode="Ṓ" horiz-adv-x="664" d="M332-12q-62 0-113.5 24T130 80.5t-57.5 108T52 331t20.5 141.5 57.5 106 88.5 66.5T332 668t113.5-23.5 89-67 58-106T613 331q0-79-20.5-142.5t-58-108-89-68.5T332-12zm0 73q44 0 79.5 19t61 54.5 39.5 85T526 331q0 61-14 110t-39.5 83-61 52.5T332 595t-79.5-18.5-61-52.5-39.5-83-14-110q0-62 14-111.5t39.5-85 61-54.5T332 61zm-18 766l-31 38 121 103 39-48zm-116-92v57h268v-57H198z"/><glyph glyph-name="Oslash" unicode="Ø" horiz-adv-x="664" d="M335-12q-104 0-175 65L96-30 50 6l70 91q-31 45-48 103.5T55 331q0 79 20.5 141.5t57.5 106 88.5 66.5T335 668q104 0 176-63l62 81 46-35-69-89q32-44 49-101.5T616 331q0-79-20.5-142.5t-58-108-89-68.5T335-12zM141 331q0-48 8.5-89.5T174 168l288 373q-51 54-127 54-44 0-79.5-18.5t-61-52.5-39.5-83-14-110zM335 61q44 0 79.5 19t61 54.5 39.5 85T529 331q0 48-8.5 88T496 491L209 117q50-56 126-56z"/><glyph glyph-name="OE" unicode="Œ" horiz-adv-x="847" d="M369 0q-75 0-133.5 22.5t-99.5 65-62.5 104T52 331q0 157 84 241t237 84h415v-70H510V380h232v-71H510V71h288V0H369zm10 68h48v520h-48q-119 0-180-66t-61-191q0-126 61-194.5T379 68z"/><glyph glyph-name="Ohorn" unicode="Ơ" horiz-adv-x="664" d="M335-12q-62 0-113.5 24T133 80.5t-57.5 108T55 331t20.5 141.5 57.5 106 88.5 66.5T335 668q71 0 130-31 42 8 61.5 27.5T546 719q0 15-4 30.5T532 777l65 28q10-17 16.5-37t6.5-43q0-51-28.5-80T513 603q48-44 75.5-112.5T616 331q0-79-20.5-142.5t-58-108-89-68.5T335-12zm0 73q44 0 79.5 19t61 54.5 39.5 85T529 331q0 61-14 110t-39.5 83-61 52.5T335 595t-79.5-18.5-61-52.5-39.5-83-14-110q0-62 14-111.5t39.5-85 61-54.5T335 61z"/><glyph glyph-name="uni1EDA" unicode="Ớ" horiz-adv-x="664" d="M335-12q-62 0-113.5 24T133 80.5t-57.5 108T55 331t20.5 141.5 57.5 106 88.5 66.5T335 668q71 0 130-31 42 8 61.5 27.5T546 719q0 15-4 30.5T532 777l65 28q10-17 16.5-37t6.5-43q0-51-28.5-80T513 603q48-44 75.5-112.5T616 331q0-79-20.5-142.5t-58-108-89-68.5T335-12zm0 73q44 0 79.5 19t61 54.5 39.5 85T529 331q0 61-14 110t-39.5 83-61 52.5T335 595t-79.5-18.5-61-52.5-39.5-83-14-110q0-62 14-111.5t39.5-85 61-54.5T335 61zm-20 636l-37 42 142 128 47-55z"/><glyph glyph-name="uni1EDC" unicode="Ờ" horiz-adv-x="664" d="M335-12q-62 0-113.5 24T133 80.5t-57.5 108T55 331t20.5 141.5 57.5 106 88.5 66.5T335 668q71 0 130-31 42 8 61.5 27.5T546 719q0 15-4 30.5T532 777l65 28q10-17 16.5-37t6.5-43q0-51-28.5-80T513 603q48-44 75.5-112.5T616 331q0-79-20.5-142.5t-58-108-89-68.5T335-12zm0 73q44 0 79.5 19t61 54.5 39.5 85T529 331q0 61-14 110t-39.5 83-61 52.5T335 595t-79.5-18.5-61-52.5-39.5-83-14-110q0-62 14-111.5t39.5-85 61-54.5T335 61zm14 636L197 812l47 55 142-128z"/><glyph glyph-name="uni1EDE" unicode="Ở" horiz-adv-x="664" d="M335-12q-62 0-113.5 24T133 80.5t-57.5 108T55 331t20.5 141.5 57.5 106 88.5 66.5T335 668q71 0 130-31 42 8 61.5 27.5T546 719q0 15-4 30.5T532 777l65 28q10-17 16.5-37t6.5-43q0-51-28.5-80T513 603q48-44 75.5-112.5T616 331q0-79-20.5-142.5t-58-108-89-68.5T335-12zm0 73q44 0 79.5 19t61 54.5 39.5 85T529 331q0 61-14 110t-39.5 83-61 52.5T335 595t-79.5-18.5-61-52.5-39.5-83-14-110q0-62 14-111.5t39.5-85 61-54.5T335 61zm-35 637l-9 38q24 7 40 17t16 29q0 39-83 42l9 48q66-2 102-22.5t36-58.5q0-22-9-37.5t-24.5-27-35.5-18-42-10.5z"/><glyph glyph-name="uni1EE0" unicode="Ỡ" horiz-adv-x="664" d="M335-12q-62 0-113.5 24T133 80.5t-57.5 108T55 331t20.5 141.5 57.5 106 88.5 66.5T335 668q71 0 130-31 42 8 61.5 27.5T546 719q0 15-4 30.5T532 777l65 28q10-17 16.5-37t6.5-43q0-51-28.5-80T513 603q48-44 75.5-112.5T616 331q0-79-20.5-142.5t-58-108-89-68.5T335-12zm0 73q44 0 79.5 19t61 54.5 39.5 85T529 331q0 61-14 110t-39.5 83-61 52.5T335 595t-79.5-18.5-61-52.5-39.5-83-14-110q0-62 14-111.5t39.5-85 61-54.5T335 61zm65 648q-28 0-48 11t-36.5 24.5-31 24.5-32.5 11q-19 0-32-17t-16-49l-56 4q3 57 30 90t72 33q28 0 48-11t36.5-24.5 31-24.5 32.5-11q40 0 48 66l56-4q-3-58-30-90.5T400 709z"/><glyph glyph-name="uni1EE2" unicode="Ợ" horiz-adv-x="664" d="M335-12q-62 0-113.5 24T133 80.5t-57.5 108T55 331t20.5 141.5 57.5 106 88.5 66.5T335 668q71 0 130-31 42 8 61.5 27.5T546 719q0 15-4 30.5T532 777l65 28q10-17 16.5-37t6.5-43q0-51-28.5-80T513 603q48-44 75.5-112.5T616 331q0-79-20.5-142.5t-58-108-89-68.5T335-12zm0 73q44 0 79.5 19t61 54.5 39.5 85T529 331q0 61-14 110t-39.5 83-61 52.5T335 595t-79.5-18.5-61-52.5-39.5-83-14-110q0-62 14-111.5t39.5-85 61-54.5T335 61zm-3-266q-23 0-38.5 15T278-151q0 23 15.5 38.5T332-97t38.5-15.5T386-151q0-24-15.5-39T332-205z"/><glyph glyph-name="uni01EA" unicode="Ǫ" horiz-adv-x="664" d="M361-212q-40 0-67.5 22T266-125q0 33 17.5 62.5T327-11q-63 1-114 26t-87 69.5-55 107T52 331q0 79 20.5 141.5t57.5 106 88.5 66.5T332 668t113.5-23.5 89-67 58-106T613 331q0-67-13.5-120t-40-94T495 45.5 408-7q-41-18-59.5-46T330-107q0-23 15-34.5t33-11.5q12 0 21.5 3.5T418-139l23-45q-14-11-37-19.5t-43-8.5zM332 61q44 0 79.5 19t61 54.5 39.5 85T526 331q0 61-14 110t-39.5 83-61 52.5T332 595t-79.5-18.5-61-52.5-39.5-83-14-110q0-62 14-111.5t39.5-85 61-54.5T332 61z"/><glyph glyph-name="Racute" unicode="Ŕ" horiz-adv-x="569" d="M90 0v656h205q50 0 92.5-9.5t73-31.5 47.5-57 17-86q0-77-40-123t-108-63L544 0h-94L292 277H173V0H90zm83 345h110q77 0 118 31.5t41 95.5q0 65-41 91t-118 26H173V345zm98 352l-37 42 142 128 47-55z"/><glyph glyph-name="Rcaron" unicode="Ř" horiz-adv-x="569" d="M90 0v656h205q50 0 92.5-9.5t73-31.5 47.5-57 17-86q0-77-40-123t-108-63L544 0h-94L292 277H173V0H90zm83 345h110q77 0 118 31.5t41 95.5q0 65-41 91t-118 26H173V345zm72 361L140 819l36 26 110-92h4l110 92 36-26-105-113h-86z"/><glyph glyph-name="uni1E58" unicode="Ṙ" horiz-adv-x="569" d="M90 0v656h205q50 0 92.5-9.5t73-31.5 47.5-57 17-86q0-77-40-123t-108-63L544 0h-94L292 277H173V0H90zm83 345h110q77 0 118 31.5t41 95.5q0 65-41 91t-118 26H173V345zm115 369q-24 0-40.5 15T231 768q0 23 16.5 38t40.5 15 40.5-15 16.5-38q0-24-16.5-39T288 714z"/><glyph glyph-name="uni0156" unicode="Ŗ" horiz-adv-x="569" d="M90 0v656h205q50 0 92.5-9.5t73-31.5 47.5-57 17-86q0-77-40-123t-108-63L544 0h-94L292 277H173V0H90zm83 345h110q77 0 118 31.5t41 95.5q0 65-41 91t-118 26H173V345zm43-571l-8 40q63 5 86 16.5t23 31.5-18 29.5T246-96l18 38q65-8 91-25.5t26-51.5q0-44-42.5-65.5T216-226z"/><glyph glyph-name="uni1E5A" unicode="Ṛ" horiz-adv-x="569" d="M90 0v656h205q50 0 92.5-9.5t73-31.5 47.5-57 17-86q0-77-40-123t-108-63L544 0h-94L292 277H173V0H90zm83 345h110q77 0 118 31.5t41 95.5q0 65-41 91t-118 26H173V345zm130-550q-23 0-38.5 15T249-151q0 23 15.5 38.5T303-97t38.5-15.5T357-151q0-24-15.5-39T303-205z"/><glyph glyph-name="uni1E5C" unicode="Ṝ" horiz-adv-x="569" d="M90 0v656h205q50 0 92.5-9.5t73-31.5 47.5-57 17-86q0-77-40-123t-108-63L544 0h-94L292 277H173V0H90zm83 345h110q77 0 118 31.5t41 95.5q0 65-41 91t-118 26H173V345zm-19 390v57h268v-57H154zm149-940q-23 0-38.5 15T249-151q0 23 15.5 38.5T303-97t38.5-15.5T357-151q0-24-15.5-39T303-205z"/><glyph glyph-name="uni1E5E" unicode="Ṟ" horiz-adv-x="569" d="M90 0v656h205q50 0 92.5-9.5t73-31.5 47.5-57 17-86q0-77-40-123t-108-63L544 0h-94L292 277H173V0H90zm83 345h110q77 0 118 31.5t41 95.5q0 65-41 91t-118 26H173V345zm-3-514v57h266v-57H170z"/><glyph glyph-name="Sacute" unicode="Ś" horiz-adv-x="534" d="M272-12q-69 0-128 26T42 85l50 58q35-37 82.5-59.5T273 61q65 0 101 29.5t36 77.5q0 25-8.5 42.5t-23 30T344 263t-43 21l-94 41q-23 10-47 24t-43 34-31 47.5T74 494q0 37 15.5 69t43 55.5 65 36.5 82.5 13q59 0 109-22.5t85-58.5l-45-54q-30 29-66.5 45.5T280 595q-55 0-88.5-25.5T158 499q0-24 9.5-40.5t25.5-29 35-22 39-17.5l93-40q28-12 53-27.5t43-36 28.5-48T495 175q0-39-15.5-73T435 42.5t-70-40T272-12zm-10 709l-37 42 142 128 47-55z"/><glyph glyph-name="Scircumflex" unicode="Ŝ" horiz-adv-x="534" d="M272-12q-69 0-128 26T42 85l50 58q35-37 82.5-59.5T273 61q65 0 101 29.5t36 77.5q0 25-8.5 42.5t-23 30T344 263t-43 21l-94 41q-23 10-47 24t-43 34-31 47.5T74 494q0 37 15.5 69t43 55.5 65 36.5 82.5 13q59 0 109-22.5t85-58.5l-45-54q-30 29-66.5 45.5T280 595q-55 0-88.5-25.5T158 499q0-24 9.5-40.5t25.5-29 35-22 39-17.5l93-40q28-12 53-27.5t43-36 28.5-48T495 175q0-39-15.5-73T435 42.5t-70-40T272-12zM131 725l105 113h86l105-113-36-26-110 93h-4l-110-93z"/><glyph glyph-name="Scaron" unicode="Š" horiz-adv-x="534" d="M272-12q-69 0-128 26T42 85l50 58q35-37 82.5-59.5T273 61q65 0 101 29.5t36 77.5q0 25-8.5 42.5t-23 30T344 263t-43 21l-94 41q-23 10-47 24t-43 34-31 47.5T74 494q0 37 15.5 69t43 55.5 65 36.5 82.5 13q59 0 109-22.5t85-58.5l-45-54q-30 29-66.5 45.5T280 595q-55 0-88.5-25.5T158 499q0-24 9.5-40.5t25.5-29 35-22 39-17.5l93-40q28-12 53-27.5t43-36 28.5-48T495 175q0-39-15.5-73T435 42.5t-70-40T272-12zm-36 718L131 819l36 26 110-92h4l110 92 36-26-105-113h-86z"/><glyph glyph-name="uni015E" unicode="Ş" horiz-adv-x="534" d="M272-12q-69 0-128 26T42 85l50 58q35-37 82.5-59.5T273 61q65 0 101 29.5t36 77.5q0 25-8.5 42.5t-23 30T344 263t-43 21l-94 41q-23 10-47 24t-43 34-31 47.5T74 494q0 37 15.5 69t43 55.5 65 36.5 82.5 13q59 0 109-22.5t85-58.5l-45-54q-30 29-66.5 45.5T280 595q-55 0-88.5-25.5T158 499q0-24 9.5-40.5t25.5-29 35-22 39-17.5l93-40q28-12 53-27.5t43-36 28.5-48T495 175q0-39-15.5-73T435 42.5t-70-40T272-12zm-86-214l-8 40q63 5 86 16.5t23 33.5q0 20-17 31t-60 17l44 91h53l-29-67q35-8 54-24t19-47q0-44-42.5-65.5T186-226z"/><glyph glyph-name="uni0218" unicode="Ș" horiz-adv-x="534" d="M272-12q-69 0-128 26T42 85l50 58q35-37 82.5-59.5T273 61q65 0 101 29.5t36 77.5q0 25-8.5 42.5t-23 30T344 263t-43 21l-94 41q-23 10-47 24t-43 34-31 47.5T74 494q0 37 15.5 69t43 55.5 65 36.5 82.5 13q59 0 109-22.5t85-58.5l-45-54q-30 29-66.5 45.5T280 595q-55 0-88.5-25.5T158 499q0-24 9.5-40.5t25.5-29 35-22 39-17.5l93-40q28-12 53-27.5t43-36 28.5-48T495 175q0-39-15.5-73T435 42.5t-70-40T272-12zm-86-214l-8 40q63 5 86 16.5t23 31.5-18 29.5T216-96l18 38q65-8 91-25.5t26-51.5q0-44-42.5-65.5T186-226z"/><glyph glyph-name="uni1E60" unicode="Ṡ" horiz-adv-x="534" d="M272-12q-69 0-128 26T42 85l50 58q35-37 82.5-59.5T273 61q65 0 101 29.5t36 77.5q0 25-8.5 42.5t-23 30T344 263t-43 21l-94 41q-23 10-47 24t-43 34-31 47.5T74 494q0 37 15.5 69t43 55.5 65 36.5 82.5 13q59 0 109-22.5t85-58.5l-45-54q-30 29-66.5 45.5T280 595q-55 0-88.5-25.5T158 499q0-24 9.5-40.5t25.5-29 35-22 39-17.5l93-40q28-12 53-27.5t43-36 28.5-48T495 175q0-39-15.5-73T435 42.5t-70-40T272-12zm7 726q-24 0-40.5 15T222 768q0 23 16.5 38t40.5 15 40.5-15 16.5-38q0-24-16.5-39T279 714z"/><glyph glyph-name="uni1E62" unicode="Ṣ" horiz-adv-x="534" d="M272-12q-69 0-128 26T42 85l50 58q35-37 82.5-59.5T273 61q65 0 101 29.5t36 77.5q0 25-8.5 42.5t-23 30T344 263t-43 21l-94 41q-23 10-47 24t-43 34-31 47.5T74 494q0 37 15.5 69t43 55.5 65 36.5 82.5 13q59 0 109-22.5t85-58.5l-45-54q-30 29-66.5 45.5T280 595q-55 0-88.5-25.5T158 499q0-24 9.5-40.5t25.5-29 35-22 39-17.5l93-40q28-12 53-27.5t43-36 28.5-48T495 175q0-39-15.5-73T435 42.5t-70-40T272-12zm1-193q-23 0-38.5 15T219-151q0 23 15.5 38.5T273-97t38.5-15.5T327-151q0-24-15.5-39T273-205z"/><glyph glyph-name="uni1E9E" unicode="ẞ" horiz-adv-x="667" d="M434-12q-58 0-104 21t-77 55l48 54q29-32 59-46t67-14q53 0 82 31.5t29 81.5q0 23-8.5 44T499 254t-59.5 32-94.5 24l-5 54 137 153q-17 34-49.5 58T344 599q-80 0-124.5-47.5T175 402V0H91v417q0 118 67 184.5T347 668q84 0 137-42t80-112L426 362q105-21 151.5-70T624 171q0-39-13.5-72.5t-38.5-58T512 2t-78-14z"/><glyph glyph-name="Tcaron" unicode="Ť" horiz-adv-x="536" d="M226 0v586H28v70h480v-70H310V0h-84zm-2 706L119 819l36 26 110-92h4l110 92 36-26-105-113h-86z"/><glyph glyph-name="uni0162" unicode="Ţ" horiz-adv-x="536" d="M226 0v586H28v70h480v-70H310V0h-84zm-49-226l-8 40q63 5 86 16.5t23 33.5q0 20-17 31t-60 17l44 91h53l-29-67q35-8 54-24t19-47q0-44-42.5-65.5T177-226z"/><glyph glyph-name="uni021A" unicode="Ț" horiz-adv-x="536" d="M226 0v586H28v70h480v-70H310V0h-84zm-44-226l-8 40q63 5 86 16.5t23 31.5-18 29.5T212-96l18 38q65-8 91-25.5t26-51.5q0-44-42.5-65.5T182-226z"/><glyph glyph-name="uni1E6C" unicode="Ṭ" horiz-adv-x="536" d="M226 0v586H28v70h480v-70H310V0h-84zm43-205q-23 0-38.5 15T215-151q0 23 15.5 38.5T269-97t38.5-15.5T323-151q0-24-15.5-39T269-205z"/><glyph glyph-name="uni1E6E" unicode="Ṯ" horiz-adv-x="536" d="M226 0v586H28v70h480v-70H310V0h-84zm-90-169v57h266v-57H136z"/><glyph glyph-name="uni0166" unicode="Ŧ" horiz-adv-x="536" d="M226 0v313H103v44l88 3h35v226H28v70h480v-70H310V360h123v-47H310V0h-84z"/><glyph glyph-name="Ugrave" unicode="Ù" horiz-adv-x="645" d="M323-12q-50 0-93.5 14.5t-75 48T105 138 87 271v385h83V269q0-59 12-99t32.5-64T263 71.5 323 61q33 0 61 10.5t49 34.5 33 64 12 99v387h80V271q0-79-18-133t-49.5-87.5-74.5-48T323-12zm16 709L187 812l47 55 142-128z"/><glyph glyph-name="Uacute" unicode="Ú" horiz-adv-x="645" d="M323-12q-50 0-93.5 14.5t-75 48T105 138 87 271v385h83V269q0-59 12-99t32.5-64T263 71.5 323 61q33 0 61 10.5t49 34.5 33 64 12 99v387h80V271q0-79-18-133t-49.5-87.5-74.5-48T323-12zm-18 709l-37 42 142 128 47-55z"/><glyph glyph-name="Ucircumflex" unicode="Û" horiz-adv-x="645" d="M323-12q-50 0-93.5 14.5t-75 48T105 138 87 271v385h83V269q0-59 12-99t32.5-64T263 71.5 323 61q33 0 61 10.5t49 34.5 33 64 12 99v387h80V271q0-79-18-133t-49.5-87.5-74.5-48T323-12zM174 725l105 113h86l105-113-36-26-110 93h-4l-110-93z"/><glyph glyph-name="Utilde" unicode="Ũ" horiz-adv-x="645" d="M323-12q-50 0-93.5 14.5t-75 48T105 138 87 271v385h83V269q0-59 12-99t32.5-64T263 71.5 323 61q33 0 61 10.5t49 34.5 33 64 12 99v387h80V271q0-79-18-133t-49.5-87.5-74.5-48T323-12zm74 721q-28 0-48 11t-36.5 24.5-31 24.5-32.5 11q-19 0-32-17t-16-49l-56 4q3 57 30 90t72 33q28 0 48-11t36.5-24.5 31-24.5 32.5-11q40 0 48 66l56-4q-3-58-30-90.5T397 709z"/><glyph glyph-name="Udieresis" unicode="Ü" horiz-adv-x="645" d="M323-12q-50 0-93.5 14.5t-75 48T105 138 87 271v385h83V269q0-59 12-99t32.5-64T263 71.5 323 61q33 0 61 10.5t49 34.5 33 64 12 99v387h80V271q0-79-18-133t-49.5-87.5-74.5-48T323-12zM219 715q-21 0-35 14t-14 35q0 22 14 35.5t35 13.5q22 0 35.5-13.5T268 764q0-21-13.5-35T219 715zm206 0q-22 0-35.5 14T376 764q0 22 13.5 35.5T425 813q21 0 35-13.5t14-35.5q0-21-14-35t-35-14z"/><glyph glyph-name="Umacron" unicode="Ū" horiz-adv-x="645" d="M323-12q-50 0-93.5 14.5t-75 48T105 138 87 271v385h83V269q0-59 12-99t32.5-64T263 71.5 323 61q33 0 61 10.5t49 34.5 33 64 12 99v387h80V271q0-79-18-133t-49.5-87.5-74.5-48T323-12zM188 735v57h268v-57H188z"/><glyph glyph-name="Ubreve" unicode="Ŭ" horiz-adv-x="645" d="M323-12q-50 0-93.5 14.5t-75 48T105 138 87 271v385h83V269q0-59 12-99t32.5-64T263 71.5 323 61q33 0 61 10.5t49 34.5 33 64 12 99v387h80V271q0-79-18-133t-49.5-87.5-74.5-48T323-12zm-1 717q-35 0-61 10.5t-44 28-28 41-13 49.5l50 8q6-35 29.5-59.5T322 758t66.5 24.5T418 842l50-8q-3-26-13-49.5t-28-41-44-28-61-10.5z"/><glyph glyph-name="Uring" unicode="Ů" horiz-adv-x="645" d="M323-12q-50 0-93.5 14.5t-75 48T105 138 87 271v385h83V269q0-59 12-99t32.5-64T263 71.5 323 61q33 0 61 10.5t49 34.5 33 64 12 99v387h80V271q0-79-18-133t-49.5-87.5-74.5-48T323-12zm-1 711q-42 0-69.5 24.5T225 789q0 42 27.5 66.5T322 880t69.5-24.5T419 789q0-41-27.5-65.5T322 699zm0 36q20 0 35.5 14t15.5 40-15.5 40-35.5 14q-22 0-37-14t-15-40 15-40 37-14z"/><glyph glyph-name="Uhungarumlaut" unicode="Ű" horiz-adv-x="645" d="M323-12q-50 0-93.5 14.5t-75 48T105 138 87 271v385h83V269q0-59 12-99t32.5-64T263 71.5 323 61q33 0 61 10.5t49 34.5 33 64 12 99v387h80V271q0-79-18-133t-49.5-87.5-74.5-48T323-12zM220 724l92 152 56-32-105-141zm160 0l92 152 56-32-105-141z"/><glyph glyph-name="uni01D3" unicode="Ǔ" horiz-adv-x="645" d="M323-12q-50 0-93.5 14.5t-75 48T105 138 87 271v385h83V269q0-59 12-99t32.5-64T263 71.5 323 61q33 0 61 10.5t49 34.5 33 64 12 99v387h80V271q0-79-18-133t-49.5-87.5-74.5-48T323-12zm-44 718L174 819l36 26 110-92h4l110 92 36-26-105-113h-86z"/><glyph glyph-name="uni01D5" unicode="Ǖ" horiz-adv-x="645" d="M323-12q-50 0-93.5 14.5t-75 48T105 138 87 271v385h83V269q0-59 12-99t32.5-64T263 71.5 323 61q33 0 61 10.5t49 34.5 33 64 12 99v387h80V271q0-79-18-133t-49.5-87.5-74.5-48T323-12zM219 715q-20 0-32.5 13T174 761t12.5 32.5T219 806t33-12.5 13-32.5-13-33-33-13zm-31 146v46h268v-46H188zm237-146q-20 0-33 13t-13 33 13 32.5 33 12.5 32.5-12.5T470 761t-12.5-33-32.5-13z"/><glyph glyph-name="uni01D7" unicode="Ǘ" horiz-adv-x="645" d="M323-12q-50 0-93.5 14.5t-75 48T105 138 87 271v385h83V269q0-59 12-99t32.5-64T263 71.5 323 61q33 0 61 10.5t49 34.5 33 64 12 99v387h80V271q0-79-18-133t-49.5-87.5-74.5-48T323-12zM219 715q-20 0-32.5 13T174 761t12.5 32.5T219 806t33-12.5 13-32.5-13-33-33-13zm65 134l95 119 53-36-111-109zm141-134q-20 0-33 13t-13 33 13 32.5 33 12.5 32.5-12.5T470 761t-12.5-33-32.5-13z"/><glyph glyph-name="uni01D9" unicode="Ǚ" horiz-adv-x="645" d="M323-12q-50 0-93.5 14.5t-75 48T105 138 87 271v385h83V269q0-59 12-99t32.5-64T263 71.5 323 61q33 0 61 10.5t49 34.5 33 64 12 99v387h80V271q0-79-18-133t-49.5-87.5-74.5-48T323-12zm-37 851l-99 96 33 27 100-75h4l100 75 33-27-99-96h-72zm-67-124q-20 0-32.5 13T174 761t12.5 32.5T219 806t33-12.5 13-32.5-13-33-33-13zm206 0q-20 0-33 13t-13 33 13 32.5 33 12.5 32.5-12.5T470 761t-12.5-33-32.5-13z"/><glyph glyph-name="uni01DB" unicode="Ǜ" horiz-adv-x="645" d="M323-12q-50 0-93.5 14.5t-75 48T105 138 87 271v385h83V269q0-59 12-99t32.5-64T263 71.5 323 61q33 0 61 10.5t49 34.5 33 64 12 99v387h80V271q0-79-18-133t-49.5-87.5-74.5-48T323-12zm37 861l-37-26-111 109 53 36zM219 715q-20 0-32.5 13T174 761t12.5 32.5T219 806t33-12.5 13-32.5-13-33-33-13zm206 0q-20 0-33 13t-13 33 13 32.5 33 12.5 32.5-12.5T470 761t-12.5-33-32.5-13z"/><glyph glyph-name="uni1EE4" unicode="Ụ" horiz-adv-x="645" d="M323-12q-50 0-93.5 14.5t-75 48T105 138 87 271v385h83V269q0-59 12-99t32.5-64T263 71.5 323 61q33 0 61 10.5t49 34.5 33 64 12 99v387h80V271q0-79-18-133t-49.5-87.5-74.5-48T323-12zm-1-193q-23 0-38.5 15T268-151q0 23 15.5 38.5T322-97t38.5-15.5T376-151q0-24-15.5-39T322-205z"/><glyph glyph-name="uni1EE6" unicode="Ủ" horiz-adv-x="645" d="M323-12q-50 0-93.5 14.5t-75 48T105 138 87 271v385h83V269q0-59 12-99t32.5-64T263 71.5 323 61q33 0 61 10.5t49 34.5 33 64 12 99v387h80V271q0-79-18-133t-49.5-87.5-74.5-48T323-12zm-33 710l-9 38q24 7 40 17t16 29q0 39-83 42l9 48q66-2 102-22.5t36-58.5q0-22-9-37.5t-24.5-27-35.5-18-42-10.5z"/><glyph glyph-name="Uogonek" unicode="Ų" horiz-adv-x="645" d="M350-212q-40 0-68 22t-28 65q0 21 6.5 37.5t16 30.5 21 25.5L318-11q-51 1-93.5 17t-73 49.5T104 142 87 271v385h83V269q0-59 12-99t32.5-64T263 71.5 323 61q33 0 61 10.5t49 34.5 33 64 12 99v387h80V271q0-66-11.5-111.5t-32.5-77-50.5-52T398-7q-39-19-59-47t-20-53q0-23 15-34.5t33-11.5q21 0 40 14l23-45q-14-11-37-19.5t-43-8.5z"/><glyph glyph-name="Uhorn" unicode="Ư" horiz-adv-x="659" d="M323-12q-50 0-93.5 14.5t-75 48T105 138 87 271v385h83V269q0-59 12-99t32.5-64T263 71.5 323 61q33 0 61 10.5t49 34.5 33 64 12 99v387h33q42 5 66 23t24 60q0 15-4 30.5T586 797l65 28q11-17 17-37t6-43q0-29-9-50t-24.5-36-37-24-45.5-15V271q0-79-18-133t-49.5-87.5-74.5-48T323-12z"/><glyph glyph-name="uni1EE8" unicode="Ứ" horiz-adv-x="659" d="M323-12q-50 0-93.5 14.5t-75 48T105 138 87 271v385h83V269q0-59 12-99t32.5-64T263 71.5 323 61q33 0 61 10.5t49 34.5 33 64 12 99v387h33q42 5 66 23t24 60q0 15-4 30.5T586 797l65 28q11-17 17-37t6-43q0-29-9-50t-24.5-36-37-24-45.5-15V271q0-79-18-133t-49.5-87.5-74.5-48T323-12zm-18 709l-37 42 142 128 47-55z"/><glyph glyph-name="uni1EEA" unicode="Ừ" horiz-adv-x="659" d="M323-12q-50 0-93.5 14.5t-75 48T105 138 87 271v385h83V269q0-59 12-99t32.5-64T263 71.5 323 61q33 0 61 10.5t49 34.5 33 64 12 99v387h33q42 5 66 23t24 60q0 15-4 30.5T586 797l65 28q11-17 17-37t6-43q0-29-9-50t-24.5-36-37-24-45.5-15V271q0-79-18-133t-49.5-87.5-74.5-48T323-12zm16 709L187 812l47 55 142-128z"/><glyph glyph-name="uni1EEC" unicode="Ử" horiz-adv-x="659" d="M323-12q-50 0-93.5 14.5t-75 48T105 138 87 271v385h83V269q0-59 12-99t32.5-64T263 71.5 323 61q33 0 61 10.5t49 34.5 33 64 12 99v387h33q42 5 66 23t24 60q0 15-4 30.5T586 797l65 28q11-17 17-37t6-43q0-29-9-50t-24.5-36-37-24-45.5-15V271q0-79-18-133t-49.5-87.5-74.5-48T323-12zm-33 710l-9 38q24 7 40 17t16 29q0 39-83 42l9 48q66-2 102-22.5t36-58.5q0-22-9-37.5t-24.5-27-35.5-18-42-10.5z"/><glyph glyph-name="uni1EEE" unicode="Ữ" horiz-adv-x="659" d="M323-12q-50 0-93.5 14.5t-75 48T105 138 87 271v385h83V269q0-59 12-99t32.5-64T263 71.5 323 61q33 0 61 10.5t49 34.5 33 64 12 99v387h33q42 5 66 23t24 60q0 15-4 30.5T586 797l65 28q11-17 17-37t6-43q0-29-9-50t-24.5-36-37-24-45.5-15V271q0-79-18-133t-49.5-87.5-74.5-48T323-12zm74 721q-28 0-48 11t-36.5 24.5-31 24.5-32.5 11q-19 0-32-17t-16-49l-56 4q3 57 30 90t72 33q28 0 48-11t36.5-24.5 31-24.5 32.5-11q40 0 48 66l56-4q-3-58-30-90.5T397 709z"/><glyph glyph-name="uni1EF0" unicode="Ự" horiz-adv-x="659" d="M323-12q-50 0-93.5 14.5t-75 48T105 138 87 271v385h83V269q0-59 12-99t32.5-64T263 71.5 323 61q33 0 61 10.5t49 34.5 33 64 12 99v387h33q42 5 66 23t24 60q0 15-4 30.5T586 797l65 28q11-17 17-37t6-43q0-29-9-50t-24.5-36-37-24-45.5-15V271q0-79-18-133t-49.5-87.5-74.5-48T323-12zm-1-193q-23 0-38.5 15T268-151q0 23 15.5 38.5T322-97t38.5-15.5T376-151q0-24-15.5-39T322-205z"/><glyph glyph-name="Wgrave" unicode="Ẁ" horiz-adv-x="786" d="M162 0L23 656h86l69-357q9-54 19-106t19-106h4q11 54 23 106.5T266 299l91 357h76l91-357q12-52 24-105t24-107h4q9 54 18 106.5T613 299l69 357h80L626 0H526l-99 395q-9 38-16.5 74.5T395 544h-4q-8-38-16.5-74.5T358 395L261 0h-99zm248 697L258 812l47 55 142-128z"/><glyph glyph-name="Wacute" unicode="Ẃ" horiz-adv-x="786" d="M162 0L23 656h86l69-357q9-54 19-106t19-106h4q11 54 23 106.5T266 299l91 357h76l91-357q12-52 24-105t24-107h4q9 54 18 106.5T613 299l69 357h80L626 0H526l-99 395q-9 38-16.5 74.5T395 544h-4q-8-38-16.5-74.5T358 395L261 0h-99zm214 697l-37 42 142 128 47-55z"/><glyph glyph-name="Wcircumflex" unicode="Ŵ" horiz-adv-x="786" d="M162 0L23 656h86l69-357q9-54 19-106t19-106h4q11 54 23 106.5T266 299l91 357h76l91-357q12-52 24-105t24-107h4q9 54 18 106.5T613 299l69 357h80L626 0H526l-99 395q-9 38-16.5 74.5T395 544h-4q-8-38-16.5-74.5T358 395L261 0h-99zm83 725l105 113h86l105-113-36-26-110 93h-4l-110-93z"/><glyph glyph-name="Wdieresis" unicode="Ẅ" horiz-adv-x="786" d="M162 0L23 656h86l69-357q9-54 19-106t19-106h4q11 54 23 106.5T266 299l91 357h76l91-357q12-52 24-105t24-107h4q9 54 18 106.5T613 299l69 357h80L626 0H526l-99 395q-9 38-16.5 74.5T395 544h-4q-8-38-16.5-74.5T358 395L261 0h-99zm128 715q-21 0-35 14t-14 35q0 22 14 35.5t35 13.5q22 0 35.5-13.5T339 764q0-21-13.5-35T290 715zm206 0q-22 0-35.5 14T447 764q0 22 13.5 35.5T496 813q21 0 35-13.5t14-35.5q0-21-14-35t-35-14z"/><glyph glyph-name="Ygrave" unicode="Ỳ" horiz-adv-x="476" d="M196 0v254L-1 656h89l85-185q16-36 31-71t32-72h4q17 37 34 72t32 71l84 185h87L280 254V0h-84zm59 697L103 812l47 55 142-128z"/><glyph glyph-name="Yacute" unicode="Ý" horiz-adv-x="476" d="M196 0v254L-1 656h89l85-185q16-36 31-71t32-72h4q17 37 34 72t32 71l84 185h87L280 254V0h-84zm25 697l-37 42 142 128 47-55z"/><glyph glyph-name="Ycircumflex" unicode="Ŷ" horiz-adv-x="476" d="M196 0v254L-1 656h89l85-185q16-36 31-71t32-72h4q17 37 34 72t32 71l84 185h87L280 254V0h-84zM90 725l105 113h86l105-113-36-26-110 93h-4l-110-93z"/><glyph glyph-name="Ydieresis" unicode="Ÿ" horiz-adv-x="476" d="M196 0v254L-1 656h89l85-185q16-36 31-71t32-72h4q17 37 34 72t32 71l84 185h87L280 254V0h-84zm-61 715q-21 0-35 14t-14 35q0 22 14 35.5t35 13.5q22 0 35.5-13.5T184 764q0-21-13.5-35T135 715zm206 0q-22 0-35.5 14T292 764q0 22 13.5 35.5T341 813q21 0 35-13.5t14-35.5q0-21-14-35t-35-14z"/><glyph glyph-name="uni1E8E" unicode="Ẏ" horiz-adv-x="476" d="M196 0v254L-1 656h89l85-185q16-36 31-71t32-72h4q17 37 34 72t32 71l84 185h87L280 254V0h-84zm42 714q-24 0-40.5 15T181 768q0 23 16.5 38t40.5 15 40.5-15 16.5-38q0-24-16.5-39T238 714z"/><glyph glyph-name="uni1EF4" unicode="Ỵ" horiz-adv-x="476" d="M196 0v254L-1 656h89l85-185q16-36 31-71t32-72h4q17 37 34 72t32 71l84 185h87L280 254V0h-84zm44-205q-23 0-38.5 15T186-151q0 23 15.5 38.5T240-97t38.5-15.5T294-151q0-24-15.5-39T240-205z"/><glyph glyph-name="uni1EF6" unicode="Ỷ" horiz-adv-x="476" d="M196 0v254L-1 656h89l85-185q16-36 31-71t32-72h4q17 37 34 72t32 71l84 185h87L280 254V0h-84zm10 698l-9 38q24 7 40 17t16 29q0 39-83 42l9 48q66-2 102-22.5t36-58.5q0-22-9-37.5t-24.5-27-35.5-18-42-10.5z"/><glyph glyph-name="uni1EF8" unicode="Ỹ" horiz-adv-x="476" d="M196 0v254L-1 656h89l85-185q16-36 31-71t32-72h4q17 37 34 72t32 71l84 185h87L280 254V0h-84zm117 709q-28 0-48 11t-36.5 24.5-31 24.5-32.5 11q-19 0-32-17t-16-49l-56 4q3 57 30 90t72 33q28 0 48-11t36.5-24.5 31-24.5 32.5-11q40 0 48 66l56-4q-3-58-30-90.5T313 709z"/><glyph glyph-name="Zacute" unicode="Ź" horiz-adv-x="539" d="M45 0v50l345 536H76v70h418v-49L148 71h349V0H45zm218 697l-37 42 142 128 47-55z"/><glyph glyph-name="Zcaron" unicode="Ž" horiz-adv-x="539" d="M45 0v50l345 536H76v70h418v-49L148 71h349V0H45zm192 706L132 819l36 26 110-92h4l110 92 36-26-105-113h-86z"/><glyph glyph-name="Zdotaccent" unicode="Ż" horiz-adv-x="539" d="M45 0v50l345 536H76v70h418v-49L148 71h349V0H45zm235 714q-24 0-40.5 15T223 768q0 23 16.5 38t40.5 15 40.5-15 16.5-38q0-24-16.5-39T280 714z"/><glyph glyph-name="uni1E92" unicode="Ẓ" horiz-adv-x="539" d="M45 0v50l345 536H76v70h418v-49L148 71h349V0H45zm236-205q-23 0-38.5 15T227-151q0 23 15.5 38.5T281-97t38.5-15.5T335-151q0-24-15.5-39T281-205z"/><glyph glyph-name="uni1E94" unicode="Ẕ" horiz-adv-x="539" d="M45 0v50l345 536H76v70h418v-49L148 71h349V0H45zm103-169v57h266v-57H148z"/><glyph glyph-name="Eth" unicode="Ð" horiz-adv-x="638" d="M33 321v43l79 4v288h164q152 0 231-84t79-241q0-78-20-139.5t-59-104-96-65T280 0H112v321H33zM195 68h75q115 0 172.5 69T500 331t-57.5 191T270 588h-75V368h149v-47H195V68z"/><glyph glyph-name="Thorn" unicode="Þ" horiz-adv-x="583" d="M90 0v656h83V546h118q54 0 99-10t76.5-33 49-59.5T533 353q0-52-17.5-90.5T466 199t-76.5-37-98.5-12H173V0H90zm83 218h108q86 0 127.5 32T450 353t-42 98-127 27H173V218z"/><glyph glyph-name="uni018F" unicode="Ə" horiz-adv-x="658" d="M327-12q-63 0-113 23.5T129.5 79t-53 106.5T58 325q0 5 .5 11.5T60 350h464q-5 121-55 185t-144 64q-50 0-90.5-18T165 534l-41 57q35 34 87.5 55.5T331 668q129 0 202-86.5T606 330q0-82-19.5-145.5t-56-107-88-66.5T327-12zm0 69q84 0 135.5 58.5T522 286H143q5-109 54.5-169T327 57z"/><glyph glyph-name="uni014A" unicode="Ŋ" horiz-adv-x="635" d="M406-12q-20 0-42 3.5T328 3l20 75q11-5 22.5-8t27.5-3q20 0 38 12.5t31.5 43.5 21.5 82.5 8 129.5q0 74-11.5 124t-33 80-51.5 43-66 13q-20 0-42-7.5T249.5 567 208 536t-35-39V0H90v656h81v-81q35 40 84 66.5T356 668q49 0 90.5-17.5t72-57 47.5-103T583 335q0-95-12.5-161t-36-107-56-60T406-12z"/><glyph glyph-name="uni0132" unicode="Ĳ" horiz-adv-x="526" d="M90 0v656h83V0H90zm212-165q-23 0-41 3.5t-31 8.5l16 66q10-3 21.5-6t24.5-3q37 0 49 25.5T353 0v656h83V-3q0-75-31-118.5T302-165z"/><glyph glyph-name="agrave" unicode="à" horiz-adv-x="504" d="M194-12q-61 0-101.5 36T52 126q0 80 71 122.5T350 308q0 23-4.5 45T330 392t-30.5 27.5T250 430q-42 0-79-16t-66-36l-32 57q34 22 83 42.5T264 498q89 0 129-54.5T433 298V0h-68l-7 58h-3q-35-29-75-49.5T194-12zm24 66q35 0 66 16.5t66 48.5v135q-61-8-102.5-19t-67-26-37-34.5T132 132q0-42 25-60t61-18zm58 519L119 726l58 55 141-167z"/><glyph glyph-name="aacute" unicode="á" horiz-adv-x="504" d="M194-12q-61 0-101.5 36T52 126q0 80 71 122.5T350 308q0 23-4.5 45T330 392t-30.5 27.5T250 430q-42 0-79-16t-66-36l-32 57q34 22 83 42.5T264 498q89 0 129-54.5T433 298V0h-68l-7 58h-3q-35-29-75-49.5T194-12zm24 66q35 0 66 16.5t66 48.5v135q-61-8-102.5-19t-67-26-37-34.5T132 132q0-42 25-60t61-18zm30 519l-42 41 141 167 58-55z"/><glyph glyph-name="acircumflex" unicode="â" horiz-adv-x="504" d="M194-12q-61 0-101.5 36T52 126q0 80 71 122.5T350 308q0 23-4.5 45T330 392t-30.5 27.5T250 430q-42 0-79-16t-66-36l-32 57q34 22 83 42.5T264 498q89 0 129-54.5T433 298V0h-68l-7 58h-3q-35-29-75-49.5T194-12zm24 66q35 0 66 16.5t66 48.5v135q-61-8-102.5-19t-67-26-37-34.5T132 132q0-42 25-60t61-18zM107 600l114 140h82l114-140-35-32-118 113h-4L142 568z"/><glyph glyph-name="atilde" unicode="ã" horiz-adv-x="504" d="M194-12q-61 0-101.5 36T52 126q0 80 71 122.5T350 308q0 23-4.5 45T330 392t-30.5 27.5T250 430q-42 0-79-16t-66-36l-32 57q34 22 83 42.5T264 498q89 0 129-54.5T433 298V0h-68l-7 58h-3q-35-29-75-49.5T194-12zm24 66q35 0 66 16.5t66 48.5v135q-61-8-102.5-19t-67-26-37-34.5T132 132q0-42 25-60t61-18zm116 523q-27 0-46 13t-35 29-30.5 29-31.5 13q-23 0-34-22t-13-57l-55 3q1 29 7.5 54t18.5 43 30.5 28.5T190 721q27 0 46-13t35-29 30.5-29 32.5-13q22 0 33 22t13 57l55-4q-1-29-7.5-53.5T409 616t-30.5-28.5T334 577z"/><glyph glyph-name="adieresis" unicode="ä" horiz-adv-x="504" d="M194-12q-61 0-101.5 36T52 126q0 80 71 122.5T350 308q0 23-4.5 45T330 392t-30.5 27.5T250 430q-42 0-79-16t-66-36l-32 57q34 22 83 42.5T264 498q89 0 129-54.5T433 298V0h-68l-7 58h-3q-35-29-75-49.5T194-12zm24 66q35 0 66 16.5t66 48.5v135q-61-8-102.5-19t-67-26-37-34.5T132 132q0-42 25-60t61-18zm-52 533q-22 0-36 14.5T116 637t14 35.5 36 14.5q21 0 35-14.5t14-35.5-14-35.5-35-14.5zm192 0q-21 0-35 14.5T309 637t14 35.5 35 14.5q22 0 36-14.5t14-35.5-14-35.5-36-14.5z"/><glyph glyph-name="amacron" unicode="ā" horiz-adv-x="504" d="M194-12q-61 0-101.5 36T52 126q0 80 71 122.5T350 308q0 23-4.5 45T330 392t-30.5 27.5T250 430q-42 0-79-16t-66-36l-32 57q34 22 83 42.5T264 498q89 0 129-54.5T433 298V0h-68l-7 58h-3q-35-29-75-49.5T194-12zm24 66q35 0 66 16.5t66 48.5v135q-61-8-102.5-19t-67-26-37-34.5T132 132q0-42 25-60t61-18zm-89 547v57h266v-57H129z"/><glyph glyph-name="abreve" unicode="ă" horiz-adv-x="504" d="M194-12q-61 0-101.5 36T52 126q0 80 71 122.5T350 308q0 23-4.5 45T330 392t-30.5 27.5T250 430q-42 0-79-16t-66-36l-32 57q34 22 83 42.5T264 498q89 0 129-54.5T433 298V0h-68l-7 58h-3q-35-29-75-49.5T194-12zm24 66q35 0 66 16.5t66 48.5v135q-61-8-102.5-19t-67-26-37-34.5T132 132q0-42 25-60t61-18zm44 517q-40 0-69 13t-47.5 34.5-28 48.5-11.5 55l51 8q3-19 10.5-37.5T188 659t31.5-24 42.5-9 42.5 9 31.5 24 20.5 33.5T367 730l51-8q-2-28-11.5-55T378 618.5 330.5 584 262 571z"/><glyph glyph-name="aring" unicode="å" horiz-adv-x="504" d="M194-12q-61 0-101.5 36T52 126q0 80 71 122.5T350 308q0 23-4.5 45T330 392t-30.5 27.5T250 430q-42 0-79-16t-66-36l-32 57q34 22 83 42.5T264 498q89 0 129-54.5T433 298V0h-68l-7 58h-3q-35-29-75-49.5T194-12zm24 66q35 0 66 16.5t66 48.5v135q-61-8-102.5-19t-67-26-37-34.5T132 132q0-42 25-60t61-18zm44 500q-51 0-80.5 28T152 653q0 42 29.5 70t80.5 28 80.5-28 29.5-70q0-43-29.5-71T262 554zm0 37q24 0 40.5 16.5T319 653q0 28-16.5 44.5T262 714t-40.5-16.5T205 653q0-29 16.5-45.5T262 591z"/><glyph glyph-name="uni01CE" unicode="ǎ" horiz-adv-x="504" d="M194-12q-61 0-101.5 36T52 126q0 80 71 122.5T350 308q0 23-4.5 45T330 392t-30.5 27.5T250 430q-42 0-79-16t-66-36l-32 57q34 22 83 42.5T264 498q89 0 129-54.5T433 298V0h-68l-7 58h-3q-35-29-75-49.5T194-12zm24 66q35 0 66 16.5t66 48.5v135q-61-8-102.5-19t-67-26-37-34.5T132 132q0-42 25-60t61-18zm3 520L107 714l35 32 118-113h4l118 113 35-32-114-140h-82z"/><glyph glyph-name="uni1EA1" unicode="ạ" horiz-adv-x="504" d="M194-12q-61 0-101.5 36T52 126q0 80 71 122.5T350 308q0 23-4.5 45T330 392t-30.5 27.5T250 430q-42 0-79-16t-66-36l-32 57q34 22 83 42.5T264 498q89 0 129-54.5T433 298V0h-68l-7 58h-3q-35-29-75-49.5T194-12zm24 66q35 0 66 16.5t66 48.5v135q-61-8-102.5-19t-67-26-37-34.5T132 132q0-42 25-60t61-18zm28-259q-23 0-38.5 15T192-151q0 23 15.5 38.5T246-97t38.5-15.5T300-151q0-24-15.5-39T246-205z"/><glyph glyph-name="uni1EA3" unicode="ả" horiz-adv-x="504" d="M194-12q-61 0-101.5 36T52 126q0 80 71 122.5T350 308q0 23-4.5 45T330 392t-30.5 27.5T250 430q-42 0-79-16t-66-36l-32 57q34 22 83 42.5T264 498q89 0 129-54.5T433 298V0h-68l-7 58h-3q-35-29-75-49.5T194-12zm24 66q35 0 66 16.5t66 48.5v135q-61-8-102.5-19t-67-26-37-34.5T132 132q0-42 25-60t61-18zm12 518l-9 40q24 6 40 16.5t16 30.5q0 43-83 47l5 54q69-2 106-25.5t37-68.5q0-22-9.5-37.5t-25-27T272 583t-42-11z"/><glyph glyph-name="uni1EA5" unicode="ấ" horiz-adv-x="504" d="M194-12q-61 0-101.5 36T52 126q0 80 71 122.5T350 308q0 23-4.5 45T330 392t-30.5 27.5T250 430q-42 0-79-16t-66-36l-32 57q34 22 83 42.5T264 498q89 0 129-54.5T433 298V0h-68l-7 58h-3q-35-29-75-49.5T194-12zm24 66q35 0 66 16.5t66 48.5v135q-61-8-102.5-19t-67-26-37-34.5T132 132q0-42 25-60t61-18zm-61 516l-29 34 100 92h68l100-92-29-34-103 72h-4zm204 95l87 120 49-34-101-114z"/><glyph glyph-name="uni1EA7" unicode="ầ" horiz-adv-x="504" d="M194-12q-61 0-101.5 36T52 126q0 80 71 122.5T350 308q0 23-4.5 45T330 392t-30.5 27.5T250 430q-42 0-79-16t-66-36l-32 57q34 22 83 42.5T264 498q89 0 129-54.5T433 298V0h-68l-7 58h-3q-35-29-75-49.5T194-12zm24 66q35 0 66 16.5t66 48.5v135q-61-8-102.5-19t-67-26-37-34.5T132 132q0-42 25-60t61-18zm-61 516l-29 34 100 92h68l100-92-29-34-103 72h-4zm6 98l-35-31L15 749l48 36z"/><glyph glyph-name="uni1EA9" unicode="ẩ" horiz-adv-x="504" d="M194-12q-61 0-101.5 36T52 126q0 80 71 122.5T350 308q0 23-4.5 45T330 392t-30.5 27.5T250 430q-42 0-79-16t-66-36l-32 57q34 22 83 42.5T264 498q89 0 129-54.5T433 298V0h-68l-7 58h-3q-35-29-75-49.5T194-12zm24 66q35 0 66 16.5t66 48.5v135q-61-8-102.5-19t-67-26-37-34.5T132 132q0-42 25-60t61-18zm-61 516l-29 34 100 92h68l100-92-29-34-103 72h-4zm221 65l-9 35q19 5 30.5 14t11.5 25q0 20-16 29.5T342 750l7 41q59-2 90.5-20t31.5-53q0-20-8-34t-21-23.5-29.5-15.5-34.5-10z"/><glyph glyph-name="uni1EAB" unicode="ẫ" horiz-adv-x="504" d="M194-12q-61 0-101.5 36T52 126q0 80 71 122.5T350 308q0 23-4.5 45T330 392t-30.5 27.5T250 430q-42 0-79-16t-66-36l-32 57q34 22 83 42.5T264 498q89 0 129-54.5T433 298V0h-68l-7 58h-3q-35-29-75-49.5T194-12zm24 66q35 0 66 16.5t66 48.5v135q-61-8-102.5-19t-67-26-37-34.5T132 132q0-42 25-60t61-18zm-61 516l-29 34 100 88h68l100-88-29-34-103 69h-4zm-32 144q4 39 20.5 64t51.5 25q22 0 39-6.5t31.5-14.5 28-14.5T323 761q15 0 22 10t11 32l43-4q-4-38-20.5-63.5T327 710q-22 0-39 6.5T256.5 731t-28 14.5T201 752q-15 0-22-10t-11-32z"/><glyph glyph-name="uni1EAD" unicode="ậ" horiz-adv-x="504" d="M194-12q-61 0-101.5 36T52 126q0 80 71 122.5T350 308q0 23-4.5 45T330 392t-30.5 27.5T250 430q-42 0-79-16t-66-36l-32 57q34 22 83 42.5T264 498q89 0 129-54.5T433 298V0h-68l-7 58h-3q-35-29-75-49.5T194-12zm24 66q35 0 66 16.5t66 48.5v135q-61-8-102.5-19t-67-26-37-34.5T132 132q0-42 25-60t61-18zM107 600l114 140h82l114-140-35-32-118 113h-4L142 568zm139-805q-23 0-38.5 15T192-151q0 23 15.5 38.5T246-97t38.5-15.5T300-151q0-24-15.5-39T246-205z"/><glyph glyph-name="uni1EAF" unicode="ắ" horiz-adv-x="504" d="M194-12q-61 0-101.5 36T52 126q0 80 71 122.5T350 308q0 23-4.5 45T330 392t-30.5 27.5T250 430q-42 0-79-16t-66-36l-32 57q34 22 83 42.5T264 498q89 0 129-54.5T433 298V0h-68l-7 58h-3q-35-29-75-49.5T194-12zm24 66q35 0 66 16.5t66 48.5v135q-61-8-102.5-19t-67-26-37-34.5T132 132q0-42 25-60t61-18zm39 625l-39 29 88 124 52-40zm5-108q-40 0-69 13t-47.5 34.5-28 48.5-11.5 55l48 8q3-20 10.5-39.5t21-34.5 32.5-24.5 44-9.5 44 9.5 32.5 24.5 21 34.5T370 730l48-8q-2-28-11.5-55T378 618.5 330.5 584 262 571z"/><glyph glyph-name="uni1EB1" unicode="ằ" horiz-adv-x="504" d="M194-12q-61 0-101.5 36T52 126q0 80 71 122.5T350 308q0 23-4.5 45T330 392t-30.5 27.5T250 430q-42 0-79-16t-66-36l-32 57q34 22 83 42.5T264 498q89 0 129-54.5T433 298V0h-68l-7 58h-3q-35-29-75-49.5T194-12zm24 66q35 0 66 16.5t66 48.5v135q-61-8-102.5-19t-67-26-37-34.5T132 132q0-42 25-60t61-18zm49 625L166 792l52 40 88-124zm-5-108q-40 0-69 13t-47.5 34.5-28 48.5-11.5 55l48 8q3-20 10.5-39.5t21-34.5 32.5-24.5 44-9.5 44 9.5 32.5 24.5 21 34.5T370 730l48-8q-2-28-11.5-55T378 618.5 330.5 584 262 571z"/><glyph glyph-name="uni1EB3" unicode="ẳ" horiz-adv-x="504" d="M194-12q-61 0-101.5 36T52 126q0 80 71 122.5T350 308q0 23-4.5 45T330 392t-30.5 27.5T250 430q-42 0-79-16t-66-36l-32 57q34 22 83 42.5T264 498q89 0 129-54.5T433 298V0h-68l-7 58h-3q-35-29-75-49.5T194-12zm24 66q35 0 66 16.5t66 48.5v135q-61-8-102.5-19t-67-26-37-34.5T132 132q0-42 25-60t61-18zm17 628l-8 36q21 5 34.5 14t13.5 25q0 20-17.5 29.5T199 798l7 50q61-2 95-22t34-60q0-20-8.5-34.5T304 707t-32-16-37-9zm27-111q-40 0-69 13t-47.5 34.5-28 48.5-11.5 55l48 8q3-20 10.5-39.5t21-34.5 32.5-24.5 44-9.5 44 9.5 32.5 24.5 21 34.5T370 730l48-8q-2-28-11.5-55T378 618.5 330.5 584 262 571z"/><glyph glyph-name="uni1EB5" unicode="ẵ" horiz-adv-x="504" d="M194-12q-61 0-101.5 36T52 126q0 80 71 122.5T350 308q0 23-4.5 45T330 392t-30.5 27.5T250 430q-42 0-79-16t-66-36l-32 57q34 22 83 42.5T264 498q89 0 129-54.5T433 298V0h-68l-7 58h-3q-35-29-75-49.5T194-12zm24 66q35 0 66 16.5t66 48.5v135q-61-8-102.5-19t-67-26-37-34.5T132 132q0-42 25-60t61-18zm44 517q-37 0-63 9.5t-43.5 25T129 640t-11 38l47 8q4-25 27-46.5t70-21.5 70 21.5 27 46.5l47-8q-2-19-11-38t-26.5-34.5-43.5-25-63-9.5zM121 714q4 38 21.5 63t54.5 25q22 0 39-6.5t31.5-14.5 28-14.5T323 760q15 0 22 10.5t11 31.5l47-4q-4-38-21.5-63T327 710q-22 0-39 6.5T256.5 731t-28 14.5T201 752q-15 0-22-10.5T168 709z"/><glyph glyph-name="uni1EB7" unicode="ặ" horiz-adv-x="504" d="M194-12q-61 0-101.5 36T52 126q0 80 71 122.5T350 308q0 23-4.5 45T330 392t-30.5 27.5T250 430q-42 0-79-16t-66-36l-32 57q34 22 83 42.5T264 498q89 0 129-54.5T433 298V0h-68l-7 58h-3q-35-29-75-49.5T194-12zm24 66q35 0 66 16.5t66 48.5v135q-61-8-102.5-19t-67-26-37-34.5T132 132q0-42 25-60t61-18zm44 517q-40 0-69 13t-47.5 34.5-28 48.5-11.5 55l51 8q3-19 10.5-37.5T188 659t31.5-24 42.5-9 42.5 9 31.5 24 20.5 33.5T367 730l51-8q-2-28-11.5-55T378 618.5 330.5 584 262 571zm-16-776q-23 0-38.5 15T192-151q0 23 15.5 38.5T246-97t38.5-15.5T300-151q0-24-15.5-39T246-205z"/><glyph glyph-name="aogonek" unicode="ą" horiz-adv-x="504" d="M376-206q-38 0-64.5 21.5T285-121q0 20 7 38.5T310.5-48t26 29.5T365 4l-7 54h-3q-35-29-75-49.5T194-12q-61 0-101.5 36T52 126q0 80 71 122.5T350 308q0 23-4.5 45T330 392t-30.5 27.5T250 430q-42 0-79-16t-66-36l-32 57q34 22 83 42.5T264 498q89 0 129-54.5T433 298V0q-42-17-64.5-46.5T346-105q0-23 14-34.5t32-11.5q12 0 22 3.5t19 9.5l21-41q-14-11-36.5-19t-41.5-8zM218 54q35 0 66 16.5t66 48.5v135q-61-8-102.5-19t-67-26-37-34.5T132 132q0-42 25-60t61-18z"/><glyph glyph-name="ae" unicode="æ" horiz-adv-x="785" d="M201-12q-62 0-102.5 36T58 126q0 80 71 122.5T352 308q0 23-4 45t-15.5 39-30.5 27.5-49 10.5q-40 0-76-16t-65-36l-33 57q34 22 82 42.5T263 498t89-27.5 50-75.5q29 48 69.5 75.5T562 498q45 0 79.5-16t58-46 35.5-72.5 12-94.5q0-28-3-46H429q1-38 13.5-69t32.5-53 47-34 58-12q35 0 63 11.5T698 95l30-57q-32-20-70-35t-88-15q-61 0-102 27.5T399 79q-50-45-100.5-68T201-12zm23 66q34 0 74 19.5t73 55.5q-8 19-13 45.5t-6 54.5v25q-58-8-98.5-19t-66-26-37-34.5T139 132q0-42 24.5-60T224 54zm205 224h246q0 75-29.5 115T560 433q-51 0-87.5-41.5T429 278z"/><glyph glyph-name="uni01FD" unicode="ǽ" horiz-adv-x="785" d="M201-12q-62 0-102.5 36T58 126q0 80 71 122.5T352 308q0 23-4 45t-15.5 39-30.5 27.5-49 10.5q-40 0-76-16t-65-36l-33 57q34 22 82 42.5T263 498t89-27.5 50-75.5q29 48 69.5 75.5T562 498q45 0 79.5-16t58-46 35.5-72.5 12-94.5q0-28-3-46H429q1-38 13.5-69t32.5-53 47-34 58-12q35 0 63 11.5T698 95l30-57q-32-20-70-35t-88-15q-61 0-102 27.5T399 79q-50-45-100.5-68T201-12zm23 66q34 0 74 19.5t73 55.5q-8 19-13 45.5t-6 54.5v25q-58-8-98.5-19t-66-26-37-34.5T139 132q0-42 24.5-60T224 54zm205 224h246q0 75-29.5 115T560 433q-51 0-87.5-41.5T429 278zm-31 295l-42 41 141 167 58-55z"/><glyph glyph-name="uni01E3" unicode="ǣ" horiz-adv-x="785" d="M201-12q-62 0-102.5 36T58 126q0 80 71 122.5T352 308q0 23-4 45t-15.5 39-30.5 27.5-49 10.5q-40 0-76-16t-65-36l-33 57q34 22 82 42.5T263 498t89-27.5 50-75.5q29 48 69.5 75.5T562 498q45 0 79.5-16t58-46 35.5-72.5 12-94.5q0-28-3-46H429q1-38 13.5-69t32.5-53 47-34 58-12q35 0 63 11.5T698 95l30-57q-32-20-70-35t-88-15q-61 0-102 27.5T399 79q-50-45-100.5-68T201-12zm23 66q34 0 74 19.5t73 55.5q-8 19-13 45.5t-6 54.5v25q-58-8-98.5-19t-66-26-37-34.5T139 132q0-42 24.5-60T224 54zm205 224h246q0 75-29.5 115T560 433q-51 0-87.5-41.5T429 278zM279 601v57h266v-57H279z"/><glyph glyph-name="uni0180" unicode="ƀ" horiz-adv-x="544" d="M297-12q-34 0-70.5 16.5T158 50h-3l-7-50H82v571H8v43l74 5v93h82v-93h182v-48H164v-93l-2-87q33 29 72 48.5t80 19.5q47 0 83-16.5t60.5-46 37-71.5 12.5-93q0-57-17-102.5t-46-77-67-48T297-12zm-14 69q30 0 55.5 12.5t44 35 29 55T422 231q0 34-7 63.5T392.5 345t-40 33-58.5 12q-60 0-130-67V108q32-28 63.5-39.5T283 57z"/><glyph glyph-name="uni1E07" unicode="ḇ" horiz-adv-x="553" d="M297-12q-34 0-70.5 16.5T158 50h-3l-7-50H82v712h82V518l-2-88q33 29 72 48.5t80 19.5q47 0 83-17.5t60.5-50 37-78T507 251q0-62-17-111t-46-83-67-51.5T297-12zm-14 69q30 0 55.5 13.5t44 38 29 60.5 10.5 81q0 40-7 73t-22.5 56.5-40 36.5-58.5 13q-59 0-130-66V108q32-28 63.5-39.5T283 57zM150-169v57h266v-57H150z"/><glyph glyph-name="ccedilla" unicode="ç" horiz-adv-x="456" d="M274-12q-48 0-90 17t-72.5 49.5-48 80T46 242q0 61 19 108.5t51 80.5 74.5 50 89.5 17q48 0 82-17t60-40l-42-54q-21 19-44.5 31T283 430q-33 0-61-13.5T174 378t-31.5-59.5T131 242t11-76 30.5-58.5 47.5-38T281 56q34 0 62.5 14.5T395 105l36-55q-33-29-73-45.5T274-12zm-89-214l-8 40q63 5 86 16.5t23 33.5q0 20-17 31t-60 17l44 91h53l-29-67q35-8 54-24t19-47q0-44-42.5-65.5T185-226z"/><glyph glyph-name="cacute" unicode="ć" horiz-adv-x="456" d="M274-12q-48 0-90 17t-72.5 49.5-48 80T46 242q0 61 19 108.5t51 80.5 74.5 50 89.5 17q48 0 82-17t60-40l-42-54q-21 19-44.5 31T283 430q-33 0-61-13.5T174 378t-31.5-59.5T131 242t11-76 30.5-58.5 47.5-38T281 56q34 0 62.5 14.5T395 105l36-55q-33-29-73-45.5T274-12zm-9 585l-42 41 141 167 58-55z"/><glyph glyph-name="ccircumflex" unicode="ĉ" horiz-adv-x="456" d="M274-12q-48 0-90 17t-72.5 49.5-48 80T46 242q0 61 19 108.5t51 80.5 74.5 50 89.5 17q48 0 82-17t60-40l-42-54q-21 19-44.5 31T283 430q-33 0-61-13.5T174 378t-31.5-59.5T131 242t11-76 30.5-58.5 47.5-38T281 56q34 0 62.5 14.5T395 105l36-55q-33-29-73-45.5T274-12zM124 600l114 140h82l114-140-35-32-118 113h-4L159 568z"/><glyph glyph-name="ccaron" unicode="č" horiz-adv-x="456" d="M274-12q-48 0-90 17t-72.5 49.5-48 80T46 242q0 61 19 108.5t51 80.5 74.5 50 89.5 17q48 0 82-17t60-40l-42-54q-21 19-44.5 31T283 430q-33 0-61-13.5T174 378t-31.5-59.5T131 242t11-76 30.5-58.5 47.5-38T281 56q34 0 62.5 14.5T395 105l36-55q-33-29-73-45.5T274-12zm-36 586L124 714l35 32 118-113h4l118 113 35-32-114-140h-82z"/><glyph glyph-name="cdotaccent" unicode="ċ" horiz-adv-x="456" d="M274-12q-48 0-90 17t-72.5 49.5-48 80T46 242q0 61 19 108.5t51 80.5 74.5 50 89.5 17q48 0 82-17t60-40l-42-54q-21 19-44.5 31T283 430q-33 0-61-13.5T174 378t-31.5-59.5T131 242t11-76 30.5-58.5 47.5-38T281 56q34 0 62.5 14.5T395 105l36-55q-33-29-73-45.5T274-12zm5 598q-23 0-38.5 15T225 640q0 23 15.5 38.5T279 694t38.5-15.5T333 640q0-24-15.5-39T279 586z"/><glyph glyph-name="dcaron" unicode="ď" horiz-adv-x="573" d="M248-12q-92 0-146.5 66T47 242q0 59 17.5 106.5T111 429t67 51 80 18 73-15 63-41l-4 83v187h83V0h-68l-7 57h-3q-29-28-66.5-48.5T248-12zm18 69q34 0 64 16.5t60 50.5v254q-31 28-59.5 39.5T272 429q-29 0-54.5-13.5t-44.5-38-30-58.5-11-76q0-88 35-137t99-49zm264 491l-4 212h59l-1-57-14-155h-40z"/><glyph glyph-name="uni1E0D" unicode="ḍ" horiz-adv-x="555" d="M248-12q-92 0-146.5 66T47 242q0 59 17.5 106.5T111 429t67 51 80 18 73-15 63-41l-4 83v187h83V0h-68l-7 57h-3q-29-28-66.5-48.5T248-12zm18 69q34 0 64 16.5t60 50.5v254q-31 28-59.5 39.5T272 429q-29 0-54.5-13.5t-44.5-38-30-58.5-11-76q0-88 35-137t99-49zm36-262q-23 0-38.5 15T248-151q0 23 15.5 38.5T302-97t38.5-15.5T356-151q0-24-15.5-39T302-205z"/><glyph glyph-name="uni1E0F" unicode="ḏ" horiz-adv-x="555" d="M248-12q-92 0-146.5 66T47 242q0 59 17.5 106.5T111 429t67 51 80 18 73-15 63-41l-4 83v187h83V0h-68l-7 57h-3q-29-28-66.5-48.5T248-12zm18 69q34 0 64 16.5t60 50.5v254q-31 28-59.5 39.5T272 429q-29 0-54.5-13.5t-44.5-38-30-58.5-11-76q0-88 35-137t99-49zm-98-226v57h266v-57H168z"/><glyph glyph-name="dcroat" unicode="đ" horiz-adv-x="555" d="M248-12q-92 0-146.5 61.5T47 223q0 54 17.5 97.5t46.5 74 67 47.5 80 17 73-15.5 63-41.5l-4 84v85H229v48h161v93h83v-93h72v-43l-72-5V0h-70l-6 55h-3q-28-28-65-47.5T248-12zm18 69q34 0 64 16.5t60 50.5v215q-31 28-59.5 39.5T272 390q-29 0-54.5-12.5T173 343t-30-52.5-11-66.5q0-77 35-122t99-45z"/><glyph glyph-name="egrave" unicode="è" horiz-adv-x="496" d="M279-12q-49 0-91.5 17.5t-74 50T64 135 46 242t18.5 107.5 49 80.5 69.5 50.5 81 17.5q46 0 82.5-16t61-46 37.5-72 13-94q0-13-.5-25.5T455 223H127q5-78 48.5-123.5T289 54q35 0 64.5 10.5T410 92l29-54q-32-20-71-35t-89-15zM126 282h260q0 74-31.5 112.5T266 433q-26 0-49.5-10T174 393.5 142.5 346 126 282zm153 291L122 726l58 55 141-167z"/><glyph glyph-name="eacute" unicode="é" horiz-adv-x="496" d="M279-12q-49 0-91.5 17.5t-74 50T64 135 46 242t18.5 107.5 49 80.5 69.5 50.5 81 17.5q46 0 82.5-16t61-46 37.5-72 13-94q0-13-.5-25.5T455 223H127q5-78 48.5-123.5T289 54q35 0 64.5 10.5T410 92l29-54q-32-20-71-35t-89-15zM126 282h260q0 74-31.5 112.5T266 433q-26 0-49.5-10T174 393.5 142.5 346 126 282zm125 291l-42 41 141 167 58-55z"/><glyph glyph-name="ecircumflex" unicode="ê" horiz-adv-x="496" d="M279-12q-49 0-91.5 17.5t-74 50T64 135 46 242t18.5 107.5 49 80.5 69.5 50.5 81 17.5q46 0 82.5-16t61-46 37.5-72 13-94q0-13-.5-25.5T455 223H127q5-78 48.5-123.5T289 54q35 0 64.5 10.5T410 92l29-54q-32-20-71-35t-89-15zM126 282h260q0 74-31.5 112.5T266 433q-26 0-49.5-10T174 393.5 142.5 346 126 282zm-16 318l114 140h82l114-140-35-32-118 113h-4L145 568z"/><glyph glyph-name="ecaron" unicode="ě" horiz-adv-x="496" d="M279-12q-49 0-91.5 17.5t-74 50T64 135 46 242t18.5 107.5 49 80.5 69.5 50.5 81 17.5q46 0 82.5-16t61-46 37.5-72 13-94q0-13-.5-25.5T455 223H127q5-78 48.5-123.5T289 54q35 0 64.5 10.5T410 92l29-54q-32-20-71-35t-89-15zM126 282h260q0 74-31.5 112.5T266 433q-26 0-49.5-10T174 393.5 142.5 346 126 282zm98 292L110 714l35 32 118-113h4l118 113 35-32-114-140h-82z"/><glyph glyph-name="edieresis" unicode="ë" horiz-adv-x="496" d="M279-12q-49 0-91.5 17.5t-74 50T64 135 46 242t18.5 107.5 49 80.5 69.5 50.5 81 17.5q46 0 82.5-16t61-46 37.5-72 13-94q0-13-.5-25.5T455 223H127q5-78 48.5-123.5T289 54q35 0 64.5 10.5T410 92l29-54q-32-20-71-35t-89-15zM126 282h260q0 74-31.5 112.5T266 433q-26 0-49.5-10T174 393.5 142.5 346 126 282zm43 305q-22 0-36 14.5T119 637t14 35.5 36 14.5q21 0 35-14.5t14-35.5-14-35.5-35-14.5zm192 0q-21 0-35 14.5T312 637t14 35.5 35 14.5q22 0 36-14.5t14-35.5-14-35.5-36-14.5z"/><glyph glyph-name="emacron" unicode="ē" horiz-adv-x="496" d="M279-12q-49 0-91.5 17.5t-74 50T64 135 46 242t18.5 107.5 49 80.5 69.5 50.5 81 17.5q46 0 82.5-16t61-46 37.5-72 13-94q0-13-.5-25.5T455 223H127q5-78 48.5-123.5T289 54q35 0 64.5 10.5T410 92l29-54q-32-20-71-35t-89-15zM126 282h260q0 74-31.5 112.5T266 433q-26 0-49.5-10T174 393.5 142.5 346 126 282zm6 319v57h266v-57H132z"/><glyph glyph-name="ebreve" unicode="ĕ" horiz-adv-x="496" d="M279-12q-49 0-91.5 17.5t-74 50T64 135 46 242t18.5 107.5 49 80.5 69.5 50.5 81 17.5q46 0 82.5-16t61-46 37.5-72 13-94q0-13-.5-25.5T455 223H127q5-78 48.5-123.5T289 54q35 0 64.5 10.5T410 92l29-54q-32-20-71-35t-89-15zM126 282h260q0 74-31.5 112.5T266 433q-26 0-49.5-10T174 393.5 142.5 346 126 282zm139 289q-40 0-69 13t-47.5 34.5-28 48.5-11.5 55l51 8q3-19 10.5-37.5T191 659t31.5-24 42.5-9 42.5 9 31.5 24 20.5 33.5T370 730l51-8q-2-28-11.5-55T381 618.5 333.5 584 265 571z"/><glyph glyph-name="edotaccent" unicode="ė" horiz-adv-x="496" d="M279-12q-49 0-91.5 17.5t-74 50T64 135 46 242t18.5 107.5 49 80.5 69.5 50.5 81 17.5q46 0 82.5-16t61-46 37.5-72 13-94q0-13-.5-25.5T455 223H127q5-78 48.5-123.5T289 54q35 0 64.5 10.5T410 92l29-54q-32-20-71-35t-89-15zM126 282h260q0 74-31.5 112.5T266 433q-26 0-49.5-10T174 393.5 142.5 346 126 282zm139 304q-23 0-38.5 15T211 640q0 23 15.5 38.5T265 694t38.5-15.5T319 640q0-24-15.5-39T265 586z"/><glyph glyph-name="uni1EB9" unicode="ẹ" horiz-adv-x="496" d="M279-12q-49 0-91.5 17.5t-74 50T64 135 46 242t18.5 107.5 49 80.5 69.5 50.5 81 17.5q46 0 82.5-16t61-46 37.5-72 13-94q0-13-.5-25.5T455 223H127q5-78 48.5-123.5T289 54q35 0 64.5 10.5T410 92l29-54q-32-20-71-35t-89-15zM126 282h260q0 74-31.5 112.5T266 433q-26 0-49.5-10T174 393.5 142.5 346 126 282zm137-487q-23 0-38.5 15T209-151q0 23 15.5 38.5T263-97t38.5-15.5T317-151q0-24-15.5-39T263-205z"/><glyph glyph-name="uni1EBB" unicode="ẻ" horiz-adv-x="496" d="M279-12q-49 0-91.5 17.5t-74 50T64 135 46 242t18.5 107.5 49 80.5 69.5 50.5 81 17.5q46 0 82.5-16t61-46 37.5-72 13-94q0-13-.5-25.5T455 223H127q5-78 48.5-123.5T289 54q35 0 64.5 10.5T410 92l29-54q-32-20-71-35t-89-15zM126 282h260q0 74-31.5 112.5T266 433q-26 0-49.5-10T174 393.5 142.5 346 126 282zm107 290l-9 40q24 6 40 16.5t16 30.5q0 43-83 47l5 54q69-2 106-25.5t37-68.5q0-22-9.5-37.5t-25-27T275 583t-42-11z"/><glyph glyph-name="uni1EBD" unicode="ẽ" horiz-adv-x="496" d="M279-12q-49 0-91.5 17.5t-74 50T64 135 46 242t18.5 107.5 49 80.5 69.5 50.5 81 17.5q46 0 82.5-16t61-46 37.5-72 13-94q0-13-.5-25.5T455 223H127q5-78 48.5-123.5T289 54q35 0 64.5 10.5T410 92l29-54q-32-20-71-35t-89-15zM126 282h260q0 74-31.5 112.5T266 433q-26 0-49.5-10T174 393.5 142.5 346 126 282zm211 295q-27 0-46 13t-35 29-30.5 29-31.5 13q-23 0-34-22t-13-57l-55 3q1 29 7.5 54t18.5 43 30.5 28.5T193 721q27 0 46-13t35-29 30.5-29 32.5-13q22 0 33 22t13 57l55-4q-1-29-7.5-53.5T412 616t-30.5-28.5T337 577z"/><glyph glyph-name="uni1EBF" unicode="ế" horiz-adv-x="496" d="M279-12q-49 0-91.5 17.5t-74 50T64 135 46 242t18.5 107.5 49 80.5 69.5 50.5 81 17.5q46 0 82.5-16t61-46 37.5-72 13-94q0-13-.5-25.5T455 223H127q5-78 48.5-123.5T289 54q35 0 64.5 10.5T410 92l29-54q-32-20-71-35t-89-15zM126 282h260q0 74-31.5 112.5T266 433q-26 0-49.5-10T174 393.5 142.5 346 126 282zm34 288l-29 34 100 92h68l100-92-29-34-103 72h-4zm204 95l87 120 49-34-101-114z"/><glyph glyph-name="uni1EC1" unicode="ề" horiz-adv-x="496" d="M279-12q-49 0-91.5 17.5t-74 50T64 135 46 242t18.5 107.5 49 80.5 69.5 50.5 81 17.5q46 0 82.5-16t61-46 37.5-72 13-94q0-13-.5-25.5T455 223H127q5-78 48.5-123.5T289 54q35 0 64.5 10.5T410 92l29-54q-32-20-71-35t-89-15zM126 282h260q0 74-31.5 112.5T266 433q-26 0-49.5-10T174 393.5 142.5 346 126 282zm34 288l-29 34 100 92h68l100-92-29-34-103 72h-4zm6 98l-35-31L18 749l48 36z"/><glyph glyph-name="uni1EC3" unicode="ể" horiz-adv-x="496" d="M279-12q-49 0-91.5 17.5t-74 50T64 135 46 242t18.5 107.5 49 80.5 69.5 50.5 81 17.5q46 0 82.5-16t61-46 37.5-72 13-94q0-13-.5-25.5T455 223H127q5-78 48.5-123.5T289 54q35 0 64.5 10.5T410 92l29-54q-32-20-71-35t-89-15zM126 282h260q0 74-31.5 112.5T266 433q-26 0-49.5-10T174 393.5 142.5 346 126 282zm34 288l-29 34 100 92h68l100-92-29-34-103 72h-4zm221 65l-9 35q19 5 30.5 14t11.5 25q0 20-16 29.5T345 750l7 41q59-2 90.5-20t31.5-53q0-20-8-34t-21-23.5-29.5-15.5-34.5-10z"/><glyph glyph-name="uni1EC5" unicode="ễ" horiz-adv-x="496" d="M279-12q-49 0-91.5 17.5t-74 50T64 135 46 242t18.5 107.5 49 80.5 69.5 50.5 81 17.5q46 0 82.5-16t61-46 37.5-72 13-94q0-13-.5-25.5T455 223H127q5-78 48.5-123.5T289 54q35 0 64.5 10.5T410 92l29-54q-32-20-71-35t-89-15zM126 282h260q0 74-31.5 112.5T266 433q-26 0-49.5-10T174 393.5 142.5 346 126 282zm34 288l-29 34 100 88h68l100-88-29-34-103 69h-4zm-32 144q4 39 20.5 64t51.5 25q22 0 39-6.5t31.5-14.5 28-14.5T326 761q15 0 22 10t11 32l43-4q-4-38-20.5-63.5T330 710q-22 0-39 6.5T259.5 731t-28 14.5T204 752q-15 0-22-10t-11-32z"/><glyph glyph-name="uni1EC7" unicode="ệ" horiz-adv-x="496" d="M279-12q-49 0-91.5 17.5t-74 50T64 135 46 242t18.5 107.5 49 80.5 69.5 50.5 81 17.5q46 0 82.5-16t61-46 37.5-72 13-94q0-13-.5-25.5T455 223H127q5-78 48.5-123.5T289 54q35 0 64.5 10.5T410 92l29-54q-32-20-71-35t-89-15zM126 282h260q0 74-31.5 112.5T266 433q-26 0-49.5-10T174 393.5 142.5 346 126 282zm-16 318l114 140h82l114-140-35-32-118 113h-4L145 568zm152-805q-23 0-38.5 15T208-151q0 23 15.5 38.5T262-97t38.5-15.5T316-151q0-24-15.5-39T262-205z"/><glyph glyph-name="eogonek" unicode="ę" horiz-adv-x="496" d="M358-206q-38 0-64 21.5T268-121q0 19 5.5 36T288-53t19.5 27T328-5q-13-5-25-6t-24-1q-49 0-91.5 17.5t-74 50T64 135 46 242t18.5 107.5 49 80.5 69.5 50.5 81 17.5q46 0 82.5-16t61-46 37.5-72 13-94q0-13-.5-25.5T455 223H127q5-78 48.5-123.5T289 54q35 0 64.5 10.5T410 92l29-54q-33-23-54-42.5T351-41t-18-32.5-5-31.5q0-23 14-34.5t33-11.5q12 0 21.5 3.5T415-138l21-41q-14-11-36.5-19t-41.5-8zM126 282h260q0 74-31.5 112.5T266 433q-26 0-49.5-10T174 393.5 142.5 346 126 282z"/><glyph glyph-name="uni1E17" unicode="ḗ" horiz-adv-x="496" d="M279-12q-49 0-91.5 17.5t-74 50T64 135 46 242t18.5 107.5 49 80.5 69.5 50.5 81 17.5q46 0 82.5-16t61-46 37.5-72 13-94q0-13-.5-25.5T455 223H127q5-78 48.5-123.5T289 54q35 0 64.5 10.5T410 92l29-54q-32-20-71-35t-89-15zM126 282h260q0 74-31.5 112.5T266 433q-26 0-49.5-10T174 393.5 142.5 346 126 282zm105 423l-32 39 135 99 38-49zm-99-104v57h266v-57H132z"/><glyph glyph-name="uni01F5" unicode="ǵ" horiz-adv-x="504" d="M246-224q-45 0-82 8.5T100.5-190t-41 41T45-93q0 31 19 59t52 51v4Q98 32 85.5 51.5T73 100q0 31 17 54t36 36v4q-24 20-43.5 53.5T63 325q0 40 14.5 72t39.5 54.5 58.5 34.5 70.5 12q20 0 37.5-3.5T315 486h169v-63H384q17-17 28.5-43t11.5-57q0-39-14-70.5t-38-53-56.5-33.5-69.5-12q-18 0-37 4.5T173 171q-13-11-22-24.5t-9-33.5q0-23 18-38t68-15h94q85 0 127.5-27.5T492-56q0-34-17-64.5T426-174t-77.5-36.5T246-224zm0 433q21 0 39.5 8t33 23 22.5 36.5 8 48.5q0 54-30 83.5T246 438t-73-29.5-30-83.5q0-27 8-48.5t22.5-36.5 33-23 39.5-8zm12-376q35 0 63.5 8.5t48.5 22 31 31.5 11 37q0 34-25 47T314-8h-84q-14 0-30.5 1.5T167 0q-26-19-38-40t-12-42q0-39 37.5-62T258-167zm-5 740l-42 41 141 167 58-55z"/><glyph glyph-name="gcircumflex" unicode="ĝ" horiz-adv-x="504" d="M246-224q-45 0-82 8.5T100.5-190t-41 41T45-93q0 31 19 59t52 51v4Q98 32 85.5 51.5T73 100q0 31 17 54t36 36v4q-24 20-43.5 53.5T63 325q0 40 14.5 72t39.5 54.5 58.5 34.5 70.5 12q20 0 37.5-3.5T315 486h169v-63H384q17-17 28.5-43t11.5-57q0-39-14-70.5t-38-53-56.5-33.5-69.5-12q-18 0-37 4.5T173 171q-13-11-22-24.5t-9-33.5q0-23 18-38t68-15h94q85 0 127.5-27.5T492-56q0-34-17-64.5T426-174t-77.5-36.5T246-224zm0 433q21 0 39.5 8t33 23 22.5 36.5 8 48.5q0 54-30 83.5T246 438t-73-29.5-30-83.5q0-27 8-48.5t22.5-36.5 33-23 39.5-8zm12-376q35 0 63.5 8.5t48.5 22 31 31.5 11 37q0 34-25 47T314-8h-84q-14 0-30.5 1.5T167 0q-26-19-38-40t-12-42q0-39 37.5-62T258-167zM112 600l114 140h82l114-140-35-32-118 113h-4L147 568z"/><glyph glyph-name="gbreve" unicode="ğ" horiz-adv-x="504" d="M246-224q-45 0-82 8.5T100.5-190t-41 41T45-93q0 31 19 59t52 51v4Q98 32 85.5 51.5T73 100q0 31 17 54t36 36v4q-24 20-43.5 53.5T63 325q0 40 14.5 72t39.5 54.5 58.5 34.5 70.5 12q20 0 37.5-3.5T315 486h169v-63H384q17-17 28.5-43t11.5-57q0-39-14-70.5t-38-53-56.5-33.5-69.5-12q-18 0-37 4.5T173 171q-13-11-22-24.5t-9-33.5q0-23 18-38t68-15h94q85 0 127.5-27.5T492-56q0-34-17-64.5T426-174t-77.5-36.5T246-224zm0 433q21 0 39.5 8t33 23 22.5 36.5 8 48.5q0 54-30 83.5T246 438t-73-29.5-30-83.5q0-27 8-48.5t22.5-36.5 33-23 39.5-8zm12-376q35 0 63.5 8.5t48.5 22 31 31.5 11 37q0 34-25 47T314-8h-84q-14 0-30.5 1.5T167 0q-26-19-38-40t-12-42q0-39 37.5-62T258-167zm9 738q-40 0-69 13t-47.5 34.5-28 48.5-11.5 55l51 8q3-19 10.5-37.5T193 659t31.5-24 42.5-9 42.5 9 31.5 24 20.5 33.5T372 730l51-8q-2-28-11.5-55T383 618.5 335.5 584 267 571z"/><glyph glyph-name="gdotaccent" unicode="ġ" horiz-adv-x="504" d="M246-224q-45 0-82 8.5T100.5-190t-41 41T45-93q0 31 19 59t52 51v4Q98 32 85.5 51.5T73 100q0 31 17 54t36 36v4q-24 20-43.5 53.5T63 325q0 40 14.5 72t39.5 54.5 58.5 34.5 70.5 12q20 0 37.5-3.5T315 486h169v-63H384q17-17 28.5-43t11.5-57q0-39-14-70.5t-38-53-56.5-33.5-69.5-12q-18 0-37 4.5T173 171q-13-11-22-24.5t-9-33.5q0-23 18-38t68-15h94q85 0 127.5-27.5T492-56q0-34-17-64.5T426-174t-77.5-36.5T246-224zm0 433q21 0 39.5 8t33 23 22.5 36.5 8 48.5q0 54-30 83.5T246 438t-73-29.5-30-83.5q0-27 8-48.5t22.5-36.5 33-23 39.5-8zm12-376q35 0 63.5 8.5t48.5 22 31 31.5 11 37q0 34-25 47T314-8h-84q-14 0-30.5 1.5T167 0q-26-19-38-40t-12-42q0-39 37.5-62T258-167zm9 753q-23 0-38.5 15T213 640q0 23 15.5 38.5T267 694t38.5-15.5T321 640q0-24-15.5-39T267 586z"/><glyph glyph-name="uni0123" unicode="ģ" horiz-adv-x="504" d="M246-224q-45 0-82 8.5T100.5-190t-41 41T45-93q0 31 19 59t52 51v4Q98 32 85.5 51.5T73 100q0 31 17 54t36 36v4q-24 20-43.5 53.5T63 325q0 40 14.5 72t39.5 54.5 58.5 34.5 70.5 12q20 0 37.5-3.5T315 486h169v-63H384q17-17 28.5-43t11.5-57q0-39-14-70.5t-38-53-56.5-33.5-69.5-12q-18 0-37 4.5T173 171q-13-11-22-24.5t-9-33.5q0-23 18-38t68-15h94q85 0 127.5-27.5T492-56q0-34-17-64.5T426-174t-77.5-36.5T246-224zm0 433q21 0 39.5 8t33 23 22.5 36.5 8 48.5q0 54-30 83.5T246 438t-73-29.5-30-83.5q0-27 8-48.5t22.5-36.5 33-23 39.5-8zm12-376q35 0 63.5 8.5t48.5 22 31 31.5 11 37q0 34-25 47T314-8h-84q-14 0-30.5 1.5T167 0q-26-19-38-40t-12-42q0-39 37.5-62T258-167zm48 742q-65 7-91 25t-26 52q0 44 42.5 65.5T354 744l8-41q-63-4-86-15.5T253 655q0-20 18-29.5t53-12.5z"/><glyph glyph-name="gcaron" unicode="ǧ" horiz-adv-x="504" d="M246-224q-45 0-82 8.5T100.5-190t-41 41T45-93q0 31 19 59t52 51v4Q98 32 85.5 51.5T73 100q0 31 17 54t36 36v4q-24 20-43.5 53.5T63 325q0 40 14.5 72t39.5 54.5 58.5 34.5 70.5 12q20 0 37.5-3.5T315 486h169v-63H384q17-17 28.5-43t11.5-57q0-39-14-70.5t-38-53-56.5-33.5-69.5-12q-18 0-37 4.5T173 171q-13-11-22-24.5t-9-33.5q0-23 18-38t68-15h94q85 0 127.5-27.5T492-56q0-34-17-64.5T426-174t-77.5-36.5T246-224zm0 433q21 0 39.5 8t33 23 22.5 36.5 8 48.5q0 54-30 83.5T246 438t-73-29.5-30-83.5q0-27 8-48.5t22.5-36.5 33-23 39.5-8zm12-376q35 0 63.5 8.5t48.5 22 31 31.5 11 37q0 34-25 47T314-8h-84q-14 0-30.5 1.5T167 0q-26-19-38-40t-12-42q0-39 37.5-62T258-167zm-32 741L112 714l35 32 118-113h4l118 113 35-32-114-140h-82z"/><glyph glyph-name="uni1E21" unicode="ḡ" horiz-adv-x="504" d="M246-224q-45 0-82 8.5T100.5-190t-41 41T45-93q0 31 19 59t52 51v4Q98 32 85.5 51.5T73 100q0 31 17 54t36 36v4q-24 20-43.5 53.5T63 325q0 40 14.5 72t39.5 54.5 58.5 34.5 70.5 12q20 0 37.5-3.5T315 486h169v-63H384q17-17 28.5-43t11.5-57q0-39-14-70.5t-38-53-56.5-33.5-69.5-12q-18 0-37 4.5T173 171q-13-11-22-24.5t-9-33.5q0-23 18-38t68-15h94q85 0 127.5-27.5T492-56q0-34-17-64.5T426-174t-77.5-36.5T246-224zm0 433q21 0 39.5 8t33 23 22.5 36.5 8 48.5q0 54-30 83.5T246 438t-73-29.5-30-83.5q0-27 8-48.5t22.5-36.5 33-23 39.5-8zm12-376q35 0 63.5 8.5t48.5 22 31 31.5 11 37q0 34-25 47T314-8h-84q-14 0-30.5 1.5T167 0q-26-19-38-40t-12-42q0-39 37.5-62T258-167zM134 601v57h266v-57H134z"/><glyph glyph-name="uni00670303" horiz-adv-x="504" d="M246-224q-45 0-82 8.5T100.5-190t-41 41T45-93q0 31 19 59t52 51v4Q98 32 85.5 51.5T73 100q0 31 17 54t36 36v4q-24 20-43.5 53.5T63 325q0 40 14.5 72t39.5 54.5 58.5 34.5 70.5 12q20 0 37.5-3.5T315 486h169v-63H384q17-17 28.5-43t11.5-57q0-39-14-70.5t-38-53-56.5-33.5-69.5-12q-18 0-37 4.5T173 171q-13-11-22-24.5t-9-33.5q0-23 18-38t68-15h94q85 0 127.5-27.5T492-56q0-34-17-64.5T426-174t-77.5-36.5T246-224zm0 433q21 0 39.5 8t33 23 22.5 36.5 8 48.5q0 54-30 83.5T246 438t-73-29.5-30-83.5q0-27 8-48.5t22.5-36.5 33-23 39.5-8zm12-376q35 0 63.5 8.5t48.5 22 31 31.5 11 37q0 34-25 47T314-8h-84q-14 0-30.5 1.5T167 0q-26-19-38-40t-12-42q0-39 37.5-62T258-167zm81 744q-27 0-46 13t-35 29-30.5 29-31.5 13q-23 0-34-22t-13-57l-55 3q1 29 7.5 54t18.5 43 30.5 28.5T195 721q27 0 46-13t35-29 30.5-29 32.5-13q22 0 33 22t13 57l55-4q-1-29-7.5-53.5T414 616t-30.5-28.5T339 577z"/><glyph glyph-name="hcircumflex" unicode="ĥ" horiz-adv-x="544" d="M82 0v712h82V518l-3-100q35 33 73 56.5t89 23.5q77 0 112.5-48T471 308V0h-82v297q0 69-22 99.5T297 427q-38 0-67-19t-66-56V0H82zM-24 767L81 880h86l105-113-36-26-110 93h-4L12 741z"/><glyph glyph-name="uni1E25" unicode="ḥ" horiz-adv-x="544" d="M82 0v712h82V518l-3-100q35 33 73 56.5t89 23.5q77 0 112.5-48T471 308V0h-82v297q0 69-22 99.5T297 427q-38 0-67-19t-66-56V0H82zm204-205q-23 0-38.5 15T232-151q0 23 15.5 38.5T286-97t38.5-15.5T340-151q0-24-15.5-39T286-205z"/><glyph glyph-name="uni1E96" unicode="ẖ" horiz-adv-x="544" d="M82 0v712h82V518l-3-100q35 33 73 56.5t89 23.5q77 0 112.5-48T471 308V0h-82v297q0 69-22 99.5T297 427q-38 0-67-19t-66-56V0H82zm71-169v57h266v-57H153z"/><glyph glyph-name="uni1E2B" unicode="ḫ" horiz-adv-x="544" d="M82 0v712h82V518l-3-100q35 33 73 56.5t89 23.5q77 0 112.5-48T471 308V0h-82v297q0 69-22 99.5T297 427q-38 0-67-19t-66-56V0H82zm203-230q-40 0-69 13t-47.5 34.5-28 48.5T129-79l51 8q3-19 10.5-37.5T211-142t31.5-24 42.5-9 42.5 9 31.5 24 20.5 33.5T390-71l51-8q-2-28-11.5-55T401-182.5 353.5-217 285-230z"/><glyph glyph-name="hbar" unicode="ħ" horiz-adv-x="544" d="M82 0v571H8v43l74 5v93h82v-93h182v-48H164v-93l-3-100q35 33 73 57t89 24q77 0 112.5-48T471 269V0h-82v258q0 69-22 99t-70 30q-38 0-67-18.5T164 313V0H82z"/><glyph glyph-name="igrave" unicode="ì" horiz-adv-x="246" d="M82 0v486h82V0H82zm55 573L-20 726l58 55 141-167z"/><glyph glyph-name="iacute" unicode="í" horiz-adv-x="246" d="M82 0v486h82V0H82zm27 573l-42 41 141 167 58-55z"/><glyph glyph-name="icircumflex" unicode="î" horiz-adv-x="246" d="M82 0v486h82V0H82zM-32 600L82 740h82l114-140-35-32-118 113h-4L3 568z"/><glyph glyph-name="itilde" unicode="ĩ" horiz-adv-x="246" d="M82 0v486h82V0H82zm113 577q-27 0-46 13t-35 29-30.5 29T52 661q-23 0-34-22T5 582l-55 3q1 29 7.5 54t18.5 43 30.5 28.5T51 721q27 0 46-13t35-29 30.5-29 32.5-13q22 0 33 22t13 57l55-4q-1-29-7.5-53.5T270 616t-30.5-28.5T195 577z"/><glyph glyph-name="idieresis" unicode="ï" horiz-adv-x="246" d="M82 0v486h82V0H82zM27 587q-22 0-36 14.5T-23 637t14 35.5T27 687q21 0 35-14.5T76 637t-14-35.5T27 587zm192 0q-21 0-35 14.5T170 637t14 35.5 35 14.5q22 0 36-14.5t14-35.5-14-35.5-36-14.5z"/><glyph glyph-name="imacron" unicode="ī" horiz-adv-x="246" d="M82 0v486h82V0H82zm-92 601v57h266v-57H-10z"/><glyph glyph-name="uni01D0" unicode="ǐ" horiz-adv-x="246" d="M82 0v486h82V0H82zm0 574L-32 714l35 32 118-113h4l118 113 35-32-114-140H82z"/><glyph glyph-name="uni1EC9" unicode="ỉ" horiz-adv-x="246" d="M82 0v486h82V0H82zm9 572l-9 40q24 6 40 16.5t16 30.5q0 43-83 47l5 54q69-2 106-25.5t37-68.5q0-22-9.5-37.5t-25-27T133 583t-42-11z"/><glyph glyph-name="uni1ECB" unicode="ị" horiz-adv-x="246" d="M82 0v486h82V0H82zm42 586q-24 0-40.5 15T67 639q0 24 16.5 38.5T124 692t40.5-14.5T181 639q0-23-16.5-38T124 586zm0-791q-23 0-38.5 15T70-151q0 23 15.5 38.5T124-97t38.5-15.5T178-151q0-24-15.5-39T124-205z"/><glyph glyph-name="iogonek" unicode="į" horiz-adv-x="246" d="M129-206q-38 0-64.5 21.5T38-121q0 40 21.5 70T102 0H82v486h82V0q-30-22-47.5-49T99-105q0-23 14-34.5t33-11.5q11 0 20.5 3.5T186-138l21-41q-14-11-36.5-19t-41.5-8zm-6 792q-24 0-40.5 15T66 639q0 24 16.5 38.5T123 692q23 0 39.5-14.5T179 639q0-23-16.5-38T123 586z"/><glyph glyph-name="iogonek.d" horiz-adv-x="246" d="M129-206q-38 0-64.5 21.5T38-121q0 40 21.5 70T102 0H82v486h82V0q-30-22-47.5-49T99-105q0-23 14-34.5t33-11.5q11 0 20.5 3.5T186-138l21-41q-14-11-36.5-19t-41.5-8z"/><glyph glyph-name="uni012D" unicode="ĭ" horiz-adv-x="246" d="M82 0v486h82V0H82zm42 571q-40 0-69 13T7.5 618.5t-28 48.5-11.5 55l51 8q3-19 10.5-37.5T50 659t31.5-24 42.5-9 42.5 9 31.5 24 20.5 33.5T229 730l51-8q-2-28-11.5-55T240 618.5 192.5 584 124 571z"/><glyph glyph-name="dotlessi" unicode="ı" horiz-adv-x="246" d="M82 0v486h82V0H82z"/><glyph glyph-name="jcircumflex" unicode="ĵ" horiz-adv-x="247" d="M32-217q-23 0-41 4t-31 9l17 62q9-3 21-5.5t25-2.5q36 0 48 25t12 70v541h82V-55q0-74-30-118T32-217zm-64 817L82 740h82l114-140-35-32-118 113h-4L3 568z"/><glyph glyph-name="uni0137" unicode="ķ" horiz-adv-x="495" d="M82 0v712h81V230h3l207 256h91L301 291 486 0h-90L254 234l-91-106V0H82zm102-226l-8 40q63 5 86 16.5t23 31.5-18 29.5T214-96l18 38q65-8 91-25.5t26-51.5q0-44-42.5-65.5T184-226z"/><glyph glyph-name="uni1E33" unicode="ḳ" horiz-adv-x="495" d="M82 0v712h81V230h3l207 256h91L301 291 486 0h-90L254 234l-91-106V0H82zm189-205q-23 0-38.5 15T217-151q0 23 15.5 38.5T271-97t38.5-15.5T325-151q0-24-15.5-39T271-205z"/><glyph glyph-name="uni1E35" unicode="ḵ" horiz-adv-x="495" d="M82 0v712h81V230h3l207 256h91L301 291 486 0h-90L254 234l-91-106V0H82zm56-169v57h266v-57H138z"/><glyph glyph-name="kgreenlandic" unicode="ĸ" horiz-adv-x="495" d="M82 0v486h82V228h3l206 258h91L303 291 486 0h-90L254 231l-90-106V0H82z"/><glyph glyph-name="lacute" unicode="ĺ" horiz-adv-x="255" d="M169-12q-47 0-67 28T82 98v614h82V92q0-20 7-28t16-8h7.5l10.5 2 11-62q-8-4-19-6t-28-2zm-67 761l-37 42 142 128 47-55z"/><glyph glyph-name="lcaron" unicode="ľ" horiz-adv-x="270" d="M169-12q-47 0-67 28T82 98v614h82V92q0-20 7-28t16-8h7.5l10.5 2 11-62q-8-4-19-6t-28-2zm52 560l-4 212h59l-1-57-14-155h-40z"/><glyph glyph-name="ldot" unicode="ŀ" horiz-adv-x="362" d="M169-12q-47 0-67 28T82 98v614h82V92q0-20 7-28t16-8h7.5l10.5 2 11-62q-8-4-19-6t-28-2zm135 275q-25 0-42.5 17.5T244 325q0 29 17.5 46.5T304 389q24 0 41.5-17.5T363 325q0-27-17.5-44.5T304 263z"/><glyph glyph-name="uni013C" unicode="ļ" horiz-adv-x="255" d="M169-12q-47 0-67 28T82 98v614h82V92q0-20 7-28t16-8h7.5l10.5 2 11-62q-8-4-19-6t-28-2zM70-226l-8 40q63 5 86 16.5t23 31.5-18 29.5T100-96l18 38q65-8 91-25.5t26-51.5q0-44-42.5-65.5T70-226z"/><glyph glyph-name="uni1E37" unicode="ḷ" horiz-adv-x="255" d="M169-12q-47 0-67 28T82 98v614h82V92q0-20 7-28t16-8h7.5l10.5 2 11-62q-8-4-19-6t-28-2zm-12-193q-23 0-38.5 15T103-151q0 23 15.5 38.5T157-97t38.5-15.5T211-151q0-24-15.5-39T157-205z"/><glyph glyph-name="uni1E39" unicode="ḹ" horiz-adv-x="255" d="M169-12q-47 0-67 28T82 98v614h82V92q0-20 7-28t16-8h7.5l10.5 2 11-62q-8-4-19-6t-28-2zM-11 822v57h266v-57H-11zM157-205q-23 0-38.5 15T103-151q0 23 15.5 38.5T157-97t38.5-15.5T211-151q0-24-15.5-39T157-205z"/><glyph glyph-name="uni1E3B" unicode="ḻ" horiz-adv-x="255" d="M169-12q-47 0-67 28T82 98v614h82V92q0-20 7-28t16-8h7.5l10.5 2 11-62q-8-4-19-6t-28-2zM24-169v57h266v-57H24z"/><glyph glyph-name="lslash" unicode="ł" horiz-adv-x="262" d="M173-12q-47 0-67 28T86 98v233l-57-36-30 53 87 53v311h82V444l54 35 30-53-84-52V92q0-20 7-28t16-8h7.5l10.5 2 11-62q-8-4-19-6t-28-2z"/><glyph glyph-name="uni1E3F" unicode="ḿ" horiz-adv-x="829" d="M82 0v486h68l7-70h3q32 35 69.5 58.5T311 498q56 0 87.5-24.5T445 405q38 42 76.5 67.5T605 498q75 0 111.5-48T753 308V0h-82v297q0 69-22 99.5T581 427q-55 0-122-75V0h-82v297q0 69-22 99.5T286 427q-55 0-122-75V0H82zm323 573l-42 41 141 167 58-55z"/><glyph glyph-name="uni1E41" unicode="ṁ" horiz-adv-x="829" d="M82 0v486h68l7-70h3q32 35 69.5 58.5T311 498q56 0 87.5-24.5T445 405q38 42 76.5 67.5T605 498q75 0 111.5-48T753 308V0h-82v297q0 69-22 99.5T581 427q-55 0-122-75V0h-82v297q0 69-22 99.5T286 427q-55 0-122-75V0H82zm337 586q-23 0-38.5 15T365 640q0 23 15.5 38.5T419 694t38.5-15.5T473 640q0-24-15.5-39T419 586z"/><glyph glyph-name="uni1E43" unicode="ṃ" horiz-adv-x="829" d="M82 0v486h68l7-70h3q32 35 69.5 58.5T311 498q56 0 87.5-24.5T445 405q38 42 76.5 67.5T605 498q75 0 111.5-48T753 308V0h-82v297q0 69-22 99.5T581 427q-55 0-122-75V0h-82v297q0 69-22 99.5T286 427q-55 0-122-75V0H82zm344-205q-23 0-38.5 15T372-151q0 23 15.5 38.5T426-97t38.5-15.5T480-151q0-24-15.5-39T426-205z"/><glyph glyph-name="nacute" unicode="ń" horiz-adv-x="547" d="M82 0v486h68l7-70h3q35 35 73.5 58.5T323 498q77 0 112.5-48T471 308V0h-82v297q0 69-22 99.5T297 427q-38 0-67-19t-66-56V0H82zm196 573l-42 41 141 167 58-55z"/><glyph glyph-name="uni01F9" unicode="ǹ" horiz-adv-x="547" d="M82 0v486h68l7-70h3q35 35 73.5 58.5T323 498q77 0 112.5-48T471 308V0h-82v297q0 69-22 99.5T297 427q-38 0-67-19t-66-56V0H82zm223 573L148 726l58 55 141-167z"/><glyph glyph-name="ncaron" unicode="ň" horiz-adv-x="547" d="M82 0v486h68l7-70h3q35 35 73.5 58.5T323 498q77 0 112.5-48T471 308V0h-82v297q0 69-22 99.5T297 427q-38 0-67-19t-66-56V0H82zm169 574L137 714l35 32 118-113h4l118 113 35-32-114-140h-82z"/><glyph glyph-name="ntilde" unicode="ñ" horiz-adv-x="547" d="M82 0v486h68l7-70h3q35 35 73.5 58.5T323 498q77 0 112.5-48T471 308V0h-82v297q0 69-22 99.5T297 427q-38 0-67-19t-66-56V0H82zm282 577q-27 0-46 13t-35 29-30.5 29-31.5 13q-23 0-34-22t-13-57l-55 3q1 29 7.5 54t18.5 43 30.5 28.5T220 721q27 0 46-13t35-29 30.5-29 32.5-13q22 0 33 22t13 57l55-4q-1-29-7.5-53.5T439 616t-30.5-28.5T364 577z"/><glyph glyph-name="uni0146" unicode="ņ" horiz-adv-x="547" d="M82 0v486h68l7-70h3q35 35 73.5 58.5T323 498q77 0 112.5-48T471 308V0h-82v297q0 69-22 99.5T297 427q-38 0-67-19t-66-56V0H82zm110-226l-8 40q63 5 86 16.5t23 31.5-18 29.5T222-96l18 38q65-8 91-25.5t26-51.5q0-44-42.5-65.5T192-226z"/><glyph glyph-name="uni1E45" unicode="ṅ" horiz-adv-x="547" d="M82 0v486h68l7-70h3q35 35 73.5 58.5T323 498q77 0 112.5-48T471 308V0h-82v297q0 69-22 99.5T297 427q-38 0-67-19t-66-56V0H82zm210 586q-23 0-38.5 15T238 640q0 23 15.5 38.5T292 694t38.5-15.5T346 640q0-24-15.5-39T292 586z"/><glyph glyph-name="uni1E47" unicode="ṇ" horiz-adv-x="547" d="M82 0v486h68l7-70h3q35 35 73.5 58.5T323 498q77 0 112.5-48T471 308V0h-82v297q0 69-22 99.5T297 427q-38 0-67-19t-66-56V0H82zm197-205q-23 0-38.5 15T225-151q0 23 15.5 38.5T279-97t38.5-15.5T333-151q0-24-15.5-39T279-205z"/><glyph glyph-name="uni1E49" unicode="ṉ" horiz-adv-x="547" d="M82 0v486h68l7-70h3q35 35 73.5 58.5T323 498q77 0 112.5-48T471 308V0h-82v297q0 69-22 99.5T297 427q-38 0-67-19t-66-56V0H82zm64-169v57h266v-57H146z"/><glyph glyph-name="napostrophe" unicode="ŉ" horiz-adv-x="775" d="M304 0v486h68l7-70h3q35 35 73.5 58.5T545 498q77 0 112.5-48T693 308V0h-82v297q0 69-22 99.5T519 427q-38 0-67-19t-66-56V0h-82zM86 431l-23 38q38 25 56.5 53.5T138 594q-3-1-8-1-21 0-37 13t-16 37q0 26 15 41t38 15q29 0 46-23.5t17-67.5q0-60-27.5-103.5T86 431z"/><glyph glyph-name="ograve" unicode="ò" horiz-adv-x="542" d="M271-12q-45 0-85.5 17T114 54.5t-49.5 80T46 242q0 61 18.5 108.5T114 431t71.5 50 85.5 17 85.5-17 71.5-50 49.5-80.5T496 242q0-60-18.5-107.5t-49.5-80T356.5 5 271-12zm0 68q31 0 57 13.5t44.5 38T401 166t10 76-10 76.5-28.5 59.5-44.5 38.5-57 13.5-57-13.5-44.5-38.5-28.5-59.5-10-76.5 10-76 28.5-58.5 44.5-38T271 56zm14 517L128 726l58 55 141-167z"/><glyph glyph-name="oacute" unicode="ó" horiz-adv-x="542" d="M271-12q-45 0-85.5 17T114 54.5t-49.5 80T46 242q0 61 18.5 108.5T114 431t71.5 50 85.5 17 85.5-17 71.5-50 49.5-80.5T496 242q0-60-18.5-107.5t-49.5-80T356.5 5 271-12zm0 68q31 0 57 13.5t44.5 38T401 166t10 76-10 76.5-28.5 59.5-44.5 38.5-57 13.5-57-13.5-44.5-38.5-28.5-59.5-10-76.5 10-76 28.5-58.5 44.5-38T271 56zm-14 517l-42 41 141 167 58-55z"/><glyph glyph-name="ocircumflex" unicode="ô" horiz-adv-x="542" d="M271-12q-45 0-85.5 17T114 54.5t-49.5 80T46 242q0 61 18.5 108.5T114 431t71.5 50 85.5 17 85.5-17 71.5-50 49.5-80.5T496 242q0-60-18.5-107.5t-49.5-80T356.5 5 271-12zm0 68q31 0 57 13.5t44.5 38T401 166t10 76-10 76.5-28.5 59.5-44.5 38.5-57 13.5-57-13.5-44.5-38.5-28.5-59.5-10-76.5 10-76 28.5-58.5 44.5-38T271 56zM116 600l114 140h82l114-140-35-32-118 113h-4L151 568z"/><glyph glyph-name="otilde" unicode="õ" horiz-adv-x="542" d="M271-12q-45 0-85.5 17T114 54.5t-49.5 80T46 242q0 61 18.5 108.5T114 431t71.5 50 85.5 17 85.5-17 71.5-50 49.5-80.5T496 242q0-60-18.5-107.5t-49.5-80T356.5 5 271-12zm0 68q31 0 57 13.5t44.5 38T401 166t10 76-10 76.5-28.5 59.5-44.5 38.5-57 13.5-57-13.5-44.5-38.5-28.5-59.5-10-76.5 10-76 28.5-58.5 44.5-38T271 56zm72 521q-27 0-46 13t-35 29-30.5 29-31.5 13q-23 0-34-22t-13-57l-55 3q1 29 7.5 54t18.5 43 30.5 28.5T199 721q27 0 46-13t35-29 30.5-29 32.5-13q22 0 33 22t13 57l55-4q-1-29-7.5-53.5T418 616t-30.5-28.5T343 577z"/><glyph glyph-name="odieresis" unicode="ö" horiz-adv-x="542" d="M271-12q-45 0-85.5 17T114 54.5t-49.5 80T46 242q0 61 18.5 108.5T114 431t71.5 50 85.5 17 85.5-17 71.5-50 49.5-80.5T496 242q0-60-18.5-107.5t-49.5-80T356.5 5 271-12zm0 68q31 0 57 13.5t44.5 38T401 166t10 76-10 76.5-28.5 59.5-44.5 38.5-57 13.5-57-13.5-44.5-38.5-28.5-59.5-10-76.5 10-76 28.5-58.5 44.5-38T271 56zm-96 531q-22 0-36 14.5T125 637t14 35.5 36 14.5q21 0 35-14.5t14-35.5-14-35.5-35-14.5zm192 0q-21 0-35 14.5T318 637t14 35.5 35 14.5q22 0 36-14.5t14-35.5-14-35.5-36-14.5z"/><glyph glyph-name="omacron" unicode="ō" horiz-adv-x="542" d="M271-12q-45 0-85.5 17T114 54.5t-49.5 80T46 242q0 61 18.5 108.5T114 431t71.5 50 85.5 17 85.5-17 71.5-50 49.5-80.5T496 242q0-60-18.5-107.5t-49.5-80T356.5 5 271-12zm0 68q31 0 57 13.5t44.5 38T401 166t10 76-10 76.5-28.5 59.5-44.5 38.5-57 13.5-57-13.5-44.5-38.5-28.5-59.5-10-76.5 10-76 28.5-58.5 44.5-38T271 56zM138 601v57h266v-57H138z"/><glyph glyph-name="ohungarumlaut" unicode="ő" horiz-adv-x="542" d="M271-12q-45 0-85.5 17T114 54.5t-49.5 80T46 242q0 61 18.5 108.5T114 431t71.5 50 85.5 17 85.5-17 71.5-50 49.5-80.5T496 242q0-60-18.5-107.5t-49.5-80T356.5 5 271-12zm0 68q31 0 57 13.5t44.5 38T401 166t10 76-10 76.5-28.5 59.5-44.5 38.5-57 13.5-57-13.5-44.5-38.5-28.5-59.5-10-76.5 10-76 28.5-58.5 44.5-38T271 56zm-51 512l-45 21 86 172 59-28zm151 0l-46 21 87 172 58-28z"/><glyph glyph-name="uni01D2" unicode="ǒ" horiz-adv-x="542" d="M271-12q-45 0-85.5 17T114 54.5t-49.5 80T46 242q0 61 18.5 108.5T114 431t71.5 50 85.5 17 85.5-17 71.5-50 49.5-80.5T496 242q0-60-18.5-107.5t-49.5-80T356.5 5 271-12zm0 68q31 0 57 13.5t44.5 38T401 166t10 76-10 76.5-28.5 59.5-44.5 38.5-57 13.5-57-13.5-44.5-38.5-28.5-59.5-10-76.5 10-76 28.5-58.5 44.5-38T271 56zm-41 518L116 714l35 32 118-113h4l118 113 35-32-114-140h-82z"/><glyph glyph-name="uni1ECD" unicode="ọ" horiz-adv-x="542" d="M271-12q-45 0-85.5 17T114 54.5t-49.5 80T46 242q0 61 18.5 108.5T114 431t71.5 50 85.5 17 85.5-17 71.5-50 49.5-80.5T496 242q0-60-18.5-107.5t-49.5-80T356.5 5 271-12zm0 68q31 0 57 13.5t44.5 38T401 166t10 76-10 76.5-28.5 59.5-44.5 38.5-57 13.5-57-13.5-44.5-38.5-28.5-59.5-10-76.5 10-76 28.5-58.5 44.5-38T271 56zm1-261q-23 0-38.5 15T218-151q0 23 15.5 38.5T272-97t38.5-15.5T326-151q0-24-15.5-39T272-205z"/><glyph glyph-name="uni1ECF" unicode="ỏ" horiz-adv-x="542" d="M271-12q-45 0-85.5 17T114 54.5t-49.5 80T46 242q0 61 18.5 108.5T114 431t71.5 50 85.5 17 85.5-17 71.5-50 49.5-80.5T496 242q0-60-18.5-107.5t-49.5-80T356.5 5 271-12zm0 68q31 0 57 13.5t44.5 38T401 166t10 76-10 76.5-28.5 59.5-44.5 38.5-57 13.5-57-13.5-44.5-38.5-28.5-59.5-10-76.5 10-76 28.5-58.5 44.5-38T271 56zm-32 516l-9 40q24 6 40 16.5t16 30.5q0 43-83 47l5 54q69-2 106-25.5t37-68.5q0-22-9.5-37.5t-25-27T281 583t-42-11z"/><glyph glyph-name="uni1ED1" unicode="ố" horiz-adv-x="542" d="M271-12q-45 0-85.5 17T114 54.5t-49.5 80T46 242q0 61 18.5 108.5T114 431t71.5 50 85.5 17 85.5-17 71.5-50 49.5-80.5T496 242q0-60-18.5-107.5t-49.5-80T356.5 5 271-12zm0 68q31 0 57 13.5t44.5 38T401 166t10 76-10 76.5-28.5 59.5-44.5 38.5-57 13.5-57-13.5-44.5-38.5-28.5-59.5-10-76.5 10-76 28.5-58.5 44.5-38T271 56zM166 570l-29 34 100 92h68l100-92-29-34-103 72h-4zm204 95l87 120 49-34-101-114z"/><glyph glyph-name="uni1ED3" unicode="ồ" horiz-adv-x="542" d="M271-12q-45 0-85.5 17T114 54.5t-49.5 80T46 242q0 61 18.5 108.5T114 431t71.5 50 85.5 17 85.5-17 71.5-50 49.5-80.5T496 242q0-60-18.5-107.5t-49.5-80T356.5 5 271-12zm0 68q31 0 57 13.5t44.5 38T401 166t10 76-10 76.5-28.5 59.5-44.5 38.5-57 13.5-57-13.5-44.5-38.5-28.5-59.5-10-76.5 10-76 28.5-58.5 44.5-38T271 56zM166 570l-29 34 100 92h68l100-92-29-34-103 72h-4zm6 98l-35-31L24 749l48 36z"/><glyph glyph-name="uni1ED5" unicode="ổ" horiz-adv-x="542" d="M271-12q-45 0-85.5 17T114 54.5t-49.5 80T46 242q0 61 18.5 108.5T114 431t71.5 50 85.5 17 85.5-17 71.5-50 49.5-80.5T496 242q0-60-18.5-107.5t-49.5-80T356.5 5 271-12zm0 68q31 0 57 13.5t44.5 38T401 166t10 76-10 76.5-28.5 59.5-44.5 38.5-57 13.5-57-13.5-44.5-38.5-28.5-59.5-10-76.5 10-76 28.5-58.5 44.5-38T271 56zM166 570l-29 34 100 92h68l100-92-29-34-103 72h-4zm221 65l-9 35q19 5 30.5 14t11.5 25q0 20-16 29.5T351 750l7 41q59-2 90.5-20t31.5-53q0-20-8-34t-21-23.5-29.5-15.5-34.5-10z"/><glyph glyph-name="uni1ED7" unicode="ỗ" horiz-adv-x="542" d="M271-12q-45 0-85.5 17T114 54.5t-49.5 80T46 242q0 61 18.5 108.5T114 431t71.5 50 85.5 17 85.5-17 71.5-50 49.5-80.5T496 242q0-60-18.5-107.5t-49.5-80T356.5 5 271-12zm0 68q31 0 57 13.5t44.5 38T401 166t10 76-10 76.5-28.5 59.5-44.5 38.5-57 13.5-57-13.5-44.5-38.5-28.5-59.5-10-76.5 10-76 28.5-58.5 44.5-38T271 56zM166 570l-29 34 100 88h68l100-88-29-34-103 69h-4zm-32 144q4 39 20.5 64t51.5 25q22 0 39-6.5t31.5-14.5 28-14.5T332 761q15 0 22 10t11 32l43-4q-4-38-20.5-63.5T336 710q-22 0-39 6.5T265.5 731t-28 14.5T210 752q-15 0-22-10t-11-32z"/><glyph glyph-name="uni1ED9" unicode="ộ" horiz-adv-x="542" d="M271-12q-45 0-85.5 17T114 54.5t-49.5 80T46 242q0 61 18.5 108.5T114 431t71.5 50 85.5 17 85.5-17 71.5-50 49.5-80.5T496 242q0-60-18.5-107.5t-49.5-80T356.5 5 271-12zm0 68q31 0 57 13.5t44.5 38T401 166t10 76-10 76.5-28.5 59.5-44.5 38.5-57 13.5-57-13.5-44.5-38.5-28.5-59.5-10-76.5 10-76 28.5-58.5 44.5-38T271 56zM116 600l114 140h82l114-140-35-32-118 113h-4L151 568zm156-805q-23 0-38.5 15T218-151q0 23 15.5 38.5T272-97t38.5-15.5T326-151q0-24-15.5-39T272-205z"/><glyph glyph-name="uni014F" unicode="ŏ" horiz-adv-x="542" d="M271-12q-45 0-85.5 17T114 54.5t-49.5 80T46 242q0 61 18.5 108.5T114 431t71.5 50 85.5 17 85.5-17 71.5-50 49.5-80.5T496 242q0-60-18.5-107.5t-49.5-80T356.5 5 271-12zm0 68q31 0 57 13.5t44.5 38T401 166t10 76-10 76.5-28.5 59.5-44.5 38.5-57 13.5-57-13.5-44.5-38.5-28.5-59.5-10-76.5 10-76 28.5-58.5 44.5-38T271 56zm0 515q-40 0-69 13t-47.5 34.5-28 48.5-11.5 55l51 8q3-19 10.5-37.5T197 659t31.5-24 42.5-9 42.5 9 31.5 24 20.5 33.5T376 730l51-8q-2-28-11.5-55T387 618.5 339.5 584 271 571z"/><glyph glyph-name="uni1E53" unicode="ṓ" horiz-adv-x="542" d="M271-12q-45 0-85.5 17T114 54.5t-49.5 80T46 242q0 61 18.5 108.5T114 431t71.5 50 85.5 17 85.5-17 71.5-50 49.5-80.5T496 242q0-60-18.5-107.5t-49.5-80T356.5 5 271-12zm0 68q31 0 57 13.5t44.5 38T401 166t10 76-10 76.5-28.5 59.5-44.5 38.5-57 13.5-57-13.5-44.5-38.5-28.5-59.5-10-76.5 10-76 28.5-58.5 44.5-38T271 56zm-34 649l-32 39 135 99 38-49zm-99-104v57h266v-57H138z"/><glyph glyph-name="oslash" unicode="ø" horiz-adv-x="542" d="M271-12q-79 0-139 49L83-23 46 6l54 65q-25 32-39.5 74.5T46 242q0 61 18.5 108.5T114 431t71.5 50 85.5 17q38 0 74-12.5t65-37.5l50 61 36-29-54-65q25-32 39.5-75.5T496 242q0-60-18.5-107.5t-49.5-80T356.5 5 271-12zM127 246q0-67 23-113l214 259q-37 40-93 40-31 0-57.5-13.5t-45.5-38-30-59-11-75.5zM271 54q31 0 57.5 13.5t46 38 30 58.5 10.5 75q0 67-24 114L178 93q39-39 93-39z"/><glyph glyph-name="oe" unicode="œ" horiz-adv-x="839" d="M264-12q-44 0-83.5 17T111 54.5t-47.5 80T46 242q0 61 18 108.5t48 80.5 70 50 84 17q56 0 103-31t73-91q28 57 72.5 89.5T613 498q45 0 80-16t59-46 36.5-72.5T801 269q0-28-3-46H479q1-38 13.5-69t33-53 48-34T632 55q35 0 64 11.5T752 95l30-57q-32-20-71-35t-89-15q-57 0-104 32t-75 89Q386-12 264-12zm2 68q30 0 55 13.5t43 38 28 58.5 10 76-10 76.5-28 59.5-43 38.5-55 13.5-55-13.5-43-38.5-28-59.5-10-76.5 10-76 28-58.5 43-38T266 56zm213 222h250q0 75-31 115t-87 40q-51 0-88-41.5T479 278z"/><glyph glyph-name="ohorn" unicode="ơ" horiz-adv-x="542" d="M271-12q-45 0-85.5 17T114 54.5t-49.5 80T46 242q0 61 18.5 108.5T114 431t71.5 50 85.5 17q50 0 95-21 42 8 64 30.5t22 64.5q0 14-4 28.5T437 627l64 30q10-17 16.5-37t6.5-42q0-30-9.5-52t-25-38.5-35-27T414 444q38-32 60-83t22-119q0-60-18.5-107.5t-49.5-80T356.5 5 271-12zm0 68q31 0 57 13.5t44.5 38T401 166t10 76-10 76.5-28.5 59.5-44.5 38.5-57 13.5-57-13.5-44.5-38.5-28.5-59.5-10-76.5 10-76 28.5-58.5 44.5-38T271 56z"/><glyph glyph-name="uni1EDB" unicode="ớ" horiz-adv-x="542" d="M271-12q-45 0-85.5 17T114 54.5t-49.5 80T46 242q0 61 18.5 108.5T114 431t71.5 50 85.5 17q50 0 95-21 42 8 64 30.5t22 64.5q0 14-4 28.5T437 627l64 30q10-17 16.5-37t6.5-42q0-30-9.5-52t-25-38.5-35-27T414 444q38-32 60-83t22-119q0-60-18.5-107.5t-49.5-80T356.5 5 271-12zm0 68q31 0 57 13.5t44.5 38T401 166t10 76-10 76.5-28.5 59.5-44.5 38.5-57 13.5-57-13.5-44.5-38.5-28.5-59.5-10-76.5 10-76 28.5-58.5 44.5-38T271 56zm-14 517l-42 41 141 167 58-55z"/><glyph glyph-name="uni1EDD" unicode="ờ" horiz-adv-x="542" d="M271-12q-45 0-85.5 17T114 54.5t-49.5 80T46 242q0 61 18.5 108.5T114 431t71.5 50 85.5 17q50 0 95-21 42 8 64 30.5t22 64.5q0 14-4 28.5T437 627l64 30q10-17 16.5-37t6.5-42q0-30-9.5-52t-25-38.5-35-27T414 444q38-32 60-83t22-119q0-60-18.5-107.5t-49.5-80T356.5 5 271-12zm0 68q31 0 57 13.5t44.5 38T401 166t10 76-10 76.5-28.5 59.5-44.5 38.5-57 13.5-57-13.5-44.5-38.5-28.5-59.5-10-76.5 10-76 28.5-58.5 44.5-38T271 56zm14 517L128 726l58 55 141-167z"/><glyph glyph-name="uni1EDF" unicode="ở" horiz-adv-x="542" d="M271-12q-45 0-85.5 17T114 54.5t-49.5 80T46 242q0 61 18.5 108.5T114 431t71.5 50 85.5 17q50 0 95-21 42 8 64 30.5t22 64.5q0 14-4 28.5T437 627l64 30q10-17 16.5-37t6.5-42q0-30-9.5-52t-25-38.5-35-27T414 444q38-32 60-83t22-119q0-60-18.5-107.5t-49.5-80T356.5 5 271-12zm0 68q31 0 57 13.5t44.5 38T401 166t10 76-10 76.5-28.5 59.5-44.5 38.5-57 13.5-57-13.5-44.5-38.5-28.5-59.5-10-76.5 10-76 28.5-58.5 44.5-38T271 56zm-32 516l-9 40q24 6 40 16.5t16 30.5q0 43-83 47l5 54q69-2 106-25.5t37-68.5q0-22-9.5-37.5t-25-27T281 583t-42-11z"/><glyph glyph-name="uni1EE1" unicode="ỡ" horiz-adv-x="542" d="M271-12q-45 0-85.5 17T114 54.5t-49.5 80T46 242q0 61 18.5 108.5T114 431t71.5 50 85.5 17q50 0 95-21 42 8 64 30.5t22 64.5q0 14-4 28.5T437 627l64 30q10-17 16.5-37t6.5-42q0-30-9.5-52t-25-38.5-35-27T414 444q38-32 60-83t22-119q0-60-18.5-107.5t-49.5-80T356.5 5 271-12zm0 68q31 0 57 13.5t44.5 38T401 166t10 76-10 76.5-28.5 59.5-44.5 38.5-57 13.5-57-13.5-44.5-38.5-28.5-59.5-10-76.5 10-76 28.5-58.5 44.5-38T271 56zm57 521q-27 0-46 13t-35 29-30.5 29-31.5 13q-23 0-34-22t-13-57l-55 3q1 29 7.5 54t18.5 43 30.5 28.5T184 721q27 0 46-13t35-29 30.5-29 32.5-13q22 0 33 22t13 57l55-4q-1-29-7.5-53.5T403 616t-30.5-28.5T328 577z"/><glyph glyph-name="uni1EE3" unicode="ợ" horiz-adv-x="542" d="M271-12q-45 0-85.5 17T114 54.5t-49.5 80T46 242q0 61 18.5 108.5T114 431t71.5 50 85.5 17q50 0 95-21 42 8 64 30.5t22 64.5q0 14-4 28.5T437 627l64 30q10-17 16.5-37t6.5-42q0-30-9.5-52t-25-38.5-35-27T414 444q38-32 60-83t22-119q0-60-18.5-107.5t-49.5-80T356.5 5 271-12zm0 68q31 0 57 13.5t44.5 38T401 166t10 76-10 76.5-28.5 59.5-44.5 38.5-57 13.5-57-13.5-44.5-38.5-28.5-59.5-10-76.5 10-76 28.5-58.5 44.5-38T271 56zm1-261q-23 0-38.5 15T218-151q0 23 15.5 38.5T272-97t38.5-15.5T326-151q0-24-15.5-39T272-205z"/><glyph glyph-name="uni01EB" unicode="ǫ" horiz-adv-x="542" d="M295-206q-38 0-64 21.5T205-121q0 19 5.5 35.5t14 31 18 25.5T261-11q-44 2-83 20.5T109.5 60 63 138 46 242q0 61 18.5 108.5T114 431t71.5 50 85.5 17 85.5-17 71.5-50 49.5-80.5T496 242q0-51-11.5-89.5t-32.5-68-50-51T337-4q-34-16-52.5-44T266-105q0-23 14-34.5t32-11.5q12 0 21.5 3.5T353-138l21-41q-14-11-36.5-19t-42.5-8zM271 56q31 0 57 13.5t44.5 38T401 166t10 76-10 76.5-28.5 59.5-44.5 38.5-57 13.5-57-13.5-44.5-38.5-28.5-59.5-10-76.5 10-76 28.5-58.5 44.5-38T271 56z"/><glyph glyph-name="racute" unicode="ŕ" horiz-adv-x="347" d="M82 0v486h68l7-88h3q25 46 60.5 73t77.5 27q29 0 52-10l-16-72q-12 4-22 6t-25 2q-31 0-64.5-25T164 312V0H82zm121 573l-42 41 141 167 58-55z"/><glyph glyph-name="uni0157" unicode="ŗ" horiz-adv-x="347" d="M82 0v486h68l7-88h3q25 46 60.5 73t77.5 27q29 0 52-10l-16-72q-12 4-22 6t-25 2q-31 0-64.5-25T164 312V0H82zM34-226l-8 40q63 5 86 16.5t23 31.5-18 29.5T64-96l18 38q65-8 91-25.5t26-51.5q0-44-42.5-65.5T34-226z"/><glyph glyph-name="rcaron" unicode="ř" horiz-adv-x="347" d="M82 0v486h68l7-88h3q25 46 60.5 73t77.5 27q29 0 52-10l-16-72q-12 4-22 6t-25 2q-31 0-64.5-25T164 312V0H82zm94 574L62 714l35 32 118-113h4l118 113 35-32-114-140h-82z"/><glyph glyph-name="uni1E59" unicode="ṙ" horiz-adv-x="347" d="M82 0v486h68l7-88h3q25 46 60.5 73t77.5 27q29 0 52-10l-16-72q-12 4-22 6t-25 2q-31 0-64.5-25T164 312V0H82zm134 586q-23 0-38.5 15T162 640q0 23 15.5 38.5T216 694t38.5-15.5T270 640q0-24-15.5-39T216 586z"/><glyph glyph-name="uni1E5B" unicode="ṛ" horiz-adv-x="347" d="M82 0v486h68l7-88h3q25 46 60.5 73t77.5 27q29 0 52-10l-16-72q-12 4-22 6t-25 2q-31 0-64.5-25T164 312V0H82zm39-205q-23 0-38.5 15T67-151q0 23 15.5 38.5T121-97t38.5-15.5T175-151q0-24-15.5-39T121-205z"/><glyph glyph-name="uni1E5D" unicode="ṝ" horiz-adv-x="347" d="M82 0v486h68l7-88h3q25 46 60.5 73t77.5 27q29 0 52-10l-16-72q-12 4-22 6t-25 2q-31 0-64.5-25T164 312V0H82zm2 601v57h266v-57H84zm37-806q-23 0-38.5 15T67-151q0 23 15.5 38.5T121-97t38.5-15.5T175-151q0-24-15.5-39T121-205z"/><glyph glyph-name="uni1E5F" unicode="ṟ" horiz-adv-x="347" d="M82 0v486h68l7-88h3q25 46 60.5 73t77.5 27q29 0 52-10l-16-72q-12 4-22 6t-25 2q-31 0-64.5-25T164 312V0H82zm-94-169v57h266v-57H-12z"/><glyph glyph-name="sacute" unicode="ś" horiz-adv-x="419" d="M209-12q-52 0-99 19T28 55l41 55q32-26 65.5-42T212 52q48 0 72 22t24 54q0 19-10 33t-25.5 24.5T237 204l-40 16q-26 9-52 20.5t-46.5 28T65 307t-13 53q0 29 11.5 54.5t33 44 52.5 29 70 10.5q46 0 84.5-16t66.5-39l-39-52q-25 19-52 31t-59 12q-46 0-67.5-21T131 364q0-17 9-29.5t24-22 34.5-17T239 280q26-10 52.5-21t47.5-27.5 34.5-40.5 13.5-58q0-30-11.5-56t-34-46-56-31.5T209-12zm-4 585l-42 41 141 167 58-55z"/><glyph glyph-name="scircumflex" unicode="ŝ" horiz-adv-x="419" d="M209-12q-52 0-99 19T28 55l41 55q32-26 65.5-42T212 52q48 0 72 22t24 54q0 19-10 33t-25.5 24.5T237 204l-40 16q-26 9-52 20.5t-46.5 28T65 307t-13 53q0 29 11.5 54.5t33 44 52.5 29 70 10.5q46 0 84.5-16t66.5-39l-39-52q-25 19-52 31t-59 12q-46 0-67.5-21T131 364q0-17 9-29.5t24-22 34.5-17T239 280q26-10 52.5-21t47.5-27.5 34.5-40.5 13.5-58q0-30-11.5-56t-34-46-56-31.5T209-12zM64 600l114 140h82l114-140-35-32-118 113h-4L99 568z"/><glyph glyph-name="scaron" unicode="š" horiz-adv-x="419" d="M209-12q-52 0-99 19T28 55l41 55q32-26 65.5-42T212 52q48 0 72 22t24 54q0 19-10 33t-25.5 24.5T237 204l-40 16q-26 9-52 20.5t-46.5 28T65 307t-13 53q0 29 11.5 54.5t33 44 52.5 29 70 10.5q46 0 84.5-16t66.5-39l-39-52q-25 19-52 31t-59 12q-46 0-67.5-21T131 364q0-17 9-29.5t24-22 34.5-17T239 280q26-10 52.5-21t47.5-27.5 34.5-40.5 13.5-58q0-30-11.5-56t-34-46-56-31.5T209-12zm-31 586L64 714l35 32 118-113h4l118 113 35-32-114-140h-82z"/><glyph glyph-name="uni015F" unicode="ş" horiz-adv-x="419" d="M209-12q-52 0-99 19T28 55l41 55q32-26 65.5-42T212 52q48 0 72 22t24 54q0 19-10 33t-25.5 24.5T237 204l-40 16q-26 9-52 20.5t-46.5 28T65 307t-13 53q0 29 11.5 54.5t33 44 52.5 29 70 10.5q46 0 84.5-16t66.5-39l-39-52q-25 19-52 31t-59 12q-46 0-67.5-21T131 364q0-17 9-29.5t24-22 34.5-17T239 280q26-10 52.5-21t47.5-27.5 34.5-40.5 13.5-58q0-30-11.5-56t-34-46-56-31.5T209-12zm-74-214l-8 40q63 5 86 16.5t23 33.5q0 20-17 31t-60 17l44 91h53l-29-67q35-8 54-24t19-47q0-44-42.5-65.5T135-226z"/><glyph glyph-name="uni0219" unicode="ș" horiz-adv-x="419" d="M209-12q-52 0-99 19T28 55l41 55q32-26 65.5-42T212 52q48 0 72 22t24 54q0 19-10 33t-25.5 24.5T237 204l-40 16q-26 9-52 20.5t-46.5 28T65 307t-13 53q0 29 11.5 54.5t33 44 52.5 29 70 10.5q46 0 84.5-16t66.5-39l-39-52q-25 19-52 31t-59 12q-46 0-67.5-21T131 364q0-17 9-29.5t24-22 34.5-17T239 280q26-10 52.5-21t47.5-27.5 34.5-40.5 13.5-58q0-30-11.5-56t-34-46-56-31.5T209-12zm-74-214l-8 40q63 5 86 16.5t23 31.5-18 29.5T165-96l18 38q65-8 91-25.5t26-51.5q0-44-42.5-65.5T135-226z"/><glyph glyph-name="uni1E61" unicode="ṡ" horiz-adv-x="419" d="M209-12q-52 0-99 19T28 55l41 55q32-26 65.5-42T212 52q48 0 72 22t24 54q0 19-10 33t-25.5 24.5T237 204l-40 16q-26 9-52 20.5t-46.5 28T65 307t-13 53q0 29 11.5 54.5t33 44 52.5 29 70 10.5q46 0 84.5-16t66.5-39l-39-52q-25 19-52 31t-59 12q-46 0-67.5-21T131 364q0-17 9-29.5t24-22 34.5-17T239 280q26-10 52.5-21t47.5-27.5 34.5-40.5 13.5-58q0-30-11.5-56t-34-46-56-31.5T209-12zm10 598q-23 0-38.5 15T165 640q0 23 15.5 38.5T219 694t38.5-15.5T273 640q0-24-15.5-39T219 586z"/><glyph glyph-name="uni1E63" unicode="ṣ" horiz-adv-x="419" d="M209-12q-52 0-99 19T28 55l41 55q32-26 65.5-42T212 52q48 0 72 22t24 54q0 19-10 33t-25.5 24.5T237 204l-40 16q-26 9-52 20.5t-46.5 28T65 307t-13 53q0 29 11.5 54.5t33 44 52.5 29 70 10.5q46 0 84.5-16t66.5-39l-39-52q-25 19-52 31t-59 12q-46 0-67.5-21T131 364q0-17 9-29.5t24-22 34.5-17T239 280q26-10 52.5-21t47.5-27.5 34.5-40.5 13.5-58q0-30-11.5-56t-34-46-56-31.5T209-12zm14-193q-23 0-38.5 15T169-151q0 23 15.5 38.5T223-97t38.5-15.5T277-151q0-24-15.5-39T223-205z"/><glyph glyph-name="germandbls" unicode="ß" horiz-adv-x="576" d="M387-12q-42 0-76 13t-65 36l33 58q26-22 51.5-32.5T385 52q42 0 63 24t21 56q0 29-14.5 48T418 213t-47.5 26.5T323 268t-36.5 38.5T272 364q0 34 13.5 58t30 46 30.5 45 14 55q0 38-20.5 62.5T277 655q-54 0-83.5-38.5T164 500V0H82v515q0 94 51 150.5T278 722q39 0 69.5-11.5T399 679t31.5-46.5T441 576q0-38-14-64.5T395.5 463 364 420.5 350 374q0-24 14.5-40t36.5-28.5 47.5-25.5 47.5-31 36.5-45 14.5-67q0-32-11-59t-32-47T453.5-.5 387-12z"/><glyph glyph-name="tcaron" unicode="ť" horiz-adv-x="338" d="M235-12q-39 0-65.5 12t-43 33T103 84t-7 66v269H24v62l76 5 10 136h69V486h131v-67H179V149q0-45 16.5-69.5T254 55q13 0 28 4t27 9l16-62q-20-7-43.5-12.5T235-12zm22 560l-4 212h59l-1-57-14-155h-40z"/><glyph glyph-name="uni0163" unicode="ţ" horiz-adv-x="338" d="M235-12q-39 0-65.5 12t-43 33T103 84t-7 66v269H24v62l76 5 10 136h69V486h131v-67H179V149q0-45 16.5-69.5T254 55q13 0 28 4t27 9l16-62q-20-7-43.5-12.5T235-12zM129-226l-8 40q63 5 86 16.5t23 33.5q0 20-17 31t-60 17l44 91h53l-29-67q35-8 54-24t19-47q0-44-42.5-65.5T129-226z"/><glyph glyph-name="uni021B" unicode="ț" horiz-adv-x="338" d="M235-12q-39 0-65.5 12t-43 33T103 84t-7 66v269H24v62l76 5 10 136h69V486h131v-67H179V149q0-45 16.5-69.5T254 55q13 0 28 4t27 9l16-62q-20-7-43.5-12.5T235-12zM126-226l-8 40q63 5 86 16.5t23 31.5-18 29.5T156-96l18 38q65-8 91-25.5t26-51.5q0-44-42.5-65.5T126-226z"/><glyph glyph-name="uni1E6D" unicode="ṭ" horiz-adv-x="338" d="M235-12q-39 0-65.5 12t-43 33T103 84t-7 66v269H24v62l76 5 10 136h69V486h131v-67H179V149q0-45 16.5-69.5T254 55q13 0 28 4t27 9l16-62q-20-7-43.5-12.5T235-12zm-21-193q-23 0-38.5 15T160-151q0 23 15.5 38.5T214-97t38.5-15.5T268-151q0-24-15.5-39T214-205z"/><glyph glyph-name="uni1E6F" unicode="ṯ" horiz-adv-x="338" d="M235-12q-39 0-65.5 12t-43 33T103 84t-7 66v269H24v62l76 5 10 136h69V486h131v-67H179V149q0-45 16.5-69.5T254 55q13 0 28 4t27 9l16-62q-20-7-43.5-12.5T235-12zM80-169v57h266v-57H80z"/><glyph glyph-name="uni1E97" unicode="ẗ" horiz-adv-x="338" d="M235-12q-39 0-65.5 12t-43 33T103 84t-7 66v269H24v62l76 5 10 136h69V486h131v-67H179V149q0-45 16.5-69.5T254 55q13 0 28 4t27 9l16-62q-20-7-43.5-12.5T235-12zM48 723q-22 0-36 14.5T-2 773t14 35.5T48 823q21 0 35-14.5T97 773t-14-35.5T48 723zm192 0q-21 0-35 14.5T191 773t14 35.5 35 14.5q22 0 36-14.5t14-35.5-14-35.5-36-14.5z"/><glyph glyph-name="uni0167" unicode="ŧ" horiz-adv-x="338" d="M24 231v43l72 5v140H24v62l76 5 10 136h69V486h131v-67H179V279h131v-48H179v-82q0-45 16.5-69.5T254 55q13 0 28 4t27 9l16-62q-20-7-43.5-12.5T235-12q-39 0-65.5 12t-43 33T103 84t-7 66v81H24z"/><glyph glyph-name="ugrave" unicode="ù" horiz-adv-x="544" d="M224-12q-78 0-113.5 48T75 178v308h83V189q0-69 21.5-99.5T249 59q38 0 67 19.5t64 62.5v345h82V0h-68l-7 76h-3q-34-40-71.5-64T224-12zm62 585L129 726l58 55 141-167z"/><glyph glyph-name="uacute" unicode="ú" horiz-adv-x="544" d="M224-12q-78 0-113.5 48T75 178v308h83V189q0-69 21.5-99.5T249 59q38 0 67 19.5t64 62.5v345h82V0h-68l-7 76h-3q-34-40-71.5-64T224-12zm34 585l-42 41 141 167 58-55z"/><glyph glyph-name="ucircumflex" unicode="û" horiz-adv-x="544" d="M224-12q-78 0-113.5 48T75 178v308h83V189q0-69 21.5-99.5T249 59q38 0 67 19.5t64 62.5v345h82V0h-68l-7 76h-3q-34-40-71.5-64T224-12zM117 600l114 140h82l114-140-35-32-118 113h-4L152 568z"/><glyph glyph-name="utilde" unicode="ũ" horiz-adv-x="544" d="M224-12q-78 0-113.5 48T75 178v308h83V189q0-69 21.5-99.5T249 59q38 0 67 19.5t64 62.5v345h82V0h-68l-7 76h-3q-34-40-71.5-64T224-12zm120 589q-27 0-46 13t-35 29-30.5 29-31.5 13q-23 0-34-22t-13-57l-55 3q1 29 7.5 54t18.5 43 30.5 28.5T200 721q27 0 46-13t35-29 30.5-29 32.5-13q22 0 33 22t13 57l55-4q-1-29-7.5-53.5T419 616t-30.5-28.5T344 577z"/><glyph glyph-name="udieresis" unicode="ü" horiz-adv-x="544" d="M224-12q-78 0-113.5 48T75 178v308h83V189q0-69 21.5-99.5T249 59q38 0 67 19.5t64 62.5v345h82V0h-68l-7 76h-3q-34-40-71.5-64T224-12zm-48 599q-22 0-36 14.5T126 637t14 35.5 36 14.5q21 0 35-14.5t14-35.5-14-35.5-35-14.5zm192 0q-21 0-35 14.5T319 637t14 35.5 35 14.5q22 0 36-14.5t14-35.5-14-35.5-36-14.5z"/><glyph glyph-name="umacron" unicode="ū" horiz-adv-x="544" d="M224-12q-78 0-113.5 48T75 178v308h83V189q0-69 21.5-99.5T249 59q38 0 67 19.5t64 62.5v345h82V0h-68l-7 76h-3q-34-40-71.5-64T224-12zm-88 613v57h266v-57H136z"/><glyph glyph-name="ubreve" unicode="ŭ" horiz-adv-x="544" d="M224-12q-78 0-113.5 48T75 178v308h83V189q0-69 21.5-99.5T249 59q38 0 67 19.5t64 62.5v345h82V0h-68l-7 76h-3q-34-40-71.5-64T224-12zm48 583q-40 0-69 13t-47.5 34.5-28 48.5-11.5 55l51 8q3-19 10.5-37.5T198 659t31.5-24 42.5-9 42.5 9 31.5 24 20.5 33.5T377 730l51-8q-2-28-11.5-55T388 618.5 340.5 584 272 571z"/><glyph glyph-name="uring" unicode="ů" horiz-adv-x="544" d="M224-12q-78 0-113.5 48T75 178v308h83V189q0-69 21.5-99.5T249 59q38 0 67 19.5t64 62.5v345h82V0h-68l-7 76h-3q-34-40-71.5-64T224-12zm48 566q-51 0-80.5 28T162 653q0 42 29.5 70t80.5 28 80.5-28 29.5-70q0-43-29.5-71T272 554zm0 37q24 0 40.5 16.5T329 653q0 28-16.5 44.5T272 714t-40.5-16.5T215 653q0-29 16.5-45.5T272 591z"/><glyph glyph-name="uhungarumlaut" unicode="ű" horiz-adv-x="544" d="M224-12q-78 0-113.5 48T75 178v308h83V189q0-69 21.5-99.5T249 59q38 0 67 19.5t64 62.5v345h82V0h-68l-7 76h-3q-34-40-71.5-64T224-12zm-3 580l-45 21 86 172 59-28zm151 0l-46 21 87 172 58-28z"/><glyph glyph-name="uni01D4" unicode="ǔ" horiz-adv-x="544" d="M224-12q-78 0-113.5 48T75 178v308h83V189q0-69 21.5-99.5T249 59q38 0 67 19.5t64 62.5v345h82V0h-68l-7 76h-3q-34-40-71.5-64T224-12zm7 586L117 714l35 32 118-113h4l118 113 35-32-114-140h-82z"/><glyph glyph-name="uni01D6" unicode="ǖ" horiz-adv-x="544" d="M224-12q-78 0-113.5 48T75 178v308h83V189q0-69 21.5-99.5T249 59q38 0 67 19.5t64 62.5v345h82V0h-68l-7 76h-3q-34-40-71.5-64T224-12zm-48 600q-20 0-33 13t-13 32q0 20 13 33t33 13 32.5-13 12.5-33q0-19-12.5-32T176 588zm-38 162v47h267v-47H138zm230-162q-20 0-32.5 13T323 633q0 20 12.5 33t32.5 13 33-13 13-33q0-19-13-32t-33-13z"/><glyph glyph-name="uni01D8" unicode="ǘ" horiz-adv-x="544" d="M224-12q-78 0-113.5 48T75 178v308h83V189q0-69 21.5-99.5T249 59q38 0 67 19.5t64 62.5v345h82V0h-68l-7 76h-3q-34-40-71.5-64T224-12zm41 717l-35 24 82 115 49-34zm-89-117q-20 0-33 13t-13 32q0 20 13 33t33 13 32.5-13 12.5-33q0-19-12.5-32T176 588zm192 0q-20 0-32.5 13T323 633q0 20 12.5 33t32.5 13 33-13 13-33q0-19-13-32t-33-13z"/><glyph glyph-name="uni01DA" unicode="ǚ" horiz-adv-x="544" d="M224-12q-78 0-113.5 48T75 178v308h83V189q0-69 21.5-99.5T249 59q38 0 67 19.5t64 62.5v345h82V0h-68l-7 76h-3q-34-40-71.5-64T224-12zm-50 852l96-73h4l96 73 30-28-94-92h-68l-94 92zm2-252q-20 0-33 13t-13 32q0 20 13 33t33 13 32.5-13 12.5-33q0-19-12.5-32T176 588zm192 0q-20 0-32.5 13T323 633q0 20 12.5 33t32.5 13 33-13 13-33q0-19-13-32t-33-13z"/><glyph glyph-name="uni01DC" unicode="ǜ" horiz-adv-x="544" d="M224-12q-78 0-113.5 48T75 178v308h83V189q0-69 21.5-99.5T249 59q38 0 67 19.5t64 62.5v345h82V0h-68l-7 76h-3q-34-40-71.5-64T224-12zm55 717l-96 105 49 34 82-115zM176 588q-20 0-33 13t-13 32q0 20 13 33t33 13 32.5-13 12.5-33q0-19-12.5-32T176 588zm192 0q-20 0-32.5 13T323 633q0 20 12.5 33t32.5 13 33-13 13-33q0-19-13-32t-33-13z"/><glyph glyph-name="uni1EE5" unicode="ụ" horiz-adv-x="544" d="M224-12q-78 0-113.5 48T75 178v308h83V189q0-69 21.5-99.5T249 59q38 0 67 19.5t64 62.5v345h82V0h-68l-7 76h-3q-34-40-71.5-64T224-12zm66-193q-23 0-38.5 15T236-151q0 23 15.5 38.5T290-97t38.5-15.5T344-151q0-24-15.5-39T290-205z"/><glyph glyph-name="uni1EE7" unicode="ủ" horiz-adv-x="544" d="M224-12q-78 0-113.5 48T75 178v308h83V189q0-69 21.5-99.5T249 59q38 0 67 19.5t64 62.5v345h82V0h-68l-7 76h-3q-34-40-71.5-64T224-12zm16 584l-9 40q24 6 40 16.5t16 30.5q0 43-83 47l5 54q69-2 106-25.5t37-68.5q0-22-9.5-37.5t-25-27T282 583t-42-11z"/><glyph glyph-name="uogonek" unicode="ų" horiz-adv-x="544" d="M405-206q-38 0-64.5 21.5T314-121q0 41 24.5 71.5T395 4l-8 72h-3q-34-40-71.5-64T224-12q-78 0-113.5 48T75 178v308h83V189q0-69 21-99.5T249 59q38 0 67 19.5t64 62.5v345h82V0q-45-22-66-49t-21-56q0-23 14.5-34.5T421-151q12 0 22 3.5t19 9.5l21-41q-14-11-36.5-19t-41.5-8z"/><glyph glyph-name="uhorn" unicode="ư" horiz-adv-x="544" d="M224-12q-78 0-113.5 48T75 178v308h83V189q0-69 21.5-99.5T249 59q38 0 67 19.5t64 62.5v345h21q18 3 33 9t26.5 17 18 28 6.5 42q0 14-4 28.5T471 637l64 30q10-17 16.5-37t6.5-42q0-30-8.5-52.5t-22-38.5-31-26-34.5-16V0h-68l-7 76h-3q-34-40-71.5-64T224-12z"/><glyph glyph-name="uni1EE9" unicode="ứ" horiz-adv-x="544" d="M224-12q-78 0-113.5 48T75 178v308h83V189q0-69 21.5-99.5T249 59q38 0 67 19.5t64 62.5v345h21q18 3 33 9t26.5 17 18 28 6.5 42q0 14-4 28.5T471 637l64 30q10-17 16.5-37t6.5-42q0-30-8.5-52.5t-22-38.5-31-26-34.5-16V0h-68l-7 76h-3q-34-40-71.5-64T224-12zm28 585l-42 41 141 167 58-55z"/><glyph glyph-name="uni1EEB" unicode="ừ" horiz-adv-x="544" d="M224-12q-78 0-113.5 48T75 178v308h83V189q0-69 21.5-99.5T249 59q38 0 67 19.5t64 62.5v345h21q18 3 33 9t26.5 17 18 28 6.5 42q0 14-4 28.5T471 637l64 30q10-17 16.5-37t6.5-42q0-30-8.5-52.5t-22-38.5-31-26-34.5-16V0h-68l-7 76h-3q-34-40-71.5-64T224-12zm56 585L123 726l58 55 141-167z"/><glyph glyph-name="uni1EED" unicode="ử" horiz-adv-x="544" d="M224-12q-78 0-113.5 48T75 178v308h83V189q0-69 21.5-99.5T249 59q38 0 67 19.5t64 62.5v345h21q18 3 33 9t26.5 17 18 28 6.5 42q0 14-4 28.5T471 637l64 30q10-17 16.5-37t6.5-42q0-30-8.5-52.5t-22-38.5-31-26-34.5-16V0h-68l-7 76h-3q-34-40-71.5-64T224-12zm10 584l-9 40q24 6 40 16.5t16 30.5q0 43-83 47l5 54q69-2 106-25.5t37-68.5q0-22-9.5-37.5t-25-27T276 583t-42-11z"/><glyph glyph-name="uni1EEF" unicode="ữ" horiz-adv-x="544" d="M224-12q-78 0-113.5 48T75 178v308h83V189q0-69 21.5-99.5T249 59q38 0 67 19.5t64 62.5v345h21q18 3 33 9t26.5 17 18 28 6.5 42q0 14-4 28.5T471 637l64 30q10-17 16.5-37t6.5-42q0-30-8.5-52.5t-22-38.5-31-26-34.5-16V0h-68l-7 76h-3q-34-40-71.5-64T224-12zm114 589q-27 0-46 13t-35 29-30.5 29-31.5 13q-23 0-34-22t-13-57l-55 3q1 29 7.5 54t18.5 43 30.5 28.5T194 721q27 0 46-13t35-29 30.5-29 32.5-13q22 0 33 22t13 57l55-4q-1-29-7.5-53.5T413 616t-30.5-28.5T338 577z"/><glyph glyph-name="uni1EF1" unicode="ự" horiz-adv-x="544" d="M224-12q-78 0-113.5 48T75 178v308h83V189q0-69 21.5-99.5T249 59q38 0 67 19.5t64 62.5v345h21q18 3 33 9t26.5 17 18 28 6.5 42q0 14-4 28.5T471 637l64 30q10-17 16.5-37t6.5-42q0-30-8.5-52.5t-22-38.5-31-26-34.5-16V0h-68l-7 76h-3q-34-40-71.5-64T224-12zm60-193q-23 0-38.5 15T230-151q0 23 15.5 38.5T284-97t38.5-15.5T338-151q0-24-15.5-39T284-205z"/><glyph glyph-name="wgrave" unicode="ẁ" horiz-adv-x="718" d="M159 0L24 486h84l72-281q8-35 15-68t14-67h4q8 34 16 67.5t17 67.5l75 281h80l76-281q9-35 17.5-68T511 70h4q8 34 15 67t15 68l71 281h78L564 0H464l-70 261q-9 35-16.5 69T361 401h-4q-8-37-16-71.5T323 260L255 0h-96zm215 573L217 726l58 55 141-167z"/><glyph glyph-name="wacute" unicode="ẃ" horiz-adv-x="718" d="M159 0L24 486h84l72-281q8-35 15-68t14-67h4q8 34 16 67.5t17 67.5l75 281h80l76-281q9-35 17.5-68T511 70h4q8 34 15 67t15 68l71 281h78L564 0H464l-70 261q-9 35-16.5 69T361 401h-4q-8-37-16-71.5T323 260L255 0h-96zm187 573l-42 41 141 167 58-55z"/><glyph glyph-name="wcircumflex" unicode="ŵ" horiz-adv-x="718" d="M159 0L24 486h84l72-281q8-35 15-68t14-67h4q8 34 16 67.5t17 67.5l75 281h80l76-281q9-35 17.5-68T511 70h4q8 34 15 67t15 68l71 281h78L564 0H464l-70 261q-9 35-16.5 69T361 401h-4q-8-37-16-71.5T323 260L255 0h-96zm46 600l114 140h82l114-140-35-32-118 113h-4L240 568z"/><glyph glyph-name="wdieresis" unicode="ẅ" horiz-adv-x="718" d="M159 0L24 486h84l72-281q8-35 15-68t14-67h4q8 34 16 67.5t17 67.5l75 281h80l76-281q9-35 17.5-68T511 70h4q8 34 15 67t15 68l71 281h78L564 0H464l-70 261q-9 35-16.5 69T361 401h-4q-8-37-16-71.5T323 260L255 0h-96zm105 587q-22 0-36 14.5T214 637t14 35.5 36 14.5q21 0 35-14.5t14-35.5-14-35.5-35-14.5zm192 0q-21 0-35 14.5T407 637t14 35.5 35 14.5q22 0 36-14.5t14-35.5-14-35.5-36-14.5z"/><glyph glyph-name="ygrave" unicode="ỳ" horiz-adv-x="467" d="M90-209q-17 0-31 2.5T33-199l16 65 18-4.5 19-2.5q42 0 68.5 29.5T196-37l11 36L12 486h85l99-269q11-32 23.5-67.5T243 80h4q11 33 21 69t20 68l87 269h80L272-40q-13-36-29-67t-38-53.5-50-35.5-65-13zm166 782L99 726l58 55 141-167z"/><glyph glyph-name="yacute" unicode="ý" horiz-adv-x="467" d="M90-209q-17 0-31 2.5T33-199l16 65 18-4.5 19-2.5q42 0 68.5 29.5T196-37l11 36L12 486h85l99-269q11-32 23.5-67.5T243 80h4q11 33 21 69t20 68l87 269h80L272-40q-13-36-29-67t-38-53.5-50-35.5-65-13zm138 782l-42 41 141 167 58-55z"/><glyph glyph-name="ycircumflex" unicode="ŷ" horiz-adv-x="467" d="M90-209q-17 0-31 2.5T33-199l16 65 18-4.5 19-2.5q42 0 68.5 29.5T196-37l11 36L12 486h85l99-269q11-32 23.5-67.5T243 80h4q11 33 21 69t20 68l87 269h80L272-40q-13-36-29-67t-38-53.5-50-35.5-65-13zm-3 809l114 140h82l114-140-35-32-118 113h-4L122 568z"/><glyph glyph-name="ydieresis" unicode="ÿ" horiz-adv-x="467" d="M90-209q-17 0-31 2.5T33-199l16 65 18-4.5 19-2.5q42 0 68.5 29.5T196-37l11 36L12 486h85l99-269q11-32 23.5-67.5T243 80h4q11 33 21 69t20 68l87 269h80L272-40q-13-36-29-67t-38-53.5-50-35.5-65-13zm56 796q-22 0-36 14.5T96 637t14 35.5 36 14.5q21 0 35-14.5t14-35.5-14-35.5-35-14.5zm192 0q-21 0-35 14.5T289 637t14 35.5 35 14.5q22 0 36-14.5t14-35.5-14-35.5-36-14.5z"/><glyph glyph-name="uni1E8F" unicode="ẏ" horiz-adv-x="467" d="M90-209q-17 0-31 2.5T33-199l16 65 18-4.5 19-2.5q42 0 68.5 29.5T196-37l11 36L12 486h85l99-269q11-32 23.5-67.5T243 80h4q11 33 21 69t20 68l87 269h80L272-40q-13-36-29-67t-38-53.5-50-35.5-65-13zm152 795q-23 0-38.5 15T188 640q0 23 15.5 38.5T242 694t38.5-15.5T296 640q0-24-15.5-39T242 586z"/><glyph glyph-name="uni1EF5" unicode="ỵ" horiz-adv-x="467" d="M90-209q-17 0-31 2.5T33-199l16 65 18-4.5 19-2.5q42 0 68.5 29.5T196-37l11 36L12 486h85l99-269q11-32 23.5-67.5T243 80h4q11 33 21 69t20 68l87 269h80L272-40q-13-36-29-67t-38-53.5-50-35.5-65-13zm301 8q-23 0-38.5 15T337-147q0 23 15.5 38.5T391-93t38.5-15.5T445-147q0-24-15.5-39T391-201z"/><glyph glyph-name="uni1EF7" unicode="ỷ" horiz-adv-x="467" d="M90-209q-17 0-31 2.5T33-199l16 65 18-4.5 19-2.5q42 0 68.5 29.5T196-37l11 36L12 486h85l99-269q11-32 23.5-67.5T243 80h4q11 33 21 69t20 68l87 269h80L272-40q-13-36-29-67t-38-53.5-50-35.5-65-13zm120 781l-9 40q24 6 40 16.5t16 30.5q0 43-83 47l5 54q69-2 106-25.5t37-68.5q0-22-9.5-37.5t-25-27T252 583t-42-11z"/><glyph glyph-name="uni1EF9" unicode="ỹ" horiz-adv-x="467" d="M90-209q-17 0-31 2.5T33-199l16 65 18-4.5 19-2.5q42 0 68.5 29.5T196-37l11 36L12 486h85l99-269q11-32 23.5-67.5T243 80h4q11 33 21 69t20 68l87 269h80L272-40q-13-36-29-67t-38-53.5-50-35.5-65-13zm224 786q-27 0-46 13t-35 29-30.5 29-31.5 13q-23 0-34-22t-13-57l-55 3q1 29 7.5 54T95 682t30.5 28.5T170 721q27 0 46-13t35-29 30.5-29 32.5-13q22 0 33 22t13 57l55-4q-1-29-7.5-53.5T389 616t-30.5-28.5T314 577z"/><glyph glyph-name="zacute" unicode="ź" horiz-adv-x="425" d="M31 0v44l256 375H59v67h332v-44L135 67h264V0H31zm183 573l-42 41 141 167 58-55z"/><glyph glyph-name="zcaron" unicode="ž" horiz-adv-x="425" d="M31 0v44l256 375H59v67h332v-44L135 67h264V0H31zm156 574L73 714l35 32 118-113h4l118 113 35-32-114-140h-82z"/><glyph glyph-name="zdotaccent" unicode="ż" horiz-adv-x="425" d="M31 0v44l256 375H59v67h332v-44L135 67h264V0H31zm197 586q-23 0-38.5 15T174 640q0 23 15.5 38.5T228 694t38.5-15.5T282 640q0-24-15.5-39T228 586z"/><glyph glyph-name="uni1E93" unicode="ẓ" horiz-adv-x="425" d="M31 0v44l256 375H59v67h332v-44L135 67h264V0H31zm197-205q-23 0-38.5 15T174-151q0 23 15.5 38.5T228-97t38.5-15.5T282-151q0-24-15.5-39T228-205z"/><glyph glyph-name="uni1E95" unicode="ẕ" horiz-adv-x="425" d="M31 0v44l256 375H59v67h332v-44L135 67h264V0H31zm64-169v57h266v-57H95z"/><glyph glyph-name="eth" unicode="ð" horiz-adv-x="545" d="M269-12q-42 0-81 16t-69 46.5-48 74T53 222q0 51 16 92.5t43.5 71 65 45.5 81.5 16q38 0 73-16t61-50q-14 62-41.5 108T286 573l-141-73-24 41 127 65q-52 40-112 72l38 52q36-20 71-42t67-49l142 73 24-41-129-66q60-61 98-145t38-203q0-60-15.5-109.5t-44-85-68-55T269-12zm2 68q34 0 59 14.5t42 40.5 25.5 62.5T406 254q0 14-.5 28t-1.5 27q-33 44-66 59t-67 15q-33 0-59-12t-44-34-27.5-51.5T131 222q0-38 11-68.5t30.5-52T217 68t54-12z"/><glyph glyph-name="thorn" unicode="þ" horiz-adv-x="555" d="M82-205v917h82V518l-1-83q32 26 70 44.5t78 18.5q48 0 84.5-17.5t61.5-50 37.5-78T507 250q0-62-17-110.5T444 57 377 5.5 297-12q-35 0-68 14t-66 40l1-83v-164H82zM283 57q30 0 55.5 13.5t44 38 29 60.5 10.5 81q0 40-7 73t-22.5 56.5-40 36.5-58.5 13q-31 0-62.5-17T164 363V108q33-28 64-39.5T283 57z"/><glyph glyph-name="uni014B" unicode="ŋ" horiz-adv-x="547" d="M338-183q-23 0-41 4t-30 9l16 63q9-3 21-6t25-3q36 0 48 25.5T389-20v317q0 69-22 99.5T297 427q-38 0-67-19t-66-56V0H82v486h68l7-70h3q35 35 73.5 58.5T323 498q77 0 112.5-48T471 308V-21q0-74-30-118t-103-44z"/><glyph glyph-name="uni0237" unicode="ȷ" horiz-adv-x="247" d="M32-217q-23 0-41 4t-31 9l17 62q9-3 21-5.5t25-2.5q36 0 48 25t12 70v541h82V-55q0-74-30-118T32-217z"/><glyph glyph-name="uni0133" unicode="ĳ" horiz-adv-x="493" d="M82 0v486h82V0H82zm42 586q-24 0-40.5 15T67 639q0 24 16.5 38.5T124 692t40.5-14.5T181 639q0-23-16.5-38T124 586zm154-803q-23 0-41 4t-31 9l17 62q9-3 21-5.5t25-2.5q36 0 48 25t12 70v541h82V-55q0-74-30-118t-103-44zm93 803q-24 0-40.5 15T314 639q0 24 16.5 38.5T371 692q23 0 39.5-14.5T427 639q0-23-16.5-38T371 586z"/><glyph glyph-name="uni0250" unicode="ɐ" horiz-adv-x="512" d="M270-12q-52 0-89 15t-60.5 42T86 110.5 75 196v290h68l7-68h2q35 36 79.5 58t93.5 22q57 0 94-32.5t37-94.5q0-83-71.5-129.5T157 178q0-22 6-44t20-39 38-28 60-11q41 0 75.5 16t62.5 36l32-57q-32-22-79-42.5T270-12zM157 232q61 8 103 20t67.5 27.5 36.5 36 11 44.5q0 38-22.5 55T298 432q-34 0-68.5-18T157 356V232z"/><glyph glyph-name="uni0252" unicode="ɒ" horiz-adv-x="555" d="M297-12q-68 0-139 59h-3l-6-47H82v486h68l7-57h3q33 29 72.5 49t82.5 20q47 0 83-17.5t60-50 36.5-78T507 250q0-62-17-110.5T444 57 377 5.5 297-12zm-14 69q30 0 55.5 13.5t44 38 29 60.5 10.5 81q0 40-7 73t-22.5 56.5-40 36.5-58.5 13q-31 0-62.5-17T164 363V108q33-28 64-39.5T283 57z"/><glyph glyph-name="uni0253" unicode="ɓ" horiz-adv-x="555" d="M297-12q-34 0-70.5 15.5T158 48h-3l-7-48H82v537q0 42 10.5 76t31.5 59 52.5 38.5T251 724q22 0 43.5-4.5T333 708l-19-63q-27 12-55 12-48 0-70.5-32T164 536l-2-113q33 29 72 48.5t80 19.5q47 0 83-17.5t60.5-49 37-77T507 247q0-62-17-110t-46-81-67-50.5T297-12zm-14 69q30 0 55.5 13t44 37.5 29 59.5 10.5 79q0 79-29.5 127.5T294 422q-60 0-130-67V108q32-28 63.5-39.5T283 57z"/><glyph glyph-name="uni0254" unicode="ɔ" horiz-adv-x="456" d="M182-12q-45 0-85 16.5T25 50l35 55q23-20 52-34.5T174 56t60.5 13.5 48 38T314 166t11 76-11 77-30 59.5-45.5 38T182 430q-35 0-59.5-11.5T76 387l-42 54q27 23 64.5 40t92.5 17q43 0 83-17t70-49.5 48-80T410 242q0-60-18-107.5t-48.5-80-72-49.5T182-12z"/><glyph glyph-name="uni0255" unicode="ɕ" horiz-adv-x="456" d="M284 54q36 0 59.5 15t23.5 38q0 17-12.5 31T315 152t-56.5-19T201 80q37-26 83-26zM123-69L57-41q11 29 24 54.5T108 62q-29 32-45.5 77.5T46 242q0 61 19 108.5t51 80.5 74.5 50 89.5 17q48 0 82-17t60-40l-40-51q-21 19-45.5 31T283 433q-34 0-62.5-14T171 380t-32.5-60-11.5-78q0-34 8-63t22-52q38 41 79.5 62.5T320 211q54 0 84-28.5t30-74.5q0-25-10.5-46.5t-30-38-48-26T282-12q-68 0-121 32-23-42-38-89z"/><glyph glyph-name="uni0256" unicode="ɖ" horiz-adv-x="555" d="M514-183q-63 0-92 36.5T393-46l1 102q-30-29-66.5-48.5T248-12q-92 0-146.5 66T47 242q0 59 17.5 106.5T111 429t67 51 80 18 73-15 63-41l-4 83v199h83V-28q0-42 10.5-65t39.5-23q10 0 19 3t17 6l16-63q-11-5-26.5-9t-34.5-4zM266 57q34 0 64 16.5t60 50.5v254q-31 28-59.5 39.5T272 429q-29 0-54.5-13.5t-44.5-38-30-58.5-11-76q0-88 35-137t99-49z"/><glyph glyph-name="uni0257" unicode="ɗ" horiz-adv-x="555" d="M248-12q-92 0-146.5 66T47 242q0 59 17.5 106.5T111 429t67 51 80 18 73-15 63-41l-1 133q0 70 31.5 110.5T523 726q17 0 31-2.5t25-7.5l-16-63q-7 2-14.5 4t-16.5 2q-33 0-46-25t-13-67V0h-68l-7 57h-3q-29-28-66.5-48.5T248-12zm18 69q34 0 64 16.5t60 50.5v254q-31 28-59.5 39.5T272 429q-29 0-54.5-13.5t-44.5-38-30-58.5-11-76q0-88 35-137t99-49z"/><glyph glyph-name="uni0258" unicode="ɘ" horiz-adv-x="496" d="M221-12q-50 0-91 15T57 38l29 54q27-17 58.5-27.5T211 54q72 0 112.5 45.5T368 223H41q-2 9-3 21.5T37 270q0 52 14.5 94t41 72 64 46 84.5 16q44 0 82-17.5t66.5-50.5 44.5-80.5T450 242t-17-107-48-79.5-73-50T221-12zM110 282h259q-7 72-41 111.5T239 433q-57 0-93-38.5T110 282z"/><glyph glyph-name="uni0251" unicode="ɑ" horiz-adv-x="555" d="M248-12q-92 0-146.5 66T47 242q0 59 17.5 106.5t47 80.5 67.5 51 80 18q41 0 73-15t65-44h2l7 47h67V0h-68l-7 57h-3q-29-28-66.5-48.5T248-12zm18 69q34 0 64 16.5t60 50.5v254q-31 28-59.5 39.5T272 429q-29 0-54.5-13.5t-44.5-38-30-58.5-11-76q0-88 35-137t99-49z"/><glyph glyph-name="uni0299" unicode="ʙ" horiz-adv-x="508" d="M82 0v486h187q40 0 73-7t56.5-21.5 36.5-38 13-56.5q0-41-21.5-67T367 259v-3q21-5 39.5-14t32.5-23 22-34 8-46q0-36-14.5-62t-40-43.5T354 8t-77-8H82zm81 282h92q61 0 87 19.5t26 53.5-25 53-82 19h-98V282zm0-223h105q60 0 89.5 22t29.5 63q0 37-31 58t-93 21H163V59z"/><glyph glyph-name="uni0259" unicode="ə" horiz-adv-x="496" d="M238-12q-46 0-83 16T91.5 50.5t-40.5 74T37 222q0 14 1 26.5t3 21.5h327q-4 73-41.5 118T223 433q-37 0-67-11.5T97 391l-29 57q34 23 75.5 36.5T236 498q46 0 85-17t67.5-50 45-80T450 244t-16.5-107.5-45-80.5T321 5.5 238-12zm-2 66q57 0 91.5 41T369 211H110q0-79 34-118t92-39z"/><glyph glyph-name="uni025A" unicode="ɚ" horiz-adv-x="648" d="M249-12q-50 0-87.5 17t-64 45.5T56 117t-19 80l323 132q-17 53-53 78.5T223 433q-38 0-67-11.5T99 391l-30 57q34 23 73.5 36.5T232 498q71 0 122.5-36.5T431 358l81 33 44-17q2-29 6.5-46.5T573 300t14-13.5 19-3.5q12 0 22 4.5t18 10.5l22-43q-12-9-28.5-17t-37.5-8q-15 0-29.5 4.5t-27.5 16-23.5 30T506 326l-60-24q2-15 3.5-30.5T451 239q0-52-14.5-97.5T396 62 332.5 8 249-12zm-2 65q29 0 52.5 14t40 38.5 25 57T373 232q0 11-.5 20.5T371 271L113 166q10-54 46-83.5T247 53z"/><glyph glyph-name="uni025B" unicode="ɛ" horiz-adv-x="440" d="M249-12q-41 0-77.5 10T108 27 65.5 73 50 134q0 26 9 46.5T83 216t34.5 24.5T158 256v4q-40 14-61 43.5T76 367q0 33 14.5 58t38.5 41 56 24 68 8q44 0 79.5-12.5T400 450l-33-55q-27 17-53.5 27.5T255 433q-41 0-69-19t-28-57q0-33 27-54t86-21h55v-59h-70q-60 0-92-21t-32-61q0-41 35-64t91-23q33 0 63.5 10.5T384 98l35-55Q377 13 338 .5T249-12z"/><glyph glyph-name="uni025C" unicode="ɜ" horiz-adv-x="456" d="M210-12q-50 0-90 12.5T37 43l35 55q33-23 63-33.5T198 54q56 0 91 23t35 64q0 40-32 61t-92 21h-69v59h54q59 0 86 21t27 54q0 38-26 57t-67 19q-32 0-60.5-10.5T89 395l-33 55q33 23 71.5 35.5T211 498q34 0 65-8t54-24 36.5-41 13.5-58q0-34-21-63.5T298 260v-4q21-6 40.5-15.5T373 216t24-35.5 9-46.5q0-34-15.5-61t-42-46-62-29T210-12z"/><glyph glyph-name="uni025E" unicode="ɞ" horiz-adv-x="546" d="M259-12q-44 0-82.5 10T110 27 66 73t-16 61q0 26 9 46.5T83 216t34.5 24.5T158 256v4q-40 14-61 43.5T76 367q0 33 14 58t38.5 41 57 24 70.5 8q50 0 94.5-16t78-48 53-80T501 242q0-63-19-110.5T430.5 52 354 4t-95-16zm1 66q72 0 114 48t42 140q0 93-43 142t-116 49q-42 0-70.5-19T158 357q0-33 26-54t83-21h27v-59h-42q-58 0-89-21t-31-61q0-41 34.5-64T260 54z"/><glyph glyph-name="uni025F" unicode="ɟ" horiz-adv-x="270" d="M43-217q-23 0-41 4t-31 9l17 62q9-3 21-5.5t25-2.5q36 0 48 25t12 70v286H8v43l86 5v207h82V279h83v-48h-83V-55q0-74-30-118T43-217z"/><glyph glyph-name="uni0260" unicode="ɠ" horiz-adv-x="559" d="M259-216q-45 0-90.5 13.5T85-163l30 58q36-24 72.5-34.5T259-150q67 0 99.5 34.5T393-22l1 92q-28-27-64.5-46T250 5q-46 0-83 17t-63 48.5-40 77T50 250t17.5 103 46.5 78 67.5 49.5T261 498q42 0 72-15t62-41l-1 41q0 66 31.5 106t99.5 40q17 0 31-2.5t25-7.5l-16-63q-14 6-31 6-33 0-46-25t-13-67V-24q0-91-56-141.5T259-216zm9 289q34 0 63.5 16.5T393 140v238q-32 28-60.5 39.5T274 429q-29 0-54.5-13T175 379t-30-56.5-11-71.5q0-82 35-130t99-48z"/><glyph glyph-name="uni0261" unicode="ɡ" horiz-adv-x="559" d="M259-216q-45 0-90.5 13.5T85-163l30 58q36-24 72.5-34.5T259-150q67 0 99.5 34.5T393-22l1 92q-28-27-64.5-46T250 5q-46 0-83 17t-63 48.5-40 77T50 250t17.5 103 46.5 78 67.5 49.5T261 498q42 0 73.5-14.5T397 441h2l7 45h69V-24q0-91-56-141.5T259-216zm9 289q34 0 63.5 16.5T393 140v238q-32 28-60.5 39.5T274 429q-29 0-54.5-13T175 379t-30-56.5-11-71.5q0-82 35-130t99-48z"/><glyph glyph-name="uni0262" unicode="ɢ" horiz-adv-x="497" d="M280-12q-49 0-92 16.5t-74.5 49T64 134 46 244q0 59 18.5 106t51 80 76 50.5T285 498q57 0 93-18.5t62-41.5l-40-51q-21 18-46.5 32T289 433q-33 0-62.5-12.5t-51-37-34-59.5-12.5-80q0-90 43-140t115-50q27 0 50 8t38 22v119H267v59h181V49q-27-26-70.5-43.5T280-12z"/><glyph glyph-name="uni0263" unicode="ɣ" horiz-adv-x="467" d="M236-224q-54 0-82.5 32T125-108q0 35 15 71.5T181 52L12 486h85l92-259q11-33 22.5-61.5T234 105h4q11 32 22 60.5t22 61.5l92 259h81L289 53q13-26 23.5-48t18-41T342-72.5t4-35.5q0-52-28.5-84T236-224zm0 57q20 0 29.5 15t9.5 38q0 27-10 58.5T237 11h-4q-17-35-27-67.5T196-114q0-23 10-38t30-15z"/><glyph glyph-name="uni0264" unicode="ɤ" horiz-adv-x="511" d="M256-12q-85 0-129.5 44.5T82 155q0 55 33.5 108T199 363q-26 32-54 49.5T89 430t-47-14l-26 60q15 11 38 16.5t46 5.5q41 0 81-23.5t75-63.5q35 40 74.5 63.5T411 498q23 0 46-5.5t38-16.5l-26-60q-20 14-47 14-29 0-56.5-17.5T312 363q49-47 83-100t34-108q0-78-44-122.5T256-12zm0 68q48 0 71 29.5t23 71.5q0 44-27.5 87T256 324q-40-37-67-80t-27-87q0-42 23-71.5T256 56z"/><glyph glyph-name="uni0265" unicode="ɥ" horiz-adv-x="547" d="M382-205v174l5 106q-35-39-73.5-63T224-12q-78 0-113.5 48T75 178v308h83V189q0-69 21.5-99.5T249 59q38 0 68 19t65 63v345h83v-691h-83z"/><glyph glyph-name="uni0266" unicode="ɦ" horiz-adv-x="544" d="M82 0v537q0 42 10.5 76t31.5 59 52.5 38.5T251 724q22 0 43.5-4.5T333 708l-19-63q-27 12-55 12-48 0-70.5-32T164 536l-3-126q35 33 73 57t89 24q77 0 112.5-48T471 301V0h-82v290q0 69-22 99t-70 30q-38 0-67-18.5T164 345V0H82z"/><glyph glyph-name="uni0267" unicode="ɧ" horiz-adv-x="544" d="M338-183q-23 0-41 4t-30 9l16 63q9-3 21-6t25-3q36 0 48 25.5T389-20v310q0 69-22 99t-70 30q-38 0-67-18.5T164 345V0H82v537q0 42 10.5 76t31.5 59 52.5 38.5T251 724q22 0 43.5-4.5T333 708l-19-63q-27 12-55 12-48 0-70.5-32T164 536l-3-126q35 33 73 57t89 24q77 0 112.5-48T471 301V-21q0-74-30-118t-103-44z"/><glyph glyph-name="uni029C" unicode="ʜ" horiz-adv-x="562" d="M83 0v486h82V289h234v197h82V0h-82v216H165V0H83z"/><glyph glyph-name="uni0268" unicode="ɨ" horiz-adv-x="270" d="M8 231v43l86 5v207h82V279h83v-48h-83V0H94v231H8zm128 355q-24 0-40.5 15T79 639q0 24 16.5 38.5T136 692t40.5-14.5T193 639q0-23-16.5-38T136 586z"/><glyph glyph-name="uni026A" unicode="ɪ" horiz-adv-x="341" d="M46 0v67h84v352H46v67h249v-67h-83V67h83V0H46z"/><glyph glyph-name="uni029D" unicode="ʝ" horiz-adv-x="284" d="M242-274q-38 71-75 119-20-29-51.5-45.5T40-217q-29 0-52 9t-39 24-24.5 35-8.5 43q0 45 31.5 72.5T37-6q40 0 83-23v515h82V-23q0-34-6-64 58-58 110-157zM39-152q30 0 47.5 15.5T112-97Q72-65 36-65 10-65-3.5-76.5T-17-105q0-20 15.5-33.5T39-152zm122 738q-24 0-40.5 15T104 639q0 24 16.5 38.5T161 692t40.5-14.5T218 639q0-23-16.5-38T161 586z"/><glyph glyph-name="uni026C" unicode="ɬ" horiz-adv-x="302" d="M121 319q-66 0-96.5 24.5T-6 406q0 34 23 56.5T77 485q18 0 31-5.5t23-14.5v247h82V366h83v-47h-83V92q0-20 7-28t16-8h7.5l10.5 2 11-62q-8-4-19-6t-28-2q-47 0-67 28t-20 82v221h-10zm-10 47h20v6q0 11-2.5 23t-8 21.5-15 16T81 439q-18 0-26-10t-8-24q0-16 15.5-27.5T111 366z"/><glyph glyph-name="uni026D" unicode="ɭ" horiz-adv-x="255" d="M205-183q-68 0-95.5 41.5T82-28v740h82V-28q0-42 10.5-65t39.5-23q11 0 19.5 3t16.5 6l17-63q-11-5-26.5-9t-35.5-4z"/><glyph glyph-name="uni026E" unicode="ɮ" horiz-adv-x="577" d="M352-217q-36 0-65.5 6.5T233-193t-43 25-35 29l41 52q26-24 61-43t88-19q27 0 50.5 10.5t41 30 28 47T475 0q0 62-34.5 97T341 132q-21 0-33.5-4T278 116l-33 45 192 258H164V0H82v712h82V486h373v-44L349 189q48 5 87-7t66-37 41.5-62T558 2q0-53-17-93.5T495.5-160t-66-42.5T352-217z"/><glyph glyph-name="uni029F" unicode="ʟ" horiz-adv-x="411" d="M82 0v486h82V67h221V0H82z"/><glyph glyph-name="uni026F" unicode="ɯ" horiz-adv-x="829" d="M225-12q-75 0-111.5 48T77 178v308h82V189q0-69 22-99.5T250 59q55 0 121 75v352h83V189q0-69 21.5-99.5T544 59q54 0 122 75v352h82V0h-68l-7 70h-2q-32-34-70-58t-82-24q-56 0-87.5 25T385 81q-38-42-76.5-67.5T225-12z"/><glyph glyph-name="uni0270" unicode="ɰ" horiz-adv-x="829" d="M666-205v173l4 103q-35-38-72-60.5T519-12q-56 0-87.5 25T385 81q-38-42-76.5-67.5T225-12q-75 0-111.5 48T77 178v308h82V189q0-69 22-99.5T250 59q55 0 121 75v352h83V189q0-69 21.5-99.5T544 59q54 0 122 75v352h82v-691h-82z"/><glyph glyph-name="uni0271" unicode="ɱ" horiz-adv-x="829" d="M624-183q-21 0-38.5 4t-29.5 9l16 63q8-3 19.5-6t23.5-3q35 0 45.5 25.5T671-20v317q0 69-22 99.5T581 427q-55 0-122-75V0h-82v297q0 69-22 99.5T286 427q-55 0-122-75V0H82v486h68l7-70h3q32 35 69.5 58.5T311 498q56 0 87.5-24.5T445 405q38 42 76.5 67.5T605 498q75 0 111.5-48T753 308V-21q0-74-29.5-118T624-183z"/><glyph glyph-name="uni0272" unicode="ɲ" horiz-adv-x="547" d="M41-183q-19 0-35 4t-26 9l16 63q8-3 16.5-6t19.5-3q29 0 39.5 23T82-28v514h70l5-70h3q35 35 73.5 58.5T323 498q77 0 112.5-48T471 308V0h-82v297q0 69-22 99.5T297 427q-38 0-67-19t-66-56V-28q0-72-27.5-113.5T41-183z"/><glyph glyph-name="uni0273" unicode="ɳ" horiz-adv-x="547" d="M512-183q-68 0-95.5 41.5T389-28v325q0 69-22 99.5T297 427q-38 0-67-19t-66-56V0H82v486h68l7-70h3q35 35 73.5 58.5T323 498q77 0 112.5-48T471 308V-28q0-42 10.5-65t39.5-23q11 0 19.5 3t16.5 6l16-63q-10-5-26-9t-35-4z"/><glyph glyph-name="uni0274" unicode="ɴ" horiz-adv-x="543" d="M82 0v486h78l169-275q14-23 29-52t29-52h4q-3 48-5.5 93t-2.5 84v202h78V0h-77L213 275q-14 22-29 51.5T156 379h-4q3-48 5.5-93t2.5-84V0H82z"/><glyph glyph-name="uni0275" unicode="ɵ" horiz-adv-x="542" d="M271-12q-45 0-86 16t-72 48-49 79.5T46 242t18 111 49 80.5 72 48.5 86 16 86-16 72-48.5 49-80.5 18-111-18-110.5T429 52 357 4t-86-16zm0 446q-58 0-97-40t-48-112h291q-9 72-48 112t-98 40zm0-381q63 0 102.5 44.5T418 223H125q5-81 44.5-125.5T271 53z"/><glyph glyph-name="uni0276" unicode="ɶ" horiz-adv-x="699" d="M287-12q-50 0-93.5 16.5T117 53t-52 79.5T46 243t19 110.5 52 79.5 76.5 48.5T287 498q25 0 48.5-2t53.5-10h280v-63H440V282h192v-59H440V63h239V0H389q-29-8-53-10t-49-2zm5 67q15 0 32.5 3.5T358 67v351q-16 5-33.5 8.5T292 430q-33 0-62.5-11.5t-51-35-34-58.5-12.5-82q0-48 12.5-83.5t34-58.5 51-34.5T292 55z"/><glyph glyph-name="uni0278" unicode="ɸ" horiz-adv-x="680" d="M131 244q0-44 13.5-78.5T181 107t54.5-38T302 54v378q-35-2-66.5-15T181 380t-36.5-58.5T131 244zm418 0q0 87-47.5 136T378 432V54q36 1 67 15t54 38 36.5 58.5T549 244zM302-205V-9q-50 1-96 18.5t-81.5 50-57 78.5T46 244q0 59 21.5 105t57 78 81.5 49 96 19v217h76V495q51-2 97-19t81.5-49 56.5-78 21-105q0-60-21.5-106t-57-78.5-82-50T378-9v-196h-76z"/><glyph glyph-name="uni0279" unicode="ɹ" horiz-adv-x="347" d="M49-12Q20-12-3-2l16 72q13-4 23-6t24-2q31 0 64.5 25t58.5 87v312h82V0h-68l-7 89h-2q-26-47-61.5-74T49-12z"/><glyph glyph-name="uni027A" unicode="ɺ" horiz-adv-x="347" d="M49-12Q20-12-3-2l16 72q13-4 23-6t24-2q31 0 64.5 25t58.5 87v538h82V0h-68l-7 89h-2q-26-47-61.5-74T49-12z"/><glyph glyph-name="uni027B" unicode="ɻ" horiz-adv-x="347" d="M306-183q-63 0-89.5 38T190-38V89h-2q-26-47-61.5-74T49-12Q20-12-3-2l16 72q13-4 23-6t24-2q31 0 64.5 25t58.5 87v312h82V-28q0-42 10.5-65t39.5-23q11 0 19.5 3t16.5 6l17-63q-11-5-27-9t-35-4z"/><glyph glyph-name="uni027D" unicode="ɽ" horiz-adv-x="347" d="M205-183q-68 0-95.5 41.5T82-28v514h68l7-88h3q25 46 60.5 73t77.5 27q29 0 52-10l-16-72q-12 4-22 6t-25 2q-31 0-64.5-25T164 312V-28q0-42 10.5-65t39.5-23q11 0 19.5 3t16.5 6l17-63q-11-5-26.5-9t-35.5-4z"/><glyph glyph-name="uni027E" unicode="ɾ" horiz-adv-x="334" d="M82 0v314q0 86 44.5 135T251 498q52 0 85-14l-15-69q-17 7-29.5 9t-32.5 2q-18 0-35.5-8T193 394t-21-40.5-8-56.5V0H82z"/><glyph glyph-name="uni0280" unicode="ʀ" horiz-adv-x="495" d="M82 0v486h172q39 0 73-7.5t58.5-24.5 38.5-44.5 14-67.5q0-58-30.5-92T332 202L463 0h-91L255 192h-91V0H82zm82 252h76q55 0 85.5 22.5T356 340t-30.5 62.5T240 422h-76V252z"/><glyph glyph-name="uni0281" unicode="ʁ" horiz-adv-x="495" d="M241 0q-39 0-73 7.5t-58.5 25-38.5 45T57 145q0 59 30.5 93t75.5 48L32 486h92l116-189h91v189h82V0H241zm14 64h76v173h-76q-54 0-84.5-23.5T140 147t30.5-63T255 64z"/><glyph glyph-name="uni0282" unicode="ʂ" horiz-adv-x="419" d="M209-12q-56 0-107 20v-28q0-45 12-71t49-26q13 0 24.5 2.5T209-109l16-61q-13-5-30.5-9t-40.5-4q-68 0-97 44T28-21v69l41 54q32-23 65.5-36.5T212 52q48 0 72 22t24 54q0 19-10 33t-25.5 24.5T237 204l-40 16q-26 9-52 20.5t-46.5 28T65 307t-13 53q0 29 11.5 54.5t33 44 52.5 29 70 10.5q46 0 84.5-16t66.5-39l-39-52q-25 19-52 31t-59 12q-46 0-67.5-21T131 364q0-17 9-29.5t24-22 34.5-17T239 280q26-10 52.5-21t47.5-27.5 34.5-40.5 13.5-58q0-30-11.5-56t-34-46-56-31.5T209-12z"/><glyph glyph-name="uni0283" unicode="ʃ" horiz-adv-x="247" d="M32-217q-23 0-41 4t-31 9l17 62q9-3 21-5.5t25-2.5q36 0 48 25t12 70v619q0 75 32.5 118.5T226 726q20 0 35-4t26-9l-16-63q-8 3-16.5 6t-19.5 3q-42 0-56-25.5T165 563V-55q0-74-30-118T32-217z"/><glyph glyph-name="uni0284" unicode="ʄ" horiz-adv-x="270" d="M43-217q-23 0-41 4t-31 9l17 62q9-3 21-5.5t25-2.5q36 0 48 25t12 70v286H8v43l86 5v285q0 75 32.5 118.5T237 726q20 0 35-4t26-9l-16-63q-8 3-16.5 6t-19.5 3q-42 0-56-25.5T176 563V279h83v-48h-83V-55q0-74-30-118T43-217z"/><glyph glyph-name="uni0288" unicode="ʈ" horiz-adv-x="338" d="M235-184q-39 0-65.5 11.5t-43 33T103-88t-7 66v441H24v62l76 5 10 136h69V486h131v-67H179V-23q0-45 16.5-69.5T254-117q13 0 28 4t27 9l16-62q-20-7-43.5-12.5T235-184z"/><glyph glyph-name="uni0289" unicode="ʉ" horiz-adv-x="575" d="M8 262v43l86 5v176h83V310h222v176h82V310h82v-48h-82V0h-68l-7 76h-3q-34-40-71.5-64T243-12q-78 0-113.5 48T94 178v84H8zM268 59q38 0 67 19.5t64 62.5v121H177v-73q0-69 21.5-99.5T268 59z"/><glyph glyph-name="uni028A" unicode="ʊ" horiz-adv-x="541" d="M271-12q-53 0-94.5 18.5t-70 49.5-43 71T49 209q0 37 7.5 68.5T76 335t27.5 46.5T135 417v2H37v67h186v-53q-41-34-66-84t-25-122q0-35 9-66t26-54 43-37 61-14q34 0 60 14t43 37 26 54 9 66q0 72-25 122t-65 84v53h185v-67h-98v-2q16-15 31.5-35.5t28-46.5 20-57.5T493 209q0-42-15-82t-43.5-71T365 6.5 271-12z"/><glyph glyph-name="uni028B" unicode="ʋ" horiz-adv-x="530" d="M262-12q-41 0-75 12.5t-59 39T89 106t-14 96v284h83V209q0-41 8.5-70T189 91.5t33.5-27T265 56q31 0 55.5 16.5t41 46 25 69T395 274q0 78-19 118t-60 40q-13 0-28-6l-13 64q23 8 58 8 68 0 107.5-51.5T480 286q0-64-14-118.5T424.5 73t-68-62.5T262-12z"/><glyph glyph-name="uni028C" unicode="ʌ" horiz-adv-x="467" d="M12 0l172 486h96L455 0h-85l-92 276q-11 36-22.5 72.5T233 420h-4q-11-35-22.5-71.5T184 276L93 0H12z"/><glyph glyph-name="uni028D" unicode="ʍ" horiz-adv-x="718" d="M24 0l130 486h101l70-261q8-35 16-69t17-71h4q8 37 15.5 71.5T395 226l68 260h96L694 0h-84l-72 281q-8 35-14.5 68T509 416h-4q-15-68-33-135L397 0h-80l-76 281q-9 35-17 68t-17 67h-4q-8-34-15-67t-15-68L102 0H24z"/><glyph glyph-name="uni028E" unicode="ʎ" horiz-adv-x="467" d="M12 0l194 555q13 36 29 67t38 53.5 50 35.5 65 13q17 0 31-2.5t26-7.5l-16-65-18 4.5-19 2.5q-42 0-68.5-29.5T282 552l-22-65L455 0h-84L271 269q-11 32-23 67.5T224 406h-4q-11-33-21-69t-20-68L93 0H12z"/><glyph glyph-name="uni028F" unicode="ʏ" horiz-adv-x="415" d="M167 0v164L-1 486h88l66-138q13-29 26.5-56t27.5-56h4q14 29 26.5 56t25.5 56l66 138h87L249 164V0h-82z"/><glyph glyph-name="uni0290" unicode="ʐ" horiz-adv-x="425" d="M431-183q-67 0-95.5 40.5T307-36V0H31v44l256 375H59v67h332v-44L135 67h254v-95q0-42 11-65t40-23q10 0 19 3t17 6l16-63q-11-5-26.5-9t-34.5-4z"/><glyph glyph-name="uni0291" unicode="ʑ" horiz-adv-x="449" d="M238-81l-48 10q8 39 18 71H31v44l256 375H59v67h327v-44L131 67q25-1 49-1.5t49-1.5q28 71 63.5 109.5T372 212q43 0 67-23.5t24-68.5q0-25-9.5-46.5t-28.5-38-48-26T308 0h-51q-5-18-9.5-38T238-81zm91 144q40 0 61 18t21 41q0 17-9.5 28.5T370 162q-23 0-46.5-24T279 63h50z"/><glyph glyph-name="uni0292" unicode="ʒ" horiz-adv-x="425" d="M200-217q-36 0-65.5 6.5T81-193t-43 25-35 29l41 52q26-24 61-43t88-19q27 0 50.5 10.5t41 30 28 47T323 0q0 62-34.5 97T189 132q-21 0-33.5-4T126 116l-33 45 192 258H44v67h341v-44L197 189q48 5 87-7t66-37 41.5-62T406 2q0-53-17-93.5T343.5-160t-66-42.5T200-217z"/><glyph glyph-name="uni0294" unicode="ʔ" horiz-adv-x="417" d="M146 0v324q87 50 127.5 96.5T314 530q0 58-33 92t-93 34q-51 0-86-22t-60-51l-44 54q15 16 34.5 32T76 697t53.5 19.5T194 724q42 0 79-12t64.5-36 43.5-60 16-84q0-43-12.5-77t-35-63.5T296 337t-68-50V0h-82z"/><glyph glyph-name="uni0295" unicode="ʕ" horiz-adv-x="443" d="M200 0v287q-37 25-68 50t-53.5 54.5-35 63.5T31 532q0 48 16.5 84T93 676t68 36 83 12q33 0 61-7.5t51-19.5 41-28 33-32l-44-54q-23 28-56 50.5T250 656q-65 0-100.5-34T114 530q0-63 40.5-109.5T282 324V0h-82z"/><glyph glyph-name="uni02A1" unicode="ʡ" horiz-adv-x="441" d="M158 0v257H7v62l76 5h89q81 51 118.5 100.5T328 530q0 58-32.5 92T203 656q-51 0-86-22t-60-51l-44 54q15 16 34.5 32T91 697t53 19.5 65 7.5q42 0 79-12t64.5-36 43.5-60 16-84q0-64-38-115t-96-93h144v-67H240V0h-82z"/><glyph glyph-name="uni02A2" unicode="ʢ" horiz-adv-x="441" d="M200 0v257H19v67h144q-58 42-96 93T29 532q0 48 16.5 84T91 676t67.5 36 83.5 12q33 0 61-7.5t50.5-19.5 41-28 33.5-32l-44-54q-23 28-56 50.5T248 656q-65 0-100.5-34T112 530q0-56 38-105.5T269 324h89l76-5v-62H282V0h-82z"/><glyph glyph-name="uni01C2" unicode="ǂ" horiz-adv-x="288" d="M6 331v43l77 4h37v372h58V378h103v-47H178V208h103v-47H178v-411h-58v411H6v42l77 5h37v123H6z"/><glyph glyph-name="uni0298" unicode="ʘ" horiz-adv-x="525" d="M263-12q-47 0-84.5 22t-64 67.5-41 115.5T59 359q0 180 55 272.5T263 724q93 0 148-93.5T466 359q0-96-14.5-166T411 77.5 347 10t-84-22zm0 68q26 0 49 16t40 52 26.5 93.5T388 359q0 76-9.5 132T352 584t-40 54.5-49 17.5q-27 0-50-17.5T173 584t-26.5-93-9.5-132q0-84 9.5-141.5T173 124t40-52 50-16zm0 256q-20 0-34 13.5T215 359q0 21 14 34t34 13q19 0 33-13t14-34q0-20-14-33.5T263 312z"/><glyph glyph-name="f_f_i" unicode="ﬃ" horiz-adv-x="823" d="M381 0v419H178V0H96v419H30v62l66 5v64q0 76 37.5 120T247 714q24 0 47.5-5t41.5-13l-17-62q-30 13-65 13-36 0-56-25.5T178 548v-62h203v77q0 75 34.5 118T523 724q23 0 43.5-4.5T604 708l-18-63q-27 12-55 12-68 0-68-94v-77h103v-67H463V0h-82zm278 0v486h82V0h-82zm42 586q-24 0-40.5 15T644 639q0 24 16.5 38.5T701 692t40.5-14.5T758 639q0-23-16.5-38T701 586z"/><glyph glyph-name="f_f_l" unicode="ﬄ" horiz-adv-x="832" d="M381 0v419H178V0H96v419H30v62l66 5v64q0 76 37.5 120T247 714q24 0 47.5-5t41.5-13l-17-62q-30 13-65 13-36 0-56-25.5T178 548v-62h203v77q0 75 34.5 118T523 724q23 0 43.5-4.5T604 708l-18-63q-27 12-55 12-68 0-68-94v-77h103v-67H463V0h-82zm365-12q-47 0-67 28t-20 82v614h82V92q0-20 7-28t16-8h7.5l10.5 2 11-62q-8-4-19-6t-28-2z"/><glyph glyph-name="I.a" horiz-adv-x="343" d="M46 0v71h84v515H46v70h250v-70h-83V71h83V0H46z"/><glyph glyph-name="Igrave.a" horiz-adv-x="343" d="M46 0v71h84v515H46v70h250v-70h-83V71h83V0H46zm143 697L37 812l47 55 142-128z"/><glyph glyph-name="Iacute.a" horiz-adv-x="343" d="M46 0v71h84v515H46v70h250v-70h-83V71h83V0H46zm109 697l-37 42 142 128 47-55z"/><glyph glyph-name="Icircumflex.a" horiz-adv-x="343" d="M46 0v71h84v515H46v70h250v-70h-83V71h83V0H46zM24 725l105 113h86l105-113-36-26-110 93h-4L60 699z"/><glyph glyph-name="Itilde.a" horiz-adv-x="343" d="M46 0v71h84v515H46v70h250v-70h-83V71h83V0H46zm201 709q-28 0-48 11t-36.5 24.5-31 24.5T99 780q-19 0-32-17t-16-49l-56 4q3 57 30 90t72 33q28 0 48-11t36.5-24.5 31-24.5 32.5-11q40 0 48 66l56-4q-3-58-30-90.5T247 709z"/><glyph glyph-name="Idieresis.a" horiz-adv-x="343" d="M46 0v71h84v515H46v70h250v-70h-83V71h83V0H46zm23 715q-21 0-35 14t-14 35q0 22 14 35.5T69 813q22 0 35.5-13.5T118 764q0-21-13.5-35T69 715zm206 0q-22 0-35.5 14T226 764q0 22 13.5 35.5T275 813q21 0 35-13.5t14-35.5q0-21-14-35t-35-14z"/><glyph glyph-name="Imacron.a" horiz-adv-x="343" d="M46 0v71h84v515H46v70h250v-70h-83V71h83V0H46zm-8 735v57h268v-57H38z"/><glyph glyph-name="Idotaccent.a" horiz-adv-x="343" d="M46 0v71h84v515H46v70h250v-70h-83V71h83V0H46zm126 714q-24 0-40.5 15T115 768q0 23 16.5 38t40.5 15 40.5-15 16.5-38q0-24-16.5-39T172 714z"/><glyph glyph-name="uni01CF.a" horiz-adv-x="343" d="M46 0v71h84v515H46v70h250v-70h-83V71h83V0H46zm83 706L24 819l36 26 110-92h4l110 92 36-26-105-113h-86z"/><glyph glyph-name="uni1EC8.a" horiz-adv-x="343" d="M46 0v71h84v515H46v70h250v-70h-83V71h83V0H46zm94 698l-9 38q24 7 40 17t16 29q0 39-83 42l9 48q66-2 102-22.5t36-58.5q0-22-9-37.5t-24.5-27-35.5-18-42-10.5z"/><glyph glyph-name="uni1ECA.a" horiz-adv-x="343" d="M46 0v71h84v515H46v70h250v-70h-83V71h83V0H46zm127-205q-23 0-38.5 15T119-151q0 23 15.5 38.5T173-97t38.5-15.5T227-151q0-24-15.5-39T173-205z"/><glyph glyph-name="Iogonek.a" horiz-adv-x="343" d="M177-212q-39 0-67 22t-28 65q0 41 22 73t46 52H46v71h84v515H46v70h250v-70h-83V71h83V0h-87q-29-23-46-50.5T146-107q0-23 15-34.5t33-11.5q12 0 21.5 3.5T234-139l23-45q-14-11-37-19.5t-43-8.5z"/><glyph glyph-name="uni012C.a" horiz-adv-x="343" d="M46 0v71h84v515H46v70h250v-70h-83V71h83V0H46zm126 705q-35 0-61 10.5t-44 28-28 41T26 834l50 8q6-35 29.5-59.5T172 758t66.5 24.5T268 842l50-8q-3-26-13-49.5t-28-41-44-28-61-10.5z"/><glyph glyph-name="uni014A.a" horiz-adv-x="647" d="M425-165q-22 0-40 3.5t-31 8.5l16 66q10-3 21.5-6t24.5-3q37 0 48.5 26T476 0h-5L233 413l-71 135h-4q4-50 7.5-101.5T169 343V0H90v656h86l237-412 71-136h4q-3 50-6.5 103.5T478 317v339h79V-3q0-75-30.5-118.5T425-165z"/><glyph glyph-name="a.a" horiz-adv-x="555" d="M248-12q-92 0-146.5 66T47 242q0 59 17.5 106.5t47 80.5 67.5 51 80 18q41 0 73-15t65-44h2l7 47h67V0h-68l-7 57h-3q-29-28-66.5-48.5T248-12zm18 69q34 0 64 16.5t60 50.5v254q-31 28-59.5 39.5T272 429q-29 0-54.5-13.5t-44.5-38-30-58.5-11-76q0-88 35-137t99-49z"/><glyph glyph-name="agrave.a" horiz-adv-x="555" d="M248-12q-92 0-146.5 66T47 242q0 59 17.5 106.5t47 80.5 67.5 51 80 18q41 0 73-15t65-44h2l7 47h67V0h-68l-7 57h-3q-29-28-66.5-48.5T248-12zm18 69q34 0 64 16.5t60 50.5v254q-31 28-59.5 39.5T272 429q-29 0-54.5-13.5t-44.5-38-30-58.5-11-76q0-88 35-137t99-49zm30 516L139 726l58 55 141-167z"/><glyph glyph-name="aacute.a" horiz-adv-x="555" d="M248-12q-92 0-146.5 66T47 242q0 59 17.5 106.5t47 80.5 67.5 51 80 18q41 0 73-15t65-44h2l7 47h67V0h-68l-7 57h-3q-29-28-66.5-48.5T248-12zm18 69q34 0 64 16.5t60 50.5v254q-31 28-59.5 39.5T272 429q-29 0-54.5-13.5t-44.5-38-30-58.5-11-76q0-88 35-137t99-49zm2 516l-42 41 141 167 58-55z"/><glyph glyph-name="acircumflex.a" horiz-adv-x="555" d="M248-12q-92 0-146.5 66T47 242q0 59 17.5 106.5t47 80.5 67.5 51 80 18q41 0 73-15t65-44h2l7 47h67V0h-68l-7 57h-3q-29-28-66.5-48.5T248-12zm18 69q34 0 64 16.5t60 50.5v254q-31 28-59.5 39.5T272 429q-29 0-54.5-13.5t-44.5-38-30-58.5-11-76q0-88 35-137t99-49zM127 600l114 140h82l114-140-35-32-118 113h-4L162 568z"/><glyph glyph-name="atilde.a" horiz-adv-x="555" d="M248-12q-92 0-146.5 66T47 242q0 59 17.5 106.5t47 80.5 67.5 51 80 18q41 0 73-15t65-44h2l7 47h67V0h-68l-7 57h-3q-29-28-66.5-48.5T248-12zm18 69q34 0 64 16.5t60 50.5v254q-31 28-59.5 39.5T272 429q-29 0-54.5-13.5t-44.5-38-30-58.5-11-76q0-88 35-137t99-49zm88 520q-27 0-46 13t-35 29-30.5 29-31.5 13q-23 0-34-22t-13-57l-55 3q1 29 7.5 54t18.5 43 30.5 28.5T210 721q27 0 46-13t35-29 30.5-29 32.5-13q22 0 33 22t13 57l55-4q-1-29-7.5-53.5T429 616t-30.5-28.5T354 577z"/><glyph glyph-name="adieresis.a" horiz-adv-x="555" d="M248-12q-92 0-146.5 66T47 242q0 59 17.5 106.5t47 80.5 67.5 51 80 18q41 0 73-15t65-44h2l7 47h67V0h-68l-7 57h-3q-29-28-66.5-48.5T248-12zm18 69q34 0 64 16.5t60 50.5v254q-31 28-59.5 39.5T272 429q-29 0-54.5-13.5t-44.5-38-30-58.5-11-76q0-88 35-137t99-49zm-80 530q-22 0-36 14.5T136 637t14 35.5 36 14.5q21 0 35-14.5t14-35.5-14-35.5-35-14.5zm192 0q-21 0-35 14.5T329 637t14 35.5 35 14.5q22 0 36-14.5t14-35.5-14-35.5-36-14.5z"/><glyph glyph-name="amacron.a" horiz-adv-x="555" d="M248-12q-92 0-146.5 66T47 242q0 59 17.5 106.5t47 80.5 67.5 51 80 18q41 0 73-15t65-44h2l7 47h67V0h-68l-7 57h-3q-29-28-66.5-48.5T248-12zm18 69q34 0 64 16.5t60 50.5v254q-31 28-59.5 39.5T272 429q-29 0-54.5-13.5t-44.5-38-30-58.5-11-76q0-88 35-137t99-49zM149 601v57h266v-57H149z"/><glyph glyph-name="abreve.a" horiz-adv-x="555" d="M248-12q-92 0-146.5 66T47 242q0 59 17.5 106.5t47 80.5 67.5 51 80 18q41 0 73-15t65-44h2l7 47h67V0h-68l-7 57h-3q-29-28-66.5-48.5T248-12zm18 69q34 0 64 16.5t60 50.5v254q-31 28-59.5 39.5T272 429q-29 0-54.5-13.5t-44.5-38-30-58.5-11-76q0-88 35-137t99-49zm16 514q-40 0-69 13t-47.5 34.5-28 48.5-11.5 55l51 8q3-19 10.5-37.5T208 659t31.5-24 42.5-9 42.5 9 31.5 24 20.5 33.5T387 730l51-8q-2-28-11.5-55T398 618.5 350.5 584 282 571z"/><glyph glyph-name="aring.a" horiz-adv-x="555" d="M248-12q-92 0-146.5 66T47 242q0 59 17.5 106.5t47 80.5 67.5 51 80 18q41 0 73-15t65-44h2l7 47h67V0h-68l-7 57h-3q-29-28-66.5-48.5T248-12zm18 69q34 0 64 16.5t60 50.5v254q-31 28-59.5 39.5T272 429q-29 0-54.5-13.5t-44.5-38-30-58.5-11-76q0-88 35-137t99-49zm16 497q-51 0-80.5 28T172 653q0 42 29.5 70t80.5 28 80.5-28 29.5-70q0-43-29.5-71T282 554zm0 37q24 0 40.5 16.5T339 653q0 28-16.5 44.5T282 714t-40.5-16.5T225 653q0-29 16.5-45.5T282 591z"/><glyph glyph-name="uni01CE.a" horiz-adv-x="555" d="M248-12q-92 0-146.5 66T47 242q0 59 17.5 106.5t47 80.5 67.5 51 80 18q41 0 73-15t65-44h2l7 47h67V0h-68l-7 57h-3q-29-28-66.5-48.5T248-12zm18 69q34 0 64 16.5t60 50.5v254q-31 28-59.5 39.5T272 429q-29 0-54.5-13.5t-44.5-38-30-58.5-11-76q0-88 35-137t99-49zm-25 517L127 714l35 32 118-113h4l118 113 35-32-114-140h-82z"/><glyph glyph-name="uni1EA1.a" horiz-adv-x="555" d="M248-12q-92 0-146.5 66T47 242q0 59 17.5 106.5t47 80.5 67.5 51 80 18q41 0 73-15t65-44h2l7 47h67V0h-68l-7 57h-3q-29-28-66.5-48.5T248-12zm18 69q34 0 64 16.5t60 50.5v254q-31 28-59.5 39.5T272 429q-29 0-54.5-13.5t-44.5-38-30-58.5-11-76q0-88 35-137t99-49zm18-262q-23 0-38.5 15T230-151q0 23 15.5 38.5T284-97t38.5-15.5T338-151q0-24-15.5-39T284-205z"/><glyph glyph-name="uni1EA3.a" horiz-adv-x="555" d="M248-12q-92 0-146.5 66T47 242q0 59 17.5 106.5t47 80.5 67.5 51 80 18q41 0 73-15t65-44h2l7 47h67V0h-68l-7 57h-3q-29-28-66.5-48.5T248-12zm18 69q34 0 64 16.5t60 50.5v254q-31 28-59.5 39.5T272 429q-29 0-54.5-13.5t-44.5-38-30-58.5-11-76q0-88 35-137t99-49zm-16 515l-9 40q24 6 40 16.5t16 30.5q0 43-83 47l5 54q69-2 106-25.5t37-68.5q0-22-9.5-37.5t-25-27T292 583t-42-11z"/><glyph glyph-name="uni1EA5.a" horiz-adv-x="555" d="M248-12q-92 0-146.5 66T47 242q0 59 17.5 106.5t47 80.5 67.5 51 80 18q41 0 73-15t65-44h2l7 47h67V0h-68l-7 57h-3q-29-28-66.5-48.5T248-12zm18 69q34 0 64 16.5t60 50.5v254q-31 28-59.5 39.5T272 429q-29 0-54.5-13.5t-44.5-38-30-58.5-11-76q0-88 35-137t99-49zm-89 513l-29 34 100 92h68l100-92-29-34-103 72h-4zm204 95l87 120 49-34-101-114z"/><glyph glyph-name="uni1EA7.a" horiz-adv-x="555" d="M248-12q-92 0-146.5 66T47 242q0 59 17.5 106.5t47 80.5 67.5 51 80 18q41 0 73-15t65-44h2l7 47h67V0h-68l-7 57h-3q-29-28-66.5-48.5T248-12zm18 69q34 0 64 16.5t60 50.5v254q-31 28-59.5 39.5T272 429q-29 0-54.5-13.5t-44.5-38-30-58.5-11-76q0-88 35-137t99-49zm-89 513l-29 34 100 92h68l100-92-29-34-103 72h-4zm6 98l-35-31L35 749l48 36z"/><glyph glyph-name="uni1EA9.a" horiz-adv-x="555" d="M248-12q-92 0-146.5 66T47 242q0 59 17.5 106.5t47 80.5 67.5 51 80 18q41 0 73-15t65-44h2l7 47h67V0h-68l-7 57h-3q-29-28-66.5-48.5T248-12zm18 69q34 0 64 16.5t60 50.5v254q-31 28-59.5 39.5T272 429q-29 0-54.5-13.5t-44.5-38-30-58.5-11-76q0-88 35-137t99-49zm-89 513l-29 34 100 92h68l100-92-29-34-103 72h-4zm221 65l-9 35q19 5 30.5 14t11.5 25q0 20-16 29.5T362 750l7 41q59-2 90.5-20t31.5-53q0-20-8-34t-21-23.5-29.5-15.5-34.5-10z"/><glyph glyph-name="uni1EAB.a" horiz-adv-x="555" d="M248-12q-92 0-146.5 66T47 242q0 59 17.5 106.5t47 80.5 67.5 51 80 18q41 0 73-15t65-44h2l7 47h67V0h-68l-7 57h-3q-29-28-66.5-48.5T248-12zm18 69q34 0 64 16.5t60 50.5v254q-31 28-59.5 39.5T272 429q-29 0-54.5-13.5t-44.5-38-30-58.5-11-76q0-88 35-137t99-49zm-89 513l-29 34 100 88h68l100-88-29-34-103 69h-4zm-32 144q4 39 20.5 64t51.5 25q22 0 39-6.5t31.5-14.5 28-14.5T343 761q15 0 22 10t11 32l43-4q-4-38-20.5-63.5T347 710q-22 0-39 6.5T276.5 731t-28 14.5T221 752q-15 0-22-10t-11-32z"/><glyph glyph-name="uni1EAD.a" horiz-adv-x="555" d="M248-12q-92 0-146.5 66T47 242q0 59 17.5 106.5t47 80.5 67.5 51 80 18q41 0 73-15t65-44h2l7 47h67V0h-68l-7 57h-3q-29-28-66.5-48.5T248-12zm18 69q34 0 64 16.5t60 50.5v254q-31 28-59.5 39.5T272 429q-29 0-54.5-13.5t-44.5-38-30-58.5-11-76q0-88 35-137t99-49zM127 600l114 140h82l114-140-35-32-118 113h-4L162 568zm157-805q-23 0-38.5 15T230-151q0 23 15.5 38.5T284-97t38.5-15.5T338-151q0-24-15.5-39T284-205z"/><glyph glyph-name="uni1EAF.a" horiz-adv-x="555" d="M248-12q-92 0-146.5 66T47 242q0 59 17.5 106.5t47 80.5 67.5 51 80 18q41 0 73-15t65-44h2l7 47h67V0h-68l-7 57h-3q-29-28-66.5-48.5T248-12zm18 69q34 0 64 16.5t60 50.5v254q-31 28-59.5 39.5T272 429q-29 0-54.5-13.5t-44.5-38-30-58.5-11-76q0-88 35-137t99-49zm11 622l-39 29 88 124 52-40zm5-108q-40 0-69 13t-47.5 34.5-28 48.5-11.5 55l48 8q3-20 10.5-39.5t21-34.5 32.5-24.5 44-9.5 44 9.5 32.5 24.5 21 34.5T390 730l48-8q-2-28-11.5-55T398 618.5 350.5 584 282 571z"/><glyph glyph-name="uni1EB1.a" horiz-adv-x="555" d="M248-12q-92 0-146.5 66T47 242q0 59 17.5 106.5t47 80.5 67.5 51 80 18q41 0 73-15t65-44h2l7 47h67V0h-68l-7 57h-3q-29-28-66.5-48.5T248-12zm18 69q34 0 64 16.5t60 50.5v254q-31 28-59.5 39.5T272 429q-29 0-54.5-13.5t-44.5-38-30-58.5-11-76q0-88 35-137t99-49zm21 622L186 792l52 40 88-124zm-5-108q-40 0-69 13t-47.5 34.5-28 48.5-11.5 55l48 8q3-20 10.5-39.5t21-34.5 32.5-24.5 44-9.5 44 9.5 32.5 24.5 21 34.5T390 730l48-8q-2-28-11.5-55T398 618.5 350.5 584 282 571z"/><glyph glyph-name="uni1EB3.a" horiz-adv-x="555" d="M248-12q-92 0-146.5 66T47 242q0 59 17.5 106.5t47 80.5 67.5 51 80 18q41 0 73-15t65-44h2l7 47h67V0h-68l-7 57h-3q-29-28-66.5-48.5T248-12zm18 69q34 0 64 16.5t60 50.5v254q-31 28-59.5 39.5T272 429q-29 0-54.5-13.5t-44.5-38-30-58.5-11-76q0-88 35-137t99-49zm-11 625l-8 36q21 5 34.5 14t13.5 25q0 20-17.5 29.5T219 798l7 50q61-2 95-22t34-60q0-20-8.5-34.5T324 707t-32-16-37-9zm27-111q-40 0-69 13t-47.5 34.5-28 48.5-11.5 55l48 8q3-20 10.5-39.5t21-34.5 32.5-24.5 44-9.5 44 9.5 32.5 24.5 21 34.5T390 730l48-8q-2-28-11.5-55T398 618.5 350.5 584 282 571z"/><glyph glyph-name="uni1EB5.a" horiz-adv-x="555" d="M248-12q-92 0-146.5 66T47 242q0 59 17.5 106.5t47 80.5 67.5 51 80 18q41 0 73-15t65-44h2l7 47h67V0h-68l-7 57h-3q-29-28-66.5-48.5T248-12zm18 69q34 0 64 16.5t60 50.5v254q-31 28-59.5 39.5T272 429q-29 0-54.5-13.5t-44.5-38-30-58.5-11-76q0-88 35-137t99-49zm16 514q-37 0-63 9.5t-43.5 25T149 640t-11 38l47 8q4-25 27-46.5t70-21.5 70 21.5 27 46.5l47-8q-2-19-11-38t-26.5-34.5-43.5-25-63-9.5zM141 714q4 38 21.5 63t54.5 25q22 0 39-6.5t31.5-14.5 28-14.5T343 760q15 0 22 10.5t11 31.5l47-4q-4-38-21.5-63T347 710q-22 0-39 6.5T276.5 731t-28 14.5T221 752q-15 0-22-10.5T188 709z"/><glyph glyph-name="uni1EB7.a" horiz-adv-x="555" d="M248-12q-92 0-146.5 66T47 242q0 59 17.5 106.5t47 80.5 67.5 51 80 18q41 0 73-15t65-44h2l7 47h67V0h-68l-7 57h-3q-29-28-66.5-48.5T248-12zm18 69q34 0 64 16.5t60 50.5v254q-31 28-59.5 39.5T272 429q-29 0-54.5-13.5t-44.5-38-30-58.5-11-76q0-88 35-137t99-49zm16 514q-40 0-69 13t-47.5 34.5-28 48.5-11.5 55l51 8q3-19 10.5-37.5T208 659t31.5-24 42.5-9 42.5 9 31.5 24 20.5 33.5T387 730l51-8q-2-28-11.5-55T398 618.5 350.5 584 282 571zm2-776q-23 0-38.5 15T230-151q0 23 15.5 38.5T284-97t38.5-15.5T338-151q0-24-15.5-39T284-205z"/><glyph glyph-name="aogonek.a" horiz-adv-x="555" d="M416-206q-38 0-64.5 21.5T325-121q0 41 24 71.5T405 4l-7 53h-3q-29-28-66.5-48.5T248-12q-92 0-146.5 66T47 242q0 59 17.5 106.5t47 80.5 67.5 51 80 18q41 0 73-15t65-44h2l7 47h67V0q-45-22-66-49t-21-56q0-23 14-34.5t32-11.5q12 0 22 3.5t19 9.5l21-41q-14-11-36.5-19t-41.5-8zM266 57q34 0 64 16.5t60 50.5v254q-31 28-59.5 39.5T272 429q-29 0-54.5-13.5t-44.5-38-30-58.5-11-76q0-88 35-137t99-49z"/><glyph glyph-name="g.a" horiz-adv-x="559" d="M259-216q-45 0-90.5 13.5T85-163l30 58q36-24 72.5-34.5T259-150q67 0 99.5 34.5T393-22l1 92q-28-27-64.5-46T250 5q-46 0-83 17t-63 48.5-40 77T50 250t17.5 103 46.5 78 67.5 49.5T261 498q42 0 73.5-14.5T397 441h2l7 45h69V-24q0-91-56-141.5T259-216zm9 289q34 0 63.5 16.5T393 140v238q-32 28-60.5 39.5T274 429q-29 0-54.5-13T175 379t-30-56.5-11-71.5q0-82 35-130t99-48z"/><glyph glyph-name="uni01F5.a" horiz-adv-x="559" d="M259-216q-45 0-90.5 13.5T85-163l30 58q36-24 72.5-34.5T259-150q67 0 99.5 34.5T393-22l1 92q-28-27-64.5-46T250 5q-46 0-83 17t-63 48.5-40 77T50 250t17.5 103 46.5 78 67.5 49.5T261 498q42 0 73.5-14.5T397 441h2l7 45h69V-24q0-91-56-141.5T259-216zm9 289q34 0 63.5 16.5T393 140v238q-32 28-60.5 39.5T274 429q-29 0-54.5-13T175 379t-30-56.5-11-71.5q0-82 35-130t99-48zm4 500l-42 41 141 167 58-55z"/><glyph glyph-name="gcircumflex.a" horiz-adv-x="559" d="M259-216q-45 0-90.5 13.5T85-163l30 58q36-24 72.5-34.5T259-150q67 0 99.5 34.5T393-22l1 92q-28-27-64.5-46T250 5q-46 0-83 17t-63 48.5-40 77T50 250t17.5 103 46.5 78 67.5 49.5T261 498q42 0 73.5-14.5T397 441h2l7 45h69V-24q0-91-56-141.5T259-216zm9 289q34 0 63.5 16.5T393 140v238q-32 28-60.5 39.5T274 429q-29 0-54.5-13T175 379t-30-56.5-11-71.5q0-82 35-130t99-48zM132 600l114 140h82l114-140-35-32-118 113h-4L167 568z"/><glyph glyph-name="gbreve.a" horiz-adv-x="559" d="M259-216q-45 0-90.5 13.5T85-163l30 58q36-24 72.5-34.5T259-150q67 0 99.5 34.5T393-22l1 92q-28-27-64.5-46T250 5q-46 0-83 17t-63 48.5-40 77T50 250t17.5 103 46.5 78 67.5 49.5T261 498q42 0 73.5-14.5T397 441h2l7 45h69V-24q0-91-56-141.5T259-216zm9 289q34 0 63.5 16.5T393 140v238q-32 28-60.5 39.5T274 429q-29 0-54.5-13T175 379t-30-56.5-11-71.5q0-82 35-130t99-48zm19 498q-40 0-69 13t-47.5 34.5-28 48.5-11.5 55l51 8q3-19 10.5-37.5T213 659t31.5-24 42.5-9 42.5 9 31.5 24 20.5 33.5T392 730l51-8q-2-28-11.5-55T403 618.5 355.5 584 287 571z"/><glyph glyph-name="gdotaccent.a" horiz-adv-x="559" d="M259-216q-45 0-90.5 13.5T85-163l30 58q36-24 72.5-34.5T259-150q67 0 99.5 34.5T393-22l1 92q-28-27-64.5-46T250 5q-46 0-83 17t-63 48.5-40 77T50 250t17.5 103 46.5 78 67.5 49.5T261 498q42 0 73.5-14.5T397 441h2l7 45h69V-24q0-91-56-141.5T259-216zm9 289q34 0 63.5 16.5T393 140v238q-32 28-60.5 39.5T274 429q-29 0-54.5-13T175 379t-30-56.5-11-71.5q0-82 35-130t99-48zm19 513q-23 0-38.5 15T233 640q0 23 15.5 38.5T287 694t38.5-15.5T341 640q0-24-15.5-39T287 586z"/><glyph glyph-name="uni0123.a" horiz-adv-x="559" d="M259-216q-45 0-90.5 13.5T85-163l30 58q36-24 72.5-34.5T259-150q67 0 99.5 34.5T393-22l1 92q-28-27-64.5-46T250 5q-46 0-83 17t-63 48.5-40 77T50 250t17.5 103 46.5 78 67.5 49.5T261 498q42 0 73.5-14.5T397 441h2l7 45h69V-24q0-91-56-141.5T259-216zm9 289q34 0 63.5 16.5T393 140v238q-32 28-60.5 39.5T274 429q-29 0-54.5-13T175 379t-30-56.5-11-71.5q0-82 35-130t99-48zm58 502q-65 7-91 25t-26 52q0 44 42.5 65.5T374 744l8-41q-63-4-86-15.5T273 655q0-20 18-29.5t53-12.5z"/><glyph glyph-name="gcaron.a" horiz-adv-x="559" d="M259-216q-45 0-90.5 13.5T85-163l30 58q36-24 72.5-34.5T259-150q67 0 99.5 34.5T393-22l1 92q-28-27-64.5-46T250 5q-46 0-83 17t-63 48.5-40 77T50 250t17.5 103 46.5 78 67.5 49.5T261 498q42 0 73.5-14.5T397 441h2l7 45h69V-24q0-91-56-141.5T259-216zm9 289q34 0 63.5 16.5T393 140v238q-32 28-60.5 39.5T274 429q-29 0-54.5-13T175 379t-30-56.5-11-71.5q0-82 35-130t99-48zm-22 501L132 714l35 32 118-113h4l118 113 35-32-114-140h-82z"/><glyph glyph-name="uni1E21.a" horiz-adv-x="559" d="M259-216q-45 0-90.5 13.5T85-163l30 58q36-24 72.5-34.5T259-150q67 0 99.5 34.5T393-22l1 92q-28-27-64.5-46T250 5q-46 0-83 17t-63 48.5-40 77T50 250t17.5 103 46.5 78 67.5 49.5T261 498q42 0 73.5-14.5T397 441h2l7 45h69V-24q0-91-56-141.5T259-216zm9 289q34 0 63.5 16.5T393 140v238q-32 28-60.5 39.5T274 429q-29 0-54.5-13T175 379t-30-56.5-11-71.5q0-82 35-130t99-48zM154 601v57h266v-57H154z"/><glyph glyph-name="uni00670303.a" horiz-adv-x="559" d="M259-216q-45 0-90.5 13.5T85-163l30 58q36-24 72.5-34.5T259-150q67 0 99.5 34.5T393-22l1 92q-28-27-64.5-46T250 5q-46 0-83 17t-63 48.5-40 77T50 250t17.5 103 46.5 78 67.5 49.5T261 498q42 0 73.5-14.5T397 441h2l7 45h69V-24q0-91-56-141.5T259-216zm9 289q34 0 63.5 16.5T393 140v238q-32 28-60.5 39.5T274 429q-29 0-54.5-13T175 379t-30-56.5-11-71.5q0-82 35-130t99-48zm91 504q-27 0-46 13t-35 29-30.5 29-31.5 13q-23 0-34-22t-13-57l-55 3q1 29 7.5 54t18.5 43 30.5 28.5T215 721q27 0 46-13t35-29 30.5-29 32.5-13q22 0 33 22t13 57l55-4q-1-29-7.5-53.5T434 616t-30.5-28.5T359 577z"/><glyph glyph-name="l.a" horiz-adv-x="246" d="M82 0v712h82V0H82z"/><glyph glyph-name="lacute.a" horiz-adv-x="246" d="M82 0v712h82V0H82zm21 749l-37 42 142 128 47-55z"/><glyph glyph-name="lcaron.a" horiz-adv-x="265" d="M82 0v712h82V0H82zm139 548l-4 212h59l-1-57-14-155h-40z"/><glyph glyph-name="ldot.a" horiz-adv-x="362" d="M82 0v712h82V0H82zm223 263q-25 0-42.5 17.5T245 325q0 29 17.5 46.5T305 389q24 0 41.5-17.5T364 325q0-27-17.5-44.5T305 263z"/><glyph glyph-name="uni013C.a" horiz-adv-x="246" d="M82 0v712h82V0H82zM36-226l-8 40q63 5 86 16.5t23 31.5-18 29.5T66-96l18 38q65-8 91-25.5t26-51.5q0-44-42.5-65.5T36-226z"/><glyph glyph-name="uni1E37.a" horiz-adv-x="246" d="M82 0v712h82V0H82zm41-205q-23 0-38.5 15T69-151q0 23 15.5 38.5T123-97t38.5-15.5T177-151q0-24-15.5-39T123-205z"/><glyph glyph-name="uni1E39.a" horiz-adv-x="246" d="M82 0v712h82V0H82zm-92 822v57h266v-57H-10zM123-205q-23 0-38.5 15T69-151q0 23 15.5 38.5T123-97t38.5-15.5T177-151q0-24-15.5-39T123-205z"/><glyph glyph-name="uni1E3B.a" horiz-adv-x="246" d="M82 0v712h82V0H82zm-92-169v57h266v-57H-10z"/><glyph glyph-name="lslash.a" horiz-adv-x="257" d="M29 295l-30 53 87 53v311h82V444l54 35 30-53-84-52V0H86v331z"/><glyph glyph-name="fl.a" horiz-adv-x="556" d="M96 0v419H30v62l66 5v77q0 75 34.5 118T238 724q23 0 43.5-4.5T319 708l-18-63q-27 12-55 12-68 0-68-94v-77h103v-67H178V0H96zm296 0v712h82V0h-82z"/><glyph glyph-name="Alpha" unicode="Α" horiz-adv-x="544" d="M203 367l-31-100h197l-31 100q-18 55-34 109.5T272 588h-4q-15-57-31-111.5T203 367zM3 0l222 656h94L541 0h-89l-62 200H151L88 0H3z"/><glyph glyph-name="Beta" unicode="Β" horiz-adv-x="588" d="M90 0v656h195q50 0 91.5-9t71-28 46-49.5T510 496q0-49-24.5-88.5T414 353v-4q60-11 97-50t37-107q0-48-18-84t-51-60-79-36T299 0H90zm83 377h97q84 0 121 29t37 79q0 57-38.5 81T274 590H173V377zm0-311h114q85 0 132 31.5t47 97.5q0 61-46 89.5T287 313H173V66z"/><glyph glyph-name="Gamma" unicode="Γ" horiz-adv-x="498" d="M90 0v656h378v-70H173V0H90z"/><glyph glyph-name="uni0394" unicode="Δ" horiz-adv-x="588" d="M30 0v50l216 606h96L558 50V0H30zm90 71h346L364 371l-69 210h-4l-69-210z"/><glyph glyph-name="Epsilon" unicode="Ε" horiz-adv-x="527" d="M90 0v656h378v-70H173V380h249v-71H173V71h305V0H90z"/><glyph glyph-name="Zeta" unicode="Ζ" horiz-adv-x="539" d="M45 0v50l345 536H76v70h418v-49L148 71h349V0H45z"/><glyph glyph-name="Eta" unicode="Η" horiz-adv-x="652" d="M90 0v656h83V381h305v275h84V0h-84v309H173V0H90z"/><glyph glyph-name="Theta" unicode="Θ" horiz-adv-x="664" d="M220 309v72h224v-72H220zM332-12q-62 0-113.5 24T130 80.5t-57.5 108T52 331t20.5 141.5 57.5 106 88.5 66.5T332 668t113.5-23.5 89-67 58-106T613 331q0-79-20.5-142.5t-58-108-89-68.5T332-12zm0 73q44 0 79.5 19t61 54.5 39.5 85T526 331q0 61-14 110t-39.5 83-61 52.5T332 595t-79.5-18.5-61-52.5-39.5-83-14-110q0-62 14-111.5t39.5-85 61-54.5T332 61z"/><glyph glyph-name="Iota" unicode="Ι" horiz-adv-x="263" d="M90 0v656h83V0H90z"/><glyph glyph-name="Kappa" unicode="Κ" horiz-adv-x="579" d="M90 0v656h83V327h3l273 329h94L338 406 575 0h-93L286 341 173 208V0H90z"/><glyph glyph-name="Lambda" unicode="Λ" horiz-adv-x="515" d="M0 0l209 656h96L515 0h-88L321 355q-17 58-31 108.5T257 572h-4q-18-58-32-108.5T190 355L85 0H0z"/><glyph glyph-name="Mu" unicode="Μ" horiz-adv-x="727" d="M90 0v656h100l126-350q12-34 23.5-68.5T363 169h4q12 34 22.5 68.5T412 306l124 350h101V0h-78v361q0 44 4 97t7 97h-4l-52-149L390 66h-55L211 406l-52 149h-4q3-44 6.5-97t3.5-97V0H90z"/><glyph glyph-name="Nu" unicode="Ν" horiz-adv-x="647" d="M90 0v656h86l237-412 71-136h4q-3 50-6.5 103.5T478 317v339h79V0h-86L233 413l-71 135h-4q4-50 7.5-101.5T169 343V0H90z"/><glyph glyph-name="Xi" unicode="Ξ" horiz-adv-x="533" d="M49 0v71h435V0H49zm75 309v71h285v-71H124zM59 586v70h415v-70H59z"/><glyph glyph-name="Omicron" unicode="Ο" horiz-adv-x="664" d="M332-12q-62 0-113.5 24T130 80.5t-57.5 108T52 331t20.5 141.5 57.5 106 88.5 66.5T332 668t113.5-23.5 89-67 58-106T613 331q0-79-20.5-142.5t-58-108-89-68.5T332-12zm0 73q44 0 79.5 19t61 54.5 39.5 85T526 331q0 61-14 110t-39.5 83-61 52.5T332 595t-79.5-18.5-61-52.5-39.5-83-14-110q0-62 14-111.5t39.5-85 61-54.5T332 61z"/><glyph glyph-name="Pi" unicode="Π" horiz-adv-x="645" d="M90 0v656h465V0h-83v586H173V0H90z"/><glyph glyph-name="Rho" unicode="Ρ" horiz-adv-x="566" d="M90 0v656h187q55 0 100.5-10t77.5-32.5 50-59.5 18-91q0-52-17.5-90T456 310t-76.5-37.5T281 260H173V0H90zm83 328h98q86 0 127.5 32.5T440 463q0 71-43.5 98.5T267 589h-94V328z"/><glyph glyph-name="Sigma" unicode="Σ" horiz-adv-x="538" d="M44 0v50l226 283L48 607v49h423v-70H153l201-251L150 71h351V0H44z"/><glyph glyph-name="Tau" unicode="Τ" horiz-adv-x="536" d="M226 0v586H28v70h480v-70H310V0h-84z"/><glyph glyph-name="Upsilon" unicode="Υ" horiz-adv-x="476" d="M196 0v254L-1 656h89l85-185q16-36 31-71t32-72h4q17 37 34 72t32 71l84 185h87L280 254V0h-84z"/><glyph glyph-name="Phi" unicode="Φ" horiz-adv-x="719" d="M590 331q0 84-52 134.5T397 521V136q44 3 80 18t61 40.5 38.5 60T590 331zm-461 0q0-42 13.5-76.5t38.5-60 61-40.5 80-18v385q-89-5-141-55.5T129 331zM322-22v93q-62 3-112.5 22T123 145.5t-55.5 80T48 331q0 58 19.5 104t55.5 78.5 86.5 51T322 586v92h75v-92q62-3 112.5-21.5t86.5-51 55.5-78.5T671 331q0-59-19.5-105.5t-55.5-80T509.5 93 397 71v-93h-75z"/><glyph glyph-name="Chi" unicode="Χ" horiz-adv-x="513" d="M15 0l191 339L28 656h92l89-168q13-23 24.5-44.5T260 393h4q14 29 24.5 50.5T311 488l87 168h88L307 335 498 0h-92l-96 177q-13 24-26.5 49.5T254 282h-4q-14-30-27-55.5T198 177L103 0H15z"/><glyph glyph-name="Psi" unicode="Ψ" horiz-adv-x="699" d="M310 0v245q-116 5-181.5 64.5T63 495v161h82V499q0-95 41.5-139T310 312v344h79V312q82 5 123 48.5T553 499v157h83V495q0-63-17-109t-49-76.5-77.5-46T389 245V0h-79z"/><glyph glyph-name="uni03A9" unicode="Ω" horiz-adv-x="678" d="M45 0v68h131v4q-21 21-42 48.5T96.5 183t-27 76.5T59 351q0 69 20 127t56.5 100.5 88 66T339 668t115.5-23.5 88.5-66T600 478t20-127q0-50-10.5-91.5t-27-76.5-38-62.5T502 72v-4h131V0H400v61q28 22 52.5 50t42.5 63 28.5 77.5T534 346q0 53-13.5 98.5t-38.5 79-61 52.5-82 19-82-19-61-52.5-38-79-13-98.5q0-52 10-94.5t28-77.5 42.5-63T278 61V0H45z"/><glyph glyph-name="Alphatonos" unicode="Ά" horiz-adv-x="566" d="M225 367l-31-100h197l-31 100q-18 55-34 109.5T294 588h-4q-15-57-31-111.5T225 367zM25 0l222 656h94L563 0h-89l-62 200H173L110 0H25zM6 475l29 195 76-11-50-195z"/><glyph glyph-name="Epsilontonos" unicode="Έ" horiz-adv-x="591" d="M154 0v656h378v-70H237V380h249v-71H237V71h305V0H154zM-19 475l29 195 76-11-50-195z"/><glyph glyph-name="Etatonos" unicode="Ή" horiz-adv-x="716" d="M154 0v656h83V381h305v275h84V0h-84v309H237V0h-83zM-19 475l29 195 76-11-50-195z"/><glyph glyph-name="Iotatonos" unicode="Ί" horiz-adv-x="327" d="M154 0v656h83V0h-83zM-19 475l29 195 76-11-50-195z"/><glyph glyph-name="Iotadieresis" unicode="Ϊ" horiz-adv-x="263" d="M90 0v656h83V0H90zM28 715q-21 0-35 14t-14 35q0 22 14 35.5T28 813q22 0 35.5-13.5T77 764q0-21-13.5-35T28 715zm206 0q-22 0-35.5 14T185 764q0 22 13.5 35.5T234 813q21 0 35-13.5t14-35.5q0-21-14-35t-35-14z"/><glyph glyph-name="Omicrontonos" unicode="Ό" horiz-adv-x="711" d="M379-12q-62 0-113.5 24T177 80.5t-57.5 108T99 331t20.5 141.5 57.5 106 88.5 66.5T379 668t113.5-23.5 89-67 58-106T660 331q0-79-20.5-142.5t-58-108-89-68.5T379-12zm0 73q44 0 79.5 19t61 54.5 39.5 85T573 331q0 61-14 110t-39.5 83-61 52.5T379 595t-79.5-18.5-61-52.5-39.5-83-14-110q0-62 14-111.5t39.5-85 61-54.5T379 61zM-19 475l29 195 76-11-50-195z"/><glyph glyph-name="Upsilontonos" unicode="Ύ" horiz-adv-x="600" d="M320 0v254L123 656h89l85-185q16-36 31-71t32-72h4q17 37 34 72t32 71l84 185h87L404 254V0h-84zM-19 475l29 195 76-11-50-195z"/><glyph glyph-name="Upsilondieresis" unicode="Ϋ" horiz-adv-x="476" d="M196 0v254L-1 656h89l85-185q16-36 31-71t32-72h4q17 37 34 72t32 71l84 185h87L280 254V0h-84zm-61 715q-21 0-35 14t-14 35q0 22 14 35.5t35 13.5q22 0 35.5-13.5T184 764q0-21-13.5-35T135 715zm206 0q-22 0-35.5 14T292 764q0 22 13.5 35.5T341 813q21 0 35-13.5t14-35.5q0-21-14-35t-35-14z"/><glyph glyph-name="Omegatonos" unicode="Ώ" horiz-adv-x="723" d="M92 0v68h131v4q-21 21-42 48.5T143.5 183t-27 76.5T106 351q0 69 20 127t56.5 100.5 88 66T386 668t115.5-23.5 88.5-66T647 478t20-127q0-50-10.5-91.5t-27-76.5-38-62.5T549 72v-4h131V0H447v61q28 22 52.5 50t42.5 63 28.5 77.5T581 346q0 53-13.5 98.5t-38.5 79-61 52.5-82 19-82-19-61-52.5-38-79-13-98.5q0-52 10-94.5t28-77.5 42.5-63T325 61V0H92zM-22 475L7 670l76-11-50-195z"/><glyph glyph-name="alpha" unicode="α" horiz-adv-x="560" d="M233-12q-42 0-76 16T98 51.5t-38.5 77T46 234q0 63 17.5 112t47 82.5 68 51.5 80.5 18q45 0 87-29t63-98h2l21 115h81q-10-48-20.5-100.5T473 282t-15-96.5-6-78.5q0-25 14-38t34-13q8 0 17 2.5t17 5.5l12-63q-11-5-26-9t-37-4q-44 0-70 24t-26 75h-3q-56-99-151-99zm17 69q24 0 47 12t41 32.5 30 48 14 58.5l8 91q-10 40-24 65t-30 39.5-33.5 20T268 429q-26 0-51-12.5T173 380t-30.5-60.5T131 235q0-85 31-131.5T250 57z"/><glyph glyph-name="beta" unicode="β" horiz-adv-x="565" d="M79-179v670q0 50 12 93t37 74 62.5 48.5T279 724q36 0 69-10.5t58.5-32 40.5-54 15-76.5q0-54-25-95.5T366 385v-4q72-10 113.5-60.5T521 193q0-49-16-87t-42.5-64.5-60.5-40T331-12q-46 0-91 16t-83 58q2-62 3-120.5t2-120.5H79zM312 57q26 0 49 9.5T401.5 94t27.5 44.5 10 59.5q0 58-34 97t-102 39q-26 0-50-6l-13 63q39 8 66 24t44 37 24.5 45 7.5 48q0 28-8 49t-22 35-32.5 21-38.5 7q-57 0-88.5-45T160 480q-2-88-2.5-173.5T157 133q35-45 76-60.5T312 57z"/><glyph glyph-name="gamma" unicode="γ" horiz-adv-x="484" d="M196-179q1 16 2 29.5l2 27 1 29V-58q0 60-16.5 133t-44 146.5T78 362 6 477l83 21q22-32 46-77t46-98 39.5-111T249 97h4q47 91 83.5 189.5T381 486h83q-10-62-24.5-117t-37-111.5-54.5-118T271 5q6-44 8-93t2-91h-85z"/><glyph glyph-name="delta" unicode="δ" horiz-adv-x="531" d="M269-12q-42 0-81 15t-69 43.5T70.5 116 52 209q0 44 14.5 80.5t39.5 65 59.5 49T239 436q-26 19-50.5 38.5t-43 41-29.5 46-11 53.5q0 22 9.5 41.5t29 34.5 49.5 24 71 9q89 0 209-39l-20-66q-63 23-109 32t-81 9q-42 0-61-15t-19-35 11.5-37.5T226 537t46.5-36.5T329 460q31-23 59-47t49.5-52.5 34-63T484 219q0-52-14.5-94.5t-42-73-67.5-47T269-12zm1 68q66 0 99.5 44.5T403 218q0 30-8.5 55.5t-23 46.5-34 39.5T296 395q-77-17-120.5-65T132 211q0-36 11.5-64.5T174 98t44-31 52-11z"/><glyph glyph-name="epsilon" unicode="ε" horiz-adv-x="448" d="M251-12q-45 0-82.5 10t-65 29T61 73t-15 61q0 53 29.5 81.5T147 255v4q-38 14-57.5 44T70 367q0 33 15 58t40.5 41 59 24 71.5 8q44 0 83.5-14t73.5-39l-33-55q-29 21-58.5 32T258 433q-45 0-75.5-19T152 357q0-33 26-54t85-21q14 0 28 .5t33 2.5v-64q-22 2-40 2h-36q-120 0-120-82 0-41 34.5-64T260 54q35 0 66.5 11t66.5 38l35-55q-44-34-85-47t-92-13z"/><glyph glyph-name="zeta" unicode="ζ" horiz-adv-x="424" d="M360-184l-66 27q26 32 37 50t11 38q0 11-4.5 19.5t-17 15-34 13T231-8q-37 7-70 22t-58 41-40 66.5T48 222q0 56 24.5 117T136 457.5 222.5 565t93.5 85h-51.5l-63.5-1-65.5-2-56.5-2v67h330v-67h-5q-47-33-95-83t-87-107.5T158 337t-25-111q0-43 10-72.5t29-48.5 46-30 61-17q35-7 61-15.5T383 22t25-29.5 8-42.5q0-23-13-57.5T360-184z"/><glyph glyph-name="eta" unicode="η" horiz-adv-x="541" d="M382-179q3 120 4.5 245t1.5 231q0 69-18 99.5T309 427q-20 0-37.5-5.5T237 403t-34.5-33.5T164 318V0H82v353q0 29-1 62t-6 71h75l7-101h3q38 57 78.5 85t94.5 28q71 0 101.5-48T465 308v-487h-83z"/><glyph glyph-name="theta" unicode="θ" horiz-adv-x="522" d="M261-12q-47 0-84.5 22T113 77.5 73 193 59 359q0 180 54 272.5T261 724t148-92.5T463 359q0-96-14-166T409 77.5 345.5 10 261-12zm0 668q-25 0-46-15t-37-47-26-82.5T140 390h242q-2 71-12 121.5T344 594t-37 47-46 15zm0-600q25 0 46.5 14t37.5 46.5 25.5 85T382 331H140q1-77 11-129.5t26-85T214.5 70 261 56z"/><glyph glyph-name="iota" unicode="ι" horiz-adv-x="262" d="M175-12q-51 0-72 29.5T82 101v385h83q-2-99-4-201t-2-190q0-39 34-39 12 0 30 6l11-62q-11-5-25-8.5T175-12z"/><glyph glyph-name="kappa" unicode="κ" horiz-adv-x="494" d="M406-8q-20 22-41 50.5t-42 61-41 67-38 67.5q-11-14-22.5-28.5T199 179q-22-29-30.5-67.5T159 25V0H82v353q0 29-1.5 65T73 486h81q5-20 7-50.5t2-62.5V221h4q29 50 63 96t71.5 83 76.5 62.5 78 35.5l8-78q-41-13-82.5-43.5T295 297q18-36 42-75.5t50-79 54.5-76T497 0z"/></font>
</defs>
</svg>
