<svg xmlns="http://www.w3.org/2000/svg"><defs><font id="SourceSansPro-Italic" horiz-adv-x="0"><font-face font-family="Source Sans Pro" font-weight="400" font-style="italic" panose-1="2 11 5 3 3 4 3 9 2 4" ascent="750" descent="-250" x-height="486" cap-height="656" bbox="-211 -283 1106 969" underline-thickness="50" underline-position="-100" slope="-11" unicode-range="U+0020-FEFF"/><glyph glyph-name="f_f" unicode="ff" horiz-adv-x="552" d="M313 0l85 424H205L119 0H43l85 424H65l11 57 65 5 14 71q16 74 56.5 115.5T315 714q29 0 51-6.5t42-16.5l-27-56q-12 7-26 12t-34 5q-35 0-58-25t-31-68l-15-73h194l16 81q15 74 54 115.5T581 724q26 0 46.5-6.5T668 701l-28-56q-10 7-23 12t-30 5q-33 0-54-25t-29-68l-17-83h99l-13-62h-98L390 0h-77z"/><glyph glyph-name="f_t" unicode="ft" horiz-adv-x="561" d="M43 0l85 424H65l11 57 65 5 16 81q15 74 53.5 115.5T311 724q26 0 46.5-6.5T397 701l-27-56q-11 7-24 12t-30 5q-33 0-53.5-25T234 569l-17-83h167l36 134h65l-27-134h123l-12-62H444l-57-278q-3-18-3-36 0-30 13.5-45T446 50q14 0 27 5t24 10l16-55q-16-8-39-15t-52-7q-32 0-54 8.5t-36 23-20 34-6 42.5q0 15 1 27.5t4 26.5l57 274H205L119 0H43z"/><glyph glyph-name=".notdef" horiz-adv-x="628" d="M36 0l130 660h456L492 0H36zm302 384h4l67 93 90 127H270l40-127zM150 56h249l-44 136-31 101h-4l-71-101zm-30 49l169 235-75 235zm330 0l96 470-171-235z"/><glyph glyph-name="space" horiz-adv-x="192"/><glyph glyph-name="A" unicode="A" horiz-adv-x="510" d="M227 377l-58-112h195l-10 112q-5 52-9.5 104.5T336 591h-4q-26-57-51.5-108.5T227 377zM-53 0l356 656h90L469 0h-81l-18 205H138L33 0h-86z"/><glyph glyph-name="B" unicode="B" horiz-adv-x="583" d="M35 0l131 656h175q95 0 149-36.5T544 511q0-33-12.5-60.5T498 402t-47-35-53-20l-1-4q51-12 86-44.5t35-88.5q0-55-20.5-94.5t-57.5-65-87-38T245 0H35zm152 374h94q94 0 139 35t45 91q0 45-34 70t-109 25h-91zM124 61h114q94 0 149 34t55 111q0 50-38.5 80.5T292 317H176z"/><glyph glyph-name="C" unicode="C" horiz-adv-x="550" d="M290-12q-56 0-99.5 19.5t-73 54.5-45 83.5T57 253q0 77 24.5 151.5t69 133 107 94.5T396 668q57 0 97-27.5t64-69.5l-54-41q-20 32-46.5 51.5T392 601q-59 0-106-31t-80-80-51-109.5T137 260q0-45 9.5-82.5T176 113t52-42.5T304 55q40 0 73.5 16t65.5 43l35-50q-36-32-82-54T290-12z"/><glyph glyph-name="D" unicode="D" horiz-adv-x="592" d="M35 0l131 656h122q137 0 207.5-67.5T566 400q0-89-24.5-163t-70-126.5T360 29 211 0H35zm90 64h86q64 0 115 24.5t87 68T468 261t19 134q0 94-51 146t-151 52h-54z"/><glyph glyph-name="E" unicode="E" horiz-adv-x="503" d="M35 0l131 656h362l-13-65H230l-42-213h241l-14-66H176L125 66h294L405 0H35z"/><glyph glyph-name="F" unicode="F" horiz-adv-x="473" d="M35 0l131 656h362l-13-65H230l-45-228h241l-13-66H173L113 0H35z"/><glyph glyph-name="G" unicode="G" horiz-adv-x="588" d="M300-12q-59 0-104.5 19T119 60.5 72.5 144 57 253q0 78 24.5 152.5t69.5 133 109.5 94T406 668q59 0 99.5-27.5T571 571l-55-41q-19 32-46.5 51.5T402 601q-62 0-111-31t-83.5-80T155 380.5 137 260q0-44 9.5-81.5T177 113t54-43.5T311 54q36 0 64 11.5T423 94l37 181H324l13 64h206L486 55q-36-30-82.5-48.5T300-12z"/><glyph glyph-name="H" unicode="H" horiz-adv-x="622" d="M35 0l131 656h78l-56-277h296l56 277h77L486 0h-78l63 312H175L113 0H35z"/><glyph glyph-name="I" unicode="I" horiz-adv-x="252" d="M35 0l131 656h78L113 0H35z"/><glyph glyph-name="J" unicode="J" horiz-adv-x="456" d="M159-12q-59 0-99.5 27.5T-2 89l51 43q14-36 42-56.5T161 55q50 0 81 37t44 103l92 461h78l-94-472q-8-42-25-78t-42-62.5-59-41T159-12z"/><glyph glyph-name="K" unicode="K" horiz-adv-x="559" d="M35 0l131 656h78l-65-324h3l329 324h88L353 404 502 0h-81L295 354 158 220 113 0H35z"/><glyph glyph-name="L" unicode="L" horiz-adv-x="462" d="M35 0l131 656h78L126 66h276L389 0H35z"/><glyph glyph-name="M" unicode="M" horiz-adv-x="705" d="M35 0l131 656h93l57-354 22-136h4l70 136 195 354h93L569 0h-75l76 370q9 45 22 97.5t25 95.5h-4l-79-146L341 69h-44l-61 348-22 146h-4q-6-45-13-96.5T182 370L108 0H35z"/><glyph glyph-name="N" unicode="N" horiz-adv-x="619" d="M35 0l131 656h78l150-420 42-137h4q6 49 12.5 103.5T470 308l69 348h75L483 0h-77L258 419l-43 141h-4q-6-51-13.5-104T180 353L110 0H35z"/><glyph glyph-name="O" unicode="O" horiz-adv-x="633" d="M287-12q-55 0-97.5 19.5t-71 55.5T75 150 60 263q0 75 23.5 147.5t65.5 130T249.5 633 379 668q55 0 97.5-19.5t71-55.5 43.5-86.5T606 394q0-75-23.5-148T517 115.5 416 23 287-12zm4 67q53 0 96.5 30.5T462 164t48 107 17 116q0 97-37 155.5T375 601q-53 0-96.5-30T204 493t-48-107-17-117q0-48 9-87.5t27.5-67.5T223 70.5 291 55z"/><glyph glyph-name="P" unicode="P" horiz-adv-x="550" d="M35 0l131 656h185q46 0 84-9t65-28.5 42-49.5 15-73q0-60-21.5-104T476 319.5t-90.5-42T270 264H165L113 0H35zm143 327h95q102 0 154.5 40T480 486q0 57-38 82.5T332 594H231z"/><glyph glyph-name="Q" unicode="Q" horiz-adv-x="633" d="M291 55q53 0 96.5 30.5T462 164t48 107 17 116q0 97-37 155.5T375 601q-53 0-96.5-30T204 493t-48-107-17-117q0-48 9-87.5t27.5-67.5T223 70.5 291 55zm168-217q-84 0-144 37.5T230-6q-84 19-127 90T60 263q0 75 23.5 147.5t65.5 130T249.5 633 379 668q55 0 97.5-19.5t71-55.5 43.5-86.5T606 394q0-72-21.5-142.5T524 125t-93.5-93T310-11q17-44 59-65t95-21q15 0 28 2t27 5l5-61q-33-11-65-11z"/><glyph glyph-name="R" unicode="R" horiz-adv-x="555" d="M35 0l131 656h180q46 0 83.5-8.5t64.5-27 42-47.5 15-70q0-45-14.5-82T496 356.5 435 311t-77-26L473 0h-83L282 278H168L113 0H35zm146 341h99q94 0 144 41t50 111q0 54-37.5 77.5T327 594h-96z"/><glyph glyph-name="S" unicode="S" horiz-adv-x="506" d="M231-12q-68 0-123.5 28.5T12 104l57 43q29-44 71.5-68.5T238 54q30 0 56 9t44.5 25 29.5 39 11 51q0 36-22.5 60.5T297 286l-76 46q-42 26-71.5 62T120 486q0 37 15.5 70t42.5 58 64.5 39.5T324 668q59 0 107-26t79-66l-51-46q-26 30-60.5 50.5T318 601q-28 0-50-9t-37.5-24-23.5-34-8-39q0-38 24.5-61.5T284 388l76-45q48-28 73.5-63.5T459 189q0-44-17-81t-47-63.5T323 3t-92-15z"/><glyph glyph-name="T" unicode="T" horiz-adv-x="510" d="M166 0l117 589H93l13 67h459l-13-67H361L244 0h-78z"/><glyph glyph-name="U" unicode="U" horiz-adv-x="616" d="M89 288l74 368h78l-75-375q-9-45-9-79 0-71 32-109t101-38q28 0 53.5 11t47.5 35 38.5 61.5T457 254l81 402h76l-82-405q-14-71-37.5-121T439 48.5t-70.5-46T286-12q-100 0-153.5 52T79 195q0 21 2.5 44.5T89 288z"/><glyph glyph-name="V" unicode="V" horiz-adv-x="496" d="M141 0L82 656h79l27-364q5-54 9-108t7-108h4q25 53 51.5 108T312 292l181 364h84L234 0h-93z"/><glyph glyph-name="W" unicode="W" horiz-adv-x="756" d="M95 0l9 656h80l-10-361q-3-53-4.5-106T164 82h4q23 54 47 107t46 106l164 361h71l9-361q1-52 1-105.5V82h4q20 54 41.5 107T593 295l142 361h77L542 0h-99l-7 401q0 36 .5 75.5T439 555h-4q-14-39-30.5-77T371 401L192 0H95z"/><glyph glyph-name="X" unicode="X" horiz-adv-x="494" d="M-36 0l252 340-108 316h84l56-174q7-23 13-44.5t14-47.5h3l34 48 32 47 120 171h82L309 334 426 0h-84l-60 184q-8 25-15.5 50.5T251 286h-3q-20-26-38-53.5T175 180L47 0h-83z"/><glyph glyph-name="Y" unicode="Y" horiz-adv-x="461" d="M139 0l51 256L83 656h80l45-189q9-36 16.5-70t16.5-72h4q23 37 44.5 72t45.5 71l124 188h83L268 256 216 0h-77z"/><glyph glyph-name="Z" unicode="Z" horiz-adv-x="512" d="M-1 0L9 47l425 544H134l14 65h393l-10-46L109 66h331L425 0H-1z"/><glyph glyph-name="a" unicode="a" horiz-adv-x="537" d="M179-12q-64 0-102 45T39 164q0 70 22 131t59 106 84 71 98 26q39 0 69.5-20t47.5-53h4l19 61h62L407 0h-63l8 72h-4q-35-38-79-61t-90-23zm28 64q38 0 77.5 22.5T360 145l44 217q-21 38-46 55t-53 17q-36 0-70-21.5T175 355t-41.5-82.5T118 176q0-63 24-93.5T207 52z"/><glyph glyph-name="b" unicode="b" horiz-adv-x="536" d="M94 0H31l142 712h77l-39-190-22-96h2q36 29 78 50.5t87 21.5q64 0 102-45t38-131q0-70-22-131T415.5 85t-84-71T234-12q-39 0-69.5 20T117 61h-3zm234 434q-34 0-74.5-21T178 355l-46-231q20-38 45-55t54-17q36 0 70 21.5t59.5 57.5 41 82.5T417 311q0 62-23.5 92.5T328 434z"/><glyph glyph-name="c" unicode="c" horiz-adv-x="435" d="M216-12q-80 0-129.5 50.5T37 183q0 68 22.5 125.5t60 99.5 86.5 66 102 24q44 0 74-17t52-42l-45-48q-19 23-38 33.5T303 435q-36 0-70-20t-60.5-53.5-42-78.5-15.5-95q0-66 28.5-101T230 52q32 0 58.5 13T338 95l34-50q-26-20-64-38.5T216-12z"/><glyph glyph-name="d" unicode="d" horiz-adv-x="535" d="M420 427l16 95 38 190h77L407 0h-63l8 72h-4q-35-38-79-61t-90-23q-64 0-102 45T39 164q0 70 22 131t59 106 84 71 98 26q39 0 68-19.5t47-51.5h3zM207 52q38 0 77 22.5t76 70.5l44 217q-21 38-46 55t-53 17q-36 0-70-21.5T175 355t-41.5-82.5T118 176q0-63 24-93.5T207 52z"/><glyph glyph-name="e" unicode="e" horiz-adv-x="481" d="M37 191q0 69 23 125.5t59.5 97 83 62.5 94.5 22q41 0 69.5-13.5t46.5-37 26-56 8-69.5q0-29-6-55t-11-40H114q-7-47 1-80.5T141.5 91 187 59t59-10q29 0 57.5 12.5T355 91l30-51q-29-21-69-36.5T228-12q-87 0-139 52.5T37 191zm85 88h255q2 12 3.5 24t1.5 26q0 21-5 40.5T361 404t-29 24-44 9q-27 0-52.5-11T188 394t-39.5-50-26.5-65z"/><glyph glyph-name="f" unicode="f" horiz-adv-x="282" d="M65 424l11 57 65 5 16 81q15 74 53.5 115.5T311 724q26 0 47-6.5t39-17.5l-27-55q-11 7-24 12t-30 5q-33 0-53.5-25T234 569l-17-83h98l-12-62h-99L119 0H43l85 424H65z"/><glyph glyph-name="g" unicode="g" horiz-adv-x="531" d="M168-224q-49 0-92 19t-78 48l36 53q28-24 62-41t75-17q63 0 100 39.5T324-17l25 104q-38-38-80-60T180 5Q118 5 78.5 48T39 176q0 67 21.5 125.5t57.5 102 82.5 69T296 498q38 0 69-20t48-53h3l19 61h63L396-23q-20-97-78-149t-150-52zm37 293q35 0 75 21.5t75 63.5l43 208q-23 38-47 55t-52 17q-35 0-68-20.5t-58-55-40-79-15-92.5q0-60 23-89t64-29z"/><glyph glyph-name="h" unicode="h" horiz-adv-x="519" d="M31 0l142 712h77l-48-235-16-61h4q42 35 82 58.5t85 23.5q62 0 88.5-32t26.5-89q0-17-1.5-32t-6.5-35L402 0h-76l60 300q4 20 6 32t2 25q0 37-17 56t-55 19q-29 0-64.5-21T176 344L107 0H31z"/><glyph glyph-name="i" unicode="i" horiz-adv-x="237" d="M31 0l97 486h77L107 0H31zm162 587q-20 0-34.5 11.5T144 632q0 25 17.5 41.5T202 690q20 0 34.5-12t14.5-34q0-25-17.5-41T193 587z"/><glyph glyph-name="j" unicode="j" horiz-adv-x="238" d="M-49-217q-23 0-40.5 5t-34.5 14l25 57q10-6 20-9.5t26-3.5q28 0 44.5 24T18-62l111 548h77L95-61q-14-70-47.5-113T-49-217zm242 804q-19 0-33.5 11.5T145 632q0 25 17 41.5t41 16.5q19 0 33.5-12t14.5-34q0-25-17.5-41T193 587z"/><glyph glyph-name="k" unicode="k" horiz-adv-x="476" d="M31 0l142 712h77l-96-483h2l249 257h88L299 283 416 0h-78l-93 237-112-114L107 0H31z"/><glyph glyph-name="l" unicode="l" horiz-adv-x="248" d="M109-12Q77-12 60.5 4.5T44 51q0 16 6 42l123 619h77L125 89q-2-8-2-12v-7q0-18 17-18 3 0 6 .5t10 2.5l1-59q-10-4-21-6t-27-2z"/><glyph glyph-name="m" unicode="m" horiz-adv-x="799" d="M31 0l96 486h63l-7-73h4q38 36 80 60.5t80 24.5q29 0 49-7.5t33-20 20-30 10-37.5q47 45 90.5 70t81.5 25q61 0 88-32t27-89q0-17-2-32t-6-35L676 0h-77l61 300q4 20 6 32t2 25q0 75-71 75-21 0-57-21t-80-67L391 0h-76l60 300q4 20 6 32t2 25q0 75-70 75-22 0-58-21t-79-67L107 0H31z"/><glyph glyph-name="n" unicode="n" horiz-adv-x="525" d="M31 0l96 486h63l-7-73h4q42 36 83 60.5t87 24.5q62 0 88.5-32t26.5-89q0-17-1.5-32t-6.5-35L402 0h-76l60 300q4 20 6 32t2 25q0 37-17 56t-55 19q-29 0-64.5-21T176 344L107 0H31z"/><glyph glyph-name="o" unicode="o" horiz-adv-x="515" d="M212-12q-79 0-126 52T39 183q0 69 22 127t59 99.5 84 65 97 23.5q79 0 126.5-52T475 303q0-69-22.5-127t-59-99.5-84-65T212-12zm8 64q34 0 65.5 19.5T342 124t40 78 15 96q0 66-26.5 101.5T293 435q-33 0-65-19.5t-57-53-40-78.5-15-96q0-66 26.5-101T220 52z"/><glyph glyph-name="p" unicode="p" horiz-adv-x="535" d="M115 58L97-46 66-205h-76l138 691h63l-6-64h3q37 31 79.5 53.5T356 498q64 0 102-45.5T496 322q0-70-22-131T415.5 85t-84-71T234-12q-38 0-68 19.5T117 58h-2zm213 376q-34 0-74.5-21T178 354l-46-232q20-38 45-54t54-16q36 0 70 21.5t59.5 57.5 41 82.5T417 311q0 62-23.5 92.5T328 434z"/><glyph glyph-name="q" unicode="q" horiz-adv-x="537" d="M322-46l30 119h-2q-36-37-80.5-61T179-12q-64 0-102 45T39 164q0 70 22 131t59 106 84 71 98 26q39 0 69.5-20t47.5-53h4l19 61h62L366-205h-77zM207 52q34 0 75 22.5t78 70.5l44 217q-21 38-46 55t-53 17q-36 0-70-21.5T175 355t-41.5-82.5T118 176q0-63 24-93.5T207 52z"/><glyph glyph-name="r" unicode="r" horiz-adv-x="342" d="M31 0l96 486h63l-11-93h4q29 45 67.5 75t83.5 30q25 0 46-9l-27-68q-16 8-42 8-36 0-74-31t-69-91L107 0H31z"/><glyph glyph-name="s" unicode="s" horiz-adv-x="402" d="M163-12q-24 0-48.5 7t-47 19.5-41 29.5T-4 80l48 38q23-32 55-51.5T169 47q21 0 39.5 6.5t33 17.5T264 96.5t8 31.5q0 13-4.5 24T253 173.5 225.5 195 183 220q-57 31-84 61t-27 72q0 32 13.5 59t36 46 53 29.5T239 498q45 0 80.5-18t62.5-47l-44-43q-20 20-44 34t-57 14q-39 0-65.5-22.5T145 362q0-15 7-27t19-22 27.5-19 32.5-18q33-18 54.5-34.5t35-33 19-33.5 5.5-37q0-34-13.5-62t-38-47.5-58-30T163-12z"/><glyph glyph-name="t" unicode="t" horiz-adv-x="325" d="M185-12q-32 0-54 8.5t-36 23-20 34T69 96q0 15 1.5 27.5T74 150l57 274H60l11 57 76 5 36 134h65l-27-134h123l-12-62H207l-57-278q-3-18-3-36 0-30 13.5-45T209 50q14 0 27 5t24 10l17-55q-17-8-40-15t-52-7z"/><glyph glyph-name="u" unicode="u" horiz-adv-x="528" d="M495 486L398 0h-63l8 74h-4q-40-35-81.5-60.5T171-12q-62 0-88.5 32.5T56 109q0 17 1.5 32t6.5 35l62 310h77l-61-300q-4-20-6-32t-2-25q0-37 17-56t55-19q29 0 64 21t80 67l69 344h76z"/><glyph glyph-name="v" unicode="v" horiz-adv-x="448" d="M130 0L59 486h76l36-281q4-35 7-72.5t7-72.5h4q17 36 35 72.5t37 72.5l143 281h77L222 0h-92z"/><glyph glyph-name="w" unicode="w" horiz-adv-x="707" d="M105 0L70 486h76l16-286q1-35 1.5-68.5T165 64h4q15 34 28.5 67.5T227 200l128 286h75l17-286q2-35 2.5-68.5T452 64h4q14 34 27 67.5t29 68.5l127 286h72L490 0h-95l-14 266q-1 35-1.5 71t-1.5 72h-4q-15-36-29.5-72T315 266L197 0h-92z"/><glyph glyph-name="x" unicode="x" horiz-adv-x="429" d="M-44 0l218 258-91 228h78l42-108q8-22 14.5-41.5T232 296h4q15 20 31 40.5t31 41.5l85 108h83L266 241 365 0h-79l-44 114q-8 22-16.5 44.5T207 204h-4q-16-23-33-44.5T134 115L40 0h-84z"/><glyph glyph-name="y" unicode="y" horiz-adv-x="448" d="M-6-209q-11 0-26.5 3T-62-195l25 57q18-9 36-9 37 0 69.5 30T126-36l18 35-83 487h76l38-273q5-33 9-71.5t7-73.5h4q17 35 35.5 72.5T267 213l140 273h76L197-41q-19-36-40-66.5t-45.5-53T58-196t-64-13z"/><glyph glyph-name="z" unicode="z" horiz-adv-x="410" d="M-10 0l8 44 323 380H100l13 62h317l-8-45L99 62h254L341 0H-10z"/><glyph glyph-name="Agrave" unicode="À" horiz-adv-x="510" d="M227 377l-58-112h195l-10 112q-5 52-9.5 104.5T336 591h-4q-26-57-51.5-108.5T227 377zM-53 0l356 656h90L469 0h-81l-18 205H138L33 0h-86zm424 693L237 820l56 50 122-140z"/><glyph glyph-name="Aacute" unicode="Á" horiz-adv-x="510" d="M227 377l-58-112h195l-10 112q-5 52-9.5 104.5T336 591h-4q-26-57-51.5-108.5T227 377zM-53 0l356 656h90L469 0h-81l-18 205H138L33 0h-86zm381 703l-30 44 165 116 37-60z"/><glyph glyph-name="Acircumflex" unicode="Â" horiz-adv-x="510" d="M227 377l-58-112h195l-10 112q-5 52-9.5 104.5T336 591h-4q-26-57-51.5-108.5T227 377zM-53 0l356 656h90L469 0h-81l-18 205H138L33 0h-86zm289 699l-33 28 124 111h87l84-113-39-25-90 93h-4z"/><glyph glyph-name="Atilde" unicode="Ã" horiz-adv-x="510" d="M227 377l-58-112h195l-10 112q-5 52-9.5 104.5T336 591h-4q-26-57-51.5-108.5T227 377zM-53 0l356 656h90L469 0h-81l-18 205H138L33 0h-86zm473 709q-26 0-43 11t-31 24.5-27 25-30 11.5q-40 0-60-67l-54 4q12 59 45 91t78 32q26 0 43.5-11.5t31-25T399 780t30-11q40 0 61 67l53-4q-12-60-45-91.5T420 709z"/><glyph glyph-name="Adieresis" unicode="Ä" horiz-adv-x="510" d="M227 377l-58-112h195l-10 112q-5 52-9.5 104.5T336 591h-4q-26-57-51.5-108.5T227 377zM-53 0l356 656h90L469 0h-81l-18 205H138L33 0h-86zm310 715q-17 0-28.5 10.5T217 755q0 22 15 38.5t36 16.5q17 0 28.5-10.5T308 769q0-21-15-37.5T257 715zm186 0q-17 0-28.5 10.5T403 755q0 22 15 38.5t36 16.5q17 0 28-10.5t11-30.5q0-21-14.5-37.5T443 715z"/><glyph glyph-name="Amacron" unicode="Ā" horiz-adv-x="510" d="M227 377l-58-112h195l-10 112q-5 52-9.5 104.5T336 591h-4q-26-57-51.5-108.5T227 377zM-53 0l356 656h90L469 0h-81l-18 205H138L33 0h-86zm273 729l11 54h256l-11-54H220z"/><glyph glyph-name="Abreve" unicode="Ă" horiz-adv-x="510" d="M227 377l-58-112h195l-10 112q-5 52-9.5 104.5T336 591h-4q-26-57-51.5-108.5T227 377zM-53 0l356 656h90L469 0h-81l-18 205H138L33 0h-86zm397 705q-35 0-58.5 10.5t-38.5 28-21 41-4 49.5l52 8q-2-35 17.5-59.5T354 758t70 24.5 41 59.5l49-8q-8-26-22-49.5t-35-41-49.5-28T344 705z"/><glyph glyph-name="Aring" unicode="Å" horiz-adv-x="510" d="M227 377l-58-112h195l-10 112q-5 52-9.5 104.5T336 591h-4q-26-57-51.5-108.5T227 377zM-53 0l356 656h90L469 0h-81l-18 205H138L33 0h-86zm405 700q-35 0-61.5 19T264 779q0 20 8.5 38t22.5 31.5 33.5 21.5 41.5 8q35 0 61.5-19.5T458 799q0-21-8.5-39T427 728.5t-33.5-21T352 700zm2 36q23 0 40.5 17t17.5 42q0 21-11.5 34T368 842q-23 0-40.5-17.5T310 782q0-21 11.5-33.5T354 736z"/><glyph glyph-name="uni01CD" unicode="Ǎ" horiz-adv-x="510" d="M227 377l-58-112h195l-10 112q-5 52-9.5 104.5T336 591h-4q-26-57-51.5-108.5T227 377zM-53 0l356 656h90L469 0h-81l-18 205H138L33 0h-86zm352 706l-84 113 39 25 90-93h4l129 94 33-28-124-111h-87z"/><glyph glyph-name="uni1EA0" unicode="Ạ" horiz-adv-x="510" d="M227 377l-58-112h195l-10 112q-5 52-9.5 104.5T336 591h-4q-26-57-51.5-108.5T227 377zM-53 0l356 656h90L469 0h-81l-18 205H138L33 0h-86zm244-204q-20 0-34.5 11.5T142-159q0 25 17.5 41.5T200-101q20 0 34.5-12t14.5-34q0-25-17.5-41T191-204z"/><glyph glyph-name="uni1EA2" unicode="Ả" horiz-adv-x="510" d="M227 377l-58-112h195l-10 112q-5 52-9.5 104.5T336 591h-4q-26-57-51.5-108.5T227 377zM-53 0l356 656h90L469 0h-81l-18 205H138L33 0h-86zm354 698l-3 38q26 7 44 17t21 29q7 39-75 42l18 48q66-2 98-22.5t25-58.5q-4-22-16.5-37.5t-29.5-27-38.5-18T301 698z"/><glyph glyph-name="uni1EA4" unicode="Ấ" horiz-adv-x="510" d="M227 377l-58-112h195l-10 112q-5 52-9.5 104.5T336 591h-4q-26-57-51.5-108.5T227 377zM-53 0l356 656h90L469 0h-81l-18 205H138L33 0h-86zm307 699l-31 26 110 90h72l77-91-38-25-78 69h-4zm222 69l-23 33 113 83 27-41z"/><glyph glyph-name="uni1EA6" unicode="Ầ" horiz-adv-x="510" d="M227 377l-58-112h195l-10 112q-5 52-9.5 104.5T336 591h-4q-26-57-51.5-108.5T227 377zM-53 0l356 656h90L469 0h-81l-18 205H138L33 0h-86zm307 699l-31 26 110 90h72l77-91-38-25-78 69h-4zm-6 75l-88 81 39 35 82-89z"/><glyph glyph-name="uni1EA8" unicode="Ẩ" horiz-adv-x="510" d="M227 377l-58-112h195l-10 112q-5 52-9.5 104.5T336 591h-4q-26-57-51.5-108.5T227 377zM-53 0l356 656h90L469 0h-81l-18 205H138L33 0h-86zm307 699l-31 26 110 90h72l77-91-38-25-78 69h-4zm218 57l-4 33q20 5 34 12.5t17 23.5q4 20-11 29t-53 11l14 41q59-2 87.5-20t20.5-53q-3-19-13-32.5T539.5 778t-32-14-35.5-8z"/><glyph glyph-name="uni1EAA" unicode="Ẫ" horiz-adv-x="510" d="M227 377l-58-112h195l-10 112q-5 52-9.5 104.5T336 591h-4q-26-57-51.5-108.5T227 377zM-53 0l356 656h90L469 0h-81l-18 205H138L33 0h-86zm306 699l-30 26 109 87h73l77-88-38-25-79 66h-4zm185 140q-24 0-39.5 8t-28 17-24.5 17-27 8q-17 0-27.5-12T273 843l-43 5q8 38 30.5 64.5T325 939q24 0 39.5-7.5t28-17 24-17T443 890q18 0 28.5 12t17.5 34l44-5q-8-39-30.5-65.5T438 839z"/><glyph glyph-name="uni1EAC" unicode="Ậ" horiz-adv-x="510" d="M227 377l-58-112h195l-10 112q-5 52-9.5 104.5T336 591h-4q-26-57-51.5-108.5T227 377zM-53 0l356 656h90L469 0h-81l-18 205H138L33 0h-86zm289 699l-33 28 124 111h87l84-113-39-25-90 93h-4zm-45-903q-20 0-34.5 11.5T142-159q0 25 17.5 41.5T200-101q20 0 34.5-12t14.5-34q0-25-17.5-41T191-204z"/><glyph glyph-name="uni1EAE" unicode="Ắ" horiz-adv-x="510" d="M227 377l-58-112h195l-10 112q-5 52-9.5 104.5T336 591h-4q-26-57-51.5-108.5T227 377zM-53 0l356 656h90L469 0h-81l-18 205H138L33 0h-86zm398 705q-35 0-58.5 10.5t-38.5 28-21 41-4 49.5l48 8q-1-37 19-62.5t64-25.5q45 0 73.5 25.5T470 842l45-8q-8-26-22-49.5t-35-41-49.5-28T345 705zm19 115l-36 32 115 106 46-40z"/><glyph glyph-name="uni1EB0" unicode="Ằ" horiz-adv-x="510" d="M227 377l-58-112h195l-10 112q-5 52-9.5 104.5T336 591h-4q-26-57-51.5-108.5T227 377zM-53 0l356 656h90L469 0h-81l-18 205H138L33 0h-86zm398 705q-35 0-58.5 10.5t-38.5 28-21 41-4 49.5l48 8q-1-37 19-62.5t64-25.5q45 0 73.5 25.5T470 842l45-8q-8-26-22-49.5t-35-41-49.5-28T345 705zm25 109l-87 117 57 31 74-123z"/><glyph glyph-name="uni1EB2" unicode="Ẳ" horiz-adv-x="510" d="M227 377l-58-112h195l-10 112q-5 52-9.5 104.5T336 591h-4q-26-57-51.5-108.5T227 377zM-53 0l356 656h90L469 0h-81l-18 205H138L33 0h-86zm397 705q-34 0-58 10.5t-38.5 28-20.5 41-4 49.5l48 8q-1-37 18.5-62.5T354 754q44 0 73 25.5t43 62.5l45-8q-8-26-22-49.5t-35.5-41-50-28T344 705zm-4 95l-4 35q20 5 34 12.5t18 23.5q3 20-12 28.5T325 910l16 42q58-2 86-20t21-53q-8-38-39.5-55.5T340 800z"/><glyph glyph-name="uni1EB4" unicode="Ẵ" horiz-adv-x="510" d="M227 377l-58-112h195l-10 112q-5 52-9.5 104.5T336 591h-4q-26-57-51.5-108.5T227 377zM-53 0l356 656h90L469 0h-81l-18 205H138L33 0h-86zm400 708q-35 0-59 8.5T249.5 740t-21 34-4.5 40l47 8q1-27 19.5-48t65.5-21q46 0 72 21t37 48l46-8q-7-21-20.5-40T457 740t-47.5-23.5T347 708zm91 135q-24 0-39.5 8t-28 17-24.5 17-27 8q-18 0-28.5-12T273 846l-44 5q9 39 31.5 65.5T325 943q24 0 39.5-8t28-17 24.5-17 27-8q18 0 28.5 12t17.5 34l44-5q-9-38-31.5-64.5T438 843z"/><glyph glyph-name="uni1EB6" unicode="Ặ" horiz-adv-x="510" d="M227 377l-58-112h195l-10 112q-5 52-9.5 104.5T336 591h-4q-26-57-51.5-108.5T227 377zM-53 0l356 656h90L469 0h-81l-18 205H138L33 0h-86zm397 705q-35 0-58.5 10.5t-38.5 28-21 41-4 49.5l52 8q-2-35 17.5-59.5T354 758t70 24.5 41 59.5l49-8q-8-26-22-49.5t-35-41-49.5-28T344 705zM191-204q-20 0-34.5 11.5T142-159q0 25 17.5 41.5T200-101q20 0 34.5-12t14.5-34q0-25-17.5-41T191-204z"/><glyph glyph-name="Aogonek" unicode="Ą" horiz-adv-x="510" d="M384-211q-34 0-56 17.5T306-142q0 21 9 42t22.5 39.5 30.5 34T401 0h-13l-18 205H138L33 0h-86l356 656h90L469 0q-48-27-73-58.5T371-119q0-18 10.5-28t25.5-10q18 0 36 11l17-42q-17-11-38-17t-38-6zM227 377l-58-112h195l-10 112q-5 52-9.5 104.5T336 591h-4q-26-57-51.5-108.5T227 377z"/><glyph glyph-name="AE" unicode="Æ" horiz-adv-x="803" d="M313 380l-84-124h168l68 341h-3q-38-56-74.5-109T313 380zM-33 0l459 656h402l-14-65H541l-42-213h229l-13-66H487L436 66h282L705 0H346l39 194H187L56 0h-89z"/><glyph glyph-name="Ccedilla" unicode="Ç" horiz-adv-x="550" d="M290-12q-56 0-99.5 19.5t-73 54.5-45 83.5T57 253q0 77 24.5 151.5t69 133 107 94.5T396 668q57 0 97-27.5t64-69.5l-54-41q-20 32-46.5 51.5T392 601q-59 0-106-31t-80-80-51-109.5T137 260q0-45 9.5-82.5T176 113t52-42.5T304 55q40 0 73.5 16t65.5 43l35-50q-36-32-82-54T290-12zM149-226l-2 39q60 2 88.5 16t30.5 38q0 19-15.5 29T197-90l60 93h54l-41-68q35-9 48-23.5t11-39.5q-4-48-52-72t-128-26z"/><glyph glyph-name="Cacute" unicode="Ć" horiz-adv-x="550" d="M290-12q-56 0-99.5 19.5t-73 54.5-45 83.5T57 253q0 77 24.5 151.5t69 133 107 94.5T396 668q57 0 97-27.5t64-69.5l-54-41q-20 32-46.5 51.5T392 601q-59 0-106-31t-80-80-51-109.5T137 260q0-45 9.5-82.5T176 113t52-42.5T304 55q40 0 73.5 16t65.5 43l35-50q-36-32-82-54T290-12zm103 715l-30 44 165 116 37-60z"/><glyph glyph-name="Ccircumflex" unicode="Ĉ" horiz-adv-x="550" d="M290-12q-56 0-99.5 19.5t-73 54.5-45 83.5T57 253q0 77 24.5 151.5t69 133 107 94.5T396 668q57 0 97-27.5t64-69.5l-54-41q-20 32-46.5 51.5T392 601q-59 0-106-31t-80-80-51-109.5T137 260q0-45 9.5-82.5T176 113t52-42.5T304 55q40 0 73.5 16t65.5 43l35-50q-36-32-82-54T290-12zm11 711l-33 28 124 111h87l84-113-39-25-90 93h-4z"/><glyph glyph-name="Ccaron" unicode="Č" horiz-adv-x="550" d="M290-12q-56 0-99.5 19.5t-73 54.5-45 83.5T57 253q0 77 24.5 151.5t69 133 107 94.5T396 668q57 0 97-27.5t64-69.5l-54-41q-20 32-46.5 51.5T392 601q-59 0-106-31t-80-80-51-109.5T137 260q0-45 9.5-82.5T176 113t52-42.5T304 55q40 0 73.5 16t65.5 43l35-50q-36-32-82-54T290-12zm74 718l-84 113 39 25 90-93h4l129 94 33-28-124-111h-87z"/><glyph glyph-name="Cdotaccent" unicode="Ċ" horiz-adv-x="550" d="M290-12q-56 0-99.5 19.5t-73 54.5-45 83.5T57 253q0 77 24.5 151.5t69 133 107 94.5T396 668q57 0 97-27.5t64-69.5l-54-41q-20 32-46.5 51.5T392 601q-59 0-106-31t-80-80-51-109.5T137 260q0-45 9.5-82.5T176 113t52-42.5T304 55q40 0 73.5 16t65.5 43l35-50q-36-32-82-54T290-12zm126 728q-20 0-34.5 11.5T367 761q0 24 17.5 41t40.5 17q20 0 34.5-12t14.5-34q0-25-17.5-41T416 716z"/><glyph glyph-name="Dcaron" unicode="Ď" horiz-adv-x="592" d="M35 0l131 656h122q137 0 207.5-67.5T566 400q0-89-24.5-163t-70-126.5T360 29 211 0H35zm90 64h86q64 0 115 24.5t87 68T468 261t19 134q0 94-51 146t-151 52h-54zm202 642l-84 113 39 25 90-93h4l129 94 33-28-124-111h-87z"/><glyph glyph-name="uni1E0C" unicode="Ḍ" horiz-adv-x="592" d="M35 0l131 656h122q137 0 207.5-67.5T566 400q0-89-24.5-163t-70-126.5T360 29 211 0H35zm90 64h86q64 0 115 24.5t87 68T468 261t19 134q0 94-51 146t-151 52h-54zm105-268q-20 0-34.5 11.5T181-159q0 25 17.5 41.5T239-101q20 0 34.5-12t14.5-34q0-25-17.5-41T230-204z"/><glyph glyph-name="uni1E0E" unicode="Ḏ" horiz-adv-x="592" d="M35 0l131 656h122q137 0 207.5-67.5T566 400q0-89-24.5-163t-70-126.5T360 29 211 0H35zm90 64h86q64 0 115 24.5t87 68T468 261t19 134q0 94-51 146t-151 52h-54zm-20-228l10 54h254l-9-54H105z"/><glyph glyph-name="Dcroat" unicode="Đ" horiz-adv-x="610" d="M47 324l9 41 70 3 58 288h122q137 0 207.5-67.5T584 400q0-89-24.5-163t-70-126.5T378 29 229 0H53l65 324H47zm96-260h86q64 0 115 24.5t87 68T486 261t19 134q0 94-51 146t-151 52h-54l-45-225h150l-10-44H195z"/><glyph glyph-name="Egrave" unicode="È" horiz-adv-x="503" d="M35 0l131 656h362l-13-65H230l-42-213h241l-14-66H176L125 66h294L405 0H35zm347 693L248 820l56 50 122-140z"/><glyph glyph-name="Eacute" unicode="É" horiz-adv-x="503" d="M35 0l131 656h362l-13-65H230l-42-213h241l-14-66H176L125 66h294L405 0H35zm304 703l-30 44 165 116 37-60z"/><glyph glyph-name="Ecircumflex" unicode="Ê" horiz-adv-x="503" d="M35 0l131 656h362l-13-65H230l-42-213h241l-14-66H176L125 66h294L405 0H35zm212 699l-33 28 124 111h87l84-113-39-25-90 93h-4z"/><glyph glyph-name="Ecaron" unicode="Ě" horiz-adv-x="503" d="M35 0l131 656h362l-13-65H230l-42-213h241l-14-66H176L125 66h294L405 0H35zm275 706l-84 113 39 25 90-93h4l129 94 33-28-124-111h-87z"/><glyph glyph-name="Edieresis" unicode="Ë" horiz-adv-x="503" d="M35 0l131 656h362l-13-65H230l-42-213h241l-14-66H176L125 66h294L405 0H35zm233 715q-17 0-28.5 10.5T228 755q0 22 15 38.5t36 16.5q17 0 28.5-10.5T319 769q0-21-15-37.5T268 715zm186 0q-17 0-28.5 10.5T414 755q0 22 15 38.5t36 16.5q17 0 28-10.5t11-30.5q0-21-14.5-37.5T454 715z"/><glyph glyph-name="Emacron" unicode="Ē" horiz-adv-x="503" d="M35 0l131 656h362l-13-65H230l-42-213h241l-14-66H176L125 66h294L405 0H35zm196 729l11 54h256l-11-54H231z"/><glyph glyph-name="Ebreve" unicode="Ĕ" horiz-adv-x="503" d="M35 0l131 656h362l-13-65H230l-42-213h241l-14-66H176L125 66h294L405 0H35zm320 705q-35 0-58.5 10.5t-38.5 28-21 41-4 49.5l52 8q-2-35 17.5-59.5T365 758t70 24.5 41 59.5l49-8q-8-26-22-49.5t-35-41-49.5-28T355 705z"/><glyph glyph-name="Edotaccent" unicode="Ė" horiz-adv-x="503" d="M35 0l131 656h362l-13-65H230l-42-213h241l-14-66H176L125 66h294L405 0H35zm327 716q-20 0-34.5 11.5T313 761q0 24 17.5 41t40.5 17q20 0 34.5-12t14.5-34q0-25-17.5-41T362 716z"/><glyph glyph-name="uni1EB8" unicode="Ẹ" horiz-adv-x="503" d="M35 0l131 656h362l-13-65H230l-42-213h241l-14-66H176L125 66h294L405 0H35zm172-204q-20 0-34.5 11.5T158-159q0 25 17.5 41.5T216-101q20 0 34.5-12t14.5-34q0-25-17.5-41T207-204z"/><glyph glyph-name="uni1EBA" unicode="Ẻ" horiz-adv-x="503" d="M35 0l131 656h362l-13-65H230l-42-213h241l-14-66H176L125 66h294L405 0H35zm277 698l-3 38q26 7 44 17t21 29q7 39-75 42l18 48q66-2 98-22.5t25-58.5q-4-22-16.5-37.5t-29.5-27-38.5-18T312 698z"/><glyph glyph-name="uni1EBC" unicode="Ẽ" horiz-adv-x="503" d="M35 0l131 656h362l-13-65H230l-42-213h241l-14-66H176L125 66h294L405 0H35zm396 709q-26 0-43 11t-31 24.5-27 25-30 11.5q-40 0-60-67l-54 4q12 59 45 91t78 32q26 0 43.5-11.5t31-25T410 780t30-11q40 0 61 67l53-4q-12-60-45-91.5T431 709z"/><glyph glyph-name="uni1EBE" unicode="Ế" horiz-adv-x="503" d="M35 0l131 656h362l-13-65H230l-42-213h241l-14-66H176L125 66h294L405 0H35zm229 699l-31 26 110 90h72l77-91-38-25-78 69h-4zm222 69l-23 33 113 83 27-41z"/><glyph glyph-name="uni1EC0" unicode="Ề" horiz-adv-x="503" d="M35 0l131 656h362l-13-65H230l-42-213h241l-14-66H176L125 66h294L405 0H35zm229 699l-31 26 110 90h72l77-91-38-25-78 69h-4zm-6 75l-88 81 39 35 82-89z"/><glyph glyph-name="uni1EC2" unicode="Ể" horiz-adv-x="503" d="M35 0l131 656h362l-13-65H230l-42-213h241l-14-66H176L125 66h294L405 0H35zm229 699l-31 26 110 90h72l77-91-38-25-78 69h-4zm218 57l-4 33q20 5 34 12.5t17 23.5q4 20-11 29t-53 11l14 41q59-2 87.5-20t20.5-53q-3-19-13-32.5T549.5 778t-32-14-35.5-8z"/><glyph glyph-name="uni1EC4" unicode="Ễ" horiz-adv-x="503" d="M35 0l131 656h362l-13-65H230l-42-213h241l-14-66H176L125 66h294L405 0H35zm228 699l-30 26 109 87h73l77-88-38-25-79 66h-4zm185 140q-24 0-39.5 8t-28 17-24.5 17-27 8q-17 0-27.5-12T283 843l-43 5q8 38 30.5 64.5T335 939q24 0 39.5-7.5t28-17 24-17T453 890q18 0 28.5 12t17.5 34l44-5q-8-39-30.5-65.5T448 839z"/><glyph glyph-name="uni1EC6" unicode="Ệ" horiz-adv-x="503" d="M35 0l131 656h362l-13-65H230l-42-213h241l-14-66H176L125 66h294L405 0H35zm212 699l-33 28 124 111h87l84-113-39-25-90 93h-4zm-40-903q-20 0-34.5 11.5T158-159q0 25 17.5 41.5T216-101q20 0 34.5-12t14.5-34q0-25-17.5-41T207-204z"/><glyph glyph-name="Eogonek" unicode="Ę" horiz-adv-x="503" d="M35 0l131 656h362l-13-65H230l-42-213h241l-14-66H176L125 66h294L405 0q-23-3-43.5-16T326-46.5t-24-37-9-35.5q0-18 10.5-28t26.5-10q17 0 35 11l17-42q-17-11-37.5-17t-38.5-6q-34 0-56 17.5T228-142q0 22 9.5 43T261-59t30.5 34T322 0H35z"/><glyph glyph-name="Gcircumflex" unicode="Ĝ" horiz-adv-x="588" d="M300-12q-59 0-104.5 19T119 60.5 72.5 144 57 253q0 78 24.5 152.5t69.5 133 109.5 94T406 668q59 0 99.5-27.5T571 571l-55-41q-19 32-46.5 51.5T402 601q-62 0-111-31t-83.5-80T155 380.5 137 260q0-44 9.5-81.5T177 113t54-43.5T311 54q36 0 64 11.5T423 94l37 181H324l13 64h206L486 55q-36-30-82.5-48.5T300-12zm-1 711l-33 28 124 111h87l84-113-39-25-90 93h-4z"/><glyph glyph-name="Gbreve" unicode="Ğ" horiz-adv-x="588" d="M300-12q-59 0-104.5 19T119 60.5 72.5 144 57 253q0 78 24.5 152.5t69.5 133 109.5 94T406 668q59 0 99.5-27.5T571 571l-55-41q-19 32-46.5 51.5T402 601q-62 0-111-31t-83.5-80T155 380.5 137 260q0-44 9.5-81.5T177 113t54-43.5T311 54q36 0 64 11.5T423 94l37 181H324l13 64h206L486 55q-36-30-82.5-48.5T300-12zm107 717q-35 0-58.5 10.5t-38.5 28-21 41-4 49.5l52 8q-2-35 17.5-59.5T417 758t70 24.5 41 59.5l49-8q-8-26-22-49.5t-35-41-49.5-28T407 705z"/><glyph glyph-name="Gdotaccent" unicode="Ġ" horiz-adv-x="588" d="M300-12q-59 0-104.5 19T119 60.5 72.5 144 57 253q0 78 24.5 152.5t69.5 133 109.5 94T406 668q59 0 99.5-27.5T571 571l-55-41q-19 32-46.5 51.5T402 601q-62 0-111-31t-83.5-80T155 380.5 137 260q0-44 9.5-81.5T177 113t54-43.5T311 54q36 0 64 11.5T423 94l37 181H324l13 64h206L486 55q-36-30-82.5-48.5T300-12zm114 728q-20 0-34.5 11.5T365 761q0 24 17.5 41t40.5 17q20 0 34.5-12t14.5-34q0-25-17.5-41T414 716z"/><glyph glyph-name="uni0122" unicode="Ģ" horiz-adv-x="588" d="M300-12q-59 0-104.5 19T119 60.5 72.5 144 57 253q0 78 24.5 152.5t69.5 133 109.5 94T406 668q59 0 99.5-27.5T571 571l-55-41q-19 32-46.5 51.5T402 601q-62 0-111-31t-83.5-80T155 380.5 137 260q0-44 9.5-81.5T177 113t54-43.5T311 54q36 0 64 11.5T423 94l37 181H324l13 64h206L486 55q-36-30-82.5-48.5T300-12zM172-218v39q60 2 88.5 16.5T289-126q0 17-14.5 27T226-87l23 37q32-3 52.5-8.5t32-13.5 16-19.5T354-116q0-25-13.5-43.5T303-191t-57.5-19.5T172-218z"/><glyph glyph-name="Gcaron" unicode="Ǧ" horiz-adv-x="588" d="M300-12q-59 0-104.5 19T119 60.5 72.5 144 57 253q0 78 24.5 152.5t69.5 133 109.5 94T406 668q59 0 99.5-27.5T571 571l-55-41q-19 32-46.5 51.5T402 601q-62 0-111-31t-83.5-80T155 380.5 137 260q0-44 9.5-81.5T177 113t54-43.5T311 54q36 0 64 11.5T423 94l37 181H324l13 64h206L486 55q-36-30-82.5-48.5T300-12zm62 718l-84 113 39 25 90-93h4l129 94 33-28-124-111h-87z"/><glyph glyph-name="uni1E20" unicode="Ḡ" horiz-adv-x="588" d="M300-12q-59 0-104.5 19T119 60.5 72.5 144 57 253q0 78 24.5 152.5t69.5 133 109.5 94T406 668q59 0 99.5-27.5T571 571l-55-41q-19 32-46.5 51.5T402 601q-62 0-111-31t-83.5-80T155 380.5 137 260q0-44 9.5-81.5T177 113t54-43.5T311 54q36 0 64 11.5T423 94l37 181H324l13 64h206L486 55q-36-30-82.5-48.5T300-12zm-17 741l11 54h256l-11-54H283z"/><glyph glyph-name="uni00470303" horiz-adv-x="588" d="M300-12q-59 0-104.5 19T119 60.5 72.5 144 57 253q0 78 24.5 152.5t69.5 133 109.5 94T406 668q59 0 99.5-27.5T571 571l-55-41q-19 32-46.5 51.5T402 601q-62 0-111-31t-83.5-80T155 380.5 137 260q0-44 9.5-81.5T177 113t54-43.5T311 54q36 0 64 11.5T423 94l37 181H324l13 64h206L486 55q-36-30-82.5-48.5T300-12zm183 721q-26 0-43 11t-31 24.5-27 25-30 11.5q-40 0-60-67l-54 4q12 59 45 91t78 32q26 0 43.5-11.5t31-25T462 780t30-11q40 0 61 67l53-4q-12-60-45-91.5T483 709z"/><glyph glyph-name="Hcircumflex" unicode="Ĥ" horiz-adv-x="622" d="M35 0l131 656h78l-56-277h296l56 277h77L486 0h-78l63 312H175L113 0H35zm244 699l-33 28 124 111h87l84-113-39-25-90 93h-4z"/><glyph glyph-name="uni1E24" unicode="Ḥ" horiz-adv-x="622" d="M35 0l131 656h78l-56-277h296l56 277h77L486 0h-78l63 312H175L113 0H35zm208-204q-20 0-34.5 11.5T194-159q0 25 17.5 41.5T252-101q20 0 34.5-12t14.5-34q0-25-17.5-41T243-204z"/><glyph glyph-name="uni1E2A" unicode="Ḫ" horiz-adv-x="622" d="M35 0l131 656h78l-56-277h296l56 277h77L486 0h-78l63 312H175L113 0H35zm203-210q-39 0-65 13t-41 34.5-20 48.5-2 55l53 8q-1-19 3-37.5t14.5-33.5 27.5-24 41-9 44 9 35 24 26 33.5T372-51l50-8q-7-28-21.5-55t-37-48.5-54-34.5-71.5-13z"/><glyph glyph-name="Hbar" unicode="Ħ" horiz-adv-x="643" d="M76 493l9 41 66 3 24 119h78l-24-119h296l24 119h77l-24-119h84l-9-44h-84L495 0h-78l63 312H184L122 0H44l98 493H76zm121-114h296l23 114H220z"/><glyph glyph-name="Igrave" unicode="Ì" horiz-adv-x="252" d="M35 0l131 656h78L113 0H35zm198 693L99 820l56 50 122-140z"/><glyph glyph-name="Iacute" unicode="Í" horiz-adv-x="252" d="M35 0l131 656h78L113 0H35zm155 703l-30 44 165 116 37-60z"/><glyph glyph-name="Icircumflex" unicode="Î" horiz-adv-x="252" d="M35 0l131 656h78L113 0H35zm63 699l-33 28 124 111h87l84-113-39-25-90 93h-4z"/><glyph glyph-name="Itilde" unicode="Ĩ" horiz-adv-x="252" d="M35 0l131 656h78L113 0H35zm247 709q-26 0-43 11t-31 24.5-27 25-30 11.5q-40 0-60-67l-54 4q12 59 45 91t78 32q26 0 43.5-11.5t31-25T261 780t30-11q40 0 61 67l53-4q-12-60-45-91.5T282 709z"/><glyph glyph-name="Idieresis" unicode="Ï" horiz-adv-x="252" d="M35 0l131 656h78L113 0H35zm84 715q-17 0-28.5 10.5T79 755q0 22 15 38.5t36 16.5q17 0 28.5-10.5T170 769q0-21-15-37.5T119 715zm186 0q-17 0-28.5 10.5T265 755q0 22 15 38.5t36 16.5q17 0 28-10.5t11-30.5q0-21-14.5-37.5T305 715z"/><glyph glyph-name="Imacron" unicode="Ī" horiz-adv-x="252" d="M35 0l131 656h78L113 0H35zm47 729l11 54h256l-11-54H82z"/><glyph glyph-name="Idotaccent" unicode="İ" horiz-adv-x="252" d="M35 0l131 656h78L113 0H35zm178 716q-20 0-34.5 11.5T164 761q0 24 17.5 41t40.5 17q20 0 34.5-12t14.5-34q0-25-17.5-41T213 716z"/><glyph glyph-name="uni01CF" unicode="Ǐ" horiz-adv-x="252" d="M35 0l131 656h78L113 0H35zm126 706L77 819l39 25 90-93h4l129 94 33-28-124-111h-87z"/><glyph glyph-name="uni1EC8" unicode="Ỉ" horiz-adv-x="252" d="M35 0l131 656h78L113 0H35zm128 698l-3 38q26 7 44 17t21 29q7 39-75 42l18 48q66-2 98-22.5t25-58.5q-4-22-16.5-37.5t-29.5-27-38.5-18T163 698z"/><glyph glyph-name="uni1ECA" unicode="Ị" horiz-adv-x="252" d="M35 0l131 656h78L113 0H35zm14-209q-20 0-34.5 11.5T0-164q0 25 17.5 41.5T58-106q20 0 34.5-12t14.5-34q0-25-17.5-41T49-209z"/><glyph glyph-name="Iogonek" unicode="Į" horiz-adv-x="252" d="M37-211q-33 0-54.5 17.5T-39-142q0 22 9 43t22.5 40 29 34T50 0H35l131 656h78L113 0Q75-23 50.5-56.5T26-119q0-18 10.5-28T62-157q18 0 35 11l18-40q-16-11-38.5-18T37-211z"/><glyph glyph-name="Jcircumflex" unicode="Ĵ" horiz-adv-x="456" d="M159-12q-59 0-99.5 27.5T-2 89l51 43q14-36 42-56.5T161 55q50 0 81 37t44 103l92 461h78l-94-472q-8-42-25-78t-42-62.5-59-41T159-12zm150 711l-33 28 124 111h87l84-113-39-25-90 93h-4z"/><glyph glyph-name="uni0136" unicode="Ķ" horiz-adv-x="559" d="M35 0l131 656h78l-65-324h3l329 324h88L353 404 502 0h-81L295 354 158 220 113 0H35zm113-218v39q60 2 88.5 16.5T265-126q0 17-14.5 27T202-87l23 37q32-3 52.5-8.5t32-13.5 16-19.5T330-116q0-25-13.5-43.5T279-191t-57.5-19.5T148-218z"/><glyph glyph-name="Lacute" unicode="Ĺ" horiz-adv-x="462" d="M35 0l131 656h78L126 66h276L389 0H35zm161 703l-30 44 165 116 37-60z"/><glyph glyph-name="Lcaron" unicode="Ľ" horiz-adv-x="462" d="M35 0l131 656h78L126 66h276L389 0H35zm335 513l40 212h54l-11-57-44-155h-39z"/><glyph glyph-name="uni013B" unicode="Ļ" horiz-adv-x="462" d="M35 0l131 656h78L126 66h276L389 0H35zm64-218v39q60 2 88.5 16.5T216-126q0 17-14.5 27T153-87l23 37q32-3 52.5-8.5t32-13.5 16-19.5T281-116q0-25-13.5-43.5T230-191t-57.5-19.5T99-218z"/><glyph glyph-name="Ldot" unicode="Ŀ" horiz-adv-x="462" d="M35 0l131 656h78L126 66h276L389 0H35zm331 268q-22 0-34.5 14T319 318q0 26 19 48t48 22q22 0 34-14.5t12-36.5q0-26-18.5-47.5T366 268z"/><glyph glyph-name="uni1E36" unicode="Ḷ" horiz-adv-x="462" d="M35 0l131 656h78L126 66h276L389 0H35zm159-204q-20 0-34.5 11.5T145-159q0 25 17.5 41.5T203-101q20 0 34.5-12t14.5-34q0-25-17.5-41T194-204z"/><glyph glyph-name="uni1E38" unicode="Ḹ" horiz-adv-x="462" d="M35 0l131 656h78L126 66h276L389 0H35zm53 729l11 54h256l-11-54H88zm106-933q-20 0-34.5 11.5T145-159q0 25 17.5 41.5T203-101q20 0 34.5-12t14.5-34q0-25-17.5-41T194-204z"/><glyph glyph-name="uni1E3A" unicode="Ḻ" horiz-adv-x="462" d="M35 0l131 656h78L126 66h276L389 0H35zm34-164l10 54h254l-9-54H69z"/><glyph glyph-name="Lslash" unicode="Ł" horiz-adv-x="462" d="M11 202l-20 53 105 50 70 351h78l-62-312 180 89 21-53-215-103-42-211h276L389 0H35l47 237z"/><glyph glyph-name="uni1E42" unicode="Ṃ" horiz-adv-x="705" d="M35 0l131 656h93l57-354 22-136h4l70 136 195 354h93L569 0h-75l76 370q9 45 22 97.5t25 95.5h-4l-79-146L341 69h-44l-61 348-22 146h-4q-6-45-13-96.5T182 370L108 0H35zm244-212q-20 0-34.5 11.5T230-167q0 25 17.5 41.5T288-109q20 0 34.5-12t14.5-34q0-25-17.5-41T279-212z"/><glyph glyph-name="Nacute" unicode="Ń" horiz-adv-x="619" d="M35 0l131 656h78l150-420 42-137h4q6 49 12.5 103.5T470 308l69 348h75L483 0h-77L258 419l-43 141h-4q-6-51-13.5-104T180 353L110 0H35zm345 703l-30 44 165 116 37-60z"/><glyph glyph-name="Ncaron" unicode="Ň" horiz-adv-x="619" d="M35 0l131 656h78l150-420 42-137h4q6 49 12.5 103.5T470 308l69 348h75L483 0h-77L258 419l-43 141h-4q-6-51-13.5-104T180 353L110 0H35zm316 706l-84 113 39 25 90-93h4l129 94 33-28-124-111h-87z"/><glyph glyph-name="Ntilde" unicode="Ñ" horiz-adv-x="619" d="M35 0l131 656h78l150-420 42-137h4q6 49 12.5 103.5T470 308l69 348h75L483 0h-77L258 419l-43 141h-4q-6-51-13.5-104T180 353L110 0H35zm437 709q-26 0-43 11t-31 24.5-27 25-30 11.5q-40 0-60-67l-54 4q12 59 45 91t78 32q26 0 43.5-11.5t31-25T451 780t30-11q40 0 61 67l53-4q-12-60-45-91.5T472 709z"/><glyph glyph-name="uni0145" unicode="Ņ" horiz-adv-x="619" d="M35 0l131 656h78l150-420 42-137h4q6 49 12.5 103.5T470 308l69 348h75L483 0h-77L258 419l-43 141h-4q-6-51-13.5-104T180 353L110 0H35zm113-226v39q60 2 88.5 16.5T265-134q0 17-14.5 27T202-95l23 37q32-3 52.5-8.5t32-13.5 16-19.5T330-124q0-25-13.5-43.5T279-199t-57.5-19.5T148-226z"/><glyph glyph-name="uni1E44" unicode="Ṅ" horiz-adv-x="619" d="M35 0l131 656h78l150-420 42-137h4q6 49 12.5 103.5T470 308l69 348h75L483 0h-77L258 419l-43 141h-4q-6-51-13.5-104T180 353L110 0H35zm368 716q-20 0-34.5 11.5T354 761q0 24 17.5 41t40.5 17q20 0 34.5-12t14.5-34q0-25-17.5-41T403 716z"/><glyph glyph-name="uni1E46" unicode="Ṇ" horiz-adv-x="619" d="M35 0l131 656h78l150-420 42-137h4q6 49 12.5 103.5T470 308l69 348h75L483 0h-77L258 419l-43 141h-4q-6-51-13.5-104T180 353L110 0H35zm208-212q-20 0-34.5 11.5T194-167q0 25 17.5 41.5T252-109q20 0 34.5-12t14.5-34q0-25-17.5-41T243-212z"/><glyph glyph-name="uni1E48" unicode="Ṉ" horiz-adv-x="619" d="M35 0l131 656h78l150-420 42-137h4q6 49 12.5 103.5T470 308l69 348h75L483 0h-77L258 419l-43 141h-4q-6-51-13.5-104T180 353L110 0H35zm83-172l10 54h254l-9-54H118z"/><glyph glyph-name="Ograve" unicode="Ò" horiz-adv-x="633" d="M287-12q-55 0-97.5 19.5t-71 55.5T75 150 60 263q0 75 23.5 147.5t65.5 130T249.5 633 379 668q55 0 97.5-19.5t71-55.5 43.5-86.5T606 394q0-75-23.5-148T517 115.5 416 23 287-12zm4 67q53 0 96.5 30.5T462 164t48 107 17 116q0 97-37 155.5T375 601q-53 0-96.5-30T204 493t-48-107-17-117q0-48 9-87.5t27.5-67.5T223 70.5 291 55zm139 638L296 820l56 50 122-140z"/><glyph glyph-name="Oacute" unicode="Ó" horiz-adv-x="633" d="M287-12q-55 0-97.5 19.5t-71 55.5T75 150 60 263q0 75 23.5 147.5t65.5 130T249.5 633 379 668q55 0 97.5-19.5t71-55.5 43.5-86.5T606 394q0-75-23.5-148T517 115.5 416 23 287-12zm4 67q53 0 96.5 30.5T462 164t48 107 17 116q0 97-37 155.5T375 601q-53 0-96.5-30T204 493t-48-107-17-117q0-48 9-87.5t27.5-67.5T223 70.5 291 55zm96 648l-30 44 165 116 37-60z"/><glyph glyph-name="Ocircumflex" unicode="Ô" horiz-adv-x="633" d="M287-12q-55 0-97.5 19.5t-71 55.5T75 150 60 263q0 75 23.5 147.5t65.5 130T249.5 633 379 668q55 0 97.5-19.5t71-55.5 43.5-86.5T606 394q0-75-23.5-148T517 115.5 416 23 287-12zm4 67q53 0 96.5 30.5T462 164t48 107 17 116q0 97-37 155.5T375 601q-53 0-96.5-30T204 493t-48-107-17-117q0-48 9-87.5t27.5-67.5T223 70.5 291 55zm4 644l-33 28 124 111h87l84-113-39-25-90 93h-4z"/><glyph glyph-name="Otilde" unicode="Õ" horiz-adv-x="633" d="M287-12q-55 0-97.5 19.5t-71 55.5T75 150 60 263q0 75 23.5 147.5t65.5 130T249.5 633 379 668q55 0 97.5-19.5t71-55.5 43.5-86.5T606 394q0-75-23.5-148T517 115.5 416 23 287-12zm4 67q53 0 96.5 30.5T462 164t48 107 17 116q0 97-37 155.5T375 601q-53 0-96.5-30T204 493t-48-107-17-117q0-48 9-87.5t27.5-67.5T223 70.5 291 55zm188 654q-26 0-43 11t-31 24.5-27 25-30 11.5q-40 0-60-67l-54 4q12 59 45 91t78 32q26 0 43.5-11.5t31-25T458 780t30-11q40 0 61 67l53-4q-12-60-45-91.5T479 709z"/><glyph glyph-name="Odieresis" unicode="Ö" horiz-adv-x="633" d="M287-12q-55 0-97.5 19.5t-71 55.5T75 150 60 263q0 75 23.5 147.5t65.5 130T249.5 633 379 668q55 0 97.5-19.5t71-55.5 43.5-86.5T606 394q0-75-23.5-148T517 115.5 416 23 287-12zm4 67q53 0 96.5 30.5T462 164t48 107 17 116q0 97-37 155.5T375 601q-53 0-96.5-30T204 493t-48-107-17-117q0-48 9-87.5t27.5-67.5T223 70.5 291 55zm25 660q-17 0-28.5 10.5T276 755q0 22 15 38.5t36 16.5q17 0 28.5-10.5T367 769q0-21-15-37.5T316 715zm186 0q-17 0-28.5 10.5T462 755q0 22 15 38.5t36 16.5q17 0 28-10.5t11-30.5q0-21-14.5-37.5T502 715z"/><glyph glyph-name="Omacron" unicode="Ō" horiz-adv-x="633" d="M287-12q-55 0-97.5 19.5t-71 55.5T75 150 60 263q0 75 23.5 147.5t65.5 130T249.5 633 379 668q55 0 97.5-19.5t71-55.5 43.5-86.5T606 394q0-75-23.5-148T517 115.5 416 23 287-12zm4 67q53 0 96.5 30.5T462 164t48 107 17 116q0 97-37 155.5T375 601q-53 0-96.5-30T204 493t-48-107-17-117q0-48 9-87.5t27.5-67.5T223 70.5 291 55zm-12 674l11 54h256l-11-54H279z"/><glyph glyph-name="Ohungarumlaut" unicode="Ő" horiz-adv-x="633" d="M287-12q-55 0-97.5 19.5t-71 55.5T75 150 60 263q0 75 23.5 147.5t65.5 130T249.5 633 379 668q55 0 97.5-19.5t71-55.5 43.5-86.5T606 394q0-75-23.5-148T517 115.5 416 23 287-12zm4 67q53 0 96.5 30.5T462 164t48 107 17 116q0 97-37 155.5T375 601q-53 0-96.5-30T204 493t-48-107-17-117q0-48 9-87.5t27.5-67.5T223 70.5 291 55zm58 651l-39 25 119 142 50-36zm160 0l-39 25 119 142 50-36z"/><glyph glyph-name="uni01D1" unicode="Ǒ" horiz-adv-x="633" d="M287-12q-55 0-97.5 19.5t-71 55.5T75 150 60 263q0 75 23.5 147.5t65.5 130T249.5 633 379 668q55 0 97.5-19.5t71-55.5 43.5-86.5T606 394q0-75-23.5-148T517 115.5 416 23 287-12zm4 67q53 0 96.5 30.5T462 164t48 107 17 116q0 97-37 155.5T375 601q-53 0-96.5-30T204 493t-48-107-17-117q0-48 9-87.5t27.5-67.5T223 70.5 291 55zm67 651l-84 113 39 25 90-93h4l129 94 33-28-124-111h-87z"/><glyph glyph-name="uni1ECC" unicode="Ọ" horiz-adv-x="633" d="M287-12q-55 0-97.5 19.5t-71 55.5T75 150 60 263q0 75 23.5 147.5t65.5 130T249.5 633 379 668q55 0 97.5-19.5t71-55.5 43.5-86.5T606 394q0-75-23.5-148T517 115.5 416 23 287-12zm4 67q53 0 96.5 30.5T462 164t48 107 17 116q0 97-37 155.5T375 601q-53 0-96.5-30T204 493t-48-107-17-117q0-48 9-87.5t27.5-67.5T223 70.5 291 55zm-43-259q-20 0-34.5 11.5T199-159q0 25 17.5 41.5T257-101q20 0 34.5-12t14.5-34q0-25-17.5-41T248-204z"/><glyph glyph-name="uni1ECE" unicode="Ỏ" horiz-adv-x="633" d="M287-12q-55 0-97.5 19.5t-71 55.5T75 150 60 263q0 75 23.5 147.5t65.5 130T249.5 633 379 668q55 0 97.5-19.5t71-55.5 43.5-86.5T606 394q0-75-23.5-148T517 115.5 416 23 287-12zm4 67q53 0 96.5 30.5T462 164t48 107 17 116q0 97-37 155.5T375 601q-53 0-96.5-30T204 493t-48-107-17-117q0-48 9-87.5t27.5-67.5T223 70.5 291 55zm69 643l-3 38q26 7 44 17t21 29q7 39-75 42l18 48q66-2 98-22.5t25-58.5q-4-22-16.5-37.5t-29.5-27-38.5-18T360 698z"/><glyph glyph-name="uni1ED0" unicode="Ố" horiz-adv-x="633" d="M287-12q-55 0-97.5 19.5t-71 55.5T75 150 60 263q0 75 23.5 147.5t65.5 130T249.5 633 379 668q55 0 97.5-19.5t71-55.5 43.5-86.5T606 394q0-75-23.5-148T517 115.5 416 23 287-12zm4 67q53 0 96.5 30.5T462 164t48 107 17 116q0 97-37 155.5T375 601q-53 0-96.5-30T204 493t-48-107-17-117q0-48 9-87.5t27.5-67.5T223 70.5 291 55zm21 644l-31 26 110 90h72l77-91-38-25-78 69h-4zm222 69l-23 33 113 83 27-41z"/><glyph glyph-name="uni1ED2" unicode="Ồ" horiz-adv-x="633" d="M287-12q-55 0-97.5 19.5t-71 55.5T75 150 60 263q0 75 23.5 147.5t65.5 130T249.5 633 379 668q55 0 97.5-19.5t71-55.5 43.5-86.5T606 394q0-75-23.5-148T517 115.5 416 23 287-12zm4 67q53 0 96.5 30.5T462 164t48 107 17 116q0 97-37 155.5T375 601q-53 0-96.5-30T204 493t-48-107-17-117q0-48 9-87.5t27.5-67.5T223 70.5 291 55zm21 644l-31 26 110 90h72l77-91-38-25-78 69h-4zm-6 75l-88 81 39 35 82-89z"/><glyph glyph-name="uni1ED4" unicode="Ổ" horiz-adv-x="633" d="M287-12q-55 0-97.5 19.5t-71 55.5T75 150 60 263q0 75 23.5 147.5t65.5 130T249.5 633 379 668q55 0 97.5-19.5t71-55.5 43.5-86.5T606 394q0-75-23.5-148T517 115.5 416 23 287-12zm4 67q53 0 96.5 30.5T462 164t48 107 17 116q0 97-37 155.5T375 601q-53 0-96.5-30T204 493t-48-107-17-117q0-48 9-87.5t27.5-67.5T223 70.5 291 55zm21 644l-31 26 110 90h72l77-91-38-25-78 69h-4zm218 57l-4 33q20 5 34 12.5t17 23.5q4 20-11 29t-53 11l14 41q59-2 87.5-20t20.5-53q-3-19-13-32.5T597.5 778t-32-14-35.5-8z"/><glyph glyph-name="uni1ED6" unicode="Ỗ" horiz-adv-x="633" d="M287-12q-55 0-97.5 19.5t-71 55.5T75 150 60 263q0 75 23.5 147.5t65.5 130T249.5 633 379 668q55 0 97.5-19.5t71-55.5 43.5-86.5T606 394q0-75-23.5-148T517 115.5 416 23 287-12zm4 67q53 0 96.5 30.5T462 164t48 107 17 116q0 97-37 155.5T375 601q-53 0-96.5-30T204 493t-48-107-17-117q0-48 9-87.5t27.5-67.5T223 70.5 291 55zm20 644l-30 26 109 87h73l77-88-38-25-79 66h-4zm185 140q-24 0-39.5 8t-28 17-24.5 17-27 8q-17 0-27.5-12T331 843l-43 5q8 38 30.5 64.5T383 939q24 0 39.5-7.5t28-17 24-17T501 890q18 0 28.5 12t17.5 34l44-5q-8-39-30.5-65.5T496 839z"/><glyph glyph-name="uni1ED8" unicode="Ộ" horiz-adv-x="633" d="M287-12q-55 0-97.5 19.5t-71 55.5T75 150 60 263q0 75 23.5 147.5t65.5 130T249.5 633 379 668q55 0 97.5-19.5t71-55.5 43.5-86.5T606 394q0-75-23.5-148T517 115.5 416 23 287-12zm4 67q53 0 96.5 30.5T462 164t48 107 17 116q0 97-37 155.5T375 601q-53 0-96.5-30T204 493t-48-107-17-117q0-48 9-87.5t27.5-67.5T223 70.5 291 55zm4 644l-33 28 124 111h87l84-113-39-25-90 93h-4zm-47-903q-20 0-34.5 11.5T199-159q0 25 17.5 41.5T257-101q20 0 34.5-12t14.5-34q0-25-17.5-41T248-204z"/><glyph glyph-name="Oslash" unicode="Ø" horiz-adv-x="633" d="M287-12q-54 0-95.5 18.5T121 60L37-30-3 5l95 101q-32 66-32 157 0 75 23.5 147.5t65.5 130T249.5 633 379 668q56 0 98-19.5t71-56.5l89 95 36-35-97-104q30-65 30-154 0-75-23.5-148T517 115.5 416 23 287-12zM139 269q0-57 12-100l344 366q-19 32-48.5 49T375 601q-53 0-96.5-30T204 493t-48-107-17-117zM291 55q53 0 96.5 30.5T462 164t48 107 17 116q0 52-11 96L174 117q19-29 47.5-45.5T291 55z"/><glyph glyph-name="OE" unicode="Œ" horiz-adv-x="816" d="M338 0Q201 0 130.5 67.5T60 256q0 90 24 163.5t70 126T266 627t149 29h426l-14-65H562l-43-213h223l-14-66H507L456 66h276L718 0H338zm3 64h39l106 529h-71q-64 0-115-24.5t-87-68-55-105T139 261q0-94 51-145.5T341 64z"/><glyph glyph-name="Ohorn" unicode="Ơ" horiz-adv-x="633" d="M287-12q-55 0-97.5 19.5t-71 55.5T75 150 60 263q0 75 23.5 147.5t65.5 130T249.5 633 379 668q65 0 113-28 48 5 74.5 30.5T593 735q0 9-2 19.5t-7 21.5l63 22q11-29 11-57 0-57-34.5-90.5T536 606q35-36 52.5-90T606 394q0-75-23.5-148T517 115.5 416 23 287-12zm4 67q53 0 96.5 30.5T462 164t48 107 17 116q0 97-37 155.5T375 601q-53 0-96.5-30T204 493t-48-107-17-117q0-48 9-87.5t27.5-67.5T223 70.5 291 55z"/><glyph glyph-name="uni1EDA" unicode="Ớ" horiz-adv-x="633" d="M287-12q-55 0-97.5 19.5t-71 55.5T75 150 60 263q0 75 23.5 147.5t65.5 130T249.5 633 379 668q65 0 113-28 48 5 74.5 30.5T593 735q0 9-2 19.5t-7 21.5l63 22q11-29 11-57 0-57-34.5-90.5T536 606q35-36 52.5-90T606 394q0-75-23.5-148T517 115.5 416 23 287-12zm4 67q53 0 96.5 30.5T462 164t48 107 17 116q0 97-37 155.5T375 601q-53 0-96.5-30T204 493t-48-107-17-117q0-48 9-87.5t27.5-67.5T223 70.5 291 55zm86 648l-30 44 165 116 37-60z"/><glyph glyph-name="uni1EDC" unicode="Ờ" horiz-adv-x="633" d="M287-12q-55 0-97.5 19.5t-71 55.5T75 150 60 263q0 75 23.5 147.5t65.5 130T249.5 633 379 668q65 0 113-28 48 5 74.5 30.5T593 735q0 9-2 19.5t-7 21.5l63 22q11-29 11-57 0-57-34.5-90.5T536 606q35-36 52.5-90T606 394q0-75-23.5-148T517 115.5 416 23 287-12zm4 67q53 0 96.5 30.5T462 164t48 107 17 116q0 97-37 155.5T375 601q-53 0-96.5-30T204 493t-48-107-17-117q0-48 9-87.5t27.5-67.5T223 70.5 291 55zm129 638L286 820l56 50 122-140z"/><glyph glyph-name="uni1EDE" unicode="Ở" horiz-adv-x="633" d="M287-12q-55 0-97.5 19.5t-71 55.5T75 150 60 263q0 75 23.5 147.5t65.5 130T249.5 633 379 668q65 0 113-28 48 5 74.5 30.5T593 735q0 9-2 19.5t-7 21.5l63 22q11-29 11-57 0-57-34.5-90.5T536 606q35-36 52.5-90T606 394q0-75-23.5-148T517 115.5 416 23 287-12zm4 67q53 0 96.5 30.5T462 164t48 107 17 116q0 97-37 155.5T375 601q-53 0-96.5-30T204 493t-48-107-17-117q0-48 9-87.5t27.5-67.5T223 70.5 291 55zm59 643l-3 38q26 7 44 17t21 29q7 39-75 42l18 48q66-2 98-22.5t25-58.5q-4-22-16.5-37.5t-29.5-27-38.5-18T350 698z"/><glyph glyph-name="uni1EE0" unicode="Ỡ" horiz-adv-x="633" d="M287-12q-55 0-97.5 19.5t-71 55.5T75 150 60 263q0 75 23.5 147.5t65.5 130T249.5 633 379 668q65 0 113-28 48 5 74.5 30.5T593 735q0 9-2 19.5t-7 21.5l63 22q11-29 11-57 0-57-34.5-90.5T536 606q35-36 52.5-90T606 394q0-75-23.5-148T517 115.5 416 23 287-12zm4 67q53 0 96.5 30.5T462 164t48 107 17 116q0 97-37 155.5T375 601q-53 0-96.5-30T204 493t-48-107-17-117q0-48 9-87.5t27.5-67.5T223 70.5 291 55zm155 654q-26 0-43 11t-31 24.5-27 25-30 11.5q-40 0-60-67l-54 4q12 59 45 91t78 32q26 0 43.5-11.5t31-25T425 780t30-11q40 0 61 67l53-4q-12-60-45-91.5T446 709z"/><glyph glyph-name="uni1EE2" unicode="Ợ" horiz-adv-x="633" d="M287-12q-55 0-97.5 19.5t-71 55.5T75 150 60 263q0 75 23.5 147.5t65.5 130T249.5 633 379 668q65 0 113-28 48 5 74.5 30.5T593 735q0 9-2 19.5t-7 21.5l63 22q11-29 11-57 0-57-34.5-90.5T536 606q35-36 52.5-90T606 394q0-75-23.5-148T517 115.5 416 23 287-12zm4 67q53 0 96.5 30.5T462 164t48 107 17 116q0 97-37 155.5T375 601q-53 0-96.5-30T204 493t-48-107-17-117q0-48 9-87.5t27.5-67.5T223 70.5 291 55zm-47-259q-20 0-34.5 11.5T195-159q0 25 17.5 41.5T253-101q20 0 34.5-12t14.5-34q0-25-17.5-41T244-204z"/><glyph glyph-name="uni01EA" unicode="Ǫ" horiz-adv-x="633" d="M257-211q-35 0-56.5 17.5T179-142q0 21 8.5 41t21 37 27 31T263-11q-99 9-151 81.5T60 263q0 75 23.5 147.5t65.5 130T249.5 633 379 668q55 0 97.5-19.5t71-55.5 43.5-86.5T606 394q0-65-16.5-126.5t-48-114.5-78-93.5T357-3t-86.5-54.5T244-119q0-18 10.5-28t25.5-10q18 0 36 11l17-42q-17-11-38-17t-38-6zm34 266q53 0 96.5 30.5T462 164t48 107 17 116q0 97-37 155.5T375 601q-53 0-96.5-30T204 493t-48-107-17-117q0-48 9-87.5t27.5-67.5T223 70.5 291 55z"/><glyph glyph-name="Racute" unicode="Ŕ" horiz-adv-x="555" d="M35 0l131 656h180q46 0 83.5-8.5t64.5-27 42-47.5 15-70q0-45-14.5-82T496 356.5 435 311t-77-26L473 0h-83L282 278H168L113 0H35zm146 341h99q94 0 144 41t50 111q0 54-37.5 77.5T327 594h-96zm165 362l-30 44 165 116 37-60z"/><glyph glyph-name="Rcaron" unicode="Ř" horiz-adv-x="555" d="M35 0l131 656h180q46 0 83.5-8.5t64.5-27 42-47.5 15-70q0-45-14.5-82T496 356.5 435 311t-77-26L473 0h-83L282 278H168L113 0H35zm146 341h99q94 0 144 41t50 111q0 54-37.5 77.5T327 594h-96zm136 365l-84 113 39 25 90-93h4l129 94 33-28-124-111h-87z"/><glyph glyph-name="uni0156" unicode="Ŗ" horiz-adv-x="555" d="M35 0l131 656h180q46 0 83.5-8.5t64.5-27 42-47.5 15-70q0-45-14.5-82T496 356.5 435 311t-77-26L473 0h-83L282 278H168L113 0H35zm146 341h99q94 0 144 41t50 111q0 54-37.5 77.5T327 594h-96zm-49-567v39q60 2 88.5 16.5T249-134q0 17-14.5 27T186-95l23 37q32-3 52.5-8.5t32-13.5 16-19.5T314-124q0-25-13.5-43.5T263-199t-57.5-19.5T132-226z"/><glyph glyph-name="uni1E5A" unicode="Ṛ" horiz-adv-x="555" d="M35 0l131 656h180q46 0 83.5-8.5t64.5-27 42-47.5 15-70q0-45-14.5-82T496 356.5 435 311t-77-26L473 0h-83L282 278H168L113 0H35zm146 341h99q94 0 144 41t50 111q0 54-37.5 77.5T327 594h-96zm46-553q-20 0-34.5 11.5T178-167q0 25 17.5 41.5T236-109q20 0 34.5-12t14.5-34q0-25-17.5-41T227-212z"/><glyph glyph-name="uni1E5C" unicode="Ṝ" horiz-adv-x="555" d="M35 0l131 656h180q46 0 83.5-8.5t64.5-27 42-47.5 15-70q0-45-14.5-82T496 356.5 435 311t-77-26L473 0h-83L282 278H168L113 0H35zm146 341h99q94 0 144 41t50 111q0 54-37.5 77.5T327 594h-96zm57 388l11 54h256l-11-54H238zm-11-941q-20 0-34.5 11.5T178-167q0 25 17.5 41.5T236-109q20 0 34.5-12t14.5-34q0-25-17.5-41T227-212z"/><glyph glyph-name="uni1E5E" unicode="Ṟ" horiz-adv-x="555" d="M35 0l131 656h180q46 0 83.5-8.5t64.5-27 42-47.5 15-70q0-45-14.5-82T496 356.5 435 311t-77-26L473 0h-83L282 278H168L113 0H35zm146 341h99q94 0 144 41t50 111q0 54-37.5 77.5T327 594h-96zm-79-513l10 54h254l-9-54H102z"/><glyph glyph-name="Sacute" unicode="Ś" horiz-adv-x="506" d="M231-12q-68 0-123.5 28.5T12 104l57 43q29-44 71.5-68.5T238 54q30 0 56 9t44.5 25 29.5 39 11 51q0 36-22.5 60.5T297 286l-76 46q-42 26-71.5 62T120 486q0 37 15.5 70t42.5 58 64.5 39.5T324 668q59 0 107-26t79-66l-51-46q-26 30-60.5 50.5T318 601q-28 0-50-9t-37.5-24-23.5-34-8-39q0-38 24.5-61.5T284 388l76-45q48-28 73.5-63.5T459 189q0-44-17-81t-47-63.5T323 3t-92-15zm99 717l-30 44 165 116 37-60z"/><glyph glyph-name="Scircumflex" unicode="Ŝ" horiz-adv-x="506" d="M231-12q-68 0-123.5 28.5T12 104l57 43q29-44 71.5-68.5T238 54q30 0 56 9t44.5 25 29.5 39 11 51q0 36-22.5 60.5T297 286l-76 46q-42 26-71.5 62T120 486q0 37 15.5 70t42.5 58 64.5 39.5T324 668q59 0 107-26t79-66l-51-46q-26 30-60.5 50.5T318 601q-28 0-50-9t-37.5-24-23.5-34-8-39q0-38 24.5-61.5T284 388l76-45q48-28 73.5-63.5T459 189q0-44-17-81t-47-63.5T323 3t-92-15zm7 713l-33 28 124 111h87l84-113-39-25-90 93h-4z"/><glyph glyph-name="Scaron" unicode="Š" horiz-adv-x="506" d="M231-12q-68 0-123.5 28.5T12 104l57 43q29-44 71.5-68.5T238 54q30 0 56 9t44.5 25 29.5 39 11 51q0 36-22.5 60.5T297 286l-76 46q-42 26-71.5 62T120 486q0 37 15.5 70t42.5 58 64.5 39.5T324 668q59 0 107-26t79-66l-51-46q-26 30-60.5 50.5T318 601q-28 0-50-9t-37.5-24-23.5-34-8-39q0-38 24.5-61.5T284 388l76-45q48-28 73.5-63.5T459 189q0-44-17-81t-47-63.5T323 3t-92-15zm70 720l-84 113 39 25 90-93h4l129 94 33-28-124-111h-87z"/><glyph glyph-name="uni015E" unicode="Ş" horiz-adv-x="506" d="M231-12q-68 0-123.5 28.5T12 104l57 43q29-44 71.5-68.5T238 54q30 0 56 9t44.5 25 29.5 39 11 51q0 36-22.5 60.5T297 286l-76 46q-42 26-71.5 62T120 486q0 37 15.5 70t42.5 58 64.5 39.5T324 668q59 0 107-26t79-66l-51-46q-26 30-60.5 50.5T318 601q-28 0-50-9t-37.5-24-23.5-34-8-39q0-38 24.5-61.5T284 388l76-45q48-28 73.5-63.5T459 189q0-44-17-81t-47-63.5T323 3t-92-15zM98-226l-2 39q60 2 88.5 16t30.5 38q0 19-15.5 29T146-90l60 93h54l-41-68q35-9 48-23.5t11-39.5q-4-48-52-72T98-226z"/><glyph glyph-name="uni0218" unicode="Ș" horiz-adv-x="506" d="M231-12q-68 0-123.5 28.5T12 104l57 43q29-44 71.5-68.5T238 54q30 0 56 9t44.5 25 29.5 39 11 51q0 36-22.5 60.5T297 286l-76 46q-42 26-71.5 62T120 486q0 37 15.5 70t42.5 58 64.5 39.5T324 668q59 0 107-26t79-66l-51-46q-26 30-60.5 50.5T318 601q-28 0-50-9t-37.5-24-23.5-34-8-39q0-38 24.5-61.5T284 388l76-45q48-28 73.5-63.5T459 189q0-44-17-81t-47-63.5T323 3t-92-15zM97-226v39q60 2 88.5 16.5T214-134q0 17-14.5 27T151-95l23 37q32-3 52.5-8.5t32-13.5 16-19.5T279-124q0-25-13.5-43.5T228-199t-57.5-19.5T97-226z"/><glyph glyph-name="uni1E60" unicode="Ṡ" horiz-adv-x="506" d="M231-12q-68 0-123.5 28.5T12 104l57 43q29-44 71.5-68.5T238 54q30 0 56 9t44.5 25 29.5 39 11 51q0 36-22.5 60.5T297 286l-76 46q-42 26-71.5 62T120 486q0 37 15.5 70t42.5 58 64.5 39.5T324 668q59 0 107-26t79-66l-51-46q-26 30-60.5 50.5T318 601q-28 0-50-9t-37.5-24-23.5-34-8-39q0-38 24.5-61.5T284 388l76-45q48-28 73.5-63.5T459 189q0-44-17-81t-47-63.5T323 3t-92-15zm122 730q-20 0-34.5 11.5T304 763q0 24 17.5 41t40.5 17q20 0 34.5-12t14.5-34q0-25-17.5-41T353 718z"/><glyph glyph-name="uni1E62" unicode="Ṣ" horiz-adv-x="506" d="M231-12q-68 0-123.5 28.5T12 104l57 43q29-44 71.5-68.5T238 54q30 0 56 9t44.5 25 29.5 39 11 51q0 36-22.5 60.5T297 286l-76 46q-42 26-71.5 62T120 486q0 37 15.5 70t42.5 58 64.5 39.5T324 668q59 0 107-26t79-66l-51-46q-26 30-60.5 50.5T318 601q-28 0-50-9t-37.5-24-23.5-34-8-39q0-38 24.5-61.5T284 388l76-45q48-28 73.5-63.5T459 189q0-44-17-81t-47-63.5T323 3t-92-15zm-39-200q-20 0-34.5 11.5T143-167q0 25 17.5 41.5T201-109q20 0 34.5-12t14.5-34q0-25-17.5-41T192-212z"/><glyph glyph-name="uni1E9E" unicode="ẞ" horiz-adv-x="633" d="M391-12q-55 0-100.5 22.5T214 75l48 47q22-32 51.5-51T388 52q25 0 47 10t38.5 27 26 40 9.5 49q0 19-8.5 39t-28 38.5-51 34.5-77.5 28l6 49 165 146q-16 49-50.5 72T379 608q-67 0-116-48t-69-146L113 0H35l87 436q10 51 31.5 94t54 74.5T284 654t100 18q82 0 137-40t72-131L428 358q78-26 119-72t41-101q0-42-14.5-78T533 44.5 471 3t-80-15z"/><glyph glyph-name="Tcaron" unicode="Ť" horiz-adv-x="510" d="M166 0l117 589H93l13 67h459l-13-67H361L244 0h-78zm123 706l-84 113 39 25 90-93h4l129 94 33-28-124-111h-87z"/><glyph glyph-name="uni0162" unicode="Ţ" horiz-adv-x="510" d="M166 0l117 589H93l13 67h459l-13-67H361L244 0h-78zM68-226l-2 39q60 2 88.5 16t30.5 38q0 19-15.5 29T116-90l60 93h54l-41-68q35-9 48-23.5t11-39.5q-4-48-52-72T68-226z"/><glyph glyph-name="uni021A" unicode="Ț" horiz-adv-x="510" d="M166 0l117 589H93l13 67h459l-13-67H361L244 0h-78zM81-218v39q60 2 88.5 16.5T198-126q0 17-14.5 27T135-87l23 37q32-3 52.5-8.5t32-13.5 16-19.5T263-116q0-25-13.5-43.5T212-191t-57.5-19.5T81-218z"/><glyph glyph-name="uni1E6C" unicode="Ṭ" horiz-adv-x="510" d="M166 0l117 589H93l13 67h459l-13-67H361L244 0h-78zm10-204q-20 0-34.5 11.5T127-159q0 25 17.5 41.5T185-101q20 0 34.5-12t14.5-34q0-25-17.5-41T176-204z"/><glyph glyph-name="uni1E6E" unicode="Ṯ" horiz-adv-x="510" d="M166 0l117 589H93l13 67h459l-13-67H361L244 0h-78zM51-164l10 54h254l-9-54H51z"/><glyph glyph-name="Ugrave" unicode="Ù" horiz-adv-x="616" d="M89 288l74 368h78l-75-375q-9-45-9-79 0-71 32-109t101-38q28 0 53.5 11t47.5 35 38.5 61.5T457 254l81 402h76l-82-405q-14-71-37.5-121T439 48.5t-70.5-46T286-12q-100 0-153.5 52T79 195q0 21 2.5 44.5T89 288zm331 405L286 820l56 50 122-140z"/><glyph glyph-name="Uacute" unicode="Ú" horiz-adv-x="616" d="M89 288l74 368h78l-75-375q-9-45-9-79 0-71 32-109t101-38q28 0 53.5 11t47.5 35 38.5 61.5T457 254l81 402h76l-82-405q-14-71-37.5-121T439 48.5t-70.5-46T286-12q-100 0-153.5 52T79 195q0 21 2.5 44.5T89 288zm288 415l-30 44 165 116 37-60z"/><glyph glyph-name="Ucircumflex" unicode="Û" horiz-adv-x="616" d="M89 288l74 368h78l-75-375q-9-45-9-79 0-71 32-109t101-38q28 0 53.5 11t47.5 35 38.5 61.5T457 254l81 402h76l-82-405q-14-71-37.5-121T439 48.5t-70.5-46T286-12q-100 0-153.5 52T79 195q0 21 2.5 44.5T89 288zm196 411l-33 28 124 111h87l84-113-39-25-90 93h-4z"/><glyph glyph-name="Utilde" unicode="Ũ" horiz-adv-x="616" d="M89 288l74 368h78l-75-375q-9-45-9-79 0-71 32-109t101-38q28 0 53.5 11t47.5 35 38.5 61.5T457 254l81 402h76l-82-405q-14-71-37.5-121T439 48.5t-70.5-46T286-12q-100 0-153.5 52T79 195q0 21 2.5 44.5T89 288zm380 421q-26 0-43 11t-31 24.5-27 25-30 11.5q-40 0-60-67l-54 4q12 59 45 91t78 32q26 0 43.5-11.5t31-25T448 780t30-11q40 0 61 67l53-4q-12-60-45-91.5T469 709z"/><glyph glyph-name="Udieresis" unicode="Ü" horiz-adv-x="616" d="M89 288l74 368h78l-75-375q-9-45-9-79 0-71 32-109t101-38q28 0 53.5 11t47.5 35 38.5 61.5T457 254l81 402h76l-82-405q-14-71-37.5-121T439 48.5t-70.5-46T286-12q-100 0-153.5 52T79 195q0 21 2.5 44.5T89 288zm217 427q-17 0-28.5 10.5T266 755q0 22 15 38.5t36 16.5q17 0 28.5-10.5T357 769q0-21-15-37.5T306 715zm186 0q-17 0-28.5 10.5T452 755q0 22 15 38.5t36 16.5q17 0 28-10.5t11-30.5q0-21-14.5-37.5T492 715z"/><glyph glyph-name="Umacron" unicode="Ū" horiz-adv-x="616" d="M89 288l74 368h78l-75-375q-9-45-9-79 0-71 32-109t101-38q28 0 53.5 11t47.5 35 38.5 61.5T457 254l81 402h76l-82-405q-14-71-37.5-121T439 48.5t-70.5-46T286-12q-100 0-153.5 52T79 195q0 21 2.5 44.5T89 288zm180 441l11 54h256l-11-54H269z"/><glyph glyph-name="Ubreve" unicode="Ŭ" horiz-adv-x="616" d="M89 288l74 368h78l-75-375q-9-45-9-79 0-71 32-109t101-38q28 0 53.5 11t47.5 35 38.5 61.5T457 254l81 402h76l-82-405q-14-71-37.5-121T439 48.5t-70.5-46T286-12q-100 0-153.5 52T79 195q0 21 2.5 44.5T89 288zm304 417q-35 0-58.5 10.5t-38.5 28-21 41-4 49.5l52 8q-2-35 17.5-59.5T403 758t70 24.5 41 59.5l49-8q-8-26-22-49.5t-35-41-49.5-28T393 705z"/><glyph glyph-name="Uring" unicode="Ů" horiz-adv-x="616" d="M89 288l74 368h78l-75-375q-9-45-9-79 0-71 32-109t101-38q28 0 53.5 11t47.5 35 38.5 61.5T457 254l81 402h76l-82-405q-14-71-37.5-121T439 48.5t-70.5-46T286-12q-100 0-153.5 52T79 195q0 21 2.5 44.5T89 288zm312 412q-35 0-61.5 19T313 779q0 20 8.5 38t22.5 31.5 33.5 21.5 41.5 8q35 0 61.5-19.5T507 799q0-21-8.5-39T476 728.5t-33.5-21T401 700zm2 36q23 0 40.5 17t17.5 42q0 21-11.5 34T417 842q-23 0-40.5-17.5T359 782q0-21 11.5-33.5T403 736z"/><glyph glyph-name="Uhungarumlaut" unicode="Ű" horiz-adv-x="616" d="M89 288l74 368h78l-75-375q-9-45-9-79 0-71 32-109t101-38q28 0 53.5 11t47.5 35 38.5 61.5T457 254l81 402h76l-82-405q-14-71-37.5-121T439 48.5t-70.5-46T286-12q-100 0-153.5 52T79 195q0 21 2.5 44.5T89 288zm250 418l-39 25 119 142 50-36zm160 0l-39 25 119 142 50-36z"/><glyph glyph-name="uni01D3" unicode="Ǔ" horiz-adv-x="616" d="M89 288l74 368h78l-75-375q-9-45-9-79 0-71 32-109t101-38q28 0 53.5 11t47.5 35 38.5 61.5T457 254l81 402h76l-82-405q-14-71-37.5-121T439 48.5t-70.5-46T286-12q-100 0-153.5 52T79 195q0 21 2.5 44.5T89 288zm259 418l-84 113 39 25 90-93h4l129 94 33-28-124-111h-87z"/><glyph glyph-name="uni01D5" unicode="Ǖ" horiz-adv-x="616" d="M89 288l74 368h78l-75-375q-9-45-9-79 0-71 32-109t101-38q28 0 53.5 11t47.5 35 38.5 61.5T457 254l81 402h76l-82-405q-14-71-37.5-121T439 48.5t-70.5-46T286-12q-100 0-153.5 52T79 195q0 21 2.5 44.5T89 288zm220 427q-17 0-27 10t-10 27q0 20 13.5 35.5T319 803q17 0 27-10t10-28q0-20-13.5-35T309 715zm184 0q-17 0-27 10t-10 27q0 20 13.5 35.5T503 803q16 0 26.5-10t10.5-28q0-20-14-35t-33-15zM296 859l9 44h257l-10-44H296z"/><glyph glyph-name="uni01D7" unicode="Ǘ" horiz-adv-x="616" d="M89 288l74 368h78l-75-375q-9-45-9-79 0-71 32-109t101-38q28 0 53.5 11t47.5 35 38.5 61.5T457 254l81 402h76l-82-405q-14-71-37.5-121T439 48.5t-70.5-46T286-12q-100 0-153.5 52T79 195q0 21 2.5 44.5T89 288zm220 427q-17 0-27 10t-10 27q0 20 13.5 35.5T319 803q17 0 27-10t10-28q0-20-13.5-35T309 715zm184 0q-17 0-27 10t-10 27q0 20 13.5 35.5T503 803q16 0 26.5-10t10.5-28q0-20-14-35t-33-15zm-76 112l-33 29 116 109 46-40z"/><glyph glyph-name="uni01D9" unicode="Ǚ" horiz-adv-x="616" d="M89 288l74 368h78l-75-375q-9-45-9-79 0-71 32-109t101-38q28 0 53.5 11t47.5 35 38.5 61.5T457 254l81 402h76l-82-405q-14-71-37.5-121T439 48.5t-70.5-46T286-12q-100 0-153.5 52T79 195q0 21 2.5 44.5T89 288zm220 427q-17 0-27 10t-10 27q0 20 13.5 35.5T319 803q17 0 27-10t10-28q0-20-13.5-35T309 715zm184 0q-17 0-27 10t-10 27q0 20 13.5 35.5T503 803q16 0 26.5-10t10.5-28q0-20-14-35t-33-15zM385 839l-76 91 37 25 79-70h4l107 70 31-26-110-90h-72z"/><glyph glyph-name="uni01DB" unicode="Ǜ" horiz-adv-x="616" d="M89 288l74 368h78l-75-375q-9-45-9-79 0-71 32-109t101-38q28 0 53.5 11t47.5 35 38.5 61.5T457 254l81 402h76l-82-405q-14-71-37.5-121T439 48.5t-70.5-46T286-12q-100 0-153.5 52T79 195q0 21 2.5 44.5T89 288zm220 427q-17 0-27 10t-10 27q0 20 13.5 35.5T319 803q17 0 27-10t10-28q0-20-13.5-35T309 715zm184 0q-17 0-27 10t-10 27q0 20 13.5 35.5T503 803q16 0 26.5-10t10.5-28q0-20-14-35t-33-15zm-74 106l-91 117 57 31 73-127z"/><glyph glyph-name="uni1EE4" unicode="Ụ" horiz-adv-x="616" d="M89 288l74 368h78l-75-375q-9-45-9-79 0-71 32-109t101-38q28 0 53.5 11t47.5 35 38.5 61.5T457 254l81 402h76l-82-405q-14-71-37.5-121T439 48.5t-70.5-46T286-12q-100 0-153.5 52T79 195q0 21 2.5 44.5T89 288zm142-492q-20 0-34.5 11.5T182-159q0 25 17.5 41.5T240-101q20 0 34.5-12t14.5-34q0-25-17.5-41T231-204z"/><glyph glyph-name="uni1EE6" unicode="Ủ" horiz-adv-x="616" d="M89 288l74 368h78l-75-375q-9-45-9-79 0-71 32-109t101-38q28 0 53.5 11t47.5 35 38.5 61.5T457 254l81 402h76l-82-405q-14-71-37.5-121T439 48.5t-70.5-46T286-12q-100 0-153.5 52T79 195q0 21 2.5 44.5T89 288zm261 410l-3 38q26 7 44 17t21 29q7 39-75 42l18 48q66-2 98-22.5t25-58.5q-4-22-16.5-37.5t-29.5-27-38.5-18T350 698z"/><glyph glyph-name="Uogonek" unicode="Ų" horiz-adv-x="616" d="M614 656l-82-405q-11-60-28.5-102.5t-41.5-73-54.5-50T339-7q-29-10-49.5-23.5t-34-29-19.5-31-6-28.5q0-18 10.5-28t25.5-10q18 0 36 11l17-42q-17-11-38-17t-38-6q-35 0-56.5 17.5T165-142q0 18 7.5 36.5t19.5 36 27 33T249-10Q166 1 122.5 52.5T79 195q0 21 2.5 44.5T89 288l74 368h78l-75-375q-9-45-9-79 0-71 32-109t101-38q28 0 53.5 11t47.5 35 38.5 61.5T457 254l81 402h76z"/><glyph glyph-name="Uhorn" unicode="Ư" horiz-adv-x="629" d="M89 288l74 368h78l-75-375q-9-45-9-79 0-71 32-109t101-38q28 0 53.5 11t47.5 35 38.5 61.5T457 254l81 402h31q50 3 77.5 26t27.5 63q0 10-1.5 20t-6.5 22l62 21q6-16 9-29.5t3-27.5q0-29-10-51t-28-38-42.5-26.5T607 621l-75-370q-14-71-37.5-121T439 48.5t-70.5-46T286-12q-100 0-153.5 52T79 195q0 21 2.5 44.5T89 288z"/><glyph glyph-name="uni1EE8" unicode="Ứ" horiz-adv-x="629" d="M89 288l74 368h78l-75-375q-9-45-9-79 0-71 32-109t101-38q28 0 53.5 11t47.5 35 38.5 61.5T457 254l81 402h31q50 3 77.5 26t27.5 63q0 10-1.5 20t-6.5 22l62 21q6-16 9-29.5t3-27.5q0-29-10-51t-28-38-42.5-26.5T607 621l-75-370q-14-71-37.5-121T439 48.5t-70.5-46T286-12q-100 0-153.5 52T79 195q0 21 2.5 44.5T89 288zm285 415l-30 44 165 116 37-60z"/><glyph glyph-name="uni1EEA" unicode="Ừ" horiz-adv-x="629" d="M89 288l74 368h78l-75-375q-9-45-9-79 0-71 32-109t101-38q28 0 53.5 11t47.5 35 38.5 61.5T457 254l81 402h31q50 3 77.5 26t27.5 63q0 10-1.5 20t-6.5 22l62 21q6-16 9-29.5t3-27.5q0-29-10-51t-28-38-42.5-26.5T607 621l-75-370q-14-71-37.5-121T439 48.5t-70.5-46T286-12q-100 0-153.5 52T79 195q0 21 2.5 44.5T89 288zm328 405L283 820l56 50 122-140z"/><glyph glyph-name="uni1EEC" unicode="Ử" horiz-adv-x="629" d="M89 288l74 368h78l-75-375q-9-45-9-79 0-71 32-109t101-38q28 0 53.5 11t47.5 35 38.5 61.5T457 254l81 402h31q50 3 77.5 26t27.5 63q0 10-1.5 20t-6.5 22l62 21q6-16 9-29.5t3-27.5q0-29-10-51t-28-38-42.5-26.5T607 621l-75-370q-14-71-37.5-121T439 48.5t-70.5-46T286-12q-100 0-153.5 52T79 195q0 21 2.5 44.5T89 288zm258 410l-3 38q26 7 44 17t21 29q7 39-75 42l18 48q66-2 98-22.5t25-58.5q-4-22-16.5-37.5t-29.5-27-38.5-18T347 698z"/><glyph glyph-name="uni1EEE" unicode="Ữ" horiz-adv-x="629" d="M89 288l74 368h78l-75-375q-9-45-9-79 0-71 32-109t101-38q28 0 53.5 11t47.5 35 38.5 61.5T457 254l81 402h31q50 3 77.5 26t27.5 63q0 10-1.5 20t-6.5 22l62 21q6-16 9-29.5t3-27.5q0-29-10-51t-28-38-42.5-26.5T607 621l-75-370q-14-71-37.5-121T439 48.5t-70.5-46T286-12q-100 0-153.5 52T79 195q0 21 2.5 44.5T89 288zm377 421q-26 0-43 11t-31 24.5-27 25-30 11.5q-40 0-60-67l-54 4q12 59 45 91t78 32q26 0 43.5-11.5t31-25T445 780t30-11q40 0 61 67l53-4q-12-60-45-91.5T466 709z"/><glyph glyph-name="uni1EF0" unicode="Ự" horiz-adv-x="629" d="M89 288l74 368h78l-75-375q-9-45-9-79 0-71 32-109t101-38q28 0 53.5 11t47.5 35 38.5 61.5T457 254l81 402h31q50 3 77.5 26t27.5 63q0 10-1.5 20t-6.5 22l62 21q6-16 9-29.5t3-27.5q0-29-10-51t-28-38-42.5-26.5T607 621l-75-370q-14-71-37.5-121T439 48.5t-70.5-46T286-12q-100 0-153.5 52T79 195q0 21 2.5 44.5T89 288zm143-492q-20 0-34.5 11.5T183-159q0 25 17.5 41.5T241-101q20 0 34.5-12t14.5-34q0-25-17.5-41T232-204z"/><glyph glyph-name="Wgrave" unicode="Ẁ" horiz-adv-x="756" d="M95 0l9 656h80l-10-361q-3-53-4.5-106T164 82h4q23 54 47 107t46 106l164 361h71l9-361q1-52 1-105.5V82h4q20 54 41.5 107T593 295l142 361h77L542 0h-99l-7 401q0 36 .5 75.5T439 555h-4q-14-39-30.5-77T371 401L192 0H95zm390 693L351 820l56 50 122-140z"/><glyph glyph-name="Wacute" unicode="Ẃ" horiz-adv-x="756" d="M95 0l9 656h80l-10-361q-3-53-4.5-106T164 82h4q23 54 47 107t46 106l164 361h71l9-361q1-52 1-105.5V82h4q20 54 41.5 107T593 295l142 361h77L542 0h-99l-7 401q0 36 .5 75.5T439 555h-4q-14-39-30.5-77T371 401L192 0H95zm347 703l-30 44 165 116 37-60z"/><glyph glyph-name="Wcircumflex" unicode="Ŵ" horiz-adv-x="756" d="M95 0l9 656h80l-10-361q-3-53-4.5-106T164 82h4q23 54 47 107t46 106l164 361h71l9-361q1-52 1-105.5V82h4q20 54 41.5 107T593 295l142 361h77L542 0h-99l-7 401q0 36 .5 75.5T439 555h-4q-14-39-30.5-77T371 401L192 0H95zm255 699l-33 28 124 111h87l84-113-39-25-90 93h-4z"/><glyph glyph-name="Wdieresis" unicode="Ẅ" horiz-adv-x="756" d="M95 0l9 656h80l-10-361q-3-53-4.5-106T164 82h4q23 54 47 107t46 106l164 361h71l9-361q1-52 1-105.5V82h4q20 54 41.5 107T593 295l142 361h77L542 0h-99l-7 401q0 36 .5 75.5T439 555h-4q-14-39-30.5-77T371 401L192 0H95zm276 715q-17 0-28.5 10.5T331 755q0 22 15 38.5t36 16.5q17 0 28.5-10.5T422 769q0-21-15-37.5T371 715zm186 0q-17 0-28.5 10.5T517 755q0 22 15 38.5t36 16.5q17 0 28-10.5t11-30.5q0-21-14.5-37.5T557 715z"/><glyph glyph-name="Ygrave" unicode="Ỳ" horiz-adv-x="461" d="M139 0l51 256L83 656h80l45-189q9-36 16.5-70t16.5-72h4q23 37 44.5 72t45.5 71l124 188h83L268 256 216 0h-77zm195 693L200 820l56 50 122-140z"/><glyph glyph-name="Yacute" unicode="Ý" horiz-adv-x="461" d="M139 0l51 256L83 656h80l45-189q9-36 16.5-70t16.5-72h4q23 37 44.5 72t45.5 71l124 188h83L268 256 216 0h-77zm152 703l-30 44 165 116 37-60z"/><glyph glyph-name="Ycircumflex" unicode="Ŷ" horiz-adv-x="461" d="M139 0l51 256L83 656h80l45-189q9-36 16.5-70t16.5-72h4q23 37 44.5 72t45.5 71l124 188h83L268 256 216 0h-77zm60 699l-33 28 124 111h87l84-113-39-25-90 93h-4z"/><glyph glyph-name="Ydieresis" unicode="Ÿ" horiz-adv-x="461" d="M139 0l51 256L83 656h80l45-189q9-36 16.5-70t16.5-72h4q23 37 44.5 72t45.5 71l124 188h83L268 256 216 0h-77zm81 715q-17 0-28.5 10.5T180 755q0 22 15 38.5t36 16.5q17 0 28.5-10.5T271 769q0-21-15-37.5T220 715zm186 0q-17 0-28.5 10.5T366 755q0 22 15 38.5t36 16.5q17 0 28-10.5t11-30.5q0-21-14.5-37.5T406 715z"/><glyph glyph-name="uni1E8E" unicode="Ẏ" horiz-adv-x="461" d="M139 0l51 256L83 656h80l45-189q9-36 16.5-70t16.5-72h4q23 37 44.5 72t45.5 71l124 188h83L268 256 216 0h-77zm175 716q-20 0-34.5 11.5T265 761q0 24 17.5 41t40.5 17q20 0 34.5-12t14.5-34q0-25-17.5-41T314 716z"/><glyph glyph-name="uni1EF4" unicode="Ỵ" horiz-adv-x="461" d="M139 0l51 256L83 656h80l45-189q9-36 16.5-70t16.5-72h4q23 37 44.5 72t45.5 71l124 188h83L268 256 216 0h-77zm12-212q-20 0-34.5 11.5T102-167q0 25 17.5 41.5T160-109q20 0 34.5-12t14.5-34q0-25-17.5-41T151-212z"/><glyph glyph-name="uni1EF6" unicode="Ỷ" horiz-adv-x="461" d="M139 0l51 256L83 656h80l45-189q9-36 16.5-70t16.5-72h4q23 37 44.5 72t45.5 71l124 188h83L268 256 216 0h-77zm125 698l-3 38q26 7 44 17t21 29q7 39-75 42l18 48q66-2 98-22.5t25-58.5q-4-22-16.5-37.5t-29.5-27-38.5-18T264 698z"/><glyph glyph-name="uni1EF8" unicode="Ỹ" horiz-adv-x="461" d="M139 0l51 256L83 656h80l45-189q9-36 16.5-70t16.5-72h4q23 37 44.5 72t45.5 71l124 188h83L268 256 216 0h-77zm244 709q-26 0-43 11t-31 24.5-27 25-30 11.5q-40 0-60-67l-54 4q12 59 45 91t78 32q26 0 43.5-11.5t31-25T362 780t30-11q40 0 61 67l53-4q-12-60-45-91.5T383 709z"/><glyph glyph-name="Zacute" unicode="Ź" horiz-adv-x="512" d="M-1 0L9 47l425 544H134l14 65h393l-10-46L109 66h331L425 0H-1zm330 703l-30 44 165 116 37-60z"/><glyph glyph-name="Zcaron" unicode="Ž" horiz-adv-x="512" d="M-1 0L9 47l425 544H134l14 65h393l-10-46L109 66h331L425 0H-1zm301 706l-84 113 39 25 90-93h4l129 94 33-28-124-111h-87z"/><glyph glyph-name="Zdotaccent" unicode="Ż" horiz-adv-x="512" d="M-1 0L9 47l425 544H134l14 65h393l-10-46L109 66h331L425 0H-1zm353 716q-20 0-34.5 11.5T303 761q0 24 17.5 41t40.5 17q20 0 34.5-12t14.5-34q0-25-17.5-41T352 716z"/><glyph glyph-name="uni1E92" unicode="Ẓ" horiz-adv-x="512" d="M-1 0L9 47l425 544H134l14 65h393l-10-46L109 66h331L425 0H-1zm179-212q-20 0-34.5 11.5T129-167q0 25 17.5 41.5T187-109q20 0 34.5-12t14.5-34q0-25-17.5-41T178-212z"/><glyph glyph-name="Eth" unicode="Ð" horiz-adv-x="610" d="M47 324l9 41 70 3 58 288h122q137 0 207.5-67.5T584 400q0-89-24.5-163t-70-126.5T378 29 229 0H53l65 324H47zm96-260h86q64 0 115 24.5t87 68T486 261t19 134q0 94-51 146t-151 52h-54l-45-225h150l-10-44H195z"/><glyph glyph-name="Thorn" unicode="Þ" horiz-adv-x="562" d="M35 0l131 660h78l-23-115h115q45 0 81.5-9t62.5-28.5 40.5-50T535 385q0-60-21.5-104T454 208.5 363.5 166 248 152H142L112 0H35zm121 215h94q103 0 155.5 40.5T458 374q0 57-37 82.5T313 482H208z"/><glyph glyph-name="uni018F" unicode="Ə" horiz-adv-x="636" d="M278-12q-51 0-91 18t-67.5 50.5-42 78T63 234q0 32 4 57t12 54h452q1 11 1.5 22.5t.5 22.5q0 49-8 89t-26 68-46.5 43.5T382 606q-47 0-85-19t-70-47l-35 53q37 34 87.5 56.5T390 672q56 0 97.5-19.5t68.5-55 40.5-86T610 399q0-90-26.5-165T512 104 406.5 18.5 278-12zm5 66q42 0 79.5 17t69 47.5 54.5 73 35 94.5H139q-8-54-.5-97t27-73T215 70t68-16z"/><glyph glyph-name="agrave" unicode="à" horiz-adv-x="537" d="M179-12q-64 0-102 45T39 164q0 70 22 131t59 106 84 71 98 26q39 0 69.5-20t47.5-53h4l19 61h62L407 0h-63l8 72h-4q-35-38-79-61t-90-23zm28 64q38 0 77.5 22.5T360 145l44 217q-21 38-46 55t-53 17q-36 0-70-21.5T175 355t-41.5-82.5T118 176q0-63 24-93.5T207 52zm155 518L230 734l66 49 114-177z"/><glyph glyph-name="aacute" unicode="á" horiz-adv-x="537" d="M179-12q-64 0-102 45T39 164q0 70 22 131t59 106 84 71 98 26q39 0 69.5-20t47.5-53h4l19 61h62L407 0h-63l8 72h-4q-35-38-79-61t-90-23zm28 64q38 0 77.5 22.5T360 145l44 217q-21 38-46 55t-53 17q-36 0-70-21.5T175 355t-41.5-82.5T118 176q0-63 24-93.5T207 52zm94 527l-35 45 168 153 47-60z"/><glyph glyph-name="acircumflex" unicode="â" horiz-adv-x="537" d="M179-12q-64 0-102 45T39 164q0 70 22 131t59 106 84 71 98 26q39 0 69.5-20t47.5-53h4l19 61h62L407 0h-63l8 72h-4q-35-38-79-61t-90-23zm28 64q38 0 77.5 22.5T360 145l44 217q-21 38-46 55t-53 17q-36 0-70-21.5T175 355t-41.5-82.5T118 176q0-63 24-93.5T207 52zm1 516l-31 34 138 138h83l89-141-39-31-94 116h-4z"/><glyph glyph-name="atilde" unicode="ã" horiz-adv-x="537" d="M179-12q-64 0-102 45T39 164q0 70 22 131t59 106 84 71 98 26q39 0 69.5-20t47.5-53h4l19 61h62L407 0h-63l8 72h-4q-35-38-79-61t-90-23zm28 64q38 0 77.5 22.5T360 145l44 217q-21 38-46 55t-53 17q-36 0-70-21.5T175 355t-41.5-82.5T118 176q0-63 24-93.5T207 52zm200 525q-26 0-42 13.5t-28.5 29-26 29T278 662q-23 0-37-22t-22-58l-55 3q12 60 41 98t79 38q26 0 42-13.5t29-29 26-29 32-13.5q23 0 37 22.5t22 57.5l55-4q-11-58-40.5-96.5T407 577z"/><glyph glyph-name="adieresis" unicode="ä" horiz-adv-x="537" d="M179-12q-64 0-102 45T39 164q0 70 22 131t59 106 84 71 98 26q39 0 69.5-20t47.5-53h4l19 61h62L407 0h-63l8 72h-4q-35-38-79-61t-90-23zm28 64q38 0 77.5 22.5T360 145l44 217q-21 38-46 55t-53 17q-36 0-70-21.5T175 355t-41.5-82.5T118 176q0-63 24-93.5T207 52zm33 537q-17 0-28.5 10.5T200 629q0 23 15 39t36 16q18 0 29.5-11t11.5-31q0-23-15.5-38T240 589zm186 0q-17 0-28.5 10.5T386 629q0 23 15 39t36 16q18 0 29-11t11-31q0-23-15-38t-36-15z"/><glyph glyph-name="amacron" unicode="ā" horiz-adv-x="537" d="M179-12q-64 0-102 45T39 164q0 70 22 131t59 106 84 71 98 26q39 0 69.5-20t47.5-53h4l19 61h62L407 0h-63l8 72h-4q-35-38-79-61t-90-23zm28 64q38 0 77.5 22.5T360 145l44 217q-21 38-46 55t-53 17q-36 0-70-21.5T175 355t-41.5-82.5T118 176q0-63 24-93.5T207 52zm-3 549l10 54h254l-9-54H204z"/><glyph glyph-name="abreve" unicode="ă" horiz-adv-x="537" d="M179-12q-64 0-102 45T39 164q0 70 22 131t59 106 84 71 98 26q39 0 69.5-20t47.5-53h4l19 61h62L407 0h-63l8 72h-4q-35-38-79-61t-90-23zm28 64q38 0 77.5 22.5T360 145l44 217q-21 38-46 55t-53 17q-36 0-70-21.5T175 355t-41.5-82.5T118 176q0-63 24-93.5T207 52zm120 519q-39 0-65 13t-41 34.5-20 48.5-2 55l53 8q-1-19 3-37.5t14.5-33.5 27.5-24 41-9 44 9 35 24 26 33.5 18 37.5l50-8q-7-28-21.5-55t-37-48.5-54-34.5-71.5-13z"/><glyph glyph-name="aring" unicode="å" horiz-adv-x="537" d="M179-12q-64 0-102 45T39 164q0 70 22 131t59 106 84 71 98 26q39 0 69.5-20t47.5-53h4l19 61h62L407 0h-63l8 72h-4q-35-38-79-61t-90-23zm28 64q38 0 77.5 22.5T360 145l44 217q-21 38-46 55t-53 17q-36 0-70-21.5T175 355t-41.5-82.5T118 176q0-63 24-93.5T207 52zm124 505q-41 0-68 21t-27 61q0 22 8.5 42.5T269 717t37.5 24 47.5 9q41 0 68.5-21t27.5-61q0-23-9-43t-24.5-35-37.5-24-48-9zm5 36q25 0 43.5 21.5T398 665q0 21-13 35t-36 14q-25 0-43-21.5T288 642q0-22 12.5-35.5T336 593z"/><glyph glyph-name="uni01CE" unicode="ǎ" horiz-adv-x="537" d="M179-12q-64 0-102 45T39 164q0 70 22 131t59 106 84 71 98 26q39 0 69.5-20t47.5-53h4l19 61h62L407 0h-63l8 72h-4q-35-38-79-61t-90-23zm28 64q38 0 77.5 22.5T360 145l44 217q-21 38-46 55t-53 17q-36 0-70-21.5T175 355t-41.5-82.5T118 176q0-63 24-93.5T207 52zm73 523l-89 141 38 31 95-116h4l141 116 32-34-138-138h-83z"/><glyph glyph-name="uni1EA1" unicode="ạ" horiz-adv-x="537" d="M179-12q-64 0-102 45T39 164q0 70 22 131t59 106 84 71 98 26q39 0 69.5-20t47.5-53h4l19 61h62L407 0h-63l8 72h-4q-35-38-79-61t-90-23zm28 64q38 0 77.5 22.5T360 145l44 217q-21 38-46 55t-53 17q-36 0-70-21.5T175 355t-41.5-82.5T118 176q0-63 24-93.5T207 52zm-6-256q-20 0-34.5 11.5T152-159q0 25 17.5 41.5T210-101q20 0 34.5-12t14.5-34q0-25-17.5-41T201-204z"/><glyph glyph-name="uni1EA3" unicode="ả" horiz-adv-x="537" d="M179-12q-64 0-102 45T39 164q0 70 22 131t59 106 84 71 98 26q39 0 69.5-20t47.5-53h4l19 61h62L407 0h-63l8 72h-4q-35-38-79-61t-90-23zm28 64q38 0 77.5 22.5T360 145l44 217q-21 38-46 55t-53 17q-36 0-70-21.5T175 355t-41.5-82.5T118 176q0-63 24-93.5T207 52zm87 520l-2 40q25 6 43.5 16.5T357 659q7 42-74 47l15 54q68-2 101-25.5t25-68.5q-5-22-17.5-37.5t-30-27-39-18.5-43.5-11z"/><glyph glyph-name="uni1EA5" unicode="ấ" horiz-adv-x="537" d="M179-12q-64 0-102 45T39 164q0 70 22 131t59 106 84 71 98 26q39 0 69.5-20t47.5-53h4l19 61h62L407 0h-63l8 72h-4q-35-38-79-61t-90-23zm28 64q38 0 77.5 22.5T360 145l44 217q-21 38-46 55t-53 17q-36 0-70-21.5T175 355t-41.5-82.5T118 176q0-63 24-93.5T207 52zm18 518l-24 35 116 91h68l84-95-33-31-87 75h-4zm244 70l-31 32 109 111 43-39z"/><glyph glyph-name="uni1EA7" unicode="ầ" horiz-adv-x="537" d="M179-12q-64 0-102 45T39 164q0 70 22 131t59 106 84 71 98 26q39 0 69.5-20t47.5-53h4l19 61h62L407 0h-63l8 72h-4q-35-38-79-61t-90-23zm28 64q38 0 77.5 22.5T360 145l44 217q-21 38-46 55t-53 17q-36 0-70-21.5T175 355t-41.5-82.5T118 176q0-63 24-93.5T207 52zm18 518l-24 35 116 91h68l84-95-33-31-87 75h-4zm-24 69l-92 116 54 31 77-121z"/><glyph glyph-name="uni1EA9" unicode="ẩ" horiz-adv-x="537" d="M179-12q-64 0-102 45T39 164q0 70 22 131t59 106 84 71 98 26q39 0 69.5-20t47.5-53h4l19 61h62L407 0h-63l8 72h-4q-35-38-79-61t-90-23zm28 64q38 0 77.5 22.5T360 145l44 217q-21 38-46 55t-53 17q-36 0-70-21.5T175 355t-41.5-82.5T118 176q0-63 24-93.5T207 52zm18 518l-24 35 116 91h68l84-95-33-31-87 75h-4zm233 65l-5 35q20 5 33 14t16 25q4 20-10.5 29.5T440 750l14 41q58-2 86.5-20t22.5-53q-4-20-14-34t-24.5-23.5T493 645t-35-10z"/><glyph glyph-name="uni1EAB" unicode="ẫ" horiz-adv-x="537" d="M179-12q-64 0-102 45T39 164q0 70 22 131t59 106 84 71 98 26q39 0 69.5-20t47.5-53h4l19 61h62L407 0h-63l8 72h-4q-35-38-79-61t-90-23zm28 64q38 0 77.5 22.5T360 145l44 217q-21 38-46 55t-53 17q-36 0-70-21.5T175 355t-41.5-82.5T118 176q0-63 24-93.5T207 52zm18 518l-24 35 114 87h68l86-91-33-31-88 71h-4zm193 140q-22 0-38 6.5T351 731t-25.5 14.5T299 752q-15 0-24-10t-17-32l-42 4q11 39 32.5 64t56.5 25q22 0 37.5-6.5T371 782t25-14.5 27-6.5q26 0 40 42l42-4q-11-38-31.5-63.5T418 710z"/><glyph glyph-name="uni1EAD" unicode="ậ" horiz-adv-x="537" d="M179-12q-64 0-102 45T39 164q0 70 22 131t59 106 84 71 98 26q39 0 69.5-20t47.5-53h4l19 61h62L407 0h-63l8 72h-4q-35-38-79-61t-90-23zm28 64q38 0 77.5 22.5T360 145l44 217q-21 38-46 55t-53 17q-36 0-70-21.5T175 355t-41.5-82.5T118 176q0-63 24-93.5T207 52zm1 516l-31 34 138 138h83l89-141-39-31-94 116h-4zm-7-772q-20 0-34.5 11.5T152-159q0 25 17.5 41.5T210-101q20 0 34.5-12t14.5-34q0-25-17.5-41T201-204z"/><glyph glyph-name="uni1EAF" unicode="ắ" horiz-adv-x="537" d="M179-12q-64 0-102 45T39 164q0 70 22 131t59 106 84 71 98 26q39 0 69.5-20t47.5-53h4l19 61h62L407 0h-63l8 72h-4q-35-38-79-61t-90-23zm28 64q38 0 77.5 22.5T360 145l44 217q-21 38-46 55t-53 17q-36 0-70-21.5T175 355t-41.5-82.5T118 176q0-63 24-93.5T207 52zm148 519q-39 0-65 13t-41 34.5-20 48.5-2 55l49 8q-1-20 3.5-39.5t15-34.5 28-24.5T365 622t45.5 9.5T447 656t27.5 34.5T493 730l46-8q-7-28-21.5-55t-37-48.5-54-34.5-71.5-13zm23 134l-33 31 110 109 44-44z"/><glyph glyph-name="uni1EB1" unicode="ằ" horiz-adv-x="537" d="M179-12q-64 0-102 45T39 164q0 70 22 131t59 106 84 71 98 26q39 0 69.5-20t47.5-53h4l19 61h62L407 0h-63l8 72h-4q-35-38-79-61t-90-23zm28 64q38 0 77.5 22.5T360 145l44 217q-21 38-46 55t-53 17q-36 0-70-21.5T175 355t-41.5-82.5T118 176q0-63 24-93.5T207 52zm148 519q-39 0-65 13t-41 34.5-20 48.5-2 55l49 8q-1-20 3.5-39.5t15-34.5 28-24.5T365 622t45.5 9.5T447 656t27.5 34.5T493 730l46-8q-7-28-21.5-55t-37-48.5-54-34.5-71.5-13zm27 128l-85 114 56 35 71-125z"/><glyph glyph-name="uni1EB3" unicode="ẳ" horiz-adv-x="537" d="M179-12q-64 0-102 45T39 164q0 70 22 131t59 106 84 71 98 26q39 0 69.5-20t47.5-53h4l19 61h62L407 0h-63l8 72h-4q-35-38-79-61t-90-23zm28 64q38 0 77.5 22.5T360 145l44 217q-21 38-46 55t-53 17q-36 0-70-21.5T175 355t-41.5-82.5T118 176q0-63 24-93.5T207 52zm147 519q-39 0-65 13t-40.5 34.5T229 667t-2 55l49 8q-1-20 3-39.5t14.5-34.5 28-24.5T365 622q25 0 45.5 9.5T447 656t27.5 34.5T493 730l47-8q-7-28-22-55t-38-48.5-54.5-34.5-71.5-13zm-5 111l-2 36q23 5 38.5 14t18.5 25q4 20-12 29.5T335 798l17 50q61-2 91-22t22-60q-4-20-15-34.5T423 707t-35.5-16-38.5-9z"/><glyph glyph-name="uni1EB5" unicode="ẵ" horiz-adv-x="537" d="M179-12q-64 0-102 45T39 164q0 70 22 131t59 106 84 71 98 26q39 0 69.5-20t47.5-53h4l19 61h62L407 0h-63l8 72h-4q-35-38-79-61t-90-23zm28 64q38 0 77.5 22.5T360 145l44 217q-21 38-46 55t-53 17q-36 0-70-21.5T175 355t-41.5-82.5T118 176q0-63 24-93.5T207 52zm148 519q-37 0-61.5 9.5t-39 25-20 34.5-3.5 38l47 8q0-12 4.5-24.5t14.5-22 26.5-15.5 39.5-6q47 0 74.5 21.5T473 686l46-8q-6-19-18.5-38T468 605.5t-48-25-65-9.5zm90 139q-22 0-37.5 6.5t-29 14.5-25.5 14.5-26 6.5q-15 0-24-10.5T286 709l-45 5q10 38 32 63t59 25q22 0 38-6.5t29-14.5 25-14.5 26-6.5q15 0 24 10.5t17 31.5l46-4q-11-38-33-63t-59-25z"/><glyph glyph-name="uni1EB7" unicode="ặ" horiz-adv-x="537" d="M179-12q-64 0-102 45T39 164q0 70 22 131t59 106 84 71 98 26q39 0 69.5-20t47.5-53h4l19 61h62L407 0h-63l8 72h-4q-35-38-79-61t-90-23zm28 64q38 0 77.5 22.5T360 145l44 217q-21 38-46 55t-53 17q-36 0-70-21.5T175 355t-41.5-82.5T118 176q0-63 24-93.5T207 52zm120 519q-39 0-65 13t-41 34.5-20 48.5-2 55l53 8q-1-19 3-37.5t14.5-33.5 27.5-24 41-9 44 9 35 24 26 33.5 18 37.5l50-8q-7-28-21.5-55t-37-48.5-54-34.5-71.5-13zM201-204q-20 0-34.5 11.5T152-159q0 25 17.5 41.5T210-101q20 0 34.5-12t14.5-34q0-25-17.5-41T201-204z"/><glyph glyph-name="aogonek" unicode="ą" horiz-adv-x="537" d="M311-206q-33 0-54 17t-21 50q0 22 10 43.5T271.5-55t35 34.5T345 6l7 67h-2q-36-37-80.5-61T179-12q-64 0-102 45T39 164q0 70 22 131t59 106 84 71 98 26q39 0 70.5-20.5T421 423h2l19 63h62L407 0q-51-23-80.5-54T297-118q0-17 10.5-27t25.5-10q11 0 19.5 3t18.5 9l16-38q-17-11-38-18t-38-7zM207 52q34 0 75.5 22.5T360 145l44 218q-21 38-46 54.5T305 434q-36 0-70-21.5T175 355t-41.5-82.5T118 176q0-63 24-93.5T207 52z"/><glyph glyph-name="ae" unicode="æ" horiz-adv-x="761" d="M32 106q0 52 23.5 88t65.5 59 100.5 34.5T350 301q3 14 4 23.5t1 20.5q0 45-19.5 68T271 436q-32 0-66.5-12T135 392l-21 56q38 21 83 35.5t90 14.5q50 0 82.5-23.5T410 403q34 45 77.5 70t89.5 25q41 0 69.5-13.5t46.5-37 26.5-56T728 322q0-29-6.5-55T710 227H407q-6-40 0-73t22-56 40.5-36T526 49q29 0 57.5 12.5T635 91l30-51q-29-21-68-36.5T511-12q-53 0-94.5 27.5T358 84q-48-45-97.5-70.5T157-12q-26 0-48.5 7.5T69 18 42 55t-10 51zm383 173h242q2 14 3.5 25t1.5 25q0 21-5 40.5T641 404t-29 24-44 9q-23 0-46.5-11t-44-32-37-50-25.5-65zm-75-29q-109-3-171-35t-62-93q0-35 22-54t56-19q31 0 71 21t82 65q-4 32-3.5 57.5T340 250z"/><glyph glyph-name="ccedilla" unicode="ç" horiz-adv-x="435" d="M216-12q-80 0-129.5 50.5T37 183q0 68 22.5 125.5t60 99.5 86.5 66 102 24q44 0 74-17t52-42l-45-48q-19 23-38 33.5T303 435q-36 0-70-20t-60.5-53.5-42-78.5-15.5-95q0-66 28.5-101T230 52q32 0 58.5 13T338 95l34-50q-26-20-64-38.5T216-12zM74-226l-2 39q60 2 88.5 16t30.5 38q0 19-15.5 29T122-90l60 93h54l-41-68q35-9 48-23.5t11-39.5q-4-48-52-72T74-226z"/><glyph glyph-name="cacute" unicode="ć" horiz-adv-x="435" d="M216-12q-80 0-129.5 50.5T37 183q0 68 22.5 125.5t60 99.5 86.5 66 102 24q44 0 74-17t52-42l-45-48q-19 23-38 33.5T303 435q-36 0-70-20t-60.5-53.5-42-78.5-15.5-95q0-66 28.5-101T230 52q32 0 58.5 13T338 95l34-50q-26-20-64-38.5T216-12zm74 591l-35 45 168 153 47-60z"/><glyph glyph-name="ccircumflex" unicode="ĉ" horiz-adv-x="435" d="M216-12q-80 0-129.5 50.5T37 183q0 68 22.5 125.5t60 99.5 86.5 66 102 24q44 0 74-17t52-42l-45-48q-19 23-38 33.5T303 435q-36 0-70-20t-60.5-53.5-42-78.5-15.5-95q0-66 28.5-101T230 52q32 0 58.5 13T338 95l34-50q-26-20-64-38.5T216-12zm-19 580l-31 34 138 138h83l89-141-39-31-94 116h-4z"/><glyph glyph-name="ccaron" unicode="č" horiz-adv-x="435" d="M216-12q-80 0-129.5 50.5T37 183q0 68 22.5 125.5t60 99.5 86.5 66 102 24q44 0 74-17t52-42l-45-48q-19 23-38 33.5T303 435q-36 0-70-20t-60.5-53.5-42-78.5-15.5-95q0-66 28.5-101T230 52q32 0 58.5 13T338 95l34-50q-26-20-64-38.5T216-12zm53 587l-89 141 38 31 95-116h4l141 116 32-34-138-138h-83z"/><glyph glyph-name="cdotaccent" unicode="ċ" horiz-adv-x="435" d="M216-12q-80 0-129.5 50.5T37 183q0 68 22.5 125.5t60 99.5 86.5 66 102 24q44 0 74-17t52-42l-45-48q-19 23-38 33.5T303 435q-36 0-70-20t-60.5-53.5-42-78.5-15.5-95q0-66 28.5-101T230 52q32 0 58.5 13T338 95l34-50q-26-20-64-38.5T216-12zm106 599q-20 0-34.5 11.5T273 632q0 25 17.5 41.5T331 690q20 0 34.5-12t14.5-34q0-25-17.5-41T322 587z"/><glyph glyph-name="dcaron" unicode="ď" horiz-adv-x="542" d="M420 427l16 95 38 190h77L407 0h-63l8 72h-4q-35-38-79-61t-90-23q-64 0-102 45T39 164q0 70 22 131t59 106 84 71 98 26q39 0 68-19.5t47-51.5h3zM207 52q38 0 77 22.5t76 70.5l44 217q-21 38-46 55t-53 17q-36 0-70-21.5T175 355t-41.5-82.5T118 176q0-63 24-93.5T207 52zm359 496l40 212h54l-11-57-44-155h-39z"/><glyph glyph-name="uni1E0D" unicode="ḍ" horiz-adv-x="535" d="M420 427l16 95 38 190h77L407 0h-63l8 72h-4q-35-38-79-61t-90-23q-64 0-102 45T39 164q0 70 22 131t59 106 84 71 98 26q39 0 68-19.5t47-51.5h3zM207 52q38 0 77 22.5t76 70.5l44 217q-21 38-46 55t-53 17q-36 0-70-21.5T175 355t-41.5-82.5T118 176q0-63 24-93.5T207 52zm-10-256q-20 0-34.5 11.5T148-159q0 25 17.5 41.5T206-101q20 0 34.5-12t14.5-34q0-25-17.5-41T197-204z"/><glyph glyph-name="uni1E0F" unicode="ḏ" horiz-adv-x="535" d="M420 427l16 95 38 190h77L407 0h-63l8 72h-4q-35-38-79-61t-90-23q-64 0-102 45T39 164q0 70 22 131t59 106 84 71 98 26q39 0 68-19.5t47-51.5h3zM207 52q38 0 77 22.5t76 70.5l44 217q-21 38-46 55t-53 17q-36 0-70-21.5T175 355t-41.5-82.5T118 176q0-63 24-93.5T207 52zM72-164l10 54h254l-9-54H72z"/><glyph glyph-name="dcroat" unicode="đ" horiz-adv-x="535" d="M179-12q-64 0-102 45T39 164q0 62 22 119t58.5 100.5 83.5 69 97 25.5q39 0 67.5-19.5T413 407h3l16 95 14 70H291l8 45h156l19 95h77l-19-95h71l-10-40-70-5L407 0h-63l8 72h-4q-35-38-79-61t-90-23zm28 64q38 0 77 22.5t76 70.5l40 197q-20 38-44.5 55T303 414q-36 0-69.5-21t-59-55-41-76.5T118 176q0-63 24-93.5T207 52z"/><glyph glyph-name="egrave" unicode="è" horiz-adv-x="481" d="M37 191q0 69 23 125.5t59.5 97 83 62.5 94.5 22q41 0 69.5-13.5t46.5-37 26-56 8-69.5q0-29-6-55t-11-40H114q-7-47 1-80.5T141.5 91 187 59t59-10q29 0 57.5 12.5T355 91l30-51q-29-21-69-36.5T228-12q-87 0-139 52.5T37 191zm85 88h255q2 12 3.5 24t1.5 26q0 21-5 40.5T361 404t-29 24-44 9q-27 0-52.5-11T188 394t-39.5-50-26.5-65zm225 291L215 734l66 49 114-177z"/><glyph glyph-name="eacute" unicode="é" horiz-adv-x="481" d="M37 191q0 69 23 125.5t59.5 97 83 62.5 94.5 22q41 0 69.5-13.5t46.5-37 26-56 8-69.5q0-29-6-55t-11-40H114q-7-47 1-80.5T141.5 91 187 59t59-10q29 0 57.5 12.5T355 91l30-51q-29-21-69-36.5T228-12q-87 0-139 52.5T37 191zm85 88h255q2 12 3.5 24t1.5 26q0 21-5 40.5T361 404t-29 24-44 9q-27 0-52.5-11T188 394t-39.5-50-26.5-65zm164 300l-35 45 168 153 47-60z"/><glyph glyph-name="ecircumflex" unicode="ê" horiz-adv-x="481" d="M37 191q0 69 23 125.5t59.5 97 83 62.5 94.5 22q41 0 69.5-13.5t46.5-37 26-56 8-69.5q0-29-6-55t-11-40H114q-7-47 1-80.5T141.5 91 187 59t59-10q29 0 57.5 12.5T355 91l30-51q-29-21-69-36.5T228-12q-87 0-139 52.5T37 191zm85 88h255q2 12 3.5 24t1.5 26q0 21-5 40.5T361 404t-29 24-44 9q-27 0-52.5-11T188 394t-39.5-50-26.5-65zm71 289l-31 34 138 138h83l89-141-39-31-94 116h-4z"/><glyph glyph-name="ecaron" unicode="ě" horiz-adv-x="481" d="M37 191q0 69 23 125.5t59.5 97 83 62.5 94.5 22q41 0 69.5-13.5t46.5-37 26-56 8-69.5q0-29-6-55t-11-40H114q-7-47 1-80.5T141.5 91 187 59t59-10q29 0 57.5 12.5T355 91l30-51q-29-21-69-36.5T228-12q-87 0-139 52.5T37 191zm85 88h255q2 12 3.5 24t1.5 26q0 21-5 40.5T361 404t-29 24-44 9q-27 0-52.5-11T188 394t-39.5-50-26.5-65zm143 296l-89 141 38 31 95-116h4l141 116 32-34-138-138h-83z"/><glyph glyph-name="edieresis" unicode="ë" horiz-adv-x="481" d="M37 191q0 69 23 125.5t59.5 97 83 62.5 94.5 22q41 0 69.5-13.5t46.5-37 26-56 8-69.5q0-29-6-55t-11-40H114q-7-47 1-80.5T141.5 91 187 59t59-10q29 0 57.5 12.5T355 91l30-51q-29-21-69-36.5T228-12q-87 0-139 52.5T37 191zm85 88h255q2 12 3.5 24t1.5 26q0 21-5 40.5T361 404t-29 24-44 9q-27 0-52.5-11T188 394t-39.5-50-26.5-65zm103 310q-17 0-28.5 10.5T185 629q0 23 15 39t36 16q18 0 29.5-11t11.5-31q0-23-15.5-38T225 589zm186 0q-17 0-28.5 10.5T371 629q0 23 15 39t36 16q18 0 29-11t11-31q0-23-15-38t-36-15z"/><glyph glyph-name="emacron" unicode="ē" horiz-adv-x="481" d="M37 191q0 69 23 125.5t59.5 97 83 62.5 94.5 22q41 0 69.5-13.5t46.5-37 26-56 8-69.5q0-29-6-55t-11-40H114q-7-47 1-80.5T141.5 91 187 59t59-10q29 0 57.5 12.5T355 91l30-51q-29-21-69-36.5T228-12q-87 0-139 52.5T37 191zm85 88h255q2 12 3.5 24t1.5 26q0 21-5 40.5T361 404t-29 24-44 9q-27 0-52.5-11T188 394t-39.5-50-26.5-65zm67 322l10 54h254l-9-54H189z"/><glyph glyph-name="ebreve" unicode="ĕ" horiz-adv-x="481" d="M37 191q0 69 23 125.5t59.5 97 83 62.5 94.5 22q41 0 69.5-13.5t46.5-37 26-56 8-69.5q0-29-6-55t-11-40H114q-7-47 1-80.5T141.5 91 187 59t59-10q29 0 57.5 12.5T355 91l30-51q-29-21-69-36.5T228-12q-87 0-139 52.5T37 191zm85 88h255q2 12 3.5 24t1.5 26q0 21-5 40.5T361 404t-29 24-44 9q-27 0-52.5-11T188 394t-39.5-50-26.5-65zm190 292q-39 0-65 13t-41 34.5-20 48.5-2 55l53 8q-1-19 3-37.5t14.5-33.5 27.5-24 41-9 44 9 35 24 26 33.5 18 37.5l50-8q-7-28-21.5-55t-37-48.5-54-34.5-71.5-13z"/><glyph glyph-name="edotaccent" unicode="ė" horiz-adv-x="481" d="M37 191q0 69 23 125.5t59.5 97 83 62.5 94.5 22q41 0 69.5-13.5t46.5-37 26-56 8-69.5q0-29-6-55t-11-40H114q-7-47 1-80.5T141.5 91 187 59t59-10q29 0 57.5 12.5T355 91l30-51q-29-21-69-36.5T228-12q-87 0-139 52.5T37 191zm85 88h255q2 12 3.5 24t1.5 26q0 21-5 40.5T361 404t-29 24-44 9q-27 0-52.5-11T188 394t-39.5-50-26.5-65zm196 308q-20 0-34.5 11.5T269 632q0 25 17.5 41.5T327 690q20 0 34.5-12t14.5-34q0-25-17.5-41T318 587z"/><glyph glyph-name="uni1EB9" unicode="ẹ" horiz-adv-x="481" d="M37 191q0 69 23 125.5t59.5 97 83 62.5 94.5 22q41 0 69.5-13.5t46.5-37 26-56 8-69.5q0-29-6-55t-11-40H114q-7-47 1-80.5T141.5 91 187 59t59-10q29 0 57.5 12.5T355 91l30-51q-29-21-69-36.5T228-12q-87 0-139 52.5T37 191zm85 88h255q2 12 3.5 24t1.5 26q0 21-5 40.5T361 404t-29 24-44 9q-27 0-52.5-11T188 394t-39.5-50-26.5-65zm62-483q-20 0-34.5 11.5T135-159q0 25 17.5 41.5T193-101q20 0 34.5-12t14.5-34q0-25-17.5-41T184-204z"/><glyph glyph-name="uni1EBB" unicode="ẻ" horiz-adv-x="481" d="M37 191q0 69 23 125.5t59.5 97 83 62.5 94.5 22q41 0 69.5-13.5t46.5-37 26-56 8-69.5q0-29-6-55t-11-40H114q-7-47 1-80.5T141.5 91 187 59t59-10q29 0 57.5 12.5T355 91l30-51q-29-21-69-36.5T228-12q-87 0-139 52.5T37 191zm85 88h255q2 12 3.5 24t1.5 26q0 21-5 40.5T361 404t-29 24-44 9q-27 0-52.5-11T188 394t-39.5-50-26.5-65zm161 293l-2 40q25 6 43.5 16.5T346 659q7 42-74 47l15 54q68-2 101-25.5t25-68.5q-5-22-17.5-37.5t-30-27-39-18.5-43.5-11z"/><glyph glyph-name="uni1EBD" unicode="ẽ" horiz-adv-x="481" d="M37 191q0 69 23 125.5t59.5 97 83 62.5 94.5 22q41 0 69.5-13.5t46.5-37 26-56 8-69.5q0-29-6-55t-11-40H114q-7-47 1-80.5T141.5 91 187 59t59-10q29 0 57.5 12.5T355 91l30-51q-29-21-69-36.5T228-12q-87 0-139 52.5T37 191zm85 88h255q2 12 3.5 24t1.5 26q0 21-5 40.5T361 404t-29 24-44 9q-27 0-52.5-11T188 394t-39.5-50-26.5-65zm270 298q-26 0-42 13.5t-28.5 29-26 29T263 662q-23 0-37-22t-22-58l-55 3q12 60 41 98t79 38q26 0 42-13.5t29-29 26-29 32-13.5q23 0 37 22.5t22 57.5l55-4q-11-58-40.5-96.5T392 577z"/><glyph glyph-name="uni1EBF" unicode="ế" horiz-adv-x="481" d="M37 191q0 69 23 125.5t59.5 97 83 62.5 94.5 22q41 0 69.5-13.5t46.5-37 26-56 8-69.5q0-29-6-55t-11-40H114q-7-47 1-80.5T141.5 91 187 59t59-10q29 0 57.5 12.5T355 91l30-51q-29-21-69-36.5T228-12q-87 0-139 52.5T37 191zm85 88h255q2 12 3.5 24t1.5 26q0 21-5 40.5T361 404t-29 24-44 9q-27 0-52.5-11T188 394t-39.5-50-26.5-65zm88 291l-24 35 116 91h68l84-95-33-31-87 75h-4zm244 70l-31 32 109 111 43-39z"/><glyph glyph-name="uni1EC1" unicode="ề" horiz-adv-x="481" d="M37 191q0 69 23 125.5t59.5 97 83 62.5 94.5 22q41 0 69.5-13.5t46.5-37 26-56 8-69.5q0-29-6-55t-11-40H114q-7-47 1-80.5T141.5 91 187 59t59-10q29 0 57.5 12.5T355 91l30-51q-29-21-69-36.5T228-12q-87 0-139 52.5T37 191zm85 88h255q2 12 3.5 24t1.5 26q0 21-5 40.5T361 404t-29 24-44 9q-27 0-52.5-11T188 394t-39.5-50-26.5-65zm88 291l-24 35 116 91h68l84-95-33-31-87 75h-4zm-24 69L94 755l54 31 77-121z"/><glyph glyph-name="uni1EC3" unicode="ể" horiz-adv-x="481" d="M37 191q0 69 23 125.5t59.5 97 83 62.5 94.5 22q41 0 69.5-13.5t46.5-37 26-56 8-69.5q0-29-6-55t-11-40H114q-7-47 1-80.5T141.5 91 187 59t59-10q29 0 57.5 12.5T355 91l30-51q-29-21-69-36.5T228-12q-87 0-139 52.5T37 191zm85 88h255q2 12 3.5 24t1.5 26q0 21-5 40.5T361 404t-29 24-44 9q-27 0-52.5-11T188 394t-39.5-50-26.5-65zm88 291l-24 35 116 91h68l84-95-33-31-87 75h-4zm233 65l-5 35q20 5 33 14t16 25q4 20-10.5 29.5T425 750l14 41q58-2 86.5-20t22.5-53q-4-20-14-34t-24.5-23.5T478 645t-35-10z"/><glyph glyph-name="uni1EC5" unicode="ễ" horiz-adv-x="481" d="M37 191q0 69 23 125.5t59.5 97 83 62.5 94.5 22q41 0 69.5-13.5t46.5-37 26-56 8-69.5q0-29-6-55t-11-40H114q-7-47 1-80.5T141.5 91 187 59t59-10q29 0 57.5 12.5T355 91l30-51q-29-21-69-36.5T228-12q-87 0-139 52.5T37 191zm85 88h255q2 12 3.5 24t1.5 26q0 21-5 40.5T361 404t-29 24-44 9q-27 0-52.5-11T188 394t-39.5-50-26.5-65zm88 291l-24 35 114 87h68l86-91-33-31-88 71h-4zm193 140q-22 0-38 6.5T336 731t-25.5 14.5T284 752q-15 0-24-10t-17-32l-42 4q11 39 32.5 64t56.5 25q22 0 37.5-6.5T356 782t25-14.5 27-6.5q26 0 40 42l42-4q-11-38-31.5-63.5T403 710z"/><glyph glyph-name="uni1EC7" unicode="ệ" horiz-adv-x="481" d="M37 191q0 69 23 125.5t59.5 97 83 62.5 94.5 22q41 0 69.5-13.5t46.5-37 26-56 8-69.5q0-29-6-55t-11-40H114q-7-47 1-80.5T141.5 91 187 59t59-10q29 0 57.5 12.5T355 91l30-51q-29-21-69-36.5T228-12q-87 0-139 52.5T37 191zm85 88h255q2 12 3.5 24t1.5 26q0 21-5 40.5T361 404t-29 24-44 9q-27 0-52.5-11T188 394t-39.5-50-26.5-65zm71 289l-31 34 138 138h83l89-141-39-31-94 116h-4zm-9-772q-20 0-34.5 11.5T135-159q0 25 17.5 41.5T193-101q20 0 34.5-12t14.5-34q0-25-17.5-41T184-204z"/><glyph glyph-name="eogonek" unicode="ę" horiz-adv-x="481" d="M179-139q0 22 8.5 42t21 37 26 30T259-8q-8-2-16.5-3T228-12q-87 0-139 52.5T37 191q0 69 23 125.5t59.5 97 83 62.5 94.5 22q41 0 69.5-13.5t46.5-37 26-56 8-69.5q0-29-6-55t-11-40H114q-7-47 1-80.5T141.5 91 187 59t59-10q29 0 57.5 12.5T355 91l30-51q-42-25-70-47t-44.5-41.5-23.5-37-7-32.5q0-17 10.5-27t25.5-10q11 0 19.5 3t18.5 9l16-38q-17-11-38-18t-39-7q-32 0-53 17t-21 50zm-57 418h255q2 12 3.5 24t1.5 26q0 21-5 40.5T361 404t-29 24-44 9q-27 0-52.5-11T188 394t-39.5-50-26.5-65z"/><glyph glyph-name="gcircumflex" unicode="ĝ" horiz-adv-x="531" d="M168-224q-49 0-92 19t-78 48l36 53q28-24 62-41t75-17q63 0 100 39.5T324-17l25 104q-38-38-80-60T180 5Q118 5 78.5 48T39 176q0 67 21.5 125.5t57.5 102 82.5 69T296 498q38 0 69-20t48-53h3l19 61h63L396-23q-20-97-78-149t-150-52zm37 293q35 0 75 21.5t75 63.5l43 208q-23 38-47 55t-52 17q-35 0-68-20.5t-58-55-40-79-15-92.5q0-60 23-89t64-29zm-2 499l-31 34 138 138h83l89-141-39-31-94 116h-4z"/><glyph glyph-name="gbreve" unicode="ğ" horiz-adv-x="531" d="M168-224q-49 0-92 19t-78 48l36 53q28-24 62-41t75-17q63 0 100 39.5T324-17l25 104q-38-38-80-60T180 5Q118 5 78.5 48T39 176q0 67 21.5 125.5t57.5 102 82.5 69T296 498q38 0 69-20t48-53h3l19 61h63L396-23q-20-97-78-149t-150-52zm37 293q35 0 75 21.5t75 63.5l43 208q-23 38-47 55t-52 17q-35 0-68-20.5t-58-55-40-79-15-92.5q0-60 23-89t64-29zm117 502q-39 0-65 13t-41 34.5-20 48.5-2 55l53 8q-1-19 3-37.5t14.5-33.5 27.5-24 41-9 44 9 35 24 26 33.5 18 37.5l50-8q-7-28-21.5-55t-37-48.5-54-34.5-71.5-13z"/><glyph glyph-name="gdotaccent" unicode="ġ" horiz-adv-x="531" d="M168-224q-49 0-92 19t-78 48l36 53q28-24 62-41t75-17q63 0 100 39.5T324-17l25 104q-38-38-80-60T180 5Q118 5 78.5 48T39 176q0 67 21.5 125.5t57.5 102 82.5 69T296 498q38 0 69-20t48-53h3l19 61h63L396-23q-20-97-78-149t-150-52zm37 293q35 0 75 21.5t75 63.5l43 208q-23 38-47 55t-52 17q-35 0-68-20.5t-58-55-40-79-15-92.5q0-60 23-89t64-29zm123 518q-20 0-34.5 11.5T279 632q0 25 17.5 41.5T337 690q20 0 34.5-12t14.5-34q0-25-17.5-41T328 587z"/><glyph glyph-name="uni0123" unicode="ģ" horiz-adv-x="531" d="M168-224q-49 0-92 19t-78 48l36 53q28-24 62-41t75-17q63 0 100 39.5T324-17l25 104q-38-38-80-60T180 5Q118 5 78.5 48T39 176q0 67 21.5 125.5t57.5 102 82.5 69T296 498q38 0 69-20t48-53h3l19 61h63L396-23q-20-97-78-149t-150-52zm37 293q35 0 75 21.5t75 63.5l43 208q-23 38-47 55t-52 17q-35 0-68-20.5t-58-55-40-79-15-92.5q0-60 23-89t64-29zm161 507q-32 3-52.5 8.5t-32 14-16 19.5-4.5 25q0 25 13.5 43.5t37.5 31 57.5 19.5 73.5 8v-40q-60-2-88.5-16T326 653q0-18 15-28t48-12z"/><glyph glyph-name="gcaron" unicode="ǧ" horiz-adv-x="531" d="M168-224q-49 0-92 19t-78 48l36 53q28-24 62-41t75-17q63 0 100 39.5T324-17l25 104q-38-38-80-60T180 5Q118 5 78.5 48T39 176q0 67 21.5 125.5t57.5 102 82.5 69T296 498q38 0 69-20t48-53h3l19 61h63L396-23q-20-97-78-149t-150-52zm37 293q35 0 75 21.5t75 63.5l43 208q-23 38-47 55t-52 17q-35 0-68-20.5t-58-55-40-79-15-92.5q0-60 23-89t64-29zm70 506l-89 141 38 31 95-116h4l141 116 32-34-138-138h-83z"/><glyph glyph-name="uni1E21" unicode="ḡ" horiz-adv-x="531" d="M168-224q-49 0-92 19t-78 48l36 53q28-24 62-41t75-17q63 0 100 39.5T324-17l25 104q-38-38-80-60T180 5Q118 5 78.5 48T39 176q0 67 21.5 125.5t57.5 102 82.5 69T296 498q38 0 69-20t48-53h3l19 61h63L396-23q-20-97-78-149t-150-52zm37 293q35 0 75 21.5t75 63.5l43 208q-23 38-47 55t-52 17q-35 0-68-20.5t-58-55-40-79-15-92.5q0-60 23-89t64-29zm-6 532l10 54h254l-9-54H199z"/><glyph glyph-name="uni00670303" horiz-adv-x="531" d="M168-224q-49 0-92 19t-78 48l36 53q28-24 62-41t75-17q63 0 100 39.5T324-17l25 104q-38-38-80-60T180 5Q118 5 78.5 48T39 176q0 67 21.5 125.5t57.5 102 82.5 69T296 498q38 0 69-20t48-53h3l19 61h63L396-23q-20-97-78-149t-150-52zm37 293q35 0 75 21.5t75 63.5l43 208q-23 38-47 55t-52 17q-35 0-68-20.5t-58-55-40-79-15-92.5q0-60 23-89t64-29zm197 508q-26 0-42 13.5t-28.5 29-26 29T273 662q-23 0-37-22t-22-58l-55 3q12 60 41 98t79 38q26 0 42-13.5t29-29 26-29 32-13.5q23 0 37 22.5t22 57.5l55-4q-11-58-40.5-96.5T402 577z"/><glyph glyph-name="hcircumflex" unicode="ĥ" horiz-adv-x="519" d="M31 0l142 712h77l-48-235-16-61h4q42 35 82 58.5t85 23.5q62 0 88.5-32t26.5-89q0-17-1.5-32t-6.5-35L402 0h-76l60 300q4 20 6 32t2 25q0 37-17 56t-55 19q-29 0-64.5-21T176 344L107 0H31zm75 746l-33 28 124 111h87l84-113-39-25-90 93h-4z"/><glyph glyph-name="uni1E25" unicode="ḥ" horiz-adv-x="519" d="M31 0l142 712h77l-48-235-16-61h4q42 35 82 58.5t85 23.5q62 0 88.5-32t26.5-89q0-17-1.5-32t-6.5-35L402 0h-76l60 300q4 20 6 32t2 25q0 37-17 56t-55 19q-29 0-64.5-21T176 344L107 0H31zm163-204q-20 0-34.5 11.5T145-159q0 25 17.5 41.5T203-101q20 0 34.5-12t14.5-34q0-25-17.5-41T194-204z"/><glyph glyph-name="uni1E2B" unicode="ḫ" horiz-adv-x="519" d="M31 0l142 712h77l-48-235-16-61h4q42 35 82 58.5t85 23.5q62 0 88.5-32t26.5-89q0-17-1.5-32t-6.5-35L402 0h-76l60 300q4 20 6 32t2 25q0 37-17 56t-55 19q-29 0-64.5-21T176 344L107 0H31zm158-210q-39 0-65 13t-41 34.5T63-114t-2 55l53 8q-1-19 3-37.5t14.5-33.5 27.5-24 41-9 44 9 35 24 26 33.5T323-51l50-8q-7-28-21.5-55t-37-48.5-54-34.5-71.5-13z"/><glyph glyph-name="hbar" unicode="ħ" horiz-adv-x="519" d="M31 0l114 572H75l7 40 72 5 19 95h77l-19-95h175l-10-45H221l-23-115-16-61h4q42 35 82 58.5t85 23.5q62 0 88.5-32t26.5-89q0-17-1.5-32t-6.5-35L402 0h-76l56 280q4 20 6 32t2 25q0 37-17 56t-55 19q-29 0-64.5-21T172 324L107 0H31z"/><glyph glyph-name="igrave" unicode="ì" horiz-adv-x="237" d="M31 0l97 486h77L107 0H31zm188 570L87 734l66 49 114-177z"/><glyph glyph-name="iacute" unicode="í" horiz-adv-x="237" d="M31 0l97 486h77L107 0H31zm127 579l-35 45 168 153 47-60z"/><glyph glyph-name="icircumflex" unicode="î" horiz-adv-x="237" d="M31 0l97 486h77L107 0H31zm34 568l-31 34 138 138h83l89-141-39-31-94 116h-4z"/><glyph glyph-name="itilde" unicode="ĩ" horiz-adv-x="237" d="M31 0l97 486h77L107 0H31zm233 577q-26 0-42 13.5t-28.5 29-26 29T135 662q-23 0-37-22t-22-58l-55 3q12 60 41 98t79 38q26 0 42-13.5t29-29 26-29 32-13.5q23 0 37 22.5t22 57.5l55-4q-11-58-40.5-96.5T264 577z"/><glyph glyph-name="idieresis" unicode="ï" horiz-adv-x="237" d="M31 0l97 486h77L107 0H31zm66 589q-17 0-28.5 10.5T57 629q0 23 15 39t36 16q18 0 29.5-11t11.5-31q0-23-15.5-38T97 589zm186 0q-17 0-28.5 10.5T243 629q0 23 15 39t36 16q18 0 29-11t11-31q0-23-15-38t-36-15z"/><glyph glyph-name="imacron" unicode="ī" horiz-adv-x="237" d="M31 0l97 486h77L107 0H31zm30 601l10 54h254l-9-54H61z"/><glyph glyph-name="uni01D0" unicode="ǐ" horiz-adv-x="237" d="M31 0l97 486h77L107 0H31zm106 575L48 716l38 31 95-116h4l141 116 32-34-138-138h-83z"/><glyph glyph-name="uni1EC9" unicode="ỉ" horiz-adv-x="237" d="M31 0l97 486h77L107 0H31zm125 572l-2 40q25 6 43.5 16.5T219 659q7 42-74 47l15 54q68-2 101-25.5t25-68.5q-5-22-17.5-37.5t-30-27-39-18.5-43.5-11z"/><glyph glyph-name="uni1ECB" unicode="ị" horiz-adv-x="237" d="M31 0l97 486h77L107 0H31zm162 587q-20 0-34.5 11.5T144 632q0 25 17.5 41.5T202 690q20 0 34.5-12t14.5-34q0-25-17.5-41T193 587zM42-204q-20 0-34.5 11.5T-7-159q0 25 17.5 41.5T51-101q20 0 34.5-12t14.5-34q0-25-17.5-41T42-204z"/><glyph glyph-name="iogonek" unicode="į" horiz-adv-x="237" d="M33-206q-32 0-53.5 17T-42-139q0 22 9 42.5t22.5 39 29.5 33T49 0H31l97 486h77L107 0Q65-27 42-56.5T19-118q0-17 10.5-27T56-155q19 0 37 12l16-38q-17-11-38-18t-38-7zm160 793q-20 0-34.5 11.5T144 632q0 25 17.5 41.5T202 690q20 0 34.5-12t14.5-34q0-25-17.5-41T193 587z"/><glyph glyph-name="iogonek.d" horiz-adv-x="237" d="M33-206q-32 0-53.5 17T-42-139q0 22 9 42.5t22.5 39 29.5 33T49 0H31l97 486h77L107 0Q65-27 42-56.5T19-118q0-17 10.5-27T56-155q19 0 37 12l16-38q-17-11-38-18t-38-7z"/><glyph glyph-name="dotlessi" unicode="ı" horiz-adv-x="237" d="M31 0l97 486h77L107 0H31z"/><glyph glyph-name="jcircumflex" unicode="ĵ" horiz-adv-x="238" d="M-49-217q-23 0-40.5 5t-34.5 14l25 57q10-6 20-9.5t26-3.5q28 0 44.5 24T18-62l111 548h77L95-61q-14-70-47.5-113T-49-217zM62 568l-31 34 138 138h83l89-141-39-31-94 116h-4z"/><glyph glyph-name="uni0137" unicode="ķ" horiz-adv-x="476" d="M31 0l142 712h77l-96-483h2l249 257h88L299 283 416 0h-78l-93 237-112-114L107 0H31zm62-218v39q60 2 88.5 16.5T210-126q0 17-14.5 27T147-87l23 37q32-3 52.5-8.5t32-13.5 16-19.5T275-116q0-25-13.5-43.5T224-191t-57.5-19.5T93-218z"/><glyph glyph-name="kgreenlandic" unicode="ĸ" horiz-adv-x="476" d="M31 0l96 486h77l-50-257h2l249 257h88L299 283 416 0h-78l-93 237-112-114L107 0H31z"/><glyph glyph-name="lacute" unicode="ĺ" horiz-adv-x="248" d="M109-12Q77-12 60.5 4.5T44 51q0 16 6 42l123 619h77L125 89q-2-8-2-12v-7q0-18 17-18 3 0 6 .5t10 2.5l1-59q-10-4-21-6t-27-2zm94 767l-30 44 165 116 37-60z"/><glyph glyph-name="lcaron" unicode="ľ" horiz-adv-x="242" d="M109-12Q77-12 60.5 4.5T44 51q0 16 6 42l123 619h77L125 89q-2-8-2-12v-7q0-18 17-18 3 0 6 .5t10 2.5l1-59q-10-4-21-6t-27-2zm157 560l40 212h54l-11-57-44-155h-39z"/><glyph glyph-name="ldot" unicode="ŀ" horiz-adv-x="331" d="M109-12Q77-12 60.5 4.5T44 51q0 16 6 42l123 619h77L125 89q-2-8-2-12v-7q0-18 17-18 3 0 6 .5t10 2.5l1-59q-10-4-21-6t-27-2zm182 283q-22 0-34.5 14T244 321q0 26 19 48t48 22q22 0 34-14.5t12-36.5q0-26-18.5-47.5T291 271z"/><glyph glyph-name="uni013C" unicode="ļ" horiz-adv-x="248" d="M109-12Q77-12 60.5 4.5T44 51q0 16 6 42l123 619h77L125 89q-2-8-2-12v-7q0-18 17-18 3 0 6 .5t10 2.5l1-59q-10-4-21-6t-27-2zM-56-218v39q60 2 88.5 16.5T61-126q0 17-14.5 27T-2-87l23 37q32-3 52.5-8.5t32-13.5 16-19.5T126-116q0-25-13.5-43.5T75-191t-57.5-19.5T-56-218z"/><glyph glyph-name="uni1E37" unicode="ḷ" horiz-adv-x="248" d="M109-12Q77-12 60.5 4.5T44 51q0 16 6 42l123 619h77L125 89q-2-8-2-12v-7q0-18 17-18 3 0 6 .5t10 2.5l1-59q-10-4-21-6t-27-2zM40-204q-20 0-34.5 11.5T-9-159q0 25 17.5 41.5T49-101q20 0 34.5-12T98-147q0-25-17.5-41T40-204z"/><glyph glyph-name="uni1E39" unicode="ḹ" horiz-adv-x="248" d="M109-12Q77-12 60.5 4.5T44 51q0 16 6 42l123 619h77L125 89q-2-8-2-12v-7q0-18 17-18 3 0 6 .5t10 2.5l1-59q-10-4-21-6t-27-2zm-7 834l10 54h254l-9-54H102zM40-204q-20 0-34.5 11.5T-9-159q0 25 17.5 41.5T49-101q20 0 34.5-12T98-147q0-25-17.5-41T40-204z"/><glyph glyph-name="uni1E3B" unicode="ḻ" horiz-adv-x="248" d="M109-12Q77-12 60.5 4.5T44 51q0 16 6 42l123 619h77L125 89q-2-8-2-12v-7q0-18 17-18 3 0 6 .5t10 2.5l1-59q-10-4-21-6t-27-2zM-85-164l10 54h254l-9-54H-85z"/><glyph glyph-name="lslash" unicode="ł" horiz-adv-x="252" d="M113-12Q81-12 64.5 4.5T48 51q0 16 6 42l48 244-58-34-19 48 90 51 62 310h77l-54-271 66 40 20-48-100-58-57-286q-2-8-2-12v-7q0-18 17-18 3 0 6 .5t10 2.5l1-59q-10-4-21-6t-27-2z"/><glyph glyph-name="uni1E43" unicode="ṃ" horiz-adv-x="799" d="M31 0l96 486h63l-7-73h4q38 36 80 60.5t80 24.5q29 0 49-7.5t33-20 20-30 10-37.5q47 45 90.5 70t81.5 25q61 0 88-32t27-89q0-17-2-32t-6-35L676 0h-77l61 300q4 20 6 32t2 25q0 75-71 75-21 0-57-21t-80-67L391 0h-76l60 300q4 20 6 32t2 25q0 75-70 75-22 0-58-21t-79-67L107 0H31zm298-204q-20 0-34.5 11.5T280-159q0 25 17.5 41.5T338-101q20 0 34.5-12t14.5-34q0-25-17.5-41T329-204z"/><glyph glyph-name="nacute" unicode="ń" horiz-adv-x="525" d="M31 0l96 486h63l-7-73h4q42 36 83 60.5t87 24.5q62 0 88.5-32t26.5-89q0-17-1.5-32t-6.5-35L402 0h-76l60 300q4 20 6 32t2 25q0 37-17 56t-55 19q-29 0-64.5-21T176 344L107 0H31zm286 579l-35 45 168 153 47-60z"/><glyph glyph-name="ncaron" unicode="ň" horiz-adv-x="525" d="M31 0l96 486h63l-7-73h4q42 36 83 60.5t87 24.5q62 0 88.5-32t26.5-89q0-17-1.5-32t-6.5-35L402 0h-76l60 300q4 20 6 32t2 25q0 37-17 56t-55 19q-29 0-64.5-21T176 344L107 0H31zm265 575l-89 141 38 31 95-116h4l141 116 32-34-138-138h-83z"/><glyph glyph-name="ntilde" unicode="ñ" horiz-adv-x="525" d="M31 0l96 486h63l-7-73h4q42 36 83 60.5t87 24.5q62 0 88.5-32t26.5-89q0-17-1.5-32t-6.5-35L402 0h-76l60 300q4 20 6 32t2 25q0 37-17 56t-55 19q-29 0-64.5-21T176 344L107 0H31zm392 577q-26 0-42 13.5t-28.5 29-26 29T294 662q-23 0-37-22t-22-58l-55 3q12 60 41 98t79 38q26 0 42-13.5t29-29 26-29 32-13.5q23 0 37 22.5t22 57.5l55-4q-11-58-40.5-96.5T423 577z"/><glyph glyph-name="uni0146" unicode="ņ" horiz-adv-x="525" d="M31 0l96 486h63l-7-73h4q42 36 83 60.5t87 24.5q62 0 88.5-32t26.5-89q0-17-1.5-32t-6.5-35L402 0h-76l60 300q4 20 6 32t2 25q0 37-17 56t-55 19q-29 0-64.5-21T176 344L107 0H31zm68-218v39q60 2 88.5 16.5T216-126q0 17-14.5 27T153-87l23 37q32-3 52.5-8.5t32-13.5 16-19.5T281-116q0-25-13.5-43.5T230-191t-57.5-19.5T99-218z"/><glyph glyph-name="uni1E45" unicode="ṅ" horiz-adv-x="525" d="M31 0l96 486h63l-7-73h4q42 36 83 60.5t87 24.5q62 0 88.5-32t26.5-89q0-17-1.5-32t-6.5-35L402 0h-76l60 300q4 20 6 32t2 25q0 37-17 56t-55 19q-29 0-64.5-21T176 344L107 0H31zm318 587q-20 0-34.5 11.5T300 632q0 25 17.5 41.5T358 690q20 0 34.5-12t14.5-34q0-25-17.5-41T349 587z"/><glyph glyph-name="uni1E47" unicode="ṇ" horiz-adv-x="525" d="M31 0l96 486h63l-7-73h4q42 36 83 60.5t87 24.5q62 0 88.5-32t26.5-89q0-17-1.5-32t-6.5-35L402 0h-76l60 300q4 20 6 32t2 25q0 37-17 56t-55 19q-29 0-64.5-21T176 344L107 0H31zm163-204q-20 0-34.5 11.5T145-159q0 25 17.5 41.5T203-101q20 0 34.5-12t14.5-34q0-25-17.5-41T194-204z"/><glyph glyph-name="uni1E49" unicode="ṉ" horiz-adv-x="525" d="M31 0l96 486h63l-7-73h4q42 36 83 60.5t87 24.5q62 0 88.5-32t26.5-89q0-17-1.5-32t-6.5-35L402 0h-76l60 300q4 20 6 32t2 25q0 37-17 56t-55 19q-29 0-64.5-21T176 344L107 0H31zm38-164l10 54h254l-9-54H69z"/><glyph glyph-name="napostrophe" unicode="ŉ" horiz-adv-x="739" d="M127 443l-16 37q47 23 71.5 57t24.5 61h-5q-22 0-36 11.5T152 643q0 23 15 40t40 17q23 0 38-18t15-50q0-35-10-64t-28-53-42.5-42-52.5-30zM248 0l96 486h63l-7-73h4q42 36 83 60.5t87 24.5q62 0 88.5-32t26.5-89q0-17-1.5-32t-6.5-35L619 0h-76l60 300q4 20 6 32t2 25q0 37-17 56t-55 19q-29 0-64.5-21T393 344L324 0h-76z"/><glyph glyph-name="ograve" unicode="ò" horiz-adv-x="515" d="M212-12q-79 0-126 52T39 183q0 69 22 127t59 99.5 84 65 97 23.5q79 0 126.5-52T475 303q0-69-22.5-127t-59-99.5-84-65T212-12zm8 64q34 0 65.5 19.5T342 124t40 78 15 96q0 66-26.5 101.5T293 435q-33 0-65-19.5t-57-53-40-78.5-15-96q0-66 26.5-101T220 52zm145 518L233 734l66 49 114-177z"/><glyph glyph-name="oacute" unicode="ó" horiz-adv-x="515" d="M212-12q-79 0-126 52T39 183q0 69 22 127t59 99.5 84 65 97 23.5q79 0 126.5-52T475 303q0-69-22.5-127t-59-99.5-84-65T212-12zm8 64q34 0 65.5 19.5T342 124t40 78 15 96q0 66-26.5 101.5T293 435q-33 0-65-19.5t-57-53-40-78.5-15-96q0-66 26.5-101T220 52zm84 527l-35 45 168 153 47-60z"/><glyph glyph-name="ocircumflex" unicode="ô" horiz-adv-x="515" d="M212-12q-79 0-126 52T39 183q0 69 22 127t59 99.5 84 65 97 23.5q79 0 126.5-52T475 303q0-69-22.5-127t-59-99.5-84-65T212-12zm8 64q34 0 65.5 19.5T342 124t40 78 15 96q0 66-26.5 101.5T293 435q-33 0-65-19.5t-57-53-40-78.5-15-96q0-66 26.5-101T220 52zm-9 516l-31 34 138 138h83l89-141-39-31-94 116h-4z"/><glyph glyph-name="otilde" unicode="õ" horiz-adv-x="515" d="M212-12q-79 0-126 52T39 183q0 69 22 127t59 99.5 84 65 97 23.5q79 0 126.5-52T475 303q0-69-22.5-127t-59-99.5-84-65T212-12zm8 64q34 0 65.5 19.5T342 124t40 78 15 96q0 66-26.5 101.5T293 435q-33 0-65-19.5t-57-53-40-78.5-15-96q0-66 26.5-101T220 52zm190 525q-26 0-42 13.5t-28.5 29-26 29T281 662q-23 0-37-22t-22-58l-55 3q12 60 41 98t79 38q26 0 42-13.5t29-29 26-29 32-13.5q23 0 37 22.5t22 57.5l55-4q-11-58-40.5-96.5T410 577z"/><glyph glyph-name="odieresis" unicode="ö" horiz-adv-x="515" d="M212-12q-79 0-126 52T39 183q0 69 22 127t59 99.5 84 65 97 23.5q79 0 126.5-52T475 303q0-69-22.5-127t-59-99.5-84-65T212-12zm8 64q34 0 65.5 19.5T342 124t40 78 15 96q0 66-26.5 101.5T293 435q-33 0-65-19.5t-57-53-40-78.5-15-96q0-66 26.5-101T220 52zm23 537q-17 0-28.5 10.5T203 629q0 23 15 39t36 16q18 0 29.5-11t11.5-31q0-23-15.5-38T243 589zm186 0q-17 0-28.5 10.5T389 629q0 23 15 39t36 16q18 0 29-11t11-31q0-23-15-38t-36-15z"/><glyph glyph-name="omacron" unicode="ō" horiz-adv-x="515" d="M212-12q-79 0-126 52T39 183q0 69 22 127t59 99.5 84 65 97 23.5q79 0 126.5-52T475 303q0-69-22.5-127t-59-99.5-84-65T212-12zm8 64q34 0 65.5 19.5T342 124t40 78 15 96q0 66-26.5 101.5T293 435q-33 0-65-19.5t-57-53-40-78.5-15-96q0-66 26.5-101T220 52zm-13 549l10 54h254l-9-54H207z"/><glyph glyph-name="ohungarumlaut" unicode="ő" horiz-adv-x="515" d="M212-12q-79 0-126 52T39 183q0 69 22 127t59 99.5 84 65 97 23.5q79 0 126.5-52T475 303q0-69-22.5-127t-59-99.5-84-65T212-12zm8 64q34 0 65.5 19.5T342 124t40 78 15 96q0 66-26.5 101.5T293 435q-33 0-65-19.5t-57-53-40-78.5-15-96q0-66 26.5-101T220 52zm60 519l-41 25 117 163 52-34zm151 0l-42 25 118 163 52-34z"/><glyph glyph-name="uni01D2" unicode="ǒ" horiz-adv-x="515" d="M212-12q-79 0-126 52T39 183q0 69 22 127t59 99.5 84 65 97 23.5q79 0 126.5-52T475 303q0-69-22.5-127t-59-99.5-84-65T212-12zm8 64q34 0 65.5 19.5T342 124t40 78 15 96q0 66-26.5 101.5T293 435q-33 0-65-19.5t-57-53-40-78.5-15-96q0-66 26.5-101T220 52zm63 523l-89 141 38 31 95-116h4l141 116 32-34-138-138h-83z"/><glyph glyph-name="uni1ECD" unicode="ọ" horiz-adv-x="515" d="M212-12q-79 0-126 52T39 183q0 69 22 127t59 99.5 84 65 97 23.5q79 0 126.5-52T475 303q0-69-22.5-127t-59-99.5-84-65T212-12zm8 64q34 0 65.5 19.5T342 124t40 78 15 96q0 66-26.5 101.5T293 435q-33 0-65-19.5t-57-53-40-78.5-15-96q0-66 26.5-101T220 52zm-59-256q-20 0-34.5 11.5T112-159q0 25 17.5 41.5T170-101q20 0 34.5-12t14.5-34q0-25-17.5-41T161-204z"/><glyph glyph-name="uni1ECF" unicode="ỏ" horiz-adv-x="515" d="M212-12q-79 0-126 52T39 183q0 69 22 127t59 99.5 84 65 97 23.5q79 0 126.5-52T475 303q0-69-22.5-127t-59-99.5-84-65T212-12zm8 64q34 0 65.5 19.5T342 124t40 78 15 96q0 66-26.5 101.5T293 435q-33 0-65-19.5t-57-53-40-78.5-15-96q0-66 26.5-101T220 52zm77 520l-2 40q25 6 43.5 16.5T360 659q7 42-74 47l15 54q68-2 101-25.5t25-68.5q-5-22-17.5-37.5t-30-27-39-18.5-43.5-11z"/><glyph glyph-name="uni1ED1" unicode="ố" horiz-adv-x="515" d="M212-12q-79 0-126 52T39 183q0 69 22 127t59 99.5 84 65 97 23.5q79 0 126.5-52T475 303q0-69-22.5-127t-59-99.5-84-65T212-12zm8 64q34 0 65.5 19.5T342 124t40 78 15 96q0 66-26.5 101.5T293 435q-33 0-65-19.5t-57-53-40-78.5-15-96q0-66 26.5-101T220 52zm8 518l-24 35 116 91h68l84-95-33-31-87 75h-4zm244 70l-31 32 109 111 43-39z"/><glyph glyph-name="uni1ED3" unicode="ồ" horiz-adv-x="515" d="M212-12q-79 0-126 52T39 183q0 69 22 127t59 99.5 84 65 97 23.5q79 0 126.5-52T475 303q0-69-22.5-127t-59-99.5-84-65T212-12zm8 64q34 0 65.5 19.5T342 124t40 78 15 96q0 66-26.5 101.5T293 435q-33 0-65-19.5t-57-53-40-78.5-15-96q0-66 26.5-101T220 52zm8 518l-24 35 116 91h68l84-95-33-31-87 75h-4zm-24 69l-92 116 54 31 77-121z"/><glyph glyph-name="uni1ED5" unicode="ổ" horiz-adv-x="515" d="M212-12q-79 0-126 52T39 183q0 69 22 127t59 99.5 84 65 97 23.5q79 0 126.5-52T475 303q0-69-22.5-127t-59-99.5-84-65T212-12zm8 64q34 0 65.5 19.5T342 124t40 78 15 96q0 66-26.5 101.5T293 435q-33 0-65-19.5t-57-53-40-78.5-15-96q0-66 26.5-101T220 52zm8 518l-24 35 116 91h68l84-95-33-31-87 75h-4zm233 65l-5 35q20 5 33 14t16 25q4 20-10.5 29.5T443 750l14 41q58-2 86.5-20t22.5-53q-4-20-14-34t-24.5-23.5T496 645t-35-10z"/><glyph glyph-name="uni1ED7" unicode="ỗ" horiz-adv-x="515" d="M212-12q-79 0-126 52T39 183q0 69 22 127t59 99.5 84 65 97 23.5q79 0 126.5-52T475 303q0-69-22.5-127t-59-99.5-84-65T212-12zm8 64q34 0 65.5 19.5T342 124t40 78 15 96q0 66-26.5 101.5T293 435q-33 0-65-19.5t-57-53-40-78.5-15-96q0-66 26.5-101T220 52zm8 518l-24 35 114 87h68l86-91-33-31-88 71h-4zm193 140q-22 0-38 6.5T354 731t-25.5 14.5T302 752q-15 0-24-10t-17-32l-42 4q11 39 32.5 64t56.5 25q22 0 37.5-6.5T374 782t25-14.5 27-6.5q26 0 40 42l42-4q-11-38-31.5-63.5T421 710z"/><glyph glyph-name="uni1ED9" unicode="ộ" horiz-adv-x="515" d="M212-12q-79 0-126 52T39 183q0 69 22 127t59 99.5 84 65 97 23.5q79 0 126.5-52T475 303q0-69-22.5-127t-59-99.5-84-65T212-12zm8 64q34 0 65.5 19.5T342 124t40 78 15 96q0 66-26.5 101.5T293 435q-33 0-65-19.5t-57-53-40-78.5-15-96q0-66 26.5-101T220 52zm-9 516l-31 34 138 138h83l89-141-39-31-94 116h-4zm-50-772q-20 0-34.5 11.5T112-159q0 25 17.5 41.5T170-101q20 0 34.5-12t14.5-34q0-25-17.5-41T161-204z"/><glyph glyph-name="oslash" unicode="ø" horiz-adv-x="515" d="M212-12q-77 0-124 50L29-23 0 5l64 66q-25 47-25 112 0 69 22 127t59 99.5 84 65 97 23.5q80 0 127-53l61 63 30-28-67-69q23-46 23-108 0-69-22.5-127t-59-100-84-65T212-12zM112 188q0-36 7-60l259 266q-28 42-83 42-37 0-70.5-21T166 359.5 126.5 280 112 188zM218 50q37 0 70.5 21t59 55.5 40 79T402 297q0 32-6 56L137 88q27-38 81-38z"/><glyph glyph-name="oe" unicode="œ" horiz-adv-x="812" d="M208-12q-77 0-123 52T39 183q0 69 22 127t58 99.5 82.5 65T297 498q61 0 98.5-32.5T447 372q16 30 37 53.5t45 39.5 49 24.5 50 8.5q41 0 70-13.5t47-37 26-56 8-69.5q0-29-6.5-55T761 227H461q-6-47 1.5-80.5t24-55.5 40-32T578 49q29 0 57.5 12.5T687 91l29-51q-29-21-69-36.5T559-12q-58 0-98 33.5T407 121q-34-63-87-98T208-12zm12 64q33 0 64 19.5t55.5 52.5 39.5 78 15 96q0 66-26.5 101.5T290 435q-32 0-63.5-19.5t-56-53T131 284t-15-96q0-66 26.5-101T220 52zm249 227h239q6 24 6 50 0 21-5 40.5T693 404t-29 24-44 9q-24 0-47.5-11T529 394t-35.5-50-24.5-65z"/><glyph glyph-name="ohorn" unicode="ơ" horiz-adv-x="517" d="M212-12q-79 0-126 52T39 183q0 69 22 127t59 99.5 84 65 97 23.5q51 0 91-23 43 7 69 33.5t28 68.5q0 9-2 21.5t-6 22.5l61 23q6-15 8.5-31t2.5-30q0-29-10-52.5T516.5 489t-39-30-46.5-18q21-25 32.5-59.5T475 303q0-69-22.5-127t-59-99.5-84-65T212-12zm8 64q34 0 65.5 19.5T342 124t40 78 15 96q0 66-26.5 101.5T293 435q-33 0-65-19.5t-57-53-40-78.5-15-96q0-66 26.5-101T220 52z"/><glyph glyph-name="uni1EDB" unicode="ớ" horiz-adv-x="517" d="M212-12q-79 0-126 52T39 183q0 69 22 127t59 99.5 84 65 97 23.5q51 0 91-23 43 7 69 33.5t28 68.5q0 9-2 21.5t-6 22.5l61 23q6-15 8.5-31t2.5-30q0-29-10-52.5T516.5 489t-39-30-46.5-18q21-25 32.5-59.5T475 303q0-69-22.5-127t-59-99.5-84-65T212-12zm8 64q34 0 65.5 19.5T342 124t40 78 15 96q0 66-26.5 101.5T293 435q-33 0-65-19.5t-57-53-40-78.5-15-96q0-66 26.5-101T220 52zm73 527l-35 45 168 153 47-60z"/><glyph glyph-name="uni1EDD" unicode="ờ" horiz-adv-x="517" d="M212-12q-79 0-126 52T39 183q0 69 22 127t59 99.5 84 65 97 23.5q51 0 91-23 43 7 69 33.5t28 68.5q0 9-2 21.5t-6 22.5l61 23q6-15 8.5-31t2.5-30q0-29-10-52.5T516.5 489t-39-30-46.5-18q21-25 32.5-59.5T475 303q0-69-22.5-127t-59-99.5-84-65T212-12zm8 64q34 0 65.5 19.5T342 124t40 78 15 96q0 66-26.5 101.5T293 435q-33 0-65-19.5t-57-53-40-78.5-15-96q0-66 26.5-101T220 52zm134 518L222 734l66 49 114-177z"/><glyph glyph-name="uni1EDF" unicode="ở" horiz-adv-x="517" d="M212-12q-79 0-126 52T39 183q0 69 22 127t59 99.5 84 65 97 23.5q51 0 91-23 43 7 69 33.5t28 68.5q0 9-2 21.5t-6 22.5l61 23q6-15 8.5-31t2.5-30q0-29-10-52.5T516.5 489t-39-30-46.5-18q21-25 32.5-59.5T475 303q0-69-22.5-127t-59-99.5-84-65T212-12zm8 64q34 0 65.5 19.5T342 124t40 78 15 96q0 66-26.5 101.5T293 435q-33 0-65-19.5t-57-53-40-78.5-15-96q0-66 26.5-101T220 52zm66 520l-2 40q25 6 43.5 16.5T349 659q7 42-74 47l15 54q68-2 101-25.5t25-68.5q-5-22-17.5-37.5t-30-27-39-18.5-43.5-11z"/><glyph glyph-name="uni1EE1" unicode="ỡ" horiz-adv-x="517" d="M374 577q-25 0-40.5 13.5t-28.5 29-26 29-32 13.5q-22 0-36-22t-22-58l-52 3q11 59 39 97.5t75 38.5q25 0 40.5-13.5t28.5-29 26-29 32-13.5q22 0 36 22.5t22 57.5l53-4q-12-58-39.5-96.5T374 577zM212-12q-79 0-126 52T39 183q0 69 22 127t59 99.5 84 65 97 23.5q51 0 91-23 43 7 69 33.5t28 68.5q0 9-2 21.5t-6 22.5l61 23q6-15 8.5-31t2.5-30q0-29-10-52.5T516.5 489t-39-30-46.5-18q21-25 32.5-59.5T475 303q0-69-22.5-127t-59-99.5-84-65T212-12zm8 64q34 0 65.5 19.5T342 124t40 78 15 96q0 66-26.5 101.5T293 435q-33 0-65-19.5t-57-53-40-78.5-15-96q0-66 26.5-101T220 52z"/><glyph glyph-name="uni1EE3" unicode="ợ" horiz-adv-x="517" d="M212-12q-79 0-126 52T39 183q0 69 22 127t59 99.5 84 65 97 23.5q51 0 91-23 43 7 69 33.5t28 68.5q0 9-2 21.5t-6 22.5l61 23q6-15 8.5-31t2.5-30q0-29-10-52.5T516.5 489t-39-30-46.5-18q21-25 32.5-59.5T475 303q0-69-22.5-127t-59-99.5-84-65T212-12zm8 64q34 0 65.5 19.5T342 124t40 78 15 96q0 66-26.5 101.5T293 435q-33 0-65-19.5t-57-53-40-78.5-15-96q0-66 26.5-101T220 52zm-62-256q-20 0-34.5 11.5T109-159q0 25 17.5 41.5T167-101q20 0 34.5-12t14.5-34q0-25-17.5-41T158-204z"/><glyph glyph-name="uni01EB" unicode="ǫ" horiz-adv-x="515" d="M185-206q-32 0-53.5 17T110-139q0 22 8.5 42.5T140-59t27.5 30T193-10Q121-2 80 46.5T39 183q0 69 22 127t59 99.5 84 65 97 23.5q38 0 70-13t55-38 36-61.5 13-82.5q0-59-15-107.5t-41.5-87T355 42 274-5q-51-22-77-54.5T171-118q0-17 10.5-27t25.5-10q11 0 19.5 3t18.5 9l16-38q-17-11-38-18t-38-7zm35 258q34 0 65.5 19.5T342 124t40 78 15 96q0 66-26.5 101.5T293 435q-33 0-65-19.5t-57-53-40-78.5-15-96q0-66 26.5-101T220 52z"/><glyph glyph-name="racute" unicode="ŕ" horiz-adv-x="342" d="M31 0l96 486h63l-11-93h4q29 45 67.5 75t83.5 30q25 0 46-9l-27-68q-16 8-42 8-36 0-74-31t-69-91L107 0H31zm205 579l-35 45 168 153 47-60z"/><glyph glyph-name="uni0157" unicode="ŗ" horiz-adv-x="342" d="M31 0l96 486h63l-11-93h4q29 45 67.5 75t83.5 30q25 0 46-9l-27-68q-16 8-42 8-36 0-74-31t-69-91L107 0H31zm-84-218v39q60 2 88.5 16.5T64-126q0 17-14.5 27T1-87l23 37q32-3 52.5-8.5t32-13.5 16-19.5T129-116q0-25-13.5-43.5T78-191t-57.5-19.5T-53-218z"/><glyph glyph-name="rcaron" unicode="ř" horiz-adv-x="342" d="M31 0l96 486h63l-11-93h4q29 45 67.5 75t83.5 30q25 0 46-9l-27-68q-16 8-42 8-36 0-74-31t-69-91L107 0H31zm184 575l-89 141 38 31 95-116h4l141 116 32-34-138-138h-83z"/><glyph glyph-name="uni1E5B" unicode="ṛ" horiz-adv-x="342" d="M31 0l96 486h63l-11-93h4q29 45 67.5 75t83.5 30q25 0 46-9l-27-68q-16 8-42 8-36 0-74-31t-69-91L107 0H31zm12-204q-20 0-34.5 11.5T-6-159q0 25 17.5 41.5T52-101q20 0 34.5-12t14.5-34q0-25-17.5-41T43-204z"/><glyph glyph-name="uni1E5D" unicode="ṝ" horiz-adv-x="342" d="M31 0l96 486h63l-11-93h4q29 45 67.5 75t83.5 30q25 0 46-9l-27-68q-16 8-42 8-36 0-74-31t-69-91L107 0H31zm108 601l10 54h254l-9-54H139zM43-204q-20 0-34.5 11.5T-6-159q0 25 17.5 41.5T52-101q20 0 34.5-12t14.5-34q0-25-17.5-41T43-204z"/><glyph glyph-name="uni1E5F" unicode="ṟ" horiz-adv-x="342" d="M31 0l96 486h63l-11-93h4q29 45 67.5 75t83.5 30q25 0 46-9l-27-68q-16 8-42 8-36 0-74-31t-69-91L107 0H31zM-82-164l10 54h254l-9-54H-82z"/><glyph glyph-name="sacute" unicode="ś" horiz-adv-x="402" d="M163-12q-24 0-48.5 7t-47 19.5-41 29.5T-4 80l48 38q23-32 55-51.5T169 47q21 0 39.5 6.5t33 17.5T264 96.5t8 31.5q0 13-4.5 24T253 173.5 225.5 195 183 220q-57 31-84 61t-27 72q0 32 13.5 59t36 46 53 29.5T239 498q45 0 80.5-18t62.5-47l-44-43q-20 20-44 34t-57 14q-39 0-65.5-22.5T145 362q0-15 7-27t19-22 27.5-19 32.5-18q33-18 54.5-34.5t35-33 19-33.5 5.5-37q0-34-13.5-62t-38-47.5-58-30T163-12zm79 591l-35 45 168 153 47-60z"/><glyph glyph-name="scircumflex" unicode="ŝ" horiz-adv-x="402" d="M163-12q-24 0-48.5 7t-47 19.5-41 29.5T-4 80l48 38q23-32 55-51.5T169 47q21 0 39.5 6.5t33 17.5T264 96.5t8 31.5q0 13-4.5 24T253 173.5 225.5 195 183 220q-57 31-84 61t-27 72q0 32 13.5 59t36 46 53 29.5T239 498q45 0 80.5-18t62.5-47l-44-43q-20 20-44 34t-57 14q-39 0-65.5-22.5T145 362q0-15 7-27t19-22 27.5-19 32.5-18q33-18 54.5-34.5t35-33 19-33.5 5.5-37q0-34-13.5-62t-38-47.5-58-30T163-12zm-14 580l-31 34 138 138h83l89-141-39-31-94 116h-4z"/><glyph glyph-name="scaron" unicode="š" horiz-adv-x="402" d="M163-12q-24 0-48.5 7t-47 19.5-41 29.5T-4 80l48 38q23-32 55-51.5T169 47q21 0 39.5 6.5t33 17.5T264 96.5t8 31.5q0 13-4.5 24T253 173.5 225.5 195 183 220q-57 31-84 61t-27 72q0 32 13.5 59t36 46 53 29.5T239 498q45 0 80.5-18t62.5-47l-44-43q-20 20-44 34t-57 14q-39 0-65.5-22.5T145 362q0-15 7-27t19-22 27.5-19 32.5-18q33-18 54.5-34.5t35-33 19-33.5 5.5-37q0-34-13.5-62t-38-47.5-58-30T163-12zm58 587l-89 141 38 31 95-116h4l141 116 32-34-138-138h-83z"/><glyph glyph-name="uni015F" unicode="ş" horiz-adv-x="402" d="M163-12q-24 0-48.5 7t-47 19.5-41 29.5T-4 80l48 38q23-32 55-51.5T169 47q21 0 39.5 6.5t33 17.5T264 96.5t8 31.5q0 13-4.5 24T253 173.5 225.5 195 183 220q-57 31-84 61t-27 72q0 32 13.5 59t36 46 53 29.5T239 498q45 0 80.5-18t62.5-47l-44-43q-20 20-44 34t-57 14q-39 0-65.5-22.5T145 362q0-15 7-27t19-22 27.5-19 32.5-18q33-18 54.5-34.5t35-33 19-33.5 5.5-37q0-34-13.5-62t-38-47.5-58-30T163-12zM41-226l-2 39q60 2 88.5 16t30.5 38q0 19-15.5 29T89-90l60 93h54l-41-68q35-9 48-23.5t11-39.5q-4-48-52-72T41-226z"/><glyph glyph-name="uni0219" unicode="ș" horiz-adv-x="402" d="M163-12q-24 0-48.5 7t-47 19.5-41 29.5T-4 80l48 38q23-32 55-51.5T169 47q21 0 39.5 6.5t33 17.5T264 96.5t8 31.5q0 13-4.5 24T253 173.5 225.5 195 183 220q-57 31-84 61t-27 72q0 32 13.5 59t36 46 53 29.5T239 498q45 0 80.5-18t62.5-47l-44-43q-20 20-44 34t-57 14q-39 0-65.5-22.5T145 362q0-15 7-27t19-22 27.5-19 32.5-18q33-18 54.5-34.5t35-33 19-33.5 5.5-37q0-34-13.5-62t-38-47.5-58-30T163-12zM46-218v39q60 2 88.5 16.5T163-126q0 17-14.5 27T100-87l23 37q32-3 52.5-8.5t32-13.5 16-19.5T228-116q0-25-13.5-43.5T177-191t-57.5-19.5T46-218z"/><glyph glyph-name="uni1E61" unicode="ṡ" horiz-adv-x="402" d="M163-12q-24 0-48.5 7t-47 19.5-41 29.5T-4 80l48 38q23-32 55-51.5T169 47q21 0 39.5 6.5t33 17.5T264 96.5t8 31.5q0 13-4.5 24T253 173.5 225.5 195 183 220q-57 31-84 61t-27 72q0 32 13.5 59t36 46 53 29.5T239 498q45 0 80.5-18t62.5-47l-44-43q-20 20-44 34t-57 14q-39 0-65.5-22.5T145 362q0-15 7-27t19-22 27.5-19 32.5-18q33-18 54.5-34.5t35-33 19-33.5 5.5-37q0-34-13.5-62t-38-47.5-58-30T163-12zm111 599q-20 0-34.5 11.5T225 632q0 25 17.5 41.5T283 690q20 0 34.5-12t14.5-34q0-25-17.5-41T274 587z"/><glyph glyph-name="uni1E63" unicode="ṣ" horiz-adv-x="402" d="M163-12q-24 0-48.5 7t-47 19.5-41 29.5T-4 80l48 38q23-32 55-51.5T169 47q21 0 39.5 6.5t33 17.5T264 96.5t8 31.5q0 13-4.5 24T253 173.5 225.5 195 183 220q-57 31-84 61t-27 72q0 32 13.5 59t36 46 53 29.5T239 498q45 0 80.5-18t62.5-47l-44-43q-20 20-44 34t-57 14q-39 0-65.5-22.5T145 362q0-15 7-27t19-22 27.5-19 32.5-18q33-18 54.5-34.5t35-33 19-33.5 5.5-37q0-34-13.5-62t-38-47.5-58-30T163-12zm-22-192q-20 0-34.5 11.5T92-159q0 25 17.5 41.5T150-101q20 0 34.5-12t14.5-34q0-25-17.5-41T141-204z"/><glyph glyph-name="germandbls" unicode="ß" horiz-adv-x="555" d="M339-12q-37 0-73 12.5T199 38l35 51q23-19 48.5-30T339 48q39 0 66.5 24.5T433 135q0 24-11 42t-28 33-36 29-36 30-28 35-11 45 10 46.5 24.5 37.5 32 33 32 33.5T406 537t10 47q0 34-17 56t-56 22q-26 0-47.5-12.5T257 616t-29-49-19-60L107 0H31l105 525q9 41 27 77t44.5 63 61.5 43 77 16q30 0 56-8t45.5-24.5 31-41.5 11.5-58q0-31-10-54.5T455.5 495 424 460.5 392.5 430 368 399t-10-36 11-35 27-29 35.5-28.5 35.5-32 27-40 11-53.5q0-33-12.5-61.5t-35-49.5T405 .5 339-12z"/><glyph glyph-name="tcaron" unicode="ť" horiz-adv-x="325" d="M185-12q-32 0-54 8.5t-36 23-20 34T69 96q0 15 1.5 27.5T74 150l57 274H60l11 57 76 5 36 134h65l-27-134h123l-12-62H207l-57-278q-3-18-3-36 0-30 13.5-45T209 50q14 0 27 5t24 10l17-55q-17-8-40-15t-52-7zm129 560l40 212h54l-11-57-44-155h-39z"/><glyph glyph-name="uni0163" unicode="ţ" horiz-adv-x="325" d="M185-12q-32 0-54 8.5t-36 23-20 34T69 96q0 15 1.5 27.5T74 150l57 274H60l11 57 76 5 36 134h65l-27-134h123l-12-62H207l-57-278q-3-18-3-36 0-30 13.5-45T209 50q14 0 27 5t24 10l17-55q-17-8-40-15t-52-7zM42-226l-2 39q60 2 88.5 16t30.5 38q0 19-15.5 29T90-90l60 93h54l-41-68q35-9 48-23.5t11-39.5q-4-48-52-72T42-226z"/><glyph glyph-name="uni021B" unicode="ț" horiz-adv-x="325" d="M185-12q-32 0-54 8.5t-36 23-20 34T69 96q0 15 1.5 27.5T74 150l57 274H60l11 57 76 5 36 134h65l-27-134h123l-12-62H207l-57-278q-3-18-3-36 0-30 13.5-45T209 50q14 0 27 5t24 10l17-55q-17-8-40-15t-52-7zM34-218v39q60 2 88.5 16.5T151-126q0 17-14.5 27T88-87l23 37q32-3 52.5-8.5t32-13.5 16-19.5T216-116q0-25-13.5-43.5T165-191t-57.5-19.5T34-218z"/><glyph glyph-name="uni1E6D" unicode="ṭ" horiz-adv-x="325" d="M185-12q-32 0-54 8.5t-36 23-20 34T69 96q0 15 1.5 27.5T74 150l57 274H60l11 57 76 5 36 134h65l-27-134h123l-12-62H207l-57-278q-3-18-3-36 0-30 13.5-45T209 50q14 0 27 5t24 10l17-55q-17-8-40-15t-52-7zm-56-192q-20 0-34.5 11.5T80-159q0 25 17.5 41.5T138-101q20 0 34.5-12t14.5-34q0-25-17.5-41T129-204z"/><glyph glyph-name="uni1E6F" unicode="ṯ" horiz-adv-x="325" d="M185-12q-32 0-54 8.5t-36 23-20 34T69 96q0 15 1.5 27.5T74 150l57 274H60l11 57 76 5 36 134h65l-27-134h123l-12-62H207l-57-278q-3-18-3-36 0-30 13.5-45T209 50q14 0 27 5t24 10l17-55q-17-8-40-15t-52-7zM4-164l10 54h254l-9-54H4z"/><glyph glyph-name="uni1E97" unicode="ẗ" horiz-adv-x="325" d="M185-12q-32 0-54 8.5t-36 23-20 34T69 96q0 15 1.5 27.5T74 150l57 274H60l11 57 76 5 36 134h65l-27-134h123l-12-62H207l-57-278q-3-18-3-36 0-30 13.5-45T209 50q14 0 27 5t24 10l17-55q-17-8-40-15t-52-7zm-48 737q-17 0-28.5 10.5T97 765q0 23 15 39t36 16q18 0 29.5-11t11.5-31q0-23-15.5-38T137 725zm186 0q-17 0-28.5 10.5T283 765q0 23 15 39t36 16q18 0 29-11t11-31q0-23-15-38t-36-15z"/><glyph glyph-name="ugrave" unicode="ù" horiz-adv-x="528" d="M495 486L398 0h-63l8 74h-4q-40-35-81.5-60.5T171-12q-62 0-88.5 32.5T56 109q0 17 1.5 32t6.5 35l62 310h77l-61-300q-4-20-6-32t-2-25q0-37 17-56t55-19q29 0 64 21t80 67l69 344h76zm-137 84L226 734l66 49 114-177z"/><glyph glyph-name="uacute" unicode="ú" horiz-adv-x="528" d="M495 486L398 0h-63l8 74h-4q-40-35-81.5-60.5T171-12q-62 0-88.5 32.5T56 109q0 17 1.5 32t6.5 35l62 310h77l-61-300q-4-20-6-32t-2-25q0-37 17-56t55-19q29 0 64 21t80 67l69 344h76zm-198 93l-35 45 168 153 47-60z"/><glyph glyph-name="ucircumflex" unicode="û" horiz-adv-x="528" d="M495 486L398 0h-63l8 74h-4q-40-35-81.5-60.5T171-12q-62 0-88.5 32.5T56 109q0 17 1.5 32t6.5 35l62 310h77l-61-300q-4-20-6-32t-2-25q0-37 17-56t55-19q29 0 64 21t80 67l69 344h76zm-291 82l-31 34 138 138h83l89-141-39-31-94 116h-4z"/><glyph glyph-name="utilde" unicode="ũ" horiz-adv-x="528" d="M495 486L398 0h-63l8 74h-4q-40-35-81.5-60.5T171-12q-62 0-88.5 32.5T56 109q0 17 1.5 32t6.5 35l62 310h77l-61-300q-4-20-6-32t-2-25q0-37 17-56t55-19q29 0 64 21t80 67l69 344h76zm-92 91q-26 0-42 13.5t-28.5 29-26 29T274 662q-23 0-37-22t-22-58l-55 3q12 60 41 98t79 38q26 0 42-13.5t29-29 26-29 32-13.5q23 0 37 22.5t22 57.5l55-4q-11-58-40.5-96.5T403 577z"/><glyph glyph-name="udieresis" unicode="ü" horiz-adv-x="528" d="M495 486L398 0h-63l8 74h-4q-40-35-81.5-60.5T171-12q-62 0-88.5 32.5T56 109q0 17 1.5 32t6.5 35l62 310h77l-61-300q-4-20-6-32t-2-25q0-37 17-56t55-19q29 0 64 21t80 67l69 344h76zM236 589q-17 0-28.5 10.5T196 629q0 23 15 39t36 16q18 0 29.5-11t11.5-31q0-23-15.5-38T236 589zm186 0q-17 0-28.5 10.5T382 629q0 23 15 39t36 16q18 0 29-11t11-31q0-23-15-38t-36-15z"/><glyph glyph-name="umacron" unicode="ū" horiz-adv-x="528" d="M495 486L398 0h-63l8 74h-4q-40-35-81.5-60.5T171-12q-62 0-88.5 32.5T56 109q0 17 1.5 32t6.5 35l62 310h77l-61-300q-4-20-6-32t-2-25q0-37 17-56t55-19q29 0 64 21t80 67l69 344h76zM200 601l10 54h254l-9-54H200z"/><glyph glyph-name="ubreve" unicode="ŭ" horiz-adv-x="528" d="M495 486L398 0h-63l8 74h-4q-40-35-81.5-60.5T171-12q-62 0-88.5 32.5T56 109q0 17 1.5 32t6.5 35l62 310h77l-61-300q-4-20-6-32t-2-25q0-37 17-56t55-19q29 0 64 21t80 67l69 344h76zm-172 85q-39 0-65 13t-41 34.5-20 48.5-2 55l53 8q-1-19 3-37.5t14.5-33.5 27.5-24 41-9 44 9 35 24 26 33.5 18 37.5l50-8q-7-28-21.5-55t-37-48.5-54-34.5-71.5-13z"/><glyph glyph-name="uring" unicode="ů" horiz-adv-x="528" d="M495 486L398 0h-63l8 74h-4q-40-35-81.5-60.5T171-12q-62 0-88.5 32.5T56 109q0 17 1.5 32t6.5 35l62 310h77l-61-300q-4-20-6-32t-2-25q0-37 17-56t55-19q29 0 64 21t80 67l69 344h76zm-168 71q-41 0-68 21t-27 61q0 22 8.5 42.5T265 717t37.5 24 47.5 9q41 0 68.5-21t27.5-61q0-23-9-43t-24.5-35-37.5-24-48-9zm5 36q25 0 43.5 21.5T394 665q0 21-13 35t-36 14q-25 0-43-21.5T284 642q0-22 12.5-35.5T332 593z"/><glyph glyph-name="uhungarumlaut" unicode="ű" horiz-adv-x="528" d="M495 486L398 0h-63l8 74h-4q-40-35-81.5-60.5T171-12q-62 0-88.5 32.5T56 109q0 17 1.5 32t6.5 35l62 310h77l-61-300q-4-20-6-32t-2-25q0-37 17-56t55-19q29 0 64 21t80 67l69 344h76zm-222 85l-41 25 117 163 52-34zm151 0l-42 25 118 163 52-34z"/><glyph glyph-name="uni01D4" unicode="ǔ" horiz-adv-x="528" d="M495 486L398 0h-63l8 74h-4q-40-35-81.5-60.5T171-12q-62 0-88.5 32.5T56 109q0 17 1.5 32t6.5 35l62 310h77l-61-300q-4-20-6-32t-2-25q0-37 17-56t55-19q29 0 64 21t80 67l69 344h76zm-219 89l-89 141 38 31 95-116h4l141 116 32-34-138-138h-83z"/><glyph glyph-name="uni01D6" unicode="ǖ" horiz-adv-x="528" d="M495 486L398 0h-63l8 74h-4q-40-35-81.5-60.5T171-12q-62 0-88.5 32.5T56 109q0 17 1.5 32t6.5 35l62 310h77l-61-300q-4-20-6-32t-2-25q0-37 17-56t55-19q29 0 64 21t80 67l69 344h76zM236 589q-16 0-26 10t-10 26q0 22 14 37t34 15q17 0 27-10t10-27q0-21-14.5-36T236 589zm186 0q-17 0-27 10t-10 26q0 22 14 37t34 15q17 0 26.5-10t9.5-27q0-21-14-36t-33-15zM232 748l10 44h253l-9-44H232z"/><glyph glyph-name="uni01D8" unicode="ǘ" horiz-adv-x="528" d="M495 486L398 0h-63l8 74h-4q-40-35-81.5-60.5T171-12q-62 0-88.5 32.5T56 109q0 17 1.5 32t6.5 35l62 310h77l-61-300q-4-20-6-32t-2-25q0-37 17-56t55-19q29 0 64 21t80 67l69 344h76zM352 708l-30 28 102 106 42-38zM236 589q-16 0-26 10t-10 26q0 22 14 37t34 15q17 0 27-10t10-27q0-21-14.5-36T236 589zm186 0q-17 0-27 10t-10 26q0 22 14 37t34 15q17 0 26.5-10t9.5-27q0-21-14-36t-33-15z"/><glyph glyph-name="uni01DA" unicode="ǚ" horiz-adv-x="528" d="M495 486L398 0h-63l8 74h-4q-40-35-81.5-60.5T171-12q-62 0-88.5 32.5T56 109q0 17 1.5 32t6.5 35l62 310h77l-61-300q-4-20-6-32t-2-25q0-37 17-56t55-19q29 0 64 21t80 67l69 344h76zM318 720l-84 93 33 29 88-74h4l118 74 25-30-116-92h-68zm-82-131q-16 0-26 10t-10 26q0 22 14 37t34 15q17 0 27-10t10-27q0-21-14.5-36T236 589zm186 0q-17 0-27 10t-10 26q0 22 14 37t34 15q17 0 26.5-10t9.5-27q0-21-14-36t-33-15z"/><glyph glyph-name="uni01DC" unicode="ǜ" horiz-adv-x="528" d="M495 486L398 0h-63l8 74h-4q-40-35-81.5-60.5T171-12q-62 0-88.5 32.5T56 109q0 17 1.5 32t6.5 35l62 310h77l-61-300q-4-20-6-32t-2-25q0-37 17-56t55-19q29 0 64 21t80 67l69 344h76zM236 589q-16 0-26 10t-10 26q0 22 14 37t34 15q17 0 27-10t10-27q0-21-14.5-36T236 589zm186 0q-17 0-27 10t-10 26q0 22 14 37t34 15q17 0 26.5-10t9.5-27q0-21-14-36t-33-15zm-72 113l-77 113 51 30 64-122z"/><glyph glyph-name="uni1EE5" unicode="ụ" horiz-adv-x="528" d="M495 486L398 0h-63l8 74h-4q-40-35-81.5-60.5T171-12q-62 0-88.5 32.5T56 109q0 17 1.5 32t6.5 35l62 310h77l-61-300q-4-20-6-32t-2-25q0-37 17-56t55-19q29 0 64 21t80 67l69 344h76zM212-207q-20 0-34.5 11.5T163-162q0 25 17.5 41.5T221-104q20 0 34.5-12t14.5-34q0-25-17.5-41T212-207z"/><glyph glyph-name="uni1EE7" unicode="ủ" horiz-adv-x="528" d="M495 486L398 0h-63l8 74h-4q-40-35-81.5-60.5T171-12q-62 0-88.5 32.5T56 109q0 17 1.5 32t6.5 35l62 310h77l-61-300q-4-20-6-32t-2-25q0-37 17-56t55-19q29 0 64 21t80 67l69 344h76zm-205 86l-2 40q25 6 43.5 16.5T353 659q7 42-74 47l15 54q68-2 101-25.5t25-68.5q-5-22-17.5-37.5t-30-27-39-18.5-43.5-11z"/><glyph glyph-name="uogonek" unicode="ų" horiz-adv-x="528" d="M302-206q-32 0-53.5 17T227-139q0 22 10 43.5T262.5-55t35 34.5T337 6l6 68h-4q-40-35-81.5-60.5T171-12q-62 0-88.5 32.5T56 109q0 17 1.5 32t6.5 35l62 310h77l-61-300q-4-20-6-32t-2-25q0-37 17-56t55-19q29 0 64 21t80 67l69 344h76L398 0q-51-23-80.5-54T288-118q0-17 10.5-27t26.5-10q19 0 37 12l16-38q-17-11-38-18t-38-7z"/><glyph glyph-name="uhorn" unicode="ư" horiz-adv-x="543" d="M339 74q-40-35-81.5-60.5T171-12q-62 0-88.5 32.5T56 109q0 17 1.5 32t6.5 35l62 310h77l-61-300q-4-20-6-32t-2-25q0-37 17-56t55-19q29 0 64 21t80 67l69 344h27q36 4 63 30t29 71q1 9-1 21.5t-6 23.5l61 22q5-15 8-31t3-30q0-30-10-53.5t-26.5-41-37-29T488 452L398 0h-63l8 74h-4z"/><glyph glyph-name="uni1EE9" unicode="ứ" horiz-adv-x="543" d="M339 74q-40-35-81.5-60.5T171-12q-62 0-88.5 32.5T56 109q0 17 1.5 32t6.5 35l62 310h77l-61-300q-4-20-6-32t-2-25q0-37 17-56t55-19q29 0 64 21t80 67l69 344h27q36 4 63 30t29 71q1 9-1 21.5t-6 23.5l61 22q5-15 8-31t3-30q0-30-10-53.5t-26.5-41-37-29T488 452L398 0h-63l8 74h-4zm-42 505l-35 45 168 153 47-60z"/><glyph glyph-name="uni1EEB" unicode="ừ" horiz-adv-x="543" d="M339 74q-40-35-81.5-60.5T171-12q-62 0-88.5 32.5T56 109q0 17 1.5 32t6.5 35l62 310h77l-61-300q-4-20-6-32t-2-25q0-37 17-56t55-19q29 0 64 21t80 67l69 344h27q36 4 63 30t29 71q1 9-1 21.5t-6 23.5l61 22q5-15 8-31t3-30q0-30-10-53.5t-26.5-41-37-29T488 452L398 0h-63l8 74h-4zm19 496L226 734l66 49 114-177z"/><glyph glyph-name="uni1EED" unicode="ử" horiz-adv-x="543" d="M339 74q-40-35-81.5-60.5T171-12q-62 0-88.5 32.5T56 109q0 17 1.5 32t6.5 35l62 310h77l-61-300q-4-20-6-32t-2-25q0-37 17-56t55-19q29 0 64 21t80 67l69 344h27q36 4 63 30t29 71q1 9-1 21.5t-6 23.5l61 22q5-15 8-31t3-30q0-30-10-53.5t-26.5-41-37-29T488 452L398 0h-63l8 74h-4zm-49 498l-2 40q25 6 43.5 16.5T353 659q7 42-74 47l15 54q68-2 101-25.5t25-68.5q-5-22-17.5-37.5t-30-27-39-18.5-43.5-11z"/><glyph glyph-name="uni1EEF" unicode="ữ" horiz-adv-x="543" d="M339 74q-40-35-81.5-60.5T171-12q-62 0-88.5 32.5T56 109q0 17 1.5 32t6.5 35l62 310h77l-61-300q-4-20-6-32t-2-25q0-37 17-56t55-19q29 0 64 21t80 67l69 344h27q36 4 63 30t29 71q1 9-1 21.5t-6 23.5l61 22q5-15 8-31t3-30q0-30-10-53.5t-26.5-41-37-29T488 452L398 0h-63l8 74h-4zm56 503q-26 0-42 13.5t-28.5 29-26 29T266 662q-23 0-37-22t-22-58l-55 3q12 60 41 98t79 38q26 0 42-13.5t29-29 26-29 32-13.5q23 0 37 22.5t22 57.5l55-4q-11-58-40.5-96.5T395 577z"/><glyph glyph-name="uni1EF1" unicode="ự" horiz-adv-x="543" d="M339 74q-40-35-81.5-60.5T171-12q-62 0-88.5 32.5T56 109q0 17 1.5 32t6.5 35l62 310h77l-61-300q-4-20-6-32t-2-25q0-37 17-56t55-19q29 0 64 21t80 67l69 344h27q36 4 63 30t29 71q1 9-1 21.5t-6 23.5l61 22q5-15 8-31t3-30q0-30-10-53.5t-26.5-41-37-29T488 452L398 0h-63l8 74h-4zM211-207q-20 0-34.5 11.5T162-162q0 25 17.5 41.5T220-104q20 0 34.5-12t14.5-34q0-25-17.5-41T211-207z"/><glyph glyph-name="wgrave" unicode="ẁ" horiz-adv-x="707" d="M105 0L70 486h76l16-286q1-35 1.5-68.5T165 64h4q15 34 28.5 67.5T227 200l128 286h75l17-286q2-35 2.5-68.5T452 64h4q14 34 27 67.5t29 68.5l127 286h72L490 0h-95l-14 266q-1 35-1.5 71t-1.5 72h-4q-15-36-29.5-72T315 266L197 0h-92zm345 570L318 734l66 49 114-177z"/><glyph glyph-name="wacute" unicode="ẃ" horiz-adv-x="707" d="M105 0L70 486h76l16-286q1-35 1.5-68.5T165 64h4q15 34 28.5 67.5T227 200l128 286h75l17-286q2-35 2.5-68.5T452 64h4q14 34 27 67.5t29 68.5l127 286h72L490 0h-95l-14 266q-1 35-1.5 71t-1.5 72h-4q-15-36-29.5-72T315 266L197 0h-92zm284 579l-35 45 168 153 47-60z"/><glyph glyph-name="wcircumflex" unicode="ŵ" horiz-adv-x="707" d="M105 0L70 486h76l16-286q1-35 1.5-68.5T165 64h4q15 34 28.5 67.5T227 200l128 286h75l17-286q2-35 2.5-68.5T452 64h4q14 34 27 67.5t29 68.5l127 286h72L490 0h-95l-14 266q-1 35-1.5 71t-1.5 72h-4q-15-36-29.5-72T315 266L197 0h-92zm191 568l-31 34 138 138h83l89-141-39-31-94 116h-4z"/><glyph glyph-name="wdieresis" unicode="ẅ" horiz-adv-x="707" d="M105 0L70 486h76l16-286q1-35 1.5-68.5T165 64h4q15 34 28.5 67.5T227 200l128 286h75l17-286q2-35 2.5-68.5T452 64h4q14 34 27 67.5t29 68.5l127 286h72L490 0h-95l-14 266q-1 35-1.5 71t-1.5 72h-4q-15-36-29.5-72T315 266L197 0h-92zm223 589q-17 0-28.5 10.5T288 629q0 23 15 39t36 16q18 0 29.5-11t11.5-31q0-23-15.5-38T328 589zm186 0q-17 0-28.5 10.5T474 629q0 23 15 39t36 16q18 0 29-11t11-31q0-23-15-38t-36-15z"/><glyph glyph-name="ygrave" unicode="ỳ" horiz-adv-x="448" d="M-6-209q-11 0-26.5 3T-62-195l25 57q18-9 36-9 37 0 69.5 30T126-36l18 35-83 487h76l38-273q5-33 9-71.5t7-73.5h4q17 35 35.5 72.5T267 213l140 273h76L197-41q-19-36-40-66.5t-45.5-53T58-196t-64-13zm317 779L179 734l66 49 114-177z"/><glyph glyph-name="yacute" unicode="ý" horiz-adv-x="448" d="M-6-209q-11 0-26.5 3T-62-195l25 57q18-9 36-9 37 0 69.5 30T126-36l18 35-83 487h76l38-273q5-33 9-71.5t7-73.5h4q17 35 35.5 72.5T267 213l140 273h76L197-41q-19-36-40-66.5t-45.5-53T58-196t-64-13zm256 788l-35 45 168 153 47-60z"/><glyph glyph-name="ycircumflex" unicode="ŷ" horiz-adv-x="448" d="M-6-209q-11 0-26.5 3T-62-195l25 57q18-9 36-9 37 0 69.5 30T126-36l18 35-83 487h76l38-273q5-33 9-71.5t7-73.5h4q17 35 35.5 72.5T267 213l140 273h76L197-41q-19-36-40-66.5t-45.5-53T58-196t-64-13zm163 777l-31 34 138 138h83l89-141-39-31-94 116h-4z"/><glyph glyph-name="ydieresis" unicode="ÿ" horiz-adv-x="448" d="M-6-209q-11 0-26.5 3T-62-195l25 57q18-9 36-9 37 0 69.5 30T126-36l18 35-83 487h76l38-273q5-33 9-71.5t7-73.5h4q17 35 35.5 72.5T267 213l140 273h76L197-41q-19-36-40-66.5t-45.5-53T58-196t-64-13zm195 798q-17 0-28.5 10.5T149 629q0 23 15 39t36 16q18 0 29.5-11t11.5-31q0-23-15.5-38T189 589zm186 0q-17 0-28.5 10.5T335 629q0 23 15 39t36 16q18 0 29-11t11-31q0-23-15-38t-36-15z"/><glyph glyph-name="uni1E8F" unicode="ẏ" horiz-adv-x="448" d="M-6-209q-11 0-26.5 3T-62-195l25 57q18-9 36-9 37 0 69.5 30T126-36l18 35-83 487h76l38-273q5-33 9-71.5t7-73.5h4q17 35 35.5 72.5T267 213l140 273h76L197-41q-19-36-40-66.5t-45.5-53T58-196t-64-13zm288 796q-20 0-34.5 11.5T233 632q0 25 17.5 41.5T291 690q20 0 34.5-12t14.5-34q0-25-17.5-41T282 587z"/><glyph glyph-name="uni1EF5" unicode="ỵ" horiz-adv-x="448" d="M-6-209q-11 0-26.5 3T-62-195l25 57q18-9 36-9 37 0 69.5 30T126-36l18 35-83 487h76l38-273q5-33 9-71.5t7-73.5h4q17 35 35.5 72.5T267 213l140 273h76L197-41q-19-36-40-66.5t-45.5-53T58-196t-64-13zm286-3q-20 0-34.5 11.5T231-167q0 25 17.5 41.5T289-109q20 0 34.5-12t14.5-34q0-25-17.5-41T280-212z"/><glyph glyph-name="uni1EF7" unicode="ỷ" horiz-adv-x="448" d="M-6-209q-11 0-26.5 3T-62-195l25 57q18-9 36-9 37 0 69.5 30T126-36l18 35-83 487h76l38-273q5-33 9-71.5t7-73.5h4q17 35 35.5 72.5T267 213l140 273h76L197-41q-19-36-40-66.5t-45.5-53T58-196t-64-13zm249 781l-2 40q25 6 43.5 16.5T306 659q7 42-74 47l15 54q68-2 101-25.5t25-68.5q-5-22-17.5-37.5t-30-27-39-18.5-43.5-11z"/><glyph glyph-name="uni1EF9" unicode="ỹ" horiz-adv-x="448" d="M-6-209q-11 0-26.5 3T-62-195l25 57q18-9 36-9 37 0 69.5 30T126-36l18 35-83 487h76l38-273q5-33 9-71.5t7-73.5h4q17 35 35.5 72.5T267 213l140 273h76L197-41q-19-36-40-66.5t-45.5-53T58-196t-64-13zm362 786q-26 0-42 13.5t-28.5 29-26 29T227 662q-23 0-37-22t-22-58l-55 3q12 60 41 98t79 38q26 0 42-13.5t29-29 26-29 32-13.5q23 0 37 22.5t22 57.5l55-4q-11-58-40.5-96.5T356 577z"/><glyph glyph-name="zacute" unicode="ź" horiz-adv-x="410" d="M-10 0l8 44 323 380H100l13 62h317l-8-45L99 62h254L341 0H-10zm265 579l-35 45 168 153 47-60z"/><glyph glyph-name="zcaron" unicode="ž" horiz-adv-x="410" d="M-10 0l8 44 323 380H100l13 62h317l-8-45L99 62h254L341 0H-10zm244 575l-89 141 38 31 95-116h4l141 116 32-34-138-138h-83z"/><glyph glyph-name="zdotaccent" unicode="ż" horiz-adv-x="410" d="M-10 0l8 44 323 380H100l13 62h317l-8-45L99 62h254L341 0H-10zm297 587q-20 0-34.5 11.5T238 632q0 25 17.5 41.5T296 690q20 0 34.5-12t14.5-34q0-25-17.5-41T287 587z"/><glyph glyph-name="uni1E93" unicode="ẓ" horiz-adv-x="410" d="M-10 0l8 44 323 380H100l13 62h317l-8-45L99 62h254L341 0H-10zm151-204q-20 0-34.5 11.5T92-159q0 25 17.5 41.5T150-101q20 0 34.5-12t14.5-34q0-25-17.5-41T141-204z"/><glyph glyph-name="eth" unicode="ð" horiz-adv-x="524" d="M216-12q-37 0-68.5 14t-55 38.5-36.5 58T43 172q0 52 16 101.5t46 88 72.5 62T274 447q36 0 67.5-19t53.5-52q-4 60-19 107t-42 86l-147-61-16 41 135 56q-37 42-95 79l36 46q35-20 65.5-45t56.5-54l145 60 16-41-133-55q34-50 53-111t19-137q0-71-17-136T402.5 96.5t-79.5-79T216-12zm9 64q36 0 66 20.5t52 55.5 35.5 81.5T395 309q-20 30-47.5 53.5T281 386t-70-18-52.5-47-33.5-66-12-76q0-26 7.5-49T142 89.5 177 62t48-10z"/><glyph glyph-name="thorn" unicode="þ" horiz-adv-x="535" d="M-10-205l183 917h77l-39-190-22-96h2q36 29 78 50.5t87 21.5q64 0 102-45.5T496 322q0-70-22-131T415.5 85t-84-71T234-12q-38 0-67.5 19.5T117 58h-2L97-46 66-205h-76zM231 52q36 0 70 21.5t59.5 57.5 41 82.5T417 311q0 62-23.5 92.5T328 434q-34 0-74.5-21T178 355l-46-233q20-38 45-54t54-16z"/><glyph glyph-name="uni0237" unicode="ȷ" horiz-adv-x="238" d="M-49-217q-23 0-40.5 5t-34.5 14l25 57q10-6 20-9.5t26-3.5q28 0 44.5 24T18-62l111 548h77L95-61q-14-70-47.5-113T-49-217z"/><glyph glyph-name="uni0251" unicode="ɑ" horiz-adv-x="537" d="M179-12q-64 0-102 45T39 164q0 70 22 131t59 106 84 71 98 26q39 0 69.5-20t47.5-53h4l19 61h62L407 0h-63l8 72h-4q-35-38-79-61t-90-23zm28 64q38 0 77.5 22.5T360 145l44 217q-21 38-46 55t-53 17q-36 0-70-21.5T175 355t-41.5-82.5T118 176q0-63 24-93.5T207 52z"/><glyph glyph-name="uni0259" unicode="ə" horiz-adv-x="478" d="M438 295q0-69-23-125.5t-60-97T271.5 10 178-12q-41 0-69.5 13.5T62 38.5 36 94t-8 70q0 28 5.5 54.5T47 265h315q9 81-22 127t-90 46q-30 0-59-11t-55-25l-24 53q34 17 71.5 30t82.5 13q78 0 125-51.5T438 295zM187 49q54 0 100.5 43T354 213H100q-4-13-5.5-27.5T93 157q0-21 4.5-40.5T113 82t29-24 45-9z"/><glyph glyph-name="uni0261" unicode="ɡ" horiz-adv-x="531" d="M168-224q-49 0-92 19t-78 48l36 53q28-24 62-41t75-17q63 0 100 39.5T324-17l25 104q-38-38-80-60T180 5Q118 5 78.5 48T39 176q0 67 21.5 125.5t57.5 102 82.5 69T296 498q38 0 69-20t48-53h3l19 61h63L396-23q-20-97-78-149t-150-52zm37 293q35 0 75 21.5t75 63.5l43 208q-23 38-47 55t-52 17q-35 0-68-20.5t-58-55-40-79-15-92.5q0-60 23-89t64-29z"/><glyph glyph-name="I.a" horiz-adv-x="324" d="M-7 0L7 66h78l106 525h-80l14 65h238l-14-65h-81L163 66h81L230 0H-7z"/><glyph glyph-name="Igrave.a" horiz-adv-x="324" d="M-7 0L7 66h78l106 525h-80l14 65h238l-14-65h-81L163 66h81L230 0H-7zm275 693L134 820l56 50 122-140z"/><glyph glyph-name="Iacute.a" horiz-adv-x="324" d="M-7 0L7 66h78l106 525h-80l14 65h238l-14-65h-81L163 66h81L230 0H-7zm232 703l-30 44 165 116 37-60z"/><glyph glyph-name="Icircumflex.a" horiz-adv-x="324" d="M-7 0L7 66h78l106 525h-80l14 65h238l-14-65h-81L163 66h81L230 0H-7zm140 699l-33 28 124 111h87l84-113-39-25-90 93h-4z"/><glyph glyph-name="Itilde.a" horiz-adv-x="324" d="M-7 0L7 66h78l106 525h-80l14 65h238l-14-65h-81L163 66h81L230 0H-7zm324 709q-26 0-43 11t-31 24.5-27 25-30 11.5q-40 0-60-67l-54 4q12 59 45 91t78 32q26 0 43.5-11.5t31-25T296 780t30-11q40 0 61 67l53-4q-12-60-45-91.5T317 709z"/><glyph glyph-name="Idieresis.a" horiz-adv-x="324" d="M-7 0L7 66h78l106 525h-80l14 65h238l-14-65h-81L163 66h81L230 0H-7zm161 715q-17 0-28.5 10.5T114 755q0 22 15 38.5t36 16.5q17 0 28.5-10.5T205 769q0-21-15-37.5T154 715zm186 0q-17 0-28.5 10.5T300 755q0 22 15 38.5t36 16.5q17 0 28-10.5t11-30.5q0-21-14.5-37.5T340 715z"/><glyph glyph-name="Imacron.a" horiz-adv-x="324" d="M-7 0L7 66h78l106 525h-80l14 65h238l-14-65h-81L163 66h81L230 0H-7zm124 729l11 54h256l-11-54H117z"/><glyph glyph-name="Idotaccent.a" horiz-adv-x="324" d="M-7 0L7 66h78l106 525h-80l14 65h238l-14-65h-81L163 66h81L230 0H-7zm255 716q-20 0-34.5 11.5T199 761q0 24 17.5 41t40.5 17q20 0 34.5-12t14.5-34q0-25-17.5-41T248 716z"/><glyph glyph-name="uni01CF.a" horiz-adv-x="324" d="M-7 0L7 66h78l106 525h-80l14 65h238l-14-65h-81L163 66h81L230 0H-7zm203 706l-84 113 39 25 90-93h4l129 94 33-28-124-111h-87z"/><glyph glyph-name="uni1EC8.a" horiz-adv-x="324" d="M-7 0L7 66h78l106 525h-80l14 65h238l-14-65h-81L163 66h81L230 0H-7zm205 698l-3 38q26 7 44 17t21 29q7 39-75 42l18 48q66-2 98-22.5t25-58.5q-4-22-16.5-37.5t-29.5-27-38.5-18T198 698z"/><glyph glyph-name="uni1ECA.a" horiz-adv-x="324" d="M-7 0L7 66h78l106 525h-80l14 65h238l-14-65h-81L163 66h81L230 0H-7zm90-210q-20 0-34.5 11.5T34-165q0 25 17.5 41.5T92-107q20 0 34.5-12t14.5-34q0-25-17.5-41T83-210z"/><glyph glyph-name="Iogonek.a" horiz-adv-x="324" d="M75-211q-33 0-54.5 17.5T-1-142q0 22 9 43t22.5 40 29 34T88 0H-7L7 66h78l106 525h-80l14 65h238l-14-65h-81L163 66h81L230 0h-80q-38-23-62.5-56.5T63-119q0-18 10.5-28t26.5-10q18 0 35 11l18-40q-17-11-39-18t-39-7z"/><glyph glyph-name="a.a" horiz-adv-x="492" d="M32 106q0 52 23.5 88t66.5 59.5T224 288t131 13q4 14 5 24t1 21q0 50-21.5 70T273 436q-33 0-66.5-12T138 392l-25 56q38 21 83.5 35.5T287 498q71 0 110.5-33.5T437 353q0-15-2-33t-6-34L372 0h-62l4 57h-3q-32-29-74-49t-84-20q-24 0-46 7.5T68.5 18 42 55t-10 51zm314 144q-114-3-176.5-35T107 122q0-38 22-55.5T185 49q59 0 134 66z"/><glyph glyph-name="agrave.a" horiz-adv-x="492" d="M32 106q0 52 23.5 88t66.5 59.5T224 288t131 13q4 14 5 24t1 21q0 50-21.5 70T273 436q-33 0-66.5-12T138 392l-25 56q38 21 83.5 35.5T287 498q71 0 110.5-33.5T437 353q0-15-2-33t-6-34L372 0h-62l4 57h-3q-32-29-74-49t-84-20q-24 0-46 7.5T68.5 18 42 55t-10 51zm314 144q-114-3-176.5-35T107 122q0-38 22-55.5T185 49q59 0 134 66zm-4 320L210 734l66 49 114-177z"/><glyph glyph-name="aacute.a" horiz-adv-x="492" d="M32 106q0 52 23.5 88t66.5 59.5T224 288t131 13q4 14 5 24t1 21q0 50-21.5 70T273 436q-33 0-66.5-12T138 392l-25 56q38 21 83.5 35.5T287 498q71 0 110.5-33.5T437 353q0-15-2-33t-6-34L372 0h-62l4 57h-3q-32-29-74-49t-84-20q-24 0-46 7.5T68.5 18 42 55t-10 51zm314 144q-114-3-176.5-35T107 122q0-38 22-55.5T185 49q59 0 134 66zm-65 329l-35 45 168 153 47-60z"/><glyph glyph-name="acircumflex.a" horiz-adv-x="492" d="M32 106q0 52 23.5 88t66.5 59.5T224 288t131 13q4 14 5 24t1 21q0 50-21.5 70T273 436q-33 0-66.5-12T138 392l-25 56q38 21 83.5 35.5T287 498q71 0 110.5-33.5T437 353q0-15-2-33t-6-34L372 0h-62l4 57h-3q-32-29-74-49t-84-20q-24 0-46 7.5T68.5 18 42 55t-10 51zm314 144q-114-3-176.5-35T107 122q0-38 22-55.5T185 49q59 0 134 66zM188 568l-31 34 138 138h83l89-141-39-31-94 116h-4z"/><glyph glyph-name="atilde.a" horiz-adv-x="492" d="M32 106q0 52 23.5 88t66.5 59.5T224 288t131 13q4 14 5 24t1 21q0 50-21.5 70T273 436q-33 0-66.5-12T138 392l-25 56q38 21 83.5 35.5T287 498q71 0 110.5-33.5T437 353q0-15-2-33t-6-34L372 0h-62l4 57h-3q-32-29-74-49t-84-20q-24 0-46 7.5T68.5 18 42 55t-10 51zm314 144q-114-3-176.5-35T107 122q0-38 22-55.5T185 49q59 0 134 66zm41 327q-26 0-42 13.5t-28.5 29-26 29T258 662q-23 0-37-22t-22-58l-55 3q12 60 41 98t79 38q26 0 42-13.5t29-29 26-29 32-13.5q23 0 37 22.5t22 57.5l55-4q-11-58-40.5-96.5T387 577z"/><glyph glyph-name="adieresis.a" horiz-adv-x="492" d="M32 106q0 52 23.5 88t66.5 59.5T224 288t131 13q4 14 5 24t1 21q0 50-21.5 70T273 436q-33 0-66.5-12T138 392l-25 56q38 21 83.5 35.5T287 498q71 0 110.5-33.5T437 353q0-15-2-33t-6-34L372 0h-62l4 57h-3q-32-29-74-49t-84-20q-24 0-46 7.5T68.5 18 42 55t-10 51zm314 144q-114-3-176.5-35T107 122q0-38 22-55.5T185 49q59 0 134 66zM220 589q-17 0-28.5 10.5T180 629q0 23 15 39t36 16q18 0 29.5-11t11.5-31q0-23-15.5-38T220 589zm186 0q-17 0-28.5 10.5T366 629q0 23 15 39t36 16q18 0 29-11t11-31q0-23-15-38t-36-15z"/><glyph glyph-name="amacron.a" horiz-adv-x="492" d="M32 106q0 52 23.5 88t66.5 59.5T224 288t131 13q4 14 5 24t1 21q0 50-21.5 70T273 436q-33 0-66.5-12T138 392l-25 56q38 21 83.5 35.5T287 498q71 0 110.5-33.5T437 353q0-15-2-33t-6-34L372 0h-62l4 57h-3q-32-29-74-49t-84-20q-24 0-46 7.5T68.5 18 42 55t-10 51zm314 144q-114-3-176.5-35T107 122q0-38 22-55.5T185 49q59 0 134 66zM184 601l10 54h254l-9-54H184z"/><glyph glyph-name="abreve.a" horiz-adv-x="492" d="M32 106q0 52 23.5 88t66.5 59.5T224 288t131 13q4 14 5 24t1 21q0 50-21.5 70T273 436q-33 0-66.5-12T138 392l-25 56q38 21 83.5 35.5T287 498q71 0 110.5-33.5T437 353q0-15-2-33t-6-34L372 0h-62l4 57h-3q-32-29-74-49t-84-20q-24 0-46 7.5T68.5 18 42 55t-10 51zm314 144q-114-3-176.5-35T107 122q0-38 22-55.5T185 49q59 0 134 66zm-39 321q-39 0-65 13t-41 34.5-20 48.5-2 55l53 8q-1-19 3-37.5t14.5-33.5 27.5-24 41-9 44 9 35 24 26 33.5 18 37.5l50-8q-7-28-21.5-55t-37-48.5-54-34.5-71.5-13z"/><glyph glyph-name="aring.a" horiz-adv-x="492" d="M32 106q0 52 23.5 88t66.5 59.5T224 288t131 13q4 14 5 24t1 21q0 50-21.5 70T273 436q-33 0-66.5-12T138 392l-25 56q38 21 83.5 35.5T287 498q71 0 110.5-33.5T437 353q0-15-2-33t-6-34L372 0h-62l4 57h-3q-32-29-74-49t-84-20q-24 0-46 7.5T68.5 18 42 55t-10 51zm314 144q-114-3-176.5-35T107 122q0-38 22-55.5T185 49q59 0 134 66zm-35 307q-41 0-68 21t-27 61q0 22 8.5 42.5T249 717t37.5 24 47.5 9q41 0 68.5-21t27.5-61q0-23-9-43t-24.5-35-37.5-24-48-9zm5 36q25 0 43.5 21.5T378 665q0 21-13 35t-36 14q-25 0-43-21.5T268 642q0-22 12.5-35.5T316 593z"/><glyph glyph-name="uni01CE.a" horiz-adv-x="492" d="M32 106q0 52 23.5 88t66.5 59.5T224 288t131 13q4 14 5 24t1 21q0 50-21.5 70T273 436q-33 0-66.5-12T138 392l-25 56q38 21 83.5 35.5T287 498q71 0 110.5-33.5T437 353q0-15-2-33t-6-34L372 0h-62l4 57h-3q-32-29-74-49t-84-20q-24 0-46 7.5T68.5 18 42 55t-10 51zm314 144q-114-3-176.5-35T107 122q0-38 22-55.5T185 49q59 0 134 66zm-86 325l-89 141 38 31 95-116h4l141 116 32-34-138-138h-83z"/><glyph glyph-name="uni1EA1.a" horiz-adv-x="492" d="M32 106q0 52 23.5 88t66.5 59.5T224 288t131 13q4 14 5 24t1 21q0 50-21.5 70T273 436q-33 0-66.5-12T138 392l-25 56q38 21 83.5 35.5T287 498q71 0 110.5-33.5T437 353q0-15-2-33t-6-34L372 0h-62l4 57h-3q-32-29-74-49t-84-20q-24 0-46 7.5T68.5 18 42 55t-10 51zm314 144q-114-3-176.5-35T107 122q0-38 22-55.5T185 49q59 0 134 66zM173-204q-20 0-34.5 11.5T124-159q0 25 17.5 41.5T182-101q20 0 34.5-12t14.5-34q0-25-17.5-41T173-204z"/><glyph glyph-name="uni1EA3.a" horiz-adv-x="492" d="M32 106q0 52 23.5 88t66.5 59.5T224 288t131 13q4 14 5 24t1 21q0 50-21.5 70T273 436q-33 0-66.5-12T138 392l-25 56q38 21 83.5 35.5T287 498q71 0 110.5-33.5T437 353q0-15-2-33t-6-34L372 0h-62l4 57h-3q-32-29-74-49t-84-20q-24 0-46 7.5T68.5 18 42 55t-10 51zm314 144q-114-3-176.5-35T107 122q0-38 22-55.5T185 49q59 0 134 66zm-67 322l-2 40q25 6 43.5 16.5T342 659q7 42-74 47l15 54q68-2 101-25.5t25-68.5q-5-22-17.5-37.5t-30-27-39-18.5-43.5-11z"/><glyph glyph-name="uni1EA5.a" horiz-adv-x="492" d="M32 106q0 52 23.5 88t66.5 59.5T224 288t131 13q4 14 5 24t1 21q0 50-21.5 70T273 436q-33 0-66.5-12T138 392l-25 56q38 21 83.5 35.5T287 498q71 0 110.5-33.5T437 353q0-15-2-33t-6-34L372 0h-62l4 57h-3q-32-29-74-49t-84-20q-24 0-46 7.5T68.5 18 42 55t-10 51zm314 144q-114-3-176.5-35T107 122q0-38 22-55.5T185 49q59 0 134 66zM205 570l-24 35 116 91h68l84-95-33-31-87 75h-4zm244 70l-31 32 109 111 43-39z"/><glyph glyph-name="uni1EA7.a" horiz-adv-x="492" d="M32 106q0 52 23.5 88t66.5 59.5T224 288t131 13q4 14 5 24t1 21q0 50-21.5 70T273 436q-33 0-66.5-12T138 392l-25 56q38 21 83.5 35.5T287 498q71 0 110.5-33.5T437 353q0-15-2-33t-6-34L372 0h-62l4 57h-3q-32-29-74-49t-84-20q-24 0-46 7.5T68.5 18 42 55t-10 51zm314 144q-114-3-176.5-35T107 122q0-38 22-55.5T185 49q59 0 134 66zM205 570l-24 35 116 91h68l84-95-33-31-87 75h-4zm-24 69L89 755l54 31 77-121z"/><glyph glyph-name="uni1EA9.a" horiz-adv-x="492" d="M32 106q0 52 23.5 88t66.5 59.5T224 288t131 13q4 14 5 24t1 21q0 50-21.5 70T273 436q-33 0-66.5-12T138 392l-25 56q38 21 83.5 35.5T287 498q71 0 110.5-33.5T437 353q0-15-2-33t-6-34L372 0h-62l4 57h-3q-32-29-74-49t-84-20q-24 0-46 7.5T68.5 18 42 55t-10 51zm314 144q-114-3-176.5-35T107 122q0-38 22-55.5T185 49q59 0 134 66zM205 570l-24 35 116 91h68l84-95-33-31-87 75h-4zm233 65l-5 35q20 5 33 14t16 25q4 20-10.5 29.5T420 750l14 41q58-2 86.5-20t22.5-53q-4-20-14-34t-24.5-23.5T473 645t-35-10z"/><glyph glyph-name="uni1EAB.a" horiz-adv-x="492" d="M32 106q0 52 23.5 88t66.5 59.5T224 288t131 13q4 14 5 24t1 21q0 50-21.5 70T273 436q-33 0-66.5-12T138 392l-25 56q38 21 83.5 35.5T287 498q71 0 110.5-33.5T437 353q0-15-2-33t-6-34L372 0h-62l4 57h-3q-32-29-74-49t-84-20q-24 0-46 7.5T68.5 18 42 55t-10 51zm314 144q-114-3-176.5-35T107 122q0-38 22-55.5T185 49q59 0 134 66zM205 570l-24 35 114 87h68l86-91-33-31-88 71h-4zm193 140q-22 0-38 6.5T331 731t-25.5 14.5T279 752q-15 0-24-10t-17-32l-42 4q11 39 32.5 64t56.5 25q22 0 37.5-6.5T351 782t25-14.5 27-6.5q26 0 40 42l42-4q-11-38-31.5-63.5T398 710z"/><glyph glyph-name="uni1EAD.a" horiz-adv-x="492" d="M32 106q0 52 23.5 88t66.5 59.5T224 288t131 13q4 14 5 24t1 21q0 50-21.5 70T273 436q-33 0-66.5-12T138 392l-25 56q38 21 83.5 35.5T287 498q71 0 110.5-33.5T437 353q0-15-2-33t-6-34L372 0h-62l4 57h-3q-32-29-74-49t-84-20q-24 0-46 7.5T68.5 18 42 55t-10 51zm314 144q-114-3-176.5-35T107 122q0-38 22-55.5T185 49q59 0 134 66zM188 568l-31 34 138 138h83l89-141-39-31-94 116h-4zm-13-772q-20 0-34.5 11.5T126-159q0 25 17.5 41.5T184-101q20 0 34.5-12t14.5-34q0-25-17.5-41T175-204z"/><glyph glyph-name="uni1EAF.a" horiz-adv-x="492" d="M32 106q0 52 23.5 88t66.5 59.5T224 288t131 13q4 14 5 24t1 21q0 50-21.5 70T273 436q-33 0-66.5-12T138 392l-25 56q38 21 83.5 35.5T287 498q71 0 110.5-33.5T437 353q0-15-2-33t-6-34L372 0h-62l4 57h-3q-32-29-74-49t-84-20q-24 0-46 7.5T68.5 18 42 55t-10 51zm314 144q-114-3-176.5-35T107 122q0-38 22-55.5T185 49q59 0 134 66zm-39 321q-39 0-65 13t-41 34.5-20 48.5-2 55l49 8q-1-20 3.5-39.5t15-34.5 28-24.5T317 622t45.5 9.5T399 656t27.5 34.5T445 730l46-8q-7-28-21.5-55t-37-48.5-54-34.5-71.5-13zm23 134l-33 31 110 109 44-44z"/><glyph glyph-name="uni1EB1.a" horiz-adv-x="492" d="M32 106q0 52 23.5 88t66.5 59.5T224 288t131 13q4 14 5 24t1 21q0 50-21.5 70T273 436q-33 0-66.5-12T138 392l-25 56q38 21 83.5 35.5T287 498q71 0 110.5-33.5T437 353q0-15-2-33t-6-34L372 0h-62l4 57h-3q-32-29-74-49t-84-20q-24 0-46 7.5T68.5 18 42 55t-10 51zm314 144q-114-3-176.5-35T107 122q0-38 22-55.5T185 49q59 0 134 66zm-39 321q-39 0-65 13t-41 34.5-20 48.5-2 55l49 8q-1-20 3.5-39.5t15-34.5 28-24.5T317 622t45.5 9.5T399 656t27.5 34.5T445 730l46-8q-7-28-21.5-55t-37-48.5-54-34.5-71.5-13zm27 128l-85 114 56 35 71-125z"/><glyph glyph-name="uni1EB3.a" horiz-adv-x="492" d="M32 106q0 52 23.5 88t66.5 59.5T224 288t131 13q4 14 5 24t1 21q0 50-21.5 70T273 436q-33 0-66.5-12T138 392l-25 56q38 21 83.5 35.5T287 498q71 0 110.5-33.5T437 353q0-15-2-33t-6-34L372 0h-62l4 57h-3q-32-29-74-49t-84-20q-24 0-46 7.5T68.5 18 42 55t-10 51zm314 144q-114-3-176.5-35T107 122q0-38 22-55.5T185 49q59 0 134 66zm-40 321q-39 0-65 13t-40.5 34.5T181 667t-2 55l49 8q-1-20 3-39.5t14.5-34.5 28-24.5T317 622q25 0 45.5 9.5T399 656t27.5 34.5T445 730l47-8q-7-28-22-55t-38-48.5-54.5-34.5-71.5-13zm-5 111l-2 36q23 5 38.5 14t18.5 25q4 20-12 29.5T287 798l17 50q61-2 91-22t22-60q-4-20-15-34.5T375 707t-35.5-16-38.5-9z"/><glyph glyph-name="uni1EB5.a" horiz-adv-x="492" d="M32 106q0 52 23.5 88t66.5 59.5T224 288t131 13q4 14 5 24t1 21q0 50-21.5 70T273 436q-33 0-66.5-12T138 392l-25 56q38 21 83.5 35.5T287 498q71 0 110.5-33.5T437 353q0-15-2-33t-6-34L372 0h-62l4 57h-3q-32-29-74-49t-84-20q-24 0-46 7.5T68.5 18 42 55t-10 51zm314 144q-114-3-176.5-35T107 122q0-38 22-55.5T185 49q59 0 134 66zm-38 321q-37 0-61.5 9.5t-39 25-20 34.5-3.5 38l47 8q0-12 4.5-24.5t14.5-22 26.5-15.5 39.5-6q47 0 74.5 21.5T426 686l46-8q-6-19-18.5-38T421 605.5t-48-25-65-9.5zm90 139q-22 0-37.5 6.5t-29 14.5-25.5 14.5-26 6.5q-15 0-24-10.5T239 709l-45 5q10 38 32 63t59 25q22 0 38-6.5t29-14.5 25-14.5 26-6.5q15 0 24 10.5t17 31.5l46-4q-11-38-33-63t-59-25z"/><glyph glyph-name="uni1EB7.a" horiz-adv-x="492" d="M32 106q0 52 23.5 88t66.5 59.5T224 288t131 13q4 14 5 24t1 21q0 50-21.5 70T273 436q-33 0-66.5-12T138 392l-25 56q38 21 83.5 35.5T287 498q71 0 110.5-33.5T437 353q0-15-2-33t-6-34L372 0h-62l4 57h-3q-32-29-74-49t-84-20q-24 0-46 7.5T68.5 18 42 55t-10 51zm314 144q-114-3-176.5-35T107 122q0-38 22-55.5T185 49q59 0 134 66zm-39 321q-39 0-65 13t-41 34.5-20 48.5-2 55l53 8q-1-19 3-37.5t14.5-33.5 27.5-24 41-9 44 9 35 24 26 33.5 18 37.5l50-8q-7-28-21.5-55t-37-48.5-54-34.5-71.5-13zM175-204q-20 0-34.5 11.5T126-159q0 25 17.5 41.5T184-101q20 0 34.5-12t14.5-34q0-25-17.5-41T175-204z"/><glyph glyph-name="aogonek.a" horiz-adv-x="492" d="M311 6l3 51h-3q-32-29-74-49t-84-20q-24 0-46 7.5T68.5 18 42 55t-10 51q0 52 23.5 88t66.5 59.5T224 288t131 13q4 14 5 24t1 21q0 50-21.5 70T273 436q-33 0-66.5-12T138 392l-25 56q38 21 83.5 35.5T287 498q71 0 110.5-33.5T437 353q0-15-2-33t-6-34L372 0q-51-23-80.5-54T262-118q0-17 10.5-27t25.5-10q20 0 38 12l16-38q-17-11-38-18t-38-7q-32 0-53.5 17T201-139q0 22 10 43.5T236.5-55t35 34.5T311 6zm35 244q-114-3-176.5-35T107 122q0-38 22-55.5T185 49q59 0 134 66z"/><glyph glyph-name="g.a" horiz-adv-x="477" d="M163-224q-30 0-61.5 6T44-198.5t-42.5 36T-15-107q0 24 10.5 44T23-26.5t38 29T102 25v2Q88 38 79.5 55T71 92q0 25 15.5 48t42.5 42v4q-22 19-36 46t-14 61q0 44 15.5 81.5t42.5 65 64 43 80 15.5q18 0 31.5-3t27.5-9h166l-12-60h-96q11-15 17.5-34t6.5-37q0-44-15-80.5T365 211t-64-42-81-15q-29 0-50 9-13-9-23-23.5T137 108q0-25 19-37t74-18q47-6 79.5-15t52-22.5 28-31.5 8.5-42q0-41-20-72t-53-52-75-31.5-87-10.5zm65 430q27 0 50 12t40 32.5 26.5 46.5 9.5 53q0 42-20.5 67T277 442q-27 0-50.5-12T186 397.5 159.5 351t-9.5-53q0-42 21-67t57-25zm-58-377q33 0 60.5 7t48 20 32 30T322-77q0 32-29.5 47T203-8q-12 2-27.5 4.5T144 3q-15-7-31-17T83.5-36.5t-22-27T53-93q0-41 33.5-59.5T170-171z"/><glyph glyph-name="gcircumflex.a" horiz-adv-x="477" d="M163-224q-30 0-61.5 6T44-198.5t-42.5 36T-15-107q0 24 10.5 44T23-26.5t38 29T102 25v2Q88 38 79.5 55T71 92q0 25 15.5 48t42.5 42v4q-22 19-36 46t-14 61q0 44 15.5 81.5t42.5 65 64 43 80 15.5q18 0 31.5-3t27.5-9h166l-12-60h-96q11-15 17.5-34t6.5-37q0-44-15-80.5T365 211t-64-42-81-15q-29 0-50 9-13-9-23-23.5T137 108q0-25 19-37t74-18q47-6 79.5-15t52-22.5 28-31.5 8.5-42q0-41-20-72t-53-52-75-31.5-87-10.5zm65 430q27 0 50 12t40 32.5 26.5 46.5 9.5 53q0 42-20.5 67T277 442q-27 0-50.5-12T186 397.5 159.5 351t-9.5-53q0-42 21-67t57-25zm-58-377q33 0 60.5 7t48 20 32 30T322-77q0 32-29.5 47T203-8q-12 2-27.5 4.5T144 3q-15-7-31-17T83.5-36.5t-22-27T53-93q0-41 33.5-59.5T170-171zm0 739l-31 34 138 138h83l89-141-39-31-94 116h-4z"/><glyph glyph-name="gbreve.a" horiz-adv-x="477" d="M163-224q-30 0-61.5 6T44-198.5t-42.5 36T-15-107q0 24 10.5 44T23-26.5t38 29T102 25v2Q88 38 79.5 55T71 92q0 25 15.5 48t42.5 42v4q-22 19-36 46t-14 61q0 44 15.5 81.5t42.5 65 64 43 80 15.5q18 0 31.5-3t27.5-9h166l-12-60h-96q11-15 17.5-34t6.5-37q0-44-15-80.5T365 211t-64-42-81-15q-29 0-50 9-13-9-23-23.5T137 108q0-25 19-37t74-18q47-6 79.5-15t52-22.5 28-31.5 8.5-42q0-41-20-72t-53-52-75-31.5-87-10.5zm65 430q27 0 50 12t40 32.5 26.5 46.5 9.5 53q0 42-20.5 67T277 442q-27 0-50.5-12T186 397.5 159.5 351t-9.5-53q0-42 21-67t57-25zm-58-377q33 0 60.5 7t48 20 32 30T322-77q0 32-29.5 47T203-8q-12 2-27.5 4.5T144 3q-15-7-31-17T83.5-36.5t-22-27T53-93q0-41 33.5-59.5T170-171zm119 742q-39 0-65 13t-41 34.5-20 48.5-2 55l53 8q-1-19 3-37.5t14.5-33.5 27.5-24 41-9 44 9 35 24 26 33.5 18 37.5l50-8q-7-28-21.5-55t-37-48.5-54-34.5-71.5-13z"/><glyph glyph-name="gdotaccent.a" horiz-adv-x="477" d="M163-224q-30 0-61.5 6T44-198.5t-42.5 36T-15-107q0 24 10.5 44T23-26.5t38 29T102 25v2Q88 38 79.5 55T71 92q0 25 15.5 48t42.5 42v4q-22 19-36 46t-14 61q0 44 15.5 81.5t42.5 65 64 43 80 15.5q18 0 31.5-3t27.5-9h166l-12-60h-96q11-15 17.5-34t6.5-37q0-44-15-80.5T365 211t-64-42-81-15q-29 0-50 9-13-9-23-23.5T137 108q0-25 19-37t74-18q47-6 79.5-15t52-22.5 28-31.5 8.5-42q0-41-20-72t-53-52-75-31.5-87-10.5zm65 430q27 0 50 12t40 32.5 26.5 46.5 9.5 53q0 42-20.5 67T277 442q-27 0-50.5-12T186 397.5 159.5 351t-9.5-53q0-42 21-67t57-25zm-58-377q33 0 60.5 7t48 20 32 30T322-77q0 32-29.5 47T203-8q-12 2-27.5 4.5T144 3q-15-7-31-17T83.5-36.5t-22-27T53-93q0-41 33.5-59.5T170-171zm125 758q-20 0-34.5 11.5T246 632q0 25 17.5 41.5T304 690q20 0 34.5-12t14.5-34q0-25-17.5-41T295 587z"/><glyph glyph-name="uni0123.a" horiz-adv-x="477" d="M163-224q-30 0-61.5 6T44-198.5t-42.5 36T-15-107q0 24 10.5 44T23-26.5t38 29T102 25v2Q88 38 79.5 55T71 92q0 25 15.5 48t42.5 42v4q-22 19-36 46t-14 61q0 44 15.5 81.5t42.5 65 64 43 80 15.5q18 0 31.5-3t27.5-9h166l-12-60h-96q11-15 17.5-34t6.5-37q0-44-15-80.5T365 211t-64-42-81-15q-29 0-50 9-13-9-23-23.5T137 108q0-25 19-37t74-18q47-6 79.5-15t52-22.5 28-31.5 8.5-42q0-41-20-72t-53-52-75-31.5-87-10.5zm65 430q27 0 50 12t40 32.5 26.5 46.5 9.5 53q0 42-20.5 67T277 442q-27 0-50.5-12T186 397.5 159.5 351t-9.5-53q0-42 21-67t57-25zm-58-377q33 0 60.5 7t48 20 32 30T322-77q0 32-29.5 47T203-8q-12 2-27.5 4.5T144 3q-15-7-31-17T83.5-36.5t-22-27T53-93q0-41 33.5-59.5T170-171zm162 747q-32 3-52.5 8.5t-32 14-16 19.5-4.5 25q0 25 13.5 43.5t37.5 31 57.5 19.5 73.5 8v-40q-60-2-88.5-16T292 653q0-18 15-28t48-12z"/><glyph glyph-name="gcaron.a" horiz-adv-x="477" d="M163-224q-30 0-61.5 6T44-198.5t-42.5 36T-15-107q0 24 10.5 44T23-26.5t38 29T102 25v2Q88 38 79.5 55T71 92q0 25 15.5 48t42.5 42v4q-22 19-36 46t-14 61q0 44 15.5 81.5t42.5 65 64 43 80 15.5q18 0 31.5-3t27.5-9h166l-12-60h-96q11-15 17.5-34t6.5-37q0-44-15-80.5T365 211t-64-42-81-15q-29 0-50 9-13-9-23-23.5T137 108q0-25 19-37t74-18q47-6 79.5-15t52-22.5 28-31.5 8.5-42q0-41-20-72t-53-52-75-31.5-87-10.5zm65 430q27 0 50 12t40 32.5 26.5 46.5 9.5 53q0 42-20.5 67T277 442q-27 0-50.5-12T186 397.5 159.5 351t-9.5-53q0-42 21-67t57-25zm-58-377q33 0 60.5 7t48 20 32 30T322-77q0 32-29.5 47T203-8q-12 2-27.5 4.5T144 3q-15-7-31-17T83.5-36.5t-22-27T53-93q0-41 33.5-59.5T170-171zm72 746l-89 141 38 31 95-116h4l141 116 32-34-138-138h-83z"/><glyph glyph-name="uni1E21.a" horiz-adv-x="477" d="M163-224q-30 0-61.5 6T44-198.5t-42.5 36T-15-107q0 24 10.5 44T23-26.5t38 29T102 25v2Q88 38 79.5 55T71 92q0 25 15.5 48t42.5 42v4q-22 19-36 46t-14 61q0 44 15.5 81.5t42.5 65 64 43 80 15.5q18 0 31.5-3t27.5-9h166l-12-60h-96q11-15 17.5-34t6.5-37q0-44-15-80.5T365 211t-64-42-81-15q-29 0-50 9-13-9-23-23.5T137 108q0-25 19-37t74-18q47-6 79.5-15t52-22.5 28-31.5 8.5-42q0-41-20-72t-53-52-75-31.5-87-10.5zm65 430q27 0 50 12t40 32.5 26.5 46.5 9.5 53q0 42-20.5 67T277 442q-27 0-50.5-12T186 397.5 159.5 351t-9.5-53q0-42 21-67t57-25zm-58-377q33 0 60.5 7t48 20 32 30T322-77q0 32-29.5 47T203-8q-12 2-27.5 4.5T144 3q-15-7-31-17T83.5-36.5t-22-27T53-93q0-41 33.5-59.5T170-171zm-4 772l10 54h254l-9-54H166z"/><glyph glyph-name="uni00670303.a" horiz-adv-x="477" d="M163-224q-30 0-61.5 6T44-198.5t-42.5 36T-15-107q0 24 10.5 44T23-26.5t38 29T102 25v2Q88 38 79.5 55T71 92q0 25 15.5 48t42.5 42v4q-22 19-36 46t-14 61q0 44 15.5 81.5t42.5 65 64 43 80 15.5q18 0 31.5-3t27.5-9h166l-12-60h-96q11-15 17.5-34t6.5-37q0-44-15-80.5T365 211t-64-42-81-15q-29 0-50 9-13-9-23-23.5T137 108q0-25 19-37t74-18q47-6 79.5-15t52-22.5 28-31.5 8.5-42q0-41-20-72t-53-52-75-31.5-87-10.5zm65 430q27 0 50 12t40 32.5 26.5 46.5 9.5 53q0 42-20.5 67T277 442q-27 0-50.5-12T186 397.5 159.5 351t-9.5-53q0-42 21-67t57-25zm-58-377q33 0 60.5 7t48 20 32 30T322-77q0 32-29.5 47T203-8q-12 2-27.5 4.5T144 3q-15-7-31-17T83.5-36.5t-22-27T53-93q0-41 33.5-59.5T170-171zm199 748q-26 0-42 13.5t-28.5 29-26 29T240 662q-23 0-37-22t-22-58l-55 3q12 60 41 98t79 38q26 0 42-13.5t29-29 26-29 32-13.5q23 0 37 22.5t22 57.5l55-4q-11-58-40.5-96.5T369 577z"/><glyph glyph-name="l.a" horiz-adv-x="238" d="M31 0l142 712h77L107 0H31z"/><glyph glyph-name="lacute.a" horiz-adv-x="238" d="M31 0l142 712h77L107 0H31zm172 755l-30 44 165 116 37-60z"/><glyph glyph-name="lcaron.a" horiz-adv-x="242" d="M31 0l142 712h77L107 0H31zm235 548l40 212h54l-11-57-44-155h-39z"/><glyph glyph-name="ldot.a" horiz-adv-x="331" d="M31 0l142 712h77L107 0H31zm260 271q-22 0-34.5 14T244 321q0 26 19 48t48 22q22 0 34-14.5t12-36.5q0-26-18.5-47.5T291 271z"/><glyph glyph-name="uni013C.a" horiz-adv-x="238" d="M31 0l142 712h77L107 0H31zm-88-218v39q60 2 88.5 16.5T60-126q0 17-14.5 27T-3-87l23 37q32-3 52.5-8.5t32-13.5 16-19.5T125-116q0-25-13.5-43.5T74-191t-57.5-19.5T-57-218z"/><glyph glyph-name="uni1E37.a" horiz-adv-x="238" d="M31 0l142 712h77L107 0H31zm8-204q-20 0-34.5 11.5T-10-159q0 25 17.5 41.5T48-101q20 0 34.5-12T97-147q0-25-17.5-41T39-204z"/><glyph glyph-name="uni1E39.a" horiz-adv-x="238" d="M31 0l142 712h77L107 0H31zm70 822l10 54h254l-9-54H101zM39-204q-20 0-34.5 11.5T-10-159q0 25 17.5 41.5T48-101q20 0 34.5-12T97-147q0-25-17.5-41T39-204z"/><glyph glyph-name="uni1E3B.a" horiz-adv-x="238" d="M31 0l142 712h77L107 0H31zM-86-164l10 54h254l-9-54H-86z"/><glyph glyph-name="lslash.a" horiz-adv-x="246" d="M44 303l-19 48 90 50 62 311h77l-54-271 66 40 20-48-100-58L111 0H35l67 337z"/><glyph glyph-name="fl.a" horiz-adv-x="520" d="M65 424l11 57 65 5 16 81q15 74 53.5 115.5T311 724q26 0 47-6.5t39-17.5l-27-55q-11 7-24 12t-30 5q-33 0-53.5-25T234 569l-17-83h98l-12-62h-99L119 0H43l85 424H65zM313 0l142 712h77L389 0h-76z"/><glyph glyph-name="ampersand" unicode="&amp;" horiz-adv-x="582" d="M180-12q-75 0-120 41.5T15 141q0 40 14 72.5T66 273t53 48.5 62 41.5q-18 58-18 113 0 42 14 77t37.5 60.5 54.5 40 66 14.5q54 0 81-30.5t27-76.5q0-38-16-69t-42-57.5-59-49-67-43.5q21-53 53-102t70-89q41 43 71.5 93T510 352h70q-31-66-69-127.5T425 111q55-44 102-61l-32-62Q434 8 372 61q-42-34-90-53.5T180-12zm49 492q0-38 11-82 28 17 53.5 34t44.5 36 30.5 41 11.5 49q0 23-12 39.5T330 614q-21 0-39.5-10t-32-28-21.5-42.5-8-53.5zM194 49q35 0 69.5 14t66.5 39q-39 43-72 94.5T202 304q-47-32-79-68t-32-85q0-46 28.5-74T194 49z"/><glyph glyph-name="zero" unicode="0" horiz-adv-x="480" d="M200-12q-38 0-67.5 16.5T83 50t-30.5 68.5T42 205q0 89 21.5 170T121 517t84 97 101 36q37 0 66.5-17t49-46 30-69.5T462 431q0-90-21-170t-57-141-83.5-96.5T200-12zm4 61q39 0 73 34.5t59.5 90 40 124T391 434q0 67-22 110.5T301 588q-39 0-73-35t-59.5-90.5-40-124.5T114 202q0-33 5.5-61T136 92.5t28-32T204 49z"/><glyph glyph-name="one" unicode="1" horiz-adv-x="480" d="M26 0l13 64h139l96 478H161l10 50q85 12 140 46h59L254 64h130L372 0H26z"/><glyph glyph-name="two" unicode="2" horiz-adv-x="480" d="M-10 0l8 46q96 81 167 142t118 111 70.5 93.5T377 483q0 44-25.5 74T273 587q-32 0-64.5-16.5T142 523l-39 48q44 38 87.5 58.5T282 650q41 0 72.5-11.5T408 606t33-50 11-63q0-53-21-99.5T369 298 265.5 193.5 121 66h276L385 0H-10z"/><glyph glyph-name="three" unicode="3" horiz-adv-x="480" d="M187-12q-66 0-116 32.5T-9 98l51 40q23-34 59.5-60T188 52q34 0 62.5 10t49 27.5 32 41.5 11.5 53q0 25-10 46.5T301 268t-57 24.5-86 8.5l12 58q59 0 99 12t64.5 31 35 42.5T379 491q0 42-25 69t-76 27q-29 0-62.5-14T153 536l-39 51q83 63 176 63 81 0 124-40t43-106q0-61-37-107t-112-67v-4q53-17 82.5-53t29.5-86q0-46-17.5-82.5T354 42 280 2t-93-14z"/><glyph glyph-name="four" unicode="4" horiz-adv-x="480" d="M316 0h-72l36 176H8l9 52 342 410h84l-80-400h84l-13-62h-83zM102 238h190l37 189q6 29 14.5 61.5T360 554h-4q-20-28-39.5-54.5T279 450z"/><glyph glyph-name="five" unicode="5" horiz-adv-x="480" d="M184-12q-66 0-112.5 31.5T-4 96l50 41q11-17 24-32t30-27 39-19 50-7q31 0 59.5 12T299 98.5t35 53.5 13 70q0 62-31.5 92T232 344q-31 0-53-8t-54-25l-33 26 80 301h299l-13-66H225l-52-188q17 8 38 14t46 6q36 0 66.5-10.5t53-31.5 35-52.5T424 236q0-57-20-103t-53-78-76.5-49.5T184-12z"/><glyph glyph-name="six" unicode="6" horiz-adv-x="480" d="M228-12q-41 0-73.5 16T99 48.5 63.5 117 51 204q0 97 22.5 179T136 524.5t94.5 92.5T349 650q52 0 85.5-24.5T488 569l-52-41q-17 28-38.5 43T345 586q-38 0-72-19.5t-62.5-55-49-86T131 312q33 38 74 56t74 18q71 0 113-44t42-122q0-47-15.5-89T375 57 309.5 6.5 228-12zm4 60q27 0 51 14t42 36.5 28 51.5 10 59q0 55-25.5 87.5T261 329q-24 0-63-17.5T124 248q-1-11-1-22.5V202q0-69 29-111.5T232 48z"/><glyph glyph-name="seven" unicode="7" horiz-adv-x="480" d="M120 0q21 90 47 167.5T227.5 315 307 448.5 413 572H107l14 66h394l-10-50q-74-70-124.5-140t-85-142T239 158 200 0h-80z"/><glyph glyph-name="eight" unicode="8" horiz-adv-x="480" d="M222-12q-35 0-68.5 10T94 28.5t-42.5 52T35 154q0 36 12.5 66t33 53.5T128 315t56 31v4q-28 28-42.5 57.5T127 476q0 41 15 73t41 54.5 59.5 34.5 71.5 12q30 0 58.5-9t50.5-27.5 35-46.5 13-65q0-64-34-107t-88-73v-4q14-10 29.5-24t28-32 20.5-40.5 8-47.5q0-43-17.5-77.5T371 38 303.5 1 222-12zm86 357q18 12 35.5 27t31 33.5 21.5 40 8 46.5q0 48-27.5 74T308 592q-22 0-42-7.5t-35.5-22T206 527t-9-47q0-50 29-80t82-55zM226 45q26 0 50.5 8.5t44 24 31 39T363 170q0 28-11.5 49T320 257.5 274 290t-54 30q-51-28-83-65t-32-93q0-28 9.5-49.5t26-36.5T179 53t47-8z"/><glyph glyph-name="nine" unicode="9" horiz-adv-x="480" d="M245 309q12 0 28.5 4t34.5 13.5 37 25 37 38.5q1 11 1 22.5V436q0 69-29 111.5T274 590q-27 0-51-14t-41.5-36.5T154 488t-10-59q0-56 25.5-88t75.5-32zM157-12q-52 0-85.5 24.5T18 69l52 41q17-28 38.5-43T162 52q37 0 71 19.5t62 55 48.5 85.5T374 324q-33-37-73.5-54.5T228 252q-72 0-114 44T72 418q0 47 15.5 89t43.5 74 65.5 50.5T278 650q41 0 74-16t56-44.5 35-68.5 12-87q0-98-22.5-179.5t-62.5-141T275.5 21 157-12z"/><glyph glyph-name="zero.pnum" horiz-adv-x="504" d="M210-12q-41 0-72.5 16.5T85 50.5t-32 69T42 205q0 89 22 170t59.5 142 87.5 97 105 36q40 0 71-17t52-46.5 32-69.5 11-86q0-90-22-170t-59-141-86.5-96.5T210-12zm4 61q40 0 76 34.5t63 90 42.5 124T411 434q0 67-24.5 110.5T311 588q-41 0-77-35t-62.5-90.5-42-124.5T114 202q0-66 24-109.5T214 49z"/><glyph glyph-name="one.pnum" horiz-adv-x="340" d="M100 0l109 542H95l10 50q86 12 141 46h59L177 0h-77z"/><glyph glyph-name="two.pnum" horiz-adv-x="467" d="M-10 0l8 46q93 81 162.5 142T276 299t68.5 93.5T367 483q0 44-23 74t-71 30q-32 0-64.5-16.5T142 523l-39 48q44 38 87.5 58.5T282 650q38 0 67.5-11.5t50-32.5 31.5-50 11-63q0-53-20.5-99.5T361 298 260.5 193.5 121 66h266L375 0H-10z"/><glyph glyph-name="three.pnum" horiz-adv-x="461" d="M180-12q-66 0-116 32.5T-16 98l51 40q23-34 59.5-60T181 52q34 0 62.5 10t49 27.5 32 41.5 11.5 53q0 25-10 46.5T294 268t-57 24.5-86 8.5l12 58q59 0 99 12t64.5 31 35 42.5T372 491q0 42-25 69t-76 27q-29 0-62.5-14T146 536l-39 51q83 63 176 63 81 0 124-40t43-106q0-61-37-107t-112-67v-4q53-17 82.5-53t29.5-86q0-46-17.5-82.5T347 42 273 2t-93-14z"/><glyph glyph-name="four.pnum" horiz-adv-x="485" d="M327 0h-72l36 176H19l9 52 342 410h84l-80-400h84l-13-62h-83zM113 238h190l37 189q6 29 14.5 61.5T371 554h-4q-20-28-39.5-54.5T290 450z"/><glyph glyph-name="five.pnum" horiz-adv-x="461" d="M179-12q-66 0-112.5 31.5T-9 96l50 41q11-17 24-32t30-27 39-19 50-7q31 0 59.5 12T294 98.5t35 53.5 13 70q0 62-31.5 92T227 344q-31 0-53-8t-54-25l-33 26 80 301h299l-13-66H220l-52-188q17 8 38 14t46 6q36 0 66.5-10.5t53-31.5 35-52.5T419 236q0-57-20-103t-53-78-76.5-49.5T179-12z"/><glyph glyph-name="six.pnum" horiz-adv-x="480" d="M228-12q-41 0-73.5 16T99 48.5 63.5 117 51 204q0 97 22.5 179T136 524.5t94.5 92.5T349 650q52 0 85.5-24.5T488 569l-52-41q-17 28-38.5 43T345 586q-38 0-72-19.5t-62.5-55-49-86T131 312q33 38 74 56t74 18q71 0 113-44t42-122q0-47-15.5-89T375 57 309.5 6.5 228-12zm4 60q27 0 51 14t42 36.5 28 51.5 10 59q0 55-25.5 87.5T261 329q-24 0-63-17.5T124 248q-1-11-1-22.5V202q0-69 29-111.5T232 48z"/><glyph glyph-name="seven.pnum" horiz-adv-x="456" d="M105 0q22 90 47.5 167.5t59 147.5T289 448.5 392 572H97l13 66h384l-10-50q-71-70-120.5-140t-83-142T225 158 186 0h-81z"/><glyph glyph-name="eight.pnum" horiz-adv-x="480" d="M222-12q-35 0-68.5 10T94 28.5t-42.5 52T35 154q0 36 12.5 66t33 53.5T128 315t56 31v4q-28 28-42.5 57.5T127 476q0 41 15 73t41 54.5 59.5 34.5 71.5 12q30 0 58.5-9t50.5-27.5 35-46.5 13-65q0-64-34-107t-88-73v-4q14-10 29.5-24t28-32 20.5-40.5 8-47.5q0-43-17.5-77.5T371 38 303.5 1 222-12zm86 357q18 12 35.5 27t31 33.5 21.5 40 8 46.5q0 48-27.5 74T308 592q-22 0-42-7.5t-35.5-22T206 527t-9-47q0-50 29-80t82-55zM226 45q26 0 50.5 8.5t44 24 31 39T363 170q0 28-11.5 49T320 257.5 274 290t-54 30q-51-28-83-65t-32-93q0-28 9.5-49.5t26-36.5T179 53t47-8z"/><glyph glyph-name="nine.pnum" horiz-adv-x="480" d="M245 309q12 0 28.5 4t34.5 13.5 37 25 37 38.5q1 11 1 22.5V436q0 69-29 111.5T274 590q-27 0-51-14t-41.5-36.5T154 488t-10-59q0-56 25.5-88t75.5-32zM157-12q-52 0-85.5 24.5T18 69l52 41q17-28 38.5-43T162 52q37 0 71 19.5t62 55 48.5 85.5T374 324q-33-37-73.5-54.5T228 252q-72 0-114 44T72 418q0 47 15.5 89t43.5 74 65.5 50.5T278 650q41 0 74-16t56-44.5 35-68.5 12-87q0-98-22.5-179.5t-62.5-141T275.5 21 157-12z"/><glyph glyph-name="zero.tnum" horiz-adv-x="480" d="M201-12q-77 0-120 56T38 193q0 69 17.5 139.5T106 459t80 91.5T291 586q37 0 67-14.5t51-41.5 32.5-65 11.5-85q0-69-17.5-139T385 114.5 305.5 23 201-12zm6 61q37 0 68.5 30t55 77T367 260.5 380 373q0 73-24 112t-72 39q-37 0-69-30t-55-77-36.5-104T110 201q0-73 24.5-112.5T207 49z"/><glyph glyph-name="one.tnum" horiz-adv-x="480" d="M26 0l13 64h139l83 414H147l10 50q86 12 141 46h59L254 64h130L372 0H26z"/><glyph glyph-name="two.tnum" horiz-adv-x="480" d="M-10 0l8 46q91 70 159 122.5t113 95 67 79.5 22 76q0 44-25.5 74T255 523q-32 0-64.5-16.5T124 459l-39 48q44 37 87.5 58t91.5 21q41 0 72.5-12t53.5-33 33-49.5 11-62.5q0-45-20-84.5T354.5 263 257 173.5 123 66h274L385 0H-10z"/><glyph glyph-name="three.tnum" horiz-adv-x="480" d="M174-86q-32 0-61 9T59-53 13.5-18-22 24l51 40Q52 31 87 4.5T171-22q34 0 63 10.5t49.5 29 32 44T327 116q0 25-9.5 47T286 200.5 229.5 225t-84.5 9l12 57q59 0 99 12.5t64.5 32 35 43.5 10.5 47q0 43-25 70t-76 27q-29 0-62.5-14T141 472l-40 51q83 63 177 63 80 0 123-40t43-106q0-63-39-110t-109-68v-4q49-18 78-53.5t29-87.5q0-46-17-83.5t-48-64-73-41T174-86z"/><glyph glyph-name="four.tnum" horiz-adv-x="480" d="M237-74l34 169H-9l10 51 353 428h84l-83-418h82l-12-61h-82L309-74h-72zM85 156h198l42 207q5 28 13.5 61t16.5 66h-4q-20-28-39-54.5T274 385z"/><glyph glyph-name="five.tnum" horiz-adv-x="480" d="M168-86q-66 0-112.5 31T-20 22l50 40q11-16 24-31.5T84 3t38.5-19 49.5-7q31 0 60 12t51 34.5 35 54 13 70.5q0 63-31.5 95T216 275q-32 0-54-8t-53-25l-33 26 81 306h300l-14-66H211l-54-194q17 9 38 14.5t46 5.5q36 0 66.5-11t53-33 35-54.5T408 161q0-57-20-102.5t-53-78T258.5-69 168-86z"/><glyph glyph-name="six.tnum" horiz-adv-x="480" d="M228-12q-41 0-73.5 16T99 48.5 63.5 117 51 204q0 97 22.5 179T136 524.5t94.5 92.5T349 650q52 0 85.5-24.5T488 569l-52-41q-17 28-38.5 43T345 586q-38 0-72-19.5t-62.5-55-49-86T131 312q33 38 74 56t74 18q71 0 113-44t42-122q0-47-15.5-89T375 57 309.5 6.5 228-12zm4 60q27 0 51 14t42 36.5 28 51.5 10 59q0 55-25.5 87.5T261 329q-24 0-63-17.5T124 248q-1-11-1-22.5V202q0-69 29-111.5T232 48z"/><glyph glyph-name="seven.tnum" horiz-adv-x="480" d="M104-74q22 91 48 170.5t60.5 151 80 135.5T399 508H93l14 66h394l-10-50q-74-71-124.5-142T281 237.5t-57-151T185-74h-81z"/><glyph glyph-name="eight.tnum" horiz-adv-x="480" d="M222-12q-35 0-68.5 10T94 28.5t-42.5 52T35 154q0 36 12.5 66t33 53.5T128 315t56 31v4q-28 28-42.5 57.5T127 476q0 41 15 73t41 54.5 59.5 34.5 71.5 12q30 0 58.5-9t50.5-27.5 35-46.5 13-65q0-64-34-107t-88-73v-4q14-10 29.5-24t28-32 20.5-40.5 8-47.5q0-43-17.5-77.5T371 38 303.5 1 222-12zm86 357q18 12 35.5 27t31 33.5 21.5 40 8 46.5q0 48-27.5 74T308 592q-22 0-42-7.5t-35.5-22T206 527t-9-47q0-50 29-80t82-55zM226 45q26 0 50.5 8.5t44 24 31 39T363 170q0 28-11.5 49T320 257.5 274 290t-54 30q-51-28-83-65t-32-93q0-28 9.5-49.5t26-36.5T179 53t47-8z"/><glyph glyph-name="nine.tnum" horiz-adv-x="480" d="M227 225q25 0 63 15.5t78 62.5q3 33 3 69 0 69-29 111.5T262 526q-29 0-54.5-15T163 472t-30-54.5-11-62.5q0-60 27-95t78-35zM142-85q-52 0-85.5 24.5T3-4l52 41Q72 9 93.5-6T147-21q36 0 69.5 18t61 51.5T326 130t32 107q-35-35-75-52t-74-17q-69 0-113.5 46T51 344q0 49 16.5 93t45 77 68 52.5T267 586q41 0 73.5-16t55.5-44.5 35-68.5 12-87q0-99-22.5-182.5t-63-144T262-51 142-85z"/><glyph glyph-name="zero.onum" horiz-adv-x="480" d="M201-12q-77 0-120 56T38 193q0 69 17.5 139.5T106 459t80 91.5T291 586q37 0 67-14.5t51-41.5 32.5-65 11.5-85q0-69-17.5-139T385 114.5 305.5 23 201-12zm6 61q37 0 68.5 30t55 77T367 260.5 380 373q0 73-24 112t-72 39q-37 0-69-30t-55-77-36.5-104T110 201q0-73 24.5-112.5T207 49z"/><glyph glyph-name="one.onum" horiz-adv-x="342" d="M93 0l97 478H76l10 50q86 12 141 46h59L170 0H93z"/><glyph glyph-name="two.onum" horiz-adv-x="462" d="M-10 0l8 46q88 70 153.5 122.5t109 95 65 79.5 21.5 76q0 44-23.5 74T255 523q-32 0-64.5-16.5T124 459l-39 48q44 37 87.5 58t91.5 21q37 0 66.5-12t49.5-33 31-49.5 11-62.5q0-45-19.5-84.5t-58-81.5-95-89.5T120 66h261L369 0H-10z"/><glyph glyph-name="three.onum" horiz-adv-x="480" d="M174-86q-32 0-61 9T59-53 13.5-18-22 24l51 40Q52 31 87 4.5T171-22q34 0 63 10.5t49.5 29 32 44T327 116q0 25-9.5 47T286 200.5 229.5 225t-84.5 9l12 57q59 0 99 12.5t64.5 32 35 43.5 10.5 47q0 43-25 70t-76 27q-29 0-62.5-14T141 472l-40 51q83 63 177 63 80 0 123-40t43-106q0-63-39-110t-109-68v-4q49-18 78-53.5t29-87.5q0-46-17-83.5t-48-64-73-41T174-86z"/><glyph glyph-name="four.onum" horiz-adv-x="480" d="M237-74l34 169H-9l10 51 353 428h84l-83-418h82l-12-61h-82L309-74h-72zM85 156h198l42 207q5 28 13.5 61t16.5 66h-4q-20-28-39-54.5T274 385z"/><glyph glyph-name="five.onum" horiz-adv-x="480" d="M168-86q-66 0-112.5 31T-20 22l50 40q11-16 24-31.5T84 3t38.5-19 49.5-7q31 0 60 12t51 34.5 35 54 13 70.5q0 63-31.5 95T216 275q-32 0-54-8t-53-25l-33 26 81 306h300l-14-66H211l-54-194q17 9 38 14.5t46 5.5q36 0 66.5-11t53-33 35-54.5T408 161q0-57-20-102.5t-53-78T258.5-69 168-86z"/><glyph glyph-name="six.onum" horiz-adv-x="480" d="M228-12q-41 0-73.5 16T99 48.5 63.5 117 51 204q0 97 22.5 179T136 524.5t94.5 92.5T349 650q52 0 85.5-24.5T488 569l-52-41q-17 28-38.5 43T345 586q-38 0-72-19.5t-62.5-55-49-86T131 312q33 38 74 56t74 18q71 0 113-44t42-122q0-47-15.5-89T375 57 309.5 6.5 228-12zm4 60q27 0 51 14t42 36.5 28 51.5 10 59q0 55-25.5 87.5T261 329q-24 0-63-17.5T124 248q-1-11-1-22.5V202q0-69 29-111.5T232 48z"/><glyph glyph-name="seven.onum" horiz-adv-x="456" d="M85-74q22 91 47.5 171T192 248t79 135.5T376 508H80l13 66h385l-10-50q-74-70-123.5-141T261 238.5 205 87 166-74H85z"/><glyph glyph-name="eight.onum" horiz-adv-x="480" d="M222-12q-35 0-68.5 10T94 28.5t-42.5 52T35 154q0 36 12.5 66t33 53.5T128 315t56 31v4q-28 28-42.5 57.5T127 476q0 41 15 73t41 54.5 59.5 34.5 71.5 12q30 0 58.5-9t50.5-27.5 35-46.5 13-65q0-64-34-107t-88-73v-4q14-10 29.5-24t28-32 20.5-40.5 8-47.5q0-43-17.5-77.5T371 38 303.5 1 222-12zm86 357q18 12 35.5 27t31 33.5 21.5 40 8 46.5q0 48-27.5 74T308 592q-22 0-42-7.5t-35.5-22T206 527t-9-47q0-50 29-80t82-55zM226 45q26 0 50.5 8.5t44 24 31 39T363 170q0 28-11.5 49T320 257.5 274 290t-54 30q-51-28-83-65t-32-93q0-28 9.5-49.5t26-36.5T179 53t47-8z"/><glyph glyph-name="nine.onum" horiz-adv-x="480" d="M227 225q25 0 63 15.5t78 62.5q3 33 3 69 0 69-29 111.5T262 526q-29 0-54.5-15T163 472t-30-54.5-11-62.5q0-60 27-95t78-35zM142-85q-52 0-85.5 24.5T3-4l52 41Q72 9 93.5-6T147-21q36 0 69.5 18t61 51.5T326 130t32 107q-35-35-75-52t-74-17q-69 0-113.5 46T51 344q0 49 16.5 93t45 77 68 52.5T267 586q41 0 73.5-16t55.5-44.5 35-68.5 12-87q0-99-22.5-182.5t-63-144T262-51 142-85z"/><glyph glyph-name="period" unicode="." horiz-adv-x="242" d="M70-12Q48-12 35.5 2T23 38q0 26 19 48t48 22q22 0 34-14.5T136 57q0-26-18.5-47.5T70-12z"/><glyph glyph-name="comma" unicode="," horiz-adv-x="242" d="M-20-164l-11 46q48 18 76 48T80-4h-2Q55-4 40.5 8.5T26 44q0 25 17.5 44.5T90 108q26 0 40-18t14-48q0-74-45-129.5T-20-164z"/><glyph glyph-name="colon" unicode=":" horiz-adv-x="242" d="M134 357q-22 0-34.5 14T87 407q0 26 19 48t48 22q22 0 34-14.5t12-36.5q0-26-18.5-47.5T134 357zM70-12Q48-12 35.5 2T23 38q0 26 19 48t48 22q22 0 34-14.5T136 57q0-26-18.5-47.5T70-12z"/><glyph glyph-name="semicolon" unicode=";" horiz-adv-x="242" d="M134 357q-22 0-34.5 14T87 407q0 26 19 48t48 22q22 0 34-14.5t12-36.5q0-26-18.5-47.5T134 357zM-20-164l-11 46q48 18 76 48T80-4h-2Q55-4 40.5 8.5T26 44q0 25 17.5 44.5T90 108q26 0 40-18t14-48q0-74-45-129.5T-20-164z"/><glyph glyph-name="ellipsis" unicode="…" horiz-adv-x="960" d="M130-12q-22 0-34.5 14T83 38q0 26 19 48t48 22q22 0 34-14.5T196 57q0-26-18.5-47.5T130-12zm329 0q-22 0-34.5 14T412 38q0 26 19 48t48 22q22 0 34-14.5T525 57q0-26-18.5-47.5T459-12zm329 0q-22 0-34.5 14T741 38q0 26 19 48t48 22q22 0 34-14.5T854 57q0-26-18.5-47.5T788-12z"/><glyph glyph-name="exclam" unicode="!" horiz-adv-x="282" d="M102 196l67 383 15 92h77l-19-92-86-383h-54zM91-12Q69-12 56 2T43 38q0 26 19 48t48 22q23 0 34.5-14.5T156 57q0-26-18-47.5T91-12z"/><glyph glyph-name="exclamdown" unicode="¡" horiz-adv-x="282" d="M21-185l19 92 86 383h54L113-93l-15-92H21zm150 563q-22 0-33.5 14.5T126 429q0 26 18 47.5t47 21.5q22 0 34.5-14t12.5-36q0-13-5-25.5T219 400t-21-16-27-6z"/><glyph glyph-name="question" unicode="?" horiz-adv-x="409" d="M145 201q2 42 18 74.5t38 59 47 49 46 45 35 47 14 55.5q0 42-23 64.5T257 618q-29 0-56-14t-49-37l-41 46q29 30 69.5 49.5T266 682q70 0 111-36.5T418 544q0-41-14.5-72T367 415t-48-49.5-49-48.5-39.5-54.5T211 195zm-4-213q-22 0-34.5 14T94 38q0 26 19 48t48 22q22 0 34-14.5T207 57q0-26-18.5-47.5T141-12z"/><glyph glyph-name="questiondown" unicode="¿" horiz-adv-x="409" d="M148-195q-70 0-111 36.5T-4-56q0 40 14.5 71t36 57T94 121.5t49 49 39.5 54.5 20.5 67l66-6q-3-42-18.5-74T213 153.5t-47-49T120 59 85 11.5 71-44q0-41 22.5-64t62.5-23q29 0 56.5 14T262-79l40-46q-29-31-69-50.5T148-195zm105 574q-23 0-34.5 14.5T207 430q0 26 18 47.5t47 21.5q22 0 35-14t13-36q0-25-19-47.5T253 379z"/><glyph glyph-name="quotesingle" unicode="'" horiz-adv-x="242" d="M128 426l23 153 15 92h75l-19-92-42-153h-52z"/><glyph glyph-name="quotedbl" unicode="&quot;" horiz-adv-x="408" d="M128 426l23 153 15 92h75l-19-92-42-153h-52zm166 0l23 153 15 92h75l-19-92-42-153h-52z"/><glyph glyph-name="quoteleft" unicode="‘" horiz-adv-x="242" d="M163 434q-23 0-38 18t-15 50q0 34 10 63.5t28 53.5 42 42 52 30l16-38q-46-23-70.5-56.5T163 535h5q21 0 35-11.5t14-32.5q0-23-15-40t-39-17z"/><glyph glyph-name="quoteright" unicode="’" horiz-adv-x="242" d="M127 443l-16 37q47 23 71.5 57t24.5 61h-5q-22 0-36 11.5T152 643q0 23 15 40t40 17q23 0 38-18t15-50q0-35-10-64t-28-53-42.5-42-52.5-30z"/><glyph glyph-name="quotedblleft" unicode="“" horiz-adv-x="408" d="M163 434q-23 0-38 18t-15 50q0 34 10 63.5t28 53.5 42 42 52 30l16-38q-46-23-70.5-56.5T163 535h5q21 0 35-11.5t14-32.5q0-23-15-40t-39-17zm166 0q-23 0-38 18t-15 50q0 34 10 63.5t28 53.5 42 42 52 30l16-38q-46-23-70.5-56.5T329 535h5q21 0 35-11.5t14-32.5q0-23-15-40t-39-17z"/><glyph glyph-name="quotedblright" unicode="”" horiz-adv-x="408" d="M127 443l-16 37q47 23 71.5 57t24.5 61h-5q-22 0-36 11.5T152 643q0 23 15 40t40 17q23 0 38-18t15-50q0-35-10-64t-28-53-42.5-42-52.5-30zm166 0l-16 37q47 23 71.5 57t24.5 61h-5q-22 0-36 11.5T318 643q0 23 15 40t40 17q23 0 38-18t15-50q0-35-10-64t-28-53-42.5-42-52.5-30z"/><glyph glyph-name="quotesinglbase" unicode="‚" horiz-adv-x="242" d="M8-147l-16 37q47 23 71.5 57T88 8h-5Q61 8 47 19.5T33 53q0 23 15 40t40 17q23 0 38-18t15-50q0-35-10-64t-28-53-42.5-42T8-147z"/><glyph glyph-name="quotedblbase" unicode="„" horiz-adv-x="408" d="M8-147l-16 37q47 23 71.5 57T88 8h-5Q61 8 47 19.5T33 53q0 23 15 40t40 17q23 0 38-18t15-50q0-35-10-64t-28-53-42.5-42T8-147zm165 0l-16 37q47 23 71.5 57T253 8h-5q-22 0-36 11.5T198 53q0 23 15 40t40 17q23 0 38-18t15-50q0-35-10-64t-28-53-42.5-42-52.5-30z"/><glyph glyph-name="guilsinglleft" unicode="‹" horiz-adv-x="252" d="M143 67L40 225l11 62 156 148 28-29L93 250l85-161z"/><glyph glyph-name="guilsinglright" unicode="›" horiz-adv-x="252" d="M51 67L23 96l141 156-85 161 36 22 103-158-11-62z"/><glyph glyph-name="guillemotleft" unicode="«" horiz-adv-x="411" d="M143 67L40 225l11 62 156 148 28-29L93 250l85-161zm159 0L199 225l11 62 156 148 28-29-142-156 85-161z"/><glyph glyph-name="guillemotright" unicode="»" horiz-adv-x="411" d="M51 67L23 96l141 156-85 161 36 22 103-158-11-62zm159 0l-28 29 141 156-85 161 36 22 103-158-11-62z"/><glyph glyph-name="hyphen" unicode="-" horiz-adv-x="299" d="M35 222l12 59h219l-13-59H35z"/><glyph glyph-name="uni00AD" unicode="­" horiz-adv-x="299" d="M35 222l12 59h219l-13-59H35z"/><glyph glyph-name="endash" unicode="–" horiz-adv-x="463" d="M35 225l11 54h381l-12-54H35z"/><glyph glyph-name="emdash" unicode="—" horiz-adv-x="769" d="M35 225l11 54h688l-11-54H35z"/><glyph glyph-name="figuredash" unicode="‒" horiz-adv-x="480" d="M35 225l11 54h398l-12-54H35z"/><glyph glyph-name="uni2015" unicode="―" horiz-adv-x="769" d="M35 225l11 54h688l-11-54H35z"/><glyph glyph-name="periodcentered" unicode="·" horiz-adv-x="242" d="M126 268q-22 0-34.5 14T79 318q0 26 19 48t48 22q22 0 34-14.5t12-36.5q0-26-18.5-47.5T126 268z"/><glyph glyph-name="bullet" unicode="•" horiz-adv-x="295" d="M139 145q-43 0-70.5 29T41 250q0 24 8.5 48t24 42.5T111 371t50 12q42 0 69.5-29.5T258 278q0-25-8.5-49t-24-42.5-37.5-30-49-11.5z"/><glyph glyph-name="underscore" unicode="_" horiz-adv-x="483" d="M-36-124l11 50h457l-10-50H-36z"/><glyph glyph-name="parenleft" unicode="(" horiz-adv-x="291" d="M122-176Q98-112 81.5-31T65 133q0 87 15.5 165T126 449t73 142.5T298 731l45-25Q237 571 183 427t-54-302q0-35 2.5-72.5t8-74.5T153-94t19-63z"/><glyph glyph-name="parenright" unicode=")" horiz-adv-x="293" d="M1-176l-45 26q213 269 213 580 0 35-2.5 73t-7.5 75-13 71-19 63l50 19q24-64 40.5-145T234 423q0-88-15.5-166T173 106 99.5-36.5 1-176z"/><glyph glyph-name="bracketleft" unicode="[" horiz-adv-x="292" d="M8-152l172 860h169l-7-45H229L76-107h112l-11-45H8z"/><glyph glyph-name="bracketright" unicode="]" horiz-adv-x="293" d="M-49-152l10 45H72l155 770H115l8 45h171L122-152H-49z"/><glyph glyph-name="braceleft" unicode="{" horiz-adv-x="290" d="M135-152q-47 0-67.5 19T47-72q0 28 8.5 65t19 75.5 19 72.5 8.5 56q0 10-3 20.5t-10.5 18T67 248t-35 5l11 50q25 0 42.5 7t29 18.5T132 354t9 28q9 48 14.5 94t16.5 97q7 39 18 65t26.5 41.5 37.5 22 52 6.5h46l-10-45h-26q-40 0-57-23t-27-71q-8-43-14.5-88.5T202 389q-10-49-29.5-76T118 277v-4q24-8 34-23.5t10-37.5q0-26-8-62.5t-18-75T118 1t-8-59q0-25 11.5-37t43.5-12h24l-10-45h-44z"/><glyph glyph-name="braceright" unicode="}" horiz-adv-x="293" d="M-52-152l9 45h26q40 0 57.5 22T67-14q8 43 15 88t15 92q11 50 30 77t54 36v4q-25 8-34.5 23.5T137 344q0 26 8 62.5t18 74.5 18 73 8 59q0 26-11 38t-43 12h-25l10 45h44q48 0 68.5-19.5T253 628q0-28-8.5-65.5t-19-75.5-19-73-8.5-57q0-10 3-19.5t10.5-17 21-12.5 35.5-5l-11-50q-26 0-43.5-7t-29-18.5-17-25.5-8.5-28q-9-48-14.5-94.5T128-19q-8-39-19-64.5T82.5-124 45-145.5-6-152h-46z"/><glyph glyph-name="slash" unicode="/" horiz-adv-x="340" d="M-72-160l434 870h56L-17-160h-55z"/><glyph glyph-name="bar" unicode="|" horiz-adv-x="231" d="M95-250V750h52V-250H95z"/><glyph glyph-name="backslash" unicode="\" horiz-adv-x="340" d="M203-160L88 710h52l117-870h-54z"/><glyph glyph-name="brokenbar" unicode="¦" horiz-adv-x="231" d="M95 289v461h52V289H95zm0-539v463h52v-463H95z"/><glyph glyph-name="asterisk" unicode="*" horiz-adv-x="403" d="M176 434l-32 29 69 88-88 49 18 40 99-33 25 106 44-4-8-107 103 14 7-43-103-31 38-97-40-23-52 88z"/><glyph glyph-name="dagger" unicode="†" horiz-adv-x="435" d="M118-80l121 576-138-5 13 66 134-5 28 160h66l-36-160 137 5-13-66-135 5L184-80h-66z"/><glyph glyph-name="daggerdbl" unicode="‡" horiz-adv-x="435" d="M119-80l35 159-136-5 13 66 135-6 31 182 42 182-138-7 12 66 135-5 28 160h65l-35-160 137 5-13-66-135 7-32-182-41-182 138 6-13-66-135 5-27-159h-66z"/><glyph glyph-name="section" unicode="§" horiz-adv-x="477" d="M124 344q0-30 18-50.5t44.5-37.5 57-33 54.5-37q35 13 53.5 34.5T370 282q0 29-17.5 50.5T309 372t-55.5 35-54.5 37q-33-14-54-38t-21-62zm58-404q-45 0-88.5 20T15 15l41 50q26-28 60-46.5T186 0q38 0 63.5 22T275 79q0 26-16 45t-40.5 35-53 31-53 34.5T72 270t-16 63q0 54 30 91.5t78 57.5q-16 27-16 58 0 33 11.5 59.5t31.5 45 47.5 29T299 684q45 0 83.5-20.5T450 611l-43-45q-21 24-49 41t-60 17q-31 0-55-19.5T219 550q0-24 16-42t40.5-34.5 53-33 53-37T422 356t16-64q0-58-28-91t-78-56q13-26 13-55 0-32-12-59.5T299-17t-51.5-31.5T182-60z"/><glyph glyph-name="paragraph" unicode="¶" horiz-adv-x="535" d="M300-80l146 736h77L376-80h-76zm-7 307q-45 0-85 11.5T138 272t-47.5 55T73 403q0 64 23 112t61 79 87.5 46.5T347 656h48l-87-429h-15z"/><glyph glyph-name="copyright" unicode="©" horiz-adv-x="665" d="M298-11q-58 0-106.5 20.5t-83 57T55 154 36 266q0 74 26 143.5T135.5 533 250 620t148 33q58 0 106.5-20.5t83-57 54-87T661 377q0-74-26-144t-74-124-115-87-148-33zm3 41q70 0 128.5 29.5t100.5 78 65 110T618 372q0 53-15 97t-44 76-70.5 50-93.5 18q-70 0-128-29.5t-100-78-65-110T79 271q0-53 15-97t43.5-76 70-50T301 30zm25 95q-65 0-105.5 38.5T180 276q0 55 19 98.5t49 74 67 47 73 16.5q35 0 58-15t40-36l-37-34q-14 17-29.5 26t-38.5 9q-24 0-49-13t-46-36.5-34-56-13-71.5q0-54 26.5-81.5T337 176q28 0 50.5 11.5T435 215l25-39q-31-23-62.5-37T326 125z"/><glyph glyph-name="uni2117" unicode="℗" horiz-adv-x="665" d="M298-11q-58 0-106.5 20.5t-83 57T55 154 36 266q0 74 26 143.5T135.5 533 250 620t148 33q58 0 106.5-20.5t83-57 54-87T661 377q0-74-26-144t-74-124-115-87-148-33zm3 41q70 0 128.5 29.5t100.5 78 65 110T618 372q0 53-15 97t-44 76-70.5 50-93.5 18q-70 0-128-29.5t-100-78-65-110T79 271q0-53 15-97t43.5-76 70-50T301 30zM196 137l72 363h125q54 0 89-24.5t35-72.5q0-38-14.5-66T464 290.5t-55.5-28T343 253h-65l-22-116h-60zm92 161h58q53 0 82.5 25t29.5 69q0 29-20.5 45T379 453h-61z"/><glyph glyph-name="registered" unicode="®" horiz-adv-x="406" d="M235 323q-33 0-62.5 12.5T121 370t-35 53-13 69q0 42 15 81t41.5 69.5 63 49T272 710q33 0 62.5-12.5t51.5-35 35.5-53.5 13.5-68q0-42-15-81.5t-42-70-63.5-48.5-79.5-18zm3 34q33 0 62.5 14.5t51 39 34 57.5 12.5 69q0 60-34.5 99T269 675q-34 0-63-14.5t-50.5-39-33.5-57-12-68.5q0-30 8.5-55t25-44 40.5-29.5 54-10.5zm-69 60l41 202h66q29 0 46-15t17-43q0-23-13-40t-36-25l28-79h-40l-22 70h-34l-15-70h-38zm59 100h22q23 0 36 11t13 29q0 30-33 30h-25z"/><glyph glyph-name="trademark" unicode="™" horiz-adv-x="611" d="M123 366l52 260H76l11 50h249l-10-50h-96l-52-260h-55zm197 0l62 310h68l23-115 11-81h4l40 81 71 115h69l-61-310h-55l28 140 32 112h-4L490 414h-35l-38 204h-4l-11-112-29-140h-53z"/><glyph glyph-name="uni2120" unicode="℠" horiz-adv-x="601" d="M148 354q-35 0-61 14.5T43 409l38 31q13-19 31-30t40-11q26 0 43.5 14t17.5 34q0 15-8 24t-22 17l-41 24q-14 9-29 26.5T98 584q0 44 32.5 71.5T212 683q27 0 48.5-12t40.5-30l-36-34q-15 16-28.5 24t-29.5 8q-26 0-41-14t-15-29q0-16 10-26.5t22-16.5l39-23q20-11 32.5-28.5T267 458q0-21-8.5-39.5t-24.5-33-37.5-23T148 354zm162 12l62 310h68l23-115 11-81h4l40 81 71 115h69l-61-310h-55l28 140 32 112h-4L480 414h-35l-38 204h-4l-11-112-29-140h-53z"/><glyph glyph-name="at" unicode="@" horiz-adv-x="814" d="M352-155q-65 0-121 21.5t-97 62T69 28 45 163q0 103 36.5 191t97 152.5 139 101T480 644q71 0 126-22t93-61.5 58-94T777 348q0-73-17.5-129t-47-94.5-67.5-58T567 47q-35 0-59 20.5T477 123h-3q-23-29-52.5-48T359 56q-23 0-44 9t-36.5 26-25 42.5T244 191q0 44 15.5 87t42 76.5 62 54T440 429q47 0 73-51h2l13 43h51l-50-217q-11-47 .5-75.5T581 100q24 0 49.5 15.5t45.5 46 33 75T722 338q0 54-14.5 101T662 520t-78 53.5T473 593q-68 0-134.5-32t-119-88.5-85-133T102 174q0-67 20.5-118.5t55-87 81-53.5 99.5-18q75 0 135 37l23-46q-80-43-164-43zm21 264q45 0 90 61l36 161q-14 26-28 35.5t-31 9.5q-30 0-54.5-17T343 316t-28-57.5-10-60.5q0-45 19.5-67t48.5-22z"/><glyph glyph-name="at.case" horiz-adv-x="802" d="M368-21q-59 0-108.5 19T174 52t-56 85.5T98 251q0 96 33.5 175.5T221 564t128 90 149 32q66 0 116.5-19.5T699 612t51.5-83T768 425q0-67-15-118.5T712.5 220t-59-53-69.5-18q-35 0-57.5 19.5T497 223h-3q-22-29-51-47.5T383 157q-42 0-73 34t-31 98q0 39 14 77.5t38.5 68.5 57.5 48.5 71 18.5q46 0 70-49h2l14 43h50l-45-192q-11-47-.5-75t48.5-28q21 0 41.5 14.5t37 42.5 27 68.5T715 419q0 47-13.5 87T661 575t-69 45.5-99 16.5q-63 0-124-28.5t-109-79-77-119T154 262q0-56 16.5-99T216 90t70-45.5T377 29q36 0 71.5 8.5T513 63l14-43q-38-23-79.5-32T368-21zm30 231q21 0 42.5 14t44.5 46l30 135q-13 26-26.5 35t-29.5 9q-27 0-49-14.5t-38-37-24.5-49.5-8.5-52q0-45 17-65.5t42-20.5z"/><glyph glyph-name="numbersign" unicode="#" horiz-adv-x="479" d="M38 0l65 205H24l13 55h82l46 150H85l14 55h84l59 185h51l-58-185h125l59 185h51l-58-185h79l-14-55h-82l-46-150h81l-14-55h-85L267 0h-52l65 205H154L90 0H38zm133 260h127l46 150H217z"/><glyph glyph-name="zero.sups" unicode="⁰" horiz-adv-x="357" d="M215 383q-29 0-52 11.5t-38.5 32-24 48T92 535q0 46 12 93t35.5 85 57 61.5T274 798q29 0 52-11.5t38.5-32 24-48T397 646q0-47-12-94t-35.5-84.5-57.5-61-77-23.5zm5 50q28 0 50 19t37 49 23 67 8 73q0 46-16 76.5T269 748q-28 0-50-19t-37-49.5-23-67.5-8-73q0-46 16-76t53-30z"/><glyph glyph-name="one.sups" unicode="¹" horiz-adv-x="356" d="M197 395l62 312h-90l8 39q39 6 62.5 14.5T287 785h47l-77-390h-60z"/><glyph glyph-name="two.sups" unicode="²" horiz-adv-x="353" d="M78 395l7 38q61 43 105 77.5t72 63.5 41 55.5 13 53.5q0 29-16 45.5T252 745q-21 0-41.5-13.5T171 698l-35 36q28 27 57.5 45t67.5 18q54 0 85-28t31-77q0-31-12.5-60t-37-58-61-60.5T182 446h163l-10-51H78z"/><glyph glyph-name="three.sups" unicode="³" horiz-adv-x="351" d="M211 383q-49 0-83 24t-51 56l41 29q14-26 35.5-43t54.5-17q35 0 60 18.5t25 53.5q0 29-25 50t-82 21l9 41q34 0 57 7t37 18 20 25 6 28q0 25-16 40t-45 15q-41 0-83-33l-27 41q29 21 58.5 30.5T265 797q49 0 79.5-25t30.5-70q0-37-23.5-66T284 593q34-12 51-37t17-51q0-29-11.5-51.5T310 415t-45-24-54-8z"/><glyph glyph-name="four.sups" unicode="⁴" horiz-adv-x="354" d="M241 395l21 106H86l7 33 214 251h65l-48-241h57l-9-43h-56l-21-106h-54zm-86 149h116l15 76 26 108h-4l-67-84z"/><glyph glyph-name="five.sups" unicode="⁵" horiz-adv-x="351" d="M212 383q-50 0-84 24t-51 56l41 29q14-26 36-43t60-17q16 0 32 7t29 19.5 20.5 30T303 528q0 36-19 56t-51 20q-23 0-39-7.5T159 575l-23 23 52 187h207l-10-51H227l-29-101q13 8 28 11.5t26 3.5q49 0 80-30.5t31-83.5q0-34-12.5-62T317 424.5 269 394t-57-11z"/><glyph glyph-name="six.sups" unicode="⁶" horiz-adv-x="353" d="M228 383q-27 0-50 10.5T138 424t-27 48-10 63q0 64 17 113t44.5 82 63.5 50 75 17q60 0 98-38l-34-38q-14 14-30.5 20.5T296 748q-47 0-84.5-39.5T163 593q17 18 42 31t54 13q50 0 78-30t28-76q0-34-11.5-61.5t-31-46.5-44-29.5T228 383zm5 49q15 0 28.5 7t24 19 17 29.5T309 526q0 31-17 49t-46 18q-20 0-43.5-11.5T159 545v-7q0-57 22.5-81.5T233 432z"/><glyph glyph-name="seven.sups" unicode="⁷" horiz-adv-x="353" d="M149 395q25 97 69 179t118 160H143l10 51h261l-4-34q-47-45-79-88.5t-54.5-87-37-88.5-25.5-92h-65z"/><glyph glyph-name="eight.sups" unicode="⁸" horiz-adv-x="353" d="M211 383q-53 0-87 28.5T90 486q0 21 8 39.5t21.5 34T150 587t35 20l1 4q-17 15-28.5 34T146 687q0 24 10 44.5t27.5 35 41 22.5 49.5 8q48 0 78-26.5t30-70.5q0-38-24-65.5T306 592v-4q21-15 35-35.5t14-50.5q0-26-11.5-48t-31-38-45.5-24.5-56-8.5zm57 232q29 17 44.5 37t15.5 41q0 28-16.5 43.5T270 752q-29 0-49-17.5T201 690q0-28 19-46t48-29zm-52-188q33 0 58 19.5t25 52.5q0 17-6.5 29T275 549t-25.5 16.5T219 581q-35-17-53.5-39.5T147 494q0-31 20-49t49-18z"/><glyph glyph-name="nine.sups" unicode="⁹" horiz-adv-x="353" d="M236 587q21 0 44.5 11.5T324 636v6q0 57-22.5 81.5T249 748q-15 0-28.5-7t-24-19-17-29.5T173 654q0-31 17-49t46-18zm-55-204q-60 0-98 38l34 38q28-27 69-27 48 0 85.5 40T320 588q-17-18-42.5-31.5T223 543q-50 0-78 30t-28 76q0 34 11.5 61.5t31 46.5 44 29.5T254 797q27 0 50-10.5t40-30.5 27-48 10-63q0-64-16.5-113T320 450t-64-50-75-17z"/><glyph glyph-name="parenleft.sups" unicode="⁽" horiz-adv-x="227" d="M158 316q-20 42-31 90t-11 102q0 51 8.5 95.5t27 86.5 46.5 84 67 87l38-22q-67-83-98.5-163.5T173 507q0-41 6.5-88t22.5-83z"/><glyph glyph-name="parenright.sups" unicode="⁾" horiz-adv-x="226" d="M92 316l-39 21q68 83 99.5 163.5T184 669q0 41-6.5 88T155 840l43 21q20-42 31.5-90.5T241 669q0-51-8.5-95.5t-27-87-46.5-84T92 316z"/><glyph glyph-name="period.sups" horiz-adv-x="170" d="M111 387q-17 0-27 10.5T74 425q0 23 15 38.5t37 15.5q16 0 26.5-10.5T163 441q0-23-15-38.5T111 387z"/><glyph glyph-name="comma.sups" horiz-adv-x="170" d="M53 281l-11 36q32 13 51.5 31.5T118 394h-4q-15 0-26 10t-11 27q0 24 14.5 36t34.5 12q19 0 30.5-14.5T168 426q0-51-31-88t-84-57z"/><glyph glyph-name="zero.subs" unicode="₀" horiz-adv-x="357" d="M105-181q-29 0-52 11.5t-38.5 32-24 48T-18-29q0 46 12 93t35.5 85 57 61.5T164 234q29 0 52-11.5t38.5-32 24-48T287 82q0-47-12-94t-35.5-84.5-57.5-61-77-23.5zm5 50q28 0 50 19t37 49 23 67 8 73q0 46-16 76.5T159 184q-28 0-50-19t-37-49.5T49 48t-8-73q0-46 16-76t53-30z"/><glyph glyph-name="one.subs" unicode="₁" horiz-adv-x="356" d="M87-169l62 312H59l8 39q39 6 62.5 14.5T177 221h47l-77-390H87z"/><glyph glyph-name="two.subs" unicode="₂" horiz-adv-x="353" d="M-32-169l7 38Q36-88 80-53.5T152 10t41 55.5 13 53.5q0 29-16 45.5T142 181q-21 0-41.5-13.5T61 134l-35 36q28 27 57.5 45t67.5 18q54 0 85-28t31-77q0-31-12.5-60t-37-58-61-60.5T72-118h163l-10-51H-32z"/><glyph glyph-name="three.subs" unicode="₃" horiz-adv-x="351" d="M101-181q-49 0-83 24t-51 56L8-72q14-26 35.5-43T98-132q35 0 60 18.5T183-60q0 29-25 50T76 11l9 41q34 0 57 7t37 18 20 25 6 28q0 25-16 40t-45 15q-41 0-83-33l-27 41q29 21 58.5 30.5T155 233q49 0 79.5-25t30.5-70q0-37-23.5-66T174 29q34-12 51-37t17-51q0-29-11.5-51.5T200-149t-45-24-54-8z"/><glyph glyph-name="four.subs" unicode="₄" horiz-adv-x="354" d="M131-169l21 106H-24l7 33 214 251h65L214-20h57l-9-43h-56l-21-106h-54zM45-20h116l15 76 26 108h-4l-67-84z"/><glyph glyph-name="five.subs" unicode="₅" horiz-adv-x="351" d="M102-181q-50 0-84 24t-51 56L8-72q14-26 36-43t60-17q16 0 32 7t29 19.5 20.5 30T193-36q0 36-19 56t-51 20q-23 0-39-7.5T49 11L26 34l52 187h207l-10-51H117L88 69q13 8 28 11.5t26 3.5q49 0 80-30.5T253-30q0-34-12.5-62T207-139.5 159-170t-57-11z"/><glyph glyph-name="six.subs" unicode="₆" horiz-adv-x="353" d="M118-181q-27 0-50 10.5T28-140 1-92-9-29Q-9 35 8 84t44.5 82 63.5 50 75 17q60 0 98-38l-34-38q-14 14-30.5 20.5T186 184q-47 0-84.5-39.5T53 29q17 18 42 31t54 13q50 0 78-30t28-76q0-34-11.5-61.5t-31-46.5-44-29.5T118-181zm5 49q15 0 28.5 7t24 19 17 29.5T199-38q0 31-17 49t-46 18q-20 0-43.5-11.5T49-19v-7q0-57 22.5-81.5T123-132z"/><glyph glyph-name="seven.subs" unicode="₇" horiz-adv-x="353" d="M39-169q25 97 69 179t118 160H33l10 51h261l-4-34q-47-45-79-88.5t-54.5-87-37-88.5-25.5-92H39z"/><glyph glyph-name="eight.subs" unicode="₈" horiz-adv-x="353" d="M101-181q-53 0-87 28.5T-20-78q0 21 8 39.5t21.5 34T40 23t35 20l1 4Q59 62 47.5 81T36 123q0 24 10 44.5t27.5 35 41 22.5 49.5 8q48 0 78-26.5t30-70.5q0-38-24-65.5T196 28v-4q21-15 35-35.5T245-62q0-26-11.5-48t-31-38-45.5-24.5-56-8.5zm57 232q29 17 44.5 37t15.5 41q0 28-16.5 43.5T160 188q-29 0-49-17.5T91 126q0-28 19-46t48-29zm-52-188q33 0 58 19.5T189-65q0 17-6.5 29T165-15 139.5 1.5 109 17Q74 0 55.5-22.5T37-70q0-31 20-49t49-18z"/><glyph glyph-name="nine.subs" unicode="₉" horiz-adv-x="353" d="M126 23q21 0 44.5 11.5T214 72v6q0 57-22.5 81.5T139 184q-15 0-28.5-7t-24-19-17-29.5T63 90q0-31 17-49t46-18zM71-181q-60 0-98 38l34 38q28-27 69-27 48 0 85.5 40T210 24Q193 6 167.5-7.5T113-21Q63-21 35 9T7 85q0 34 11.5 61.5t31 46.5 44 29.5T144 233q27 0 50-10.5t40-30.5 27-48 10-63q0-64-16.5-113T210-114t-64-50-75-17z"/><glyph glyph-name="parenleft.subs" unicode="₍" horiz-adv-x="227" d="M48-248q-20 42-31 90T6-56q0 51 8.5 95.5t27 86.5T88 210t67 87l38-22q-67-83-98.5-163.5T63-57q0-41 6.5-88T92-228z"/><glyph glyph-name="parenright.subs" unicode="₎" horiz-adv-x="226" d="M-18-248l-39 21q68 83 99.5 163.5T74 105q0 41-6.5 88T45 276l43 21q20-42 31.5-90.5T131 105q0-51-8.5-95.5t-27-87-46.5-84-67-86.5z"/><glyph glyph-name="period.subs" horiz-adv-x="170" d="M1-177q-17 0-27 10.5T-36-139q0 23 15 38.5T16-85q16 0 26.5-10.5T53-123q0-23-15-38.5T1-177z"/><glyph glyph-name="comma.subs" horiz-adv-x="170" d="M-57-283l-11 36q32 13 51.5 31.5T8-170H4q-15 0-26 10t-11 27q0 24 14.5 36T16-85q19 0 30.5-14.5T58-138q0-51-31-88t-84-57z"/><glyph glyph-name="zero.dnom" horiz-adv-x="357" d="M138-12Q109-12 86-.5t-38.5 32-24 48T15 140q0 46 12 93t35.5 85 57 61.5T197 403q29 0 52-11.5t38.5-32 24-48T320 251q0-47-12-94t-35.5-84.5-57.5-61T138-12zm5 50q28 0 50 19t37 49 23 67 8 73q0 46-16 76.5T192 353q-28 0-50-19t-37-49.5T82 217t-8-73q0-46 16-76t53-30z"/><glyph glyph-name="one.dnom" horiz-adv-x="356" d="M120 0l62 312H92l8 39q39 6 62.5 14.5T210 390h47L180 0h-60z"/><glyph glyph-name="two.dnom" horiz-adv-x="353" d="M1 0l7 38q61 43 105 77.5t72 63.5 41 55.5 13 53.5q0 29-16 45.5T175 350q-21 0-41.5-13.5T94 303l-35 36q28 27 57.5 45t67.5 18q54 0 85-28t31-77q0-31-12.5-60t-37-58-61-60.5T105 51h163L258 0H1z"/><glyph glyph-name="three.dnom" horiz-adv-x="351" d="M134-12q-49 0-83 24T0 68l41 29q14-26 35.5-43T131 37q35 0 60 18.5t25 53.5q0 29-25 50t-82 21l9 41q34 0 57 7t37 18 20 25 6 28q0 25-16 40t-45 15q-41 0-83-33l-27 41q29 21 58.5 30.5T188 402q49 0 79.5-25t30.5-70q0-37-23.5-66T207 198q34-12 51-37t17-51q0-29-11.5-51.5T233 20 188-4t-54-8z"/><glyph glyph-name="four.dnom" horiz-adv-x="354" d="M164 0l21 106H9l7 33 214 251h65l-48-241h57l-9-43h-56L218 0h-54zM78 149h116l15 76 26 108h-4l-67-84z"/><glyph glyph-name="five.dnom" horiz-adv-x="351" d="M135-12q-50 0-84 24T0 68l41 29q14-26 36-43t60-17q16 0 32 7t29 19.5 20.5 30T226 133q0 36-19 56t-51 20q-23 0-39-7.5T82 180l-23 23 52 187h207l-10-51H150l-29-101q13 8 28 11.5t26 3.5q49 0 80-30.5t31-83.5q0-34-12.5-62T240 29.5 192-1t-57-11z"/><glyph glyph-name="six.dnom" horiz-adv-x="353" d="M151-12q-27 0-50 10.5T61 29 34 77t-10 63q0 64 17 113t44.5 82 63.5 50 75 17q60 0 98-38l-34-38q-14 14-30.5 20.5T219 353q-47 0-84.5-39.5T86 198q17 18 42 31t54 13q50 0 78-30t28-76q0-34-11.5-61.5t-31-46.5-44-29.5T151-12zm5 49q15 0 28.5 7t24 19 17 29.5T232 131q0 31-17 49t-46 18q-20 0-43.5-11.5T82 150v-7q0-57 22.5-81.5T156 37z"/><glyph glyph-name="seven.dnom" horiz-adv-x="353" d="M72 0q25 97 69 179t118 160H66l10 51h261l-4-34q-47-45-79-88.5t-54.5-87-37-88.5T137 0H72z"/><glyph glyph-name="eight.dnom" horiz-adv-x="353" d="M134-12q-53 0-87 28.5T13 91q0 21 8 39.5t21.5 34T73 192t35 20l1 4q-17 15-28.5 34T69 292q0 24 10 44.5t27.5 35 41 22.5 49.5 8q48 0 78-26.5t30-70.5q0-38-24-65.5T229 197v-4q21-15 35-35.5t14-50.5q0-26-11.5-48t-31-38T190-3.5 134-12zm57 232q29 17 44.5 37t15.5 41q0 28-16.5 43.5T193 357q-29 0-49-17.5T124 295q0-28 19-46t48-29zM139 32q33 0 58 19.5t25 52.5q0 17-6.5 29T198 154t-25.5 16.5T142 186q-35-17-53.5-39.5T70 99q0-31 20-49t49-18z"/><glyph glyph-name="nine.dnom" horiz-adv-x="353" d="M159 192q21 0 44.5 11.5T247 241v6q0 57-22.5 81.5T172 353q-15 0-28.5-7t-24-19-17-29.5T96 259q0-31 17-49t46-18zM104-12Q44-12 6 26l34 38q28-27 69-27 48 0 85.5 40T243 193q-17-18-42.5-31.5T146 148q-50 0-78 30t-28 76q0 34 11.5 61.5t31 46.5 44 29.5T177 402q27 0 50-10.5t40-30.5 27-48 10-63q0-64-16.5-113T243 55 179 5t-75-17z"/><glyph glyph-name="parenleft.dnom" horiz-adv-x="227" d="M81-79Q61-37 50 11T39 113q0 51 8.5 95.5t27 86.5 46.5 84 67 87l38-22q-67-83-98.5-163.5T96 112q0-41 6.5-88T125-59z"/><glyph glyph-name="parenright.dnom" horiz-adv-x="226" d="M15-79l-39 21q68 83 99.5 163.5T107 274q0 41-6.5 88T78 445l43 21q20-42 31.5-90.5T164 274q0-51-8.5-95.5t-27-87T82 7.5 15-79z"/><glyph glyph-name="period.dnom" horiz-adv-x="170" d="M34-8Q17-8 7 2.5T-3 30q0 23 15 38.5T49 84q16 0 26.5-10.5T86 46q0-23-15-38.5T34-8z"/><glyph glyph-name="comma.dnom" horiz-adv-x="170" d="M-24-114l-11 36q32 13 51.5 31.5T41-1h-4Q22-1 11 9T0 36q0 24 14.5 36T49 84q19 0 30.5-14.5T91 31q0-51-31-88t-84-57z"/><glyph glyph-name="zero.numr" horiz-adv-x="357" d="M188 258q-29 0-52 11.5t-38.5 32-24 48T65 410q0 46 12 93t35.5 85 57 61.5T247 673q29 0 52-11.5t38.5-32 24-48T370 521q0-47-12-94t-35.5-84.5-57.5-61-77-23.5zm5 50q28 0 50 19t37 49 23 67 8 73q0 46-16 76.5T242 623q-28 0-50-19t-37-49.5-23-67.5-8-73q0-46 16-76t53-30z"/><glyph glyph-name="one.numr" horiz-adv-x="356" d="M170 270l62 312h-90l8 39q39 6 62.5 14.5T260 660h47l-77-390h-60z"/><glyph glyph-name="two.numr" horiz-adv-x="353" d="M51 270l7 38q61 43 105 77.5t72 63.5 41 55.5 13 53.5q0 29-16 45.5T225 620q-21 0-41.5-13.5T144 573l-35 36q28 27 57.5 45t67.5 18q54 0 85-28t31-77q0-31-12.5-60t-37-58-61-60.5T155 321h163l-10-51H51z"/></font>
</defs>
</svg>
