<?xml version="1.0" encoding="UTF-8" standalone="no"?>
<svg
   xmlns:dc="http://purl.org/dc/elements/1.1/"
   xmlns:cc="http://creativecommons.org/ns#"
   xmlns:rdf="http://www.w3.org/1999/02/22-rdf-syntax-ns#"
   xmlns:svg="http://www.w3.org/2000/svg"
   xmlns="http://www.w3.org/2000/svg"
   version="1.1"
   id="svg3819"
   viewBox="0 0 200 200"
   height="200"
   width="200">
  <defs
     id="defs3821" />
  <metadata
     id="metadata3824">
    <rdf:RDF>
      <cc:Work
         rdf:about="">
        <dc:format>image/svg+xml</dc:format>
        <dc:type
           rdf:resource="http://purl.org/dc/dcmitype/StillImage" />
        <dc:title></dc:title>
      </cc:Work>
    </rdf:RDF>
  </metadata>
  <g
     transform="translate(-54.285717,-246.64797)"
     id="layer1">
    <g
       style="fill:#1a1a1a;fill-opacity:1"
       transform="matrix(0.83333338,0,0,0.83333338,-580.97866,1003.1064)"
       id="g8157">
      <path
         style="fill:#1a1a1a;fill-opacity:1"
         d="m 858.94686,-668.01381 c -4.39986,-0.38544 -5.24268,-0.70636 -5.24268,-1.99636 0,-0.47697 -1.0056,-2.39738 -2.23463,-4.26756 -1.22905,-1.87019 -2.36546,-4.21749 -2.52528,-5.21627 -0.63337,-3.95724 -0.6876,-4.0614 -2.115,-4.06335 -1.78667,-0.002 -4.48455,-1.6741 -5.18637,-3.21352 -0.31181,-0.68401 -1.40604,-1.56117 -2.48633,-1.99317 -1.06117,-0.42436 -1.92942,-1.10593 -1.92942,-1.51461 0,-0.40868 -0.61789,-0.88812 -1.37308,-1.06539 -2.78202,-0.6531 -7.61438,-6.51713 -7.61438,-9.24003 0,-1.33284 1.1088,-2.93204 2.03286,-2.93204 0.255,0 0.46366,0.6976 0.46366,1.55023 0,1.24705 0.70007,2.27179 3.5795,5.23966 1.96876,2.02919 3.86062,3.68944 4.20414,3.68944 0.34358,0 1.70987,1.20128 3.03627,2.66951 2.41478,2.67298 4.57242,3.81769 7.19586,3.81769 1.46276,0 1.61765,0.25644 2.18506,3.61786 0.25983,1.53924 0.52317,1.87131 1.48407,1.87131 0.69514,0 1.49946,-0.50523 1.98609,-1.24754 1.02916,-1.56978 1.95757,-1.58371 2.96666,-0.0446 0.43374,0.66166 1.63921,1.47746 2.67877,1.81288 1.03954,0.33544 3.2556,1.22205 4.92458,1.97027 2.50136,1.12137 3.30698,1.80291 4.585,3.87879 1.80414,2.93043 1.74941,2.913 10.60506,3.37807 l 6.2413,0.32777 -1.24826,-1.34464 c -0.68654,-0.73954 -2.33166,-1.89573 -3.65575,-2.56931 -4.07228,-2.07154 -7.26382,-4.65056 -9.33863,-7.5463 -1.09158,-1.52352 -1.98473,-3.06604 -1.98473,-3.42782 0,-1.62903 5.32388,-1.20308 10.61943,0.84965 1.58415,0.61405 3.04461,0.94947 3.24548,0.74538 0.20087,-0.20412 -4.12849,-4.72365 -9.62084,-10.04342 -8.60944,-8.33892 -10.48937,-9.91536 -13.63687,-11.43529 -2.0079,-0.96962 -5.34001,-2.90218 -7.40463,-4.29459 -5.95619,-4.01687 -6.19586,-4.07595 -14.89543,-3.67174 -7.77895,0.36141 -9.74935,0.1567 -9.74935,-1.01288 0,-1.45616 7.08158,-5.97174 12.03787,-7.67597 4.22076,-1.45132 6.8781,-2.9369 10.60656,-5.92956 4.1883,-3.36174 28.58438,-26.83124 28.99076,-27.88966 0.56042,-1.45962 0.2818,-2.24286 -1.31681,-3.70214 -2.60477,-2.37774 -3.67473,-2.03354 -10.46401,3.36618 -2.37284,1.88719 -6.27001,4.54672 -8.66037,5.91004 -2.39037,1.36332 -5.77904,3.55029 -7.5304,4.85994 -5.66714,4.23784 -8.23097,4.49537 -12.28571,1.2341 -6.9611,-5.5988 -8.36324,-17.14517 -5.40806,-44.53455 1.63856,-15.1872 3.19724,-43.57802 2.54529,-46.36226 -0.60894,-2.60066 -2.39445,-4.34045 -3.86745,-3.76843 -2.079,0.80736 -2.71825,2.68185 -3.94765,11.57529 -2.0367,14.73416 -2.81492,19.03394 -3.77058,20.83297 -0.50815,0.95655 -0.92387,2.25462 -0.92387,2.88461 0,0.63001 -0.55827,4.22624 -1.24067,7.99164 -0.68234,3.7654 -1.36894,7.58852 -1.52572,8.49582 -0.15683,0.9073 -0.72194,2.08622 -1.2559,2.61984 -1.01568,1.0151 -3.19893,1.30881 -3.70044,0.49781 -0.16068,-0.25981 0.7181,-2.98419 1.95283,-6.05415 3.31648,-8.24611 8.26557,-28.19603 8.26712,-33.32489 5e-4,-2.40096 1.08908,-9.10108 1.93455,-11.90941 0.40668,-1.35078 0.26993,-2.02913 -0.85011,-4.21616 -1.76574,-3.44781 -3.34888,-4.58637 -5.75103,-4.13598 -1.75445,0.32894 -1.87054,0.48057 -2.7986,3.6555 -0.53256,1.82178 -1.21461,5.28321 -1.51563,7.69207 -0.60157,4.8132 -1.81707,9.1703 -3.80915,13.654 -0.71469,1.60871 -2.15958,6.76872 -3.21081,11.46673 -2.19944,9.82922 -4.38139,15.92244 -6.52185,18.21252 -1.28457,1.37428 -1.59483,1.50159 -2.18631,0.89704 -0.87368,-0.89295 -1.66827,-7.92999 -2.27708,-20.16616 -1.3232,-26.59673 -1.37068,-27.18402 -2.34962,-29.06931 -1.11245,-2.14235 -2.80943,-2.76847 -5.00397,-1.84627 -2.58674,1.08702 -2.98824,2.28437 -3.58964,10.70545 -0.30383,4.25411 -0.67551,8.1385 -0.826,8.63198 -0.15049,0.49345 -0.0596,1.16713 0.20187,1.49704 1.1419,1.44057 1.61185,4.76128 2.10172,14.8528 0.2873,5.91792 0.8546,12.97189 1.26069,15.6755 0.93939,6.2544 0.93594,6.34896 -0.27976,7.65309 -1.61455,1.73205 -2.04645,1.34043 -1.95992,-1.77721 0.044,-1.57814 -0.15403,-7.92188 -0.43958,-14.09719 -0.28555,-6.17531 -0.47599,-13.26679 -0.42322,-15.75881 0.0901,-4.25052 0.007,-4.65883 -1.33423,-6.59646 -1.83609,-2.65165 -3.02333,-3.03956 -4.65132,-1.51982 -2.99422,2.79515 -2.78371,0.88162 -4.16389,37.84752 -0.51873,13.89339 -0.72904,16.26678 -1.81103,20.43559 l -1.22419,4.7166 0.78256,9.75484 c 0.91892,11.45521 1.68975,15.76122 4.10498,22.93204 3.26464,9.69243 5.72551,13.02845 10.3609,14.0454 3.36086,0.73733 7.80815,0.45461 8.26263,-0.52525 1.55083,-3.3438 2.18599,-3.57788 5.38079,-1.98324 1.78746,0.89218 2.7604,1.05816 4.90556,0.8369 2.51059,-0.25897 2.66893,-0.21009 2.56358,0.79139 -0.0916,0.87007 0.42155,1.28197 2.77532,2.22784 l 2.88768,1.16041 5.46642,-1.76616 c 5.79931,-1.8737 7.69222,-2.16719 7.36798,-1.14239 -0.3239,1.0236 -5.44222,4.27427 -8.12437,5.15981 -1.37309,0.45334 -3.56718,1.47078 -4.87571,2.26099 -2.97224,1.79485 -4.32491,1.80949 -5.95854,0.0644 -1.45351,-1.55264 -2.8966,-4.19817 -2.8966,-5.31018 0,-1.28311 -0.84143,-1.34913 -3.55759,-0.27915 -1.44734,0.57017 -3.54207,1.00163 -4.65486,0.95878 -4.03582,-0.15537 -5.97182,0.0108 -5.49344,0.47143 0.26088,0.25121 1.01848,0.53191 1.6835,0.62376 0.66502,0.0918 1.29685,0.43331 1.40399,0.75879 0.31636,0.96059 -3.21092,1.73026 -9.22893,2.01376 -3.08944,0.14555 -5.61716,0.41934 -5.61716,0.60842 0,0.8414 4.14986,2.20235 8.65278,2.8377 5.04007,0.71114 6.82564,1.30475 6.82564,2.26915 0,0.37501 -0.83724,0.4428 -2.62135,0.21225 -8.6388,-1.11627 -12.33899,-0.77987 -10.10845,0.91904 0.75539,0.57538 0.84402,0.8594 0.36668,1.17524 -0.46944,0.31061 -0.29514,0.72532 0.6858,1.63129 0.72334,0.66813 1.71181,2.11301 2.19648,3.21085 l 0.88132,1.99606 0.60242,-1.49704 c 0.33139,-0.82338 0.80642,-2.01864 1.05577,-2.65615 0.7537,-1.92726 2.17138,-1.19085 2.34813,1.21974 0.11768,1.60478 -0.12548,2.37554 -1.12344,3.56085 -0.80138,0.95181 -1.27816,2.13364 -1.2858,3.18725 -0.019,2.59137 -0.90923,5.87774 -2.48159,9.15975 -0.7889,1.64675 -1.58589,3.75304 -1.77108,4.68063 l -0.33668,1.68654 2.42562,-0.35529 c 2.936,-0.43007 3.04025,-0.52354 4.92208,-4.41299 1.24367,-2.57044 1.70977,-3.09594 2.74618,-3.09594 1.1767,0 1.25659,0.17175 1.3937,2.99529 0.20931,4.3108 -0.17036,4.63556 -5.88744,5.03569 -2.60887,0.1826 -5.41745,0.60354 -6.2413,0.93545 -2.28231,0.91948 -2.94799,0.45317 -1.7511,-1.22673 1.26049,-1.76917 1.26124,-2.3506 0.005,-2.74954 -1.54898,-0.49135 -1.18663,-1.61539 0.95668,-2.96761 1.07534,-0.67847 2.09751,-1.46371 2.27147,-1.74497 0.17392,-0.28126 0.63043,-2.59207 1.01439,-5.13513 l 0.69818,-4.62374 -3.21931,-3.25612 c -1.77063,-1.79087 -3.21932,-3.62244 -3.21932,-4.07016 0,-0.52233 -0.31311,-0.73904 -0.87378,-0.60476 -1.15134,0.27576 -1.73243,-0.16318 -3.31362,-2.50296 -1.13203,-1.67518 -1.27962,-2.30961 -1.0448,-4.49114 0.23352,-2.16958 0.17985,-2.40503 -0.36783,-1.61296 -0.35266,0.51009 -1.92218,2.7189 -3.48774,4.90848 -1.56556,2.18956 -3.10972,4.77814 -3.43147,5.75238 -0.3217,0.97425 -1.11594,2.55338 -1.76494,3.50918 -1.17894,1.73635 -2.18479,4.59568 -2.19005,6.22592 -0.002,0.50039 -0.52003,0.99352 -1.23233,1.17219 -1.17303,0.29423 -1.23613,0.50681 -1.37308,4.6254 -0.11441,3.44089 -0.29554,4.31698 -0.8925,4.31698 -0.64268,0 -0.76779,-1.80552 -0.88171,-12.72488 l -0.13276,-12.7249 2.3258,-2.65672 c 2.25765,-2.57886 6.37056,-8.72336 9.2444,-13.81079 1.79405,-3.17585 1.84398,-6.10999 0.22528,-13.24085 -1.97025,-8.67996 -2.43495,-12.80323 -2.41613,-21.44072 0.016,-7.27841 0.17116,-8.81277 1.33884,-13.22391 2.15339,-8.1351 2.28766,-9.28122 3.03975,-25.94882 0.39636,-8.78267 0.9728,-17.65267 1.28107,-19.7111 0.75924,-5.06982 2.64532,-9.60797 4.76666,-11.46949 1.87943,-1.64919 2.27687,-1.75506 3.71027,-0.98834 1.06586,0.57007 0.95722,1.48371 1.17396,-9.87312 0.0955,-5.00359 0.91867,-7.07752 3.43606,-8.65718 2.25731,-1.41647 7.56315,-1.14963 8.85545,0.44535 0.96785,1.19455 1.03376,2.0318 1.99167,25.30311 0.51439,12.49546 1.183,20.83547 1.79909,22.44005 0.52182,1.359 1.57112,0.81468 2.61536,-1.35664 0.56091,-1.16645 1.93654,-6.61196 3.05688,-12.10113 2.92203,-14.31664 7.70486,-33.11646 9.25659,-36.38459 2.42697,-5.11151 7.95561,-4.82623 10.69634,0.55193 0.67226,1.31924 1.2888,2.49081 1.36998,2.6035 0.0812,0.11266 0.5423,-0.14147 1.02458,-0.56475 2.40904,-2.11442 4.67099,-1.64512 6.0545,1.25619 1.22005,2.55845 1.46102,8.47202 0.92921,22.80691 -0.46455,12.52208 -0.6476,15.08652 -2.1906,30.68946 -1.47374,14.90297 -1.37688,19.69084 0.55797,27.57972 1.62294,6.61714 2.66304,8.57132 5.77835,10.85684 2.41832,1.77421 2.64766,1.84185 4.43277,1.30733 1.94613,-0.58274 2.44893,-0.9008 8.91995,-5.64266 5.10809,-3.74314 18.03526,-11.85331 19.47988,-12.22118 0.62903,-0.16018 2.15795,-0.007 3.39762,0.33946 1.31711,0.36855 2.42317,0.44501 2.66114,0.18393 0.22394,-0.24572 0.88571,-2.05351 1.47054,-4.01734 1.26999,-4.2642 1.40171,-10.44873 0.31716,-14.893 -0.98592,-4.04015 -1.56261,-11.72685 -0.87982,-11.72685 0.28636,0 0.67212,0.39297 0.8573,0.87327 0.31277,0.81142 0.37498,0.80502 0.87783,-0.0905 0.29763,-0.53004 1.04015,-2.8879 1.65005,-5.23967 0.6099,-2.35176 1.58704,-5.46318 2.17142,-6.91425 0.58438,-1.45107 1.05757,-3.13524 1.05154,-3.74262 -0.016,-1.61923 -1.88437,-5.46776 -2.47675,-5.10186 -0.27946,0.17261 -0.50809,1.98476 -0.50809,4.02701 l 0,3.71316 -2.20812,0 -2.20813,0 0.0861,4.11687 c 0.0475,2.26429 -0.0957,4.39758 -0.31785,4.74066 -0.25864,0.39934 -1.63856,0.62376 -3.8356,0.62376 -4.05429,0 -3.96951,0.0836 -7.85125,-7.73474 -2.87319,-5.78688 -3.38139,-7.51672 -4.39716,-14.96788 -0.41138,-3.01763 -1.31822,-7.57864 -2.0152,-10.13559 -1.87199,-6.86743 -0.74745,-8.70825 2.53242,-4.14552 1.6865,2.34609 3.73779,3.63581 3.73779,2.35007 0,-0.33396 -0.89636,-3.17604 -1.99192,-6.31574 -2.32945,-6.67592 -2.4418,-8.56549 -1.01224,-17.02907 2.06067,-12.19989 3.19264,-16.33692 7.57103,-27.67048 4.76336,-12.33001 14.22387,-20.57909 27.65314,-24.11207 12.77476,-3.36078 30.32493,-3.55934 37.66295,-0.42601 5.8074,2.47974 18.05677,12.01148 22.65952,17.63231 6.18554,7.55383 11.85964,17.74248 14.58264,26.18567 1.1793,3.65698 1.4002,5.30878 1.6022,11.9838 0.2773,9.16538 -0.2874,13.47208 -2.4245,18.49146 -1.4083,3.30735 -1.5267,3.97815 -1.2315,6.97206 0.2643,2.68114 0.1773,3.43649 -0.4569,3.96241 -0.4308,0.35737 -0.9465,0.4871 -1.1458,0.28824 -0.1993,-0.19885 -0.4948,-5.68283 -0.6567,-12.18663 -0.3112,-12.50484 -0.6996,-14.64768 -2.7062,-14.93047 -0.5466,-0.077 -4.02717,0.78138 -7.73456,1.90759 -13.93817,4.23415 -20.60742,3.98219 -43.02122,-1.62534 -12.07308,-3.02048 -14.43528,-3.47762 -15.10396,-2.92298 -0.9611,0.7972 -0.97054,2.08666 -0.0527,7.23411 0.51194,2.87136 1.02976,4.27883 1.89082,5.13938 0.7135,0.71309 4.35338,2.33342 9.13882,4.06819 4.37415,1.58571 9.86284,3.87641 12.19709,5.09043 l 4.24408,2.20736 0.15034,2.32531 c 0.15344,2.3729 -0.94807,5.90843 -1.84078,5.90843 -0.27122,0 -0.56357,-0.7298 -0.6496,-1.62179 -0.13216,-1.36953 -0.54483,-1.83346 -2.653,-2.98244 -2.44703,-1.33367 -4.74338,-1.799 -4.74338,-0.96119 0,0.23252 0.50555,0.66643 1.12343,0.96426 1.00595,0.48487 0.90579,0.54503 -0.95776,0.57527 -2.81323,0.0457 -3.66079,-0.35645 -3.66079,-1.73672 0,-1.76264 -0.85296,-1.93379 -2.54521,-0.51069 -1.93645,1.62847 -3.6747,2.06579 -5.28904,1.33067 -1.03097,-0.46946 -1.37608,-0.43667 -1.83559,0.17441 -0.31127,0.41391 -2.20962,1.09472 -4.21867,1.51288 -4.24552,0.88372 -10.94348,3.82478 -11.3963,5.00412 -0.20052,0.52227 0.24636,1.38761 1.25214,2.42475 0.86021,0.88697 1.56398,1.83124 1.56398,2.09836 0,0.94279 4.69251,8.482 7.01621,11.2726 3.96468,4.76128 5.07688,7.62026 5.55945,14.29082 0.51379,7.1019 0.82804,7.69802 1.63223,3.09578 0.31535,-1.8049 7.48742,-12.48133 8.63527,-12.85461 0.96635,-0.31424 0.7517,1.4633 -0.64335,5.32854 -1.33744,3.70548 -1.58264,5.5574 -0.98014,7.40131 0.28077,0.85922 0.17326,1.12279 -0.45785,1.12279 -1.40046,0 -3.28617,1.55063 -3.28617,2.70217 0,1.44035 0.90559,2.2844 2.47155,2.30359 0.70028,0.009 2.39666,0.56792 3.76974,1.24298 1.92207,0.94494 3.3008,1.22938 5.99164,1.23612 6.03414,0.0152 24.38435,1.46583 24.88622,1.96743 0.30637,0.30614 -3.10804,0.4429 -9.45723,0.37882 -10.13022,-0.10227 -17.91521,0.36985 -19.20162,1.16446 -0.59617,0.36823 -0.54924,0.56932 0.27996,1.19967 2.86166,2.17545 6.65967,2.95929 20.62858,4.25744 0.0877,0.008 0.0877,0.51799 0,1.13295 -0.0878,0.61528 -0.74935,1.39969 -1.471,1.74425 -1.85711,0.88667 -9.54828,1.60999 -17.22693,1.62012 l -6.55505,0.009 -2.05793,-2.66593 c -1.84838,-2.39443 -2.05793,-2.95045 -2.05793,-5.45972 0,-2.68753 -0.56586,-3.95622 -1.26226,-2.83008 -0.18294,0.29584 -0.44158,3.16261 -0.5747,6.37058 l -0.24207,5.83268 2.04088,3.06328 c 1.12249,1.6848 2.93905,3.87423 4.03677,4.8654 1.65144,1.49111 2.37259,1.80213 4.17857,1.80213 1.20042,0 3.16579,0.35109 4.36747,0.78018 1.20162,0.4291 5.64956,1.2084 9.88425,1.73177 4.2347,0.52336 7.92561,1.17763 8.20207,1.45392 0.33733,0.33714 -0.0959,0.75231 -1.31726,1.26234 -1.00096,0.41798 -2.06078,0.75997 -2.35517,0.75997 -1.73318,0 -7.48571,4.18037 -7.48571,5.43987 0,0.95344 1.2542,0.61471 7.29408,-1.96993 8.0605,-3.44934 11.54906,-5.37847 12.73412,-7.04168 0.57119,-0.8017 1.37385,-3.40304 1.86053,-6.03007 0.47091,-2.54107 1.07417,-4.62014 1.34079,-4.62014 0.26652,0 0.97128,1.51381 1.56605,3.36401 1.06388,3.30957 2.86578,6.7784 3.87781,7.46508 0.2835,0.19237 1.4188,0.49877 2.52284,0.68092 4.08335,0.67364 16.06585,4.36785 21.00165,6.47488 6.5537,2.79761 7.4017,2.98852 9.7842,2.2027 l 1.9767,-0.65203 2.0981,2.22709 c 1.1539,1.22491 2.642,2.57117 3.3067,2.99172 1.2967,0.82029 1.0819,1.94297 -0.3717,1.94297 -0.4685,0 -2.2425,-0.67806 -3.9421,-1.50678 -1.6997,-0.82875 -4.842,-2.03669 -6.9828,-2.68435 -2.1409,-0.64766 -7.2033,-2.44676 -11.2498,-3.998 -4.0464,-1.55124 -9.8321,-3.46939 -12.857,-4.26256 l -5.49986,-1.44212 0,1.68851 c 0,2.64238 -1.85795,6.9528 -4.2753,9.91864 -2.69985,3.31242 -8.5203,8.05002 -16.3434,13.30281 -7.63515,5.12657 -7.59366,5.12512 -21.42617,0.74824 -13.22158,-4.18356 -13.66166,-4.29495 -14.32973,-3.62722 -0.80843,0.80793 -0.66593,4.11655 0.20846,4.84184 0.41502,0.34421 2.7577,1.03646 5.20599,1.53834 6.00634,1.23125 8.71227,2.59072 12.2756,6.16735 3.02188,3.03317 5.76686,7.39018 5.08511,8.07151 -0.58758,0.58725 -3.406,-0.9945 -7.9604,-4.4675 -2.33395,-1.77976 -4.89123,-3.57034 -5.68288,-3.97906 -1.60807,-0.83023 -6.66932,-1.62203 -13.4188,-2.09929 -6.28988,-0.44477 -8.99765,-1.03594 -12.72121,-2.7774 -8.84731,-4.13778 -8.48147,-6.94621 0.51213,-3.93143 5.3807,1.80365 11.23998,2.57108 10.85672,1.42195 -0.12788,-0.38346 -1.26019,-1.07853 -2.5162,-1.54461 -2.96032,-1.0985 -17.0996,-4.39266 -18.85435,-4.39266 -1.48004,0 -2.43281,0.80417 -6.36832,5.37506 -2.28925,2.65884 -2.91069,3.09085 -4.86822,3.38423 -4.32307,0.64792 -3.55898,1.13394 12.75696,8.11445 15.90967,6.80671 15.67874,6.68651 21.64617,11.26645 2.71776,2.08582 7.66087,5.46384 10.98468,7.50672 9.50361,5.84099 13.73436,9.65501 14.61943,13.17944 0.44293,1.76375 -0.42001,2.79884 -2.48009,2.97484 -1.98778,0.16983 -4.00202,-0.71642 -7.24725,-3.18877 -2.7144,-2.06796 -4.56999,-2.49836 -6.49096,-1.50556 -2.37669,1.22832 -2.77388,3.58237 -1.08669,6.44031 0.87035,1.47427 0.90913,1.78818 0.28495,2.30591 -0.83393,0.6917 -43.14287,1.20635 -49.97455,0.60788 z"
         id="path8115" />
      <path
         style="fill:#1a1a1a;fill-opacity:1"
         d="m 990.7832,-679.99679 c 0.2857,-0.30527 1.6338,-0.69857 2.9959,-0.87401 1.9615,-0.25267 2.3556,-0.19006 1.8956,0.30112 -0.3194,0.34106 -1.6675,0.73437 -2.9958,0.87401 -1.7596,0.185 -2.2742,0.10327 -1.8957,-0.30112 z"
         id="path8113" />
      <path
         style="fill:#1a1a1a;fill-opacity:1"
         d="m 987.3276,-681.83358 c -0.5193,-1.35238 -1.4809,-14.69015 -1.0869,-15.0753 0.2079,-0.20325 1.1599,0.52868 2.1155,1.62652 2.4806,2.84971 8.3789,11.6633 8.0352,12.00673 -0.1589,0.15882 -1.2004,-0.176 -2.3146,-0.74407 -1.1141,-0.56807 -2.2288,-1.03284 -2.477,-1.03284 -0.2482,0 -1.0741,0.89823 -1.8354,1.99607 -1.5044,2.16972 -1.9814,2.40907 -2.4368,1.22289 z"
         id="path8111" />
      <path
         style="fill:#1a1a1a;fill-opacity:1"
         d="m 982.5689,-683.32525 c -1.3245,-1.196 -2.0416,-2.26986 -2.0416,-3.05767 0,-1.6271 1.2766,-4.00528 2.5017,-4.66057 1.2535,-0.67042 1.2515,-0.1058 -0.01,1.49982 -1.475,1.88464 -1.2696,3.91459 0.59,5.83219 2.2373,2.30701 1.4179,2.6099 -1.0449,0.38623 z"
         id="path8109" />
      <path
         style="fill:#1a1a1a;fill-opacity:1"
         d="m 999.0016,-686.19329 c 0,-1.99477 -0.8054,-2.81741 -4.208,-4.29809 -2.7262,-1.18638 -2.6252,-2.28945 0.1587,-1.73298 2.5332,0.50632 5.0479,3.16164 5.0479,5.32999 0,0.98061 -0.2248,1.92172 -0.4994,2.09134 -0.2955,0.18253 -0.4992,-0.38488 -0.4992,-1.39026 z"
         id="path8107" />
      <path
         style="fill:#1a1a1a;fill-opacity:1"
         d="m 928.94232,-784.86389 c -2.05459,-0.61637 -2.76939,-1.37295 -3.35667,-3.55272 -0.36739,-1.3636 -1.04529,-2.28145 -2.2605,-3.06072 -2.15234,-1.38016 -2.49552,-2.51658 -2.34673,-7.77069 0.15199,-5.3657 0.83374,-7.84604 2.44704,-8.9025 0.70257,-0.46009 1.84348,-2.0314 2.53537,-3.49179 0.86334,-1.8224 1.55278,-2.65524 2.19808,-2.65524 0.84677,0 0.94014,0.42039 0.94014,4.23237 0,2.32781 -0.26503,5.77692 -0.58893,7.66468 -0.74301,4.33059 -0.22643,5.74 3.00726,8.20464 3.10562,2.36699 6.48595,3.30612 8.70037,2.41715 0.88745,-0.35627 2.06291,-0.7696 2.61215,-0.9185 0.99462,-0.26964 0.99462,-0.26651 -0.008,0.78484 -0.55327,0.58055 -2.88283,1.82339 -5.17678,2.76185 -2.52078,1.03128 -4.7289,2.31701 -5.58161,3.2501 -0.77598,0.84909 -1.47974,1.52451 -1.56388,1.50092 -0.0841,-0.0236 -0.7852,-0.23258 -1.55797,-0.46439 z"
         id="path8105" />
      <path
         style="fill:#1a1a1a;fill-opacity:1"
         d="m 961.05447,-821.11672 c -1.17756,-0.52107 -2.52384,-0.68177 -4.12755,-0.49269 -2.13694,0.25193 -2.5553,0.12677 -4.09648,-1.22566 l -1.71649,-1.50626 -1.50102,1.1091 c -1.07077,0.79119 -2.16666,1.09905 -3.82316,1.07403 -2.7593,-0.0417 -3.45159,-0.58883 -3.00336,-2.37366 0.27082,-1.07845 1.21631,-1.74341 5.07947,-3.57234 2.62932,-1.24482 7.12368,-2.82614 10.07527,-3.54499 4.94179,-1.20357 5.48502,-1.45867 7.48481,-3.51515 1.18594,-1.21959 2.28614,-2.08772 2.44474,-1.92921 0.7244,0.72395 -2.17482,5.07745 -5.10284,7.66259 -1.74815,1.54347 -3.07605,2.97206 -2.95078,3.17462 0.12526,0.20257 0.99385,0.51194 1.93016,0.6875 2.52754,0.47388 4.38836,2.12057 4.20307,3.71921 -0.12387,1.06752 -0.43374,1.33241 -1.65036,1.4103 -0.82383,0.0528 -2.28429,-0.25207 -3.24548,-0.67739 z"
         id="path5954" />
    </g>
  </g>
</svg>
